M48
;DRILL file {kicad (2014-jan-25)-product} date Sun 13 Jul 2014 03:50:32 PM PDT
;FORMAT={2:4/ absolute / inch / suppress leading zeros}
FMAT,2
INCH,TZ
T1C0.025
T2C0.030
T3C0.032
T4C0.032
T5C0.039
T6C0.040
T7C0.047
T8C0.050
T9C0.125
T10C0.150
%
G90
G05
M72
T1
X11000Y-37500
X12000Y-20750
X12000Y-37000
X12250Y-21750
X12250Y-22500
X12500Y-34750
X13500Y-28500
X13500Y-32000
X13500Y-44000
X13750Y-25750
X13750Y-45250
X14000Y-24000
X14000Y-28000
X14000Y-32000
X14000Y-34000
X14500Y-14500
X14500Y-44500
X15000Y-13500
X15000Y-28250
X15000Y-29000
X15000Y-32500
X15000Y-35250
X15000Y-46250
X15250Y-45000
X15500Y-12500
X15500Y-41500
X15750Y-17500
X15750Y-46500
X15750Y-47000
X15750Y-47500
X16000Y-12000
X16000Y-43000
X16000Y-48000
X16250Y-22750
X16500Y-27750
X16500Y-30750
X16500Y-33750
X16750Y-21500
X16750Y-22750
X17250Y-15500
X17250Y-23000
X17500Y-43000
X17500Y-47250
X17750Y-23250
X18000Y-30750
X18000Y-42000
X18250Y-17000
X18250Y-18250
X18500Y-29750
X19000Y-32000
X19750Y-23250
X20250Y-23000
X20500Y-27750
X21000Y-23250
X21000Y-30500
X21000Y-38000
X21500Y-36000
X21500Y-36500
X21750Y-21500
X21750Y-38000
X22000Y-40750
X22000Y-42750
X22500Y-22750
X22500Y-27750
X22500Y-41000
X22500Y-42750
X22750Y-13500
X22750Y-14000
X23000Y-26750
X23000Y-48000
X23250Y-12500
X23250Y-21500
X23500Y-15500
X23500Y-23500
X23500Y-31500
X23750Y-15000
X24000Y-22000
X24000Y-26500
X24000Y-33750
X24000Y-34750
X24250Y-14500
X24250Y-15500
X24250Y-17750
X24250Y-19000
X24250Y-29250
X24500Y-23500
X24500Y-24000
X24750Y-16750
X24750Y-44500
X25000Y-22000
X25000Y-31750
X25000Y-36000
X25000Y-36500
X25250Y-43500
X25250Y-47500
X25500Y-13000
X25500Y-26250
X25500Y-28500
X25500Y-29250
X25500Y-34000
X25750Y-16500
X25750Y-42750
X25750Y-44000
X25750Y-45000
X25750Y-46000
X25750Y-47000
X26000Y-17500
X26000Y-18500
X26000Y-23750
X26250Y-12000
X26250Y-14000
X26250Y-16000
X26250Y-17000
X26250Y-18000
X26250Y-48000
X26250Y-48500
X26500Y-24500
X26500Y-25250
X26500Y-27750
X26500Y-29250
X26750Y-22250
X26750Y-34250
X26750Y-36000
X26750Y-36500
X26750Y-38500
X27000Y-23500
X27000Y-32000
X27250Y-38250
X27500Y-25000
X27500Y-25750
X27500Y-27750
X27500Y-33750
X27750Y-36000
X27750Y-36500
X27750Y-40250
X28000Y-31250
X28250Y-37250
X28500Y-21500
X28500Y-34000
X28500Y-38000
X29000Y-18250
X29000Y-37500
X29000Y-42500
X29000Y-43000
X29250Y-17500
X29250Y-40500
X29250Y-41000
X29500Y-36000
X29500Y-39000
X29750Y-31000
X29750Y-48750
X30000Y-18500
X30000Y-28500
X30000Y-38250
X30250Y-34250
X30250Y-48750
X30500Y-17500
X30500Y-25000
X30500Y-29250
X30500Y-31000
X30500Y-36000
X30500Y-37500
X30500Y-40750
X30750Y-18000
X31000Y-32000
X31500Y-22750
X31500Y-34250
X31750Y-37500
X31750Y-38250
X32000Y-22500
X32250Y-36000
X32500Y-22500
X32500Y-24000
X32750Y-33500
X33250Y-24500
X33750Y-33500
X34000Y-39500
X34000Y-47000
X34250Y-45250
X34250Y-46000
X34500Y-34000
X34500Y-43000
X34500Y-44000
X34750Y-15550
X34997Y-36003
X35500Y-44000
X35750Y-35000
X36000Y-29000
X36000Y-31000
X36250Y-16000
X36250Y-35250
X36300Y-18900
X36750Y-27750
X37000Y-16750
X37000Y-17250
X37000Y-17750
X37000Y-18250
X37000Y-18750
X37500Y-47250
X37650Y-12650
X40000Y-27250
X40000Y-35000
X41000Y-29500
X41500Y-27500
X42000Y-32250
X42750Y-26250
X43000Y-18750
X43250Y-16750
X43250Y-17250
X43250Y-17750
X43250Y-18250
X44250Y-46250
X44500Y-17250
X44500Y-25000
X45250Y-42500
X45500Y-44500
X45750Y-19000
X46000Y-16000
X46000Y-33250
X47500Y-37750
X47750Y-27250
X48500Y-19250
T2
X37000Y-34250
X37000Y-35250
T3
X19500Y-34000
X19500Y-35250
X19500Y-37250
X20500Y-26000
X20500Y-34000
X20500Y-35250
X20500Y-37250
X21500Y-26000
X22250Y-35289
X22250Y-37211
X35750Y-24750
X36750Y-24750
X36750Y-29750
X37750Y-29750
X41000Y-35250
X42000Y-35250
X43500Y-36250
X43750Y-45500
X44000Y-21000
X44000Y-22750
X44000Y-24500
X44500Y-36250
X44750Y-45500
X45000Y-21000
X45000Y-22750
X45000Y-24500
T4
X11500Y-27000
X11500Y-33000
X12500Y-27000
X12500Y-33000
X13500Y-27000
X13500Y-33000
X14500Y-27000
X14500Y-33000
X15500Y-27000
X15500Y-33000
X16500Y-27000
X16500Y-33000
X17500Y-27000
X17500Y-33000
X18500Y-27000
X18500Y-33000
X19500Y-27000
X19500Y-33000
X20500Y-27000
X20500Y-33000
X21500Y-27000
X21500Y-33000
X22500Y-27000
X22500Y-33000
X23500Y-27000
X23500Y-33000
X24500Y-27000
X24500Y-33000
X25500Y-27000
X25500Y-33000
X26500Y-27000
X26500Y-33000
X27500Y-27000
X27500Y-33000
X28500Y-27000
X28500Y-33000
X29500Y-27000
X29500Y-33000
X30500Y-27000
X30500Y-33000
X36750Y-25500
X36750Y-28500
X37750Y-25500
X37750Y-28500
X38750Y-25500
X38750Y-28500
X39750Y-25500
X39750Y-28500
X40000Y-31250
X40000Y-34250
X40750Y-25500
X40750Y-28500
X41000Y-31250
X41000Y-34250
X41750Y-25500
X41750Y-28500
X42000Y-31250
X42000Y-34250
X42750Y-25500
X42750Y-28500
X43000Y-31250
X43000Y-34250
T5
X24750Y-35000
X27500Y-24000
X28750Y-35000
X31500Y-24000
X38750Y-30750
X38750Y-34750
X39000Y-29750
X42200Y-21100
X42200Y-22100
X42200Y-23100
X43000Y-29750
X43000Y-40500
X43000Y-44500
X43650Y-37300
X43650Y-38300
X43650Y-39300
X43750Y-15500
X43750Y-19500
X44500Y-31000
X44500Y-35000
X44500Y-40500
X44500Y-44500
X44750Y-29750
X45000Y-15500
X45000Y-19500
X46250Y-20250
X46250Y-24250
T6
X12000Y-11500
X12000Y-12500
X12000Y-13500
X12000Y-14500
X12000Y-15500
X12000Y-16500
X12000Y-17500
X12000Y-18500
X12000Y-41500
X12000Y-42500
X12000Y-43500
X12000Y-44500
X12000Y-45500
X12000Y-46500
X12000Y-47500
X12000Y-48500
X12500Y-23500
X12500Y-24500
X13000Y-11500
X13000Y-12500
X13000Y-13500
X13000Y-14500
X13000Y-15500
X13000Y-16500
X13000Y-17500
X13000Y-18500
X13000Y-41500
X13000Y-42500
X13000Y-43500
X13000Y-44500
X13000Y-45500
X13000Y-46500
X13000Y-47500
X13000Y-48500
X13500Y-23500
X13500Y-24500
X14500Y-23500
X14500Y-24500
X15500Y-23500
X15500Y-24500
X16500Y-23500
X16500Y-24500
X17400Y-20500
X18400Y-20500
X19400Y-20500
X20400Y-20500
X21000Y-39500
X21400Y-20500
X22000Y-39500
X22400Y-20500
X23000Y-39500
X23400Y-20500
X24000Y-39500
X24400Y-20500
X25000Y-39500
X26000Y-20500
X26000Y-39500
X27000Y-11500
X27000Y-12500
X27000Y-13500
X27000Y-14500
X27000Y-15500
X27000Y-16500
X27000Y-17500
X27000Y-18500
X27000Y-20500
X27000Y-41500
X27000Y-42500
X27000Y-43500
X27000Y-44500
X27000Y-45500
X27000Y-46500
X27000Y-47500
X27000Y-48500
X28000Y-11500
X28000Y-12500
X28000Y-13500
X28000Y-14500
X28000Y-15500
X28000Y-16500
X28000Y-17500
X28000Y-18500
X28000Y-20500
X28000Y-39500
X28000Y-41500
X28000Y-42500
X28000Y-43500
X28000Y-44500
X28000Y-45500
X28000Y-46500
X28000Y-47500
X28000Y-48500
X29000Y-20500
X29000Y-39500
X30000Y-20500
X30000Y-39500
X31000Y-20500
X31000Y-39500
X32000Y-11500
X32000Y-12500
X32000Y-13500
X32000Y-14500
X32000Y-15500
X32000Y-16500
X32000Y-17500
X32000Y-18500
X32000Y-20500
X32000Y-39500
X32000Y-41500
X32000Y-42500
X32000Y-43500
X32000Y-44500
X32000Y-45500
X32000Y-46500
X32000Y-47500
X32000Y-48500
X33000Y-11500
X33000Y-12500
X33000Y-13500
X33000Y-14500
X33000Y-15500
X33000Y-16500
X33000Y-17500
X33000Y-18500
X33000Y-20500
X33000Y-39500
X33000Y-41500
X33000Y-42500
X33000Y-43500
X33000Y-44500
X33000Y-45500
X33000Y-46500
X33000Y-47500
X33000Y-48500
X33150Y-29000
X33150Y-30000
X33150Y-31000
X34150Y-29000
X34150Y-30000
X34150Y-31000
X36250Y-31750
X36250Y-32750
X37250Y-31750
X37250Y-32750
X46750Y-28000
X46750Y-29000
X46750Y-30000
X46750Y-31000
X46750Y-32000
X47000Y-11500
X47000Y-12500
X47000Y-13500
X47000Y-14500
X47000Y-15500
X47000Y-16500
X47000Y-17500
X47000Y-18500
X47000Y-41500
X47000Y-42500
X47000Y-43500
X47000Y-44500
X47000Y-45500
X47000Y-46500
X47000Y-47500
X47000Y-48500
X47750Y-28000
X47750Y-29000
X47750Y-30000
X47750Y-31000
X47750Y-32000
X48000Y-11500
X48000Y-12500
X48000Y-13500
X48000Y-14500
X48000Y-15500
X48000Y-16500
X48000Y-17500
X48000Y-18500
X48000Y-20250
X48000Y-21250
X48000Y-22250
X48000Y-23250
X48000Y-24250
X48000Y-25250
X48000Y-35000
X48000Y-36000
X48000Y-37000
X48000Y-41500
X48000Y-42500
X48000Y-43500
X48000Y-44500
X48000Y-45500
X48000Y-46500
X48000Y-47500
X48000Y-48500
T7
X45620Y-39300
X48180Y-39300
T8
X44750Y-25750
T9
X13500Y-39500
X14000Y-20500
X20000Y-18000
X20000Y-42000
X20157Y-11890
X20157Y-48110
X34000Y-26500
X34000Y-37500
X39843Y-11890
X39843Y-48110
X40000Y-18000
X40000Y-42000
T10
X35600Y-22100
X37050Y-38300
T0
M30
