%FSLAX34Y34*%
G04 Gerber Fmt 3.4, Leading zero omitted, Abs format*
G04 (created by PCBNEW (2014-jan-25)-product) date Tue 08 Jul 2014 10:21:01 PM PDT*
%MOIN*%
G01*
G70*
G90*
G04 APERTURE LIST*
%ADD10C,0.005906*%
%ADD11R,0.080000X0.068000*%
%ADD12O,0.080000X0.068000*%
%ADD13C,0.236220*%
%ADD14R,0.060000X0.060000*%
%ADD15C,0.060000*%
%ADD16R,0.068000X0.068000*%
%ADD17O,0.068000X0.068000*%
%ADD18R,0.055000X0.055000*%
%ADD19C,0.055000*%
%ADD20C,0.059100*%
%ADD21C,0.078700*%
%ADD22R,0.078700X0.078700*%
%ADD23C,0.068000*%
%ADD24O,0.137800X0.066900*%
%ADD25R,0.620000X0.380000*%
%ADD26C,0.040000*%
%ADD27C,0.035000*%
%ADD28C,0.040000*%
%ADD29C,0.010000*%
G04 APERTURE END LIST*
G54D10*
G54D11*
X48000Y-35000D03*
G54D12*
X48000Y-36000D03*
X48000Y-37000D03*
G54D13*
X40000Y-18000D03*
X20000Y-18000D03*
X40000Y-42000D03*
X20157Y-48110D03*
X39842Y-48110D03*
X20157Y-11889D03*
X39842Y-11889D03*
X20000Y-42000D03*
X13500Y-39500D03*
X34000Y-37500D03*
X14000Y-20500D03*
X34000Y-26500D03*
G54D14*
X46750Y-28000D03*
G54D15*
X47750Y-28000D03*
X46750Y-29000D03*
X47750Y-29000D03*
X46750Y-30000D03*
X47750Y-30000D03*
X46750Y-31000D03*
X47750Y-31000D03*
X46750Y-32000D03*
X47750Y-32000D03*
G54D16*
X33150Y-29000D03*
G54D17*
X34150Y-29000D03*
X33150Y-30000D03*
X34150Y-30000D03*
X33150Y-31000D03*
X34150Y-31000D03*
G54D18*
X40000Y-34250D03*
G54D19*
X41000Y-34250D03*
X42000Y-34250D03*
X43000Y-34250D03*
X43000Y-31250D03*
X42000Y-31250D03*
X41000Y-31250D03*
X40000Y-31250D03*
G54D18*
X36750Y-28500D03*
G54D19*
X37750Y-28500D03*
X38750Y-28500D03*
X39750Y-28500D03*
X40750Y-28500D03*
X41750Y-28500D03*
X42750Y-28500D03*
X42750Y-25500D03*
X41750Y-25500D03*
X40750Y-25500D03*
X39750Y-25500D03*
X38750Y-25500D03*
X37750Y-25500D03*
X36750Y-25500D03*
G54D18*
X11500Y-33000D03*
G54D19*
X12500Y-33000D03*
X13500Y-33000D03*
X14500Y-33000D03*
X15500Y-33000D03*
X16500Y-33000D03*
X17500Y-33000D03*
X18500Y-33000D03*
X19500Y-33000D03*
X20500Y-33000D03*
X21500Y-33000D03*
X22500Y-33000D03*
X23500Y-33000D03*
X24500Y-33000D03*
X25500Y-33000D03*
X26500Y-33000D03*
X27500Y-33000D03*
X28500Y-33000D03*
X29500Y-33000D03*
X30500Y-33000D03*
X30500Y-27000D03*
X29500Y-27000D03*
X28500Y-27000D03*
X27500Y-27000D03*
X26500Y-27000D03*
X25500Y-27000D03*
X24500Y-27000D03*
X23500Y-27000D03*
X22500Y-27000D03*
X21500Y-27000D03*
X20500Y-27000D03*
X19500Y-27000D03*
X18500Y-27000D03*
X17500Y-27000D03*
X16500Y-27000D03*
X15500Y-27000D03*
X14500Y-27000D03*
X13500Y-27000D03*
X12500Y-27000D03*
X11500Y-27000D03*
G54D20*
X22250Y-35289D03*
X22250Y-37211D03*
G54D16*
X33000Y-18500D03*
G54D17*
X32000Y-18500D03*
X33000Y-17500D03*
X32000Y-17500D03*
X33000Y-16500D03*
X32000Y-16500D03*
X33000Y-15500D03*
X32000Y-15500D03*
X33000Y-14500D03*
X32000Y-14500D03*
X33000Y-13500D03*
X32000Y-13500D03*
X33000Y-12500D03*
X32000Y-12500D03*
X33000Y-11500D03*
X32000Y-11500D03*
G54D16*
X48000Y-18500D03*
G54D17*
X47000Y-18500D03*
X48000Y-17500D03*
X47000Y-17500D03*
X48000Y-16500D03*
X47000Y-16500D03*
X48000Y-15500D03*
X47000Y-15500D03*
X48000Y-14500D03*
X47000Y-14500D03*
X48000Y-13500D03*
X47000Y-13500D03*
X48000Y-12500D03*
X47000Y-12500D03*
X48000Y-11500D03*
X47000Y-11500D03*
G54D16*
X13000Y-18500D03*
G54D17*
X12000Y-18500D03*
X13000Y-17500D03*
X12000Y-17500D03*
X13000Y-16500D03*
X12000Y-16500D03*
X13000Y-15500D03*
X12000Y-15500D03*
X13000Y-14500D03*
X12000Y-14500D03*
X13000Y-13500D03*
X12000Y-13500D03*
X13000Y-12500D03*
X12000Y-12500D03*
X13000Y-11500D03*
X12000Y-11500D03*
G54D16*
X28000Y-18500D03*
G54D17*
X27000Y-18500D03*
X28000Y-17500D03*
X27000Y-17500D03*
X28000Y-16500D03*
X27000Y-16500D03*
X28000Y-15500D03*
X27000Y-15500D03*
X28000Y-14500D03*
X27000Y-14500D03*
X28000Y-13500D03*
X27000Y-13500D03*
X28000Y-12500D03*
X27000Y-12500D03*
X28000Y-11500D03*
X27000Y-11500D03*
G54D16*
X47000Y-41500D03*
G54D17*
X48000Y-41500D03*
X47000Y-42500D03*
X48000Y-42500D03*
X47000Y-43500D03*
X48000Y-43500D03*
X47000Y-44500D03*
X48000Y-44500D03*
X47000Y-45500D03*
X48000Y-45500D03*
X47000Y-46500D03*
X48000Y-46500D03*
X47000Y-47500D03*
X48000Y-47500D03*
X47000Y-48500D03*
X48000Y-48500D03*
G54D16*
X32000Y-41500D03*
G54D17*
X33000Y-41500D03*
X32000Y-42500D03*
X33000Y-42500D03*
X32000Y-43500D03*
X33000Y-43500D03*
X32000Y-44500D03*
X33000Y-44500D03*
X32000Y-45500D03*
X33000Y-45500D03*
X32000Y-46500D03*
X33000Y-46500D03*
X32000Y-47500D03*
X33000Y-47500D03*
X32000Y-48500D03*
X33000Y-48500D03*
G54D16*
X27000Y-41500D03*
G54D17*
X28000Y-41500D03*
X27000Y-42500D03*
X28000Y-42500D03*
X27000Y-43500D03*
X28000Y-43500D03*
X27000Y-44500D03*
X28000Y-44500D03*
X27000Y-45500D03*
X28000Y-45500D03*
X27000Y-46500D03*
X28000Y-46500D03*
X27000Y-47500D03*
X28000Y-47500D03*
X27000Y-48500D03*
X28000Y-48500D03*
G54D16*
X12000Y-41500D03*
G54D17*
X13000Y-41500D03*
X12000Y-42500D03*
X13000Y-42500D03*
X12000Y-43500D03*
X13000Y-43500D03*
X12000Y-44500D03*
X13000Y-44500D03*
X12000Y-45500D03*
X13000Y-45500D03*
X12000Y-46500D03*
X13000Y-46500D03*
X12000Y-47500D03*
X13000Y-47500D03*
X12000Y-48500D03*
X13000Y-48500D03*
G54D21*
X44750Y-25750D03*
G54D22*
X44750Y-29750D03*
G54D21*
X44500Y-35000D03*
X44500Y-31000D03*
X43750Y-19500D03*
X43750Y-15500D03*
X45000Y-19500D03*
X45000Y-15500D03*
X43000Y-44500D03*
X43000Y-40500D03*
X39000Y-29750D03*
X43000Y-29750D03*
X38750Y-34750D03*
X38750Y-30750D03*
X44500Y-44500D03*
X44500Y-40500D03*
G54D16*
X48000Y-20250D03*
G54D23*
X48000Y-21250D03*
X48000Y-22250D03*
X48000Y-23250D03*
X48000Y-24250D03*
X48000Y-25250D03*
G54D16*
X33000Y-39500D03*
G54D23*
X32000Y-39500D03*
X31000Y-39500D03*
X30000Y-39500D03*
X29000Y-39500D03*
X28000Y-39500D03*
G54D16*
X33000Y-20500D03*
G54D23*
X32000Y-20500D03*
X31000Y-20500D03*
X30000Y-20500D03*
X29000Y-20500D03*
X28000Y-20500D03*
X27000Y-20500D03*
X26000Y-20500D03*
G54D16*
X24400Y-20500D03*
G54D23*
X23400Y-20500D03*
X22400Y-20500D03*
X21400Y-20500D03*
X20400Y-20500D03*
X19400Y-20500D03*
X18400Y-20500D03*
X17400Y-20500D03*
G54D20*
X45000Y-22750D03*
X44000Y-22750D03*
X20500Y-35250D03*
X19500Y-35250D03*
X44000Y-21000D03*
X45000Y-21000D03*
X20500Y-37250D03*
X19500Y-37250D03*
X43500Y-36250D03*
X44500Y-36250D03*
X43750Y-45500D03*
X44750Y-45500D03*
X37750Y-29750D03*
X36750Y-29750D03*
X44000Y-24500D03*
X45000Y-24500D03*
X36750Y-24750D03*
X35750Y-24750D03*
X42000Y-35250D03*
X41000Y-35250D03*
X21500Y-26000D03*
X20500Y-26000D03*
X20500Y-34000D03*
X19500Y-34000D03*
G54D21*
X46250Y-20250D03*
X46250Y-24250D03*
G54D22*
X45620Y-39300D03*
G54D21*
X48180Y-39300D03*
G54D14*
X12500Y-24500D03*
G54D15*
X12500Y-23500D03*
X13500Y-24500D03*
X13500Y-23500D03*
X14500Y-24500D03*
X14500Y-23500D03*
X15500Y-24500D03*
X15500Y-23500D03*
X16500Y-24500D03*
X16500Y-23500D03*
X37000Y-34250D03*
X37000Y-35250D03*
G54D21*
X24750Y-35000D03*
X28750Y-35000D03*
X31500Y-24000D03*
X27500Y-24000D03*
G54D16*
X26000Y-39500D03*
G54D23*
X25000Y-39500D03*
X24000Y-39500D03*
X23000Y-39500D03*
X22000Y-39500D03*
X21000Y-39500D03*
G54D16*
X36250Y-32750D03*
G54D17*
X36250Y-31750D03*
X37250Y-32750D03*
X37250Y-31750D03*
G54D24*
X42200Y-22100D03*
X42200Y-23100D03*
X42200Y-21100D03*
G54D25*
X37600Y-22100D03*
G54D24*
X43650Y-38300D03*
X43650Y-39300D03*
X43650Y-37300D03*
G54D25*
X39050Y-38300D03*
G54D26*
X45750Y-28000D03*
X46000Y-16000D03*
X24250Y-29250D03*
X26500Y-27750D03*
X25500Y-29250D03*
X26500Y-29250D03*
X23500Y-31500D03*
X30500Y-31000D03*
X30500Y-29250D03*
X30500Y-36000D03*
X32250Y-36000D03*
X28500Y-34000D03*
X30250Y-34250D03*
X23500Y-23500D03*
X24500Y-23500D03*
X24000Y-22000D03*
X26500Y-24500D03*
X30500Y-25000D03*
X27500Y-25000D03*
X26000Y-23750D03*
X24250Y-17750D03*
X24250Y-19000D03*
X13750Y-25750D03*
X27500Y-27750D03*
X22500Y-27750D03*
X32750Y-33500D03*
X33750Y-33500D03*
X25000Y-36500D03*
X27250Y-36500D03*
X36750Y-27750D03*
X37000Y-12500D03*
X37500Y-47250D03*
X25250Y-43500D03*
X17500Y-47250D03*
X17500Y-43000D03*
X18000Y-42000D03*
X23000Y-48000D03*
X27250Y-38250D03*
X12500Y-34750D03*
X15000Y-35250D03*
X12250Y-21750D03*
X14000Y-24000D03*
X20500Y-27750D03*
X21750Y-38000D03*
X35750Y-35000D03*
X42750Y-26250D03*
X42000Y-32250D03*
X45250Y-42500D03*
X36000Y-29000D03*
X16750Y-21500D03*
X21750Y-21500D03*
X15750Y-17500D03*
X16250Y-22750D03*
X24000Y-34750D03*
X34997Y-36002D03*
X47500Y-37750D03*
X27750Y-40250D03*
G54D27*
X42250Y-27500D03*
X35500Y-44000D03*
X24750Y-16750D03*
X26250Y-18000D03*
X27000Y-23500D03*
X27000Y-32000D03*
X19750Y-23250D03*
X15750Y-47500D03*
X22750Y-13500D03*
X29750Y-48750D03*
X17750Y-23250D03*
X18500Y-29750D03*
X21000Y-23250D03*
X16000Y-48000D03*
X23250Y-12500D03*
X30250Y-48750D03*
X21000Y-30500D03*
X20250Y-23000D03*
X15750Y-47000D03*
X26250Y-48000D03*
X22750Y-14000D03*
X16500Y-30750D03*
X17250Y-23000D03*
X24250Y-15500D03*
X25750Y-45000D03*
X15250Y-45000D03*
X24000Y-26500D03*
X34500Y-34000D03*
X25750Y-46000D03*
X28500Y-21500D03*
X23250Y-21500D03*
X23500Y-15500D03*
X15750Y-46500D03*
X25750Y-47000D03*
X16750Y-22750D03*
X24250Y-14500D03*
X22500Y-22750D03*
X23000Y-26750D03*
X45500Y-44500D03*
X44250Y-46250D03*
X24750Y-44500D03*
X26000Y-18500D03*
X17250Y-15500D03*
X28000Y-33500D03*
X43000Y-18750D03*
X37000Y-18750D03*
X30750Y-18000D03*
X45750Y-19000D03*
X32500Y-22500D03*
X13500Y-32000D03*
X25000Y-31750D03*
X25000Y-22000D03*
X43250Y-18250D03*
X37000Y-18250D03*
X29500Y-39000D03*
X30500Y-40750D03*
X30000Y-18500D03*
X15500Y-41500D03*
X16500Y-33750D03*
X26750Y-22250D03*
X32000Y-22500D03*
X43250Y-17750D03*
X37000Y-17750D03*
X22000Y-40750D03*
X22000Y-42750D03*
X29250Y-17500D03*
X29250Y-40500D03*
X15000Y-32500D03*
X31500Y-22750D03*
X15000Y-29000D03*
X29750Y-31000D03*
X43250Y-17250D03*
X37000Y-17250D03*
X29000Y-18250D03*
X22500Y-41000D03*
X29250Y-41000D03*
X22500Y-42750D03*
X16000Y-43000D03*
X18000Y-30750D03*
X43250Y-16750D03*
X37000Y-16750D03*
X26000Y-17500D03*
X30000Y-28500D03*
X29000Y-42500D03*
X31500Y-34250D03*
X33250Y-24500D03*
X40500Y-27250D03*
X40000Y-35000D03*
X28000Y-31250D03*
X44500Y-17250D03*
X44500Y-25000D03*
X29000Y-43000D03*
X14000Y-34000D03*
X25750Y-42750D03*
X25750Y-16500D03*
X30500Y-17500D03*
X36250Y-16000D03*
X13500Y-44000D03*
X12250Y-22500D03*
X14500Y-44500D03*
X25750Y-44000D03*
X25500Y-26250D03*
X26250Y-17000D03*
X13750Y-45250D03*
X14500Y-14500D03*
X34500Y-43000D03*
X12000Y-20750D03*
X34500Y-44000D03*
X26250Y-16000D03*
X32500Y-24000D03*
X34000Y-39500D03*
X15000Y-46250D03*
X13500Y-28500D03*
X11000Y-37500D03*
X12000Y-37000D03*
X15000Y-13500D03*
X34250Y-45250D03*
X23750Y-15000D03*
X26250Y-14000D03*
X34250Y-46000D03*
X14000Y-32000D03*
X19000Y-32000D03*
X25250Y-47500D03*
X14000Y-28000D03*
X34000Y-47000D03*
X25500Y-13000D03*
X15500Y-12500D03*
X16500Y-27750D03*
X29500Y-36000D03*
X21000Y-38000D03*
X16000Y-12000D03*
X26250Y-12000D03*
X30000Y-38250D03*
X26250Y-48500D03*
G54D26*
X46000Y-33250D03*
G54D27*
X41750Y-29250D03*
X48500Y-19250D03*
X36000Y-31000D03*
X27500Y-25750D03*
X15000Y-28250D03*
X25500Y-28500D03*
X26500Y-25250D03*
X24500Y-24000D03*
X36250Y-35250D03*
X31000Y-32000D03*
G54D28*
X47000Y-38200D02*
X47000Y-33250D01*
X47000Y-33250D02*
X46000Y-32250D01*
X46000Y-32250D02*
X46000Y-28750D01*
X46000Y-28750D02*
X46750Y-28000D01*
X47250Y-26750D02*
X47250Y-23000D01*
X46750Y-27250D02*
X47250Y-26750D01*
X46750Y-28000D02*
X46750Y-27250D01*
X46250Y-19250D02*
X46250Y-16250D01*
X47250Y-20250D02*
X46250Y-19250D01*
X47250Y-22750D02*
X47250Y-20250D01*
X46250Y-16250D02*
X46000Y-16000D01*
X47250Y-23000D02*
X47250Y-22750D01*
X45000Y-22750D02*
X47250Y-22750D01*
X47000Y-41000D02*
X47300Y-40700D01*
X47300Y-40700D02*
X47300Y-38500D01*
X47300Y-38500D02*
X47000Y-38200D01*
X47000Y-41500D02*
X47000Y-41000D01*
X24250Y-29250D02*
X23500Y-30000D01*
X26500Y-27750D02*
X26500Y-29250D01*
X23500Y-30000D02*
X23500Y-31500D01*
X30500Y-29250D02*
X30500Y-31000D01*
X30500Y-36000D02*
X30250Y-35750D01*
X32750Y-33500D02*
X32750Y-35500D01*
X32750Y-35500D02*
X32250Y-36000D01*
X30250Y-35750D02*
X30250Y-34250D01*
X23500Y-23500D02*
X23500Y-22500D01*
X23500Y-22500D02*
X24000Y-22000D01*
X26000Y-23750D02*
X26002Y-23752D01*
X24250Y-19000D02*
X24250Y-17750D01*
G54D29*
X12500Y-23500D02*
X12750Y-23500D01*
X12750Y-23500D02*
X13000Y-23750D01*
X13000Y-25000D02*
X13750Y-25750D01*
X13000Y-23750D02*
X13000Y-25000D01*
G54D28*
X42200Y-40350D02*
X42200Y-36300D01*
X35950Y-40350D02*
X42200Y-40350D01*
X37050Y-39250D02*
X35950Y-40350D01*
X42200Y-36300D02*
X42399Y-36300D01*
X37050Y-38300D02*
X37050Y-37850D01*
X37050Y-37850D02*
X35500Y-36300D01*
X35500Y-36300D02*
X42399Y-36300D01*
X42399Y-36300D02*
X42399Y-36300D01*
X35600Y-22100D02*
X35600Y-23200D01*
X35600Y-23200D02*
X36500Y-24100D01*
X36500Y-24100D02*
X40800Y-24100D01*
X40800Y-24100D02*
X40900Y-24000D01*
X40900Y-24000D02*
X40900Y-20600D01*
X40900Y-20600D02*
X40300Y-20000D01*
X40300Y-20000D02*
X35250Y-20000D01*
X37050Y-38300D02*
X37050Y-39250D01*
X34000Y-37500D02*
X34000Y-33750D01*
X32200Y-32950D02*
X32200Y-28800D01*
X32750Y-33500D02*
X32200Y-32950D01*
X34000Y-33750D02*
X33750Y-33500D01*
X34000Y-26500D02*
X32750Y-27750D01*
X32750Y-28250D02*
X32750Y-27750D01*
X32200Y-28800D02*
X32750Y-28250D01*
X27250Y-38250D02*
X27250Y-36500D01*
X43000Y-44500D02*
X40000Y-44500D01*
X33000Y-16500D02*
X37000Y-12500D01*
X20500Y-27000D02*
X20500Y-26000D01*
X37500Y-47250D02*
X40000Y-44750D01*
X40000Y-44750D02*
X40000Y-44500D01*
X40000Y-44500D02*
X40000Y-42000D01*
X17500Y-47250D02*
X17500Y-43000D01*
X18400Y-19600D02*
X20000Y-18000D01*
X18400Y-20500D02*
X18400Y-19600D01*
X12750Y-22250D02*
X12250Y-21750D01*
X12750Y-23250D02*
X12750Y-22250D01*
X12500Y-23500D02*
X12750Y-23250D01*
G54D29*
X13000Y-24000D02*
X14000Y-24000D01*
X12500Y-23500D02*
X13000Y-24000D01*
G54D28*
X20500Y-27000D02*
X20500Y-27750D01*
X24000Y-42250D02*
X24000Y-40500D01*
X25250Y-43500D02*
X24000Y-42250D01*
X21500Y-39000D02*
X21500Y-38250D01*
X21500Y-38250D02*
X21750Y-38000D01*
X22000Y-39500D02*
X21500Y-39000D01*
X24000Y-40500D02*
X23000Y-39500D01*
G54D29*
X22250Y-35289D02*
X22250Y-34500D01*
X22500Y-34250D02*
X22500Y-33000D01*
X22250Y-34500D02*
X22500Y-34250D01*
G54D28*
X35500Y-34750D02*
X35500Y-29555D01*
X35750Y-35000D02*
X35500Y-34750D01*
X44000Y-26250D02*
X42750Y-26250D01*
X36750Y-25500D02*
X36750Y-24750D01*
X43000Y-31250D02*
X43150Y-31250D01*
X43150Y-31250D02*
X44650Y-29750D01*
X44650Y-29750D02*
X44750Y-29750D01*
X42200Y-21100D02*
X40600Y-19500D01*
X40600Y-19500D02*
X35250Y-19500D01*
X36000Y-29000D02*
X36000Y-29055D01*
X36000Y-29055D02*
X35500Y-29555D01*
X43250Y-21500D02*
X43700Y-21500D01*
X43700Y-21500D02*
X44000Y-21200D01*
X44000Y-21200D02*
X44000Y-21000D01*
X20500Y-34000D02*
X20500Y-33000D01*
X27000Y-42500D02*
X26750Y-42500D01*
X26250Y-42000D02*
X26750Y-42500D01*
X42000Y-34250D02*
X42000Y-32250D01*
X42000Y-34250D02*
X42000Y-35250D01*
X44000Y-24500D02*
X44000Y-26250D01*
X44750Y-27000D02*
X44750Y-29750D01*
X44000Y-26250D02*
X44750Y-27000D01*
X43000Y-31250D02*
X43050Y-31250D01*
X33000Y-17500D02*
X33250Y-17500D01*
X13000Y-17500D02*
X13250Y-17500D01*
X20500Y-32250D02*
X20500Y-33000D01*
X21500Y-26250D02*
X21500Y-31250D01*
X21500Y-31250D02*
X20500Y-32250D01*
X36000Y-26350D02*
X36800Y-25550D01*
X36000Y-28000D02*
X36000Y-26350D01*
X36000Y-29000D02*
X36000Y-28000D01*
X33250Y-17500D02*
X35250Y-19500D01*
X21500Y-26250D02*
X21500Y-27000D01*
X43650Y-39300D02*
X44450Y-39300D01*
X43250Y-21500D02*
X43250Y-24250D01*
X43500Y-24500D02*
X44000Y-24500D01*
X43250Y-24250D02*
X43500Y-24500D01*
X42850Y-21100D02*
X43250Y-21500D01*
X42200Y-21100D02*
X42850Y-21100D01*
X36800Y-24800D02*
X36750Y-24750D01*
X44500Y-41750D02*
X44500Y-40500D01*
X45250Y-42500D02*
X44500Y-41750D01*
X44450Y-40450D02*
X44450Y-39300D01*
X44500Y-40500D02*
X44450Y-40450D01*
X44700Y-39050D02*
X44700Y-38700D01*
X44700Y-38700D02*
X45300Y-38100D01*
X45300Y-38100D02*
X45300Y-33550D01*
X45300Y-33550D02*
X43000Y-31250D01*
X44450Y-39300D02*
X44700Y-39050D01*
X21750Y-21500D02*
X21750Y-24750D01*
X21750Y-24750D02*
X21500Y-25000D01*
X21500Y-25000D02*
X21500Y-26000D01*
X16750Y-18500D02*
X15750Y-17500D01*
X16750Y-18500D02*
X16750Y-21500D01*
G54D29*
X16750Y-21750D02*
X16250Y-22250D01*
X16250Y-22250D02*
X16250Y-22750D01*
X16750Y-21500D02*
X16750Y-21750D01*
G54D28*
X26250Y-41750D02*
X26250Y-42000D01*
X26250Y-41750D02*
X24000Y-39500D01*
X24000Y-39500D02*
X24000Y-39750D01*
X24000Y-39500D02*
X24000Y-34750D01*
G54D29*
X22250Y-37211D02*
X23000Y-36461D01*
X23000Y-33500D02*
X23500Y-33000D01*
X23000Y-36461D02*
X23000Y-33500D01*
G54D28*
X35000Y-29250D02*
X35000Y-36000D01*
X35000Y-36000D02*
X34997Y-36002D01*
X35000Y-29250D02*
X35499Y-28750D01*
X33250Y-19250D02*
X33750Y-19750D01*
X33750Y-24000D02*
X35499Y-25749D01*
X33750Y-19750D02*
X33750Y-24000D01*
X35499Y-25749D02*
X35499Y-28750D01*
X31750Y-19250D02*
X33250Y-19250D01*
X31250Y-18750D02*
X31750Y-19250D01*
X31250Y-18250D02*
X31250Y-18750D01*
X32000Y-17500D02*
X31250Y-18250D01*
X43650Y-37300D02*
X43500Y-37150D01*
X43500Y-37150D02*
X43500Y-36250D01*
X49000Y-41500D02*
X48000Y-42500D01*
X28750Y-41750D02*
X28000Y-42500D01*
X28750Y-41250D02*
X28750Y-41750D01*
X27750Y-40250D02*
X28750Y-41250D01*
X49000Y-38000D02*
X48750Y-37750D01*
X48750Y-37750D02*
X47500Y-37750D01*
X49000Y-41500D02*
X49000Y-38000D01*
G54D29*
X43000Y-40500D02*
X42750Y-40250D01*
X42750Y-40250D02*
X42750Y-35000D01*
X42250Y-30250D02*
X42250Y-27500D01*
X42500Y-30500D02*
X42250Y-30250D01*
X42500Y-34750D02*
X42500Y-30500D01*
X42750Y-35000D02*
X42500Y-34750D01*
X43750Y-41250D02*
X43000Y-40500D01*
X43750Y-45500D02*
X43750Y-41250D01*
X35250Y-43750D02*
X35500Y-44000D01*
X33500Y-39000D02*
X32500Y-38000D01*
X34000Y-39000D02*
X33500Y-39000D01*
X33150Y-36100D02*
X32500Y-36750D01*
X33150Y-31000D02*
X33150Y-36100D01*
X34000Y-39000D02*
X34750Y-39750D01*
X32500Y-38000D02*
X32500Y-36750D01*
X44750Y-45500D02*
X44500Y-45250D01*
X44500Y-45250D02*
X44500Y-44500D01*
X26250Y-20000D02*
X26500Y-20250D01*
X26500Y-20250D02*
X26500Y-20750D01*
X26500Y-20750D02*
X27250Y-21500D01*
X27250Y-21500D02*
X27250Y-22500D01*
X27250Y-22500D02*
X27000Y-22750D01*
X27000Y-23500D02*
X27000Y-22750D01*
X24750Y-19250D02*
X24750Y-16750D01*
X25500Y-20000D02*
X24750Y-19250D01*
X25500Y-20000D02*
X26250Y-20000D01*
X26250Y-18000D02*
X28250Y-18000D01*
X28250Y-18000D02*
X28500Y-17750D01*
X28500Y-17750D02*
X28500Y-17250D01*
X28500Y-17250D02*
X30250Y-15500D01*
X30250Y-15500D02*
X32000Y-15500D01*
X28500Y-17250D02*
X30250Y-15500D01*
X28500Y-17750D02*
X28500Y-17250D01*
X28250Y-18000D02*
X28500Y-17750D01*
X35250Y-42967D02*
X34750Y-42467D01*
X34750Y-42467D02*
X34750Y-39750D01*
X35250Y-43750D02*
X35250Y-42967D01*
X26750Y-23750D02*
X27000Y-23500D01*
X26750Y-24250D02*
X27000Y-24500D01*
X26750Y-23750D02*
X26750Y-24250D01*
X27000Y-32000D02*
X27000Y-24500D01*
X26000Y-34250D02*
X26000Y-39500D01*
X26000Y-34250D02*
X27000Y-33250D01*
X27000Y-32000D02*
X27000Y-33250D01*
X38750Y-34750D02*
X38750Y-32500D01*
X37750Y-31500D02*
X37750Y-29750D01*
X38750Y-32500D02*
X37750Y-31500D01*
X47250Y-30500D02*
X47250Y-32500D01*
X47250Y-32500D02*
X49000Y-34250D01*
X49000Y-34250D02*
X49000Y-35000D01*
X49000Y-35000D02*
X48000Y-36000D01*
X46750Y-30000D02*
X47250Y-30500D01*
X20400Y-20500D02*
X19750Y-21150D01*
X19750Y-21150D02*
X19750Y-23250D01*
X15750Y-47500D02*
X16500Y-46750D01*
X16500Y-46750D02*
X16500Y-44250D01*
X16500Y-44250D02*
X15500Y-43250D01*
X16000Y-47250D02*
X15750Y-47500D01*
X15750Y-47500D02*
X16000Y-47250D01*
X20400Y-20100D02*
X20400Y-20500D01*
X22750Y-13500D02*
X22250Y-14000D01*
X22250Y-14000D02*
X22250Y-18250D01*
X22250Y-18250D02*
X20400Y-20100D01*
X17500Y-30750D02*
X18500Y-29750D01*
X17500Y-33000D02*
X17500Y-30750D01*
X31500Y-47500D02*
X30750Y-48250D01*
X32000Y-47500D02*
X31500Y-47500D01*
X30250Y-48250D02*
X29750Y-48750D01*
X30750Y-48250D02*
X30250Y-48250D01*
X17500Y-36000D02*
X17500Y-33250D01*
X16750Y-36750D02*
X17500Y-36000D01*
X16750Y-41750D02*
X16750Y-36750D01*
X17500Y-33250D02*
X17500Y-33000D01*
X17500Y-33250D02*
X17500Y-33250D01*
X15500Y-43000D02*
X15500Y-43250D01*
X16750Y-41750D02*
X15500Y-43000D01*
X17750Y-25500D02*
X17750Y-23250D01*
X18500Y-29750D02*
X19000Y-29250D01*
X19000Y-29250D02*
X19000Y-29000D01*
X17750Y-25500D02*
X19000Y-26750D01*
X19000Y-29000D02*
X19000Y-26750D01*
X20250Y-23750D02*
X19750Y-23750D01*
X19400Y-23400D02*
X19400Y-20500D01*
X19750Y-23750D02*
X19400Y-23400D01*
X21000Y-25750D02*
X21000Y-30000D01*
X21000Y-30000D02*
X21000Y-30500D01*
X21000Y-23250D02*
X20750Y-23250D01*
X20750Y-23250D02*
X20250Y-23750D01*
X21000Y-30500D02*
X21000Y-23250D01*
X16000Y-48000D02*
X16750Y-47250D01*
X16750Y-42750D02*
X17250Y-42250D01*
X16750Y-47250D02*
X16750Y-42750D01*
X17250Y-42250D02*
X17250Y-37250D01*
X17250Y-37250D02*
X18000Y-36500D01*
X23000Y-12500D02*
X23250Y-12500D01*
X22000Y-13500D02*
X23000Y-12500D01*
X22000Y-18000D02*
X22000Y-13500D01*
X19500Y-20500D02*
X22000Y-18000D01*
X19400Y-20500D02*
X19500Y-20500D01*
X32500Y-48000D02*
X33000Y-47500D01*
X32500Y-48000D02*
X31500Y-48000D01*
X31500Y-48000D02*
X30750Y-48750D01*
X30750Y-48750D02*
X30250Y-48750D01*
X18500Y-33000D02*
X18500Y-31750D01*
X18750Y-31500D02*
X18500Y-31750D01*
X20000Y-31500D02*
X18750Y-31500D01*
X18000Y-33750D02*
X18000Y-36500D01*
X18500Y-33250D02*
X18000Y-33750D01*
X18500Y-33000D02*
X18500Y-33250D01*
X19250Y-20650D02*
X19400Y-20500D01*
X20750Y-30750D02*
X20000Y-31500D01*
X20750Y-30750D02*
X21000Y-30500D01*
X21400Y-20500D02*
X20250Y-21650D01*
X20250Y-21650D02*
X20250Y-23000D01*
X15500Y-45500D02*
X16000Y-45500D01*
X16250Y-46500D02*
X15750Y-47000D01*
X16250Y-45750D02*
X16250Y-46500D01*
X16000Y-45500D02*
X16250Y-45750D01*
X15500Y-45500D02*
X15250Y-45500D01*
X15250Y-45500D02*
X14750Y-45000D01*
X31250Y-47000D02*
X30250Y-48000D01*
X30250Y-48000D02*
X26250Y-48000D01*
X33000Y-46500D02*
X32500Y-47000D01*
X32500Y-47000D02*
X31250Y-47000D01*
X22500Y-14250D02*
X22500Y-18500D01*
X22500Y-18500D02*
X21400Y-19600D01*
X21400Y-19600D02*
X21400Y-20500D01*
X22750Y-14000D02*
X22500Y-14250D01*
X16500Y-33000D02*
X16500Y-30750D01*
X15000Y-42500D02*
X15000Y-44500D01*
X15000Y-44500D02*
X14750Y-44750D01*
X17000Y-35500D02*
X17000Y-33750D01*
X16500Y-33250D02*
X16500Y-33000D01*
X17000Y-33750D02*
X16500Y-33250D01*
X16250Y-41250D02*
X16250Y-36250D01*
X16250Y-36250D02*
X17000Y-35500D01*
X14750Y-45000D02*
X14750Y-44750D01*
X16250Y-41250D02*
X15000Y-42500D01*
X17250Y-26000D02*
X18000Y-26750D01*
X18000Y-29250D02*
X18000Y-26750D01*
X16500Y-30750D02*
X18000Y-29250D01*
X17250Y-23000D02*
X17250Y-26000D01*
X24000Y-23500D02*
X24000Y-23250D01*
X24500Y-21200D02*
X24400Y-21100D01*
X24500Y-22750D02*
X24500Y-21200D01*
X24000Y-23250D02*
X24500Y-22750D01*
X24400Y-20500D02*
X24400Y-20400D01*
X24400Y-20400D02*
X23250Y-19250D01*
X23500Y-16000D02*
X23750Y-16000D01*
X23250Y-16250D02*
X23500Y-16000D01*
X23250Y-19250D02*
X23250Y-16250D01*
X23750Y-16000D02*
X24250Y-15500D01*
X15250Y-42750D02*
X16500Y-41500D01*
X16500Y-36500D02*
X17250Y-35750D01*
X16500Y-41500D02*
X16500Y-36500D01*
X29500Y-45500D02*
X32000Y-45500D01*
X29500Y-45500D02*
X29000Y-45000D01*
X29000Y-45000D02*
X25750Y-45000D01*
X15250Y-45000D02*
X15250Y-42750D01*
X17250Y-33500D02*
X17000Y-33250D01*
X17250Y-35750D02*
X17250Y-33500D01*
X18500Y-27000D02*
X18500Y-29250D01*
X17000Y-30750D02*
X17000Y-33250D01*
X18500Y-29250D02*
X17000Y-30750D01*
X24000Y-26500D02*
X24000Y-23500D01*
X24400Y-20500D02*
X24400Y-21100D01*
X23400Y-20500D02*
X23400Y-20400D01*
X23400Y-20400D02*
X23000Y-20000D01*
X23000Y-16000D02*
X23500Y-15500D01*
X23000Y-20000D02*
X23000Y-16000D01*
X29500Y-33000D02*
X29500Y-32500D01*
X29000Y-32000D02*
X29000Y-26750D01*
X29500Y-32500D02*
X29000Y-32000D01*
X36000Y-44000D02*
X34750Y-45250D01*
X34500Y-36000D02*
X34500Y-34000D01*
X34500Y-36000D02*
X35500Y-37000D01*
X35500Y-37000D02*
X35500Y-42750D01*
X35500Y-42750D02*
X36000Y-43250D01*
X36000Y-44000D02*
X36000Y-43250D01*
X34750Y-45250D02*
X34750Y-46750D01*
X34750Y-46750D02*
X34000Y-47500D01*
X33000Y-45500D02*
X32500Y-46000D01*
X32500Y-46000D02*
X33000Y-45500D01*
X25750Y-46000D02*
X32500Y-46000D01*
X34000Y-47500D02*
X33750Y-47500D01*
X33750Y-47500D02*
X33500Y-47250D01*
X33500Y-47250D02*
X33500Y-46000D01*
X33500Y-46000D02*
X33000Y-45500D01*
X33500Y-46000D02*
X33000Y-45500D01*
X33500Y-47250D02*
X33500Y-46000D01*
X33750Y-47500D02*
X33500Y-47250D01*
X28500Y-26250D02*
X29000Y-26750D01*
X28500Y-21500D02*
X28500Y-26250D01*
X23250Y-21500D02*
X23400Y-21350D01*
X23400Y-21350D02*
X23400Y-20500D01*
X23500Y-20400D02*
X23400Y-20500D01*
X23500Y-20400D02*
X23400Y-20500D01*
X16000Y-46000D02*
X15750Y-45750D01*
X15750Y-45750D02*
X15000Y-45750D01*
X15750Y-46500D02*
X16000Y-46250D01*
X16000Y-46250D02*
X16000Y-46000D01*
X14000Y-44750D02*
X15000Y-45750D01*
X15500Y-40500D02*
X15500Y-33000D01*
X14000Y-42000D02*
X14000Y-44750D01*
X15500Y-40500D02*
X14000Y-42000D01*
X30750Y-47000D02*
X31250Y-46500D01*
X25750Y-47000D02*
X30750Y-47000D01*
X31250Y-46500D02*
X32000Y-46500D01*
X15500Y-33000D02*
X15500Y-30750D01*
X15500Y-30750D02*
X17000Y-29250D01*
X22750Y-20150D02*
X22400Y-20500D01*
X22750Y-15500D02*
X22750Y-20150D01*
X24250Y-14500D02*
X23750Y-14500D01*
X23750Y-14500D02*
X22750Y-15500D01*
X22500Y-22750D02*
X22400Y-22650D01*
X22400Y-22650D02*
X22400Y-20500D01*
X16750Y-23000D02*
X17000Y-23250D01*
X17000Y-23250D02*
X17000Y-29250D01*
X16750Y-22750D02*
X16750Y-23000D01*
X24000Y-32750D02*
X24500Y-32250D01*
X23250Y-27500D02*
X23000Y-27250D01*
X24500Y-27500D02*
X23250Y-27500D01*
X24750Y-27750D02*
X24500Y-27500D01*
X24750Y-31500D02*
X24750Y-27750D01*
X24500Y-31750D02*
X24750Y-31500D01*
X24500Y-32250D02*
X24500Y-31750D01*
X22500Y-39750D02*
X21500Y-40750D01*
X21500Y-42750D02*
X21500Y-40750D01*
X23500Y-34250D02*
X24000Y-33750D01*
X24000Y-33750D02*
X24000Y-32750D01*
X23000Y-26750D02*
X23000Y-27250D01*
X22500Y-39250D02*
X23500Y-38250D01*
X23500Y-38250D02*
X23500Y-34250D01*
X22500Y-39750D02*
X22500Y-39250D01*
X45500Y-45750D02*
X45500Y-44500D01*
X45000Y-46250D02*
X45500Y-45750D01*
X44250Y-46250D02*
X45000Y-46250D01*
X24750Y-44500D02*
X23250Y-44500D01*
X23250Y-44500D02*
X21500Y-42750D01*
X17400Y-21650D02*
X17400Y-20500D01*
X19500Y-26500D02*
X18250Y-25250D01*
X18250Y-25250D02*
X18250Y-22500D01*
X19500Y-27000D02*
X19500Y-26500D01*
X18250Y-22500D02*
X17400Y-21650D01*
X28500Y-19000D02*
X28500Y-18250D01*
X28500Y-18250D02*
X28750Y-18000D01*
X30250Y-16000D02*
X32500Y-16000D01*
X28750Y-17500D02*
X30250Y-16000D01*
X28750Y-18000D02*
X28750Y-17500D01*
X26500Y-19000D02*
X26000Y-18500D01*
X33000Y-15500D02*
X32500Y-16000D01*
X26500Y-19000D02*
X28500Y-19000D01*
X17400Y-15650D02*
X17250Y-15500D01*
X17400Y-20500D02*
X17400Y-15650D01*
X28000Y-33500D02*
X28000Y-38750D01*
X28500Y-39250D02*
X28000Y-38750D01*
X32000Y-41500D02*
X30717Y-41500D01*
X28500Y-39750D02*
X28500Y-39250D01*
X28750Y-40000D02*
X28500Y-39750D01*
X29217Y-40000D02*
X28750Y-40000D01*
X30717Y-41500D02*
X29217Y-40000D01*
X43000Y-18500D02*
X43000Y-18750D01*
X41000Y-16500D02*
X43000Y-18500D01*
X39250Y-16500D02*
X41000Y-16500D01*
X37000Y-18750D02*
X39250Y-16500D01*
X30750Y-18750D02*
X31750Y-19750D01*
X31750Y-19750D02*
X32250Y-19750D01*
X32250Y-19750D02*
X33000Y-20500D01*
X25000Y-32500D02*
X24500Y-33000D01*
X25000Y-31750D02*
X25000Y-32500D01*
X30750Y-18750D02*
X30750Y-18000D01*
X31750Y-19750D02*
X30750Y-18750D01*
X45000Y-17250D02*
X45750Y-18000D01*
X45750Y-18000D02*
X45750Y-19000D01*
X45000Y-15500D02*
X45000Y-17250D01*
X32500Y-21500D02*
X32500Y-22500D01*
X33000Y-20500D02*
X33000Y-21000D01*
X33000Y-21000D02*
X32500Y-21500D01*
X12000Y-41500D02*
X12000Y-40750D01*
X11750Y-40500D02*
X12000Y-40750D01*
X11750Y-38750D02*
X11750Y-40500D01*
X13000Y-37500D02*
X11750Y-38750D01*
X13000Y-32500D02*
X13000Y-37500D01*
X13500Y-32000D02*
X13000Y-32500D01*
X25000Y-31750D02*
X25000Y-22000D01*
X30500Y-31500D02*
X31000Y-31000D01*
X31000Y-31000D02*
X31000Y-27750D01*
X30750Y-33500D02*
X30750Y-34750D01*
X31250Y-37750D02*
X30000Y-39000D01*
X31250Y-35250D02*
X31250Y-37750D01*
X30750Y-34750D02*
X31250Y-35250D01*
X26000Y-24250D02*
X26500Y-23750D01*
X26500Y-23750D02*
X26500Y-23500D01*
X31000Y-32500D02*
X30500Y-32000D01*
X31000Y-27750D02*
X31250Y-27500D01*
X30500Y-32000D02*
X30500Y-31500D01*
X31250Y-27500D02*
X31250Y-24750D01*
X31000Y-33250D02*
X31000Y-32500D01*
X30750Y-33500D02*
X31000Y-33250D01*
X32000Y-22500D02*
X32000Y-22750D01*
X30750Y-24250D02*
X31250Y-24750D01*
X30750Y-23750D02*
X30750Y-24250D01*
X31250Y-23250D02*
X30750Y-23750D01*
X31500Y-23250D02*
X31250Y-23250D01*
X32000Y-22750D02*
X31500Y-23250D01*
X43250Y-18250D02*
X43750Y-17750D01*
X41250Y-16250D02*
X43250Y-18250D01*
X39000Y-16250D02*
X41250Y-16250D01*
X37000Y-18250D02*
X39000Y-16250D01*
X33000Y-41500D02*
X32500Y-41000D01*
X29500Y-39000D02*
X30000Y-39000D01*
X30750Y-41000D02*
X30500Y-40750D01*
X32500Y-41000D02*
X30750Y-41000D01*
X32000Y-22500D02*
X32000Y-20500D01*
X30000Y-18500D02*
X32000Y-20500D01*
X43750Y-15500D02*
X43750Y-17750D01*
X15500Y-41500D02*
X16000Y-41000D01*
X16000Y-41000D02*
X16000Y-36000D01*
X16000Y-36000D02*
X16500Y-35500D01*
X16500Y-33750D02*
X16500Y-35500D01*
X25500Y-33000D02*
X26000Y-32500D01*
X26000Y-32500D02*
X26000Y-24250D01*
X26750Y-22250D02*
X26750Y-23250D01*
X26500Y-23500D02*
X26750Y-23250D01*
X41500Y-16000D02*
X43250Y-17750D01*
X38750Y-16000D02*
X41500Y-16000D01*
X37000Y-17750D02*
X38750Y-16000D01*
X22000Y-42750D02*
X22000Y-40750D01*
X12500Y-42000D02*
X12500Y-40750D01*
X12000Y-42500D02*
X12500Y-42000D01*
X13500Y-37500D02*
X13500Y-33000D01*
X12000Y-39000D02*
X13500Y-37500D01*
X12000Y-40250D02*
X12000Y-39000D01*
X12500Y-40750D02*
X12000Y-40250D01*
X29500Y-17750D02*
X29250Y-17500D01*
X29500Y-17750D02*
X29250Y-17500D01*
X29500Y-19000D02*
X29500Y-17750D01*
X31000Y-20500D02*
X29500Y-19000D01*
X30250Y-42500D02*
X29750Y-42000D01*
X32000Y-42500D02*
X30250Y-42500D01*
X29750Y-41000D02*
X29250Y-40500D01*
X29750Y-42000D02*
X29750Y-41000D01*
X31000Y-20500D02*
X31500Y-21000D01*
X31500Y-21000D02*
X31500Y-22750D01*
X15000Y-29000D02*
X15000Y-32500D01*
X30500Y-32500D02*
X29750Y-31750D01*
X29750Y-31750D02*
X29750Y-31000D01*
X30000Y-31000D02*
X30000Y-29000D01*
X30000Y-29000D02*
X30500Y-28500D01*
X30500Y-32500D02*
X30000Y-32000D01*
X30000Y-32000D02*
X30000Y-31000D01*
X41750Y-15750D02*
X43250Y-17250D01*
X38500Y-15750D02*
X41750Y-15750D01*
X37000Y-17250D02*
X38500Y-15750D01*
X30500Y-33000D02*
X30500Y-32500D01*
X29000Y-19500D02*
X29000Y-18250D01*
X30000Y-20500D02*
X29000Y-19500D01*
X30500Y-27750D02*
X31000Y-27250D01*
X30000Y-20500D02*
X29250Y-21250D01*
X29250Y-25000D02*
X31000Y-26750D01*
X29250Y-21250D02*
X29250Y-25000D01*
X31000Y-27250D02*
X31000Y-26750D01*
X30500Y-28500D02*
X30500Y-27750D01*
X30250Y-43000D02*
X32500Y-43000D01*
X29250Y-42000D02*
X30250Y-43000D01*
X33000Y-42500D02*
X32500Y-43000D01*
X22500Y-42750D02*
X22500Y-41000D01*
X29250Y-41000D02*
X29250Y-42000D01*
X18000Y-33250D02*
X18000Y-33250D01*
X17000Y-42000D02*
X17000Y-37000D01*
X17000Y-37000D02*
X17750Y-36250D01*
X16000Y-43000D02*
X17000Y-42000D01*
X17750Y-33500D02*
X17750Y-36250D01*
X18000Y-33250D02*
X17750Y-33500D01*
X18000Y-30750D02*
X18000Y-33250D01*
X42000Y-15500D02*
X43250Y-16750D01*
X38250Y-15500D02*
X42000Y-15500D01*
X37000Y-16750D02*
X38250Y-15500D01*
X12000Y-43500D02*
X11500Y-43000D01*
X11500Y-37000D02*
X11500Y-33000D01*
X11750Y-37250D02*
X11500Y-37000D01*
X11750Y-38000D02*
X11750Y-37250D01*
X11500Y-38250D02*
X11750Y-38000D01*
X11500Y-43000D02*
X11500Y-38250D01*
X26250Y-19250D02*
X27750Y-19250D01*
X25500Y-18500D02*
X26250Y-19250D01*
X25500Y-18000D02*
X25500Y-18500D01*
X26000Y-17500D02*
X25500Y-18000D01*
X30000Y-26750D02*
X30000Y-28500D01*
X30000Y-43500D02*
X29000Y-42500D01*
X32000Y-43500D02*
X30000Y-43500D01*
X29000Y-20500D02*
X27750Y-19250D01*
X29000Y-25750D02*
X30000Y-26750D01*
X29000Y-20500D02*
X29000Y-25750D01*
X31500Y-34250D02*
X31750Y-34000D01*
X31750Y-34000D02*
X31750Y-28500D01*
X33250Y-24500D02*
X32000Y-25750D01*
X32000Y-25750D02*
X32000Y-28250D01*
X32000Y-28250D02*
X31750Y-28500D01*
X41250Y-28000D02*
X40500Y-27250D01*
X41250Y-29500D02*
X41250Y-28000D01*
X41500Y-29750D02*
X41250Y-29500D01*
X41500Y-34500D02*
X41500Y-29750D01*
X41250Y-34750D02*
X41500Y-34500D01*
X40250Y-34750D02*
X41250Y-34750D01*
X40000Y-35000D02*
X40250Y-34750D01*
X28000Y-31250D02*
X28000Y-25250D01*
X28500Y-33000D02*
X28000Y-32500D01*
X28000Y-32500D02*
X28000Y-31250D01*
X28000Y-20500D02*
X28000Y-23250D01*
X28000Y-23250D02*
X28299Y-23549D01*
X28299Y-23549D02*
X28299Y-24950D01*
X28299Y-24950D02*
X28000Y-25250D01*
X44500Y-17250D02*
X44000Y-17750D01*
X44000Y-17750D02*
X44000Y-18250D01*
X44000Y-18250D02*
X43000Y-19250D01*
X43000Y-19250D02*
X43000Y-19750D01*
X43000Y-19750D02*
X43750Y-20500D01*
X43750Y-20500D02*
X44250Y-20500D01*
X44250Y-20500D02*
X44500Y-20750D01*
X44500Y-20750D02*
X44500Y-25000D01*
X26983Y-19483D02*
X25983Y-19483D01*
X25983Y-19483D02*
X25250Y-18750D01*
X25250Y-18750D02*
X25250Y-17500D01*
X25250Y-17500D02*
X26250Y-16500D01*
X26250Y-16500D02*
X27000Y-16500D01*
X28000Y-20500D02*
X26983Y-19483D01*
X15000Y-39000D02*
X14000Y-38000D01*
X15000Y-39000D02*
X15000Y-40000D01*
X15000Y-40000D02*
X14000Y-41000D01*
X14000Y-41000D02*
X15000Y-40000D01*
X32500Y-44000D02*
X30000Y-44000D01*
X30000Y-44000D02*
X29000Y-43000D01*
X30000Y-44000D02*
X29000Y-43000D01*
X32500Y-44000D02*
X30000Y-44000D01*
X33000Y-43500D02*
X32500Y-44000D01*
X13500Y-43000D02*
X13500Y-41500D01*
X13500Y-41500D02*
X15000Y-40000D01*
X13000Y-43500D02*
X13500Y-43000D01*
X14000Y-34000D02*
X14000Y-38000D01*
X28500Y-43000D02*
X26000Y-43000D01*
X26000Y-43000D02*
X25750Y-42750D01*
X27000Y-20500D02*
X27000Y-20000D01*
X26750Y-19750D02*
X25750Y-19750D01*
X27000Y-20000D02*
X26750Y-19750D01*
X25750Y-16500D02*
X25000Y-17250D01*
X25000Y-19000D02*
X25750Y-19750D01*
X25000Y-17250D02*
X25000Y-19000D01*
X30500Y-17500D02*
X31000Y-17000D01*
X30000Y-44500D02*
X28500Y-43000D01*
X32000Y-44500D02*
X30000Y-44500D01*
X31000Y-17000D02*
X35250Y-17000D01*
X31000Y-17000D02*
X30500Y-17500D01*
X35250Y-17000D02*
X31000Y-17000D01*
X36250Y-16000D02*
X35250Y-17000D01*
X13700Y-43450D02*
X13700Y-41799D01*
X13700Y-41799D02*
X15250Y-40250D01*
X15250Y-40250D02*
X15250Y-38750D01*
X15250Y-38750D02*
X14500Y-38000D01*
X13500Y-43750D02*
X13750Y-43500D01*
X13500Y-43750D02*
X13500Y-44000D01*
X14500Y-33000D02*
X14500Y-38000D01*
X13750Y-43500D02*
X13700Y-43450D01*
X12000Y-25000D02*
X12000Y-22750D01*
X13000Y-26000D02*
X13250Y-26000D01*
X13000Y-26000D02*
X12000Y-25000D01*
X12250Y-22500D02*
X12000Y-22750D01*
X14000Y-26750D02*
X13250Y-26000D01*
X14500Y-32000D02*
X14500Y-32000D01*
X14500Y-32000D02*
X14500Y-28000D01*
X14500Y-28000D02*
X14000Y-27500D01*
X14000Y-27500D02*
X14000Y-26750D01*
X14500Y-33000D02*
X14500Y-32000D01*
X25000Y-20000D02*
X24500Y-20000D01*
X24250Y-16000D02*
X24500Y-16000D01*
X23500Y-16750D02*
X24250Y-16000D01*
X23500Y-19000D02*
X23500Y-16750D01*
X24500Y-20000D02*
X23500Y-19000D01*
X26000Y-20500D02*
X25500Y-20500D01*
X25500Y-20500D02*
X25000Y-20000D01*
X17500Y-29250D02*
X17500Y-27000D01*
X16000Y-30750D02*
X16000Y-35500D01*
X17500Y-29250D02*
X16000Y-30750D01*
X27000Y-15500D02*
X26500Y-15500D01*
X25250Y-15250D02*
X24500Y-16000D01*
X26250Y-15250D02*
X25250Y-15250D01*
X26500Y-15500D02*
X26250Y-15250D01*
X14500Y-42000D02*
X14500Y-44500D01*
X14500Y-42000D02*
X15750Y-40750D01*
X15750Y-40750D02*
X15750Y-35750D01*
X16000Y-35500D02*
X15750Y-35750D01*
X28750Y-44000D02*
X25750Y-44000D01*
X32500Y-45000D02*
X33000Y-44500D01*
X29750Y-45000D02*
X28750Y-44000D01*
X32500Y-45000D02*
X29750Y-45000D01*
X26000Y-20500D02*
X26000Y-21000D01*
X25500Y-21500D02*
X25500Y-26250D01*
X26000Y-21000D02*
X25500Y-21500D01*
X13250Y-28750D02*
X13250Y-30750D01*
X11250Y-32500D02*
X11000Y-32500D01*
X11500Y-32500D02*
X11250Y-32500D01*
X13250Y-30750D02*
X11500Y-32500D01*
X11500Y-27000D02*
X13250Y-28750D01*
X28250Y-17000D02*
X26250Y-17000D01*
X32500Y-15000D02*
X33000Y-14500D01*
X28250Y-17000D02*
X28750Y-16500D01*
X28750Y-16500D02*
X28750Y-16250D01*
X28750Y-16250D02*
X30000Y-15000D01*
X30000Y-15000D02*
X32500Y-15000D01*
X13750Y-45250D02*
X13750Y-45500D01*
X11000Y-37000D02*
X11000Y-32500D01*
X11500Y-37500D02*
X11000Y-37000D01*
X11500Y-37750D02*
X11500Y-37500D01*
X13250Y-46000D02*
X11750Y-46000D01*
X13750Y-45500D02*
X13250Y-46000D01*
X11250Y-45500D02*
X11250Y-38000D01*
X11250Y-38000D02*
X11500Y-37750D01*
X11750Y-46000D02*
X11250Y-45500D01*
X34250Y-42750D02*
X34500Y-43000D01*
X34250Y-40500D02*
X34250Y-42750D01*
X33250Y-39500D02*
X34250Y-40500D01*
X33000Y-39500D02*
X33250Y-39500D01*
X14500Y-14500D02*
X14500Y-14500D01*
X13500Y-22000D02*
X14500Y-22000D01*
X14500Y-18500D02*
X15500Y-19500D01*
X15500Y-21000D02*
X15500Y-19500D01*
X14500Y-22000D02*
X15500Y-21000D01*
X14500Y-14500D02*
X14500Y-18500D01*
X12250Y-20750D02*
X12000Y-20750D01*
X13500Y-22000D02*
X12250Y-20750D01*
X31000Y-34500D02*
X31750Y-35250D01*
X32000Y-36750D02*
X32000Y-39500D01*
X31750Y-36500D02*
X32000Y-36750D01*
X31750Y-35250D02*
X31750Y-36500D01*
X31000Y-33750D02*
X31500Y-33250D01*
X31000Y-34500D02*
X31000Y-33750D01*
X31500Y-33250D02*
X31500Y-28250D01*
X31750Y-25250D02*
X31750Y-28000D01*
X31750Y-28000D02*
X31500Y-28250D01*
X34500Y-43750D02*
X34500Y-44000D01*
X35000Y-43250D02*
X34500Y-43750D01*
X35000Y-43000D02*
X35000Y-43250D01*
X34500Y-42500D02*
X35000Y-43000D01*
X28250Y-16000D02*
X26250Y-16000D01*
X29750Y-14500D02*
X28250Y-16000D01*
X32000Y-14500D02*
X29750Y-14500D01*
X11250Y-25750D02*
X11250Y-15250D01*
X11250Y-15250D02*
X12000Y-14500D01*
X12500Y-27000D02*
X11250Y-25750D01*
X32500Y-24000D02*
X32500Y-24500D01*
X32500Y-24500D02*
X31750Y-25250D01*
X34500Y-40000D02*
X34000Y-39500D01*
X34500Y-42500D02*
X34500Y-40000D01*
X14250Y-47000D02*
X11500Y-47000D01*
X15000Y-46250D02*
X14250Y-47000D01*
X12000Y-37000D02*
X12000Y-32500D01*
X11000Y-46500D02*
X11500Y-47000D01*
X11000Y-37500D02*
X11000Y-46500D01*
X13500Y-47000D02*
X11500Y-47000D01*
X15750Y-21250D02*
X15750Y-19250D01*
X31000Y-39500D02*
X31500Y-40000D01*
X11500Y-47000D02*
X13500Y-47000D01*
X33250Y-40000D02*
X34000Y-40750D01*
X34000Y-40750D02*
X34000Y-45000D01*
X34000Y-45000D02*
X34250Y-45250D01*
X31500Y-40000D02*
X33250Y-40000D01*
X14750Y-22250D02*
X15750Y-21250D01*
X13500Y-31000D02*
X12000Y-32500D01*
X13500Y-28500D02*
X13500Y-31000D01*
X23750Y-15000D02*
X28500Y-15000D01*
X32500Y-14000D02*
X33000Y-13500D01*
X28500Y-15000D02*
X29500Y-14000D01*
X29500Y-14000D02*
X32500Y-14000D01*
X15000Y-14500D02*
X14750Y-14750D01*
X14750Y-14750D02*
X14750Y-18250D01*
X14750Y-18250D02*
X15750Y-19250D01*
X15000Y-13500D02*
X15000Y-14500D01*
X13500Y-22250D02*
X14750Y-22250D01*
X13500Y-26750D02*
X13000Y-26250D01*
X13500Y-27000D02*
X13500Y-26750D01*
X13500Y-22250D02*
X13250Y-22250D01*
X12750Y-26250D02*
X11750Y-25250D01*
X13000Y-26250D02*
X12750Y-26250D01*
X12250Y-21250D02*
X12000Y-21250D01*
X12000Y-21250D02*
X11750Y-21500D01*
X11750Y-21500D02*
X11750Y-25250D01*
X13250Y-22250D02*
X12250Y-21250D01*
X30000Y-39500D02*
X30500Y-40000D01*
X26250Y-14000D02*
X28500Y-14000D01*
X28500Y-14000D02*
X29000Y-13500D01*
X29000Y-13500D02*
X32000Y-13500D01*
X31000Y-40000D02*
X31250Y-40250D01*
X30500Y-40000D02*
X31000Y-40000D01*
X14500Y-27000D02*
X14500Y-27000D01*
X33000Y-40250D02*
X33700Y-40950D01*
X33700Y-40950D02*
X33700Y-45200D01*
X33700Y-45200D02*
X34250Y-45750D01*
X34250Y-45750D02*
X34250Y-46000D01*
X31250Y-40250D02*
X33000Y-40250D01*
X12000Y-13500D02*
X12500Y-14000D01*
X12500Y-14000D02*
X12500Y-18750D01*
X11500Y-19750D02*
X12500Y-18750D01*
X13000Y-26750D02*
X12750Y-26500D01*
X12500Y-26500D02*
X11500Y-25500D01*
X11500Y-25500D02*
X11500Y-19750D01*
X12750Y-26500D02*
X12500Y-26500D01*
X13000Y-27250D02*
X13000Y-26750D01*
X19000Y-36000D02*
X17500Y-37500D01*
X19000Y-43750D02*
X17500Y-42250D01*
X17500Y-42250D02*
X17500Y-37500D01*
X19000Y-32000D02*
X19000Y-36000D01*
X21500Y-43750D02*
X19000Y-43750D01*
X25250Y-47500D02*
X21500Y-43750D01*
X14000Y-28000D02*
X13750Y-28000D01*
X13750Y-28000D02*
X13000Y-27250D01*
X14000Y-32000D02*
X14000Y-28000D01*
X29000Y-32750D02*
X28500Y-32250D01*
X28500Y-32250D02*
X28500Y-27000D01*
X29000Y-39500D02*
X29000Y-35750D01*
X29500Y-33750D02*
X29000Y-33250D01*
X29500Y-35250D02*
X29500Y-33750D01*
X29000Y-35750D02*
X29500Y-35250D01*
X29000Y-33250D02*
X29000Y-32750D01*
X25500Y-13000D02*
X32500Y-13000D01*
X32500Y-13000D02*
X33000Y-12500D01*
X30750Y-40250D02*
X31000Y-40500D01*
X30250Y-40250D02*
X30750Y-40250D01*
X30000Y-40000D02*
X30250Y-40250D01*
X29000Y-39500D02*
X29500Y-40000D01*
X29500Y-40000D02*
X30000Y-40000D01*
X33750Y-46750D02*
X33750Y-45750D01*
X33750Y-45750D02*
X33500Y-45500D01*
X33500Y-45500D02*
X33500Y-41250D01*
X33500Y-41250D02*
X32750Y-40500D01*
X32750Y-40500D02*
X31000Y-40500D01*
X34000Y-47000D02*
X33750Y-46750D01*
X15250Y-26750D02*
X15250Y-26500D01*
X15500Y-27000D02*
X15250Y-26750D01*
X15500Y-12500D02*
X15500Y-14500D01*
X15500Y-22000D02*
X16000Y-21500D01*
X16000Y-21500D02*
X16000Y-19000D01*
X15500Y-14500D02*
X15000Y-15000D01*
X15000Y-15000D02*
X15000Y-18000D01*
X15000Y-18000D02*
X16000Y-19000D01*
X15500Y-22000D02*
X15000Y-22500D01*
X15000Y-26250D02*
X15000Y-22500D01*
X15250Y-26500D02*
X15000Y-26250D01*
X16250Y-27750D02*
X16500Y-27750D01*
X15500Y-27000D02*
X16250Y-27750D01*
X30000Y-32500D02*
X29250Y-31750D01*
X29250Y-27750D02*
X29500Y-27500D01*
X29250Y-31750D02*
X29250Y-27750D01*
X29750Y-35750D02*
X29750Y-33500D01*
X29750Y-33500D02*
X30000Y-33250D01*
X29500Y-27500D02*
X29500Y-27000D01*
X29500Y-36000D02*
X29750Y-35750D01*
X30000Y-33250D02*
X30000Y-32500D01*
X30000Y-38250D02*
X30000Y-36500D01*
X30000Y-36500D02*
X29500Y-36000D01*
X18500Y-41500D02*
X20500Y-39500D01*
X21750Y-43500D02*
X19250Y-43500D01*
X23000Y-44750D02*
X21750Y-43500D01*
X18500Y-42750D02*
X19250Y-43500D01*
X18500Y-41500D02*
X18500Y-42750D01*
X21000Y-38000D02*
X20500Y-38500D01*
X20500Y-39500D02*
X20500Y-38500D01*
X25750Y-48000D02*
X25750Y-47500D01*
X16250Y-21750D02*
X16250Y-18750D01*
X26250Y-12000D02*
X30750Y-12000D01*
X30750Y-12000D02*
X31250Y-12500D01*
X31250Y-12500D02*
X32000Y-12500D01*
X26250Y-48500D02*
X25750Y-48000D01*
X23000Y-44750D02*
X23000Y-44750D01*
X25750Y-47500D02*
X23000Y-44750D01*
X16000Y-14500D02*
X15250Y-15250D01*
X15250Y-15250D02*
X15250Y-17750D01*
X15250Y-17750D02*
X16250Y-18750D01*
X16000Y-12000D02*
X16000Y-14500D01*
X16000Y-26000D02*
X16000Y-23250D01*
X16500Y-26500D02*
X16000Y-26000D01*
X16500Y-27000D02*
X16500Y-26500D01*
X15750Y-22250D02*
X15750Y-23000D01*
X15750Y-23000D02*
X16000Y-23250D01*
X16250Y-21750D02*
X15750Y-22250D01*
G54D28*
X45250Y-49250D02*
X41750Y-49250D01*
X41500Y-49000D02*
X41500Y-47250D01*
X41750Y-49250D02*
X41500Y-49000D01*
X33750Y-49250D02*
X38000Y-49250D01*
X33000Y-48500D02*
X33750Y-49250D01*
X40750Y-46500D02*
X41500Y-47250D01*
X39000Y-46500D02*
X40750Y-46500D01*
X38250Y-47250D02*
X39000Y-46500D01*
X38000Y-49250D02*
X38250Y-49000D01*
X38250Y-49000D02*
X38250Y-47250D01*
X46000Y-41100D02*
X46000Y-48500D01*
X46000Y-33250D02*
X46000Y-38000D01*
X46000Y-48500D02*
X45250Y-49250D01*
X31250Y-49250D02*
X32000Y-48500D01*
X19250Y-46500D02*
X21000Y-46500D01*
X21000Y-46500D02*
X21750Y-47250D01*
X28750Y-11500D02*
X29500Y-10750D01*
X29500Y-10750D02*
X36500Y-10750D01*
X36500Y-10750D02*
X39250Y-13500D01*
X39250Y-13500D02*
X40750Y-13500D01*
X49000Y-30250D02*
X48250Y-31000D01*
X48250Y-31000D02*
X47750Y-31000D01*
X28000Y-11500D02*
X28750Y-11500D01*
X42750Y-11500D02*
X40750Y-13500D01*
X47000Y-11500D02*
X42750Y-11500D01*
X48000Y-11500D02*
X47000Y-11500D01*
X49000Y-12500D02*
X49000Y-30250D01*
X48000Y-11500D02*
X49000Y-12500D01*
X46700Y-40400D02*
X46700Y-38700D01*
X46700Y-38700D02*
X46000Y-38000D01*
X46000Y-41100D02*
X46700Y-40400D01*
X22250Y-49250D02*
X21750Y-48750D01*
X21750Y-48750D02*
X21750Y-47250D01*
X31250Y-49250D02*
X22250Y-49250D01*
X18250Y-48500D02*
X18500Y-48250D01*
X18500Y-48250D02*
X18500Y-47250D01*
X18500Y-47250D02*
X19250Y-46500D01*
X13000Y-48500D02*
X18250Y-48500D01*
G54D29*
X42000Y-31250D02*
X41750Y-31000D01*
X41750Y-31000D02*
X41750Y-29250D01*
X48649Y-22600D02*
X48000Y-23250D01*
X48649Y-19399D02*
X48649Y-22600D01*
X48500Y-19250D02*
X48649Y-19399D01*
X48000Y-23250D02*
X48250Y-23250D01*
X37750Y-28500D02*
X39000Y-29750D01*
X36000Y-31000D02*
X36000Y-29750D01*
X36750Y-29000D02*
X37750Y-29000D01*
X40000Y-33250D02*
X40000Y-34250D01*
X38000Y-31250D02*
X40000Y-33250D01*
X38000Y-30250D02*
X38000Y-31250D01*
X38250Y-30000D02*
X38000Y-30250D01*
X38250Y-29500D02*
X38250Y-30000D01*
X37750Y-29000D02*
X38250Y-29500D01*
X36750Y-28500D02*
X36750Y-29000D01*
X36750Y-29000D02*
X36000Y-29750D01*
X27500Y-27000D02*
X27500Y-25750D01*
X14500Y-25500D02*
X14500Y-26250D01*
X14500Y-26250D02*
X15000Y-26750D01*
X15000Y-26750D02*
X15000Y-28250D01*
X13500Y-24500D02*
X14500Y-25500D01*
X25500Y-27000D02*
X25500Y-28500D01*
X26500Y-27000D02*
X26500Y-25250D01*
X24500Y-24000D02*
X24500Y-27000D01*
X37250Y-32750D02*
X37250Y-31750D01*
X37000Y-34250D02*
X37000Y-33500D01*
X37250Y-33250D02*
X37250Y-32750D01*
X37000Y-33500D02*
X37250Y-33250D01*
X36250Y-35250D02*
X36250Y-32750D01*
X31000Y-32000D02*
X31250Y-31750D01*
X31250Y-31750D02*
X31250Y-28000D01*
X31500Y-27750D02*
X31250Y-28000D01*
X31500Y-24000D02*
X31500Y-27750D01*
G36*
X12017Y-16510D02*
X12010Y-16510D01*
X12010Y-16517D01*
X11990Y-16517D01*
X11990Y-16510D01*
X11982Y-16510D01*
X11982Y-16490D01*
X11990Y-16490D01*
X11990Y-16482D01*
X12010Y-16482D01*
X12010Y-16490D01*
X12017Y-16490D01*
X12017Y-16510D01*
X12017Y-16510D01*
G37*
X12017Y-16510D02*
X12010Y-16510D01*
X12010Y-16517D01*
X11990Y-16517D01*
X11990Y-16510D01*
X11982Y-16510D01*
X11982Y-16490D01*
X11990Y-16490D01*
X11990Y-16482D01*
X12010Y-16482D01*
X12010Y-16490D01*
X12017Y-16490D01*
X12017Y-16510D01*
G36*
X12700Y-37375D02*
X12043Y-38032D01*
X12050Y-38000D01*
X12050Y-37425D01*
X12084Y-37425D01*
X12240Y-37360D01*
X12360Y-37241D01*
X12424Y-37084D01*
X12425Y-36915D01*
X12360Y-36759D01*
X12300Y-36698D01*
X12300Y-33485D01*
X12395Y-33524D01*
X12603Y-33525D01*
X12700Y-33485D01*
X12700Y-37375D01*
X12700Y-37375D01*
G37*
X12700Y-37375D02*
X12043Y-38032D01*
X12050Y-38000D01*
X12050Y-37425D01*
X12084Y-37425D01*
X12240Y-37360D01*
X12360Y-37241D01*
X12424Y-37084D01*
X12425Y-36915D01*
X12360Y-36759D01*
X12300Y-36698D01*
X12300Y-33485D01*
X12395Y-33524D01*
X12603Y-33525D01*
X12700Y-33485D01*
X12700Y-37375D01*
G36*
X13519Y-39505D02*
X13505Y-39519D01*
X13500Y-39514D01*
X13494Y-39519D01*
X13480Y-39505D01*
X13485Y-39500D01*
X13480Y-39494D01*
X13494Y-39480D01*
X13500Y-39485D01*
X13505Y-39480D01*
X13519Y-39494D01*
X13514Y-39500D01*
X13519Y-39505D01*
X13519Y-39505D01*
G37*
X13519Y-39505D02*
X13505Y-39519D01*
X13500Y-39514D01*
X13494Y-39519D01*
X13480Y-39505D01*
X13485Y-39500D01*
X13480Y-39494D01*
X13494Y-39480D01*
X13500Y-39485D01*
X13505Y-39480D01*
X13519Y-39494D01*
X13514Y-39500D01*
X13519Y-39505D01*
G36*
X14269Y-23999D02*
X14188Y-24033D01*
X14034Y-24188D01*
X14000Y-24269D01*
X13966Y-24188D01*
X13811Y-24034D01*
X13730Y-24000D01*
X13811Y-23966D01*
X13965Y-23811D01*
X13999Y-23730D01*
X14033Y-23811D01*
X14188Y-23965D01*
X14269Y-23999D01*
X14269Y-23999D01*
G37*
X14269Y-23999D02*
X14188Y-24033D01*
X14034Y-24188D01*
X14000Y-24269D01*
X13966Y-24188D01*
X13811Y-24034D01*
X13730Y-24000D01*
X13811Y-23966D01*
X13965Y-23811D01*
X13999Y-23730D01*
X14033Y-23811D01*
X14188Y-23965D01*
X14269Y-23999D01*
G36*
X14328Y-26502D02*
X14218Y-26548D01*
X14212Y-26537D01*
X13462Y-25787D01*
X13364Y-25722D01*
X13250Y-25700D01*
X13124Y-25700D01*
X12474Y-25050D01*
X12849Y-25050D01*
X12941Y-25011D01*
X13011Y-24941D01*
X13050Y-24849D01*
X13050Y-24827D01*
X13188Y-24965D01*
X13390Y-25049D01*
X13608Y-25050D01*
X13620Y-25045D01*
X14200Y-25624D01*
X14200Y-26250D01*
X14222Y-26364D01*
X14287Y-26462D01*
X14328Y-26502D01*
X14328Y-26502D01*
G37*
X14328Y-26502D02*
X14218Y-26548D01*
X14212Y-26537D01*
X13462Y-25787D01*
X13364Y-25722D01*
X13250Y-25700D01*
X13124Y-25700D01*
X12474Y-25050D01*
X12849Y-25050D01*
X12941Y-25011D01*
X13011Y-24941D01*
X13050Y-24849D01*
X13050Y-24827D01*
X13188Y-24965D01*
X13390Y-25049D01*
X13608Y-25050D01*
X13620Y-25045D01*
X14200Y-25624D01*
X14200Y-26250D01*
X14222Y-26364D01*
X14287Y-26462D01*
X14328Y-26502D01*
G36*
X14700Y-22987D02*
X14609Y-22950D01*
X14391Y-22949D01*
X14188Y-23033D01*
X14034Y-23188D01*
X14000Y-23269D01*
X13966Y-23188D01*
X13811Y-23034D01*
X13609Y-22950D01*
X13391Y-22949D01*
X13188Y-23033D01*
X13064Y-23157D01*
X13059Y-23145D01*
X13041Y-23118D01*
X12913Y-23100D01*
X12514Y-23500D01*
X12913Y-23899D01*
X13041Y-23881D01*
X13060Y-23838D01*
X13188Y-23965D01*
X13269Y-23999D01*
X13188Y-24033D01*
X13050Y-24172D01*
X13050Y-24150D01*
X13011Y-24058D01*
X12941Y-23988D01*
X12891Y-23967D01*
X12899Y-23913D01*
X12500Y-23514D01*
X12494Y-23519D01*
X12480Y-23505D01*
X12485Y-23500D01*
X12480Y-23494D01*
X12494Y-23480D01*
X12500Y-23485D01*
X12899Y-23086D01*
X12881Y-22958D01*
X12644Y-22853D01*
X12501Y-22849D01*
X12610Y-22741D01*
X12674Y-22584D01*
X12675Y-22415D01*
X12610Y-22259D01*
X12491Y-22139D01*
X12334Y-22075D01*
X12165Y-22074D01*
X12050Y-22122D01*
X12050Y-21624D01*
X12124Y-21550D01*
X12125Y-21550D01*
X13037Y-22462D01*
X13037Y-22462D01*
X13135Y-22527D01*
X13250Y-22550D01*
X13500Y-22550D01*
X14700Y-22550D01*
X14700Y-22987D01*
X14700Y-22987D01*
G37*
X14700Y-22987D02*
X14609Y-22950D01*
X14391Y-22949D01*
X14188Y-23033D01*
X14034Y-23188D01*
X14000Y-23269D01*
X13966Y-23188D01*
X13811Y-23034D01*
X13609Y-22950D01*
X13391Y-22949D01*
X13188Y-23033D01*
X13064Y-23157D01*
X13059Y-23145D01*
X13041Y-23118D01*
X12913Y-23100D01*
X12514Y-23500D01*
X12913Y-23899D01*
X13041Y-23881D01*
X13060Y-23838D01*
X13188Y-23965D01*
X13269Y-23999D01*
X13188Y-24033D01*
X13050Y-24172D01*
X13050Y-24150D01*
X13011Y-24058D01*
X12941Y-23988D01*
X12891Y-23967D01*
X12899Y-23913D01*
X12500Y-23514D01*
X12494Y-23519D01*
X12480Y-23505D01*
X12485Y-23500D01*
X12480Y-23494D01*
X12494Y-23480D01*
X12500Y-23485D01*
X12899Y-23086D01*
X12881Y-22958D01*
X12644Y-22853D01*
X12501Y-22849D01*
X12610Y-22741D01*
X12674Y-22584D01*
X12675Y-22415D01*
X12610Y-22259D01*
X12491Y-22139D01*
X12334Y-22075D01*
X12165Y-22074D01*
X12050Y-22122D01*
X12050Y-21624D01*
X12124Y-21550D01*
X12125Y-21550D01*
X13037Y-22462D01*
X13037Y-22462D01*
X13135Y-22527D01*
X13250Y-22550D01*
X13500Y-22550D01*
X14700Y-22550D01*
X14700Y-22987D01*
G36*
X15200Y-38275D02*
X14800Y-37875D01*
X14800Y-33442D01*
X14944Y-33297D01*
X15000Y-33164D01*
X15054Y-33297D01*
X15200Y-33442D01*
X15200Y-38275D01*
X15200Y-38275D01*
G37*
X15200Y-38275D02*
X14800Y-37875D01*
X14800Y-33442D01*
X14944Y-33297D01*
X15000Y-33164D01*
X15054Y-33297D01*
X15200Y-33442D01*
X15200Y-38275D01*
G36*
X16519Y-23505D02*
X16505Y-23519D01*
X16500Y-23514D01*
X16494Y-23519D01*
X16480Y-23505D01*
X16485Y-23500D01*
X16480Y-23494D01*
X16494Y-23480D01*
X16500Y-23485D01*
X16505Y-23480D01*
X16519Y-23494D01*
X16514Y-23500D01*
X16519Y-23505D01*
X16519Y-23505D01*
G37*
X16519Y-23505D02*
X16505Y-23519D01*
X16500Y-23514D01*
X16494Y-23519D01*
X16480Y-23505D01*
X16485Y-23500D01*
X16480Y-23494D01*
X16494Y-23480D01*
X16500Y-23485D01*
X16505Y-23480D01*
X16519Y-23494D01*
X16514Y-23500D01*
X16519Y-23505D01*
G36*
X24200Y-22625D02*
X23787Y-23037D01*
X23722Y-23135D01*
X23700Y-23250D01*
X23700Y-23500D01*
X23700Y-26198D01*
X23639Y-26258D01*
X23575Y-26415D01*
X23575Y-26475D01*
X23396Y-26474D01*
X23346Y-26495D01*
X23241Y-26389D01*
X23084Y-26325D01*
X22915Y-26324D01*
X22759Y-26389D01*
X22653Y-26495D01*
X22604Y-26475D01*
X22396Y-26474D01*
X22203Y-26554D01*
X22055Y-26702D01*
X21999Y-26835D01*
X21950Y-26714D01*
X21950Y-26321D01*
X21962Y-26309D01*
X22045Y-26108D01*
X22045Y-25891D01*
X21962Y-25691D01*
X21950Y-25678D01*
X21950Y-25186D01*
X22068Y-25068D01*
X22165Y-24922D01*
X22200Y-24750D01*
X22200Y-23051D01*
X22258Y-23110D01*
X22415Y-23174D01*
X22584Y-23175D01*
X22740Y-23110D01*
X22860Y-22991D01*
X22924Y-22834D01*
X22925Y-22665D01*
X22860Y-22509D01*
X22741Y-22389D01*
X22700Y-22372D01*
X22700Y-21014D01*
X22733Y-21000D01*
X22899Y-20834D01*
X22900Y-20834D01*
X23065Y-20999D01*
X23100Y-21014D01*
X23100Y-21102D01*
X23009Y-21139D01*
X22889Y-21258D01*
X22825Y-21415D01*
X22824Y-21584D01*
X22889Y-21740D01*
X23008Y-21860D01*
X23165Y-21924D01*
X23334Y-21925D01*
X23490Y-21860D01*
X23610Y-21741D01*
X23674Y-21584D01*
X23675Y-21468D01*
X23677Y-21464D01*
X23699Y-21350D01*
X23700Y-21350D01*
X23700Y-21014D01*
X23733Y-21000D01*
X23820Y-20914D01*
X23848Y-20981D01*
X23918Y-21051D01*
X24010Y-21090D01*
X24100Y-21090D01*
X24100Y-21100D01*
X24122Y-21214D01*
X24187Y-21312D01*
X24200Y-21324D01*
X24200Y-22625D01*
X24200Y-22625D01*
G37*
X24200Y-22625D02*
X23787Y-23037D01*
X23722Y-23135D01*
X23700Y-23250D01*
X23700Y-23500D01*
X23700Y-26198D01*
X23639Y-26258D01*
X23575Y-26415D01*
X23575Y-26475D01*
X23396Y-26474D01*
X23346Y-26495D01*
X23241Y-26389D01*
X23084Y-26325D01*
X22915Y-26324D01*
X22759Y-26389D01*
X22653Y-26495D01*
X22604Y-26475D01*
X22396Y-26474D01*
X22203Y-26554D01*
X22055Y-26702D01*
X21999Y-26835D01*
X21950Y-26714D01*
X21950Y-26321D01*
X21962Y-26309D01*
X22045Y-26108D01*
X22045Y-25891D01*
X21962Y-25691D01*
X21950Y-25678D01*
X21950Y-25186D01*
X22068Y-25068D01*
X22165Y-24922D01*
X22200Y-24750D01*
X22200Y-23051D01*
X22258Y-23110D01*
X22415Y-23174D01*
X22584Y-23175D01*
X22740Y-23110D01*
X22860Y-22991D01*
X22924Y-22834D01*
X22925Y-22665D01*
X22860Y-22509D01*
X22741Y-22389D01*
X22700Y-22372D01*
X22700Y-21014D01*
X22733Y-21000D01*
X22899Y-20834D01*
X22900Y-20834D01*
X23065Y-20999D01*
X23100Y-21014D01*
X23100Y-21102D01*
X23009Y-21139D01*
X22889Y-21258D01*
X22825Y-21415D01*
X22824Y-21584D01*
X22889Y-21740D01*
X23008Y-21860D01*
X23165Y-21924D01*
X23334Y-21925D01*
X23490Y-21860D01*
X23610Y-21741D01*
X23674Y-21584D01*
X23675Y-21468D01*
X23677Y-21464D01*
X23699Y-21350D01*
X23700Y-21350D01*
X23700Y-21014D01*
X23733Y-21000D01*
X23820Y-20914D01*
X23848Y-20981D01*
X23918Y-21051D01*
X24010Y-21090D01*
X24100Y-21090D01*
X24100Y-21100D01*
X24122Y-21214D01*
X24187Y-21312D01*
X24200Y-21324D01*
X24200Y-22625D01*
G36*
X24450Y-31375D02*
X24287Y-31537D01*
X24222Y-31635D01*
X24200Y-31750D01*
X24200Y-32125D01*
X23787Y-32537D01*
X23780Y-32548D01*
X23604Y-32475D01*
X23396Y-32474D01*
X23203Y-32554D01*
X23055Y-32702D01*
X22999Y-32835D01*
X22945Y-32703D01*
X22797Y-32555D01*
X22604Y-32475D01*
X22396Y-32474D01*
X22203Y-32554D01*
X22055Y-32702D01*
X22055Y-32702D01*
X22038Y-32658D01*
X22021Y-32633D01*
X21895Y-32618D01*
X21881Y-32632D01*
X21881Y-32604D01*
X21866Y-32478D01*
X21639Y-32378D01*
X21390Y-32372D01*
X21158Y-32461D01*
X21133Y-32478D01*
X21118Y-32604D01*
X21500Y-32985D01*
X21881Y-32604D01*
X21881Y-32632D01*
X21514Y-33000D01*
X21895Y-33381D01*
X22021Y-33366D01*
X22053Y-33293D01*
X22054Y-33297D01*
X22200Y-33442D01*
X22200Y-34125D01*
X22037Y-34287D01*
X21972Y-34385D01*
X21950Y-34500D01*
X21950Y-34822D01*
X21941Y-34826D01*
X21881Y-34885D01*
X21881Y-33395D01*
X21500Y-33014D01*
X21118Y-33395D01*
X21133Y-33521D01*
X21360Y-33621D01*
X21609Y-33627D01*
X21841Y-33538D01*
X21866Y-33521D01*
X21881Y-33395D01*
X21881Y-34885D01*
X21787Y-34979D01*
X21704Y-35180D01*
X21704Y-35397D01*
X21787Y-35597D01*
X21940Y-35751D01*
X22141Y-35834D01*
X22358Y-35834D01*
X22558Y-35751D01*
X22700Y-35610D01*
X22700Y-36336D01*
X22367Y-36669D01*
X22358Y-36665D01*
X22141Y-36665D01*
X21941Y-36748D01*
X21787Y-36901D01*
X21704Y-37102D01*
X21704Y-37319D01*
X21787Y-37519D01*
X21940Y-37673D01*
X22141Y-37756D01*
X22358Y-37756D01*
X22558Y-37673D01*
X22712Y-37520D01*
X22795Y-37319D01*
X22795Y-37102D01*
X22791Y-37093D01*
X23200Y-36685D01*
X23200Y-38125D01*
X22402Y-38923D01*
X22154Y-38813D01*
X21880Y-38806D01*
X21623Y-38905D01*
X21594Y-38925D01*
X21571Y-39057D01*
X22000Y-39485D01*
X22005Y-39480D01*
X22019Y-39494D01*
X22014Y-39500D01*
X22019Y-39505D01*
X22005Y-39519D01*
X22000Y-39514D01*
X21571Y-39942D01*
X21594Y-40074D01*
X21702Y-40122D01*
X21287Y-40537D01*
X21222Y-40635D01*
X21200Y-40750D01*
X21200Y-41051D01*
X21049Y-40965D01*
X20014Y-42000D01*
X21049Y-43034D01*
X21257Y-42916D01*
X21257Y-42916D01*
X21287Y-42962D01*
X21525Y-43200D01*
X20948Y-43200D01*
X21034Y-43049D01*
X20000Y-42014D01*
X19994Y-42019D01*
X19980Y-42005D01*
X19985Y-42000D01*
X19980Y-41994D01*
X19994Y-41980D01*
X20000Y-41985D01*
X21034Y-40950D01*
X20909Y-40731D01*
X20354Y-40479D01*
X19957Y-40466D01*
X20544Y-39879D01*
X20665Y-39999D01*
X20882Y-40089D01*
X21116Y-40090D01*
X21333Y-40000D01*
X21428Y-39905D01*
X21557Y-39928D01*
X21985Y-39500D01*
X21557Y-39071D01*
X21428Y-39094D01*
X21334Y-39000D01*
X21117Y-38910D01*
X20883Y-38909D01*
X20800Y-38944D01*
X20800Y-38624D01*
X20999Y-38424D01*
X21084Y-38425D01*
X21240Y-38360D01*
X21360Y-38241D01*
X21424Y-38084D01*
X21425Y-37915D01*
X21360Y-37759D01*
X21241Y-37639D01*
X21084Y-37575D01*
X20946Y-37574D01*
X20962Y-37559D01*
X21045Y-37358D01*
X21045Y-37141D01*
X21045Y-35141D01*
X20962Y-34941D01*
X20809Y-34787D01*
X20608Y-34704D01*
X20391Y-34704D01*
X20191Y-34787D01*
X20062Y-34915D01*
X20055Y-34897D01*
X20038Y-34871D01*
X19910Y-34853D01*
X19514Y-35250D01*
X19910Y-35646D01*
X20038Y-35628D01*
X20059Y-35580D01*
X20190Y-35712D01*
X20391Y-35795D01*
X20608Y-35795D01*
X20808Y-35712D01*
X20962Y-35559D01*
X21045Y-35358D01*
X21045Y-35141D01*
X21045Y-37141D01*
X20962Y-36941D01*
X20809Y-36787D01*
X20608Y-36704D01*
X20391Y-36704D01*
X20191Y-36787D01*
X20062Y-36915D01*
X20055Y-36897D01*
X20038Y-36871D01*
X19910Y-36853D01*
X19896Y-36867D01*
X19896Y-36839D01*
X19878Y-36711D01*
X19643Y-36607D01*
X19387Y-36601D01*
X19147Y-36694D01*
X19121Y-36711D01*
X19103Y-36839D01*
X19500Y-37235D01*
X19896Y-36839D01*
X19896Y-36867D01*
X19514Y-37250D01*
X19910Y-37646D01*
X20038Y-37628D01*
X20059Y-37580D01*
X20190Y-37712D01*
X20391Y-37795D01*
X20608Y-37795D01*
X20628Y-37787D01*
X20575Y-37915D01*
X20574Y-38000D01*
X20287Y-38287D01*
X20222Y-38385D01*
X20200Y-38500D01*
X20200Y-39375D01*
X19896Y-39679D01*
X19896Y-37660D01*
X19500Y-37264D01*
X19485Y-37278D01*
X19485Y-37250D01*
X19089Y-36853D01*
X18961Y-36871D01*
X18857Y-37106D01*
X18851Y-37362D01*
X18944Y-37602D01*
X18961Y-37628D01*
X19089Y-37646D01*
X19485Y-37250D01*
X19485Y-37278D01*
X19103Y-37660D01*
X19121Y-37788D01*
X19356Y-37892D01*
X19612Y-37898D01*
X19852Y-37805D01*
X19878Y-37788D01*
X19896Y-37660D01*
X19896Y-39679D01*
X18287Y-41287D01*
X18222Y-41385D01*
X18200Y-41500D01*
X18200Y-42525D01*
X17800Y-42125D01*
X17800Y-37624D01*
X19212Y-36212D01*
X19212Y-36212D01*
X19251Y-36153D01*
X19277Y-36114D01*
X19277Y-36114D01*
X19300Y-36000D01*
X19300Y-35867D01*
X19356Y-35892D01*
X19612Y-35898D01*
X19852Y-35805D01*
X19878Y-35788D01*
X19896Y-35660D01*
X19500Y-35264D01*
X19494Y-35269D01*
X19480Y-35255D01*
X19485Y-35250D01*
X19480Y-35244D01*
X19494Y-35230D01*
X19500Y-35235D01*
X19896Y-34839D01*
X19878Y-34711D01*
X19678Y-34623D01*
X19852Y-34555D01*
X19878Y-34538D01*
X19896Y-34410D01*
X19500Y-34014D01*
X19494Y-34019D01*
X19480Y-34005D01*
X19485Y-34000D01*
X19480Y-33994D01*
X19494Y-33980D01*
X19500Y-33985D01*
X19896Y-33589D01*
X19878Y-33461D01*
X19810Y-33431D01*
X19944Y-33297D01*
X20000Y-33164D01*
X20050Y-33285D01*
X20050Y-33638D01*
X20038Y-33621D01*
X19910Y-33603D01*
X19514Y-34000D01*
X19910Y-34396D01*
X20038Y-34378D01*
X20059Y-34330D01*
X20190Y-34462D01*
X20391Y-34545D01*
X20608Y-34545D01*
X20808Y-34462D01*
X20962Y-34309D01*
X21045Y-34108D01*
X21045Y-33891D01*
X20962Y-33691D01*
X20950Y-33678D01*
X20950Y-33310D01*
X20961Y-33341D01*
X20978Y-33366D01*
X21104Y-33381D01*
X21485Y-33000D01*
X21104Y-32618D01*
X20978Y-32633D01*
X20950Y-32698D01*
X20950Y-32436D01*
X21818Y-31568D01*
X21915Y-31422D01*
X21950Y-31250D01*
X21950Y-27285D01*
X22000Y-27164D01*
X22054Y-27297D01*
X22202Y-27444D01*
X22395Y-27524D01*
X22603Y-27525D01*
X22781Y-27451D01*
X22787Y-27462D01*
X23037Y-27712D01*
X23096Y-27751D01*
X23135Y-27777D01*
X23135Y-27777D01*
X23250Y-27800D01*
X24375Y-27800D01*
X24450Y-27874D01*
X24450Y-31375D01*
X24450Y-31375D01*
G37*
X24450Y-31375D02*
X24287Y-31537D01*
X24222Y-31635D01*
X24200Y-31750D01*
X24200Y-32125D01*
X23787Y-32537D01*
X23780Y-32548D01*
X23604Y-32475D01*
X23396Y-32474D01*
X23203Y-32554D01*
X23055Y-32702D01*
X22999Y-32835D01*
X22945Y-32703D01*
X22797Y-32555D01*
X22604Y-32475D01*
X22396Y-32474D01*
X22203Y-32554D01*
X22055Y-32702D01*
X22055Y-32702D01*
X22038Y-32658D01*
X22021Y-32633D01*
X21895Y-32618D01*
X21881Y-32632D01*
X21881Y-32604D01*
X21866Y-32478D01*
X21639Y-32378D01*
X21390Y-32372D01*
X21158Y-32461D01*
X21133Y-32478D01*
X21118Y-32604D01*
X21500Y-32985D01*
X21881Y-32604D01*
X21881Y-32632D01*
X21514Y-33000D01*
X21895Y-33381D01*
X22021Y-33366D01*
X22053Y-33293D01*
X22054Y-33297D01*
X22200Y-33442D01*
X22200Y-34125D01*
X22037Y-34287D01*
X21972Y-34385D01*
X21950Y-34500D01*
X21950Y-34822D01*
X21941Y-34826D01*
X21881Y-34885D01*
X21881Y-33395D01*
X21500Y-33014D01*
X21118Y-33395D01*
X21133Y-33521D01*
X21360Y-33621D01*
X21609Y-33627D01*
X21841Y-33538D01*
X21866Y-33521D01*
X21881Y-33395D01*
X21881Y-34885D01*
X21787Y-34979D01*
X21704Y-35180D01*
X21704Y-35397D01*
X21787Y-35597D01*
X21940Y-35751D01*
X22141Y-35834D01*
X22358Y-35834D01*
X22558Y-35751D01*
X22700Y-35610D01*
X22700Y-36336D01*
X22367Y-36669D01*
X22358Y-36665D01*
X22141Y-36665D01*
X21941Y-36748D01*
X21787Y-36901D01*
X21704Y-37102D01*
X21704Y-37319D01*
X21787Y-37519D01*
X21940Y-37673D01*
X22141Y-37756D01*
X22358Y-37756D01*
X22558Y-37673D01*
X22712Y-37520D01*
X22795Y-37319D01*
X22795Y-37102D01*
X22791Y-37093D01*
X23200Y-36685D01*
X23200Y-38125D01*
X22402Y-38923D01*
X22154Y-38813D01*
X21880Y-38806D01*
X21623Y-38905D01*
X21594Y-38925D01*
X21571Y-39057D01*
X22000Y-39485D01*
X22005Y-39480D01*
X22019Y-39494D01*
X22014Y-39500D01*
X22019Y-39505D01*
X22005Y-39519D01*
X22000Y-39514D01*
X21571Y-39942D01*
X21594Y-40074D01*
X21702Y-40122D01*
X21287Y-40537D01*
X21222Y-40635D01*
X21200Y-40750D01*
X21200Y-41051D01*
X21049Y-40965D01*
X20014Y-42000D01*
X21049Y-43034D01*
X21257Y-42916D01*
X21257Y-42916D01*
X21287Y-42962D01*
X21525Y-43200D01*
X20948Y-43200D01*
X21034Y-43049D01*
X20000Y-42014D01*
X19994Y-42019D01*
X19980Y-42005D01*
X19985Y-42000D01*
X19980Y-41994D01*
X19994Y-41980D01*
X20000Y-41985D01*
X21034Y-40950D01*
X20909Y-40731D01*
X20354Y-40479D01*
X19957Y-40466D01*
X20544Y-39879D01*
X20665Y-39999D01*
X20882Y-40089D01*
X21116Y-40090D01*
X21333Y-40000D01*
X21428Y-39905D01*
X21557Y-39928D01*
X21985Y-39500D01*
X21557Y-39071D01*
X21428Y-39094D01*
X21334Y-39000D01*
X21117Y-38910D01*
X20883Y-38909D01*
X20800Y-38944D01*
X20800Y-38624D01*
X20999Y-38424D01*
X21084Y-38425D01*
X21240Y-38360D01*
X21360Y-38241D01*
X21424Y-38084D01*
X21425Y-37915D01*
X21360Y-37759D01*
X21241Y-37639D01*
X21084Y-37575D01*
X20946Y-37574D01*
X20962Y-37559D01*
X21045Y-37358D01*
X21045Y-37141D01*
X21045Y-35141D01*
X20962Y-34941D01*
X20809Y-34787D01*
X20608Y-34704D01*
X20391Y-34704D01*
X20191Y-34787D01*
X20062Y-34915D01*
X20055Y-34897D01*
X20038Y-34871D01*
X19910Y-34853D01*
X19514Y-35250D01*
X19910Y-35646D01*
X20038Y-35628D01*
X20059Y-35580D01*
X20190Y-35712D01*
X20391Y-35795D01*
X20608Y-35795D01*
X20808Y-35712D01*
X20962Y-35559D01*
X21045Y-35358D01*
X21045Y-35141D01*
X21045Y-37141D01*
X20962Y-36941D01*
X20809Y-36787D01*
X20608Y-36704D01*
X20391Y-36704D01*
X20191Y-36787D01*
X20062Y-36915D01*
X20055Y-36897D01*
X20038Y-36871D01*
X19910Y-36853D01*
X19896Y-36867D01*
X19896Y-36839D01*
X19878Y-36711D01*
X19643Y-36607D01*
X19387Y-36601D01*
X19147Y-36694D01*
X19121Y-36711D01*
X19103Y-36839D01*
X19500Y-37235D01*
X19896Y-36839D01*
X19896Y-36867D01*
X19514Y-37250D01*
X19910Y-37646D01*
X20038Y-37628D01*
X20059Y-37580D01*
X20190Y-37712D01*
X20391Y-37795D01*
X20608Y-37795D01*
X20628Y-37787D01*
X20575Y-37915D01*
X20574Y-38000D01*
X20287Y-38287D01*
X20222Y-38385D01*
X20200Y-38500D01*
X20200Y-39375D01*
X19896Y-39679D01*
X19896Y-37660D01*
X19500Y-37264D01*
X19485Y-37278D01*
X19485Y-37250D01*
X19089Y-36853D01*
X18961Y-36871D01*
X18857Y-37106D01*
X18851Y-37362D01*
X18944Y-37602D01*
X18961Y-37628D01*
X19089Y-37646D01*
X19485Y-37250D01*
X19485Y-37278D01*
X19103Y-37660D01*
X19121Y-37788D01*
X19356Y-37892D01*
X19612Y-37898D01*
X19852Y-37805D01*
X19878Y-37788D01*
X19896Y-37660D01*
X19896Y-39679D01*
X18287Y-41287D01*
X18222Y-41385D01*
X18200Y-41500D01*
X18200Y-42525D01*
X17800Y-42125D01*
X17800Y-37624D01*
X19212Y-36212D01*
X19212Y-36212D01*
X19251Y-36153D01*
X19277Y-36114D01*
X19277Y-36114D01*
X19300Y-36000D01*
X19300Y-35867D01*
X19356Y-35892D01*
X19612Y-35898D01*
X19852Y-35805D01*
X19878Y-35788D01*
X19896Y-35660D01*
X19500Y-35264D01*
X19494Y-35269D01*
X19480Y-35255D01*
X19485Y-35250D01*
X19480Y-35244D01*
X19494Y-35230D01*
X19500Y-35235D01*
X19896Y-34839D01*
X19878Y-34711D01*
X19678Y-34623D01*
X19852Y-34555D01*
X19878Y-34538D01*
X19896Y-34410D01*
X19500Y-34014D01*
X19494Y-34019D01*
X19480Y-34005D01*
X19485Y-34000D01*
X19480Y-33994D01*
X19494Y-33980D01*
X19500Y-33985D01*
X19896Y-33589D01*
X19878Y-33461D01*
X19810Y-33431D01*
X19944Y-33297D01*
X20000Y-33164D01*
X20050Y-33285D01*
X20050Y-33638D01*
X20038Y-33621D01*
X19910Y-33603D01*
X19514Y-34000D01*
X19910Y-34396D01*
X20038Y-34378D01*
X20059Y-34330D01*
X20190Y-34462D01*
X20391Y-34545D01*
X20608Y-34545D01*
X20808Y-34462D01*
X20962Y-34309D01*
X21045Y-34108D01*
X21045Y-33891D01*
X20962Y-33691D01*
X20950Y-33678D01*
X20950Y-33310D01*
X20961Y-33341D01*
X20978Y-33366D01*
X21104Y-33381D01*
X21485Y-33000D01*
X21104Y-32618D01*
X20978Y-32633D01*
X20950Y-32698D01*
X20950Y-32436D01*
X21818Y-31568D01*
X21915Y-31422D01*
X21950Y-31250D01*
X21950Y-27285D01*
X22000Y-27164D01*
X22054Y-27297D01*
X22202Y-27444D01*
X22395Y-27524D01*
X22603Y-27525D01*
X22781Y-27451D01*
X22787Y-27462D01*
X23037Y-27712D01*
X23096Y-27751D01*
X23135Y-27777D01*
X23135Y-27777D01*
X23250Y-27800D01*
X24375Y-27800D01*
X24450Y-27874D01*
X24450Y-31375D01*
G36*
X24700Y-23622D02*
X24584Y-23575D01*
X24415Y-23574D01*
X24300Y-23622D01*
X24300Y-23500D01*
X24300Y-23374D01*
X24700Y-22974D01*
X24700Y-23622D01*
X24700Y-23622D01*
G37*
X24700Y-23622D02*
X24584Y-23575D01*
X24415Y-23574D01*
X24300Y-23622D01*
X24300Y-23500D01*
X24300Y-23374D01*
X24700Y-22974D01*
X24700Y-23622D01*
G36*
X25700Y-32375D02*
X25600Y-32475D01*
X25396Y-32474D01*
X25296Y-32515D01*
X25299Y-32500D01*
X25300Y-32500D01*
X25300Y-32051D01*
X25360Y-31991D01*
X25424Y-31834D01*
X25425Y-31665D01*
X25360Y-31509D01*
X25300Y-31448D01*
X25300Y-28877D01*
X25415Y-28924D01*
X25584Y-28925D01*
X25700Y-28877D01*
X25700Y-32375D01*
X25700Y-32375D01*
G37*
X25700Y-32375D02*
X25600Y-32475D01*
X25396Y-32474D01*
X25296Y-32515D01*
X25299Y-32500D01*
X25300Y-32500D01*
X25300Y-32051D01*
X25360Y-31991D01*
X25424Y-31834D01*
X25425Y-31665D01*
X25360Y-31509D01*
X25300Y-31448D01*
X25300Y-28877D01*
X25415Y-28924D01*
X25584Y-28925D01*
X25700Y-28877D01*
X25700Y-32375D01*
G36*
X25948Y-48800D02*
X22436Y-48800D01*
X22200Y-48563D01*
X22200Y-47250D01*
X22165Y-47077D01*
X22068Y-46931D01*
X21318Y-46181D01*
X21172Y-46084D01*
X21000Y-46050D01*
X19250Y-46050D01*
X19077Y-46084D01*
X18931Y-46181D01*
X18181Y-46931D01*
X18084Y-47077D01*
X18050Y-47250D01*
X18050Y-48050D01*
X16424Y-48050D01*
X16425Y-47999D01*
X16962Y-47462D01*
X17027Y-47364D01*
X17027Y-47364D01*
X17050Y-47250D01*
X17050Y-42874D01*
X17375Y-42549D01*
X18787Y-43962D01*
X18846Y-44001D01*
X18885Y-44027D01*
X18885Y-44027D01*
X19000Y-44050D01*
X21375Y-44050D01*
X24825Y-47499D01*
X24824Y-47584D01*
X24889Y-47740D01*
X25008Y-47860D01*
X25165Y-47924D01*
X25334Y-47925D01*
X25450Y-47877D01*
X25450Y-48000D01*
X25472Y-48114D01*
X25537Y-48212D01*
X25825Y-48499D01*
X25824Y-48584D01*
X25889Y-48740D01*
X25948Y-48800D01*
X25948Y-48800D01*
G37*
X25948Y-48800D02*
X22436Y-48800D01*
X22200Y-48563D01*
X22200Y-47250D01*
X22165Y-47077D01*
X22068Y-46931D01*
X21318Y-46181D01*
X21172Y-46084D01*
X21000Y-46050D01*
X19250Y-46050D01*
X19077Y-46084D01*
X18931Y-46181D01*
X18181Y-46931D01*
X18084Y-47077D01*
X18050Y-47250D01*
X18050Y-48050D01*
X16424Y-48050D01*
X16425Y-47999D01*
X16962Y-47462D01*
X17027Y-47364D01*
X17027Y-47364D01*
X17050Y-47250D01*
X17050Y-42874D01*
X17375Y-42549D01*
X18787Y-43962D01*
X18846Y-44001D01*
X18885Y-44027D01*
X18885Y-44027D01*
X19000Y-44050D01*
X21375Y-44050D01*
X24825Y-47499D01*
X24824Y-47584D01*
X24889Y-47740D01*
X25008Y-47860D01*
X25165Y-47924D01*
X25334Y-47925D01*
X25450Y-47877D01*
X25450Y-48000D01*
X25472Y-48114D01*
X25537Y-48212D01*
X25825Y-48499D01*
X25824Y-48584D01*
X25889Y-48740D01*
X25948Y-48800D01*
G36*
X26155Y-15579D02*
X26009Y-15639D01*
X25889Y-15758D01*
X25825Y-15915D01*
X25824Y-16075D01*
X25665Y-16074D01*
X25509Y-16139D01*
X25389Y-16258D01*
X25325Y-16415D01*
X25324Y-16500D01*
X25170Y-16655D01*
X25110Y-16509D01*
X24991Y-16389D01*
X24834Y-16325D01*
X24665Y-16324D01*
X24509Y-16389D01*
X24389Y-16508D01*
X24325Y-16665D01*
X24324Y-16834D01*
X24389Y-16990D01*
X24450Y-17051D01*
X24450Y-19250D01*
X24472Y-19364D01*
X24537Y-19462D01*
X24775Y-19700D01*
X24624Y-19700D01*
X23800Y-18875D01*
X23800Y-16874D01*
X24374Y-16300D01*
X24500Y-16300D01*
X24500Y-16299D01*
X24614Y-16277D01*
X24614Y-16277D01*
X24712Y-16212D01*
X25374Y-15550D01*
X26125Y-15550D01*
X26155Y-15579D01*
X26155Y-15579D01*
G37*
X26155Y-15579D02*
X26009Y-15639D01*
X25889Y-15758D01*
X25825Y-15915D01*
X25824Y-16075D01*
X25665Y-16074D01*
X25509Y-16139D01*
X25389Y-16258D01*
X25325Y-16415D01*
X25324Y-16500D01*
X25170Y-16655D01*
X25110Y-16509D01*
X24991Y-16389D01*
X24834Y-16325D01*
X24665Y-16324D01*
X24509Y-16389D01*
X24389Y-16508D01*
X24325Y-16665D01*
X24324Y-16834D01*
X24389Y-16990D01*
X24450Y-17051D01*
X24450Y-19250D01*
X24472Y-19364D01*
X24537Y-19462D01*
X24775Y-19700D01*
X24624Y-19700D01*
X23800Y-18875D01*
X23800Y-16874D01*
X24374Y-16300D01*
X24500Y-16300D01*
X24500Y-16299D01*
X24614Y-16277D01*
X24614Y-16277D01*
X24712Y-16212D01*
X25374Y-15550D01*
X26125Y-15550D01*
X26155Y-15579D01*
G36*
X26328Y-33497D02*
X25787Y-34037D01*
X25722Y-34135D01*
X25700Y-34250D01*
X25700Y-38910D01*
X25610Y-38910D01*
X25518Y-38948D01*
X25448Y-39018D01*
X25420Y-39085D01*
X25334Y-39000D01*
X25117Y-38910D01*
X24883Y-38909D01*
X24666Y-38999D01*
X24500Y-39165D01*
X24499Y-39165D01*
X24450Y-39115D01*
X24450Y-35572D01*
X24621Y-35643D01*
X24877Y-35643D01*
X25114Y-35545D01*
X25295Y-35364D01*
X25393Y-35128D01*
X25393Y-34872D01*
X25295Y-34635D01*
X25114Y-34454D01*
X24878Y-34356D01*
X24622Y-34356D01*
X24385Y-34454D01*
X24363Y-34476D01*
X24255Y-34368D01*
X24089Y-34300D01*
X23910Y-34299D01*
X23848Y-34325D01*
X24212Y-33962D01*
X24212Y-33962D01*
X24277Y-33864D01*
X24299Y-33750D01*
X24300Y-33750D01*
X24300Y-33485D01*
X24395Y-33524D01*
X24603Y-33525D01*
X24797Y-33445D01*
X24944Y-33297D01*
X25000Y-33164D01*
X25054Y-33297D01*
X25202Y-33444D01*
X25395Y-33524D01*
X25603Y-33525D01*
X25797Y-33445D01*
X25944Y-33297D01*
X26000Y-33164D01*
X26054Y-33297D01*
X26202Y-33444D01*
X26328Y-33497D01*
X26328Y-33497D01*
G37*
X26328Y-33497D02*
X25787Y-34037D01*
X25722Y-34135D01*
X25700Y-34250D01*
X25700Y-38910D01*
X25610Y-38910D01*
X25518Y-38948D01*
X25448Y-39018D01*
X25420Y-39085D01*
X25334Y-39000D01*
X25117Y-38910D01*
X24883Y-38909D01*
X24666Y-38999D01*
X24500Y-39165D01*
X24499Y-39165D01*
X24450Y-39115D01*
X24450Y-35572D01*
X24621Y-35643D01*
X24877Y-35643D01*
X25114Y-35545D01*
X25295Y-35364D01*
X25393Y-35128D01*
X25393Y-34872D01*
X25295Y-34635D01*
X25114Y-34454D01*
X24878Y-34356D01*
X24622Y-34356D01*
X24385Y-34454D01*
X24363Y-34476D01*
X24255Y-34368D01*
X24089Y-34300D01*
X23910Y-34299D01*
X23848Y-34325D01*
X24212Y-33962D01*
X24212Y-33962D01*
X24277Y-33864D01*
X24299Y-33750D01*
X24300Y-33750D01*
X24300Y-33485D01*
X24395Y-33524D01*
X24603Y-33525D01*
X24797Y-33445D01*
X24944Y-33297D01*
X25000Y-33164D01*
X25054Y-33297D01*
X25202Y-33444D01*
X25395Y-33524D01*
X25603Y-33525D01*
X25797Y-33445D01*
X25944Y-33297D01*
X26000Y-33164D01*
X26054Y-33297D01*
X26202Y-33444D01*
X26328Y-33497D01*
G36*
X26700Y-24872D02*
X26584Y-24825D01*
X26415Y-24824D01*
X26300Y-24872D01*
X26300Y-24374D01*
X26450Y-24224D01*
X26450Y-24250D01*
X26472Y-24364D01*
X26537Y-24462D01*
X26700Y-24624D01*
X26700Y-24872D01*
X26700Y-24872D01*
G37*
X26700Y-24872D02*
X26584Y-24825D01*
X26415Y-24824D01*
X26300Y-24872D01*
X26300Y-24374D01*
X26450Y-24224D01*
X26450Y-24250D01*
X26472Y-24364D01*
X26537Y-24462D01*
X26700Y-24624D01*
X26700Y-24872D01*
G36*
X26700Y-32514D02*
X26604Y-32475D01*
X26396Y-32474D01*
X26296Y-32515D01*
X26299Y-32500D01*
X26300Y-32500D01*
X26300Y-27485D01*
X26395Y-27524D01*
X26603Y-27525D01*
X26700Y-27485D01*
X26700Y-31698D01*
X26639Y-31758D01*
X26575Y-31915D01*
X26574Y-32084D01*
X26639Y-32240D01*
X26700Y-32301D01*
X26700Y-32514D01*
X26700Y-32514D01*
G37*
X26700Y-32514D02*
X26604Y-32475D01*
X26396Y-32474D01*
X26296Y-32515D01*
X26299Y-32500D01*
X26300Y-32500D01*
X26300Y-27485D01*
X26395Y-27524D01*
X26603Y-27525D01*
X26700Y-27485D01*
X26700Y-31698D01*
X26639Y-31758D01*
X26575Y-31915D01*
X26574Y-32084D01*
X26639Y-32240D01*
X26700Y-32301D01*
X26700Y-32514D01*
G36*
X26950Y-21872D02*
X26834Y-21825D01*
X26665Y-21824D01*
X26509Y-21889D01*
X26389Y-22008D01*
X26325Y-22165D01*
X26324Y-22334D01*
X26389Y-22490D01*
X26450Y-22551D01*
X26450Y-23125D01*
X26287Y-23287D01*
X26222Y-23385D01*
X26200Y-23500D01*
X26200Y-23625D01*
X25800Y-24025D01*
X25800Y-21624D01*
X26212Y-21212D01*
X26212Y-21212D01*
X26277Y-21114D01*
X26296Y-21015D01*
X26296Y-21015D01*
X26328Y-21002D01*
X26950Y-21624D01*
X26950Y-21872D01*
X26950Y-21872D01*
G37*
X26950Y-21872D02*
X26834Y-21825D01*
X26665Y-21824D01*
X26509Y-21889D01*
X26389Y-22008D01*
X26325Y-22165D01*
X26324Y-22334D01*
X26389Y-22490D01*
X26450Y-22551D01*
X26450Y-23125D01*
X26287Y-23287D01*
X26222Y-23385D01*
X26200Y-23500D01*
X26200Y-23625D01*
X25800Y-24025D01*
X25800Y-21624D01*
X26212Y-21212D01*
X26212Y-21212D01*
X26277Y-21114D01*
X26296Y-21015D01*
X26296Y-21015D01*
X26328Y-21002D01*
X26950Y-21624D01*
X26950Y-21872D01*
G36*
X27703Y-32515D02*
X27604Y-32475D01*
X27396Y-32474D01*
X27300Y-32514D01*
X27300Y-32301D01*
X27360Y-32241D01*
X27424Y-32084D01*
X27425Y-31915D01*
X27360Y-31759D01*
X27300Y-31698D01*
X27300Y-27485D01*
X27395Y-27524D01*
X27603Y-27525D01*
X27700Y-27485D01*
X27700Y-30948D01*
X27639Y-31008D01*
X27575Y-31165D01*
X27574Y-31334D01*
X27639Y-31490D01*
X27700Y-31551D01*
X27700Y-32500D01*
X27703Y-32515D01*
X27703Y-32515D01*
G37*
X27703Y-32515D02*
X27604Y-32475D01*
X27396Y-32474D01*
X27300Y-32514D01*
X27300Y-32301D01*
X27360Y-32241D01*
X27424Y-32084D01*
X27425Y-31915D01*
X27360Y-31759D01*
X27300Y-31698D01*
X27300Y-27485D01*
X27395Y-27524D01*
X27603Y-27525D01*
X27700Y-27485D01*
X27700Y-30948D01*
X27639Y-31008D01*
X27575Y-31165D01*
X27574Y-31334D01*
X27639Y-31490D01*
X27700Y-31551D01*
X27700Y-32500D01*
X27703Y-32515D01*
G36*
X27801Y-40937D02*
X27774Y-40943D01*
X27582Y-41071D01*
X27577Y-41079D01*
X27551Y-41018D01*
X27481Y-40948D01*
X27389Y-40910D01*
X27290Y-40910D01*
X26610Y-40910D01*
X26518Y-40948D01*
X26448Y-41018D01*
X26410Y-41110D01*
X26410Y-41209D01*
X26410Y-41273D01*
X25194Y-40058D01*
X25333Y-40000D01*
X25420Y-39914D01*
X25448Y-39981D01*
X25518Y-40051D01*
X25610Y-40090D01*
X25709Y-40090D01*
X26389Y-40090D01*
X26481Y-40051D01*
X26551Y-39981D01*
X26590Y-39889D01*
X26590Y-39790D01*
X26590Y-39110D01*
X26551Y-39018D01*
X26481Y-38948D01*
X26389Y-38910D01*
X26300Y-38910D01*
X26300Y-34374D01*
X27212Y-33462D01*
X27212Y-33462D01*
X27219Y-33451D01*
X27395Y-33524D01*
X27574Y-33525D01*
X27574Y-33584D01*
X27639Y-33740D01*
X27700Y-33801D01*
X27700Y-38750D01*
X27722Y-38864D01*
X27781Y-38952D01*
X27666Y-38999D01*
X27500Y-39165D01*
X27410Y-39382D01*
X27409Y-39616D01*
X27499Y-39833D01*
X27522Y-39857D01*
X27495Y-39868D01*
X27368Y-39994D01*
X27300Y-40160D01*
X27299Y-40339D01*
X27368Y-40504D01*
X27494Y-40631D01*
X27494Y-40631D01*
X27801Y-40937D01*
X27801Y-40937D01*
G37*
X27801Y-40937D02*
X27774Y-40943D01*
X27582Y-41071D01*
X27577Y-41079D01*
X27551Y-41018D01*
X27481Y-40948D01*
X27389Y-40910D01*
X27290Y-40910D01*
X26610Y-40910D01*
X26518Y-40948D01*
X26448Y-41018D01*
X26410Y-41110D01*
X26410Y-41209D01*
X26410Y-41273D01*
X25194Y-40058D01*
X25333Y-40000D01*
X25420Y-39914D01*
X25448Y-39981D01*
X25518Y-40051D01*
X25610Y-40090D01*
X25709Y-40090D01*
X26389Y-40090D01*
X26481Y-40051D01*
X26551Y-39981D01*
X26590Y-39889D01*
X26590Y-39790D01*
X26590Y-39110D01*
X26551Y-39018D01*
X26481Y-38948D01*
X26389Y-38910D01*
X26300Y-38910D01*
X26300Y-34374D01*
X27212Y-33462D01*
X27212Y-33462D01*
X27219Y-33451D01*
X27395Y-33524D01*
X27574Y-33525D01*
X27574Y-33584D01*
X27639Y-33740D01*
X27700Y-33801D01*
X27700Y-38750D01*
X27722Y-38864D01*
X27781Y-38952D01*
X27666Y-38999D01*
X27500Y-39165D01*
X27410Y-39382D01*
X27409Y-39616D01*
X27499Y-39833D01*
X27522Y-39857D01*
X27495Y-39868D01*
X27368Y-39994D01*
X27300Y-40160D01*
X27299Y-40339D01*
X27368Y-40504D01*
X27494Y-40631D01*
X27494Y-40631D01*
X27801Y-40937D01*
G36*
X27999Y-24825D02*
X27787Y-25037D01*
X27722Y-25135D01*
X27700Y-25250D01*
X27700Y-25372D01*
X27584Y-25325D01*
X27415Y-25324D01*
X27300Y-25372D01*
X27300Y-24613D01*
X27371Y-24643D01*
X27627Y-24643D01*
X27864Y-24545D01*
X27999Y-24410D01*
X27999Y-24825D01*
X27999Y-24825D01*
G37*
X27999Y-24825D02*
X27787Y-25037D01*
X27722Y-25135D01*
X27700Y-25250D01*
X27700Y-25372D01*
X27584Y-25325D01*
X27415Y-25324D01*
X27300Y-25372D01*
X27300Y-24613D01*
X27371Y-24643D01*
X27627Y-24643D01*
X27864Y-24545D01*
X27999Y-24410D01*
X27999Y-24825D01*
G36*
X28017Y-43510D02*
X28010Y-43510D01*
X28010Y-43517D01*
X27990Y-43517D01*
X27990Y-43510D01*
X27602Y-43510D01*
X27397Y-43510D01*
X27010Y-43510D01*
X27010Y-43517D01*
X26990Y-43517D01*
X26990Y-43510D01*
X26397Y-43510D01*
X26320Y-43617D01*
X26351Y-43700D01*
X26051Y-43700D01*
X25991Y-43639D01*
X25834Y-43575D01*
X25665Y-43574D01*
X25509Y-43639D01*
X25389Y-43758D01*
X25325Y-43915D01*
X25324Y-44084D01*
X25389Y-44240D01*
X25508Y-44360D01*
X25665Y-44424D01*
X25834Y-44425D01*
X25990Y-44360D01*
X26051Y-44300D01*
X26447Y-44300D01*
X26410Y-44488D01*
X26410Y-44511D01*
X26447Y-44700D01*
X26051Y-44700D01*
X25991Y-44639D01*
X25834Y-44575D01*
X25665Y-44574D01*
X25509Y-44639D01*
X25389Y-44758D01*
X25325Y-44915D01*
X25324Y-45084D01*
X25389Y-45240D01*
X25508Y-45360D01*
X25665Y-45424D01*
X25834Y-45425D01*
X25990Y-45360D01*
X26051Y-45300D01*
X26447Y-45300D01*
X26410Y-45488D01*
X26410Y-45511D01*
X26447Y-45700D01*
X26051Y-45700D01*
X25991Y-45639D01*
X25834Y-45575D01*
X25665Y-45574D01*
X25509Y-45639D01*
X25389Y-45758D01*
X25325Y-45915D01*
X25324Y-46084D01*
X25389Y-46240D01*
X25508Y-46360D01*
X25665Y-46424D01*
X25834Y-46425D01*
X25990Y-46360D01*
X26051Y-46300D01*
X26447Y-46300D01*
X26410Y-46488D01*
X26410Y-46511D01*
X26447Y-46700D01*
X26051Y-46700D01*
X25991Y-46639D01*
X25834Y-46575D01*
X25665Y-46574D01*
X25509Y-46639D01*
X25411Y-46737D01*
X23474Y-44800D01*
X24448Y-44800D01*
X24508Y-44860D01*
X24665Y-44924D01*
X24834Y-44925D01*
X24990Y-44860D01*
X25110Y-44741D01*
X25174Y-44584D01*
X25175Y-44415D01*
X25110Y-44259D01*
X24991Y-44139D01*
X24834Y-44075D01*
X24665Y-44074D01*
X24509Y-44139D01*
X24448Y-44200D01*
X23374Y-44200D01*
X22302Y-43128D01*
X22415Y-43174D01*
X22584Y-43175D01*
X22740Y-43110D01*
X22860Y-42991D01*
X22924Y-42834D01*
X22925Y-42665D01*
X22860Y-42509D01*
X22800Y-42448D01*
X22800Y-41301D01*
X22860Y-41241D01*
X22924Y-41084D01*
X22925Y-40915D01*
X22860Y-40759D01*
X22741Y-40639D01*
X22584Y-40575D01*
X22415Y-40574D01*
X22391Y-40584D01*
X22360Y-40509D01*
X22262Y-40411D01*
X22597Y-40076D01*
X22845Y-40186D01*
X23119Y-40193D01*
X23376Y-40094D01*
X23405Y-40074D01*
X23428Y-39942D01*
X23000Y-39514D01*
X22994Y-39519D01*
X22980Y-39505D01*
X22985Y-39500D01*
X22980Y-39494D01*
X22994Y-39480D01*
X23000Y-39485D01*
X23428Y-39057D01*
X23405Y-38925D01*
X23297Y-38877D01*
X23550Y-38624D01*
X23550Y-39090D01*
X23442Y-39071D01*
X23014Y-39500D01*
X23442Y-39928D01*
X23571Y-39905D01*
X23583Y-39917D01*
X23584Y-39922D01*
X23681Y-40068D01*
X23827Y-40165D01*
X24000Y-40200D01*
X24053Y-40189D01*
X25800Y-41936D01*
X25800Y-42000D01*
X25834Y-42172D01*
X25931Y-42318D01*
X26313Y-42700D01*
X26175Y-42700D01*
X26175Y-42665D01*
X26110Y-42509D01*
X25991Y-42389D01*
X25834Y-42325D01*
X25665Y-42324D01*
X25509Y-42389D01*
X25389Y-42508D01*
X25325Y-42665D01*
X25324Y-42834D01*
X25389Y-42990D01*
X25508Y-43110D01*
X25665Y-43174D01*
X25750Y-43175D01*
X25787Y-43212D01*
X25846Y-43251D01*
X25885Y-43277D01*
X25885Y-43277D01*
X26000Y-43300D01*
X26351Y-43300D01*
X26320Y-43382D01*
X26397Y-43490D01*
X26990Y-43490D01*
X26990Y-43482D01*
X27010Y-43482D01*
X27010Y-43490D01*
X27397Y-43490D01*
X27602Y-43490D01*
X27990Y-43490D01*
X27990Y-43482D01*
X28010Y-43482D01*
X28010Y-43490D01*
X28017Y-43490D01*
X28017Y-43510D01*
X28017Y-43510D01*
G37*
X28017Y-43510D02*
X28010Y-43510D01*
X28010Y-43517D01*
X27990Y-43517D01*
X27990Y-43510D01*
X27602Y-43510D01*
X27397Y-43510D01*
X27010Y-43510D01*
X27010Y-43517D01*
X26990Y-43517D01*
X26990Y-43510D01*
X26397Y-43510D01*
X26320Y-43617D01*
X26351Y-43700D01*
X26051Y-43700D01*
X25991Y-43639D01*
X25834Y-43575D01*
X25665Y-43574D01*
X25509Y-43639D01*
X25389Y-43758D01*
X25325Y-43915D01*
X25324Y-44084D01*
X25389Y-44240D01*
X25508Y-44360D01*
X25665Y-44424D01*
X25834Y-44425D01*
X25990Y-44360D01*
X26051Y-44300D01*
X26447Y-44300D01*
X26410Y-44488D01*
X26410Y-44511D01*
X26447Y-44700D01*
X26051Y-44700D01*
X25991Y-44639D01*
X25834Y-44575D01*
X25665Y-44574D01*
X25509Y-44639D01*
X25389Y-44758D01*
X25325Y-44915D01*
X25324Y-45084D01*
X25389Y-45240D01*
X25508Y-45360D01*
X25665Y-45424D01*
X25834Y-45425D01*
X25990Y-45360D01*
X26051Y-45300D01*
X26447Y-45300D01*
X26410Y-45488D01*
X26410Y-45511D01*
X26447Y-45700D01*
X26051Y-45700D01*
X25991Y-45639D01*
X25834Y-45575D01*
X25665Y-45574D01*
X25509Y-45639D01*
X25389Y-45758D01*
X25325Y-45915D01*
X25324Y-46084D01*
X25389Y-46240D01*
X25508Y-46360D01*
X25665Y-46424D01*
X25834Y-46425D01*
X25990Y-46360D01*
X26051Y-46300D01*
X26447Y-46300D01*
X26410Y-46488D01*
X26410Y-46511D01*
X26447Y-46700D01*
X26051Y-46700D01*
X25991Y-46639D01*
X25834Y-46575D01*
X25665Y-46574D01*
X25509Y-46639D01*
X25411Y-46737D01*
X23474Y-44800D01*
X24448Y-44800D01*
X24508Y-44860D01*
X24665Y-44924D01*
X24834Y-44925D01*
X24990Y-44860D01*
X25110Y-44741D01*
X25174Y-44584D01*
X25175Y-44415D01*
X25110Y-44259D01*
X24991Y-44139D01*
X24834Y-44075D01*
X24665Y-44074D01*
X24509Y-44139D01*
X24448Y-44200D01*
X23374Y-44200D01*
X22302Y-43128D01*
X22415Y-43174D01*
X22584Y-43175D01*
X22740Y-43110D01*
X22860Y-42991D01*
X22924Y-42834D01*
X22925Y-42665D01*
X22860Y-42509D01*
X22800Y-42448D01*
X22800Y-41301D01*
X22860Y-41241D01*
X22924Y-41084D01*
X22925Y-40915D01*
X22860Y-40759D01*
X22741Y-40639D01*
X22584Y-40575D01*
X22415Y-40574D01*
X22391Y-40584D01*
X22360Y-40509D01*
X22262Y-40411D01*
X22597Y-40076D01*
X22845Y-40186D01*
X23119Y-40193D01*
X23376Y-40094D01*
X23405Y-40074D01*
X23428Y-39942D01*
X23000Y-39514D01*
X22994Y-39519D01*
X22980Y-39505D01*
X22985Y-39500D01*
X22980Y-39494D01*
X22994Y-39480D01*
X23000Y-39485D01*
X23428Y-39057D01*
X23405Y-38925D01*
X23297Y-38877D01*
X23550Y-38624D01*
X23550Y-39090D01*
X23442Y-39071D01*
X23014Y-39500D01*
X23442Y-39928D01*
X23571Y-39905D01*
X23583Y-39917D01*
X23584Y-39922D01*
X23681Y-40068D01*
X23827Y-40165D01*
X24000Y-40200D01*
X24053Y-40189D01*
X25800Y-41936D01*
X25800Y-42000D01*
X25834Y-42172D01*
X25931Y-42318D01*
X26313Y-42700D01*
X26175Y-42700D01*
X26175Y-42665D01*
X26110Y-42509D01*
X25991Y-42389D01*
X25834Y-42325D01*
X25665Y-42324D01*
X25509Y-42389D01*
X25389Y-42508D01*
X25325Y-42665D01*
X25324Y-42834D01*
X25389Y-42990D01*
X25508Y-43110D01*
X25665Y-43174D01*
X25750Y-43175D01*
X25787Y-43212D01*
X25846Y-43251D01*
X25885Y-43277D01*
X25885Y-43277D01*
X26000Y-43300D01*
X26351Y-43300D01*
X26320Y-43382D01*
X26397Y-43490D01*
X26990Y-43490D01*
X26990Y-43482D01*
X27010Y-43482D01*
X27010Y-43490D01*
X27397Y-43490D01*
X27602Y-43490D01*
X27990Y-43490D01*
X27990Y-43482D01*
X28010Y-43482D01*
X28010Y-43490D01*
X28017Y-43490D01*
X28017Y-43510D01*
G36*
X29200Y-34539D02*
X29114Y-34454D01*
X28878Y-34356D01*
X28622Y-34356D01*
X28385Y-34454D01*
X28300Y-34539D01*
X28300Y-33801D01*
X28360Y-33741D01*
X28424Y-33584D01*
X28424Y-33524D01*
X28603Y-33525D01*
X28781Y-33451D01*
X28787Y-33462D01*
X29200Y-33874D01*
X29200Y-34539D01*
X29200Y-34539D01*
G37*
X29200Y-34539D02*
X29114Y-34454D01*
X28878Y-34356D01*
X28622Y-34356D01*
X28385Y-34454D01*
X28300Y-34539D01*
X28300Y-33801D01*
X28360Y-33741D01*
X28424Y-33584D01*
X28424Y-33524D01*
X28603Y-33525D01*
X28781Y-33451D01*
X28787Y-33462D01*
X29200Y-33874D01*
X29200Y-34539D01*
G36*
X29229Y-10400D02*
X29181Y-10431D01*
X28563Y-11050D01*
X28385Y-11050D01*
X28225Y-10943D01*
X28000Y-10898D01*
X27774Y-10943D01*
X27582Y-11071D01*
X27500Y-11195D01*
X27417Y-11071D01*
X27225Y-10943D01*
X27000Y-10898D01*
X26774Y-10943D01*
X26582Y-11071D01*
X26454Y-11262D01*
X26410Y-11488D01*
X26410Y-11511D01*
X26430Y-11614D01*
X26334Y-11575D01*
X26165Y-11574D01*
X26009Y-11639D01*
X25889Y-11758D01*
X25825Y-11915D01*
X25824Y-12084D01*
X25889Y-12240D01*
X26008Y-12360D01*
X26165Y-12424D01*
X26334Y-12425D01*
X26430Y-12385D01*
X26410Y-12488D01*
X26410Y-12511D01*
X26447Y-12700D01*
X25801Y-12700D01*
X25741Y-12639D01*
X25584Y-12575D01*
X25415Y-12574D01*
X25259Y-12639D01*
X25139Y-12758D01*
X25075Y-12915D01*
X25074Y-13084D01*
X25139Y-13240D01*
X25258Y-13360D01*
X25415Y-13424D01*
X25584Y-13425D01*
X25740Y-13360D01*
X25801Y-13300D01*
X26447Y-13300D01*
X26410Y-13488D01*
X26410Y-13511D01*
X26430Y-13614D01*
X26334Y-13575D01*
X26165Y-13574D01*
X26009Y-13639D01*
X25889Y-13758D01*
X25825Y-13915D01*
X25824Y-14084D01*
X25889Y-14240D01*
X26008Y-14360D01*
X26165Y-14424D01*
X26334Y-14425D01*
X26430Y-14385D01*
X26410Y-14488D01*
X26410Y-14511D01*
X26447Y-14700D01*
X24627Y-14700D01*
X24674Y-14584D01*
X24675Y-14415D01*
X24610Y-14259D01*
X24491Y-14139D01*
X24334Y-14075D01*
X24165Y-14074D01*
X24009Y-14139D01*
X23948Y-14200D01*
X23750Y-14200D01*
X23635Y-14222D01*
X23537Y-14287D01*
X22800Y-15025D01*
X22800Y-14425D01*
X22834Y-14425D01*
X22990Y-14360D01*
X23110Y-14241D01*
X23174Y-14084D01*
X23175Y-13915D01*
X23110Y-13759D01*
X23101Y-13750D01*
X23110Y-13741D01*
X23174Y-13584D01*
X23175Y-13415D01*
X23110Y-13259D01*
X22991Y-13139D01*
X22845Y-13079D01*
X23047Y-12876D01*
X23165Y-12924D01*
X23334Y-12925D01*
X23490Y-12860D01*
X23610Y-12741D01*
X23674Y-12584D01*
X23675Y-12415D01*
X23610Y-12259D01*
X23491Y-12139D01*
X23334Y-12075D01*
X23165Y-12074D01*
X23009Y-12139D01*
X22936Y-12212D01*
X22885Y-12222D01*
X22787Y-12287D01*
X21787Y-13287D01*
X21722Y-13385D01*
X21700Y-13500D01*
X21700Y-17875D01*
X21697Y-17877D01*
X21697Y-11635D01*
X21483Y-11065D01*
X21426Y-10980D01*
X21206Y-10854D01*
X20171Y-11889D01*
X21206Y-12924D01*
X21426Y-12799D01*
X21677Y-12244D01*
X21697Y-11635D01*
X21697Y-17877D01*
X21530Y-18045D01*
X21540Y-17745D01*
X21325Y-17175D01*
X21268Y-17090D01*
X21192Y-17046D01*
X21192Y-12938D01*
X20157Y-11903D01*
X20143Y-11918D01*
X20143Y-11889D01*
X19108Y-10854D01*
X18888Y-10980D01*
X18637Y-11535D01*
X18617Y-12143D01*
X18831Y-12713D01*
X18888Y-12799D01*
X19108Y-12924D01*
X20143Y-11889D01*
X20143Y-11918D01*
X19122Y-12938D01*
X19247Y-13158D01*
X19802Y-13410D01*
X20411Y-13430D01*
X20981Y-13215D01*
X21066Y-13158D01*
X21192Y-12938D01*
X21192Y-17046D01*
X21049Y-16965D01*
X21034Y-16979D01*
X21034Y-16950D01*
X20909Y-16731D01*
X20354Y-16479D01*
X19745Y-16459D01*
X19175Y-16674D01*
X19090Y-16731D01*
X18965Y-16950D01*
X20000Y-17985D01*
X21034Y-16950D01*
X21034Y-16979D01*
X20014Y-18000D01*
X20019Y-18005D01*
X20005Y-18019D01*
X20000Y-18014D01*
X19985Y-18028D01*
X19985Y-18000D01*
X18950Y-16965D01*
X18731Y-17090D01*
X18479Y-17645D01*
X18459Y-18254D01*
X18674Y-18824D01*
X18731Y-18909D01*
X18950Y-19034D01*
X19985Y-18000D01*
X19985Y-18028D01*
X18965Y-19049D01*
X19090Y-19268D01*
X19645Y-19520D01*
X20042Y-19533D01*
X19622Y-19953D01*
X19517Y-19910D01*
X19283Y-19909D01*
X19066Y-19999D01*
X18971Y-20094D01*
X18842Y-20071D01*
X18828Y-20085D01*
X18828Y-20057D01*
X18805Y-19925D01*
X18554Y-19813D01*
X18280Y-19806D01*
X18023Y-19905D01*
X17994Y-19925D01*
X17971Y-20057D01*
X18400Y-20485D01*
X18828Y-20057D01*
X18828Y-20085D01*
X18414Y-20500D01*
X18842Y-20928D01*
X18971Y-20905D01*
X19065Y-20999D01*
X19100Y-21014D01*
X19100Y-23400D01*
X19122Y-23514D01*
X19187Y-23612D01*
X19537Y-23962D01*
X19635Y-24027D01*
X19635Y-24027D01*
X19750Y-24050D01*
X20250Y-24050D01*
X20250Y-24049D01*
X20364Y-24027D01*
X20364Y-24027D01*
X20462Y-23962D01*
X20700Y-23724D01*
X20700Y-25382D01*
X20643Y-25357D01*
X20387Y-25351D01*
X20147Y-25444D01*
X20121Y-25461D01*
X20103Y-25589D01*
X20500Y-25985D01*
X20505Y-25980D01*
X20519Y-25994D01*
X20514Y-26000D01*
X20519Y-26005D01*
X20505Y-26019D01*
X20500Y-26014D01*
X20485Y-26028D01*
X20485Y-26000D01*
X20089Y-25603D01*
X19961Y-25621D01*
X19857Y-25856D01*
X19851Y-26112D01*
X19944Y-26352D01*
X19961Y-26378D01*
X20089Y-26396D01*
X20485Y-26000D01*
X20485Y-26028D01*
X20103Y-26410D01*
X20121Y-26538D01*
X20126Y-26540D01*
X20118Y-26604D01*
X20500Y-26985D01*
X20505Y-26980D01*
X20519Y-26994D01*
X20514Y-27000D01*
X20519Y-27005D01*
X20505Y-27019D01*
X20500Y-27014D01*
X20118Y-27395D01*
X20133Y-27521D01*
X20360Y-27621D01*
X20609Y-27627D01*
X20700Y-27592D01*
X20700Y-30000D01*
X20700Y-30198D01*
X20639Y-30258D01*
X20575Y-30415D01*
X20574Y-30500D01*
X20537Y-30537D01*
X19875Y-31200D01*
X18750Y-31200D01*
X18635Y-31222D01*
X18596Y-31248D01*
X18537Y-31287D01*
X18300Y-31525D01*
X18300Y-31051D01*
X18360Y-30991D01*
X18424Y-30834D01*
X18425Y-30665D01*
X18360Y-30509D01*
X18262Y-30411D01*
X18499Y-30174D01*
X18584Y-30175D01*
X18740Y-30110D01*
X18860Y-29991D01*
X18924Y-29834D01*
X18925Y-29749D01*
X19212Y-29462D01*
X19212Y-29462D01*
X19277Y-29364D01*
X19299Y-29250D01*
X19300Y-29250D01*
X19300Y-29000D01*
X19300Y-27485D01*
X19395Y-27524D01*
X19603Y-27525D01*
X19797Y-27445D01*
X19944Y-27297D01*
X19944Y-27297D01*
X19961Y-27341D01*
X19978Y-27366D01*
X20104Y-27381D01*
X20485Y-27000D01*
X20104Y-26618D01*
X19978Y-26633D01*
X19946Y-26706D01*
X19945Y-26703D01*
X19800Y-26557D01*
X19800Y-26500D01*
X19777Y-26385D01*
X19712Y-26287D01*
X18828Y-25404D01*
X18828Y-20942D01*
X18400Y-20514D01*
X17971Y-20942D01*
X17994Y-21074D01*
X18245Y-21186D01*
X18519Y-21193D01*
X18776Y-21094D01*
X18805Y-21074D01*
X18828Y-20942D01*
X18828Y-25404D01*
X18550Y-25125D01*
X18550Y-22500D01*
X18527Y-22385D01*
X18462Y-22287D01*
X17700Y-21525D01*
X17700Y-21014D01*
X17733Y-21000D01*
X17828Y-20905D01*
X17957Y-20928D01*
X18385Y-20500D01*
X17957Y-20071D01*
X17828Y-20094D01*
X17734Y-20000D01*
X17700Y-19985D01*
X17700Y-15650D01*
X17677Y-15535D01*
X17674Y-15531D01*
X17675Y-15415D01*
X17610Y-15259D01*
X17491Y-15139D01*
X17334Y-15075D01*
X17165Y-15074D01*
X17009Y-15139D01*
X16889Y-15258D01*
X16825Y-15415D01*
X16824Y-15584D01*
X16889Y-15740D01*
X17008Y-15860D01*
X17100Y-15897D01*
X17100Y-18229D01*
X17068Y-18181D01*
X16068Y-17182D01*
X16005Y-17118D01*
X15839Y-17050D01*
X15660Y-17049D01*
X15550Y-17095D01*
X15550Y-15374D01*
X16212Y-14712D01*
X16277Y-14614D01*
X16277Y-14614D01*
X16300Y-14500D01*
X16300Y-12301D01*
X16360Y-12241D01*
X16424Y-12084D01*
X16425Y-11915D01*
X16360Y-11759D01*
X16241Y-11639D01*
X16084Y-11575D01*
X15915Y-11574D01*
X15759Y-11639D01*
X15639Y-11758D01*
X15575Y-11915D01*
X15574Y-12075D01*
X15415Y-12074D01*
X15259Y-12139D01*
X15139Y-12258D01*
X15075Y-12415D01*
X15074Y-12584D01*
X15139Y-12740D01*
X15200Y-12801D01*
X15200Y-13122D01*
X15084Y-13075D01*
X14915Y-13074D01*
X14759Y-13139D01*
X14639Y-13258D01*
X14575Y-13415D01*
X14574Y-13584D01*
X14639Y-13740D01*
X14700Y-13801D01*
X14700Y-14122D01*
X14584Y-14075D01*
X14415Y-14074D01*
X14259Y-14139D01*
X14139Y-14258D01*
X14075Y-14415D01*
X14074Y-14584D01*
X14139Y-14740D01*
X14200Y-14801D01*
X14200Y-18500D01*
X14222Y-18614D01*
X14287Y-18712D01*
X14721Y-19146D01*
X14354Y-18979D01*
X13745Y-18959D01*
X13175Y-19174D01*
X13090Y-19231D01*
X12965Y-19450D01*
X14000Y-20485D01*
X14005Y-20480D01*
X14019Y-20494D01*
X14014Y-20500D01*
X14019Y-20505D01*
X14005Y-20519D01*
X14000Y-20514D01*
X13994Y-20519D01*
X13980Y-20505D01*
X13985Y-20500D01*
X12950Y-19465D01*
X12731Y-19590D01*
X12479Y-20145D01*
X12466Y-20542D01*
X12462Y-20537D01*
X12364Y-20472D01*
X12313Y-20462D01*
X12241Y-20389D01*
X12084Y-20325D01*
X11915Y-20324D01*
X11800Y-20372D01*
X11800Y-19874D01*
X12591Y-19082D01*
X12610Y-19090D01*
X12709Y-19090D01*
X13389Y-19090D01*
X13481Y-19051D01*
X13551Y-18981D01*
X13590Y-18889D01*
X13590Y-18790D01*
X13590Y-18110D01*
X13551Y-18018D01*
X13481Y-17948D01*
X13421Y-17922D01*
X13428Y-17911D01*
X13568Y-17818D01*
X13665Y-17672D01*
X13700Y-17500D01*
X13665Y-17327D01*
X13568Y-17181D01*
X13428Y-17088D01*
X13417Y-17071D01*
X13400Y-17060D01*
X13583Y-16869D01*
X13679Y-16617D01*
X13602Y-16510D01*
X13010Y-16510D01*
X13010Y-16517D01*
X12990Y-16517D01*
X12990Y-16510D01*
X12982Y-16510D01*
X12982Y-16490D01*
X12990Y-16490D01*
X12990Y-16482D01*
X13010Y-16482D01*
X13010Y-16490D01*
X13602Y-16490D01*
X13679Y-16382D01*
X13583Y-16130D01*
X13400Y-15939D01*
X13417Y-15928D01*
X13545Y-15737D01*
X13590Y-15511D01*
X13590Y-15488D01*
X13545Y-15262D01*
X13417Y-15071D01*
X13310Y-15000D01*
X13417Y-14928D01*
X13545Y-14737D01*
X13590Y-14511D01*
X13590Y-14488D01*
X13545Y-14262D01*
X13417Y-14071D01*
X13310Y-14000D01*
X13417Y-13928D01*
X13545Y-13737D01*
X13590Y-13511D01*
X13590Y-13488D01*
X13545Y-13262D01*
X13417Y-13071D01*
X13310Y-13000D01*
X13417Y-12928D01*
X13545Y-12737D01*
X13590Y-12511D01*
X13590Y-12488D01*
X13545Y-12262D01*
X13417Y-12071D01*
X13310Y-12000D01*
X13417Y-11928D01*
X13545Y-11737D01*
X13590Y-11511D01*
X13590Y-11488D01*
X13545Y-11262D01*
X13417Y-11071D01*
X13225Y-10943D01*
X13000Y-10898D01*
X12774Y-10943D01*
X12582Y-11071D01*
X12500Y-11195D01*
X12417Y-11071D01*
X12225Y-10943D01*
X12000Y-10898D01*
X11774Y-10943D01*
X11582Y-11071D01*
X11454Y-11262D01*
X11410Y-11488D01*
X11410Y-11511D01*
X11454Y-11737D01*
X11582Y-11928D01*
X11689Y-12000D01*
X11582Y-12071D01*
X11454Y-12262D01*
X11410Y-12488D01*
X11410Y-12511D01*
X11454Y-12737D01*
X11582Y-12928D01*
X11689Y-13000D01*
X11582Y-13071D01*
X11454Y-13262D01*
X11410Y-13488D01*
X11410Y-13511D01*
X11454Y-13737D01*
X11582Y-13928D01*
X11689Y-14000D01*
X11582Y-14071D01*
X11454Y-14262D01*
X11410Y-14488D01*
X11410Y-14511D01*
X11435Y-14640D01*
X11037Y-15037D01*
X10972Y-15135D01*
X10950Y-15250D01*
X10950Y-25750D01*
X10972Y-25864D01*
X11037Y-25962D01*
X11550Y-26475D01*
X11396Y-26474D01*
X11203Y-26554D01*
X11055Y-26702D01*
X10975Y-26895D01*
X10974Y-27103D01*
X11054Y-27297D01*
X11202Y-27444D01*
X11395Y-27524D01*
X11600Y-27525D01*
X12950Y-28874D01*
X12950Y-30625D01*
X11375Y-32200D01*
X11250Y-32200D01*
X11000Y-32200D01*
X10885Y-32222D01*
X10787Y-32287D01*
X10722Y-32385D01*
X10700Y-32500D01*
X10700Y-37000D01*
X10722Y-37114D01*
X10747Y-37151D01*
X10639Y-37258D01*
X10575Y-37415D01*
X10574Y-37584D01*
X10639Y-37740D01*
X10700Y-37801D01*
X10700Y-46500D01*
X10722Y-46614D01*
X10787Y-46712D01*
X11287Y-47212D01*
X11287Y-47212D01*
X11385Y-47277D01*
X11449Y-47289D01*
X11410Y-47488D01*
X11410Y-47511D01*
X11454Y-47737D01*
X11582Y-47928D01*
X11689Y-48000D01*
X11582Y-48071D01*
X11454Y-48262D01*
X11410Y-48488D01*
X11410Y-48511D01*
X11454Y-48737D01*
X11582Y-48928D01*
X11774Y-49056D01*
X12000Y-49101D01*
X12225Y-49056D01*
X12417Y-48928D01*
X12500Y-48804D01*
X12582Y-48928D01*
X12774Y-49056D01*
X13000Y-49101D01*
X13225Y-49056D01*
X13385Y-48950D01*
X18250Y-48950D01*
X18422Y-48915D01*
X18568Y-48818D01*
X18727Y-48658D01*
X18831Y-48934D01*
X18888Y-49019D01*
X19108Y-49145D01*
X20143Y-48110D01*
X20137Y-48104D01*
X20151Y-48090D01*
X20157Y-48096D01*
X20163Y-48090D01*
X20177Y-48104D01*
X20171Y-48110D01*
X21206Y-49145D01*
X21406Y-49030D01*
X21431Y-49068D01*
X21931Y-49568D01*
X21979Y-49600D01*
X20545Y-49600D01*
X20981Y-49436D01*
X21066Y-49379D01*
X21192Y-49159D01*
X20157Y-48124D01*
X19122Y-49159D01*
X19247Y-49379D01*
X19735Y-49600D01*
X10400Y-49600D01*
X10400Y-10400D01*
X19769Y-10400D01*
X19333Y-10563D01*
X19247Y-10620D01*
X19122Y-10840D01*
X20157Y-11875D01*
X21192Y-10840D01*
X21066Y-10620D01*
X20579Y-10400D01*
X29229Y-10400D01*
X29229Y-10400D01*
G37*
X29229Y-10400D02*
X29181Y-10431D01*
X28563Y-11050D01*
X28385Y-11050D01*
X28225Y-10943D01*
X28000Y-10898D01*
X27774Y-10943D01*
X27582Y-11071D01*
X27500Y-11195D01*
X27417Y-11071D01*
X27225Y-10943D01*
X27000Y-10898D01*
X26774Y-10943D01*
X26582Y-11071D01*
X26454Y-11262D01*
X26410Y-11488D01*
X26410Y-11511D01*
X26430Y-11614D01*
X26334Y-11575D01*
X26165Y-11574D01*
X26009Y-11639D01*
X25889Y-11758D01*
X25825Y-11915D01*
X25824Y-12084D01*
X25889Y-12240D01*
X26008Y-12360D01*
X26165Y-12424D01*
X26334Y-12425D01*
X26430Y-12385D01*
X26410Y-12488D01*
X26410Y-12511D01*
X26447Y-12700D01*
X25801Y-12700D01*
X25741Y-12639D01*
X25584Y-12575D01*
X25415Y-12574D01*
X25259Y-12639D01*
X25139Y-12758D01*
X25075Y-12915D01*
X25074Y-13084D01*
X25139Y-13240D01*
X25258Y-13360D01*
X25415Y-13424D01*
X25584Y-13425D01*
X25740Y-13360D01*
X25801Y-13300D01*
X26447Y-13300D01*
X26410Y-13488D01*
X26410Y-13511D01*
X26430Y-13614D01*
X26334Y-13575D01*
X26165Y-13574D01*
X26009Y-13639D01*
X25889Y-13758D01*
X25825Y-13915D01*
X25824Y-14084D01*
X25889Y-14240D01*
X26008Y-14360D01*
X26165Y-14424D01*
X26334Y-14425D01*
X26430Y-14385D01*
X26410Y-14488D01*
X26410Y-14511D01*
X26447Y-14700D01*
X24627Y-14700D01*
X24674Y-14584D01*
X24675Y-14415D01*
X24610Y-14259D01*
X24491Y-14139D01*
X24334Y-14075D01*
X24165Y-14074D01*
X24009Y-14139D01*
X23948Y-14200D01*
X23750Y-14200D01*
X23635Y-14222D01*
X23537Y-14287D01*
X22800Y-15025D01*
X22800Y-14425D01*
X22834Y-14425D01*
X22990Y-14360D01*
X23110Y-14241D01*
X23174Y-14084D01*
X23175Y-13915D01*
X23110Y-13759D01*
X23101Y-13750D01*
X23110Y-13741D01*
X23174Y-13584D01*
X23175Y-13415D01*
X23110Y-13259D01*
X22991Y-13139D01*
X22845Y-13079D01*
X23047Y-12876D01*
X23165Y-12924D01*
X23334Y-12925D01*
X23490Y-12860D01*
X23610Y-12741D01*
X23674Y-12584D01*
X23675Y-12415D01*
X23610Y-12259D01*
X23491Y-12139D01*
X23334Y-12075D01*
X23165Y-12074D01*
X23009Y-12139D01*
X22936Y-12212D01*
X22885Y-12222D01*
X22787Y-12287D01*
X21787Y-13287D01*
X21722Y-13385D01*
X21700Y-13500D01*
X21700Y-17875D01*
X21697Y-17877D01*
X21697Y-11635D01*
X21483Y-11065D01*
X21426Y-10980D01*
X21206Y-10854D01*
X20171Y-11889D01*
X21206Y-12924D01*
X21426Y-12799D01*
X21677Y-12244D01*
X21697Y-11635D01*
X21697Y-17877D01*
X21530Y-18045D01*
X21540Y-17745D01*
X21325Y-17175D01*
X21268Y-17090D01*
X21192Y-17046D01*
X21192Y-12938D01*
X20157Y-11903D01*
X20143Y-11918D01*
X20143Y-11889D01*
X19108Y-10854D01*
X18888Y-10980D01*
X18637Y-11535D01*
X18617Y-12143D01*
X18831Y-12713D01*
X18888Y-12799D01*
X19108Y-12924D01*
X20143Y-11889D01*
X20143Y-11918D01*
X19122Y-12938D01*
X19247Y-13158D01*
X19802Y-13410D01*
X20411Y-13430D01*
X20981Y-13215D01*
X21066Y-13158D01*
X21192Y-12938D01*
X21192Y-17046D01*
X21049Y-16965D01*
X21034Y-16979D01*
X21034Y-16950D01*
X20909Y-16731D01*
X20354Y-16479D01*
X19745Y-16459D01*
X19175Y-16674D01*
X19090Y-16731D01*
X18965Y-16950D01*
X20000Y-17985D01*
X21034Y-16950D01*
X21034Y-16979D01*
X20014Y-18000D01*
X20019Y-18005D01*
X20005Y-18019D01*
X20000Y-18014D01*
X19985Y-18028D01*
X19985Y-18000D01*
X18950Y-16965D01*
X18731Y-17090D01*
X18479Y-17645D01*
X18459Y-18254D01*
X18674Y-18824D01*
X18731Y-18909D01*
X18950Y-19034D01*
X19985Y-18000D01*
X19985Y-18028D01*
X18965Y-19049D01*
X19090Y-19268D01*
X19645Y-19520D01*
X20042Y-19533D01*
X19622Y-19953D01*
X19517Y-19910D01*
X19283Y-19909D01*
X19066Y-19999D01*
X18971Y-20094D01*
X18842Y-20071D01*
X18828Y-20085D01*
X18828Y-20057D01*
X18805Y-19925D01*
X18554Y-19813D01*
X18280Y-19806D01*
X18023Y-19905D01*
X17994Y-19925D01*
X17971Y-20057D01*
X18400Y-20485D01*
X18828Y-20057D01*
X18828Y-20085D01*
X18414Y-20500D01*
X18842Y-20928D01*
X18971Y-20905D01*
X19065Y-20999D01*
X19100Y-21014D01*
X19100Y-23400D01*
X19122Y-23514D01*
X19187Y-23612D01*
X19537Y-23962D01*
X19635Y-24027D01*
X19635Y-24027D01*
X19750Y-24050D01*
X20250Y-24050D01*
X20250Y-24049D01*
X20364Y-24027D01*
X20364Y-24027D01*
X20462Y-23962D01*
X20700Y-23724D01*
X20700Y-25382D01*
X20643Y-25357D01*
X20387Y-25351D01*
X20147Y-25444D01*
X20121Y-25461D01*
X20103Y-25589D01*
X20500Y-25985D01*
X20505Y-25980D01*
X20519Y-25994D01*
X20514Y-26000D01*
X20519Y-26005D01*
X20505Y-26019D01*
X20500Y-26014D01*
X20485Y-26028D01*
X20485Y-26000D01*
X20089Y-25603D01*
X19961Y-25621D01*
X19857Y-25856D01*
X19851Y-26112D01*
X19944Y-26352D01*
X19961Y-26378D01*
X20089Y-26396D01*
X20485Y-26000D01*
X20485Y-26028D01*
X20103Y-26410D01*
X20121Y-26538D01*
X20126Y-26540D01*
X20118Y-26604D01*
X20500Y-26985D01*
X20505Y-26980D01*
X20519Y-26994D01*
X20514Y-27000D01*
X20519Y-27005D01*
X20505Y-27019D01*
X20500Y-27014D01*
X20118Y-27395D01*
X20133Y-27521D01*
X20360Y-27621D01*
X20609Y-27627D01*
X20700Y-27592D01*
X20700Y-30000D01*
X20700Y-30198D01*
X20639Y-30258D01*
X20575Y-30415D01*
X20574Y-30500D01*
X20537Y-30537D01*
X19875Y-31200D01*
X18750Y-31200D01*
X18635Y-31222D01*
X18596Y-31248D01*
X18537Y-31287D01*
X18300Y-31525D01*
X18300Y-31051D01*
X18360Y-30991D01*
X18424Y-30834D01*
X18425Y-30665D01*
X18360Y-30509D01*
X18262Y-30411D01*
X18499Y-30174D01*
X18584Y-30175D01*
X18740Y-30110D01*
X18860Y-29991D01*
X18924Y-29834D01*
X18925Y-29749D01*
X19212Y-29462D01*
X19212Y-29462D01*
X19277Y-29364D01*
X19299Y-29250D01*
X19300Y-29250D01*
X19300Y-29000D01*
X19300Y-27485D01*
X19395Y-27524D01*
X19603Y-27525D01*
X19797Y-27445D01*
X19944Y-27297D01*
X19944Y-27297D01*
X19961Y-27341D01*
X19978Y-27366D01*
X20104Y-27381D01*
X20485Y-27000D01*
X20104Y-26618D01*
X19978Y-26633D01*
X19946Y-26706D01*
X19945Y-26703D01*
X19800Y-26557D01*
X19800Y-26500D01*
X19777Y-26385D01*
X19712Y-26287D01*
X18828Y-25404D01*
X18828Y-20942D01*
X18400Y-20514D01*
X17971Y-20942D01*
X17994Y-21074D01*
X18245Y-21186D01*
X18519Y-21193D01*
X18776Y-21094D01*
X18805Y-21074D01*
X18828Y-20942D01*
X18828Y-25404D01*
X18550Y-25125D01*
X18550Y-22500D01*
X18527Y-22385D01*
X18462Y-22287D01*
X17700Y-21525D01*
X17700Y-21014D01*
X17733Y-21000D01*
X17828Y-20905D01*
X17957Y-20928D01*
X18385Y-20500D01*
X17957Y-20071D01*
X17828Y-20094D01*
X17734Y-20000D01*
X17700Y-19985D01*
X17700Y-15650D01*
X17677Y-15535D01*
X17674Y-15531D01*
X17675Y-15415D01*
X17610Y-15259D01*
X17491Y-15139D01*
X17334Y-15075D01*
X17165Y-15074D01*
X17009Y-15139D01*
X16889Y-15258D01*
X16825Y-15415D01*
X16824Y-15584D01*
X16889Y-15740D01*
X17008Y-15860D01*
X17100Y-15897D01*
X17100Y-18229D01*
X17068Y-18181D01*
X16068Y-17182D01*
X16005Y-17118D01*
X15839Y-17050D01*
X15660Y-17049D01*
X15550Y-17095D01*
X15550Y-15374D01*
X16212Y-14712D01*
X16277Y-14614D01*
X16277Y-14614D01*
X16300Y-14500D01*
X16300Y-12301D01*
X16360Y-12241D01*
X16424Y-12084D01*
X16425Y-11915D01*
X16360Y-11759D01*
X16241Y-11639D01*
X16084Y-11575D01*
X15915Y-11574D01*
X15759Y-11639D01*
X15639Y-11758D01*
X15575Y-11915D01*
X15574Y-12075D01*
X15415Y-12074D01*
X15259Y-12139D01*
X15139Y-12258D01*
X15075Y-12415D01*
X15074Y-12584D01*
X15139Y-12740D01*
X15200Y-12801D01*
X15200Y-13122D01*
X15084Y-13075D01*
X14915Y-13074D01*
X14759Y-13139D01*
X14639Y-13258D01*
X14575Y-13415D01*
X14574Y-13584D01*
X14639Y-13740D01*
X14700Y-13801D01*
X14700Y-14122D01*
X14584Y-14075D01*
X14415Y-14074D01*
X14259Y-14139D01*
X14139Y-14258D01*
X14075Y-14415D01*
X14074Y-14584D01*
X14139Y-14740D01*
X14200Y-14801D01*
X14200Y-18500D01*
X14222Y-18614D01*
X14287Y-18712D01*
X14721Y-19146D01*
X14354Y-18979D01*
X13745Y-18959D01*
X13175Y-19174D01*
X13090Y-19231D01*
X12965Y-19450D01*
X14000Y-20485D01*
X14005Y-20480D01*
X14019Y-20494D01*
X14014Y-20500D01*
X14019Y-20505D01*
X14005Y-20519D01*
X14000Y-20514D01*
X13994Y-20519D01*
X13980Y-20505D01*
X13985Y-20500D01*
X12950Y-19465D01*
X12731Y-19590D01*
X12479Y-20145D01*
X12466Y-20542D01*
X12462Y-20537D01*
X12364Y-20472D01*
X12313Y-20462D01*
X12241Y-20389D01*
X12084Y-20325D01*
X11915Y-20324D01*
X11800Y-20372D01*
X11800Y-19874D01*
X12591Y-19082D01*
X12610Y-19090D01*
X12709Y-19090D01*
X13389Y-19090D01*
X13481Y-19051D01*
X13551Y-18981D01*
X13590Y-18889D01*
X13590Y-18790D01*
X13590Y-18110D01*
X13551Y-18018D01*
X13481Y-17948D01*
X13421Y-17922D01*
X13428Y-17911D01*
X13568Y-17818D01*
X13665Y-17672D01*
X13700Y-17500D01*
X13665Y-17327D01*
X13568Y-17181D01*
X13428Y-17088D01*
X13417Y-17071D01*
X13400Y-17060D01*
X13583Y-16869D01*
X13679Y-16617D01*
X13602Y-16510D01*
X13010Y-16510D01*
X13010Y-16517D01*
X12990Y-16517D01*
X12990Y-16510D01*
X12982Y-16510D01*
X12982Y-16490D01*
X12990Y-16490D01*
X12990Y-16482D01*
X13010Y-16482D01*
X13010Y-16490D01*
X13602Y-16490D01*
X13679Y-16382D01*
X13583Y-16130D01*
X13400Y-15939D01*
X13417Y-15928D01*
X13545Y-15737D01*
X13590Y-15511D01*
X13590Y-15488D01*
X13545Y-15262D01*
X13417Y-15071D01*
X13310Y-15000D01*
X13417Y-14928D01*
X13545Y-14737D01*
X13590Y-14511D01*
X13590Y-14488D01*
X13545Y-14262D01*
X13417Y-14071D01*
X13310Y-14000D01*
X13417Y-13928D01*
X13545Y-13737D01*
X13590Y-13511D01*
X13590Y-13488D01*
X13545Y-13262D01*
X13417Y-13071D01*
X13310Y-13000D01*
X13417Y-12928D01*
X13545Y-12737D01*
X13590Y-12511D01*
X13590Y-12488D01*
X13545Y-12262D01*
X13417Y-12071D01*
X13310Y-12000D01*
X13417Y-11928D01*
X13545Y-11737D01*
X13590Y-11511D01*
X13590Y-11488D01*
X13545Y-11262D01*
X13417Y-11071D01*
X13225Y-10943D01*
X13000Y-10898D01*
X12774Y-10943D01*
X12582Y-11071D01*
X12500Y-11195D01*
X12417Y-11071D01*
X12225Y-10943D01*
X12000Y-10898D01*
X11774Y-10943D01*
X11582Y-11071D01*
X11454Y-11262D01*
X11410Y-11488D01*
X11410Y-11511D01*
X11454Y-11737D01*
X11582Y-11928D01*
X11689Y-12000D01*
X11582Y-12071D01*
X11454Y-12262D01*
X11410Y-12488D01*
X11410Y-12511D01*
X11454Y-12737D01*
X11582Y-12928D01*
X11689Y-13000D01*
X11582Y-13071D01*
X11454Y-13262D01*
X11410Y-13488D01*
X11410Y-13511D01*
X11454Y-13737D01*
X11582Y-13928D01*
X11689Y-14000D01*
X11582Y-14071D01*
X11454Y-14262D01*
X11410Y-14488D01*
X11410Y-14511D01*
X11435Y-14640D01*
X11037Y-15037D01*
X10972Y-15135D01*
X10950Y-15250D01*
X10950Y-25750D01*
X10972Y-25864D01*
X11037Y-25962D01*
X11550Y-26475D01*
X11396Y-26474D01*
X11203Y-26554D01*
X11055Y-26702D01*
X10975Y-26895D01*
X10974Y-27103D01*
X11054Y-27297D01*
X11202Y-27444D01*
X11395Y-27524D01*
X11600Y-27525D01*
X12950Y-28874D01*
X12950Y-30625D01*
X11375Y-32200D01*
X11250Y-32200D01*
X11000Y-32200D01*
X10885Y-32222D01*
X10787Y-32287D01*
X10722Y-32385D01*
X10700Y-32500D01*
X10700Y-37000D01*
X10722Y-37114D01*
X10747Y-37151D01*
X10639Y-37258D01*
X10575Y-37415D01*
X10574Y-37584D01*
X10639Y-37740D01*
X10700Y-37801D01*
X10700Y-46500D01*
X10722Y-46614D01*
X10787Y-46712D01*
X11287Y-47212D01*
X11287Y-47212D01*
X11385Y-47277D01*
X11449Y-47289D01*
X11410Y-47488D01*
X11410Y-47511D01*
X11454Y-47737D01*
X11582Y-47928D01*
X11689Y-48000D01*
X11582Y-48071D01*
X11454Y-48262D01*
X11410Y-48488D01*
X11410Y-48511D01*
X11454Y-48737D01*
X11582Y-48928D01*
X11774Y-49056D01*
X12000Y-49101D01*
X12225Y-49056D01*
X12417Y-48928D01*
X12500Y-48804D01*
X12582Y-48928D01*
X12774Y-49056D01*
X13000Y-49101D01*
X13225Y-49056D01*
X13385Y-48950D01*
X18250Y-48950D01*
X18422Y-48915D01*
X18568Y-48818D01*
X18727Y-48658D01*
X18831Y-48934D01*
X18888Y-49019D01*
X19108Y-49145D01*
X20143Y-48110D01*
X20137Y-48104D01*
X20151Y-48090D01*
X20157Y-48096D01*
X20163Y-48090D01*
X20177Y-48104D01*
X20171Y-48110D01*
X21206Y-49145D01*
X21406Y-49030D01*
X21431Y-49068D01*
X21931Y-49568D01*
X21979Y-49600D01*
X20545Y-49600D01*
X20981Y-49436D01*
X21066Y-49379D01*
X21192Y-49159D01*
X20157Y-48124D01*
X19122Y-49159D01*
X19247Y-49379D01*
X19735Y-49600D01*
X10400Y-49600D01*
X10400Y-10400D01*
X19769Y-10400D01*
X19333Y-10563D01*
X19247Y-10620D01*
X19122Y-10840D01*
X20157Y-11875D01*
X21192Y-10840D01*
X21066Y-10620D01*
X20579Y-10400D01*
X29229Y-10400D01*
G36*
X30700Y-30875D02*
X30300Y-31275D01*
X30300Y-31000D01*
X30300Y-29124D01*
X30700Y-28724D01*
X30700Y-30875D01*
X30700Y-30875D01*
G37*
X30700Y-30875D02*
X30300Y-31275D01*
X30300Y-31000D01*
X30300Y-29124D01*
X30700Y-28724D01*
X30700Y-30875D01*
G36*
X30950Y-37625D02*
X30420Y-38155D01*
X30360Y-38009D01*
X30300Y-37948D01*
X30300Y-36500D01*
X30277Y-36385D01*
X30212Y-36287D01*
X30212Y-36287D01*
X29924Y-36000D01*
X29925Y-35999D01*
X29962Y-35962D01*
X29962Y-35962D01*
X30001Y-35903D01*
X30027Y-35864D01*
X30027Y-35864D01*
X30050Y-35750D01*
X30050Y-33624D01*
X30212Y-33462D01*
X30212Y-33462D01*
X30219Y-33451D01*
X30395Y-33524D01*
X30450Y-33524D01*
X30450Y-34750D01*
X30472Y-34864D01*
X30537Y-34962D01*
X30950Y-35374D01*
X30950Y-37625D01*
X30950Y-37625D01*
G37*
X30950Y-37625D02*
X30420Y-38155D01*
X30360Y-38009D01*
X30300Y-37948D01*
X30300Y-36500D01*
X30277Y-36385D01*
X30212Y-36287D01*
X30212Y-36287D01*
X29924Y-36000D01*
X29925Y-35999D01*
X29962Y-35962D01*
X29962Y-35962D01*
X30001Y-35903D01*
X30027Y-35864D01*
X30027Y-35864D01*
X30050Y-35750D01*
X30050Y-33624D01*
X30212Y-33462D01*
X30212Y-33462D01*
X30219Y-33451D01*
X30395Y-33524D01*
X30450Y-33524D01*
X30450Y-34750D01*
X30472Y-34864D01*
X30537Y-34962D01*
X30950Y-35374D01*
X30950Y-37625D01*
G36*
X31200Y-22448D02*
X31139Y-22508D01*
X31075Y-22665D01*
X31074Y-22834D01*
X31132Y-22974D01*
X31037Y-23037D01*
X30537Y-23537D01*
X30472Y-23635D01*
X30450Y-23750D01*
X30450Y-24250D01*
X30472Y-24364D01*
X30537Y-24462D01*
X30950Y-24874D01*
X30950Y-26275D01*
X29550Y-24875D01*
X29550Y-21374D01*
X29848Y-21075D01*
X29882Y-21089D01*
X30116Y-21090D01*
X30333Y-21000D01*
X30499Y-20834D01*
X30500Y-20834D01*
X30665Y-20999D01*
X30882Y-21089D01*
X31116Y-21090D01*
X31151Y-21075D01*
X31200Y-21124D01*
X31200Y-22448D01*
X31200Y-22448D01*
G37*
X31200Y-22448D02*
X31139Y-22508D01*
X31075Y-22665D01*
X31074Y-22834D01*
X31132Y-22974D01*
X31037Y-23037D01*
X30537Y-23537D01*
X30472Y-23635D01*
X30450Y-23750D01*
X30450Y-24250D01*
X30472Y-24364D01*
X30537Y-24462D01*
X30950Y-24874D01*
X30950Y-26275D01*
X29550Y-24875D01*
X29550Y-21374D01*
X29848Y-21075D01*
X29882Y-21089D01*
X30116Y-21090D01*
X30333Y-21000D01*
X30499Y-20834D01*
X30500Y-20834D01*
X30665Y-20999D01*
X30882Y-21089D01*
X31116Y-21090D01*
X31151Y-21075D01*
X31200Y-21124D01*
X31200Y-22448D01*
G36*
X34550Y-33575D02*
X34415Y-33574D01*
X34259Y-33639D01*
X34139Y-33758D01*
X34075Y-33915D01*
X34074Y-34084D01*
X34139Y-34240D01*
X34200Y-34301D01*
X34200Y-35974D01*
X33745Y-35959D01*
X33450Y-36071D01*
X33450Y-31507D01*
X33567Y-31428D01*
X33590Y-31393D01*
X33752Y-31564D01*
X33998Y-31673D01*
X34032Y-31679D01*
X34140Y-31602D01*
X34140Y-31010D01*
X34132Y-31010D01*
X34132Y-30990D01*
X34140Y-30990D01*
X34140Y-30982D01*
X34160Y-30982D01*
X34160Y-30990D01*
X34167Y-30990D01*
X34167Y-31010D01*
X34160Y-31010D01*
X34160Y-31602D01*
X34267Y-31679D01*
X34301Y-31673D01*
X34547Y-31564D01*
X34550Y-31561D01*
X34550Y-33575D01*
X34550Y-33575D01*
G37*
X34550Y-33575D02*
X34415Y-33574D01*
X34259Y-33639D01*
X34139Y-33758D01*
X34075Y-33915D01*
X34074Y-34084D01*
X34139Y-34240D01*
X34200Y-34301D01*
X34200Y-35974D01*
X33745Y-35959D01*
X33450Y-36071D01*
X33450Y-31507D01*
X33567Y-31428D01*
X33590Y-31393D01*
X33752Y-31564D01*
X33998Y-31673D01*
X34032Y-31679D01*
X34140Y-31602D01*
X34140Y-31010D01*
X34132Y-31010D01*
X34132Y-30990D01*
X34140Y-30990D01*
X34140Y-30982D01*
X34160Y-30982D01*
X34160Y-30990D01*
X34167Y-30990D01*
X34167Y-31010D01*
X34160Y-31010D01*
X34160Y-31602D01*
X34267Y-31679D01*
X34301Y-31673D01*
X34547Y-31564D01*
X34550Y-31561D01*
X34550Y-33575D01*
G36*
X35049Y-28563D02*
X35034Y-28578D01*
X34720Y-28892D01*
X34695Y-28762D01*
X34567Y-28571D01*
X34375Y-28443D01*
X34150Y-28398D01*
X33924Y-28443D01*
X33732Y-28571D01*
X33727Y-28579D01*
X33701Y-28518D01*
X33631Y-28448D01*
X33539Y-28410D01*
X33440Y-28410D01*
X32760Y-28410D01*
X32668Y-28448D01*
X32598Y-28518D01*
X32560Y-28610D01*
X32560Y-28709D01*
X32560Y-29389D01*
X32598Y-29481D01*
X32668Y-29551D01*
X32728Y-29577D01*
X32604Y-29762D01*
X32560Y-29988D01*
X32560Y-30011D01*
X32604Y-30237D01*
X32732Y-30428D01*
X32839Y-30500D01*
X32732Y-30571D01*
X32604Y-30762D01*
X32560Y-30988D01*
X32560Y-31011D01*
X32604Y-31237D01*
X32732Y-31428D01*
X32850Y-31507D01*
X32850Y-35975D01*
X32287Y-36537D01*
X32250Y-36594D01*
X32212Y-36537D01*
X32050Y-36375D01*
X32050Y-35250D01*
X32027Y-35135D01*
X32027Y-35135D01*
X31962Y-35037D01*
X31594Y-34670D01*
X31740Y-34610D01*
X31860Y-34491D01*
X31924Y-34334D01*
X31925Y-34249D01*
X31962Y-34212D01*
X31962Y-34212D01*
X32001Y-34153D01*
X32027Y-34114D01*
X32027Y-34114D01*
X32050Y-34000D01*
X32050Y-28624D01*
X32212Y-28462D01*
X32212Y-28462D01*
X32251Y-28403D01*
X32277Y-28364D01*
X32277Y-28364D01*
X32300Y-28250D01*
X32300Y-25874D01*
X33249Y-24924D01*
X33334Y-24925D01*
X33490Y-24860D01*
X33610Y-24741D01*
X33674Y-24584D01*
X33674Y-24561D01*
X34084Y-24970D01*
X33745Y-24959D01*
X33175Y-25174D01*
X33090Y-25231D01*
X32965Y-25450D01*
X34000Y-26485D01*
X34005Y-26480D01*
X34019Y-26494D01*
X34014Y-26500D01*
X34019Y-26505D01*
X34005Y-26519D01*
X34000Y-26514D01*
X33985Y-26528D01*
X33985Y-26500D01*
X32950Y-25465D01*
X32731Y-25590D01*
X32479Y-26145D01*
X32459Y-26754D01*
X32674Y-27324D01*
X32731Y-27409D01*
X32950Y-27534D01*
X33985Y-26500D01*
X33985Y-26528D01*
X32965Y-27549D01*
X33090Y-27768D01*
X33645Y-28020D01*
X34254Y-28040D01*
X34824Y-27825D01*
X34909Y-27768D01*
X35034Y-27549D01*
X35034Y-27549D01*
X35049Y-27564D01*
X35049Y-28563D01*
X35049Y-28563D01*
G37*
X35049Y-28563D02*
X35034Y-28578D01*
X34720Y-28892D01*
X34695Y-28762D01*
X34567Y-28571D01*
X34375Y-28443D01*
X34150Y-28398D01*
X33924Y-28443D01*
X33732Y-28571D01*
X33727Y-28579D01*
X33701Y-28518D01*
X33631Y-28448D01*
X33539Y-28410D01*
X33440Y-28410D01*
X32760Y-28410D01*
X32668Y-28448D01*
X32598Y-28518D01*
X32560Y-28610D01*
X32560Y-28709D01*
X32560Y-29389D01*
X32598Y-29481D01*
X32668Y-29551D01*
X32728Y-29577D01*
X32604Y-29762D01*
X32560Y-29988D01*
X32560Y-30011D01*
X32604Y-30237D01*
X32732Y-30428D01*
X32839Y-30500D01*
X32732Y-30571D01*
X32604Y-30762D01*
X32560Y-30988D01*
X32560Y-31011D01*
X32604Y-31237D01*
X32732Y-31428D01*
X32850Y-31507D01*
X32850Y-35975D01*
X32287Y-36537D01*
X32250Y-36594D01*
X32212Y-36537D01*
X32050Y-36375D01*
X32050Y-35250D01*
X32027Y-35135D01*
X32027Y-35135D01*
X31962Y-35037D01*
X31594Y-34670D01*
X31740Y-34610D01*
X31860Y-34491D01*
X31924Y-34334D01*
X31925Y-34249D01*
X31962Y-34212D01*
X31962Y-34212D01*
X32001Y-34153D01*
X32027Y-34114D01*
X32027Y-34114D01*
X32050Y-34000D01*
X32050Y-28624D01*
X32212Y-28462D01*
X32212Y-28462D01*
X32251Y-28403D01*
X32277Y-28364D01*
X32277Y-28364D01*
X32300Y-28250D01*
X32300Y-25874D01*
X33249Y-24924D01*
X33334Y-24925D01*
X33490Y-24860D01*
X33610Y-24741D01*
X33674Y-24584D01*
X33674Y-24561D01*
X34084Y-24970D01*
X33745Y-24959D01*
X33175Y-25174D01*
X33090Y-25231D01*
X32965Y-25450D01*
X34000Y-26485D01*
X34005Y-26480D01*
X34019Y-26494D01*
X34014Y-26500D01*
X34019Y-26505D01*
X34005Y-26519D01*
X34000Y-26514D01*
X33985Y-26528D01*
X33985Y-26500D01*
X32950Y-25465D01*
X32731Y-25590D01*
X32479Y-26145D01*
X32459Y-26754D01*
X32674Y-27324D01*
X32731Y-27409D01*
X32950Y-27534D01*
X33985Y-26500D01*
X33985Y-26528D01*
X32965Y-27549D01*
X33090Y-27768D01*
X33645Y-28020D01*
X34254Y-28040D01*
X34824Y-27825D01*
X34909Y-27768D01*
X35034Y-27549D01*
X35034Y-27549D01*
X35049Y-27564D01*
X35049Y-28563D01*
G36*
X35200Y-42492D02*
X35050Y-42342D01*
X35050Y-39750D01*
X35027Y-39635D01*
X35027Y-39635D01*
X34962Y-39537D01*
X34407Y-38982D01*
X34824Y-38825D01*
X34909Y-38768D01*
X35034Y-38549D01*
X34000Y-37514D01*
X33994Y-37519D01*
X33980Y-37505D01*
X33985Y-37500D01*
X33980Y-37494D01*
X33994Y-37480D01*
X34000Y-37485D01*
X34005Y-37480D01*
X34019Y-37494D01*
X34014Y-37500D01*
X35049Y-38534D01*
X35200Y-38448D01*
X35200Y-42492D01*
X35200Y-42492D01*
G37*
X35200Y-42492D02*
X35050Y-42342D01*
X35050Y-39750D01*
X35027Y-39635D01*
X35027Y-39635D01*
X34962Y-39537D01*
X34407Y-38982D01*
X34824Y-38825D01*
X34909Y-38768D01*
X35034Y-38549D01*
X34000Y-37514D01*
X33994Y-37519D01*
X33980Y-37505D01*
X33985Y-37500D01*
X33980Y-37494D01*
X33994Y-37480D01*
X34000Y-37485D01*
X34005Y-37480D01*
X34019Y-37494D01*
X34014Y-37500D01*
X35049Y-38534D01*
X35200Y-38448D01*
X35200Y-42492D01*
G36*
X36300Y-25214D02*
X36225Y-25395D01*
X36225Y-25488D01*
X35949Y-25763D01*
X35949Y-25749D01*
X35915Y-25577D01*
X35818Y-25431D01*
X35782Y-25396D01*
X35862Y-25398D01*
X36102Y-25305D01*
X36128Y-25288D01*
X36146Y-25160D01*
X35750Y-24764D01*
X35744Y-24769D01*
X35730Y-24755D01*
X35735Y-24750D01*
X35730Y-24744D01*
X35744Y-24730D01*
X35750Y-24735D01*
X35755Y-24730D01*
X35769Y-24744D01*
X35764Y-24750D01*
X36160Y-25146D01*
X36288Y-25128D01*
X36300Y-25102D01*
X36300Y-25214D01*
X36300Y-25214D01*
G37*
X36300Y-25214D02*
X36225Y-25395D01*
X36225Y-25488D01*
X35949Y-25763D01*
X35949Y-25749D01*
X35915Y-25577D01*
X35818Y-25431D01*
X35782Y-25396D01*
X35862Y-25398D01*
X36102Y-25305D01*
X36128Y-25288D01*
X36146Y-25160D01*
X35750Y-24764D01*
X35744Y-24769D01*
X35730Y-24755D01*
X35735Y-24750D01*
X35730Y-24744D01*
X35744Y-24730D01*
X35750Y-24735D01*
X35755Y-24730D01*
X35769Y-24744D01*
X35764Y-24750D01*
X36160Y-25146D01*
X36288Y-25128D01*
X36300Y-25102D01*
X36300Y-25214D01*
G36*
X37450Y-31197D02*
X37261Y-31160D01*
X37238Y-31160D01*
X37146Y-31178D01*
X37012Y-31204D01*
X36821Y-31332D01*
X36750Y-31439D01*
X36678Y-31332D01*
X36487Y-31204D01*
X36383Y-31184D01*
X36424Y-31084D01*
X36425Y-30915D01*
X36360Y-30759D01*
X36300Y-30698D01*
X36300Y-30214D01*
X36353Y-30160D01*
X36371Y-30288D01*
X36606Y-30392D01*
X36862Y-30398D01*
X37102Y-30305D01*
X37128Y-30288D01*
X37146Y-30160D01*
X36750Y-29764D01*
X36744Y-29769D01*
X36730Y-29755D01*
X36735Y-29750D01*
X36730Y-29744D01*
X36744Y-29730D01*
X36750Y-29735D01*
X36755Y-29730D01*
X36769Y-29744D01*
X36764Y-29750D01*
X37160Y-30146D01*
X37288Y-30128D01*
X37309Y-30080D01*
X37440Y-30212D01*
X37450Y-30216D01*
X37450Y-31197D01*
X37450Y-31197D01*
G37*
X37450Y-31197D02*
X37261Y-31160D01*
X37238Y-31160D01*
X37146Y-31178D01*
X37012Y-31204D01*
X36821Y-31332D01*
X36750Y-31439D01*
X36678Y-31332D01*
X36487Y-31204D01*
X36383Y-31184D01*
X36424Y-31084D01*
X36425Y-30915D01*
X36360Y-30759D01*
X36300Y-30698D01*
X36300Y-30214D01*
X36353Y-30160D01*
X36371Y-30288D01*
X36606Y-30392D01*
X36862Y-30398D01*
X37102Y-30305D01*
X37128Y-30288D01*
X37146Y-30160D01*
X36750Y-29764D01*
X36744Y-29769D01*
X36730Y-29755D01*
X36735Y-29750D01*
X36730Y-29744D01*
X36744Y-29730D01*
X36750Y-29735D01*
X36755Y-29730D01*
X36769Y-29744D01*
X36764Y-29750D01*
X37160Y-30146D01*
X37288Y-30128D01*
X37309Y-30080D01*
X37440Y-30212D01*
X37450Y-30216D01*
X37450Y-31197D01*
G36*
X41200Y-33655D02*
X41139Y-33628D01*
X40890Y-33622D01*
X40658Y-33711D01*
X40633Y-33728D01*
X40618Y-33854D01*
X41000Y-34235D01*
X41005Y-34230D01*
X41019Y-34244D01*
X41014Y-34250D01*
X41019Y-34255D01*
X41005Y-34269D01*
X41000Y-34264D01*
X40994Y-34269D01*
X40980Y-34255D01*
X40985Y-34250D01*
X40604Y-33868D01*
X40506Y-33880D01*
X40486Y-33833D01*
X40416Y-33763D01*
X40381Y-33748D01*
X40381Y-31645D01*
X40000Y-31264D01*
X39985Y-31278D01*
X39985Y-31250D01*
X39604Y-30868D01*
X39478Y-30883D01*
X39378Y-31110D01*
X39372Y-31359D01*
X39461Y-31591D01*
X39478Y-31616D01*
X39604Y-31631D01*
X39985Y-31250D01*
X39985Y-31278D01*
X39618Y-31645D01*
X39633Y-31771D01*
X39860Y-31871D01*
X40109Y-31877D01*
X40341Y-31788D01*
X40366Y-31771D01*
X40381Y-31645D01*
X40381Y-33748D01*
X40324Y-33725D01*
X40300Y-33725D01*
X40300Y-33250D01*
X40277Y-33135D01*
X40277Y-33135D01*
X40212Y-33037D01*
X38529Y-31355D01*
X38621Y-31393D01*
X38877Y-31393D01*
X39114Y-31295D01*
X39295Y-31114D01*
X39393Y-30878D01*
X39393Y-30622D01*
X39295Y-30385D01*
X39252Y-30342D01*
X39364Y-30295D01*
X39545Y-30114D01*
X39643Y-29878D01*
X39643Y-29622D01*
X39545Y-29385D01*
X39364Y-29204D01*
X39128Y-29106D01*
X38872Y-29106D01*
X38807Y-29133D01*
X38699Y-29024D01*
X38853Y-29025D01*
X39047Y-28945D01*
X39194Y-28797D01*
X39250Y-28664D01*
X39304Y-28797D01*
X39452Y-28944D01*
X39645Y-29024D01*
X39853Y-29025D01*
X40047Y-28945D01*
X40194Y-28797D01*
X40250Y-28664D01*
X40304Y-28797D01*
X40452Y-28944D01*
X40645Y-29024D01*
X40853Y-29025D01*
X40950Y-28985D01*
X40950Y-29500D01*
X40972Y-29614D01*
X41037Y-29712D01*
X41200Y-29874D01*
X41200Y-30764D01*
X41104Y-30725D01*
X40896Y-30724D01*
X40703Y-30804D01*
X40555Y-30952D01*
X40555Y-30952D01*
X40538Y-30908D01*
X40521Y-30883D01*
X40395Y-30868D01*
X40381Y-30882D01*
X40381Y-30854D01*
X40366Y-30728D01*
X40139Y-30628D01*
X39890Y-30622D01*
X39658Y-30711D01*
X39633Y-30728D01*
X39618Y-30854D01*
X40000Y-31235D01*
X40381Y-30854D01*
X40381Y-30882D01*
X40014Y-31250D01*
X40395Y-31631D01*
X40521Y-31616D01*
X40553Y-31543D01*
X40554Y-31547D01*
X40702Y-31694D01*
X40895Y-31774D01*
X41103Y-31775D01*
X41200Y-31735D01*
X41200Y-33655D01*
X41200Y-33655D01*
G37*
X41200Y-33655D02*
X41139Y-33628D01*
X40890Y-33622D01*
X40658Y-33711D01*
X40633Y-33728D01*
X40618Y-33854D01*
X41000Y-34235D01*
X41005Y-34230D01*
X41019Y-34244D01*
X41014Y-34250D01*
X41019Y-34255D01*
X41005Y-34269D01*
X41000Y-34264D01*
X40994Y-34269D01*
X40980Y-34255D01*
X40985Y-34250D01*
X40604Y-33868D01*
X40506Y-33880D01*
X40486Y-33833D01*
X40416Y-33763D01*
X40381Y-33748D01*
X40381Y-31645D01*
X40000Y-31264D01*
X39985Y-31278D01*
X39985Y-31250D01*
X39604Y-30868D01*
X39478Y-30883D01*
X39378Y-31110D01*
X39372Y-31359D01*
X39461Y-31591D01*
X39478Y-31616D01*
X39604Y-31631D01*
X39985Y-31250D01*
X39985Y-31278D01*
X39618Y-31645D01*
X39633Y-31771D01*
X39860Y-31871D01*
X40109Y-31877D01*
X40341Y-31788D01*
X40366Y-31771D01*
X40381Y-31645D01*
X40381Y-33748D01*
X40324Y-33725D01*
X40300Y-33725D01*
X40300Y-33250D01*
X40277Y-33135D01*
X40277Y-33135D01*
X40212Y-33037D01*
X38529Y-31355D01*
X38621Y-31393D01*
X38877Y-31393D01*
X39114Y-31295D01*
X39295Y-31114D01*
X39393Y-30878D01*
X39393Y-30622D01*
X39295Y-30385D01*
X39252Y-30342D01*
X39364Y-30295D01*
X39545Y-30114D01*
X39643Y-29878D01*
X39643Y-29622D01*
X39545Y-29385D01*
X39364Y-29204D01*
X39128Y-29106D01*
X38872Y-29106D01*
X38807Y-29133D01*
X38699Y-29024D01*
X38853Y-29025D01*
X39047Y-28945D01*
X39194Y-28797D01*
X39250Y-28664D01*
X39304Y-28797D01*
X39452Y-28944D01*
X39645Y-29024D01*
X39853Y-29025D01*
X40047Y-28945D01*
X40194Y-28797D01*
X40250Y-28664D01*
X40304Y-28797D01*
X40452Y-28944D01*
X40645Y-29024D01*
X40853Y-29025D01*
X40950Y-28985D01*
X40950Y-29500D01*
X40972Y-29614D01*
X41037Y-29712D01*
X41200Y-29874D01*
X41200Y-30764D01*
X41104Y-30725D01*
X40896Y-30724D01*
X40703Y-30804D01*
X40555Y-30952D01*
X40555Y-30952D01*
X40538Y-30908D01*
X40521Y-30883D01*
X40395Y-30868D01*
X40381Y-30882D01*
X40381Y-30854D01*
X40366Y-30728D01*
X40139Y-30628D01*
X39890Y-30622D01*
X39658Y-30711D01*
X39633Y-30728D01*
X39618Y-30854D01*
X40000Y-31235D01*
X40381Y-30854D01*
X40381Y-30882D01*
X40014Y-31250D01*
X40395Y-31631D01*
X40521Y-31616D01*
X40553Y-31543D01*
X40554Y-31547D01*
X40702Y-31694D01*
X40895Y-31774D01*
X41103Y-31775D01*
X41200Y-31735D01*
X41200Y-33655D01*
G36*
X41479Y-49600D02*
X40230Y-49600D01*
X40666Y-49436D01*
X40752Y-49379D01*
X40877Y-49159D01*
X39842Y-48124D01*
X38807Y-49159D01*
X38933Y-49379D01*
X39420Y-49600D01*
X38270Y-49600D01*
X38318Y-49568D01*
X38568Y-49318D01*
X38665Y-49172D01*
X38683Y-49082D01*
X38793Y-49145D01*
X39828Y-48110D01*
X39822Y-48104D01*
X39836Y-48090D01*
X39842Y-48096D01*
X39848Y-48090D01*
X39862Y-48104D01*
X39856Y-48110D01*
X40891Y-49145D01*
X41059Y-49049D01*
X41084Y-49172D01*
X41181Y-49318D01*
X41431Y-49568D01*
X41479Y-49600D01*
X41479Y-49600D01*
G37*
X41479Y-49600D02*
X40230Y-49600D01*
X40666Y-49436D01*
X40752Y-49379D01*
X40877Y-49159D01*
X39842Y-48124D01*
X38807Y-49159D01*
X38933Y-49379D01*
X39420Y-49600D01*
X38270Y-49600D01*
X38318Y-49568D01*
X38568Y-49318D01*
X38665Y-49172D01*
X38683Y-49082D01*
X38793Y-49145D01*
X39828Y-48110D01*
X39822Y-48104D01*
X39836Y-48090D01*
X39842Y-48096D01*
X39848Y-48090D01*
X39862Y-48104D01*
X39856Y-48110D01*
X40891Y-49145D01*
X41059Y-49049D01*
X41084Y-49172D01*
X41181Y-49318D01*
X41431Y-49568D01*
X41479Y-49600D01*
G36*
X43531Y-20705D02*
X43454Y-20891D01*
X43454Y-21050D01*
X43436Y-21050D01*
X43168Y-20781D01*
X43022Y-20684D01*
X42965Y-20673D01*
X42796Y-20559D01*
X42572Y-20515D01*
X42251Y-20515D01*
X40944Y-19207D01*
X41034Y-19049D01*
X40000Y-18014D01*
X39994Y-18019D01*
X39980Y-18005D01*
X39985Y-18000D01*
X39980Y-17994D01*
X39994Y-17980D01*
X40000Y-17985D01*
X40005Y-17980D01*
X40019Y-17994D01*
X40014Y-18000D01*
X41049Y-19034D01*
X41268Y-18909D01*
X41520Y-18354D01*
X41540Y-17745D01*
X41370Y-17294D01*
X42623Y-18547D01*
X42575Y-18665D01*
X42574Y-18834D01*
X42639Y-18990D01*
X42747Y-19098D01*
X42722Y-19135D01*
X42700Y-19250D01*
X42700Y-19750D01*
X42722Y-19864D01*
X42787Y-19962D01*
X43531Y-20705D01*
X43531Y-20705D01*
G37*
X43531Y-20705D02*
X43454Y-20891D01*
X43454Y-21050D01*
X43436Y-21050D01*
X43168Y-20781D01*
X43022Y-20684D01*
X42965Y-20673D01*
X42796Y-20559D01*
X42572Y-20515D01*
X42251Y-20515D01*
X40944Y-19207D01*
X41034Y-19049D01*
X40000Y-18014D01*
X39994Y-18019D01*
X39980Y-18005D01*
X39985Y-18000D01*
X39980Y-17994D01*
X39994Y-17980D01*
X40000Y-17985D01*
X40005Y-17980D01*
X40019Y-17994D01*
X40014Y-18000D01*
X41049Y-19034D01*
X41268Y-18909D01*
X41520Y-18354D01*
X41540Y-17745D01*
X41370Y-17294D01*
X42623Y-18547D01*
X42575Y-18665D01*
X42574Y-18834D01*
X42639Y-18990D01*
X42747Y-19098D01*
X42722Y-19135D01*
X42700Y-19250D01*
X42700Y-19750D01*
X42722Y-19864D01*
X42787Y-19962D01*
X43531Y-20705D01*
G36*
X43550Y-25800D02*
X43192Y-25800D01*
X43194Y-25797D01*
X43274Y-25604D01*
X43275Y-25396D01*
X43195Y-25203D01*
X43047Y-25055D01*
X42854Y-24975D01*
X42646Y-24974D01*
X42453Y-25054D01*
X42305Y-25202D01*
X42249Y-25335D01*
X42195Y-25203D01*
X42047Y-25055D01*
X41854Y-24975D01*
X41646Y-24974D01*
X41453Y-25054D01*
X41305Y-25202D01*
X41249Y-25335D01*
X41195Y-25203D01*
X41050Y-25057D01*
X41050Y-24069D01*
X41050Y-23930D01*
X41050Y-22197D01*
X40962Y-22110D01*
X37610Y-22110D01*
X37610Y-24262D01*
X37697Y-24350D01*
X40769Y-24350D01*
X40898Y-24296D01*
X40996Y-24198D01*
X41050Y-24069D01*
X41050Y-25057D01*
X41047Y-25055D01*
X40854Y-24975D01*
X40646Y-24974D01*
X40453Y-25054D01*
X40305Y-25202D01*
X40249Y-25335D01*
X40195Y-25203D01*
X40047Y-25055D01*
X39854Y-24975D01*
X39646Y-24974D01*
X39453Y-25054D01*
X39305Y-25202D01*
X39249Y-25335D01*
X39195Y-25203D01*
X39047Y-25055D01*
X38854Y-24975D01*
X38646Y-24974D01*
X38453Y-25054D01*
X38305Y-25202D01*
X38249Y-25335D01*
X38195Y-25203D01*
X38047Y-25055D01*
X37854Y-24975D01*
X37646Y-24974D01*
X37453Y-25054D01*
X37305Y-25202D01*
X37249Y-25335D01*
X37200Y-25214D01*
X37200Y-25071D01*
X37212Y-25059D01*
X37295Y-24858D01*
X37295Y-24641D01*
X37212Y-24441D01*
X37121Y-24350D01*
X37502Y-24350D01*
X37590Y-24262D01*
X37590Y-22110D01*
X37582Y-22110D01*
X37582Y-22090D01*
X37590Y-22090D01*
X37590Y-22082D01*
X37610Y-22082D01*
X37610Y-22090D01*
X40962Y-22090D01*
X41050Y-22002D01*
X41050Y-20586D01*
X41308Y-20844D01*
X41287Y-20876D01*
X41242Y-21100D01*
X41287Y-21323D01*
X41413Y-21513D01*
X41464Y-21547D01*
X41354Y-21623D01*
X41209Y-21847D01*
X41171Y-21983D01*
X41248Y-22090D01*
X42190Y-22090D01*
X42190Y-22082D01*
X42210Y-22082D01*
X42210Y-22090D01*
X42217Y-22090D01*
X42217Y-22110D01*
X42210Y-22110D01*
X42210Y-22117D01*
X42190Y-22117D01*
X42190Y-22110D01*
X41248Y-22110D01*
X41171Y-22216D01*
X41209Y-22352D01*
X41354Y-22576D01*
X41464Y-22652D01*
X41413Y-22686D01*
X41287Y-22876D01*
X41242Y-23100D01*
X41287Y-23323D01*
X41413Y-23513D01*
X41603Y-23640D01*
X41827Y-23684D01*
X42572Y-23684D01*
X42796Y-23640D01*
X42800Y-23637D01*
X42800Y-24250D01*
X42834Y-24422D01*
X42931Y-24568D01*
X43181Y-24818D01*
X43327Y-24915D01*
X43500Y-24950D01*
X43550Y-24950D01*
X43550Y-25800D01*
X43550Y-25800D01*
G37*
X43550Y-25800D02*
X43192Y-25800D01*
X43194Y-25797D01*
X43274Y-25604D01*
X43275Y-25396D01*
X43195Y-25203D01*
X43047Y-25055D01*
X42854Y-24975D01*
X42646Y-24974D01*
X42453Y-25054D01*
X42305Y-25202D01*
X42249Y-25335D01*
X42195Y-25203D01*
X42047Y-25055D01*
X41854Y-24975D01*
X41646Y-24974D01*
X41453Y-25054D01*
X41305Y-25202D01*
X41249Y-25335D01*
X41195Y-25203D01*
X41050Y-25057D01*
X41050Y-24069D01*
X41050Y-23930D01*
X41050Y-22197D01*
X40962Y-22110D01*
X37610Y-22110D01*
X37610Y-24262D01*
X37697Y-24350D01*
X40769Y-24350D01*
X40898Y-24296D01*
X40996Y-24198D01*
X41050Y-24069D01*
X41050Y-25057D01*
X41047Y-25055D01*
X40854Y-24975D01*
X40646Y-24974D01*
X40453Y-25054D01*
X40305Y-25202D01*
X40249Y-25335D01*
X40195Y-25203D01*
X40047Y-25055D01*
X39854Y-24975D01*
X39646Y-24974D01*
X39453Y-25054D01*
X39305Y-25202D01*
X39249Y-25335D01*
X39195Y-25203D01*
X39047Y-25055D01*
X38854Y-24975D01*
X38646Y-24974D01*
X38453Y-25054D01*
X38305Y-25202D01*
X38249Y-25335D01*
X38195Y-25203D01*
X38047Y-25055D01*
X37854Y-24975D01*
X37646Y-24974D01*
X37453Y-25054D01*
X37305Y-25202D01*
X37249Y-25335D01*
X37200Y-25214D01*
X37200Y-25071D01*
X37212Y-25059D01*
X37295Y-24858D01*
X37295Y-24641D01*
X37212Y-24441D01*
X37121Y-24350D01*
X37502Y-24350D01*
X37590Y-24262D01*
X37590Y-22110D01*
X37582Y-22110D01*
X37582Y-22090D01*
X37590Y-22090D01*
X37590Y-22082D01*
X37610Y-22082D01*
X37610Y-22090D01*
X40962Y-22090D01*
X41050Y-22002D01*
X41050Y-20586D01*
X41308Y-20844D01*
X41287Y-20876D01*
X41242Y-21100D01*
X41287Y-21323D01*
X41413Y-21513D01*
X41464Y-21547D01*
X41354Y-21623D01*
X41209Y-21847D01*
X41171Y-21983D01*
X41248Y-22090D01*
X42190Y-22090D01*
X42190Y-22082D01*
X42210Y-22082D01*
X42210Y-22090D01*
X42217Y-22090D01*
X42217Y-22110D01*
X42210Y-22110D01*
X42210Y-22117D01*
X42190Y-22117D01*
X42190Y-22110D01*
X41248Y-22110D01*
X41171Y-22216D01*
X41209Y-22352D01*
X41354Y-22576D01*
X41464Y-22652D01*
X41413Y-22686D01*
X41287Y-22876D01*
X41242Y-23100D01*
X41287Y-23323D01*
X41413Y-23513D01*
X41603Y-23640D01*
X41827Y-23684D01*
X42572Y-23684D01*
X42796Y-23640D01*
X42800Y-23637D01*
X42800Y-24250D01*
X42834Y-24422D01*
X42931Y-24568D01*
X43181Y-24818D01*
X43327Y-24915D01*
X43500Y-24950D01*
X43550Y-24950D01*
X43550Y-25800D01*
G36*
X43667Y-38310D02*
X43660Y-38310D01*
X43660Y-38317D01*
X43640Y-38317D01*
X43640Y-38310D01*
X43632Y-38310D01*
X43632Y-38290D01*
X43640Y-38290D01*
X43640Y-38282D01*
X43660Y-38282D01*
X43660Y-38290D01*
X43667Y-38290D01*
X43667Y-38310D01*
X43667Y-38310D01*
G37*
X43667Y-38310D02*
X43660Y-38310D01*
X43660Y-38317D01*
X43640Y-38317D01*
X43640Y-38310D01*
X43632Y-38310D01*
X43632Y-38290D01*
X43640Y-38290D01*
X43640Y-38282D01*
X43660Y-38282D01*
X43660Y-38290D01*
X43667Y-38290D01*
X43667Y-38310D01*
G36*
X44019Y-22755D02*
X44005Y-22769D01*
X44000Y-22764D01*
X43994Y-22769D01*
X43980Y-22755D01*
X43985Y-22750D01*
X43980Y-22744D01*
X43994Y-22730D01*
X44000Y-22735D01*
X44005Y-22730D01*
X44019Y-22744D01*
X44014Y-22750D01*
X44019Y-22755D01*
X44019Y-22755D01*
G37*
X44019Y-22755D02*
X44005Y-22769D01*
X44000Y-22764D01*
X43994Y-22769D01*
X43980Y-22755D01*
X43985Y-22750D01*
X43980Y-22744D01*
X43994Y-22730D01*
X44000Y-22735D01*
X44005Y-22730D01*
X44019Y-22744D01*
X44014Y-22750D01*
X44019Y-22755D01*
G36*
X44300Y-29109D02*
X44214Y-29144D01*
X44144Y-29214D01*
X44106Y-29306D01*
X44106Y-29406D01*
X44106Y-29657D01*
X43038Y-30725D01*
X42896Y-30724D01*
X42800Y-30764D01*
X42800Y-30500D01*
X42777Y-30385D01*
X42777Y-30385D01*
X42751Y-30346D01*
X42748Y-30342D01*
X42871Y-30393D01*
X43127Y-30393D01*
X43364Y-30295D01*
X43545Y-30114D01*
X43643Y-29878D01*
X43643Y-29622D01*
X43545Y-29385D01*
X43377Y-29217D01*
X43377Y-28390D01*
X43288Y-28158D01*
X43271Y-28133D01*
X43145Y-28118D01*
X42764Y-28500D01*
X43145Y-28881D01*
X43271Y-28866D01*
X43371Y-28639D01*
X43377Y-28390D01*
X43377Y-29217D01*
X43364Y-29204D01*
X43128Y-29106D01*
X42914Y-29106D01*
X43091Y-29038D01*
X43116Y-29021D01*
X43131Y-28895D01*
X42750Y-28514D01*
X42744Y-28519D01*
X42730Y-28505D01*
X42735Y-28500D01*
X42730Y-28494D01*
X42744Y-28480D01*
X42750Y-28485D01*
X43131Y-28104D01*
X43116Y-27978D01*
X42889Y-27878D01*
X42640Y-27872D01*
X42550Y-27907D01*
X42550Y-27801D01*
X42610Y-27741D01*
X42674Y-27584D01*
X42675Y-27415D01*
X42610Y-27259D01*
X42491Y-27139D01*
X42334Y-27075D01*
X42165Y-27074D01*
X42009Y-27139D01*
X41889Y-27258D01*
X41825Y-27415D01*
X41824Y-27584D01*
X41889Y-27740D01*
X41950Y-27801D01*
X41950Y-28014D01*
X41854Y-27975D01*
X41646Y-27974D01*
X41550Y-28014D01*
X41550Y-28000D01*
X41527Y-27885D01*
X41527Y-27885D01*
X41462Y-27787D01*
X40924Y-27250D01*
X40925Y-27165D01*
X40860Y-27009D01*
X40741Y-26889D01*
X40584Y-26825D01*
X40415Y-26824D01*
X40259Y-26889D01*
X40139Y-27008D01*
X40075Y-27165D01*
X40074Y-27334D01*
X40139Y-27490D01*
X40258Y-27610D01*
X40415Y-27674D01*
X40500Y-27675D01*
X40800Y-27975D01*
X40646Y-27974D01*
X40453Y-28054D01*
X40305Y-28202D01*
X40249Y-28335D01*
X40195Y-28203D01*
X40047Y-28055D01*
X39854Y-27975D01*
X39646Y-27974D01*
X39453Y-28054D01*
X39305Y-28202D01*
X39249Y-28335D01*
X39195Y-28203D01*
X39047Y-28055D01*
X38854Y-27975D01*
X38646Y-27974D01*
X38453Y-28054D01*
X38305Y-28202D01*
X38249Y-28335D01*
X38195Y-28203D01*
X38047Y-28055D01*
X37854Y-27975D01*
X37646Y-27974D01*
X37453Y-28054D01*
X37305Y-28202D01*
X37275Y-28274D01*
X37275Y-28175D01*
X37236Y-28083D01*
X37166Y-28013D01*
X37074Y-27975D01*
X36975Y-27975D01*
X36450Y-27975D01*
X36450Y-26536D01*
X37036Y-25949D01*
X37047Y-25945D01*
X37194Y-25797D01*
X37250Y-25664D01*
X37304Y-25797D01*
X37452Y-25944D01*
X37645Y-26024D01*
X37853Y-26025D01*
X38047Y-25945D01*
X38194Y-25797D01*
X38250Y-25664D01*
X38304Y-25797D01*
X38452Y-25944D01*
X38645Y-26024D01*
X38853Y-26025D01*
X39047Y-25945D01*
X39194Y-25797D01*
X39250Y-25664D01*
X39304Y-25797D01*
X39452Y-25944D01*
X39645Y-26024D01*
X39853Y-26025D01*
X40047Y-25945D01*
X40194Y-25797D01*
X40250Y-25664D01*
X40304Y-25797D01*
X40452Y-25944D01*
X40645Y-26024D01*
X40853Y-26025D01*
X41047Y-25945D01*
X41194Y-25797D01*
X41250Y-25664D01*
X41304Y-25797D01*
X41452Y-25944D01*
X41645Y-26024D01*
X41853Y-26025D01*
X42047Y-25945D01*
X42194Y-25797D01*
X42250Y-25664D01*
X42304Y-25797D01*
X42435Y-25928D01*
X42368Y-25994D01*
X42300Y-26160D01*
X42299Y-26339D01*
X42368Y-26504D01*
X42494Y-26631D01*
X42577Y-26665D01*
X42660Y-26699D01*
X42750Y-26700D01*
X42839Y-26700D01*
X42839Y-26700D01*
X43813Y-26700D01*
X44300Y-27186D01*
X44300Y-29109D01*
X44300Y-29109D01*
G37*
X44300Y-29109D02*
X44214Y-29144D01*
X44144Y-29214D01*
X44106Y-29306D01*
X44106Y-29406D01*
X44106Y-29657D01*
X43038Y-30725D01*
X42896Y-30724D01*
X42800Y-30764D01*
X42800Y-30500D01*
X42777Y-30385D01*
X42777Y-30385D01*
X42751Y-30346D01*
X42748Y-30342D01*
X42871Y-30393D01*
X43127Y-30393D01*
X43364Y-30295D01*
X43545Y-30114D01*
X43643Y-29878D01*
X43643Y-29622D01*
X43545Y-29385D01*
X43377Y-29217D01*
X43377Y-28390D01*
X43288Y-28158D01*
X43271Y-28133D01*
X43145Y-28118D01*
X42764Y-28500D01*
X43145Y-28881D01*
X43271Y-28866D01*
X43371Y-28639D01*
X43377Y-28390D01*
X43377Y-29217D01*
X43364Y-29204D01*
X43128Y-29106D01*
X42914Y-29106D01*
X43091Y-29038D01*
X43116Y-29021D01*
X43131Y-28895D01*
X42750Y-28514D01*
X42744Y-28519D01*
X42730Y-28505D01*
X42735Y-28500D01*
X42730Y-28494D01*
X42744Y-28480D01*
X42750Y-28485D01*
X43131Y-28104D01*
X43116Y-27978D01*
X42889Y-27878D01*
X42640Y-27872D01*
X42550Y-27907D01*
X42550Y-27801D01*
X42610Y-27741D01*
X42674Y-27584D01*
X42675Y-27415D01*
X42610Y-27259D01*
X42491Y-27139D01*
X42334Y-27075D01*
X42165Y-27074D01*
X42009Y-27139D01*
X41889Y-27258D01*
X41825Y-27415D01*
X41824Y-27584D01*
X41889Y-27740D01*
X41950Y-27801D01*
X41950Y-28014D01*
X41854Y-27975D01*
X41646Y-27974D01*
X41550Y-28014D01*
X41550Y-28000D01*
X41527Y-27885D01*
X41527Y-27885D01*
X41462Y-27787D01*
X40924Y-27250D01*
X40925Y-27165D01*
X40860Y-27009D01*
X40741Y-26889D01*
X40584Y-26825D01*
X40415Y-26824D01*
X40259Y-26889D01*
X40139Y-27008D01*
X40075Y-27165D01*
X40074Y-27334D01*
X40139Y-27490D01*
X40258Y-27610D01*
X40415Y-27674D01*
X40500Y-27675D01*
X40800Y-27975D01*
X40646Y-27974D01*
X40453Y-28054D01*
X40305Y-28202D01*
X40249Y-28335D01*
X40195Y-28203D01*
X40047Y-28055D01*
X39854Y-27975D01*
X39646Y-27974D01*
X39453Y-28054D01*
X39305Y-28202D01*
X39249Y-28335D01*
X39195Y-28203D01*
X39047Y-28055D01*
X38854Y-27975D01*
X38646Y-27974D01*
X38453Y-28054D01*
X38305Y-28202D01*
X38249Y-28335D01*
X38195Y-28203D01*
X38047Y-28055D01*
X37854Y-27975D01*
X37646Y-27974D01*
X37453Y-28054D01*
X37305Y-28202D01*
X37275Y-28274D01*
X37275Y-28175D01*
X37236Y-28083D01*
X37166Y-28013D01*
X37074Y-27975D01*
X36975Y-27975D01*
X36450Y-27975D01*
X36450Y-26536D01*
X37036Y-25949D01*
X37047Y-25945D01*
X37194Y-25797D01*
X37250Y-25664D01*
X37304Y-25797D01*
X37452Y-25944D01*
X37645Y-26024D01*
X37853Y-26025D01*
X38047Y-25945D01*
X38194Y-25797D01*
X38250Y-25664D01*
X38304Y-25797D01*
X38452Y-25944D01*
X38645Y-26024D01*
X38853Y-26025D01*
X39047Y-25945D01*
X39194Y-25797D01*
X39250Y-25664D01*
X39304Y-25797D01*
X39452Y-25944D01*
X39645Y-26024D01*
X39853Y-26025D01*
X40047Y-25945D01*
X40194Y-25797D01*
X40250Y-25664D01*
X40304Y-25797D01*
X40452Y-25944D01*
X40645Y-26024D01*
X40853Y-26025D01*
X41047Y-25945D01*
X41194Y-25797D01*
X41250Y-25664D01*
X41304Y-25797D01*
X41452Y-25944D01*
X41645Y-26024D01*
X41853Y-26025D01*
X42047Y-25945D01*
X42194Y-25797D01*
X42250Y-25664D01*
X42304Y-25797D01*
X42435Y-25928D01*
X42368Y-25994D01*
X42300Y-26160D01*
X42299Y-26339D01*
X42368Y-26504D01*
X42494Y-26631D01*
X42577Y-26665D01*
X42660Y-26699D01*
X42750Y-26700D01*
X42839Y-26700D01*
X42839Y-26700D01*
X43813Y-26700D01*
X44300Y-27186D01*
X44300Y-29109D01*
G36*
X44850Y-34448D02*
X44628Y-34356D01*
X44372Y-34356D01*
X44135Y-34454D01*
X43954Y-34635D01*
X43856Y-34871D01*
X43856Y-35127D01*
X43954Y-35364D01*
X44135Y-35545D01*
X44326Y-35624D01*
X44147Y-35694D01*
X44121Y-35711D01*
X44103Y-35839D01*
X44500Y-36235D01*
X44505Y-36230D01*
X44519Y-36244D01*
X44514Y-36250D01*
X44519Y-36255D01*
X44505Y-36269D01*
X44500Y-36264D01*
X44103Y-36660D01*
X44113Y-36733D01*
X44022Y-36715D01*
X43950Y-36715D01*
X43950Y-36611D01*
X43961Y-36628D01*
X44089Y-36646D01*
X44485Y-36250D01*
X44089Y-35853D01*
X43961Y-35871D01*
X43940Y-35919D01*
X43809Y-35787D01*
X43608Y-35704D01*
X43391Y-35704D01*
X43191Y-35787D01*
X43050Y-35928D01*
X43050Y-35000D01*
X43027Y-34885D01*
X43027Y-34885D01*
X43001Y-34846D01*
X42962Y-34787D01*
X42949Y-34774D01*
X43103Y-34775D01*
X43297Y-34695D01*
X43444Y-34547D01*
X43524Y-34354D01*
X43525Y-34146D01*
X43445Y-33953D01*
X43297Y-33805D01*
X43104Y-33725D01*
X42896Y-33724D01*
X42800Y-33764D01*
X42800Y-31735D01*
X42883Y-31770D01*
X44850Y-33736D01*
X44850Y-34448D01*
X44850Y-34448D01*
G37*
X44850Y-34448D02*
X44628Y-34356D01*
X44372Y-34356D01*
X44135Y-34454D01*
X43954Y-34635D01*
X43856Y-34871D01*
X43856Y-35127D01*
X43954Y-35364D01*
X44135Y-35545D01*
X44326Y-35624D01*
X44147Y-35694D01*
X44121Y-35711D01*
X44103Y-35839D01*
X44500Y-36235D01*
X44505Y-36230D01*
X44519Y-36244D01*
X44514Y-36250D01*
X44519Y-36255D01*
X44505Y-36269D01*
X44500Y-36264D01*
X44103Y-36660D01*
X44113Y-36733D01*
X44022Y-36715D01*
X43950Y-36715D01*
X43950Y-36611D01*
X43961Y-36628D01*
X44089Y-36646D01*
X44485Y-36250D01*
X44089Y-35853D01*
X43961Y-35871D01*
X43940Y-35919D01*
X43809Y-35787D01*
X43608Y-35704D01*
X43391Y-35704D01*
X43191Y-35787D01*
X43050Y-35928D01*
X43050Y-35000D01*
X43027Y-34885D01*
X43027Y-34885D01*
X43001Y-34846D01*
X42962Y-34787D01*
X42949Y-34774D01*
X43103Y-34775D01*
X43297Y-34695D01*
X43444Y-34547D01*
X43524Y-34354D01*
X43525Y-34146D01*
X43445Y-33953D01*
X43297Y-33805D01*
X43104Y-33725D01*
X42896Y-33724D01*
X42800Y-33764D01*
X42800Y-31735D01*
X42883Y-31770D01*
X44850Y-33736D01*
X44850Y-34448D01*
G36*
X45550Y-48313D02*
X45063Y-48800D01*
X41950Y-48800D01*
X41950Y-47250D01*
X41915Y-47077D01*
X41818Y-46931D01*
X41540Y-46653D01*
X41540Y-41745D01*
X41325Y-41175D01*
X41268Y-41090D01*
X41049Y-40965D01*
X40014Y-42000D01*
X41049Y-43034D01*
X41268Y-42909D01*
X41520Y-42354D01*
X41540Y-41745D01*
X41540Y-46653D01*
X41068Y-46181D01*
X41034Y-46159D01*
X41034Y-43049D01*
X40000Y-42014D01*
X39985Y-42028D01*
X39985Y-42000D01*
X38950Y-40965D01*
X38731Y-41090D01*
X38479Y-41645D01*
X38459Y-42254D01*
X38674Y-42824D01*
X38731Y-42909D01*
X38950Y-43034D01*
X39985Y-42000D01*
X39985Y-42028D01*
X38965Y-43049D01*
X39090Y-43268D01*
X39645Y-43520D01*
X40254Y-43540D01*
X40824Y-43325D01*
X40909Y-43268D01*
X41034Y-43049D01*
X41034Y-46159D01*
X40922Y-46084D01*
X40750Y-46050D01*
X39000Y-46050D01*
X38827Y-46084D01*
X38681Y-46181D01*
X37931Y-46931D01*
X37834Y-47077D01*
X37800Y-47250D01*
X37800Y-48800D01*
X33936Y-48800D01*
X33581Y-48444D01*
X33545Y-48262D01*
X33417Y-48071D01*
X33310Y-48000D01*
X33417Y-47928D01*
X33545Y-47737D01*
X33548Y-47719D01*
X33596Y-47751D01*
X33635Y-47777D01*
X33635Y-47777D01*
X33750Y-47800D01*
X34000Y-47800D01*
X34000Y-47799D01*
X34114Y-47777D01*
X34114Y-47777D01*
X34212Y-47712D01*
X34962Y-46962D01*
X35027Y-46864D01*
X35027Y-46864D01*
X35050Y-46750D01*
X35050Y-45374D01*
X36212Y-44212D01*
X36277Y-44114D01*
X36299Y-44000D01*
X36300Y-44000D01*
X36300Y-43250D01*
X36277Y-43135D01*
X36212Y-43037D01*
X36212Y-43037D01*
X35800Y-42625D01*
X35800Y-40516D01*
X35880Y-40550D01*
X38952Y-40550D01*
X39040Y-40462D01*
X39040Y-38310D01*
X39032Y-38310D01*
X39032Y-38290D01*
X39040Y-38290D01*
X39040Y-36137D01*
X38952Y-36050D01*
X37652Y-36050D01*
X37652Y-35136D01*
X37559Y-34895D01*
X37541Y-34868D01*
X37413Y-34850D01*
X37014Y-35250D01*
X37413Y-35649D01*
X37541Y-35631D01*
X37646Y-35394D01*
X37652Y-35136D01*
X37652Y-36050D01*
X37399Y-36050D01*
X37399Y-35663D01*
X37000Y-35264D01*
X36600Y-35663D01*
X36618Y-35791D01*
X36855Y-35896D01*
X37113Y-35902D01*
X37354Y-35809D01*
X37381Y-35791D01*
X37399Y-35663D01*
X37399Y-36050D01*
X35880Y-36050D01*
X35751Y-36103D01*
X35653Y-36201D01*
X35600Y-36330D01*
X35600Y-36469D01*
X35600Y-36675D01*
X35280Y-36356D01*
X35315Y-36320D01*
X35378Y-36257D01*
X35411Y-36178D01*
X35415Y-36172D01*
X35417Y-36165D01*
X35447Y-36092D01*
X35447Y-36012D01*
X35450Y-36000D01*
X35450Y-35336D01*
X35494Y-35381D01*
X35577Y-35415D01*
X35660Y-35449D01*
X35750Y-35450D01*
X35839Y-35450D01*
X35867Y-35438D01*
X35889Y-35490D01*
X36008Y-35610D01*
X36165Y-35674D01*
X36334Y-35675D01*
X36454Y-35625D01*
X36458Y-35631D01*
X36586Y-35649D01*
X36985Y-35250D01*
X36980Y-35244D01*
X36994Y-35230D01*
X37000Y-35235D01*
X37399Y-34836D01*
X37381Y-34708D01*
X37338Y-34689D01*
X37465Y-34561D01*
X37549Y-34359D01*
X37550Y-34141D01*
X37466Y-33938D01*
X37311Y-33784D01*
X37300Y-33779D01*
X37300Y-33624D01*
X37462Y-33462D01*
X37462Y-33462D01*
X37501Y-33403D01*
X37527Y-33364D01*
X37527Y-33364D01*
X37549Y-33253D01*
X37678Y-33167D01*
X37806Y-32975D01*
X37851Y-32750D01*
X37806Y-32524D01*
X37678Y-32332D01*
X37554Y-32250D01*
X37678Y-32167D01*
X37804Y-31978D01*
X38450Y-32624D01*
X38450Y-34177D01*
X38385Y-34204D01*
X38204Y-34385D01*
X38106Y-34621D01*
X38106Y-34877D01*
X38204Y-35114D01*
X38385Y-35295D01*
X38621Y-35393D01*
X38877Y-35393D01*
X39114Y-35295D01*
X39295Y-35114D01*
X39393Y-34878D01*
X39393Y-34622D01*
X39295Y-34385D01*
X39114Y-34204D01*
X39050Y-34177D01*
X39050Y-32724D01*
X39700Y-33374D01*
X39700Y-33725D01*
X39675Y-33725D01*
X39583Y-33763D01*
X39513Y-33833D01*
X39475Y-33925D01*
X39475Y-34024D01*
X39475Y-34574D01*
X39513Y-34666D01*
X39583Y-34736D01*
X39639Y-34760D01*
X39575Y-34915D01*
X39574Y-35084D01*
X39639Y-35240D01*
X39758Y-35360D01*
X39915Y-35424D01*
X40084Y-35425D01*
X40240Y-35360D01*
X40354Y-35246D01*
X40351Y-35362D01*
X40444Y-35602D01*
X40461Y-35628D01*
X40589Y-35646D01*
X40985Y-35250D01*
X40980Y-35244D01*
X40994Y-35230D01*
X41000Y-35235D01*
X41005Y-35230D01*
X41019Y-35244D01*
X41014Y-35250D01*
X41410Y-35646D01*
X41538Y-35628D01*
X41559Y-35580D01*
X41690Y-35712D01*
X41891Y-35795D01*
X42108Y-35795D01*
X42308Y-35712D01*
X42450Y-35571D01*
X42450Y-36209D01*
X42446Y-36201D01*
X42348Y-36103D01*
X42219Y-36050D01*
X41396Y-36050D01*
X41396Y-35660D01*
X41000Y-35264D01*
X40603Y-35660D01*
X40621Y-35788D01*
X40856Y-35892D01*
X41112Y-35898D01*
X41352Y-35805D01*
X41378Y-35788D01*
X41396Y-35660D01*
X41396Y-36050D01*
X39147Y-36050D01*
X39060Y-36137D01*
X39060Y-38290D01*
X39067Y-38290D01*
X39067Y-38310D01*
X39060Y-38310D01*
X39060Y-40462D01*
X39147Y-40550D01*
X39505Y-40550D01*
X39175Y-40674D01*
X39090Y-40731D01*
X38965Y-40950D01*
X40000Y-41985D01*
X41034Y-40950D01*
X40909Y-40731D01*
X40509Y-40550D01*
X42219Y-40550D01*
X42348Y-40496D01*
X42356Y-40488D01*
X42356Y-40627D01*
X42454Y-40864D01*
X42635Y-41045D01*
X42871Y-41143D01*
X43127Y-41143D01*
X43192Y-41116D01*
X43450Y-41374D01*
X43450Y-43939D01*
X43437Y-43880D01*
X43167Y-43760D01*
X42871Y-43752D01*
X42595Y-43858D01*
X42562Y-43880D01*
X42532Y-44018D01*
X43000Y-44485D01*
X43005Y-44480D01*
X43019Y-44494D01*
X43014Y-44500D01*
X43019Y-44505D01*
X43005Y-44519D01*
X43000Y-44514D01*
X42985Y-44528D01*
X42985Y-44500D01*
X42518Y-44032D01*
X42380Y-44062D01*
X42260Y-44332D01*
X42252Y-44628D01*
X42358Y-44904D01*
X42380Y-44937D01*
X42518Y-44967D01*
X42985Y-44500D01*
X42985Y-44528D01*
X42532Y-44981D01*
X42562Y-45119D01*
X42832Y-45239D01*
X43128Y-45247D01*
X43295Y-45182D01*
X43287Y-45190D01*
X43204Y-45391D01*
X43204Y-45608D01*
X43287Y-45808D01*
X43440Y-45962D01*
X43641Y-46045D01*
X43858Y-46045D01*
X43878Y-46037D01*
X43825Y-46165D01*
X43824Y-46334D01*
X43889Y-46490D01*
X44008Y-46610D01*
X44165Y-46674D01*
X44334Y-46675D01*
X44490Y-46610D01*
X44551Y-46550D01*
X45000Y-46550D01*
X45000Y-46549D01*
X45114Y-46527D01*
X45114Y-46527D01*
X45212Y-46462D01*
X45550Y-46124D01*
X45550Y-48313D01*
X45550Y-48313D01*
G37*
X45550Y-48313D02*
X45063Y-48800D01*
X41950Y-48800D01*
X41950Y-47250D01*
X41915Y-47077D01*
X41818Y-46931D01*
X41540Y-46653D01*
X41540Y-41745D01*
X41325Y-41175D01*
X41268Y-41090D01*
X41049Y-40965D01*
X40014Y-42000D01*
X41049Y-43034D01*
X41268Y-42909D01*
X41520Y-42354D01*
X41540Y-41745D01*
X41540Y-46653D01*
X41068Y-46181D01*
X41034Y-46159D01*
X41034Y-43049D01*
X40000Y-42014D01*
X39985Y-42028D01*
X39985Y-42000D01*
X38950Y-40965D01*
X38731Y-41090D01*
X38479Y-41645D01*
X38459Y-42254D01*
X38674Y-42824D01*
X38731Y-42909D01*
X38950Y-43034D01*
X39985Y-42000D01*
X39985Y-42028D01*
X38965Y-43049D01*
X39090Y-43268D01*
X39645Y-43520D01*
X40254Y-43540D01*
X40824Y-43325D01*
X40909Y-43268D01*
X41034Y-43049D01*
X41034Y-46159D01*
X40922Y-46084D01*
X40750Y-46050D01*
X39000Y-46050D01*
X38827Y-46084D01*
X38681Y-46181D01*
X37931Y-46931D01*
X37834Y-47077D01*
X37800Y-47250D01*
X37800Y-48800D01*
X33936Y-48800D01*
X33581Y-48444D01*
X33545Y-48262D01*
X33417Y-48071D01*
X33310Y-48000D01*
X33417Y-47928D01*
X33545Y-47737D01*
X33548Y-47719D01*
X33596Y-47751D01*
X33635Y-47777D01*
X33635Y-47777D01*
X33750Y-47800D01*
X34000Y-47800D01*
X34000Y-47799D01*
X34114Y-47777D01*
X34114Y-47777D01*
X34212Y-47712D01*
X34962Y-46962D01*
X35027Y-46864D01*
X35027Y-46864D01*
X35050Y-46750D01*
X35050Y-45374D01*
X36212Y-44212D01*
X36277Y-44114D01*
X36299Y-44000D01*
X36300Y-44000D01*
X36300Y-43250D01*
X36277Y-43135D01*
X36212Y-43037D01*
X36212Y-43037D01*
X35800Y-42625D01*
X35800Y-40516D01*
X35880Y-40550D01*
X38952Y-40550D01*
X39040Y-40462D01*
X39040Y-38310D01*
X39032Y-38310D01*
X39032Y-38290D01*
X39040Y-38290D01*
X39040Y-36137D01*
X38952Y-36050D01*
X37652Y-36050D01*
X37652Y-35136D01*
X37559Y-34895D01*
X37541Y-34868D01*
X37413Y-34850D01*
X37014Y-35250D01*
X37413Y-35649D01*
X37541Y-35631D01*
X37646Y-35394D01*
X37652Y-35136D01*
X37652Y-36050D01*
X37399Y-36050D01*
X37399Y-35663D01*
X37000Y-35264D01*
X36600Y-35663D01*
X36618Y-35791D01*
X36855Y-35896D01*
X37113Y-35902D01*
X37354Y-35809D01*
X37381Y-35791D01*
X37399Y-35663D01*
X37399Y-36050D01*
X35880Y-36050D01*
X35751Y-36103D01*
X35653Y-36201D01*
X35600Y-36330D01*
X35600Y-36469D01*
X35600Y-36675D01*
X35280Y-36356D01*
X35315Y-36320D01*
X35378Y-36257D01*
X35411Y-36178D01*
X35415Y-36172D01*
X35417Y-36165D01*
X35447Y-36092D01*
X35447Y-36012D01*
X35450Y-36000D01*
X35450Y-35336D01*
X35494Y-35381D01*
X35577Y-35415D01*
X35660Y-35449D01*
X35750Y-35450D01*
X35839Y-35450D01*
X35867Y-35438D01*
X35889Y-35490D01*
X36008Y-35610D01*
X36165Y-35674D01*
X36334Y-35675D01*
X36454Y-35625D01*
X36458Y-35631D01*
X36586Y-35649D01*
X36985Y-35250D01*
X36980Y-35244D01*
X36994Y-35230D01*
X37000Y-35235D01*
X37399Y-34836D01*
X37381Y-34708D01*
X37338Y-34689D01*
X37465Y-34561D01*
X37549Y-34359D01*
X37550Y-34141D01*
X37466Y-33938D01*
X37311Y-33784D01*
X37300Y-33779D01*
X37300Y-33624D01*
X37462Y-33462D01*
X37462Y-33462D01*
X37501Y-33403D01*
X37527Y-33364D01*
X37527Y-33364D01*
X37549Y-33253D01*
X37678Y-33167D01*
X37806Y-32975D01*
X37851Y-32750D01*
X37806Y-32524D01*
X37678Y-32332D01*
X37554Y-32250D01*
X37678Y-32167D01*
X37804Y-31978D01*
X38450Y-32624D01*
X38450Y-34177D01*
X38385Y-34204D01*
X38204Y-34385D01*
X38106Y-34621D01*
X38106Y-34877D01*
X38204Y-35114D01*
X38385Y-35295D01*
X38621Y-35393D01*
X38877Y-35393D01*
X39114Y-35295D01*
X39295Y-35114D01*
X39393Y-34878D01*
X39393Y-34622D01*
X39295Y-34385D01*
X39114Y-34204D01*
X39050Y-34177D01*
X39050Y-32724D01*
X39700Y-33374D01*
X39700Y-33725D01*
X39675Y-33725D01*
X39583Y-33763D01*
X39513Y-33833D01*
X39475Y-33925D01*
X39475Y-34024D01*
X39475Y-34574D01*
X39513Y-34666D01*
X39583Y-34736D01*
X39639Y-34760D01*
X39575Y-34915D01*
X39574Y-35084D01*
X39639Y-35240D01*
X39758Y-35360D01*
X39915Y-35424D01*
X40084Y-35425D01*
X40240Y-35360D01*
X40354Y-35246D01*
X40351Y-35362D01*
X40444Y-35602D01*
X40461Y-35628D01*
X40589Y-35646D01*
X40985Y-35250D01*
X40980Y-35244D01*
X40994Y-35230D01*
X41000Y-35235D01*
X41005Y-35230D01*
X41019Y-35244D01*
X41014Y-35250D01*
X41410Y-35646D01*
X41538Y-35628D01*
X41559Y-35580D01*
X41690Y-35712D01*
X41891Y-35795D01*
X42108Y-35795D01*
X42308Y-35712D01*
X42450Y-35571D01*
X42450Y-36209D01*
X42446Y-36201D01*
X42348Y-36103D01*
X42219Y-36050D01*
X41396Y-36050D01*
X41396Y-35660D01*
X41000Y-35264D01*
X40603Y-35660D01*
X40621Y-35788D01*
X40856Y-35892D01*
X41112Y-35898D01*
X41352Y-35805D01*
X41378Y-35788D01*
X41396Y-35660D01*
X41396Y-36050D01*
X39147Y-36050D01*
X39060Y-36137D01*
X39060Y-38290D01*
X39067Y-38290D01*
X39067Y-38310D01*
X39060Y-38310D01*
X39060Y-40462D01*
X39147Y-40550D01*
X39505Y-40550D01*
X39175Y-40674D01*
X39090Y-40731D01*
X38965Y-40950D01*
X40000Y-41985D01*
X41034Y-40950D01*
X40909Y-40731D01*
X40509Y-40550D01*
X42219Y-40550D01*
X42348Y-40496D01*
X42356Y-40488D01*
X42356Y-40627D01*
X42454Y-40864D01*
X42635Y-41045D01*
X42871Y-41143D01*
X43127Y-41143D01*
X43192Y-41116D01*
X43450Y-41374D01*
X43450Y-43939D01*
X43437Y-43880D01*
X43167Y-43760D01*
X42871Y-43752D01*
X42595Y-43858D01*
X42562Y-43880D01*
X42532Y-44018D01*
X43000Y-44485D01*
X43005Y-44480D01*
X43019Y-44494D01*
X43014Y-44500D01*
X43019Y-44505D01*
X43005Y-44519D01*
X43000Y-44514D01*
X42985Y-44528D01*
X42985Y-44500D01*
X42518Y-44032D01*
X42380Y-44062D01*
X42260Y-44332D01*
X42252Y-44628D01*
X42358Y-44904D01*
X42380Y-44937D01*
X42518Y-44967D01*
X42985Y-44500D01*
X42985Y-44528D01*
X42532Y-44981D01*
X42562Y-45119D01*
X42832Y-45239D01*
X43128Y-45247D01*
X43295Y-45182D01*
X43287Y-45190D01*
X43204Y-45391D01*
X43204Y-45608D01*
X43287Y-45808D01*
X43440Y-45962D01*
X43641Y-46045D01*
X43858Y-46045D01*
X43878Y-46037D01*
X43825Y-46165D01*
X43824Y-46334D01*
X43889Y-46490D01*
X44008Y-46610D01*
X44165Y-46674D01*
X44334Y-46675D01*
X44490Y-46610D01*
X44551Y-46550D01*
X45000Y-46550D01*
X45000Y-46549D01*
X45114Y-46527D01*
X45114Y-46527D01*
X45212Y-46462D01*
X45550Y-46124D01*
X45550Y-48313D01*
G36*
X46250Y-40213D02*
X45681Y-40781D01*
X45584Y-40927D01*
X45550Y-41100D01*
X45550Y-42163D01*
X45505Y-42118D01*
X45505Y-42118D01*
X44950Y-41563D01*
X44950Y-40960D01*
X45045Y-40864D01*
X45143Y-40628D01*
X45143Y-40372D01*
X45045Y-40135D01*
X44900Y-39989D01*
X44900Y-39819D01*
X44929Y-39891D01*
X45028Y-39990D01*
X45156Y-40043D01*
X45522Y-40043D01*
X45610Y-39956D01*
X45610Y-39310D01*
X45602Y-39310D01*
X45602Y-39290D01*
X45610Y-39290D01*
X45610Y-38644D01*
X45522Y-38556D01*
X45479Y-38556D01*
X45618Y-38418D01*
X45683Y-38320D01*
X45920Y-38556D01*
X45717Y-38556D01*
X45630Y-38644D01*
X45630Y-39290D01*
X45637Y-39290D01*
X45637Y-39310D01*
X45630Y-39310D01*
X45630Y-39956D01*
X45717Y-40043D01*
X46083Y-40043D01*
X46211Y-39990D01*
X46250Y-39951D01*
X46250Y-40213D01*
X46250Y-40213D01*
G37*
X46250Y-40213D02*
X45681Y-40781D01*
X45584Y-40927D01*
X45550Y-41100D01*
X45550Y-42163D01*
X45505Y-42118D01*
X45505Y-42118D01*
X44950Y-41563D01*
X44950Y-40960D01*
X45045Y-40864D01*
X45143Y-40628D01*
X45143Y-40372D01*
X45045Y-40135D01*
X44900Y-39989D01*
X44900Y-39819D01*
X44929Y-39891D01*
X45028Y-39990D01*
X45156Y-40043D01*
X45522Y-40043D01*
X45610Y-39956D01*
X45610Y-39310D01*
X45602Y-39310D01*
X45602Y-39290D01*
X45610Y-39290D01*
X45610Y-38644D01*
X45522Y-38556D01*
X45479Y-38556D01*
X45618Y-38418D01*
X45683Y-38320D01*
X45920Y-38556D01*
X45717Y-38556D01*
X45630Y-38644D01*
X45630Y-39290D01*
X45637Y-39290D01*
X45637Y-39310D01*
X45630Y-39310D01*
X45630Y-39956D01*
X45717Y-40043D01*
X46083Y-40043D01*
X46211Y-39990D01*
X46250Y-39951D01*
X46250Y-40213D01*
G36*
X46689Y-16000D02*
X46637Y-16034D01*
X46568Y-15931D01*
X46318Y-15682D01*
X46255Y-15618D01*
X46089Y-15550D01*
X45910Y-15549D01*
X45745Y-15618D01*
X45618Y-15744D01*
X45550Y-15910D01*
X45549Y-16089D01*
X45618Y-16254D01*
X45744Y-16381D01*
X45744Y-16381D01*
X45800Y-16436D01*
X45800Y-17625D01*
X45300Y-17125D01*
X45300Y-16072D01*
X45364Y-16045D01*
X45545Y-15864D01*
X45643Y-15628D01*
X45643Y-15372D01*
X45545Y-15135D01*
X45364Y-14954D01*
X45128Y-14856D01*
X44872Y-14856D01*
X44635Y-14954D01*
X44454Y-15135D01*
X44374Y-15327D01*
X44295Y-15135D01*
X44114Y-14954D01*
X43878Y-14856D01*
X43622Y-14856D01*
X43385Y-14954D01*
X43204Y-15135D01*
X43106Y-15371D01*
X43106Y-15627D01*
X43204Y-15864D01*
X43385Y-16045D01*
X43450Y-16072D01*
X43450Y-16372D01*
X43334Y-16325D01*
X43249Y-16324D01*
X42212Y-15287D01*
X42114Y-15222D01*
X42000Y-15200D01*
X38250Y-15200D01*
X38135Y-15222D01*
X38037Y-15287D01*
X37000Y-16325D01*
X36915Y-16324D01*
X36759Y-16389D01*
X36639Y-16508D01*
X36575Y-16665D01*
X36574Y-16834D01*
X36639Y-16990D01*
X36648Y-16999D01*
X36639Y-17008D01*
X36575Y-17165D01*
X36574Y-17334D01*
X36639Y-17490D01*
X36648Y-17499D01*
X36639Y-17508D01*
X36575Y-17665D01*
X36574Y-17834D01*
X36639Y-17990D01*
X36648Y-17999D01*
X36639Y-18008D01*
X36575Y-18165D01*
X36574Y-18334D01*
X36639Y-18490D01*
X36648Y-18499D01*
X36639Y-18508D01*
X36575Y-18665D01*
X36574Y-18834D01*
X36639Y-18990D01*
X36698Y-19050D01*
X35436Y-19050D01*
X33686Y-17300D01*
X35250Y-17300D01*
X35250Y-17299D01*
X35364Y-17277D01*
X35364Y-17277D01*
X35462Y-17212D01*
X36249Y-16424D01*
X36334Y-16425D01*
X36490Y-16360D01*
X36610Y-16241D01*
X36674Y-16084D01*
X36675Y-15915D01*
X36610Y-15759D01*
X36491Y-15639D01*
X36334Y-15575D01*
X36165Y-15574D01*
X36009Y-15639D01*
X35889Y-15758D01*
X35825Y-15915D01*
X35824Y-16000D01*
X35125Y-16700D01*
X33648Y-16700D01*
X33679Y-16617D01*
X33602Y-16510D01*
X33010Y-16510D01*
X33010Y-16517D01*
X32990Y-16517D01*
X32990Y-16510D01*
X32602Y-16510D01*
X32397Y-16510D01*
X32010Y-16510D01*
X32010Y-16517D01*
X31990Y-16517D01*
X31990Y-16510D01*
X31397Y-16510D01*
X31320Y-16617D01*
X31351Y-16700D01*
X31000Y-16700D01*
X30885Y-16722D01*
X30787Y-16787D01*
X30500Y-17075D01*
X30415Y-17074D01*
X30259Y-17139D01*
X30139Y-17258D01*
X30075Y-17415D01*
X30074Y-17584D01*
X30139Y-17740D01*
X30258Y-17860D01*
X30334Y-17891D01*
X30325Y-17915D01*
X30324Y-18084D01*
X30389Y-18240D01*
X30450Y-18301D01*
X30450Y-18525D01*
X30424Y-18500D01*
X30425Y-18415D01*
X30360Y-18259D01*
X30241Y-18139D01*
X30084Y-18075D01*
X29915Y-18074D01*
X29800Y-18122D01*
X29800Y-17750D01*
X29777Y-17635D01*
X29777Y-17635D01*
X29751Y-17596D01*
X29712Y-17537D01*
X29674Y-17500D01*
X29675Y-17415D01*
X29610Y-17259D01*
X29512Y-17161D01*
X30374Y-16300D01*
X31351Y-16300D01*
X31320Y-16382D01*
X31397Y-16490D01*
X31990Y-16490D01*
X31990Y-16482D01*
X32010Y-16482D01*
X32010Y-16490D01*
X32397Y-16490D01*
X32602Y-16490D01*
X32990Y-16490D01*
X32990Y-16482D01*
X33010Y-16482D01*
X33010Y-16490D01*
X33602Y-16490D01*
X33679Y-16382D01*
X33583Y-16130D01*
X33400Y-15939D01*
X33417Y-15928D01*
X33545Y-15737D01*
X33590Y-15511D01*
X33590Y-15488D01*
X33545Y-15262D01*
X33417Y-15071D01*
X33310Y-15000D01*
X33417Y-14928D01*
X33545Y-14737D01*
X33590Y-14511D01*
X33590Y-14488D01*
X33545Y-14262D01*
X33417Y-14071D01*
X33310Y-14000D01*
X33417Y-13928D01*
X33545Y-13737D01*
X33590Y-13511D01*
X33590Y-13488D01*
X33545Y-13262D01*
X33417Y-13071D01*
X33310Y-13000D01*
X33417Y-12928D01*
X33545Y-12737D01*
X33590Y-12511D01*
X33590Y-12488D01*
X33545Y-12262D01*
X33417Y-12071D01*
X33310Y-12000D01*
X33417Y-11928D01*
X33545Y-11737D01*
X33590Y-11511D01*
X33590Y-11488D01*
X33545Y-11262D01*
X33503Y-11200D01*
X36313Y-11200D01*
X38931Y-13818D01*
X39077Y-13915D01*
X39250Y-13950D01*
X40750Y-13950D01*
X40922Y-13915D01*
X41068Y-13818D01*
X42936Y-11950D01*
X46614Y-11950D01*
X46689Y-12000D01*
X46582Y-12071D01*
X46454Y-12262D01*
X46410Y-12488D01*
X46410Y-12511D01*
X46454Y-12737D01*
X46582Y-12928D01*
X46689Y-13000D01*
X46582Y-13071D01*
X46454Y-13262D01*
X46410Y-13488D01*
X46410Y-13511D01*
X46454Y-13737D01*
X46582Y-13928D01*
X46689Y-14000D01*
X46582Y-14071D01*
X46454Y-14262D01*
X46410Y-14488D01*
X46410Y-14511D01*
X46454Y-14737D01*
X46582Y-14928D01*
X46689Y-15000D01*
X46582Y-15071D01*
X46454Y-15262D01*
X46410Y-15488D01*
X46410Y-15511D01*
X46454Y-15737D01*
X46582Y-15928D01*
X46689Y-16000D01*
X46689Y-16000D01*
G37*
X46689Y-16000D02*
X46637Y-16034D01*
X46568Y-15931D01*
X46318Y-15682D01*
X46255Y-15618D01*
X46089Y-15550D01*
X45910Y-15549D01*
X45745Y-15618D01*
X45618Y-15744D01*
X45550Y-15910D01*
X45549Y-16089D01*
X45618Y-16254D01*
X45744Y-16381D01*
X45744Y-16381D01*
X45800Y-16436D01*
X45800Y-17625D01*
X45300Y-17125D01*
X45300Y-16072D01*
X45364Y-16045D01*
X45545Y-15864D01*
X45643Y-15628D01*
X45643Y-15372D01*
X45545Y-15135D01*
X45364Y-14954D01*
X45128Y-14856D01*
X44872Y-14856D01*
X44635Y-14954D01*
X44454Y-15135D01*
X44374Y-15327D01*
X44295Y-15135D01*
X44114Y-14954D01*
X43878Y-14856D01*
X43622Y-14856D01*
X43385Y-14954D01*
X43204Y-15135D01*
X43106Y-15371D01*
X43106Y-15627D01*
X43204Y-15864D01*
X43385Y-16045D01*
X43450Y-16072D01*
X43450Y-16372D01*
X43334Y-16325D01*
X43249Y-16324D01*
X42212Y-15287D01*
X42114Y-15222D01*
X42000Y-15200D01*
X38250Y-15200D01*
X38135Y-15222D01*
X38037Y-15287D01*
X37000Y-16325D01*
X36915Y-16324D01*
X36759Y-16389D01*
X36639Y-16508D01*
X36575Y-16665D01*
X36574Y-16834D01*
X36639Y-16990D01*
X36648Y-16999D01*
X36639Y-17008D01*
X36575Y-17165D01*
X36574Y-17334D01*
X36639Y-17490D01*
X36648Y-17499D01*
X36639Y-17508D01*
X36575Y-17665D01*
X36574Y-17834D01*
X36639Y-17990D01*
X36648Y-17999D01*
X36639Y-18008D01*
X36575Y-18165D01*
X36574Y-18334D01*
X36639Y-18490D01*
X36648Y-18499D01*
X36639Y-18508D01*
X36575Y-18665D01*
X36574Y-18834D01*
X36639Y-18990D01*
X36698Y-19050D01*
X35436Y-19050D01*
X33686Y-17300D01*
X35250Y-17300D01*
X35250Y-17299D01*
X35364Y-17277D01*
X35364Y-17277D01*
X35462Y-17212D01*
X36249Y-16424D01*
X36334Y-16425D01*
X36490Y-16360D01*
X36610Y-16241D01*
X36674Y-16084D01*
X36675Y-15915D01*
X36610Y-15759D01*
X36491Y-15639D01*
X36334Y-15575D01*
X36165Y-15574D01*
X36009Y-15639D01*
X35889Y-15758D01*
X35825Y-15915D01*
X35824Y-16000D01*
X35125Y-16700D01*
X33648Y-16700D01*
X33679Y-16617D01*
X33602Y-16510D01*
X33010Y-16510D01*
X33010Y-16517D01*
X32990Y-16517D01*
X32990Y-16510D01*
X32602Y-16510D01*
X32397Y-16510D01*
X32010Y-16510D01*
X32010Y-16517D01*
X31990Y-16517D01*
X31990Y-16510D01*
X31397Y-16510D01*
X31320Y-16617D01*
X31351Y-16700D01*
X31000Y-16700D01*
X30885Y-16722D01*
X30787Y-16787D01*
X30500Y-17075D01*
X30415Y-17074D01*
X30259Y-17139D01*
X30139Y-17258D01*
X30075Y-17415D01*
X30074Y-17584D01*
X30139Y-17740D01*
X30258Y-17860D01*
X30334Y-17891D01*
X30325Y-17915D01*
X30324Y-18084D01*
X30389Y-18240D01*
X30450Y-18301D01*
X30450Y-18525D01*
X30424Y-18500D01*
X30425Y-18415D01*
X30360Y-18259D01*
X30241Y-18139D01*
X30084Y-18075D01*
X29915Y-18074D01*
X29800Y-18122D01*
X29800Y-17750D01*
X29777Y-17635D01*
X29777Y-17635D01*
X29751Y-17596D01*
X29712Y-17537D01*
X29674Y-17500D01*
X29675Y-17415D01*
X29610Y-17259D01*
X29512Y-17161D01*
X30374Y-16300D01*
X31351Y-16300D01*
X31320Y-16382D01*
X31397Y-16490D01*
X31990Y-16490D01*
X31990Y-16482D01*
X32010Y-16482D01*
X32010Y-16490D01*
X32397Y-16490D01*
X32602Y-16490D01*
X32990Y-16490D01*
X32990Y-16482D01*
X33010Y-16482D01*
X33010Y-16490D01*
X33602Y-16490D01*
X33679Y-16382D01*
X33583Y-16130D01*
X33400Y-15939D01*
X33417Y-15928D01*
X33545Y-15737D01*
X33590Y-15511D01*
X33590Y-15488D01*
X33545Y-15262D01*
X33417Y-15071D01*
X33310Y-15000D01*
X33417Y-14928D01*
X33545Y-14737D01*
X33590Y-14511D01*
X33590Y-14488D01*
X33545Y-14262D01*
X33417Y-14071D01*
X33310Y-14000D01*
X33417Y-13928D01*
X33545Y-13737D01*
X33590Y-13511D01*
X33590Y-13488D01*
X33545Y-13262D01*
X33417Y-13071D01*
X33310Y-13000D01*
X33417Y-12928D01*
X33545Y-12737D01*
X33590Y-12511D01*
X33590Y-12488D01*
X33545Y-12262D01*
X33417Y-12071D01*
X33310Y-12000D01*
X33417Y-11928D01*
X33545Y-11737D01*
X33590Y-11511D01*
X33590Y-11488D01*
X33545Y-11262D01*
X33503Y-11200D01*
X36313Y-11200D01*
X38931Y-13818D01*
X39077Y-13915D01*
X39250Y-13950D01*
X40750Y-13950D01*
X40922Y-13915D01*
X41068Y-13818D01*
X42936Y-11950D01*
X46614Y-11950D01*
X46689Y-12000D01*
X46582Y-12071D01*
X46454Y-12262D01*
X46410Y-12488D01*
X46410Y-12511D01*
X46454Y-12737D01*
X46582Y-12928D01*
X46689Y-13000D01*
X46582Y-13071D01*
X46454Y-13262D01*
X46410Y-13488D01*
X46410Y-13511D01*
X46454Y-13737D01*
X46582Y-13928D01*
X46689Y-14000D01*
X46582Y-14071D01*
X46454Y-14262D01*
X46410Y-14488D01*
X46410Y-14511D01*
X46454Y-14737D01*
X46582Y-14928D01*
X46689Y-15000D01*
X46582Y-15071D01*
X46454Y-15262D01*
X46410Y-15488D01*
X46410Y-15511D01*
X46454Y-15737D01*
X46582Y-15928D01*
X46689Y-16000D01*
G36*
X46800Y-22300D02*
X46717Y-22300D01*
X46717Y-20731D01*
X46250Y-20264D01*
X46235Y-20278D01*
X46235Y-20250D01*
X45768Y-19782D01*
X45630Y-19812D01*
X45510Y-20082D01*
X45502Y-20378D01*
X45608Y-20654D01*
X45630Y-20687D01*
X45768Y-20717D01*
X46235Y-20250D01*
X46235Y-20278D01*
X45782Y-20731D01*
X45812Y-20869D01*
X46082Y-20989D01*
X46378Y-20997D01*
X46654Y-20891D01*
X46687Y-20869D01*
X46717Y-20731D01*
X46717Y-22300D01*
X45648Y-22300D01*
X45648Y-20887D01*
X45555Y-20647D01*
X45538Y-20621D01*
X45410Y-20603D01*
X45014Y-21000D01*
X45410Y-21396D01*
X45538Y-21378D01*
X45642Y-21143D01*
X45648Y-20887D01*
X45648Y-22300D01*
X45321Y-22300D01*
X45309Y-22287D01*
X45108Y-22204D01*
X44891Y-22204D01*
X44800Y-22242D01*
X44800Y-21617D01*
X44856Y-21642D01*
X45112Y-21648D01*
X45352Y-21555D01*
X45378Y-21538D01*
X45396Y-21410D01*
X45000Y-21014D01*
X44994Y-21019D01*
X44980Y-21005D01*
X44985Y-21000D01*
X44980Y-20994D01*
X44994Y-20980D01*
X45000Y-20985D01*
X45396Y-20589D01*
X45378Y-20461D01*
X45143Y-20357D01*
X44887Y-20351D01*
X44647Y-20444D01*
X44630Y-20455D01*
X44462Y-20287D01*
X44364Y-20222D01*
X44250Y-20200D01*
X43874Y-20200D01*
X43817Y-20143D01*
X43877Y-20143D01*
X44114Y-20045D01*
X44295Y-19864D01*
X44375Y-19672D01*
X44454Y-19864D01*
X44635Y-20045D01*
X44871Y-20143D01*
X45127Y-20143D01*
X45364Y-20045D01*
X45545Y-19864D01*
X45643Y-19628D01*
X45643Y-19415D01*
X45665Y-19424D01*
X45834Y-19425D01*
X45835Y-19424D01*
X45931Y-19568D01*
X45937Y-19573D01*
X45845Y-19608D01*
X45812Y-19630D01*
X45782Y-19768D01*
X46250Y-20235D01*
X46255Y-20230D01*
X46269Y-20244D01*
X46264Y-20250D01*
X46731Y-20717D01*
X46800Y-20702D01*
X46800Y-22300D01*
X46800Y-22300D01*
G37*
X46800Y-22300D02*
X46717Y-22300D01*
X46717Y-20731D01*
X46250Y-20264D01*
X46235Y-20278D01*
X46235Y-20250D01*
X45768Y-19782D01*
X45630Y-19812D01*
X45510Y-20082D01*
X45502Y-20378D01*
X45608Y-20654D01*
X45630Y-20687D01*
X45768Y-20717D01*
X46235Y-20250D01*
X46235Y-20278D01*
X45782Y-20731D01*
X45812Y-20869D01*
X46082Y-20989D01*
X46378Y-20997D01*
X46654Y-20891D01*
X46687Y-20869D01*
X46717Y-20731D01*
X46717Y-22300D01*
X45648Y-22300D01*
X45648Y-20887D01*
X45555Y-20647D01*
X45538Y-20621D01*
X45410Y-20603D01*
X45014Y-21000D01*
X45410Y-21396D01*
X45538Y-21378D01*
X45642Y-21143D01*
X45648Y-20887D01*
X45648Y-22300D01*
X45321Y-22300D01*
X45309Y-22287D01*
X45108Y-22204D01*
X44891Y-22204D01*
X44800Y-22242D01*
X44800Y-21617D01*
X44856Y-21642D01*
X45112Y-21648D01*
X45352Y-21555D01*
X45378Y-21538D01*
X45396Y-21410D01*
X45000Y-21014D01*
X44994Y-21019D01*
X44980Y-21005D01*
X44985Y-21000D01*
X44980Y-20994D01*
X44994Y-20980D01*
X45000Y-20985D01*
X45396Y-20589D01*
X45378Y-20461D01*
X45143Y-20357D01*
X44887Y-20351D01*
X44647Y-20444D01*
X44630Y-20455D01*
X44462Y-20287D01*
X44364Y-20222D01*
X44250Y-20200D01*
X43874Y-20200D01*
X43817Y-20143D01*
X43877Y-20143D01*
X44114Y-20045D01*
X44295Y-19864D01*
X44375Y-19672D01*
X44454Y-19864D01*
X44635Y-20045D01*
X44871Y-20143D01*
X45127Y-20143D01*
X45364Y-20045D01*
X45545Y-19864D01*
X45643Y-19628D01*
X45643Y-19415D01*
X45665Y-19424D01*
X45834Y-19425D01*
X45835Y-19424D01*
X45931Y-19568D01*
X45937Y-19573D01*
X45845Y-19608D01*
X45812Y-19630D01*
X45782Y-19768D01*
X46250Y-20235D01*
X46255Y-20230D01*
X46269Y-20244D01*
X46264Y-20250D01*
X46731Y-20717D01*
X46800Y-20702D01*
X46800Y-22300D01*
G36*
X48208Y-19560D02*
X48097Y-19560D01*
X48010Y-19647D01*
X48010Y-20240D01*
X48017Y-20240D01*
X48017Y-20260D01*
X48010Y-20260D01*
X48010Y-20267D01*
X47990Y-20267D01*
X47990Y-20260D01*
X47982Y-20260D01*
X47982Y-20240D01*
X47990Y-20240D01*
X47990Y-19647D01*
X47902Y-19560D01*
X47729Y-19560D01*
X47590Y-19560D01*
X47461Y-19613D01*
X47363Y-19711D01*
X47358Y-19722D01*
X46700Y-19063D01*
X46700Y-19007D01*
X46774Y-19056D01*
X47000Y-19101D01*
X47225Y-19056D01*
X47417Y-18928D01*
X47422Y-18920D01*
X47448Y-18981D01*
X47518Y-19051D01*
X47610Y-19090D01*
X47709Y-19090D01*
X48106Y-19090D01*
X48075Y-19165D01*
X48074Y-19334D01*
X48139Y-19490D01*
X48208Y-19560D01*
X48208Y-19560D01*
G37*
X48208Y-19560D02*
X48097Y-19560D01*
X48010Y-19647D01*
X48010Y-20240D01*
X48017Y-20240D01*
X48017Y-20260D01*
X48010Y-20260D01*
X48010Y-20267D01*
X47990Y-20267D01*
X47990Y-20260D01*
X47982Y-20260D01*
X47982Y-20240D01*
X47990Y-20240D01*
X47990Y-19647D01*
X47902Y-19560D01*
X47729Y-19560D01*
X47590Y-19560D01*
X47461Y-19613D01*
X47363Y-19711D01*
X47358Y-19722D01*
X46700Y-19063D01*
X46700Y-19007D01*
X46774Y-19056D01*
X47000Y-19101D01*
X47225Y-19056D01*
X47417Y-18928D01*
X47422Y-18920D01*
X47448Y-18981D01*
X47518Y-19051D01*
X47610Y-19090D01*
X47709Y-19090D01*
X48106Y-19090D01*
X48075Y-19165D01*
X48074Y-19334D01*
X48139Y-19490D01*
X48208Y-19560D01*
G36*
X48550Y-30063D02*
X48402Y-30210D01*
X48402Y-28886D01*
X48309Y-28645D01*
X48291Y-28618D01*
X48163Y-28600D01*
X47764Y-29000D01*
X48163Y-29399D01*
X48291Y-29381D01*
X48396Y-29144D01*
X48402Y-28886D01*
X48402Y-30210D01*
X48070Y-30542D01*
X48061Y-30534D01*
X47980Y-30500D01*
X48061Y-30466D01*
X48215Y-30311D01*
X48299Y-30109D01*
X48300Y-29891D01*
X48216Y-29688D01*
X48092Y-29564D01*
X48104Y-29559D01*
X48131Y-29541D01*
X48149Y-29413D01*
X47750Y-29014D01*
X47735Y-29028D01*
X47735Y-29000D01*
X47336Y-28600D01*
X47250Y-28612D01*
X47163Y-28600D01*
X46764Y-29000D01*
X47163Y-29399D01*
X47250Y-29387D01*
X47336Y-29399D01*
X47735Y-29000D01*
X47735Y-29028D01*
X47350Y-29413D01*
X47368Y-29541D01*
X47411Y-29560D01*
X47284Y-29688D01*
X47250Y-29769D01*
X47216Y-29688D01*
X47092Y-29564D01*
X47104Y-29559D01*
X47131Y-29541D01*
X47149Y-29413D01*
X46750Y-29014D01*
X46744Y-29019D01*
X46730Y-29005D01*
X46735Y-29000D01*
X46730Y-28994D01*
X46744Y-28980D01*
X46750Y-28985D01*
X47149Y-28586D01*
X47141Y-28532D01*
X47191Y-28511D01*
X47261Y-28441D01*
X47300Y-28349D01*
X47300Y-28327D01*
X47407Y-28435D01*
X47395Y-28440D01*
X47368Y-28458D01*
X47350Y-28586D01*
X47750Y-28985D01*
X48149Y-28586D01*
X48131Y-28458D01*
X48088Y-28439D01*
X48215Y-28311D01*
X48299Y-28109D01*
X48300Y-27891D01*
X48216Y-27688D01*
X48061Y-27534D01*
X47859Y-27450D01*
X47641Y-27449D01*
X47438Y-27533D01*
X47300Y-27672D01*
X47300Y-27650D01*
X47261Y-27558D01*
X47200Y-27496D01*
X47200Y-27436D01*
X47568Y-27068D01*
X47665Y-26922D01*
X47700Y-26750D01*
X47700Y-25764D01*
X47882Y-25839D01*
X48116Y-25840D01*
X48333Y-25750D01*
X48499Y-25584D01*
X48550Y-25463D01*
X48550Y-30063D01*
X48550Y-30063D01*
G37*
X48550Y-30063D02*
X48402Y-30210D01*
X48402Y-28886D01*
X48309Y-28645D01*
X48291Y-28618D01*
X48163Y-28600D01*
X47764Y-29000D01*
X48163Y-29399D01*
X48291Y-29381D01*
X48396Y-29144D01*
X48402Y-28886D01*
X48402Y-30210D01*
X48070Y-30542D01*
X48061Y-30534D01*
X47980Y-30500D01*
X48061Y-30466D01*
X48215Y-30311D01*
X48299Y-30109D01*
X48300Y-29891D01*
X48216Y-29688D01*
X48092Y-29564D01*
X48104Y-29559D01*
X48131Y-29541D01*
X48149Y-29413D01*
X47750Y-29014D01*
X47735Y-29028D01*
X47735Y-29000D01*
X47336Y-28600D01*
X47250Y-28612D01*
X47163Y-28600D01*
X46764Y-29000D01*
X47163Y-29399D01*
X47250Y-29387D01*
X47336Y-29399D01*
X47735Y-29000D01*
X47735Y-29028D01*
X47350Y-29413D01*
X47368Y-29541D01*
X47411Y-29560D01*
X47284Y-29688D01*
X47250Y-29769D01*
X47216Y-29688D01*
X47092Y-29564D01*
X47104Y-29559D01*
X47131Y-29541D01*
X47149Y-29413D01*
X46750Y-29014D01*
X46744Y-29019D01*
X46730Y-29005D01*
X46735Y-29000D01*
X46730Y-28994D01*
X46744Y-28980D01*
X46750Y-28985D01*
X47149Y-28586D01*
X47141Y-28532D01*
X47191Y-28511D01*
X47261Y-28441D01*
X47300Y-28349D01*
X47300Y-28327D01*
X47407Y-28435D01*
X47395Y-28440D01*
X47368Y-28458D01*
X47350Y-28586D01*
X47750Y-28985D01*
X48149Y-28586D01*
X48131Y-28458D01*
X48088Y-28439D01*
X48215Y-28311D01*
X48299Y-28109D01*
X48300Y-27891D01*
X48216Y-27688D01*
X48061Y-27534D01*
X47859Y-27450D01*
X47641Y-27449D01*
X47438Y-27533D01*
X47300Y-27672D01*
X47300Y-27650D01*
X47261Y-27558D01*
X47200Y-27496D01*
X47200Y-27436D01*
X47568Y-27068D01*
X47665Y-26922D01*
X47700Y-26750D01*
X47700Y-25764D01*
X47882Y-25839D01*
X48116Y-25840D01*
X48333Y-25750D01*
X48499Y-25584D01*
X48550Y-25463D01*
X48550Y-30063D01*
G36*
X49600Y-49600D02*
X45520Y-49600D01*
X45568Y-49568D01*
X46318Y-48818D01*
X46415Y-48672D01*
X46428Y-48606D01*
X46454Y-48737D01*
X46582Y-48928D01*
X46774Y-49056D01*
X47000Y-49101D01*
X47225Y-49056D01*
X47417Y-48928D01*
X47500Y-48804D01*
X47582Y-48928D01*
X47774Y-49056D01*
X48000Y-49101D01*
X48225Y-49056D01*
X48417Y-48928D01*
X48545Y-48737D01*
X48590Y-48511D01*
X48590Y-48488D01*
X48545Y-48262D01*
X48417Y-48071D01*
X48310Y-48000D01*
X48417Y-47928D01*
X48545Y-47737D01*
X48590Y-47511D01*
X48590Y-47488D01*
X48545Y-47262D01*
X48417Y-47071D01*
X48310Y-47000D01*
X48417Y-46928D01*
X48545Y-46737D01*
X48590Y-46511D01*
X48590Y-46488D01*
X48545Y-46262D01*
X48417Y-46071D01*
X48310Y-46000D01*
X48417Y-45928D01*
X48545Y-45737D01*
X48590Y-45511D01*
X48590Y-45488D01*
X48545Y-45262D01*
X48417Y-45071D01*
X48310Y-45000D01*
X48417Y-44928D01*
X48545Y-44737D01*
X48590Y-44511D01*
X48590Y-44488D01*
X48545Y-44262D01*
X48417Y-44071D01*
X48400Y-44060D01*
X48583Y-43869D01*
X48679Y-43617D01*
X48602Y-43510D01*
X48010Y-43510D01*
X48010Y-43517D01*
X47990Y-43517D01*
X47990Y-43510D01*
X47602Y-43510D01*
X47397Y-43510D01*
X47010Y-43510D01*
X47010Y-43517D01*
X46990Y-43517D01*
X46990Y-43510D01*
X46982Y-43510D01*
X46982Y-43490D01*
X46990Y-43490D01*
X46990Y-43482D01*
X47010Y-43482D01*
X47010Y-43490D01*
X47397Y-43490D01*
X47602Y-43490D01*
X47990Y-43490D01*
X47990Y-43482D01*
X48010Y-43482D01*
X48010Y-43490D01*
X48602Y-43490D01*
X48679Y-43382D01*
X48583Y-43130D01*
X48400Y-42939D01*
X48417Y-42928D01*
X48545Y-42737D01*
X48581Y-42555D01*
X49318Y-41818D01*
X49415Y-41672D01*
X49450Y-41500D01*
X49450Y-38000D01*
X49415Y-37827D01*
X49318Y-37681D01*
X49068Y-37431D01*
X48922Y-37334D01*
X48750Y-37300D01*
X48568Y-37300D01*
X48617Y-37225D01*
X48662Y-37000D01*
X48617Y-36774D01*
X48489Y-36582D01*
X48365Y-36500D01*
X48489Y-36417D01*
X48617Y-36225D01*
X48662Y-36000D01*
X48623Y-35801D01*
X49212Y-35212D01*
X49212Y-35212D01*
X49277Y-35114D01*
X49299Y-35000D01*
X49300Y-35000D01*
X49300Y-34250D01*
X49277Y-34135D01*
X49212Y-34037D01*
X49212Y-34037D01*
X47724Y-32549D01*
X47858Y-32550D01*
X48061Y-32466D01*
X48215Y-32311D01*
X48299Y-32109D01*
X48300Y-31891D01*
X48216Y-31688D01*
X48061Y-31534D01*
X47980Y-31500D01*
X48061Y-31466D01*
X48077Y-31450D01*
X48250Y-31450D01*
X48422Y-31415D01*
X48568Y-31318D01*
X49318Y-30568D01*
X49415Y-30422D01*
X49450Y-30250D01*
X49450Y-12500D01*
X49415Y-12327D01*
X49318Y-12181D01*
X48581Y-11444D01*
X48545Y-11262D01*
X48417Y-11071D01*
X48225Y-10943D01*
X48000Y-10898D01*
X47774Y-10943D01*
X47614Y-11050D01*
X47385Y-11050D01*
X47225Y-10943D01*
X47000Y-10898D01*
X46774Y-10943D01*
X46614Y-11050D01*
X42750Y-11050D01*
X42577Y-11084D01*
X42431Y-11181D01*
X41357Y-12256D01*
X41362Y-12244D01*
X41382Y-11635D01*
X41168Y-11065D01*
X41111Y-10980D01*
X40891Y-10854D01*
X39856Y-11889D01*
X39862Y-11895D01*
X39848Y-11909D01*
X39842Y-11903D01*
X39836Y-11909D01*
X39822Y-11895D01*
X39828Y-11889D01*
X38793Y-10854D01*
X38573Y-10980D01*
X38322Y-11535D01*
X38309Y-11923D01*
X36818Y-10431D01*
X36770Y-10400D01*
X39454Y-10400D01*
X39018Y-10563D01*
X38933Y-10620D01*
X38807Y-10840D01*
X39842Y-11875D01*
X40877Y-10840D01*
X40752Y-10620D01*
X40264Y-10400D01*
X49600Y-10400D01*
X49600Y-49600D01*
X49600Y-49600D01*
G37*
X49600Y-49600D02*
X45520Y-49600D01*
X45568Y-49568D01*
X46318Y-48818D01*
X46415Y-48672D01*
X46428Y-48606D01*
X46454Y-48737D01*
X46582Y-48928D01*
X46774Y-49056D01*
X47000Y-49101D01*
X47225Y-49056D01*
X47417Y-48928D01*
X47500Y-48804D01*
X47582Y-48928D01*
X47774Y-49056D01*
X48000Y-49101D01*
X48225Y-49056D01*
X48417Y-48928D01*
X48545Y-48737D01*
X48590Y-48511D01*
X48590Y-48488D01*
X48545Y-48262D01*
X48417Y-48071D01*
X48310Y-48000D01*
X48417Y-47928D01*
X48545Y-47737D01*
X48590Y-47511D01*
X48590Y-47488D01*
X48545Y-47262D01*
X48417Y-47071D01*
X48310Y-47000D01*
X48417Y-46928D01*
X48545Y-46737D01*
X48590Y-46511D01*
X48590Y-46488D01*
X48545Y-46262D01*
X48417Y-46071D01*
X48310Y-46000D01*
X48417Y-45928D01*
X48545Y-45737D01*
X48590Y-45511D01*
X48590Y-45488D01*
X48545Y-45262D01*
X48417Y-45071D01*
X48310Y-45000D01*
X48417Y-44928D01*
X48545Y-44737D01*
X48590Y-44511D01*
X48590Y-44488D01*
X48545Y-44262D01*
X48417Y-44071D01*
X48400Y-44060D01*
X48583Y-43869D01*
X48679Y-43617D01*
X48602Y-43510D01*
X48010Y-43510D01*
X48010Y-43517D01*
X47990Y-43517D01*
X47990Y-43510D01*
X47602Y-43510D01*
X47397Y-43510D01*
X47010Y-43510D01*
X47010Y-43517D01*
X46990Y-43517D01*
X46990Y-43510D01*
X46982Y-43510D01*
X46982Y-43490D01*
X46990Y-43490D01*
X46990Y-43482D01*
X47010Y-43482D01*
X47010Y-43490D01*
X47397Y-43490D01*
X47602Y-43490D01*
X47990Y-43490D01*
X47990Y-43482D01*
X48010Y-43482D01*
X48010Y-43490D01*
X48602Y-43490D01*
X48679Y-43382D01*
X48583Y-43130D01*
X48400Y-42939D01*
X48417Y-42928D01*
X48545Y-42737D01*
X48581Y-42555D01*
X49318Y-41818D01*
X49415Y-41672D01*
X49450Y-41500D01*
X49450Y-38000D01*
X49415Y-37827D01*
X49318Y-37681D01*
X49068Y-37431D01*
X48922Y-37334D01*
X48750Y-37300D01*
X48568Y-37300D01*
X48617Y-37225D01*
X48662Y-37000D01*
X48617Y-36774D01*
X48489Y-36582D01*
X48365Y-36500D01*
X48489Y-36417D01*
X48617Y-36225D01*
X48662Y-36000D01*
X48623Y-35801D01*
X49212Y-35212D01*
X49212Y-35212D01*
X49277Y-35114D01*
X49299Y-35000D01*
X49300Y-35000D01*
X49300Y-34250D01*
X49277Y-34135D01*
X49212Y-34037D01*
X49212Y-34037D01*
X47724Y-32549D01*
X47858Y-32550D01*
X48061Y-32466D01*
X48215Y-32311D01*
X48299Y-32109D01*
X48300Y-31891D01*
X48216Y-31688D01*
X48061Y-31534D01*
X47980Y-31500D01*
X48061Y-31466D01*
X48077Y-31450D01*
X48250Y-31450D01*
X48422Y-31415D01*
X48568Y-31318D01*
X49318Y-30568D01*
X49415Y-30422D01*
X49450Y-30250D01*
X49450Y-12500D01*
X49415Y-12327D01*
X49318Y-12181D01*
X48581Y-11444D01*
X48545Y-11262D01*
X48417Y-11071D01*
X48225Y-10943D01*
X48000Y-10898D01*
X47774Y-10943D01*
X47614Y-11050D01*
X47385Y-11050D01*
X47225Y-10943D01*
X47000Y-10898D01*
X46774Y-10943D01*
X46614Y-11050D01*
X42750Y-11050D01*
X42577Y-11084D01*
X42431Y-11181D01*
X41357Y-12256D01*
X41362Y-12244D01*
X41382Y-11635D01*
X41168Y-11065D01*
X41111Y-10980D01*
X40891Y-10854D01*
X39856Y-11889D01*
X39862Y-11895D01*
X39848Y-11909D01*
X39842Y-11903D01*
X39836Y-11909D01*
X39822Y-11895D01*
X39828Y-11889D01*
X38793Y-10854D01*
X38573Y-10980D01*
X38322Y-11535D01*
X38309Y-11923D01*
X36818Y-10431D01*
X36770Y-10400D01*
X39454Y-10400D01*
X39018Y-10563D01*
X38933Y-10620D01*
X38807Y-10840D01*
X39842Y-11875D01*
X40877Y-10840D01*
X40752Y-10620D01*
X40264Y-10400D01*
X49600Y-10400D01*
X49600Y-49600D01*
M02*
