%FSLAX34Y34*%
G04 Gerber Fmt 3.4, Leading zero omitted, Abs format*
G04 (created by PCBNEW (2014-jan-25)-product) date Sun 13 Jul 2014 03:50:37 PM PDT*
%MOIN*%
G01*
G70*
G90*
G04 APERTURE LIST*
%ADD10C,0.005906*%
%ADD11C,0.010000*%
G04 APERTURE END LIST*
G54D10*
G54D11*
X15286Y-33766D02*
X15214Y-33790D01*
X15191Y-33813D01*
X15167Y-33861D01*
X15167Y-33932D01*
X15191Y-33980D01*
X15214Y-34004D01*
X15262Y-34028D01*
X15452Y-34028D01*
X15452Y-33528D01*
X15286Y-33528D01*
X15238Y-33552D01*
X15214Y-33575D01*
X15191Y-33623D01*
X15191Y-33671D01*
X15214Y-33718D01*
X15238Y-33742D01*
X15286Y-33766D01*
X15452Y-33766D01*
X14738Y-33694D02*
X14738Y-34028D01*
X14952Y-33694D02*
X14952Y-33956D01*
X14929Y-34004D01*
X14881Y-34028D01*
X14810Y-34028D01*
X14762Y-34004D01*
X14738Y-33980D01*
X14524Y-34004D02*
X14476Y-34028D01*
X14381Y-34028D01*
X14333Y-34004D01*
X14310Y-33956D01*
X14310Y-33932D01*
X14333Y-33885D01*
X14381Y-33861D01*
X14452Y-33861D01*
X14500Y-33837D01*
X14524Y-33790D01*
X14524Y-33766D01*
X14500Y-33718D01*
X14452Y-33694D01*
X14381Y-33694D01*
X14333Y-33718D01*
X14095Y-34028D02*
X14095Y-33694D01*
X14095Y-33528D02*
X14119Y-33552D01*
X14095Y-33575D01*
X14072Y-33552D01*
X14095Y-33528D01*
X14095Y-33575D01*
X13857Y-33694D02*
X13857Y-34028D01*
X13857Y-33742D02*
X13833Y-33718D01*
X13786Y-33694D01*
X13714Y-33694D01*
X13667Y-33718D01*
X13643Y-33766D01*
X13643Y-34028D01*
X13333Y-34028D02*
X13381Y-34004D01*
X13405Y-33980D01*
X13429Y-33932D01*
X13429Y-33790D01*
X13405Y-33742D01*
X13381Y-33718D01*
X13333Y-33694D01*
X13262Y-33694D01*
X13214Y-33718D01*
X13191Y-33742D01*
X13167Y-33790D01*
X13167Y-33932D01*
X13191Y-33980D01*
X13214Y-34004D01*
X13262Y-34028D01*
X13333Y-34028D01*
X17024Y-34828D02*
X17191Y-34590D01*
X17310Y-34828D02*
X17310Y-34328D01*
X17119Y-34328D01*
X17072Y-34352D01*
X17048Y-34375D01*
X17024Y-34423D01*
X17024Y-34494D01*
X17048Y-34542D01*
X17072Y-34566D01*
X17119Y-34590D01*
X17310Y-34590D01*
X16619Y-34804D02*
X16667Y-34828D01*
X16762Y-34828D01*
X16810Y-34804D01*
X16833Y-34756D01*
X16833Y-34566D01*
X16810Y-34518D01*
X16762Y-34494D01*
X16667Y-34494D01*
X16619Y-34518D01*
X16595Y-34566D01*
X16595Y-34613D01*
X16833Y-34661D01*
X16429Y-34494D02*
X16310Y-34828D01*
X16191Y-34494D01*
X16000Y-34780D02*
X15976Y-34804D01*
X16000Y-34828D01*
X16024Y-34804D01*
X16000Y-34780D01*
X16000Y-34828D01*
X15405Y-34685D02*
X15167Y-34685D01*
X15452Y-34828D02*
X15286Y-34328D01*
X15119Y-34828D01*
X14619Y-34328D02*
X14286Y-34328D01*
X14500Y-34828D01*
X13952Y-34328D02*
X13952Y-34685D01*
X13976Y-34756D01*
X14024Y-34804D01*
X14095Y-34828D01*
X14143Y-34828D01*
X13500Y-34494D02*
X13500Y-34828D01*
X13714Y-34494D02*
X13714Y-34756D01*
X13691Y-34804D01*
X13643Y-34828D01*
X13572Y-34828D01*
X13524Y-34804D01*
X13500Y-34780D01*
X13191Y-34828D02*
X13238Y-34804D01*
X13262Y-34756D01*
X13262Y-34328D01*
X13024Y-34375D02*
X13000Y-34352D01*
X12952Y-34328D01*
X12833Y-34328D01*
X12786Y-34352D01*
X12762Y-34375D01*
X12738Y-34423D01*
X12738Y-34471D01*
X12762Y-34542D01*
X13048Y-34828D01*
X12738Y-34828D01*
X12429Y-34328D02*
X12381Y-34328D01*
X12333Y-34352D01*
X12310Y-34375D01*
X12286Y-34423D01*
X12262Y-34518D01*
X12262Y-34637D01*
X12286Y-34732D01*
X12310Y-34780D01*
X12333Y-34804D01*
X12381Y-34828D01*
X12429Y-34828D01*
X12476Y-34804D01*
X12500Y-34780D01*
X12524Y-34732D01*
X12548Y-34637D01*
X12548Y-34518D01*
X12524Y-34423D01*
X12500Y-34375D01*
X12476Y-34352D01*
X12429Y-34328D01*
X11786Y-34828D02*
X12072Y-34828D01*
X11929Y-34828D02*
X11929Y-34328D01*
X11976Y-34399D01*
X12024Y-34447D01*
X12072Y-34471D01*
X11357Y-34494D02*
X11357Y-34828D01*
X11476Y-34304D02*
X11595Y-34661D01*
X11286Y-34661D01*
X17560Y-35580D02*
X17583Y-35604D01*
X17655Y-35628D01*
X17702Y-35628D01*
X17774Y-35604D01*
X17822Y-35556D01*
X17845Y-35509D01*
X17869Y-35413D01*
X17869Y-35342D01*
X17845Y-35247D01*
X17822Y-35199D01*
X17774Y-35152D01*
X17702Y-35128D01*
X17655Y-35128D01*
X17583Y-35152D01*
X17560Y-35175D01*
X17274Y-35628D02*
X17322Y-35604D01*
X17345Y-35580D01*
X17369Y-35532D01*
X17369Y-35390D01*
X17345Y-35342D01*
X17322Y-35318D01*
X17274Y-35294D01*
X17202Y-35294D01*
X17155Y-35318D01*
X17131Y-35342D01*
X17107Y-35390D01*
X17107Y-35532D01*
X17131Y-35580D01*
X17155Y-35604D01*
X17202Y-35628D01*
X17274Y-35628D01*
X16893Y-35294D02*
X16893Y-35794D01*
X16893Y-35318D02*
X16845Y-35294D01*
X16750Y-35294D01*
X16702Y-35318D01*
X16679Y-35342D01*
X16655Y-35390D01*
X16655Y-35532D01*
X16679Y-35580D01*
X16702Y-35604D01*
X16750Y-35628D01*
X16845Y-35628D01*
X16893Y-35604D01*
X16488Y-35294D02*
X16369Y-35628D01*
X16250Y-35294D02*
X16369Y-35628D01*
X16417Y-35747D01*
X16441Y-35771D01*
X16488Y-35794D01*
X16060Y-35628D02*
X16060Y-35294D01*
X16060Y-35390D02*
X16036Y-35342D01*
X16012Y-35318D01*
X15964Y-35294D01*
X15917Y-35294D01*
X15750Y-35628D02*
X15750Y-35294D01*
X15750Y-35128D02*
X15774Y-35152D01*
X15750Y-35175D01*
X15726Y-35152D01*
X15750Y-35128D01*
X15750Y-35175D01*
X15298Y-35294D02*
X15298Y-35699D01*
X15322Y-35747D01*
X15345Y-35771D01*
X15393Y-35794D01*
X15464Y-35794D01*
X15512Y-35771D01*
X15298Y-35604D02*
X15345Y-35628D01*
X15441Y-35628D01*
X15488Y-35604D01*
X15512Y-35580D01*
X15536Y-35532D01*
X15536Y-35390D01*
X15512Y-35342D01*
X15488Y-35318D01*
X15441Y-35294D01*
X15345Y-35294D01*
X15298Y-35318D01*
X15060Y-35628D02*
X15060Y-35128D01*
X14845Y-35628D02*
X14845Y-35366D01*
X14869Y-35318D01*
X14917Y-35294D01*
X14988Y-35294D01*
X15036Y-35318D01*
X15060Y-35342D01*
X14679Y-35294D02*
X14488Y-35294D01*
X14607Y-35128D02*
X14607Y-35556D01*
X14583Y-35604D01*
X14536Y-35628D01*
X14488Y-35628D01*
X13798Y-35818D02*
X13822Y-35794D01*
X13869Y-35723D01*
X13893Y-35675D01*
X13917Y-35604D01*
X13941Y-35485D01*
X13941Y-35390D01*
X13917Y-35271D01*
X13893Y-35199D01*
X13869Y-35152D01*
X13822Y-35080D01*
X13798Y-35056D01*
X13393Y-35604D02*
X13441Y-35628D01*
X13536Y-35628D01*
X13583Y-35604D01*
X13607Y-35580D01*
X13631Y-35532D01*
X13631Y-35390D01*
X13607Y-35342D01*
X13583Y-35318D01*
X13536Y-35294D01*
X13441Y-35294D01*
X13393Y-35318D01*
X13226Y-35818D02*
X13202Y-35794D01*
X13155Y-35723D01*
X13131Y-35675D01*
X13107Y-35604D01*
X13083Y-35485D01*
X13083Y-35390D01*
X13107Y-35271D01*
X13131Y-35199D01*
X13155Y-35152D01*
X13202Y-35080D01*
X13226Y-35056D01*
X12488Y-35175D02*
X12464Y-35152D01*
X12417Y-35128D01*
X12298Y-35128D01*
X12250Y-35152D01*
X12226Y-35175D01*
X12202Y-35223D01*
X12202Y-35271D01*
X12226Y-35342D01*
X12512Y-35628D01*
X12202Y-35628D01*
X11893Y-35128D02*
X11845Y-35128D01*
X11798Y-35152D01*
X11774Y-35175D01*
X11750Y-35223D01*
X11726Y-35318D01*
X11726Y-35437D01*
X11750Y-35532D01*
X11774Y-35580D01*
X11798Y-35604D01*
X11845Y-35628D01*
X11893Y-35628D01*
X11941Y-35604D01*
X11964Y-35580D01*
X11988Y-35532D01*
X12012Y-35437D01*
X12012Y-35318D01*
X11988Y-35223D01*
X11964Y-35175D01*
X11941Y-35152D01*
X11893Y-35128D01*
X11250Y-35628D02*
X11536Y-35628D01*
X11393Y-35628D02*
X11393Y-35128D01*
X11441Y-35199D01*
X11488Y-35247D01*
X11536Y-35271D01*
X10821Y-35294D02*
X10821Y-35628D01*
X10941Y-35104D02*
X11060Y-35461D01*
X10750Y-35461D01*
X16464Y-36428D02*
X16464Y-35928D01*
X16464Y-36118D02*
X16417Y-36094D01*
X16322Y-36094D01*
X16274Y-36118D01*
X16250Y-36142D01*
X16226Y-36190D01*
X16226Y-36332D01*
X16250Y-36380D01*
X16274Y-36404D01*
X16322Y-36428D01*
X16417Y-36428D01*
X16464Y-36404D01*
X16060Y-36094D02*
X15941Y-36428D01*
X15822Y-36094D02*
X15941Y-36428D01*
X15988Y-36547D01*
X16012Y-36571D01*
X16060Y-36594D01*
X14988Y-35952D02*
X15036Y-35928D01*
X15107Y-35928D01*
X15179Y-35952D01*
X15226Y-35999D01*
X15250Y-36047D01*
X15274Y-36142D01*
X15274Y-36213D01*
X15250Y-36309D01*
X15226Y-36356D01*
X15179Y-36404D01*
X15107Y-36428D01*
X15060Y-36428D01*
X14988Y-36404D01*
X14964Y-36380D01*
X14964Y-36213D01*
X15060Y-36213D01*
X14750Y-36428D02*
X14750Y-36094D01*
X14750Y-36190D02*
X14726Y-36142D01*
X14702Y-36118D01*
X14655Y-36094D01*
X14607Y-36094D01*
X14226Y-36428D02*
X14226Y-36166D01*
X14250Y-36118D01*
X14298Y-36094D01*
X14393Y-36094D01*
X14441Y-36118D01*
X14226Y-36404D02*
X14274Y-36428D01*
X14393Y-36428D01*
X14441Y-36404D01*
X14464Y-36356D01*
X14464Y-36309D01*
X14441Y-36261D01*
X14393Y-36237D01*
X14274Y-36237D01*
X14226Y-36213D01*
X13988Y-36428D02*
X13988Y-36094D01*
X13988Y-36142D02*
X13964Y-36118D01*
X13917Y-36094D01*
X13845Y-36094D01*
X13798Y-36118D01*
X13774Y-36166D01*
X13774Y-36428D01*
X13774Y-36166D02*
X13750Y-36118D01*
X13702Y-36094D01*
X13631Y-36094D01*
X13583Y-36118D01*
X13560Y-36166D01*
X13560Y-36428D01*
X13250Y-36428D02*
X13298Y-36404D01*
X13322Y-36356D01*
X13322Y-35928D01*
X13060Y-36428D02*
X13060Y-36094D01*
X13060Y-35928D02*
X13083Y-35952D01*
X13060Y-35975D01*
X13036Y-35952D01*
X13060Y-35928D01*
X13060Y-35975D01*
X12607Y-36404D02*
X12655Y-36428D01*
X12750Y-36428D01*
X12798Y-36404D01*
X12822Y-36380D01*
X12845Y-36332D01*
X12845Y-36190D01*
X12822Y-36142D01*
X12798Y-36118D01*
X12750Y-36094D01*
X12655Y-36094D01*
X12607Y-36118D01*
X12393Y-36428D02*
X12393Y-35928D01*
X12179Y-36428D02*
X12179Y-36166D01*
X12202Y-36118D01*
X12250Y-36094D01*
X12322Y-36094D01*
X12369Y-36118D01*
X12393Y-36142D01*
M02*
