M48
;DRILL file {kicad (2014-jan-25)-product} date Sat 12 Jul 2014 09:07:22 PM PDT
;FORMAT={-:-/ absolute / metric / decimal}
FMAT,2
METRIC,TZ
T1C0.635
T2C0.762
T3C0.800
T4C0.813
T5C1.001
T6C1.016
T7C1.199
T8C1.270
T9C3.175
T10C3.800
%
G90
G05
M71
T1
X27.94Y-95.25
X30.48Y-52.705
X30.48Y-93.98
X31.115Y-55.245
X31.115Y-57.15
X31.75Y-88.265
X34.29Y-72.39
X34.29Y-81.28
X34.29Y-111.76
X34.925Y-65.405
X34.925Y-114.935
X35.56Y-60.96
X35.56Y-71.12
X35.56Y-81.28
X35.56Y-86.36
X36.83Y-36.83
X36.83Y-113.03
X38.1Y-34.29
X38.1Y-71.755
X38.1Y-73.66
X38.1Y-82.55
X38.1Y-89.535
X38.1Y-117.475
X38.735Y-114.3
X39.37Y-31.75
X39.37Y-105.41
X40.005Y-44.45
X40.005Y-118.11
X40.005Y-119.38
X40.005Y-120.65
X40.64Y-30.48
X40.64Y-109.22
X40.64Y-121.92
X41.275Y-57.785
X41.91Y-70.485
X41.91Y-78.105
X41.91Y-85.725
X42.545Y-54.61
X42.545Y-57.785
X43.815Y-39.37
X43.815Y-58.42
X44.45Y-109.22
X44.45Y-120.015
X45.085Y-59.055
X45.72Y-78.105
X45.72Y-106.68
X46.99Y-75.565
X48.26Y-81.28
X50.165Y-59.055
X51.435Y-58.42
X52.07Y-70.485
X53.34Y-59.055
X53.34Y-77.47
X53.34Y-96.52
X55.245Y-54.61
X55.245Y-96.52
X55.88Y-103.505
X55.88Y-108.585
X57.15Y-57.785
X57.15Y-70.485
X57.15Y-104.14
X57.15Y-108.585
X57.785Y-34.29
X57.785Y-35.56
X58.42Y-67.945
X58.42Y-121.92
X59.055Y-31.75
X59.055Y-54.61
X59.69Y-39.37
X59.69Y-59.69
X59.69Y-80.01
X60.325Y-38.1
X60.96Y-55.88
X60.96Y-67.31
X60.96Y-88.265
X61.595Y-36.83
X61.595Y-39.37
X61.595Y-45.085
X61.595Y-48.26
X61.595Y-74.295
X62.23Y-59.69
X62.23Y-60.96
X62.865Y-42.545
X62.865Y-113.03
X63.5Y-55.88
X63.5Y-80.645
X63.5Y-92.71
X64.135Y-110.49
X64.135Y-120.65
X64.77Y-33.02
X64.77Y-66.675
X64.77Y-72.39
X64.77Y-74.295
X65.405Y-41.91
X65.405Y-108.585
X65.405Y-111.76
X65.405Y-114.3
X65.405Y-116.84
X65.405Y-119.38
X66.04Y-44.45
X66.04Y-46.99
X66.04Y-60.325
X66.675Y-30.48
X66.675Y-35.56
X66.675Y-40.64
X66.675Y-43.18
X66.675Y-45.72
X66.675Y-121.92
X66.675Y-123.19
X67.31Y-62.23
X67.31Y-64.135
X67.31Y-70.485
X67.31Y-74.295
X67.945Y-56.515
X68.58Y-59.69
X68.58Y-81.28
X69.215Y-92.71
X69.215Y-97.155
X69.85Y-63.5
X69.85Y-65.405
X69.85Y-70.485
X70.485Y-102.235
X71.12Y-79.375
X71.12Y-85.09
X72.39Y-54.61
X72.39Y-86.36
X73.66Y-46.355
X73.66Y-107.95
X73.66Y-109.22
X74.295Y-44.45
X74.295Y-102.87
X74.295Y-104.14
X74.93Y-91.44
X74.93Y-99.06
X75.565Y-78.74
X75.565Y-123.825
X76.2Y-46.99
X76.2Y-72.39
X76.2Y-97.155
X76.835Y-86.995
X76.835Y-123.825
X77.47Y-44.45
X77.47Y-63.5
X77.47Y-74.295
X77.47Y-78.74
X77.47Y-91.44
X77.47Y-103.505
X78.105Y-45.72
X78.74Y-81.28
X80.01Y-57.785
X80.01Y-86.995
X81.28Y-57.15
X81.915Y-91.44
X82.55Y-57.15
X82.55Y-60.96
X83.185Y-85.09
X84.455Y-62.23
X85.725Y-85.09
X86.36Y-100.33
X86.36Y-119.38
X86.995Y-114.935
X86.995Y-116.84
X87.63Y-86.36
X87.63Y-109.22
X87.63Y-111.76
X88.894Y-91.446
X90.17Y-111.76
X90.805Y-88.9
X91.44Y-73.66
X91.44Y-78.74
X92.075Y-40.64
X92.075Y-89.535
X93.345Y-70.485
X93.98Y-31.75
X93.98Y-42.545
X93.98Y-43.815
X93.98Y-45.085
X93.98Y-46.355
X93.98Y-47.625
X95.25Y-120.015
X101.6Y-88.9
X102.87Y-69.215
X106.045Y-74.295
X106.68Y-81.915
X107.315Y-69.85
X108.585Y-66.675
X109.22Y-47.625
X109.855Y-42.545
X109.855Y-43.815
X109.855Y-45.085
X109.855Y-46.355
X112.395Y-117.475
X113.03Y-43.815
X113.03Y-63.5
X114.935Y-107.95
X115.57Y-113.03
X116.205Y-48.26
X116.205Y-71.12
X116.84Y-40.64
X116.84Y-84.455
X120.65Y-95.885
X123.19Y-48.895
T2
X93.98Y-86.995
X93.98Y-89.535
T3
X49.53Y-86.36
X49.53Y-89.535
X49.53Y-94.615
X52.07Y-66.04
X52.07Y-86.36
X52.07Y-89.535
X52.07Y-94.615
X54.61Y-66.04
X56.515Y-89.634
X56.515Y-94.516
X90.805Y-62.865
X93.345Y-62.865
X93.345Y-75.565
X95.885Y-75.565
X104.14Y-89.535
X106.68Y-89.535
X110.49Y-92.075
X111.125Y-115.57
X111.76Y-53.34
X111.76Y-57.785
X111.76Y-62.23
X113.03Y-92.075
X113.665Y-115.57
X114.3Y-53.34
X114.3Y-57.785
X114.3Y-62.23
T4
X29.21Y-68.58
X29.21Y-83.82
X31.75Y-68.58
X31.75Y-83.82
X34.29Y-68.58
X34.29Y-83.82
X36.83Y-68.58
X36.83Y-83.82
X39.37Y-68.58
X39.37Y-83.82
X41.91Y-68.58
X41.91Y-83.82
X44.45Y-68.58
X44.45Y-83.82
X46.99Y-68.58
X46.99Y-83.82
X49.53Y-68.58
X49.53Y-83.82
X52.07Y-68.58
X52.07Y-83.82
X54.61Y-68.58
X54.61Y-83.82
X57.15Y-68.58
X57.15Y-83.82
X59.69Y-68.58
X59.69Y-83.82
X62.23Y-68.58
X62.23Y-83.82
X64.77Y-68.58
X64.77Y-83.82
X67.31Y-68.58
X67.31Y-83.82
X69.85Y-68.58
X69.85Y-83.82
X72.39Y-68.58
X72.39Y-83.82
X74.93Y-68.58
X74.93Y-83.82
X77.47Y-68.58
X77.47Y-83.82
X93.345Y-64.77
X93.345Y-72.39
X95.885Y-64.77
X95.885Y-72.39
X98.425Y-64.77
X98.425Y-72.39
X100.965Y-64.77
X100.965Y-72.39
X101.6Y-79.375
X101.6Y-86.995
X103.505Y-64.77
X103.505Y-72.39
X104.14Y-79.375
X104.14Y-86.995
X106.045Y-64.77
X106.045Y-72.39
X106.68Y-79.375
X106.68Y-86.995
X108.585Y-64.77
X108.585Y-72.39
X109.22Y-79.375
X109.22Y-86.995
T5
X62.865Y-88.9
X69.85Y-60.96
X73.025Y-88.9
X80.01Y-60.96
X98.425Y-78.105
X98.425Y-88.265
X99.06Y-75.565
X107.188Y-53.594
X107.188Y-56.134
X107.188Y-58.674
X109.22Y-75.565
X109.22Y-102.87
X109.22Y-113.03
X110.871Y-94.742
X110.871Y-97.282
X110.871Y-99.822
X111.125Y-39.37
X111.125Y-49.53
X113.03Y-78.74
X113.03Y-88.9
X113.03Y-102.87
X113.03Y-113.03
X113.665Y-75.565
X114.3Y-39.37
X114.3Y-49.53
X117.475Y-51.435
X117.475Y-61.595
T6
X30.48Y-29.21
X30.48Y-31.75
X30.48Y-34.29
X30.48Y-36.83
X30.48Y-39.37
X30.48Y-41.91
X30.48Y-44.45
X30.48Y-46.99
X30.48Y-105.41
X30.48Y-107.95
X30.48Y-110.49
X30.48Y-113.03
X30.48Y-115.57
X30.48Y-118.11
X30.48Y-120.65
X30.48Y-123.19
X31.75Y-59.69
X31.75Y-62.23
X33.02Y-29.21
X33.02Y-31.75
X33.02Y-34.29
X33.02Y-36.83
X33.02Y-39.37
X33.02Y-41.91
X33.02Y-44.45
X33.02Y-46.99
X33.02Y-105.41
X33.02Y-107.95
X33.02Y-110.49
X33.02Y-113.03
X33.02Y-115.57
X33.02Y-118.11
X33.02Y-120.65
X33.02Y-123.19
X34.29Y-59.69
X34.29Y-62.23
X36.83Y-59.69
X36.83Y-62.23
X39.37Y-59.69
X39.37Y-62.23
X41.91Y-59.69
X41.91Y-62.23
X44.196Y-52.07
X46.736Y-52.07
X49.276Y-52.07
X51.816Y-52.07
X53.34Y-100.33
X54.356Y-52.07
X55.88Y-100.33
X56.896Y-52.07
X58.42Y-100.33
X59.436Y-52.07
X60.96Y-100.33
X61.976Y-52.07
X63.5Y-100.33
X66.04Y-52.07
X66.04Y-100.33
X68.58Y-29.21
X68.58Y-31.75
X68.58Y-34.29
X68.58Y-36.83
X68.58Y-39.37
X68.58Y-41.91
X68.58Y-44.45
X68.58Y-46.99
X68.58Y-52.07
X68.58Y-105.41
X68.58Y-107.95
X68.58Y-110.49
X68.58Y-113.03
X68.58Y-115.57
X68.58Y-118.11
X68.58Y-120.65
X68.58Y-123.19
X71.12Y-29.21
X71.12Y-31.75
X71.12Y-34.29
X71.12Y-36.83
X71.12Y-39.37
X71.12Y-41.91
X71.12Y-44.45
X71.12Y-46.99
X71.12Y-52.07
X71.12Y-100.33
X71.12Y-105.41
X71.12Y-107.95
X71.12Y-110.49
X71.12Y-113.03
X71.12Y-115.57
X71.12Y-118.11
X71.12Y-120.65
X71.12Y-123.19
X73.66Y-52.07
X73.66Y-100.33
X76.2Y-52.07
X76.2Y-100.33
X78.74Y-52.07
X78.74Y-100.33
X81.28Y-29.21
X81.28Y-31.75
X81.28Y-34.29
X81.28Y-36.83
X81.28Y-39.37
X81.28Y-41.91
X81.28Y-44.45
X81.28Y-46.99
X81.28Y-52.07
X81.28Y-100.33
X81.28Y-105.41
X81.28Y-107.95
X81.28Y-110.49
X81.28Y-113.03
X81.28Y-115.57
X81.28Y-118.11
X81.28Y-120.65
X81.28Y-123.19
X83.82Y-29.21
X83.82Y-31.75
X83.82Y-34.29
X83.82Y-36.83
X83.82Y-39.37
X83.82Y-41.91
X83.82Y-44.45
X83.82Y-46.99
X83.82Y-52.07
X83.82Y-100.33
X83.82Y-105.41
X83.82Y-107.95
X83.82Y-110.49
X83.82Y-113.03
X83.82Y-115.57
X83.82Y-118.11
X83.82Y-120.65
X83.82Y-123.19
X84.201Y-73.66
X84.201Y-76.2
X84.201Y-78.74
X86.741Y-73.66
X86.741Y-76.2
X86.741Y-78.74
X92.075Y-80.645
X92.075Y-83.185
X94.615Y-80.645
X94.615Y-83.185
X118.745Y-71.12
X118.745Y-73.66
X118.745Y-76.2
X118.745Y-78.74
X118.745Y-81.28
X119.38Y-29.21
X119.38Y-31.75
X119.38Y-34.29
X119.38Y-36.83
X119.38Y-39.37
X119.38Y-41.91
X119.38Y-44.45
X119.38Y-46.99
X119.38Y-105.41
X119.38Y-107.95
X119.38Y-110.49
X119.38Y-113.03
X119.38Y-115.57
X119.38Y-118.11
X119.38Y-120.65
X119.38Y-123.19
X121.285Y-71.12
X121.285Y-73.66
X121.285Y-76.2
X121.285Y-78.74
X121.285Y-81.28
X121.92Y-29.21
X121.92Y-31.75
X121.92Y-34.29
X121.92Y-36.83
X121.92Y-39.37
X121.92Y-41.91
X121.92Y-44.45
X121.92Y-46.99
X121.92Y-51.435
X121.92Y-53.975
X121.92Y-56.515
X121.92Y-59.055
X121.92Y-61.595
X121.92Y-64.135
X121.92Y-88.9
X121.92Y-91.44
X121.92Y-93.98
X121.92Y-105.41
X121.92Y-107.95
X121.92Y-110.49
X121.92Y-113.03
X121.92Y-115.57
X121.92Y-118.11
X121.92Y-120.65
X121.92Y-123.19
T7
X115.875Y-99.822
X122.377Y-99.822
T8
X113.665Y-65.405
T9
X34.29Y-100.33
X35.56Y-52.07
X50.8Y-45.72
X50.8Y-106.68
X51.2Y-30.2
X51.2Y-122.2
X86.36Y-67.31
X86.36Y-95.25
X101.2Y-30.2
X101.2Y-122.2
X101.6Y-45.72
X101.6Y-106.68
T10
X90.424Y-56.134
X94.107Y-97.282
T0
M30
