%FSLAX34Y34*%
G04 Gerber Fmt 3.4, Leading zero omitted, Abs format*
G04 (created by PCBNEW (2014-jan-25)-product) date Wed 13 Aug 2014 09:10:33 PM PDT*
%MOIN*%
G01*
G70*
G90*
G04 APERTURE LIST*
%ADD10C,0.005906*%
%ADD11C,0.059100*%
%ADD12C,0.078700*%
%ADD13R,0.078700X0.078700*%
%ADD14C,0.060000*%
%ADD15C,0.236220*%
%ADD16R,0.080000X0.068000*%
%ADD17O,0.080000X0.068000*%
%ADD18R,0.068000X0.068000*%
%ADD19O,0.068000X0.068000*%
%ADD20C,0.068000*%
%ADD21R,0.060000X0.060000*%
%ADD22O,0.137800X0.066900*%
%ADD23R,0.055000X0.055000*%
%ADD24C,0.055000*%
G04 APERTURE END LIST*
G54D10*
G54D11*
X45000Y-22750D03*
X44000Y-22750D03*
X20500Y-35250D03*
X19500Y-35250D03*
X44000Y-21000D03*
X45000Y-21000D03*
X20500Y-37250D03*
X19500Y-37250D03*
X44500Y-36250D03*
X43500Y-36250D03*
X43750Y-45500D03*
X44750Y-45500D03*
X37750Y-29750D03*
X36750Y-29750D03*
X44000Y-24500D03*
X45000Y-24500D03*
X36750Y-24750D03*
X35750Y-24750D03*
X42000Y-35250D03*
X41000Y-35250D03*
X21500Y-26000D03*
X20500Y-26000D03*
X20500Y-34000D03*
X19500Y-34000D03*
G54D12*
X44750Y-25750D03*
G54D13*
X44750Y-29750D03*
G54D14*
X37000Y-34250D03*
X37000Y-35250D03*
G54D15*
X34000Y-26500D03*
X14000Y-20500D03*
X34000Y-37500D03*
X13500Y-39500D03*
X20000Y-42000D03*
X39842Y-11889D03*
X20157Y-11889D03*
X39842Y-48110D03*
X20157Y-48110D03*
X40000Y-42000D03*
X20000Y-18000D03*
X40000Y-18000D03*
G54D16*
X48000Y-35000D03*
G54D17*
X48000Y-36000D03*
X48000Y-37000D03*
G54D18*
X36250Y-32750D03*
G54D19*
X36250Y-31750D03*
X37250Y-32750D03*
X37250Y-31750D03*
G54D18*
X33150Y-29000D03*
G54D19*
X34150Y-29000D03*
X33150Y-30000D03*
X34150Y-30000D03*
X33150Y-31000D03*
X34150Y-31000D03*
G54D18*
X24400Y-20500D03*
G54D20*
X23400Y-20500D03*
X22400Y-20500D03*
X21400Y-20500D03*
X20400Y-20500D03*
X19400Y-20500D03*
X18400Y-20500D03*
X17400Y-20500D03*
G54D18*
X33000Y-20500D03*
G54D20*
X32000Y-20500D03*
X31000Y-20500D03*
X30000Y-20500D03*
X29000Y-20500D03*
X28000Y-20500D03*
X27000Y-20500D03*
X26000Y-20500D03*
G54D18*
X33000Y-39500D03*
G54D20*
X32000Y-39500D03*
X31000Y-39500D03*
X30000Y-39500D03*
X29000Y-39500D03*
X28000Y-39500D03*
G54D18*
X26000Y-39500D03*
G54D20*
X25000Y-39500D03*
X24000Y-39500D03*
X23000Y-39500D03*
X22000Y-39500D03*
X21000Y-39500D03*
G54D18*
X12000Y-41500D03*
G54D19*
X13000Y-41500D03*
X12000Y-42500D03*
X13000Y-42500D03*
X12000Y-43500D03*
X13000Y-43500D03*
X12000Y-44500D03*
X13000Y-44500D03*
X12000Y-45500D03*
X13000Y-45500D03*
X12000Y-46500D03*
X13000Y-46500D03*
X12000Y-47500D03*
X13000Y-47500D03*
X12000Y-48500D03*
X13000Y-48500D03*
G54D18*
X27000Y-41500D03*
G54D19*
X28000Y-41500D03*
X27000Y-42500D03*
X28000Y-42500D03*
X27000Y-43500D03*
X28000Y-43500D03*
X27000Y-44500D03*
X28000Y-44500D03*
X27000Y-45500D03*
X28000Y-45500D03*
X27000Y-46500D03*
X28000Y-46500D03*
X27000Y-47500D03*
X28000Y-47500D03*
X27000Y-48500D03*
X28000Y-48500D03*
G54D21*
X46750Y-28000D03*
G54D14*
X47750Y-28000D03*
X46750Y-29000D03*
X47750Y-29000D03*
X46750Y-30000D03*
X47750Y-30000D03*
X46750Y-31000D03*
X47750Y-31000D03*
X46750Y-32000D03*
X47750Y-32000D03*
G54D18*
X48000Y-20250D03*
G54D20*
X48000Y-21250D03*
X48000Y-22250D03*
X48000Y-23250D03*
X48000Y-24250D03*
X48000Y-25250D03*
G54D18*
X32000Y-41500D03*
G54D19*
X33000Y-41500D03*
X32000Y-42500D03*
X33000Y-42500D03*
X32000Y-43500D03*
X33000Y-43500D03*
X32000Y-44500D03*
X33000Y-44500D03*
X32000Y-45500D03*
X33000Y-45500D03*
X32000Y-46500D03*
X33000Y-46500D03*
X32000Y-47500D03*
X33000Y-47500D03*
X32000Y-48500D03*
X33000Y-48500D03*
G54D18*
X47000Y-41500D03*
G54D19*
X48000Y-41500D03*
X47000Y-42500D03*
X48000Y-42500D03*
X47000Y-43500D03*
X48000Y-43500D03*
X47000Y-44500D03*
X48000Y-44500D03*
X47000Y-45500D03*
X48000Y-45500D03*
X47000Y-46500D03*
X48000Y-46500D03*
X47000Y-47500D03*
X48000Y-47500D03*
X47000Y-48500D03*
X48000Y-48500D03*
G54D18*
X28000Y-18500D03*
G54D19*
X27000Y-18500D03*
X28000Y-17500D03*
X27000Y-17500D03*
X28000Y-16500D03*
X27000Y-16500D03*
X28000Y-15500D03*
X27000Y-15500D03*
X28000Y-14500D03*
X27000Y-14500D03*
X28000Y-13500D03*
X27000Y-13500D03*
X28000Y-12500D03*
X27000Y-12500D03*
X28000Y-11500D03*
X27000Y-11500D03*
G54D18*
X13000Y-18500D03*
G54D19*
X12000Y-18500D03*
X13000Y-17500D03*
X12000Y-17500D03*
X13000Y-16500D03*
X12000Y-16500D03*
X13000Y-15500D03*
X12000Y-15500D03*
X13000Y-14500D03*
X12000Y-14500D03*
X13000Y-13500D03*
X12000Y-13500D03*
X13000Y-12500D03*
X12000Y-12500D03*
X13000Y-11500D03*
X12000Y-11500D03*
G54D18*
X48000Y-18500D03*
G54D19*
X47000Y-18500D03*
X48000Y-17500D03*
X47000Y-17500D03*
X48000Y-16500D03*
X47000Y-16500D03*
X48000Y-15500D03*
X47000Y-15500D03*
X48000Y-14500D03*
X47000Y-14500D03*
X48000Y-13500D03*
X47000Y-13500D03*
X48000Y-12500D03*
X47000Y-12500D03*
X48000Y-11500D03*
X47000Y-11500D03*
G54D18*
X33000Y-18500D03*
G54D19*
X32000Y-18500D03*
X33000Y-17500D03*
X32000Y-17500D03*
X33000Y-16500D03*
X32000Y-16500D03*
X33000Y-15500D03*
X32000Y-15500D03*
X33000Y-14500D03*
X32000Y-14500D03*
X33000Y-13500D03*
X32000Y-13500D03*
X33000Y-12500D03*
X32000Y-12500D03*
X33000Y-11500D03*
X32000Y-11500D03*
G54D21*
X12500Y-24500D03*
G54D14*
X12500Y-23500D03*
X13500Y-24500D03*
X13500Y-23500D03*
X14500Y-24500D03*
X14500Y-23500D03*
X15500Y-24500D03*
X15500Y-23500D03*
X16500Y-24500D03*
X16500Y-23500D03*
G54D12*
X44500Y-35000D03*
X44500Y-31000D03*
X43750Y-19500D03*
X43750Y-15500D03*
X45000Y-19500D03*
X45000Y-15500D03*
X32175Y-25850D03*
X28175Y-25850D03*
X39000Y-29750D03*
X43000Y-29750D03*
X38750Y-34750D03*
X38750Y-30750D03*
X44500Y-44500D03*
X44500Y-40500D03*
X46250Y-20250D03*
X46250Y-24250D03*
X24750Y-35000D03*
X28750Y-35000D03*
X31750Y-23825D03*
X27750Y-23825D03*
G54D13*
X45620Y-39300D03*
G54D12*
X48180Y-39300D03*
G54D22*
X42200Y-22100D03*
X42200Y-23100D03*
X42200Y-21100D03*
G54D23*
X40000Y-34250D03*
G54D24*
X41000Y-34250D03*
X42000Y-34250D03*
X43000Y-34250D03*
X43000Y-31250D03*
X42000Y-31250D03*
X41000Y-31250D03*
X40000Y-31250D03*
G54D22*
X43650Y-38300D03*
X43650Y-39300D03*
X43650Y-37300D03*
G54D23*
X11500Y-33000D03*
G54D24*
X12500Y-33000D03*
X13500Y-33000D03*
X14500Y-33000D03*
X15500Y-33000D03*
X16500Y-33000D03*
X17500Y-33000D03*
X18500Y-33000D03*
X19500Y-33000D03*
X20500Y-33000D03*
X21500Y-33000D03*
X22500Y-33000D03*
X23500Y-33000D03*
X24500Y-33000D03*
X25500Y-33000D03*
X26500Y-33000D03*
X27500Y-33000D03*
X28500Y-33000D03*
X29500Y-33000D03*
X30500Y-33000D03*
X30500Y-27000D03*
X29500Y-27000D03*
X28500Y-27000D03*
X27500Y-27000D03*
X26500Y-27000D03*
X25500Y-27000D03*
X24500Y-27000D03*
X23500Y-27000D03*
X22500Y-27000D03*
X21500Y-27000D03*
X20500Y-27000D03*
X19500Y-27000D03*
X18500Y-27000D03*
X17500Y-27000D03*
X16500Y-27000D03*
X15500Y-27000D03*
X14500Y-27000D03*
X13500Y-27000D03*
X12500Y-27000D03*
X11500Y-27000D03*
G54D11*
X22250Y-35289D03*
X22250Y-37211D03*
G54D23*
X36750Y-28500D03*
G54D24*
X37750Y-28500D03*
X38750Y-28500D03*
X39750Y-28500D03*
X40750Y-28500D03*
X41750Y-28500D03*
X42750Y-28500D03*
X42750Y-25500D03*
X41750Y-25500D03*
X40750Y-25500D03*
X39750Y-25500D03*
X38750Y-25500D03*
X37750Y-25500D03*
X36750Y-25500D03*
G54D12*
X34175Y-34400D03*
X30175Y-34400D03*
X36775Y-47350D03*
X36775Y-43350D03*
X42925Y-44500D03*
X42925Y-40500D03*
M02*
