%FSLAX34Y34*%
G04 Gerber Fmt 3.4, Leading zero omitted, Abs format*
G04 (created by PCBNEW (2014-jan-25)-product) date Wed 13 Aug 2014 09:10:33 PM PDT*
%MOIN*%
G01*
G70*
G90*
G04 APERTURE LIST*
%ADD10C,0.005906*%
%ADD11C,0.008000*%
%ADD12C,0.010000*%
%ADD13C,0.007874*%
%ADD14C,0.006000*%
%ADD15C,0.012000*%
%ADD16C,0.015000*%
%ADD17C,0.000100*%
G04 APERTURE END LIST*
G54D10*
G54D11*
X49114Y-20430D02*
X48885Y-20430D01*
X49000Y-20430D02*
X49000Y-20030D01*
X48961Y-20088D01*
X48923Y-20126D01*
X48885Y-20145D01*
G54D12*
X32480Y-28426D02*
X32195Y-28426D01*
X32338Y-28426D02*
X32338Y-27926D01*
X32290Y-27997D01*
X32242Y-28045D01*
X32195Y-28069D01*
G54D11*
X45964Y-25830D02*
X45735Y-25830D01*
X45850Y-25830D02*
X45850Y-25430D01*
X45811Y-25488D01*
X45773Y-25526D01*
X45735Y-25545D01*
X39614Y-34830D02*
X39385Y-34830D01*
X39500Y-34830D02*
X39500Y-34430D01*
X39461Y-34488D01*
X39423Y-34526D01*
X39385Y-34545D01*
X36164Y-29080D02*
X35935Y-29080D01*
X36050Y-29080D02*
X36050Y-28680D01*
X36011Y-28738D01*
X35973Y-28776D01*
X35935Y-28795D01*
X10914Y-33780D02*
X10685Y-33780D01*
X10800Y-33780D02*
X10800Y-33380D01*
X10761Y-33438D01*
X10723Y-33476D01*
X10685Y-33495D01*
X12314Y-26430D02*
X12085Y-26430D01*
X12200Y-26430D02*
X12200Y-26030D01*
X12161Y-26088D01*
X12123Y-26126D01*
X12085Y-26145D01*
G54D12*
X15680Y-40140D02*
X15680Y-39640D01*
X15894Y-40140D02*
X15894Y-39878D01*
X15870Y-39830D01*
X15822Y-39806D01*
X15751Y-39806D01*
X15703Y-39830D01*
X15680Y-39854D01*
X16346Y-40140D02*
X16346Y-39878D01*
X16322Y-39830D01*
X16275Y-39806D01*
X16180Y-39806D01*
X16132Y-39830D01*
X16346Y-40116D02*
X16299Y-40140D01*
X16180Y-40140D01*
X16132Y-40116D01*
X16108Y-40068D01*
X16108Y-40021D01*
X16132Y-39973D01*
X16180Y-39949D01*
X16299Y-39949D01*
X16346Y-39925D01*
X16584Y-40140D02*
X16584Y-39806D01*
X16584Y-39902D02*
X16608Y-39854D01*
X16632Y-39830D01*
X16680Y-39806D01*
X16727Y-39806D01*
X17108Y-40140D02*
X17108Y-39640D01*
X17108Y-40116D02*
X17061Y-40140D01*
X16965Y-40140D01*
X16918Y-40116D01*
X16894Y-40092D01*
X16870Y-40044D01*
X16870Y-39902D01*
X16894Y-39854D01*
X16918Y-39830D01*
X16965Y-39806D01*
X17061Y-39806D01*
X17108Y-39830D01*
X17299Y-39806D02*
X17394Y-40140D01*
X17489Y-39902D01*
X17584Y-40140D01*
X17680Y-39806D01*
X18084Y-40140D02*
X18084Y-39878D01*
X18061Y-39830D01*
X18013Y-39806D01*
X17918Y-39806D01*
X17870Y-39830D01*
X18084Y-40116D02*
X18037Y-40140D01*
X17918Y-40140D01*
X17870Y-40116D01*
X17846Y-40068D01*
X17846Y-40021D01*
X17870Y-39973D01*
X17918Y-39949D01*
X18037Y-39949D01*
X18084Y-39925D01*
X18322Y-40140D02*
X18322Y-39806D01*
X18322Y-39902D02*
X18346Y-39854D01*
X18370Y-39830D01*
X18418Y-39806D01*
X18465Y-39806D01*
X18822Y-40116D02*
X18775Y-40140D01*
X18680Y-40140D01*
X18632Y-40116D01*
X18608Y-40068D01*
X18608Y-39878D01*
X18632Y-39830D01*
X18680Y-39806D01*
X18775Y-39806D01*
X18822Y-39830D01*
X18846Y-39878D01*
X18846Y-39925D01*
X18608Y-39973D01*
X15297Y-39476D02*
X15250Y-39452D01*
X15226Y-39428D01*
X15202Y-39380D01*
X15202Y-39238D01*
X15226Y-39190D01*
X15250Y-39166D01*
X15297Y-39142D01*
X15369Y-39142D01*
X15416Y-39166D01*
X15440Y-39190D01*
X15464Y-39238D01*
X15464Y-39380D01*
X15440Y-39428D01*
X15416Y-39452D01*
X15369Y-39476D01*
X15297Y-39476D01*
X15678Y-39142D02*
X15678Y-39642D01*
X15678Y-39166D02*
X15726Y-39142D01*
X15821Y-39142D01*
X15869Y-39166D01*
X15892Y-39190D01*
X15916Y-39238D01*
X15916Y-39380D01*
X15892Y-39428D01*
X15869Y-39452D01*
X15821Y-39476D01*
X15726Y-39476D01*
X15678Y-39452D01*
X16321Y-39452D02*
X16273Y-39476D01*
X16178Y-39476D01*
X16130Y-39452D01*
X16107Y-39404D01*
X16107Y-39214D01*
X16130Y-39166D01*
X16178Y-39142D01*
X16273Y-39142D01*
X16321Y-39166D01*
X16345Y-39214D01*
X16345Y-39261D01*
X16107Y-39309D01*
X16559Y-39142D02*
X16559Y-39476D01*
X16559Y-39190D02*
X16583Y-39166D01*
X16630Y-39142D01*
X16702Y-39142D01*
X16750Y-39166D01*
X16773Y-39214D01*
X16773Y-39476D01*
X17369Y-39452D02*
X17416Y-39476D01*
X17511Y-39476D01*
X17559Y-39452D01*
X17583Y-39404D01*
X17583Y-39380D01*
X17559Y-39333D01*
X17511Y-39309D01*
X17440Y-39309D01*
X17392Y-39285D01*
X17369Y-39238D01*
X17369Y-39214D01*
X17392Y-39166D01*
X17440Y-39142D01*
X17511Y-39142D01*
X17559Y-39166D01*
X17869Y-39476D02*
X17821Y-39452D01*
X17797Y-39428D01*
X17773Y-39380D01*
X17773Y-39238D01*
X17797Y-39190D01*
X17821Y-39166D01*
X17869Y-39142D01*
X17940Y-39142D01*
X17988Y-39166D01*
X18011Y-39190D01*
X18035Y-39238D01*
X18035Y-39380D01*
X18011Y-39428D01*
X17988Y-39452D01*
X17940Y-39476D01*
X17869Y-39476D01*
X18464Y-39142D02*
X18464Y-39476D01*
X18250Y-39142D02*
X18250Y-39404D01*
X18273Y-39452D01*
X18321Y-39476D01*
X18392Y-39476D01*
X18440Y-39452D01*
X18464Y-39428D01*
X18702Y-39476D02*
X18702Y-39142D01*
X18702Y-39238D02*
X18726Y-39190D01*
X18750Y-39166D01*
X18797Y-39142D01*
X18845Y-39142D01*
X19226Y-39452D02*
X19178Y-39476D01*
X19083Y-39476D01*
X19035Y-39452D01*
X19011Y-39428D01*
X18988Y-39380D01*
X18988Y-39238D01*
X19011Y-39190D01*
X19035Y-39166D01*
X19083Y-39142D01*
X19178Y-39142D01*
X19226Y-39166D01*
X19630Y-39452D02*
X19583Y-39476D01*
X19488Y-39476D01*
X19440Y-39452D01*
X19416Y-39404D01*
X19416Y-39214D01*
X19440Y-39166D01*
X19488Y-39142D01*
X19583Y-39142D01*
X19630Y-39166D01*
X19654Y-39214D01*
X19654Y-39261D01*
X19416Y-39309D01*
X13291Y-33722D02*
X13363Y-33746D01*
X13386Y-33769D01*
X13410Y-33817D01*
X13410Y-33888D01*
X13386Y-33936D01*
X13363Y-33960D01*
X13315Y-33984D01*
X13125Y-33984D01*
X13125Y-33484D01*
X13291Y-33484D01*
X13339Y-33508D01*
X13363Y-33531D01*
X13386Y-33579D01*
X13386Y-33627D01*
X13363Y-33674D01*
X13339Y-33698D01*
X13291Y-33722D01*
X13125Y-33722D01*
X13839Y-33650D02*
X13839Y-33984D01*
X13625Y-33650D02*
X13625Y-33912D01*
X13648Y-33960D01*
X13696Y-33984D01*
X13767Y-33984D01*
X13815Y-33960D01*
X13839Y-33936D01*
X14053Y-33960D02*
X14101Y-33984D01*
X14196Y-33984D01*
X14244Y-33960D01*
X14267Y-33912D01*
X14267Y-33888D01*
X14244Y-33841D01*
X14196Y-33817D01*
X14125Y-33817D01*
X14077Y-33793D01*
X14053Y-33746D01*
X14053Y-33722D01*
X14077Y-33674D01*
X14125Y-33650D01*
X14196Y-33650D01*
X14244Y-33674D01*
X14482Y-33984D02*
X14482Y-33650D01*
X14482Y-33484D02*
X14458Y-33508D01*
X14482Y-33531D01*
X14506Y-33508D01*
X14482Y-33484D01*
X14482Y-33531D01*
X14720Y-33650D02*
X14720Y-33984D01*
X14720Y-33698D02*
X14744Y-33674D01*
X14791Y-33650D01*
X14863Y-33650D01*
X14910Y-33674D01*
X14934Y-33722D01*
X14934Y-33984D01*
X15244Y-33984D02*
X15196Y-33960D01*
X15172Y-33936D01*
X15148Y-33888D01*
X15148Y-33746D01*
X15172Y-33698D01*
X15196Y-33674D01*
X15244Y-33650D01*
X15315Y-33650D01*
X15363Y-33674D01*
X15386Y-33698D01*
X15410Y-33746D01*
X15410Y-33888D01*
X15386Y-33936D01*
X15363Y-33960D01*
X15315Y-33984D01*
X15244Y-33984D01*
X11553Y-34784D02*
X11386Y-34546D01*
X11267Y-34784D02*
X11267Y-34284D01*
X11458Y-34284D01*
X11506Y-34308D01*
X11529Y-34331D01*
X11553Y-34379D01*
X11553Y-34450D01*
X11529Y-34498D01*
X11506Y-34522D01*
X11458Y-34546D01*
X11267Y-34546D01*
X11958Y-34760D02*
X11910Y-34784D01*
X11815Y-34784D01*
X11767Y-34760D01*
X11744Y-34712D01*
X11744Y-34522D01*
X11767Y-34474D01*
X11815Y-34450D01*
X11910Y-34450D01*
X11958Y-34474D01*
X11982Y-34522D01*
X11982Y-34569D01*
X11744Y-34617D01*
X12148Y-34450D02*
X12267Y-34784D01*
X12386Y-34450D01*
X12577Y-34736D02*
X12601Y-34760D01*
X12577Y-34784D01*
X12553Y-34760D01*
X12577Y-34736D01*
X12577Y-34784D01*
X13172Y-34641D02*
X13410Y-34641D01*
X13125Y-34784D02*
X13291Y-34284D01*
X13458Y-34784D01*
X13958Y-34284D02*
X14291Y-34284D01*
X14077Y-34784D01*
X14625Y-34284D02*
X14625Y-34641D01*
X14601Y-34712D01*
X14553Y-34760D01*
X14482Y-34784D01*
X14434Y-34784D01*
X15077Y-34450D02*
X15077Y-34784D01*
X14863Y-34450D02*
X14863Y-34712D01*
X14886Y-34760D01*
X14934Y-34784D01*
X15005Y-34784D01*
X15053Y-34760D01*
X15077Y-34736D01*
X15386Y-34784D02*
X15339Y-34760D01*
X15315Y-34712D01*
X15315Y-34284D01*
X15553Y-34331D02*
X15577Y-34308D01*
X15625Y-34284D01*
X15744Y-34284D01*
X15791Y-34308D01*
X15815Y-34331D01*
X15839Y-34379D01*
X15839Y-34427D01*
X15815Y-34498D01*
X15529Y-34784D01*
X15839Y-34784D01*
X16148Y-34284D02*
X16196Y-34284D01*
X16244Y-34308D01*
X16267Y-34331D01*
X16291Y-34379D01*
X16315Y-34474D01*
X16315Y-34593D01*
X16291Y-34688D01*
X16267Y-34736D01*
X16244Y-34760D01*
X16196Y-34784D01*
X16148Y-34784D01*
X16101Y-34760D01*
X16077Y-34736D01*
X16053Y-34688D01*
X16029Y-34593D01*
X16029Y-34474D01*
X16053Y-34379D01*
X16077Y-34331D01*
X16101Y-34308D01*
X16148Y-34284D01*
X16791Y-34784D02*
X16506Y-34784D01*
X16648Y-34784D02*
X16648Y-34284D01*
X16601Y-34355D01*
X16553Y-34403D01*
X16506Y-34427D01*
X17220Y-34450D02*
X17220Y-34784D01*
X17101Y-34260D02*
X16982Y-34617D01*
X17291Y-34617D01*
X11017Y-35536D02*
X10994Y-35560D01*
X10922Y-35584D01*
X10875Y-35584D01*
X10803Y-35560D01*
X10755Y-35512D01*
X10732Y-35465D01*
X10708Y-35369D01*
X10708Y-35298D01*
X10732Y-35203D01*
X10755Y-35155D01*
X10803Y-35108D01*
X10875Y-35084D01*
X10922Y-35084D01*
X10994Y-35108D01*
X11017Y-35131D01*
X11303Y-35584D02*
X11255Y-35560D01*
X11232Y-35536D01*
X11208Y-35488D01*
X11208Y-35346D01*
X11232Y-35298D01*
X11255Y-35274D01*
X11303Y-35250D01*
X11375Y-35250D01*
X11422Y-35274D01*
X11446Y-35298D01*
X11470Y-35346D01*
X11470Y-35488D01*
X11446Y-35536D01*
X11422Y-35560D01*
X11375Y-35584D01*
X11303Y-35584D01*
X11684Y-35250D02*
X11684Y-35750D01*
X11684Y-35274D02*
X11732Y-35250D01*
X11827Y-35250D01*
X11875Y-35274D01*
X11898Y-35298D01*
X11922Y-35346D01*
X11922Y-35488D01*
X11898Y-35536D01*
X11875Y-35560D01*
X11827Y-35584D01*
X11732Y-35584D01*
X11684Y-35560D01*
X12089Y-35250D02*
X12208Y-35584D01*
X12327Y-35250D02*
X12208Y-35584D01*
X12160Y-35703D01*
X12136Y-35727D01*
X12089Y-35750D01*
X12517Y-35584D02*
X12517Y-35250D01*
X12517Y-35346D02*
X12541Y-35298D01*
X12565Y-35274D01*
X12613Y-35250D01*
X12660Y-35250D01*
X12827Y-35584D02*
X12827Y-35250D01*
X12827Y-35084D02*
X12803Y-35108D01*
X12827Y-35131D01*
X12851Y-35108D01*
X12827Y-35084D01*
X12827Y-35131D01*
X13279Y-35250D02*
X13279Y-35655D01*
X13255Y-35703D01*
X13232Y-35727D01*
X13184Y-35750D01*
X13113Y-35750D01*
X13065Y-35727D01*
X13279Y-35560D02*
X13232Y-35584D01*
X13136Y-35584D01*
X13089Y-35560D01*
X13065Y-35536D01*
X13041Y-35488D01*
X13041Y-35346D01*
X13065Y-35298D01*
X13089Y-35274D01*
X13136Y-35250D01*
X13232Y-35250D01*
X13279Y-35274D01*
X13517Y-35584D02*
X13517Y-35084D01*
X13732Y-35584D02*
X13732Y-35322D01*
X13708Y-35274D01*
X13660Y-35250D01*
X13589Y-35250D01*
X13541Y-35274D01*
X13517Y-35298D01*
X13898Y-35250D02*
X14089Y-35250D01*
X13970Y-35084D02*
X13970Y-35512D01*
X13994Y-35560D01*
X14041Y-35584D01*
X14089Y-35584D01*
X14779Y-35774D02*
X14756Y-35750D01*
X14708Y-35679D01*
X14684Y-35631D01*
X14660Y-35560D01*
X14636Y-35441D01*
X14636Y-35346D01*
X14660Y-35227D01*
X14684Y-35155D01*
X14708Y-35108D01*
X14756Y-35036D01*
X14779Y-35012D01*
X15184Y-35560D02*
X15136Y-35584D01*
X15041Y-35584D01*
X14994Y-35560D01*
X14970Y-35536D01*
X14946Y-35488D01*
X14946Y-35346D01*
X14970Y-35298D01*
X14994Y-35274D01*
X15041Y-35250D01*
X15136Y-35250D01*
X15184Y-35274D01*
X15351Y-35774D02*
X15375Y-35750D01*
X15422Y-35679D01*
X15446Y-35631D01*
X15470Y-35560D01*
X15494Y-35441D01*
X15494Y-35346D01*
X15470Y-35227D01*
X15446Y-35155D01*
X15422Y-35108D01*
X15375Y-35036D01*
X15351Y-35012D01*
X16089Y-35131D02*
X16113Y-35108D01*
X16160Y-35084D01*
X16279Y-35084D01*
X16327Y-35108D01*
X16351Y-35131D01*
X16375Y-35179D01*
X16375Y-35227D01*
X16351Y-35298D01*
X16065Y-35584D01*
X16375Y-35584D01*
X16684Y-35084D02*
X16732Y-35084D01*
X16779Y-35108D01*
X16803Y-35131D01*
X16827Y-35179D01*
X16851Y-35274D01*
X16851Y-35393D01*
X16827Y-35488D01*
X16803Y-35536D01*
X16779Y-35560D01*
X16732Y-35584D01*
X16684Y-35584D01*
X16636Y-35560D01*
X16613Y-35536D01*
X16589Y-35488D01*
X16565Y-35393D01*
X16565Y-35274D01*
X16589Y-35179D01*
X16613Y-35131D01*
X16636Y-35108D01*
X16684Y-35084D01*
X17327Y-35584D02*
X17041Y-35584D01*
X17184Y-35584D02*
X17184Y-35084D01*
X17136Y-35155D01*
X17089Y-35203D01*
X17041Y-35227D01*
X17756Y-35250D02*
X17756Y-35584D01*
X17636Y-35060D02*
X17517Y-35417D01*
X17827Y-35417D01*
X12113Y-36384D02*
X12113Y-35884D01*
X12113Y-36074D02*
X12160Y-36050D01*
X12256Y-36050D01*
X12303Y-36074D01*
X12327Y-36098D01*
X12351Y-36146D01*
X12351Y-36288D01*
X12327Y-36336D01*
X12303Y-36360D01*
X12256Y-36384D01*
X12160Y-36384D01*
X12113Y-36360D01*
X12517Y-36050D02*
X12636Y-36384D01*
X12756Y-36050D02*
X12636Y-36384D01*
X12589Y-36503D01*
X12565Y-36527D01*
X12517Y-36550D01*
X13589Y-35908D02*
X13541Y-35884D01*
X13470Y-35884D01*
X13398Y-35908D01*
X13351Y-35955D01*
X13327Y-36003D01*
X13303Y-36098D01*
X13303Y-36169D01*
X13327Y-36265D01*
X13351Y-36312D01*
X13398Y-36360D01*
X13470Y-36384D01*
X13517Y-36384D01*
X13589Y-36360D01*
X13613Y-36336D01*
X13613Y-36169D01*
X13517Y-36169D01*
X13827Y-36384D02*
X13827Y-36050D01*
X13827Y-36146D02*
X13851Y-36098D01*
X13875Y-36074D01*
X13922Y-36050D01*
X13970Y-36050D01*
X14351Y-36384D02*
X14351Y-36122D01*
X14327Y-36074D01*
X14279Y-36050D01*
X14184Y-36050D01*
X14136Y-36074D01*
X14351Y-36360D02*
X14303Y-36384D01*
X14184Y-36384D01*
X14136Y-36360D01*
X14113Y-36312D01*
X14113Y-36265D01*
X14136Y-36217D01*
X14184Y-36193D01*
X14303Y-36193D01*
X14351Y-36169D01*
X14589Y-36384D02*
X14589Y-36050D01*
X14589Y-36098D02*
X14613Y-36074D01*
X14660Y-36050D01*
X14732Y-36050D01*
X14779Y-36074D01*
X14803Y-36122D01*
X14803Y-36384D01*
X14803Y-36122D02*
X14827Y-36074D01*
X14875Y-36050D01*
X14946Y-36050D01*
X14994Y-36074D01*
X15017Y-36122D01*
X15017Y-36384D01*
X15327Y-36384D02*
X15279Y-36360D01*
X15256Y-36312D01*
X15256Y-35884D01*
X15517Y-36384D02*
X15517Y-36050D01*
X15517Y-35884D02*
X15494Y-35908D01*
X15517Y-35931D01*
X15541Y-35908D01*
X15517Y-35884D01*
X15517Y-35931D01*
X15970Y-36360D02*
X15922Y-36384D01*
X15827Y-36384D01*
X15779Y-36360D01*
X15756Y-36336D01*
X15732Y-36288D01*
X15732Y-36146D01*
X15756Y-36098D01*
X15779Y-36074D01*
X15827Y-36050D01*
X15922Y-36050D01*
X15970Y-36074D01*
X16184Y-36384D02*
X16184Y-35884D01*
X16398Y-36384D02*
X16398Y-36122D01*
X16375Y-36074D01*
X16327Y-36050D01*
X16256Y-36050D01*
X16208Y-36074D01*
X16184Y-36098D01*
X37264Y-30576D02*
X37359Y-30576D01*
X37407Y-30600D01*
X37454Y-30647D01*
X37478Y-30742D01*
X37478Y-30909D01*
X37454Y-31004D01*
X37407Y-31052D01*
X37359Y-31076D01*
X37264Y-31076D01*
X37216Y-31052D01*
X37169Y-31004D01*
X37145Y-30909D01*
X37145Y-30742D01*
X37169Y-30647D01*
X37216Y-30600D01*
X37264Y-30576D01*
X35269Y-32926D02*
X35269Y-32426D01*
X35459Y-32426D01*
X35507Y-32450D01*
X35530Y-32473D01*
X35554Y-32521D01*
X35554Y-32592D01*
X35530Y-32640D01*
X35507Y-32664D01*
X35459Y-32688D01*
X35269Y-32688D01*
X35269Y-31976D02*
X35269Y-31476D01*
X35388Y-31476D01*
X35459Y-31500D01*
X35507Y-31547D01*
X35530Y-31595D01*
X35554Y-31690D01*
X35554Y-31761D01*
X35530Y-31857D01*
X35507Y-31904D01*
X35459Y-31952D01*
X35388Y-31976D01*
X35269Y-31976D01*
G54D11*
X18933Y-24280D02*
X18933Y-24566D01*
X18914Y-24623D01*
X18876Y-24661D01*
X18819Y-24680D01*
X18780Y-24680D01*
X19066Y-24280D02*
X19295Y-24280D01*
X19180Y-24680D02*
X19180Y-24280D01*
X19409Y-24566D02*
X19600Y-24566D01*
X19371Y-24680D02*
X19504Y-24280D01*
X19638Y-24680D01*
X19980Y-24300D02*
X19942Y-24280D01*
X19885Y-24280D01*
X19828Y-24300D01*
X19790Y-24338D01*
X19771Y-24376D01*
X19752Y-24452D01*
X19752Y-24509D01*
X19771Y-24585D01*
X19790Y-24623D01*
X19828Y-24661D01*
X19885Y-24680D01*
X19923Y-24680D01*
X19980Y-24661D01*
X20000Y-24642D01*
X20000Y-24509D01*
X19923Y-24509D01*
G54D13*
X34448Y-40078D02*
X34551Y-40078D01*
X34015Y-39645D02*
X33484Y-39645D01*
X34452Y-40082D02*
X34015Y-39645D01*
G54D11*
X33261Y-32226D02*
X33261Y-31726D01*
X33476Y-32202D02*
X33547Y-32226D01*
X33666Y-32226D01*
X33714Y-32202D01*
X33738Y-32178D01*
X33761Y-32130D01*
X33761Y-32083D01*
X33738Y-32035D01*
X33714Y-32011D01*
X33666Y-31988D01*
X33571Y-31964D01*
X33523Y-31940D01*
X33500Y-31916D01*
X33476Y-31869D01*
X33476Y-31821D01*
X33500Y-31773D01*
X33523Y-31750D01*
X33571Y-31726D01*
X33690Y-31726D01*
X33761Y-31750D01*
X33976Y-32226D02*
X33976Y-31726D01*
X34166Y-31726D01*
X34214Y-31750D01*
X34238Y-31773D01*
X34261Y-31821D01*
X34261Y-31892D01*
X34238Y-31940D01*
X34214Y-31964D01*
X34166Y-31988D01*
X33976Y-31988D01*
X45523Y-38226D02*
X45357Y-37988D01*
X45238Y-38226D02*
X45238Y-37726D01*
X45428Y-37726D01*
X45476Y-37750D01*
X45500Y-37773D01*
X45523Y-37821D01*
X45523Y-37892D01*
X45500Y-37940D01*
X45476Y-37964D01*
X45428Y-37988D01*
X45238Y-37988D01*
X45738Y-37964D02*
X45904Y-37964D01*
X45976Y-38226D02*
X45738Y-38226D01*
X45738Y-37726D01*
X45976Y-37726D01*
X46166Y-38202D02*
X46238Y-38226D01*
X46357Y-38226D01*
X46404Y-38202D01*
X46428Y-38178D01*
X46452Y-38130D01*
X46452Y-38083D01*
X46428Y-38035D01*
X46404Y-38011D01*
X46357Y-37988D01*
X46261Y-37964D01*
X46214Y-37940D01*
X46190Y-37916D01*
X46166Y-37869D01*
X46166Y-37821D01*
X46190Y-37773D01*
X46214Y-37750D01*
X46261Y-37726D01*
X46380Y-37726D01*
X46452Y-37750D01*
X46666Y-37964D02*
X46833Y-37964D01*
X46904Y-38226D02*
X46666Y-38226D01*
X46666Y-37726D01*
X46904Y-37726D01*
X47047Y-37726D02*
X47333Y-37726D01*
X47190Y-38226D02*
X47190Y-37726D01*
X47380Y-25000D02*
X47333Y-24976D01*
X47261Y-24976D01*
X47190Y-25000D01*
X47142Y-25047D01*
X47119Y-25095D01*
X47095Y-25190D01*
X47095Y-25261D01*
X47119Y-25357D01*
X47142Y-25404D01*
X47190Y-25452D01*
X47261Y-25476D01*
X47309Y-25476D01*
X47380Y-25452D01*
X47404Y-25428D01*
X47404Y-25261D01*
X47309Y-25261D01*
X47250Y-24238D02*
X47250Y-24476D01*
X47083Y-23976D02*
X47250Y-24238D01*
X47416Y-23976D01*
X47202Y-22976D02*
X47297Y-22976D01*
X47345Y-23000D01*
X47392Y-23047D01*
X47416Y-23142D01*
X47416Y-23309D01*
X47392Y-23404D01*
X47345Y-23452D01*
X47297Y-23476D01*
X47202Y-23476D01*
X47154Y-23452D01*
X47107Y-23404D01*
X47083Y-23309D01*
X47083Y-23142D01*
X47107Y-23047D01*
X47154Y-23000D01*
X47202Y-22976D01*
G54D14*
X47404Y-22476D02*
X47238Y-22238D01*
X47119Y-22476D02*
X47119Y-21976D01*
X47309Y-21976D01*
X47357Y-22000D01*
X47380Y-22023D01*
X47404Y-22071D01*
X47404Y-22142D01*
X47380Y-22190D01*
X47357Y-22214D01*
X47309Y-22238D01*
X47119Y-22238D01*
G54D11*
X47285Y-21214D02*
X47357Y-21238D01*
X47380Y-21261D01*
X47404Y-21309D01*
X47404Y-21380D01*
X47380Y-21428D01*
X47357Y-21452D01*
X47309Y-21476D01*
X47119Y-21476D01*
X47119Y-20976D01*
X47285Y-20976D01*
X47333Y-21000D01*
X47357Y-21023D01*
X47380Y-21071D01*
X47380Y-21119D01*
X47357Y-21166D01*
X47333Y-21190D01*
X47285Y-21214D01*
X47119Y-21214D01*
X47285Y-20214D02*
X47357Y-20238D01*
X47380Y-20261D01*
X47404Y-20309D01*
X47404Y-20380D01*
X47380Y-20428D01*
X47357Y-20452D01*
X47309Y-20476D01*
X47119Y-20476D01*
X47119Y-19976D01*
X47285Y-19976D01*
X47333Y-20000D01*
X47357Y-20023D01*
X47380Y-20071D01*
X47380Y-20119D01*
X47357Y-20166D01*
X47333Y-20190D01*
X47285Y-20214D01*
X47119Y-20214D01*
X45392Y-35726D02*
X45678Y-35726D01*
X45535Y-36226D02*
X45535Y-35726D01*
X45845Y-35964D02*
X46011Y-35964D01*
X46083Y-36226D02*
X45845Y-36226D01*
X45845Y-35726D01*
X46083Y-35726D01*
X46583Y-36226D02*
X46416Y-35988D01*
X46297Y-36226D02*
X46297Y-35726D01*
X46488Y-35726D01*
X46535Y-35750D01*
X46559Y-35773D01*
X46583Y-35821D01*
X46583Y-35892D01*
X46559Y-35940D01*
X46535Y-35964D01*
X46488Y-35988D01*
X46297Y-35988D01*
X46797Y-36226D02*
X46797Y-35726D01*
X46964Y-36083D01*
X47130Y-35726D01*
X47130Y-36226D01*
X46083Y-36726D02*
X46178Y-36726D01*
X46226Y-36750D01*
X46273Y-36797D01*
X46297Y-36892D01*
X46297Y-37059D01*
X46273Y-37154D01*
X46226Y-37202D01*
X46178Y-37226D01*
X46083Y-37226D01*
X46035Y-37202D01*
X45988Y-37154D01*
X45964Y-37059D01*
X45964Y-36892D01*
X45988Y-36797D01*
X46035Y-36750D01*
X46083Y-36726D01*
X46678Y-36964D02*
X46511Y-36964D01*
X46511Y-37226D02*
X46511Y-36726D01*
X46750Y-36726D01*
X47107Y-36964D02*
X46940Y-36964D01*
X46940Y-37226D02*
X46940Y-36726D01*
X47178Y-36726D01*
X46416Y-34726D02*
X46511Y-34726D01*
X46559Y-34750D01*
X46607Y-34797D01*
X46630Y-34892D01*
X46630Y-35059D01*
X46607Y-35154D01*
X46559Y-35202D01*
X46511Y-35226D01*
X46416Y-35226D01*
X46369Y-35202D01*
X46321Y-35154D01*
X46297Y-35059D01*
X46297Y-34892D01*
X46321Y-34797D01*
X46369Y-34750D01*
X46416Y-34726D01*
X46845Y-35226D02*
X46845Y-34726D01*
X47130Y-35226D01*
X47130Y-34726D01*
G54D13*
X27000Y-21000D02*
X27000Y-22000D01*
X29000Y-21000D02*
X29000Y-22000D01*
X31000Y-21000D02*
X31000Y-22000D01*
X33000Y-21000D02*
X33000Y-22000D01*
X23750Y-21000D02*
X23750Y-22000D01*
X21500Y-21000D02*
X21250Y-21000D01*
X21500Y-22000D02*
X21500Y-21000D01*
X19500Y-22000D02*
X19500Y-21000D01*
G54D12*
X15845Y-21583D02*
X16083Y-21583D01*
X15797Y-21726D02*
X15964Y-21226D01*
X16130Y-21726D01*
X16583Y-21726D02*
X16416Y-21488D01*
X16297Y-21726D02*
X16297Y-21226D01*
X16488Y-21226D01*
X16535Y-21250D01*
X16559Y-21273D01*
X16583Y-21321D01*
X16583Y-21392D01*
X16559Y-21440D01*
X16535Y-21464D01*
X16488Y-21488D01*
X16297Y-21488D01*
X16797Y-21464D02*
X16964Y-21464D01*
X17035Y-21726D02*
X16797Y-21726D01*
X16797Y-21226D01*
X17035Y-21226D01*
X17416Y-21464D02*
X17250Y-21464D01*
X17250Y-21726D02*
X17250Y-21226D01*
X17488Y-21226D01*
X18130Y-21250D02*
X18083Y-21226D01*
X18011Y-21226D01*
X17940Y-21250D01*
X17892Y-21297D01*
X17869Y-21345D01*
X17845Y-21440D01*
X17845Y-21511D01*
X17869Y-21607D01*
X17892Y-21654D01*
X17940Y-21702D01*
X18011Y-21726D01*
X18059Y-21726D01*
X18130Y-21702D01*
X18154Y-21678D01*
X18154Y-21511D01*
X18059Y-21511D01*
X18369Y-21726D02*
X18369Y-21226D01*
X18654Y-21726D01*
X18654Y-21226D01*
X18892Y-21726D02*
X18892Y-21226D01*
X19011Y-21226D01*
X19083Y-21250D01*
X19130Y-21297D01*
X19154Y-21345D01*
X19178Y-21440D01*
X19178Y-21511D01*
X19154Y-21607D01*
X19130Y-21654D01*
X19083Y-21702D01*
X19011Y-21726D01*
X18892Y-21726D01*
X18869Y-22726D02*
X18869Y-22226D01*
X18988Y-22226D01*
X19059Y-22250D01*
X19107Y-22297D01*
X19130Y-22345D01*
X19154Y-22440D01*
X19154Y-22511D01*
X19130Y-22607D01*
X19107Y-22654D01*
X19059Y-22702D01*
X18988Y-22726D01*
X18869Y-22726D01*
X19630Y-22726D02*
X19345Y-22726D01*
X19488Y-22726D02*
X19488Y-22226D01*
X19440Y-22297D01*
X19392Y-22345D01*
X19345Y-22369D01*
X19797Y-22226D02*
X20107Y-22226D01*
X19940Y-22416D01*
X20011Y-22416D01*
X20059Y-22440D01*
X20083Y-22464D01*
X20107Y-22511D01*
X20107Y-22630D01*
X20083Y-22678D01*
X20059Y-22702D01*
X20011Y-22726D01*
X19869Y-22726D01*
X19821Y-22702D01*
X19797Y-22678D01*
X19869Y-21726D02*
X19869Y-21226D01*
X19988Y-21226D01*
X20059Y-21250D01*
X20107Y-21297D01*
X20130Y-21345D01*
X20154Y-21440D01*
X20154Y-21511D01*
X20130Y-21607D01*
X20107Y-21654D01*
X20059Y-21702D01*
X19988Y-21726D01*
X19869Y-21726D01*
X20630Y-21726D02*
X20345Y-21726D01*
X20488Y-21726D02*
X20488Y-21226D01*
X20440Y-21297D01*
X20392Y-21345D01*
X20345Y-21369D01*
X20821Y-21273D02*
X20845Y-21250D01*
X20892Y-21226D01*
X21011Y-21226D01*
X21059Y-21250D01*
X21083Y-21273D01*
X21107Y-21321D01*
X21107Y-21369D01*
X21083Y-21440D01*
X20797Y-21726D01*
X21107Y-21726D01*
X20619Y-22726D02*
X20619Y-22226D01*
X20738Y-22226D01*
X20809Y-22250D01*
X20857Y-22297D01*
X20880Y-22345D01*
X20904Y-22440D01*
X20904Y-22511D01*
X20880Y-22607D01*
X20857Y-22654D01*
X20809Y-22702D01*
X20738Y-22726D01*
X20619Y-22726D01*
X21380Y-22726D02*
X21095Y-22726D01*
X21238Y-22726D02*
X21238Y-22226D01*
X21190Y-22297D01*
X21142Y-22345D01*
X21095Y-22369D01*
X21857Y-22726D02*
X21571Y-22726D01*
X21714Y-22726D02*
X21714Y-22226D01*
X21666Y-22297D01*
X21619Y-22345D01*
X21571Y-22369D01*
X21869Y-21726D02*
X21869Y-21226D01*
X21988Y-21226D01*
X22059Y-21250D01*
X22107Y-21297D01*
X22130Y-21345D01*
X22154Y-21440D01*
X22154Y-21511D01*
X22130Y-21607D01*
X22107Y-21654D01*
X22059Y-21702D01*
X21988Y-21726D01*
X21869Y-21726D01*
X22630Y-21726D02*
X22345Y-21726D01*
X22488Y-21726D02*
X22488Y-21226D01*
X22440Y-21297D01*
X22392Y-21345D01*
X22345Y-21369D01*
X22940Y-21226D02*
X22988Y-21226D01*
X23035Y-21250D01*
X23059Y-21273D01*
X23083Y-21321D01*
X23107Y-21416D01*
X23107Y-21535D01*
X23083Y-21630D01*
X23059Y-21678D01*
X23035Y-21702D01*
X22988Y-21726D01*
X22940Y-21726D01*
X22892Y-21702D01*
X22869Y-21678D01*
X22845Y-21630D01*
X22821Y-21535D01*
X22821Y-21416D01*
X22845Y-21321D01*
X22869Y-21273D01*
X22892Y-21250D01*
X22940Y-21226D01*
X23369Y-22726D02*
X23369Y-22226D01*
X23488Y-22226D01*
X23559Y-22250D01*
X23607Y-22297D01*
X23630Y-22345D01*
X23654Y-22440D01*
X23654Y-22511D01*
X23630Y-22607D01*
X23607Y-22654D01*
X23559Y-22702D01*
X23488Y-22726D01*
X23369Y-22726D01*
X23892Y-22726D02*
X23988Y-22726D01*
X24035Y-22702D01*
X24059Y-22678D01*
X24107Y-22607D01*
X24130Y-22511D01*
X24130Y-22321D01*
X24107Y-22273D01*
X24083Y-22250D01*
X24035Y-22226D01*
X23940Y-22226D01*
X23892Y-22250D01*
X23869Y-22273D01*
X23845Y-22321D01*
X23845Y-22440D01*
X23869Y-22488D01*
X23892Y-22511D01*
X23940Y-22535D01*
X24035Y-22535D01*
X24083Y-22511D01*
X24107Y-22488D01*
X24130Y-22440D01*
X24119Y-21726D02*
X24119Y-21226D01*
X24238Y-21226D01*
X24309Y-21250D01*
X24357Y-21297D01*
X24380Y-21345D01*
X24404Y-21440D01*
X24404Y-21511D01*
X24380Y-21607D01*
X24357Y-21654D01*
X24309Y-21702D01*
X24238Y-21726D01*
X24119Y-21726D01*
X24690Y-21440D02*
X24642Y-21416D01*
X24619Y-21392D01*
X24595Y-21345D01*
X24595Y-21321D01*
X24619Y-21273D01*
X24642Y-21250D01*
X24690Y-21226D01*
X24785Y-21226D01*
X24833Y-21250D01*
X24857Y-21273D01*
X24880Y-21321D01*
X24880Y-21345D01*
X24857Y-21392D01*
X24833Y-21416D01*
X24785Y-21440D01*
X24690Y-21440D01*
X24642Y-21464D01*
X24619Y-21488D01*
X24595Y-21535D01*
X24595Y-21630D01*
X24619Y-21678D01*
X24642Y-21702D01*
X24690Y-21726D01*
X24785Y-21726D01*
X24833Y-21702D01*
X24857Y-21678D01*
X24880Y-21630D01*
X24880Y-21535D01*
X24857Y-21488D01*
X24833Y-21464D01*
X24785Y-21440D01*
X25619Y-21726D02*
X25619Y-21226D01*
X25738Y-21226D01*
X25809Y-21250D01*
X25857Y-21297D01*
X25880Y-21345D01*
X25904Y-21440D01*
X25904Y-21511D01*
X25880Y-21607D01*
X25857Y-21654D01*
X25809Y-21702D01*
X25738Y-21726D01*
X25619Y-21726D01*
X26071Y-21226D02*
X26404Y-21226D01*
X26190Y-21726D01*
X26619Y-22726D02*
X26619Y-22226D01*
X26738Y-22226D01*
X26809Y-22250D01*
X26857Y-22297D01*
X26880Y-22345D01*
X26904Y-22440D01*
X26904Y-22511D01*
X26880Y-22607D01*
X26857Y-22654D01*
X26809Y-22702D01*
X26738Y-22726D01*
X26619Y-22726D01*
X27333Y-22226D02*
X27238Y-22226D01*
X27190Y-22250D01*
X27166Y-22273D01*
X27119Y-22345D01*
X27095Y-22440D01*
X27095Y-22630D01*
X27119Y-22678D01*
X27142Y-22702D01*
X27190Y-22726D01*
X27285Y-22726D01*
X27333Y-22702D01*
X27357Y-22678D01*
X27380Y-22630D01*
X27380Y-22511D01*
X27357Y-22464D01*
X27333Y-22440D01*
X27285Y-22416D01*
X27190Y-22416D01*
X27142Y-22440D01*
X27119Y-22464D01*
X27095Y-22511D01*
X27619Y-21726D02*
X27619Y-21226D01*
X27738Y-21226D01*
X27809Y-21250D01*
X27857Y-21297D01*
X27880Y-21345D01*
X27904Y-21440D01*
X27904Y-21511D01*
X27880Y-21607D01*
X27857Y-21654D01*
X27809Y-21702D01*
X27738Y-21726D01*
X27619Y-21726D01*
X28357Y-21226D02*
X28119Y-21226D01*
X28095Y-21464D01*
X28119Y-21440D01*
X28166Y-21416D01*
X28285Y-21416D01*
X28333Y-21440D01*
X28357Y-21464D01*
X28380Y-21511D01*
X28380Y-21630D01*
X28357Y-21678D01*
X28333Y-21702D01*
X28285Y-21726D01*
X28166Y-21726D01*
X28119Y-21702D01*
X28095Y-21678D01*
X28619Y-22726D02*
X28619Y-22226D01*
X28738Y-22226D01*
X28809Y-22250D01*
X28857Y-22297D01*
X28880Y-22345D01*
X28904Y-22440D01*
X28904Y-22511D01*
X28880Y-22607D01*
X28857Y-22654D01*
X28809Y-22702D01*
X28738Y-22726D01*
X28619Y-22726D01*
X29333Y-22392D02*
X29333Y-22726D01*
X29214Y-22202D02*
X29095Y-22559D01*
X29404Y-22559D01*
X29619Y-21726D02*
X29619Y-21226D01*
X29738Y-21226D01*
X29809Y-21250D01*
X29857Y-21297D01*
X29880Y-21345D01*
X29904Y-21440D01*
X29904Y-21511D01*
X29880Y-21607D01*
X29857Y-21654D01*
X29809Y-21702D01*
X29738Y-21726D01*
X29619Y-21726D01*
X30071Y-21226D02*
X30380Y-21226D01*
X30214Y-21416D01*
X30285Y-21416D01*
X30333Y-21440D01*
X30357Y-21464D01*
X30380Y-21511D01*
X30380Y-21630D01*
X30357Y-21678D01*
X30333Y-21702D01*
X30285Y-21726D01*
X30142Y-21726D01*
X30095Y-21702D01*
X30071Y-21678D01*
X30619Y-22726D02*
X30619Y-22226D01*
X30738Y-22226D01*
X30809Y-22250D01*
X30857Y-22297D01*
X30880Y-22345D01*
X30904Y-22440D01*
X30904Y-22511D01*
X30880Y-22607D01*
X30857Y-22654D01*
X30809Y-22702D01*
X30738Y-22726D01*
X30619Y-22726D01*
X31095Y-22273D02*
X31119Y-22250D01*
X31166Y-22226D01*
X31285Y-22226D01*
X31333Y-22250D01*
X31357Y-22273D01*
X31380Y-22321D01*
X31380Y-22369D01*
X31357Y-22440D01*
X31071Y-22726D01*
X31380Y-22726D01*
X31869Y-21726D02*
X31869Y-21226D01*
X31988Y-21226D01*
X32059Y-21250D01*
X32107Y-21297D01*
X32130Y-21345D01*
X32154Y-21440D01*
X32154Y-21511D01*
X32130Y-21607D01*
X32107Y-21654D01*
X32059Y-21702D01*
X31988Y-21726D01*
X31869Y-21726D01*
X32630Y-21726D02*
X32345Y-21726D01*
X32488Y-21726D02*
X32488Y-21226D01*
X32440Y-21297D01*
X32392Y-21345D01*
X32345Y-21369D01*
X32619Y-22726D02*
X32619Y-22226D01*
X32738Y-22226D01*
X32809Y-22250D01*
X32857Y-22297D01*
X32880Y-22345D01*
X32904Y-22440D01*
X32904Y-22511D01*
X32880Y-22607D01*
X32857Y-22654D01*
X32809Y-22702D01*
X32738Y-22726D01*
X32619Y-22726D01*
X33214Y-22226D02*
X33261Y-22226D01*
X33309Y-22250D01*
X33333Y-22273D01*
X33357Y-22321D01*
X33380Y-22416D01*
X33380Y-22535D01*
X33357Y-22630D01*
X33333Y-22678D01*
X33309Y-22702D01*
X33261Y-22726D01*
X33214Y-22726D01*
X33166Y-22702D01*
X33142Y-22678D01*
X33119Y-22630D01*
X33095Y-22535D01*
X33095Y-22416D01*
X33119Y-22321D01*
X33142Y-22273D01*
X33166Y-22250D01*
X33214Y-22226D01*
G54D13*
X24000Y-39000D02*
X24000Y-38300D01*
X26000Y-39000D02*
X26000Y-38300D01*
G54D12*
X24371Y-38326D02*
X24680Y-38326D01*
X24514Y-38516D01*
X24585Y-38516D01*
X24633Y-38540D01*
X24657Y-38564D01*
X24680Y-38611D01*
X24680Y-38730D01*
X24657Y-38778D01*
X24633Y-38802D01*
X24585Y-38826D01*
X24442Y-38826D01*
X24395Y-38802D01*
X24371Y-38778D01*
X24823Y-38326D02*
X24990Y-38826D01*
X25157Y-38326D01*
X25276Y-38326D02*
X25585Y-38326D01*
X25419Y-38516D01*
X25490Y-38516D01*
X25538Y-38540D01*
X25561Y-38564D01*
X25585Y-38611D01*
X25585Y-38730D01*
X25561Y-38778D01*
X25538Y-38802D01*
X25490Y-38826D01*
X25347Y-38826D01*
X25300Y-38802D01*
X25276Y-38778D01*
X23395Y-37935D02*
X23776Y-37935D01*
X23585Y-38126D02*
X23585Y-37745D01*
X24252Y-37626D02*
X24014Y-37626D01*
X23990Y-37864D01*
X24014Y-37840D01*
X24061Y-37816D01*
X24180Y-37816D01*
X24228Y-37840D01*
X24252Y-37864D01*
X24276Y-37911D01*
X24276Y-38030D01*
X24252Y-38078D01*
X24228Y-38102D01*
X24180Y-38126D01*
X24061Y-38126D01*
X24014Y-38102D01*
X23990Y-38078D01*
X24419Y-37626D02*
X24585Y-38126D01*
X24752Y-37626D01*
X22107Y-38500D02*
X22059Y-38476D01*
X21988Y-38476D01*
X21916Y-38500D01*
X21869Y-38547D01*
X21845Y-38595D01*
X21821Y-38690D01*
X21821Y-38761D01*
X21845Y-38857D01*
X21869Y-38904D01*
X21916Y-38952D01*
X21988Y-38976D01*
X22035Y-38976D01*
X22107Y-38952D01*
X22130Y-38928D01*
X22130Y-38761D01*
X22035Y-38761D01*
X22345Y-38976D02*
X22345Y-38476D01*
X22630Y-38976D01*
X22630Y-38476D01*
X22869Y-38976D02*
X22869Y-38476D01*
X22988Y-38476D01*
X23059Y-38500D01*
X23107Y-38547D01*
X23130Y-38595D01*
X23154Y-38690D01*
X23154Y-38761D01*
X23130Y-38857D01*
X23107Y-38904D01*
X23059Y-38952D01*
X22988Y-38976D01*
X22869Y-38976D01*
X20107Y-38226D02*
X20273Y-38726D01*
X20440Y-38226D01*
X20607Y-38726D02*
X20607Y-38226D01*
X20845Y-38726D02*
X20845Y-38226D01*
X21130Y-38726D01*
X21130Y-38226D01*
G54D13*
X33000Y-38500D02*
X32500Y-38000D01*
X33000Y-39000D02*
X33000Y-38500D01*
G54D12*
X27345Y-38583D02*
X27583Y-38583D01*
X27297Y-38726D02*
X27464Y-38226D01*
X27630Y-38726D01*
X28035Y-38226D02*
X27797Y-38226D01*
X27773Y-38464D01*
X27797Y-38440D01*
X27845Y-38416D01*
X27964Y-38416D01*
X28011Y-38440D01*
X28035Y-38464D01*
X28059Y-38511D01*
X28059Y-38630D01*
X28035Y-38678D01*
X28011Y-38702D01*
X27964Y-38726D01*
X27845Y-38726D01*
X27797Y-38702D01*
X27773Y-38678D01*
X31845Y-38583D02*
X32083Y-38583D01*
X31797Y-38726D02*
X31964Y-38226D01*
X32130Y-38726D01*
X32559Y-38726D02*
X32273Y-38726D01*
X32416Y-38726D02*
X32416Y-38226D01*
X32369Y-38297D01*
X32321Y-38345D01*
X32273Y-38369D01*
X31690Y-37833D02*
X31928Y-37833D01*
X31642Y-37976D02*
X31809Y-37476D01*
X31976Y-37976D01*
X32238Y-37476D02*
X32285Y-37476D01*
X32333Y-37500D01*
X32357Y-37523D01*
X32380Y-37571D01*
X32404Y-37666D01*
X32404Y-37785D01*
X32380Y-37880D01*
X32357Y-37928D01*
X32333Y-37952D01*
X32285Y-37976D01*
X32238Y-37976D01*
X32190Y-37952D01*
X32166Y-37928D01*
X32142Y-37880D01*
X32119Y-37785D01*
X32119Y-37666D01*
X32142Y-37571D01*
X32166Y-37523D01*
X32190Y-37500D01*
X32238Y-37476D01*
X29595Y-38583D02*
X29833Y-38583D01*
X29547Y-38726D02*
X29714Y-38226D01*
X29880Y-38726D01*
X30000Y-38226D02*
X30309Y-38226D01*
X30142Y-38416D01*
X30214Y-38416D01*
X30261Y-38440D01*
X30285Y-38464D01*
X30309Y-38511D01*
X30309Y-38630D01*
X30285Y-38678D01*
X30261Y-38702D01*
X30214Y-38726D01*
X30071Y-38726D01*
X30023Y-38702D01*
X30000Y-38678D01*
X28440Y-38583D02*
X28678Y-38583D01*
X28392Y-38726D02*
X28559Y-38226D01*
X28726Y-38726D01*
X29107Y-38392D02*
X29107Y-38726D01*
X28988Y-38202D02*
X28869Y-38559D01*
X29178Y-38559D01*
X30690Y-38583D02*
X30928Y-38583D01*
X30642Y-38726D02*
X30809Y-38226D01*
X30976Y-38726D01*
X31119Y-38273D02*
X31142Y-38250D01*
X31190Y-38226D01*
X31309Y-38226D01*
X31357Y-38250D01*
X31380Y-38273D01*
X31404Y-38321D01*
X31404Y-38369D01*
X31380Y-38440D01*
X31095Y-38726D01*
X31404Y-38726D01*
X48619Y-18726D02*
X48619Y-18226D01*
X48738Y-18226D01*
X48809Y-18250D01*
X48857Y-18297D01*
X48880Y-18345D01*
X48904Y-18440D01*
X48904Y-18511D01*
X48880Y-18607D01*
X48857Y-18654D01*
X48809Y-18702D01*
X48738Y-18726D01*
X48619Y-18726D01*
X49214Y-18226D02*
X49261Y-18226D01*
X49309Y-18250D01*
X49333Y-18273D01*
X49357Y-18321D01*
X49380Y-18416D01*
X49380Y-18535D01*
X49357Y-18630D01*
X49333Y-18678D01*
X49309Y-18702D01*
X49261Y-18726D01*
X49214Y-18726D01*
X49166Y-18702D01*
X49142Y-18678D01*
X49119Y-18630D01*
X49095Y-18535D01*
X49095Y-18416D01*
X49119Y-18321D01*
X49142Y-18273D01*
X49166Y-18250D01*
X49214Y-18226D01*
X48619Y-17726D02*
X48619Y-17226D01*
X48738Y-17226D01*
X48809Y-17250D01*
X48857Y-17297D01*
X48880Y-17345D01*
X48904Y-17440D01*
X48904Y-17511D01*
X48880Y-17607D01*
X48857Y-17654D01*
X48809Y-17702D01*
X48738Y-17726D01*
X48619Y-17726D01*
X49095Y-17273D02*
X49119Y-17250D01*
X49166Y-17226D01*
X49285Y-17226D01*
X49333Y-17250D01*
X49357Y-17273D01*
X49380Y-17321D01*
X49380Y-17369D01*
X49357Y-17440D01*
X49071Y-17726D01*
X49380Y-17726D01*
X48619Y-16726D02*
X48619Y-16226D01*
X48738Y-16226D01*
X48809Y-16250D01*
X48857Y-16297D01*
X48880Y-16345D01*
X48904Y-16440D01*
X48904Y-16511D01*
X48880Y-16607D01*
X48857Y-16654D01*
X48809Y-16702D01*
X48738Y-16726D01*
X48619Y-16726D01*
X49333Y-16392D02*
X49333Y-16726D01*
X49214Y-16202D02*
X49095Y-16559D01*
X49404Y-16559D01*
X48619Y-15726D02*
X48619Y-15226D01*
X48738Y-15226D01*
X48809Y-15250D01*
X48857Y-15297D01*
X48880Y-15345D01*
X48904Y-15440D01*
X48904Y-15511D01*
X48880Y-15607D01*
X48857Y-15654D01*
X48809Y-15702D01*
X48738Y-15726D01*
X48619Y-15726D01*
X49333Y-15226D02*
X49238Y-15226D01*
X49190Y-15250D01*
X49166Y-15273D01*
X49119Y-15345D01*
X49095Y-15440D01*
X49095Y-15630D01*
X49119Y-15678D01*
X49142Y-15702D01*
X49190Y-15726D01*
X49285Y-15726D01*
X49333Y-15702D01*
X49357Y-15678D01*
X49380Y-15630D01*
X49380Y-15511D01*
X49357Y-15464D01*
X49333Y-15440D01*
X49285Y-15416D01*
X49190Y-15416D01*
X49142Y-15440D01*
X49119Y-15464D01*
X49095Y-15511D01*
X48619Y-14726D02*
X48619Y-14226D01*
X48738Y-14226D01*
X48809Y-14250D01*
X48857Y-14297D01*
X48880Y-14345D01*
X48904Y-14440D01*
X48904Y-14511D01*
X48880Y-14607D01*
X48857Y-14654D01*
X48809Y-14702D01*
X48738Y-14726D01*
X48619Y-14726D01*
X49190Y-14440D02*
X49142Y-14416D01*
X49119Y-14392D01*
X49095Y-14345D01*
X49095Y-14321D01*
X49119Y-14273D01*
X49142Y-14250D01*
X49190Y-14226D01*
X49285Y-14226D01*
X49333Y-14250D01*
X49357Y-14273D01*
X49380Y-14321D01*
X49380Y-14345D01*
X49357Y-14392D01*
X49333Y-14416D01*
X49285Y-14440D01*
X49190Y-14440D01*
X49142Y-14464D01*
X49119Y-14488D01*
X49095Y-14535D01*
X49095Y-14630D01*
X49119Y-14678D01*
X49142Y-14702D01*
X49190Y-14726D01*
X49285Y-14726D01*
X49333Y-14702D01*
X49357Y-14678D01*
X49380Y-14630D01*
X49380Y-14535D01*
X49357Y-14488D01*
X49333Y-14464D01*
X49285Y-14440D01*
X48880Y-13726D02*
X48595Y-13726D01*
X48738Y-13726D02*
X48738Y-13226D01*
X48690Y-13297D01*
X48642Y-13345D01*
X48595Y-13369D01*
X49190Y-13226D02*
X49238Y-13226D01*
X49285Y-13250D01*
X49309Y-13273D01*
X49333Y-13321D01*
X49357Y-13416D01*
X49357Y-13535D01*
X49333Y-13630D01*
X49309Y-13678D01*
X49285Y-13702D01*
X49238Y-13726D01*
X49190Y-13726D01*
X49142Y-13702D01*
X49119Y-13678D01*
X49095Y-13630D01*
X49071Y-13535D01*
X49071Y-13416D01*
X49095Y-13321D01*
X49119Y-13273D01*
X49142Y-13250D01*
X49190Y-13226D01*
X48880Y-12726D02*
X48595Y-12726D01*
X48738Y-12726D02*
X48738Y-12226D01*
X48690Y-12297D01*
X48642Y-12345D01*
X48595Y-12369D01*
X49071Y-12273D02*
X49095Y-12250D01*
X49142Y-12226D01*
X49261Y-12226D01*
X49309Y-12250D01*
X49333Y-12273D01*
X49357Y-12321D01*
X49357Y-12369D01*
X49333Y-12440D01*
X49047Y-12726D01*
X49357Y-12726D01*
X48619Y-11726D02*
X48619Y-11226D01*
X48785Y-11583D01*
X48952Y-11226D01*
X48952Y-11726D01*
X49190Y-11726D02*
X49190Y-11226D01*
X49380Y-11226D01*
X49428Y-11250D01*
X49452Y-11273D01*
X49476Y-11321D01*
X49476Y-11392D01*
X49452Y-11440D01*
X49428Y-11464D01*
X49380Y-11488D01*
X49190Y-11488D01*
X45619Y-18726D02*
X45619Y-18226D01*
X45738Y-18226D01*
X45809Y-18250D01*
X45857Y-18297D01*
X45880Y-18345D01*
X45904Y-18440D01*
X45904Y-18511D01*
X45880Y-18607D01*
X45857Y-18654D01*
X45809Y-18702D01*
X45738Y-18726D01*
X45619Y-18726D01*
X46380Y-18726D02*
X46095Y-18726D01*
X46238Y-18726D02*
X46238Y-18226D01*
X46190Y-18297D01*
X46142Y-18345D01*
X46095Y-18369D01*
X45619Y-17726D02*
X45619Y-17226D01*
X45738Y-17226D01*
X45809Y-17250D01*
X45857Y-17297D01*
X45880Y-17345D01*
X45904Y-17440D01*
X45904Y-17511D01*
X45880Y-17607D01*
X45857Y-17654D01*
X45809Y-17702D01*
X45738Y-17726D01*
X45619Y-17726D01*
X46071Y-17226D02*
X46380Y-17226D01*
X46214Y-17416D01*
X46285Y-17416D01*
X46333Y-17440D01*
X46357Y-17464D01*
X46380Y-17511D01*
X46380Y-17630D01*
X46357Y-17678D01*
X46333Y-17702D01*
X46285Y-17726D01*
X46142Y-17726D01*
X46095Y-17702D01*
X46071Y-17678D01*
X45619Y-16726D02*
X45619Y-16226D01*
X45738Y-16226D01*
X45809Y-16250D01*
X45857Y-16297D01*
X45880Y-16345D01*
X45904Y-16440D01*
X45904Y-16511D01*
X45880Y-16607D01*
X45857Y-16654D01*
X45809Y-16702D01*
X45738Y-16726D01*
X45619Y-16726D01*
X46357Y-16226D02*
X46119Y-16226D01*
X46095Y-16464D01*
X46119Y-16440D01*
X46166Y-16416D01*
X46285Y-16416D01*
X46333Y-16440D01*
X46357Y-16464D01*
X46380Y-16511D01*
X46380Y-16630D01*
X46357Y-16678D01*
X46333Y-16702D01*
X46285Y-16726D01*
X46166Y-16726D01*
X46119Y-16702D01*
X46095Y-16678D01*
X45619Y-15726D02*
X45619Y-15226D01*
X45738Y-15226D01*
X45809Y-15250D01*
X45857Y-15297D01*
X45880Y-15345D01*
X45904Y-15440D01*
X45904Y-15511D01*
X45880Y-15607D01*
X45857Y-15654D01*
X45809Y-15702D01*
X45738Y-15726D01*
X45619Y-15726D01*
X46071Y-15226D02*
X46404Y-15226D01*
X46190Y-15726D01*
X45619Y-14726D02*
X45619Y-14226D01*
X45738Y-14226D01*
X45809Y-14250D01*
X45857Y-14297D01*
X45880Y-14345D01*
X45904Y-14440D01*
X45904Y-14511D01*
X45880Y-14607D01*
X45857Y-14654D01*
X45809Y-14702D01*
X45738Y-14726D01*
X45619Y-14726D01*
X46142Y-14726D02*
X46238Y-14726D01*
X46285Y-14702D01*
X46309Y-14678D01*
X46357Y-14607D01*
X46380Y-14511D01*
X46380Y-14321D01*
X46357Y-14273D01*
X46333Y-14250D01*
X46285Y-14226D01*
X46190Y-14226D01*
X46142Y-14250D01*
X46119Y-14273D01*
X46095Y-14321D01*
X46095Y-14440D01*
X46119Y-14488D01*
X46142Y-14511D01*
X46190Y-14535D01*
X46285Y-14535D01*
X46333Y-14511D01*
X46357Y-14488D01*
X46380Y-14440D01*
X45119Y-13726D02*
X45119Y-13226D01*
X45238Y-13226D01*
X45309Y-13250D01*
X45357Y-13297D01*
X45380Y-13345D01*
X45404Y-13440D01*
X45404Y-13511D01*
X45380Y-13607D01*
X45357Y-13654D01*
X45309Y-13702D01*
X45238Y-13726D01*
X45119Y-13726D01*
X45880Y-13726D02*
X45595Y-13726D01*
X45738Y-13726D02*
X45738Y-13226D01*
X45690Y-13297D01*
X45642Y-13345D01*
X45595Y-13369D01*
X46357Y-13726D02*
X46071Y-13726D01*
X46214Y-13726D02*
X46214Y-13226D01*
X46166Y-13297D01*
X46119Y-13345D01*
X46071Y-13369D01*
X45119Y-12726D02*
X45119Y-12226D01*
X45238Y-12226D01*
X45309Y-12250D01*
X45357Y-12297D01*
X45380Y-12345D01*
X45404Y-12440D01*
X45404Y-12511D01*
X45380Y-12607D01*
X45357Y-12654D01*
X45309Y-12702D01*
X45238Y-12726D01*
X45119Y-12726D01*
X45880Y-12726D02*
X45595Y-12726D01*
X45738Y-12726D02*
X45738Y-12226D01*
X45690Y-12297D01*
X45642Y-12345D01*
X45595Y-12369D01*
X46047Y-12226D02*
X46357Y-12226D01*
X46190Y-12416D01*
X46261Y-12416D01*
X46309Y-12440D01*
X46333Y-12464D01*
X46357Y-12511D01*
X46357Y-12630D01*
X46333Y-12678D01*
X46309Y-12702D01*
X46261Y-12726D01*
X46119Y-12726D01*
X46071Y-12702D01*
X46047Y-12678D01*
X44369Y-11726D02*
X44369Y-11226D01*
X44535Y-11583D01*
X44702Y-11226D01*
X44702Y-11726D01*
X44940Y-11726D02*
X44940Y-11226D01*
X45130Y-11226D01*
X45178Y-11250D01*
X45202Y-11273D01*
X45226Y-11321D01*
X45226Y-11392D01*
X45202Y-11440D01*
X45178Y-11464D01*
X45130Y-11488D01*
X44940Y-11488D01*
X45392Y-11226D02*
X45511Y-11726D01*
X45607Y-11369D01*
X45702Y-11726D01*
X45821Y-11226D01*
X46297Y-11726D02*
X46130Y-11488D01*
X46011Y-11726D02*
X46011Y-11226D01*
X46202Y-11226D01*
X46250Y-11250D01*
X46273Y-11273D01*
X46297Y-11321D01*
X46297Y-11392D01*
X46273Y-11440D01*
X46250Y-11464D01*
X46202Y-11488D01*
X46011Y-11488D01*
X24369Y-11726D02*
X24369Y-11226D01*
X24535Y-11583D01*
X24702Y-11226D01*
X24702Y-11726D01*
X24940Y-11726D02*
X24940Y-11226D01*
X25130Y-11226D01*
X25178Y-11250D01*
X25202Y-11273D01*
X25226Y-11321D01*
X25226Y-11392D01*
X25202Y-11440D01*
X25178Y-11464D01*
X25130Y-11488D01*
X24940Y-11488D01*
X25392Y-11226D02*
X25511Y-11726D01*
X25607Y-11369D01*
X25702Y-11726D01*
X25821Y-11226D01*
X26297Y-11726D02*
X26130Y-11488D01*
X26011Y-11726D02*
X26011Y-11226D01*
X26202Y-11226D01*
X26250Y-11250D01*
X26273Y-11273D01*
X26297Y-11321D01*
X26297Y-11392D01*
X26273Y-11440D01*
X26250Y-11464D01*
X26202Y-11488D01*
X26011Y-11488D01*
X25119Y-12726D02*
X25119Y-12226D01*
X25238Y-12226D01*
X25309Y-12250D01*
X25357Y-12297D01*
X25380Y-12345D01*
X25404Y-12440D01*
X25404Y-12511D01*
X25380Y-12607D01*
X25357Y-12654D01*
X25309Y-12702D01*
X25238Y-12726D01*
X25119Y-12726D01*
X25880Y-12726D02*
X25595Y-12726D01*
X25738Y-12726D02*
X25738Y-12226D01*
X25690Y-12297D01*
X25642Y-12345D01*
X25595Y-12369D01*
X26047Y-12226D02*
X26357Y-12226D01*
X26190Y-12416D01*
X26261Y-12416D01*
X26309Y-12440D01*
X26333Y-12464D01*
X26357Y-12511D01*
X26357Y-12630D01*
X26333Y-12678D01*
X26309Y-12702D01*
X26261Y-12726D01*
X26119Y-12726D01*
X26071Y-12702D01*
X26047Y-12678D01*
X25119Y-13726D02*
X25119Y-13226D01*
X25238Y-13226D01*
X25309Y-13250D01*
X25357Y-13297D01*
X25380Y-13345D01*
X25404Y-13440D01*
X25404Y-13511D01*
X25380Y-13607D01*
X25357Y-13654D01*
X25309Y-13702D01*
X25238Y-13726D01*
X25119Y-13726D01*
X25880Y-13726D02*
X25595Y-13726D01*
X25738Y-13726D02*
X25738Y-13226D01*
X25690Y-13297D01*
X25642Y-13345D01*
X25595Y-13369D01*
X26357Y-13726D02*
X26071Y-13726D01*
X26214Y-13726D02*
X26214Y-13226D01*
X26166Y-13297D01*
X26119Y-13345D01*
X26071Y-13369D01*
X25619Y-14726D02*
X25619Y-14226D01*
X25738Y-14226D01*
X25809Y-14250D01*
X25857Y-14297D01*
X25880Y-14345D01*
X25904Y-14440D01*
X25904Y-14511D01*
X25880Y-14607D01*
X25857Y-14654D01*
X25809Y-14702D01*
X25738Y-14726D01*
X25619Y-14726D01*
X26142Y-14726D02*
X26238Y-14726D01*
X26285Y-14702D01*
X26309Y-14678D01*
X26357Y-14607D01*
X26380Y-14511D01*
X26380Y-14321D01*
X26357Y-14273D01*
X26333Y-14250D01*
X26285Y-14226D01*
X26190Y-14226D01*
X26142Y-14250D01*
X26119Y-14273D01*
X26095Y-14321D01*
X26095Y-14440D01*
X26119Y-14488D01*
X26142Y-14511D01*
X26190Y-14535D01*
X26285Y-14535D01*
X26333Y-14511D01*
X26357Y-14488D01*
X26380Y-14440D01*
X25619Y-15726D02*
X25619Y-15226D01*
X25738Y-15226D01*
X25809Y-15250D01*
X25857Y-15297D01*
X25880Y-15345D01*
X25904Y-15440D01*
X25904Y-15511D01*
X25880Y-15607D01*
X25857Y-15654D01*
X25809Y-15702D01*
X25738Y-15726D01*
X25619Y-15726D01*
X26071Y-15226D02*
X26404Y-15226D01*
X26190Y-15726D01*
X25619Y-16726D02*
X25619Y-16226D01*
X25738Y-16226D01*
X25809Y-16250D01*
X25857Y-16297D01*
X25880Y-16345D01*
X25904Y-16440D01*
X25904Y-16511D01*
X25880Y-16607D01*
X25857Y-16654D01*
X25809Y-16702D01*
X25738Y-16726D01*
X25619Y-16726D01*
X26357Y-16226D02*
X26119Y-16226D01*
X26095Y-16464D01*
X26119Y-16440D01*
X26166Y-16416D01*
X26285Y-16416D01*
X26333Y-16440D01*
X26357Y-16464D01*
X26380Y-16511D01*
X26380Y-16630D01*
X26357Y-16678D01*
X26333Y-16702D01*
X26285Y-16726D01*
X26166Y-16726D01*
X26119Y-16702D01*
X26095Y-16678D01*
X25619Y-17726D02*
X25619Y-17226D01*
X25738Y-17226D01*
X25809Y-17250D01*
X25857Y-17297D01*
X25880Y-17345D01*
X25904Y-17440D01*
X25904Y-17511D01*
X25880Y-17607D01*
X25857Y-17654D01*
X25809Y-17702D01*
X25738Y-17726D01*
X25619Y-17726D01*
X26071Y-17226D02*
X26380Y-17226D01*
X26214Y-17416D01*
X26285Y-17416D01*
X26333Y-17440D01*
X26357Y-17464D01*
X26380Y-17511D01*
X26380Y-17630D01*
X26357Y-17678D01*
X26333Y-17702D01*
X26285Y-17726D01*
X26142Y-17726D01*
X26095Y-17702D01*
X26071Y-17678D01*
X25619Y-18726D02*
X25619Y-18226D01*
X25738Y-18226D01*
X25809Y-18250D01*
X25857Y-18297D01*
X25880Y-18345D01*
X25904Y-18440D01*
X25904Y-18511D01*
X25880Y-18607D01*
X25857Y-18654D01*
X25809Y-18702D01*
X25738Y-18726D01*
X25619Y-18726D01*
X26380Y-18726D02*
X26095Y-18726D01*
X26238Y-18726D02*
X26238Y-18226D01*
X26190Y-18297D01*
X26142Y-18345D01*
X26095Y-18369D01*
X28869Y-11726D02*
X28869Y-11226D01*
X29035Y-11583D01*
X29202Y-11226D01*
X29202Y-11726D01*
X29440Y-11726D02*
X29440Y-11226D01*
X29630Y-11226D01*
X29678Y-11250D01*
X29702Y-11273D01*
X29726Y-11321D01*
X29726Y-11392D01*
X29702Y-11440D01*
X29678Y-11464D01*
X29630Y-11488D01*
X29440Y-11488D01*
X29130Y-12726D02*
X28845Y-12726D01*
X28988Y-12726D02*
X28988Y-12226D01*
X28940Y-12297D01*
X28892Y-12345D01*
X28845Y-12369D01*
X29321Y-12273D02*
X29345Y-12250D01*
X29392Y-12226D01*
X29511Y-12226D01*
X29559Y-12250D01*
X29583Y-12273D01*
X29607Y-12321D01*
X29607Y-12369D01*
X29583Y-12440D01*
X29297Y-12726D01*
X29607Y-12726D01*
X29130Y-13726D02*
X28845Y-13726D01*
X28988Y-13726D02*
X28988Y-13226D01*
X28940Y-13297D01*
X28892Y-13345D01*
X28845Y-13369D01*
X29440Y-13226D02*
X29488Y-13226D01*
X29535Y-13250D01*
X29559Y-13273D01*
X29583Y-13321D01*
X29607Y-13416D01*
X29607Y-13535D01*
X29583Y-13630D01*
X29559Y-13678D01*
X29535Y-13702D01*
X29488Y-13726D01*
X29440Y-13726D01*
X29392Y-13702D01*
X29369Y-13678D01*
X29345Y-13630D01*
X29321Y-13535D01*
X29321Y-13416D01*
X29345Y-13321D01*
X29369Y-13273D01*
X29392Y-13250D01*
X29440Y-13226D01*
X28869Y-14726D02*
X28869Y-14226D01*
X28988Y-14226D01*
X29059Y-14250D01*
X29107Y-14297D01*
X29130Y-14345D01*
X29154Y-14440D01*
X29154Y-14511D01*
X29130Y-14607D01*
X29107Y-14654D01*
X29059Y-14702D01*
X28988Y-14726D01*
X28869Y-14726D01*
X29440Y-14440D02*
X29392Y-14416D01*
X29369Y-14392D01*
X29345Y-14345D01*
X29345Y-14321D01*
X29369Y-14273D01*
X29392Y-14250D01*
X29440Y-14226D01*
X29535Y-14226D01*
X29583Y-14250D01*
X29607Y-14273D01*
X29630Y-14321D01*
X29630Y-14345D01*
X29607Y-14392D01*
X29583Y-14416D01*
X29535Y-14440D01*
X29440Y-14440D01*
X29392Y-14464D01*
X29369Y-14488D01*
X29345Y-14535D01*
X29345Y-14630D01*
X29369Y-14678D01*
X29392Y-14702D01*
X29440Y-14726D01*
X29535Y-14726D01*
X29583Y-14702D01*
X29607Y-14678D01*
X29630Y-14630D01*
X29630Y-14535D01*
X29607Y-14488D01*
X29583Y-14464D01*
X29535Y-14440D01*
X28869Y-15726D02*
X28869Y-15226D01*
X28988Y-15226D01*
X29059Y-15250D01*
X29107Y-15297D01*
X29130Y-15345D01*
X29154Y-15440D01*
X29154Y-15511D01*
X29130Y-15607D01*
X29107Y-15654D01*
X29059Y-15702D01*
X28988Y-15726D01*
X28869Y-15726D01*
X29583Y-15226D02*
X29488Y-15226D01*
X29440Y-15250D01*
X29416Y-15273D01*
X29369Y-15345D01*
X29345Y-15440D01*
X29345Y-15630D01*
X29369Y-15678D01*
X29392Y-15702D01*
X29440Y-15726D01*
X29535Y-15726D01*
X29583Y-15702D01*
X29607Y-15678D01*
X29630Y-15630D01*
X29630Y-15511D01*
X29607Y-15464D01*
X29583Y-15440D01*
X29535Y-15416D01*
X29440Y-15416D01*
X29392Y-15440D01*
X29369Y-15464D01*
X29345Y-15511D01*
X28869Y-16726D02*
X28869Y-16226D01*
X28988Y-16226D01*
X29059Y-16250D01*
X29107Y-16297D01*
X29130Y-16345D01*
X29154Y-16440D01*
X29154Y-16511D01*
X29130Y-16607D01*
X29107Y-16654D01*
X29059Y-16702D01*
X28988Y-16726D01*
X28869Y-16726D01*
X29583Y-16392D02*
X29583Y-16726D01*
X29464Y-16202D02*
X29345Y-16559D01*
X29654Y-16559D01*
X28869Y-17726D02*
X28869Y-17226D01*
X28988Y-17226D01*
X29059Y-17250D01*
X29107Y-17297D01*
X29130Y-17345D01*
X29154Y-17440D01*
X29154Y-17511D01*
X29130Y-17607D01*
X29107Y-17654D01*
X29059Y-17702D01*
X28988Y-17726D01*
X28869Y-17726D01*
X29345Y-17273D02*
X29369Y-17250D01*
X29416Y-17226D01*
X29535Y-17226D01*
X29583Y-17250D01*
X29607Y-17273D01*
X29630Y-17321D01*
X29630Y-17369D01*
X29607Y-17440D01*
X29321Y-17726D01*
X29630Y-17726D01*
X28869Y-18726D02*
X28869Y-18226D01*
X28988Y-18226D01*
X29059Y-18250D01*
X29107Y-18297D01*
X29130Y-18345D01*
X29154Y-18440D01*
X29154Y-18511D01*
X29130Y-18607D01*
X29107Y-18654D01*
X29059Y-18702D01*
X28988Y-18726D01*
X28869Y-18726D01*
X29464Y-18226D02*
X29511Y-18226D01*
X29559Y-18250D01*
X29583Y-18273D01*
X29607Y-18321D01*
X29630Y-18416D01*
X29630Y-18535D01*
X29607Y-18630D01*
X29583Y-18678D01*
X29559Y-18702D01*
X29511Y-18726D01*
X29464Y-18726D01*
X29416Y-18702D01*
X29392Y-18678D01*
X29369Y-18630D01*
X29345Y-18535D01*
X29345Y-18416D01*
X29369Y-18321D01*
X29392Y-18273D01*
X29416Y-18250D01*
X29464Y-18226D01*
X33547Y-18226D02*
X33714Y-18726D01*
X33880Y-18226D01*
X34047Y-18726D02*
X34047Y-18226D01*
X34285Y-18726D02*
X34285Y-18226D01*
X34571Y-18726D01*
X34571Y-18226D01*
X30547Y-18726D02*
X30547Y-18226D01*
X30714Y-18583D01*
X30880Y-18226D01*
X30880Y-18726D01*
X31380Y-18250D02*
X31333Y-18226D01*
X31261Y-18226D01*
X31190Y-18250D01*
X31142Y-18297D01*
X31119Y-18345D01*
X31095Y-18440D01*
X31095Y-18511D01*
X31119Y-18607D01*
X31142Y-18654D01*
X31190Y-18702D01*
X31261Y-18726D01*
X31309Y-18726D01*
X31380Y-18702D01*
X31404Y-18678D01*
X31404Y-18511D01*
X31309Y-18511D01*
X33571Y-17226D02*
X33880Y-17226D01*
X33714Y-17416D01*
X33785Y-17416D01*
X33833Y-17440D01*
X33857Y-17464D01*
X33880Y-17511D01*
X33880Y-17630D01*
X33857Y-17678D01*
X33833Y-17702D01*
X33785Y-17726D01*
X33642Y-17726D01*
X33595Y-17702D01*
X33571Y-17678D01*
X34023Y-17226D02*
X34190Y-17726D01*
X34357Y-17226D01*
X34476Y-17226D02*
X34785Y-17226D01*
X34619Y-17416D01*
X34690Y-17416D01*
X34738Y-17440D01*
X34761Y-17464D01*
X34785Y-17511D01*
X34785Y-17630D01*
X34761Y-17678D01*
X34738Y-17702D01*
X34690Y-17726D01*
X34547Y-17726D01*
X34500Y-17702D01*
X34476Y-17678D01*
X30380Y-17226D02*
X30690Y-17226D01*
X30523Y-17416D01*
X30595Y-17416D01*
X30642Y-17440D01*
X30666Y-17464D01*
X30690Y-17511D01*
X30690Y-17630D01*
X30666Y-17678D01*
X30642Y-17702D01*
X30595Y-17726D01*
X30452Y-17726D01*
X30404Y-17702D01*
X30380Y-17678D01*
X30904Y-17678D02*
X30928Y-17702D01*
X30904Y-17726D01*
X30880Y-17702D01*
X30904Y-17678D01*
X30904Y-17726D01*
X31095Y-17226D02*
X31404Y-17226D01*
X31238Y-17416D01*
X31309Y-17416D01*
X31357Y-17440D01*
X31380Y-17464D01*
X31404Y-17511D01*
X31404Y-17630D01*
X31380Y-17678D01*
X31357Y-17702D01*
X31309Y-17726D01*
X31166Y-17726D01*
X31119Y-17702D01*
X31095Y-17678D01*
X33880Y-16250D02*
X33833Y-16226D01*
X33761Y-16226D01*
X33690Y-16250D01*
X33642Y-16297D01*
X33619Y-16345D01*
X33595Y-16440D01*
X33595Y-16511D01*
X33619Y-16607D01*
X33642Y-16654D01*
X33690Y-16702D01*
X33761Y-16726D01*
X33809Y-16726D01*
X33880Y-16702D01*
X33904Y-16678D01*
X33904Y-16511D01*
X33809Y-16511D01*
X34119Y-16726D02*
X34119Y-16226D01*
X34404Y-16726D01*
X34404Y-16226D01*
X34642Y-16726D02*
X34642Y-16226D01*
X34761Y-16226D01*
X34833Y-16250D01*
X34880Y-16297D01*
X34904Y-16345D01*
X34928Y-16440D01*
X34928Y-16511D01*
X34904Y-16607D01*
X34880Y-16654D01*
X34833Y-16702D01*
X34761Y-16726D01*
X34642Y-16726D01*
X30880Y-16250D02*
X30833Y-16226D01*
X30761Y-16226D01*
X30690Y-16250D01*
X30642Y-16297D01*
X30619Y-16345D01*
X30595Y-16440D01*
X30595Y-16511D01*
X30619Y-16607D01*
X30642Y-16654D01*
X30690Y-16702D01*
X30761Y-16726D01*
X30809Y-16726D01*
X30880Y-16702D01*
X30904Y-16678D01*
X30904Y-16511D01*
X30809Y-16511D01*
X31119Y-16726D02*
X31119Y-16226D01*
X31238Y-16226D01*
X31309Y-16250D01*
X31357Y-16297D01*
X31380Y-16345D01*
X31404Y-16440D01*
X31404Y-16511D01*
X31380Y-16607D01*
X31357Y-16654D01*
X31309Y-16702D01*
X31238Y-16726D01*
X31119Y-16726D01*
X33595Y-15583D02*
X33833Y-15583D01*
X33547Y-15726D02*
X33714Y-15226D01*
X33880Y-15726D01*
X34333Y-15726D02*
X34166Y-15488D01*
X34047Y-15726D02*
X34047Y-15226D01*
X34238Y-15226D01*
X34285Y-15250D01*
X34309Y-15273D01*
X34333Y-15321D01*
X34333Y-15392D01*
X34309Y-15440D01*
X34285Y-15464D01*
X34238Y-15488D01*
X34047Y-15488D01*
X34547Y-15464D02*
X34714Y-15464D01*
X34785Y-15726D02*
X34547Y-15726D01*
X34547Y-15226D01*
X34785Y-15226D01*
X35166Y-15464D02*
X35000Y-15464D01*
X35000Y-15726D02*
X35000Y-15226D01*
X35238Y-15226D01*
X30928Y-15726D02*
X30761Y-15488D01*
X30642Y-15726D02*
X30642Y-15226D01*
X30833Y-15226D01*
X30880Y-15250D01*
X30904Y-15273D01*
X30928Y-15321D01*
X30928Y-15392D01*
X30904Y-15440D01*
X30880Y-15464D01*
X30833Y-15488D01*
X30642Y-15488D01*
X31119Y-15702D02*
X31190Y-15726D01*
X31309Y-15726D01*
X31357Y-15702D01*
X31380Y-15678D01*
X31404Y-15630D01*
X31404Y-15583D01*
X31380Y-15535D01*
X31357Y-15511D01*
X31309Y-15488D01*
X31214Y-15464D01*
X31166Y-15440D01*
X31142Y-15416D01*
X31119Y-15369D01*
X31119Y-15321D01*
X31142Y-15273D01*
X31166Y-15250D01*
X31214Y-15226D01*
X31333Y-15226D01*
X31404Y-15250D01*
X33595Y-14583D02*
X33833Y-14583D01*
X33547Y-14726D02*
X33714Y-14226D01*
X33880Y-14726D01*
X34142Y-14226D02*
X34190Y-14226D01*
X34238Y-14250D01*
X34261Y-14273D01*
X34285Y-14321D01*
X34309Y-14416D01*
X34309Y-14535D01*
X34285Y-14630D01*
X34261Y-14678D01*
X34238Y-14702D01*
X34190Y-14726D01*
X34142Y-14726D01*
X34095Y-14702D01*
X34071Y-14678D01*
X34047Y-14630D01*
X34023Y-14535D01*
X34023Y-14416D01*
X34047Y-14321D01*
X34071Y-14273D01*
X34095Y-14250D01*
X34142Y-14226D01*
X30690Y-14583D02*
X30928Y-14583D01*
X30642Y-14726D02*
X30809Y-14226D01*
X30976Y-14726D01*
X31404Y-14726D02*
X31119Y-14726D01*
X31261Y-14726D02*
X31261Y-14226D01*
X31214Y-14297D01*
X31166Y-14345D01*
X31119Y-14369D01*
X33595Y-13583D02*
X33833Y-13583D01*
X33547Y-13726D02*
X33714Y-13226D01*
X33880Y-13726D01*
X34023Y-13273D02*
X34047Y-13250D01*
X34095Y-13226D01*
X34214Y-13226D01*
X34261Y-13250D01*
X34285Y-13273D01*
X34309Y-13321D01*
X34309Y-13369D01*
X34285Y-13440D01*
X34000Y-13726D01*
X34309Y-13726D01*
X30690Y-13583D02*
X30928Y-13583D01*
X30642Y-13726D02*
X30809Y-13226D01*
X30976Y-13726D01*
X31095Y-13226D02*
X31404Y-13226D01*
X31238Y-13416D01*
X31309Y-13416D01*
X31357Y-13440D01*
X31380Y-13464D01*
X31404Y-13511D01*
X31404Y-13630D01*
X31380Y-13678D01*
X31357Y-13702D01*
X31309Y-13726D01*
X31166Y-13726D01*
X31119Y-13702D01*
X31095Y-13678D01*
X33595Y-12583D02*
X33833Y-12583D01*
X33547Y-12726D02*
X33714Y-12226D01*
X33880Y-12726D01*
X34261Y-12392D02*
X34261Y-12726D01*
X34142Y-12202D02*
X34023Y-12559D01*
X34333Y-12559D01*
X30690Y-12583D02*
X30928Y-12583D01*
X30642Y-12726D02*
X30809Y-12226D01*
X30976Y-12726D01*
X31380Y-12226D02*
X31142Y-12226D01*
X31119Y-12464D01*
X31142Y-12440D01*
X31190Y-12416D01*
X31309Y-12416D01*
X31357Y-12440D01*
X31380Y-12464D01*
X31404Y-12511D01*
X31404Y-12630D01*
X31380Y-12678D01*
X31357Y-12702D01*
X31309Y-12726D01*
X31190Y-12726D01*
X31142Y-12702D01*
X31119Y-12678D01*
X33619Y-11726D02*
X33619Y-11226D01*
X33785Y-11583D01*
X33952Y-11226D01*
X33952Y-11726D01*
X34452Y-11250D02*
X34404Y-11226D01*
X34333Y-11226D01*
X34261Y-11250D01*
X34214Y-11297D01*
X34190Y-11345D01*
X34166Y-11440D01*
X34166Y-11511D01*
X34190Y-11607D01*
X34214Y-11654D01*
X34261Y-11702D01*
X34333Y-11726D01*
X34380Y-11726D01*
X34452Y-11702D01*
X34476Y-11678D01*
X34476Y-11511D01*
X34380Y-11511D01*
X34690Y-11726D02*
X34690Y-11226D01*
X34976Y-11726D01*
X34976Y-11226D01*
X35214Y-11726D02*
X35214Y-11226D01*
X35333Y-11226D01*
X35404Y-11250D01*
X35452Y-11297D01*
X35476Y-11345D01*
X35500Y-11440D01*
X35500Y-11511D01*
X35476Y-11607D01*
X35452Y-11654D01*
X35404Y-11702D01*
X35333Y-11726D01*
X35214Y-11726D01*
X30547Y-11726D02*
X30547Y-11226D01*
X30714Y-11583D01*
X30880Y-11226D01*
X30880Y-11726D01*
X31380Y-11250D02*
X31333Y-11226D01*
X31261Y-11226D01*
X31190Y-11250D01*
X31142Y-11297D01*
X31119Y-11345D01*
X31095Y-11440D01*
X31095Y-11511D01*
X31119Y-11607D01*
X31142Y-11654D01*
X31190Y-11702D01*
X31261Y-11726D01*
X31309Y-11726D01*
X31380Y-11702D01*
X31404Y-11678D01*
X31404Y-11511D01*
X31309Y-11511D01*
X10547Y-11726D02*
X10547Y-11226D01*
X10714Y-11583D01*
X10880Y-11226D01*
X10880Y-11726D01*
X11380Y-11250D02*
X11333Y-11226D01*
X11261Y-11226D01*
X11190Y-11250D01*
X11142Y-11297D01*
X11119Y-11345D01*
X11095Y-11440D01*
X11095Y-11511D01*
X11119Y-11607D01*
X11142Y-11654D01*
X11190Y-11702D01*
X11261Y-11726D01*
X11309Y-11726D01*
X11380Y-11702D01*
X11404Y-11678D01*
X11404Y-11511D01*
X11309Y-11511D01*
X10880Y-16250D02*
X10833Y-16226D01*
X10761Y-16226D01*
X10690Y-16250D01*
X10642Y-16297D01*
X10619Y-16345D01*
X10595Y-16440D01*
X10595Y-16511D01*
X10619Y-16607D01*
X10642Y-16654D01*
X10690Y-16702D01*
X10761Y-16726D01*
X10809Y-16726D01*
X10880Y-16702D01*
X10904Y-16678D01*
X10904Y-16511D01*
X10809Y-16511D01*
X11119Y-16726D02*
X11119Y-16226D01*
X11238Y-16226D01*
X11309Y-16250D01*
X11357Y-16297D01*
X11380Y-16345D01*
X11404Y-16440D01*
X11404Y-16511D01*
X11380Y-16607D01*
X11357Y-16654D01*
X11309Y-16702D01*
X11238Y-16726D01*
X11119Y-16726D01*
X10928Y-15726D02*
X10761Y-15488D01*
X10642Y-15726D02*
X10642Y-15226D01*
X10833Y-15226D01*
X10880Y-15250D01*
X10904Y-15273D01*
X10928Y-15321D01*
X10928Y-15392D01*
X10904Y-15440D01*
X10880Y-15464D01*
X10833Y-15488D01*
X10642Y-15488D01*
X11119Y-15702D02*
X11190Y-15726D01*
X11309Y-15726D01*
X11357Y-15702D01*
X11380Y-15678D01*
X11404Y-15630D01*
X11404Y-15583D01*
X11380Y-15535D01*
X11357Y-15511D01*
X11309Y-15488D01*
X11214Y-15464D01*
X11166Y-15440D01*
X11142Y-15416D01*
X11119Y-15369D01*
X11119Y-15321D01*
X11142Y-15273D01*
X11166Y-15250D01*
X11214Y-15226D01*
X11333Y-15226D01*
X11404Y-15250D01*
X10690Y-14583D02*
X10928Y-14583D01*
X10642Y-14726D02*
X10809Y-14226D01*
X10976Y-14726D01*
X11404Y-14726D02*
X11119Y-14726D01*
X11261Y-14726D02*
X11261Y-14226D01*
X11214Y-14297D01*
X11166Y-14345D01*
X11119Y-14369D01*
X10690Y-13583D02*
X10928Y-13583D01*
X10642Y-13726D02*
X10809Y-13226D01*
X10976Y-13726D01*
X11095Y-13226D02*
X11404Y-13226D01*
X11238Y-13416D01*
X11309Y-13416D01*
X11357Y-13440D01*
X11380Y-13464D01*
X11404Y-13511D01*
X11404Y-13630D01*
X11380Y-13678D01*
X11357Y-13702D01*
X11309Y-13726D01*
X11166Y-13726D01*
X11119Y-13702D01*
X11095Y-13678D01*
X10690Y-12583D02*
X10928Y-12583D01*
X10642Y-12726D02*
X10809Y-12226D01*
X10976Y-12726D01*
X11380Y-12226D02*
X11142Y-12226D01*
X11119Y-12464D01*
X11142Y-12440D01*
X11190Y-12416D01*
X11309Y-12416D01*
X11357Y-12440D01*
X11380Y-12464D01*
X11404Y-12511D01*
X11404Y-12630D01*
X11380Y-12678D01*
X11357Y-12702D01*
X11309Y-12726D01*
X11190Y-12726D01*
X11142Y-12702D01*
X11119Y-12678D01*
X10380Y-17226D02*
X10690Y-17226D01*
X10523Y-17416D01*
X10595Y-17416D01*
X10642Y-17440D01*
X10666Y-17464D01*
X10690Y-17511D01*
X10690Y-17630D01*
X10666Y-17678D01*
X10642Y-17702D01*
X10595Y-17726D01*
X10452Y-17726D01*
X10404Y-17702D01*
X10380Y-17678D01*
X10904Y-17678D02*
X10928Y-17702D01*
X10904Y-17726D01*
X10880Y-17702D01*
X10904Y-17678D01*
X10904Y-17726D01*
X11095Y-17226D02*
X11404Y-17226D01*
X11238Y-17416D01*
X11309Y-17416D01*
X11357Y-17440D01*
X11380Y-17464D01*
X11404Y-17511D01*
X11404Y-17630D01*
X11380Y-17678D01*
X11357Y-17702D01*
X11309Y-17726D01*
X11166Y-17726D01*
X11119Y-17702D01*
X11095Y-17678D01*
X10547Y-18726D02*
X10547Y-18226D01*
X10714Y-18583D01*
X10880Y-18226D01*
X10880Y-18726D01*
X11380Y-18250D02*
X11333Y-18226D01*
X11261Y-18226D01*
X11190Y-18250D01*
X11142Y-18297D01*
X11119Y-18345D01*
X11095Y-18440D01*
X11095Y-18511D01*
X11119Y-18607D01*
X11142Y-18654D01*
X11190Y-18702D01*
X11261Y-18726D01*
X11309Y-18726D01*
X11380Y-18702D01*
X11404Y-18678D01*
X11404Y-18511D01*
X11309Y-18511D01*
X13619Y-11726D02*
X13619Y-11226D01*
X13785Y-11583D01*
X13952Y-11226D01*
X13952Y-11726D01*
X14452Y-11250D02*
X14404Y-11226D01*
X14333Y-11226D01*
X14261Y-11250D01*
X14214Y-11297D01*
X14190Y-11345D01*
X14166Y-11440D01*
X14166Y-11511D01*
X14190Y-11607D01*
X14214Y-11654D01*
X14261Y-11702D01*
X14333Y-11726D01*
X14380Y-11726D01*
X14452Y-11702D01*
X14476Y-11678D01*
X14476Y-11511D01*
X14380Y-11511D01*
X14690Y-11726D02*
X14690Y-11226D01*
X14976Y-11726D01*
X14976Y-11226D01*
X15214Y-11726D02*
X15214Y-11226D01*
X15333Y-11226D01*
X15404Y-11250D01*
X15452Y-11297D01*
X15476Y-11345D01*
X15500Y-11440D01*
X15500Y-11511D01*
X15476Y-11607D01*
X15452Y-11654D01*
X15404Y-11702D01*
X15333Y-11726D01*
X15214Y-11726D01*
X13595Y-12583D02*
X13833Y-12583D01*
X13547Y-12726D02*
X13714Y-12226D01*
X13880Y-12726D01*
X14261Y-12392D02*
X14261Y-12726D01*
X14142Y-12202D02*
X14023Y-12559D01*
X14333Y-12559D01*
X13595Y-13583D02*
X13833Y-13583D01*
X13547Y-13726D02*
X13714Y-13226D01*
X13880Y-13726D01*
X14023Y-13273D02*
X14047Y-13250D01*
X14095Y-13226D01*
X14214Y-13226D01*
X14261Y-13250D01*
X14285Y-13273D01*
X14309Y-13321D01*
X14309Y-13369D01*
X14285Y-13440D01*
X14000Y-13726D01*
X14309Y-13726D01*
X13595Y-14583D02*
X13833Y-14583D01*
X13547Y-14726D02*
X13714Y-14226D01*
X13880Y-14726D01*
X14142Y-14226D02*
X14190Y-14226D01*
X14238Y-14250D01*
X14261Y-14273D01*
X14285Y-14321D01*
X14309Y-14416D01*
X14309Y-14535D01*
X14285Y-14630D01*
X14261Y-14678D01*
X14238Y-14702D01*
X14190Y-14726D01*
X14142Y-14726D01*
X14095Y-14702D01*
X14071Y-14678D01*
X14047Y-14630D01*
X14023Y-14535D01*
X14023Y-14416D01*
X14047Y-14321D01*
X14071Y-14273D01*
X14095Y-14250D01*
X14142Y-14226D01*
X13595Y-15583D02*
X13833Y-15583D01*
X13547Y-15726D02*
X13714Y-15226D01*
X13880Y-15726D01*
X14333Y-15726D02*
X14166Y-15488D01*
X14047Y-15726D02*
X14047Y-15226D01*
X14238Y-15226D01*
X14285Y-15250D01*
X14309Y-15273D01*
X14333Y-15321D01*
X14333Y-15392D01*
X14309Y-15440D01*
X14285Y-15464D01*
X14238Y-15488D01*
X14047Y-15488D01*
X14547Y-15464D02*
X14714Y-15464D01*
X14785Y-15726D02*
X14547Y-15726D01*
X14547Y-15226D01*
X14785Y-15226D01*
X15166Y-15464D02*
X15000Y-15464D01*
X15000Y-15726D02*
X15000Y-15226D01*
X15238Y-15226D01*
X13880Y-16250D02*
X13833Y-16226D01*
X13761Y-16226D01*
X13690Y-16250D01*
X13642Y-16297D01*
X13619Y-16345D01*
X13595Y-16440D01*
X13595Y-16511D01*
X13619Y-16607D01*
X13642Y-16654D01*
X13690Y-16702D01*
X13761Y-16726D01*
X13809Y-16726D01*
X13880Y-16702D01*
X13904Y-16678D01*
X13904Y-16511D01*
X13809Y-16511D01*
X14119Y-16726D02*
X14119Y-16226D01*
X14404Y-16726D01*
X14404Y-16226D01*
X14642Y-16726D02*
X14642Y-16226D01*
X14761Y-16226D01*
X14833Y-16250D01*
X14880Y-16297D01*
X14904Y-16345D01*
X14928Y-16440D01*
X14928Y-16511D01*
X14904Y-16607D01*
X14880Y-16654D01*
X14833Y-16702D01*
X14761Y-16726D01*
X14642Y-16726D01*
X13571Y-17226D02*
X13880Y-17226D01*
X13714Y-17416D01*
X13785Y-17416D01*
X13833Y-17440D01*
X13857Y-17464D01*
X13880Y-17511D01*
X13880Y-17630D01*
X13857Y-17678D01*
X13833Y-17702D01*
X13785Y-17726D01*
X13642Y-17726D01*
X13595Y-17702D01*
X13571Y-17678D01*
X14023Y-17226D02*
X14190Y-17726D01*
X14357Y-17226D01*
X14476Y-17226D02*
X14785Y-17226D01*
X14619Y-17416D01*
X14690Y-17416D01*
X14738Y-17440D01*
X14761Y-17464D01*
X14785Y-17511D01*
X14785Y-17630D01*
X14761Y-17678D01*
X14738Y-17702D01*
X14690Y-17726D01*
X14547Y-17726D01*
X14500Y-17702D01*
X14476Y-17678D01*
X13547Y-18226D02*
X13714Y-18726D01*
X13880Y-18226D01*
X14047Y-18726D02*
X14047Y-18226D01*
X14285Y-18726D02*
X14285Y-18226D01*
X14571Y-18726D01*
X14571Y-18226D01*
G54D11*
X42802Y-36128D02*
X42497Y-36128D01*
X42650Y-36280D02*
X42650Y-35976D01*
X43302Y-24028D02*
X42997Y-24028D01*
X43150Y-24180D02*
X43150Y-23876D01*
X43302Y-20678D02*
X42997Y-20678D01*
X43150Y-20830D02*
X43150Y-20526D01*
G54D12*
X44523Y-48726D02*
X44523Y-48226D01*
X44690Y-48583D01*
X44857Y-48226D01*
X44857Y-48726D01*
X45357Y-48250D02*
X45309Y-48226D01*
X45238Y-48226D01*
X45166Y-48250D01*
X45119Y-48297D01*
X45095Y-48345D01*
X45071Y-48440D01*
X45071Y-48511D01*
X45095Y-48607D01*
X45119Y-48654D01*
X45166Y-48702D01*
X45238Y-48726D01*
X45285Y-48726D01*
X45357Y-48702D01*
X45380Y-48678D01*
X45380Y-48511D01*
X45285Y-48511D01*
X45595Y-48726D02*
X45595Y-48226D01*
X45880Y-48726D01*
X45880Y-48226D01*
X46119Y-48726D02*
X46119Y-48226D01*
X46238Y-48226D01*
X46309Y-48250D01*
X46357Y-48297D01*
X46380Y-48345D01*
X46404Y-48440D01*
X46404Y-48511D01*
X46380Y-48607D01*
X46357Y-48654D01*
X46309Y-48702D01*
X46238Y-48726D01*
X46119Y-48726D01*
X45690Y-47583D02*
X45928Y-47583D01*
X45642Y-47726D02*
X45809Y-47226D01*
X45976Y-47726D01*
X46357Y-47392D02*
X46357Y-47726D01*
X46238Y-47202D02*
X46119Y-47559D01*
X46428Y-47559D01*
X45690Y-46583D02*
X45928Y-46583D01*
X45642Y-46726D02*
X45809Y-46226D01*
X45976Y-46726D01*
X46119Y-46273D02*
X46142Y-46250D01*
X46190Y-46226D01*
X46309Y-46226D01*
X46357Y-46250D01*
X46380Y-46273D01*
X46404Y-46321D01*
X46404Y-46369D01*
X46380Y-46440D01*
X46095Y-46726D01*
X46404Y-46726D01*
X45690Y-45583D02*
X45928Y-45583D01*
X45642Y-45726D02*
X45809Y-45226D01*
X45976Y-45726D01*
X46238Y-45226D02*
X46285Y-45226D01*
X46333Y-45250D01*
X46357Y-45273D01*
X46380Y-45321D01*
X46404Y-45416D01*
X46404Y-45535D01*
X46380Y-45630D01*
X46357Y-45678D01*
X46333Y-45702D01*
X46285Y-45726D01*
X46238Y-45726D01*
X46190Y-45702D01*
X46166Y-45678D01*
X46142Y-45630D01*
X46119Y-45535D01*
X46119Y-45416D01*
X46142Y-45321D01*
X46166Y-45273D01*
X46190Y-45250D01*
X46238Y-45226D01*
X45238Y-44583D02*
X45476Y-44583D01*
X45190Y-44726D02*
X45357Y-44226D01*
X45523Y-44726D01*
X45976Y-44726D02*
X45809Y-44488D01*
X45690Y-44726D02*
X45690Y-44226D01*
X45880Y-44226D01*
X45928Y-44250D01*
X45952Y-44273D01*
X45976Y-44321D01*
X45976Y-44392D01*
X45952Y-44440D01*
X45928Y-44464D01*
X45880Y-44488D01*
X45690Y-44488D01*
X46357Y-44464D02*
X46190Y-44464D01*
X46190Y-44726D02*
X46190Y-44226D01*
X46428Y-44226D01*
X45357Y-43250D02*
X45309Y-43226D01*
X45238Y-43226D01*
X45166Y-43250D01*
X45119Y-43297D01*
X45095Y-43345D01*
X45071Y-43440D01*
X45071Y-43511D01*
X45095Y-43607D01*
X45119Y-43654D01*
X45166Y-43702D01*
X45238Y-43726D01*
X45285Y-43726D01*
X45357Y-43702D01*
X45380Y-43678D01*
X45380Y-43511D01*
X45285Y-43511D01*
X45595Y-43726D02*
X45595Y-43226D01*
X45880Y-43726D01*
X45880Y-43226D01*
X46119Y-43726D02*
X46119Y-43226D01*
X46238Y-43226D01*
X46309Y-43250D01*
X46357Y-43297D01*
X46380Y-43345D01*
X46404Y-43440D01*
X46404Y-43511D01*
X46380Y-43607D01*
X46357Y-43654D01*
X46309Y-43702D01*
X46238Y-43726D01*
X46119Y-43726D01*
X45095Y-42535D02*
X45476Y-42535D01*
X45285Y-42726D02*
X45285Y-42345D01*
X45952Y-42226D02*
X45714Y-42226D01*
X45690Y-42464D01*
X45714Y-42440D01*
X45761Y-42416D01*
X45880Y-42416D01*
X45928Y-42440D01*
X45952Y-42464D01*
X45976Y-42511D01*
X45976Y-42630D01*
X45952Y-42678D01*
X45928Y-42702D01*
X45880Y-42726D01*
X45761Y-42726D01*
X45714Y-42702D01*
X45690Y-42678D01*
X46119Y-42226D02*
X46285Y-42726D01*
X46452Y-42226D01*
X45357Y-41226D02*
X45523Y-41726D01*
X45690Y-41226D01*
X45857Y-41726D02*
X45857Y-41226D01*
X46095Y-41726D02*
X46095Y-41226D01*
X46380Y-41726D01*
X46380Y-41226D01*
X48619Y-48726D02*
X48619Y-48226D01*
X48785Y-48583D01*
X48952Y-48226D01*
X48952Y-48726D01*
X49452Y-48250D02*
X49404Y-48226D01*
X49333Y-48226D01*
X49261Y-48250D01*
X49214Y-48297D01*
X49190Y-48345D01*
X49166Y-48440D01*
X49166Y-48511D01*
X49190Y-48607D01*
X49214Y-48654D01*
X49261Y-48702D01*
X49333Y-48726D01*
X49380Y-48726D01*
X49452Y-48702D01*
X49476Y-48678D01*
X49476Y-48511D01*
X49380Y-48511D01*
X48595Y-47583D02*
X48833Y-47583D01*
X48547Y-47726D02*
X48714Y-47226D01*
X48880Y-47726D01*
X49285Y-47226D02*
X49047Y-47226D01*
X49023Y-47464D01*
X49047Y-47440D01*
X49095Y-47416D01*
X49214Y-47416D01*
X49261Y-47440D01*
X49285Y-47464D01*
X49309Y-47511D01*
X49309Y-47630D01*
X49285Y-47678D01*
X49261Y-47702D01*
X49214Y-47726D01*
X49095Y-47726D01*
X49047Y-47702D01*
X49023Y-47678D01*
X48595Y-46583D02*
X48833Y-46583D01*
X48547Y-46726D02*
X48714Y-46226D01*
X48880Y-46726D01*
X49000Y-46226D02*
X49309Y-46226D01*
X49142Y-46416D01*
X49214Y-46416D01*
X49261Y-46440D01*
X49285Y-46464D01*
X49309Y-46511D01*
X49309Y-46630D01*
X49285Y-46678D01*
X49261Y-46702D01*
X49214Y-46726D01*
X49071Y-46726D01*
X49023Y-46702D01*
X49000Y-46678D01*
X48595Y-45583D02*
X48833Y-45583D01*
X48547Y-45726D02*
X48714Y-45226D01*
X48880Y-45726D01*
X49309Y-45726D02*
X49023Y-45726D01*
X49166Y-45726D02*
X49166Y-45226D01*
X49119Y-45297D01*
X49071Y-45345D01*
X49023Y-45369D01*
X48904Y-44726D02*
X48738Y-44488D01*
X48619Y-44726D02*
X48619Y-44226D01*
X48809Y-44226D01*
X48857Y-44250D01*
X48880Y-44273D01*
X48904Y-44321D01*
X48904Y-44392D01*
X48880Y-44440D01*
X48857Y-44464D01*
X48809Y-44488D01*
X48619Y-44488D01*
X49095Y-44702D02*
X49166Y-44726D01*
X49285Y-44726D01*
X49333Y-44702D01*
X49357Y-44678D01*
X49380Y-44630D01*
X49380Y-44583D01*
X49357Y-44535D01*
X49333Y-44511D01*
X49285Y-44488D01*
X49190Y-44464D01*
X49142Y-44440D01*
X49119Y-44416D01*
X49095Y-44369D01*
X49095Y-44321D01*
X49119Y-44273D01*
X49142Y-44250D01*
X49190Y-44226D01*
X49309Y-44226D01*
X49380Y-44250D01*
X48880Y-43250D02*
X48833Y-43226D01*
X48761Y-43226D01*
X48690Y-43250D01*
X48642Y-43297D01*
X48619Y-43345D01*
X48595Y-43440D01*
X48595Y-43511D01*
X48619Y-43607D01*
X48642Y-43654D01*
X48690Y-43702D01*
X48761Y-43726D01*
X48809Y-43726D01*
X48880Y-43702D01*
X48904Y-43678D01*
X48904Y-43511D01*
X48809Y-43511D01*
X49119Y-43726D02*
X49119Y-43226D01*
X49238Y-43226D01*
X49309Y-43250D01*
X49357Y-43297D01*
X49380Y-43345D01*
X49404Y-43440D01*
X49404Y-43511D01*
X49380Y-43607D01*
X49357Y-43654D01*
X49309Y-43702D01*
X49238Y-43726D01*
X49119Y-43726D01*
X48571Y-42226D02*
X48880Y-42226D01*
X48714Y-42416D01*
X48785Y-42416D01*
X48833Y-42440D01*
X48857Y-42464D01*
X48880Y-42511D01*
X48880Y-42630D01*
X48857Y-42678D01*
X48833Y-42702D01*
X48785Y-42726D01*
X48642Y-42726D01*
X48595Y-42702D01*
X48571Y-42678D01*
X49095Y-42678D02*
X49119Y-42702D01*
X49095Y-42726D01*
X49071Y-42702D01*
X49095Y-42678D01*
X49095Y-42726D01*
X49285Y-42226D02*
X49595Y-42226D01*
X49428Y-42416D01*
X49500Y-42416D01*
X49547Y-42440D01*
X49571Y-42464D01*
X49595Y-42511D01*
X49595Y-42630D01*
X49571Y-42678D01*
X49547Y-42702D01*
X49500Y-42726D01*
X49357Y-42726D01*
X49309Y-42702D01*
X49285Y-42678D01*
X48547Y-41226D02*
X48714Y-41726D01*
X48880Y-41226D01*
X49047Y-41726D02*
X49047Y-41226D01*
X49285Y-41726D02*
X49285Y-41226D01*
X49571Y-41726D01*
X49571Y-41226D01*
X24523Y-48726D02*
X24523Y-48226D01*
X24690Y-48583D01*
X24857Y-48226D01*
X24857Y-48726D01*
X25357Y-48250D02*
X25309Y-48226D01*
X25238Y-48226D01*
X25166Y-48250D01*
X25119Y-48297D01*
X25095Y-48345D01*
X25071Y-48440D01*
X25071Y-48511D01*
X25095Y-48607D01*
X25119Y-48654D01*
X25166Y-48702D01*
X25238Y-48726D01*
X25285Y-48726D01*
X25357Y-48702D01*
X25380Y-48678D01*
X25380Y-48511D01*
X25285Y-48511D01*
X25595Y-48726D02*
X25595Y-48226D01*
X25880Y-48726D01*
X25880Y-48226D01*
X26119Y-48726D02*
X26119Y-48226D01*
X26238Y-48226D01*
X26309Y-48250D01*
X26357Y-48297D01*
X26380Y-48345D01*
X26404Y-48440D01*
X26404Y-48511D01*
X26380Y-48607D01*
X26357Y-48654D01*
X26309Y-48702D01*
X26238Y-48726D01*
X26119Y-48726D01*
X25690Y-47583D02*
X25928Y-47583D01*
X25642Y-47726D02*
X25809Y-47226D01*
X25976Y-47726D01*
X26357Y-47392D02*
X26357Y-47726D01*
X26238Y-47202D02*
X26119Y-47559D01*
X26428Y-47559D01*
X25690Y-46583D02*
X25928Y-46583D01*
X25642Y-46726D02*
X25809Y-46226D01*
X25976Y-46726D01*
X26119Y-46273D02*
X26142Y-46250D01*
X26190Y-46226D01*
X26309Y-46226D01*
X26357Y-46250D01*
X26380Y-46273D01*
X26404Y-46321D01*
X26404Y-46369D01*
X26380Y-46440D01*
X26095Y-46726D01*
X26404Y-46726D01*
X25690Y-45583D02*
X25928Y-45583D01*
X25642Y-45726D02*
X25809Y-45226D01*
X25976Y-45726D01*
X26238Y-45226D02*
X26285Y-45226D01*
X26333Y-45250D01*
X26357Y-45273D01*
X26380Y-45321D01*
X26404Y-45416D01*
X26404Y-45535D01*
X26380Y-45630D01*
X26357Y-45678D01*
X26333Y-45702D01*
X26285Y-45726D01*
X26238Y-45726D01*
X26190Y-45702D01*
X26166Y-45678D01*
X26142Y-45630D01*
X26119Y-45535D01*
X26119Y-45416D01*
X26142Y-45321D01*
X26166Y-45273D01*
X26190Y-45250D01*
X26238Y-45226D01*
X28619Y-48726D02*
X28619Y-48226D01*
X28785Y-48583D01*
X28952Y-48226D01*
X28952Y-48726D01*
X29452Y-48250D02*
X29404Y-48226D01*
X29333Y-48226D01*
X29261Y-48250D01*
X29214Y-48297D01*
X29190Y-48345D01*
X29166Y-48440D01*
X29166Y-48511D01*
X29190Y-48607D01*
X29214Y-48654D01*
X29261Y-48702D01*
X29333Y-48726D01*
X29380Y-48726D01*
X29452Y-48702D01*
X29476Y-48678D01*
X29476Y-48511D01*
X29380Y-48511D01*
X28595Y-47583D02*
X28833Y-47583D01*
X28547Y-47726D02*
X28714Y-47226D01*
X28880Y-47726D01*
X29285Y-47226D02*
X29047Y-47226D01*
X29023Y-47464D01*
X29047Y-47440D01*
X29095Y-47416D01*
X29214Y-47416D01*
X29261Y-47440D01*
X29285Y-47464D01*
X29309Y-47511D01*
X29309Y-47630D01*
X29285Y-47678D01*
X29261Y-47702D01*
X29214Y-47726D01*
X29095Y-47726D01*
X29047Y-47702D01*
X29023Y-47678D01*
X28595Y-46583D02*
X28833Y-46583D01*
X28547Y-46726D02*
X28714Y-46226D01*
X28880Y-46726D01*
X29000Y-46226D02*
X29309Y-46226D01*
X29142Y-46416D01*
X29214Y-46416D01*
X29261Y-46440D01*
X29285Y-46464D01*
X29309Y-46511D01*
X29309Y-46630D01*
X29285Y-46678D01*
X29261Y-46702D01*
X29214Y-46726D01*
X29071Y-46726D01*
X29023Y-46702D01*
X29000Y-46678D01*
X28595Y-45583D02*
X28833Y-45583D01*
X28547Y-45726D02*
X28714Y-45226D01*
X28880Y-45726D01*
X29309Y-45726D02*
X29023Y-45726D01*
X29166Y-45726D02*
X29166Y-45226D01*
X29119Y-45297D01*
X29071Y-45345D01*
X29023Y-45369D01*
X25904Y-38126D02*
X25738Y-37888D01*
X25619Y-38126D02*
X25619Y-37626D01*
X25809Y-37626D01*
X25857Y-37650D01*
X25880Y-37673D01*
X25904Y-37721D01*
X25904Y-37792D01*
X25880Y-37840D01*
X25857Y-37864D01*
X25809Y-37888D01*
X25619Y-37888D01*
X26095Y-38102D02*
X26166Y-38126D01*
X26285Y-38126D01*
X26333Y-38102D01*
X26357Y-38078D01*
X26380Y-38030D01*
X26380Y-37983D01*
X26357Y-37935D01*
X26333Y-37911D01*
X26285Y-37888D01*
X26190Y-37864D01*
X26142Y-37840D01*
X26119Y-37816D01*
X26095Y-37769D01*
X26095Y-37721D01*
X26119Y-37673D01*
X26142Y-37650D01*
X26190Y-37626D01*
X26309Y-37626D01*
X26380Y-37650D01*
X26523Y-37626D02*
X26809Y-37626D01*
X26666Y-38126D02*
X26666Y-37626D01*
X24785Y-44583D02*
X25023Y-44583D01*
X24738Y-44726D02*
X24904Y-44226D01*
X25071Y-44726D01*
X25523Y-44726D02*
X25357Y-44488D01*
X25238Y-44726D02*
X25238Y-44226D01*
X25428Y-44226D01*
X25476Y-44250D01*
X25500Y-44273D01*
X25523Y-44321D01*
X25523Y-44392D01*
X25500Y-44440D01*
X25476Y-44464D01*
X25428Y-44488D01*
X25238Y-44488D01*
X25738Y-44464D02*
X25904Y-44464D01*
X25976Y-44726D02*
X25738Y-44726D01*
X25738Y-44226D01*
X25976Y-44226D01*
X26357Y-44464D02*
X26190Y-44464D01*
X26190Y-44726D02*
X26190Y-44226D01*
X26428Y-44226D01*
X25357Y-43250D02*
X25309Y-43226D01*
X25238Y-43226D01*
X25166Y-43250D01*
X25119Y-43297D01*
X25095Y-43345D01*
X25071Y-43440D01*
X25071Y-43511D01*
X25095Y-43607D01*
X25119Y-43654D01*
X25166Y-43702D01*
X25238Y-43726D01*
X25285Y-43726D01*
X25357Y-43702D01*
X25380Y-43678D01*
X25380Y-43511D01*
X25285Y-43511D01*
X25595Y-43726D02*
X25595Y-43226D01*
X25880Y-43726D01*
X25880Y-43226D01*
X26119Y-43726D02*
X26119Y-43226D01*
X26238Y-43226D01*
X26309Y-43250D01*
X26357Y-43297D01*
X26380Y-43345D01*
X26404Y-43440D01*
X26404Y-43511D01*
X26380Y-43607D01*
X26357Y-43654D01*
X26309Y-43702D01*
X26238Y-43726D01*
X26119Y-43726D01*
X28880Y-43250D02*
X28833Y-43226D01*
X28761Y-43226D01*
X28690Y-43250D01*
X28642Y-43297D01*
X28619Y-43345D01*
X28595Y-43440D01*
X28595Y-43511D01*
X28619Y-43607D01*
X28642Y-43654D01*
X28690Y-43702D01*
X28761Y-43726D01*
X28809Y-43726D01*
X28880Y-43702D01*
X28904Y-43678D01*
X28904Y-43511D01*
X28809Y-43511D01*
X29119Y-43726D02*
X29119Y-43226D01*
X29404Y-43726D01*
X29404Y-43226D01*
X29642Y-43726D02*
X29642Y-43226D01*
X29761Y-43226D01*
X29833Y-43250D01*
X29880Y-43297D01*
X29904Y-43345D01*
X29928Y-43440D01*
X29928Y-43511D01*
X29904Y-43607D01*
X29880Y-43654D01*
X29833Y-43702D01*
X29761Y-43726D01*
X29642Y-43726D01*
X28571Y-42226D02*
X28880Y-42226D01*
X28714Y-42416D01*
X28785Y-42416D01*
X28833Y-42440D01*
X28857Y-42464D01*
X28880Y-42511D01*
X28880Y-42630D01*
X28857Y-42678D01*
X28833Y-42702D01*
X28785Y-42726D01*
X28642Y-42726D01*
X28595Y-42702D01*
X28571Y-42678D01*
X29023Y-42226D02*
X29190Y-42726D01*
X29357Y-42226D01*
X29476Y-42226D02*
X29785Y-42226D01*
X29619Y-42416D01*
X29690Y-42416D01*
X29738Y-42440D01*
X29761Y-42464D01*
X29785Y-42511D01*
X29785Y-42630D01*
X29761Y-42678D01*
X29738Y-42702D01*
X29690Y-42726D01*
X29547Y-42726D01*
X29500Y-42702D01*
X29476Y-42678D01*
X25095Y-42535D02*
X25476Y-42535D01*
X25285Y-42726D02*
X25285Y-42345D01*
X25952Y-42226D02*
X25714Y-42226D01*
X25690Y-42464D01*
X25714Y-42440D01*
X25761Y-42416D01*
X25880Y-42416D01*
X25928Y-42440D01*
X25952Y-42464D01*
X25976Y-42511D01*
X25976Y-42630D01*
X25952Y-42678D01*
X25928Y-42702D01*
X25880Y-42726D01*
X25761Y-42726D01*
X25714Y-42702D01*
X25690Y-42678D01*
X26119Y-42226D02*
X26285Y-42726D01*
X26452Y-42226D01*
X25357Y-41226D02*
X25523Y-41726D01*
X25690Y-41226D01*
X25857Y-41726D02*
X25857Y-41226D01*
X26095Y-41726D02*
X26095Y-41226D01*
X26380Y-41726D01*
X26380Y-41226D01*
X28547Y-41226D02*
X28714Y-41726D01*
X28880Y-41226D01*
X29047Y-41726D02*
X29047Y-41226D01*
X29285Y-41726D02*
X29285Y-41226D01*
X29571Y-41726D01*
X29571Y-41226D01*
X33869Y-48726D02*
X33869Y-48226D01*
X34035Y-48583D01*
X34202Y-48226D01*
X34202Y-48726D01*
X34440Y-48726D02*
X34440Y-48226D01*
X34630Y-48226D01*
X34678Y-48250D01*
X34702Y-48273D01*
X34726Y-48321D01*
X34726Y-48392D01*
X34702Y-48440D01*
X34678Y-48464D01*
X34630Y-48488D01*
X34440Y-48488D01*
X34892Y-48226D02*
X35011Y-48726D01*
X35107Y-48369D01*
X35202Y-48726D01*
X35321Y-48226D01*
X35797Y-48726D02*
X35630Y-48488D01*
X35511Y-48726D02*
X35511Y-48226D01*
X35702Y-48226D01*
X35750Y-48250D01*
X35773Y-48273D01*
X35797Y-48321D01*
X35797Y-48392D01*
X35773Y-48440D01*
X35750Y-48464D01*
X35702Y-48488D01*
X35511Y-48488D01*
X33869Y-47726D02*
X33869Y-47226D01*
X33988Y-47226D01*
X34059Y-47250D01*
X34107Y-47297D01*
X34130Y-47345D01*
X34154Y-47440D01*
X34154Y-47511D01*
X34130Y-47607D01*
X34107Y-47654D01*
X34059Y-47702D01*
X33988Y-47726D01*
X33869Y-47726D01*
X34630Y-47726D02*
X34345Y-47726D01*
X34488Y-47726D02*
X34488Y-47226D01*
X34440Y-47297D01*
X34392Y-47345D01*
X34345Y-47369D01*
X34797Y-47226D02*
X35107Y-47226D01*
X34940Y-47416D01*
X35011Y-47416D01*
X35059Y-47440D01*
X35083Y-47464D01*
X35107Y-47511D01*
X35107Y-47630D01*
X35083Y-47678D01*
X35059Y-47702D01*
X35011Y-47726D01*
X34869Y-47726D01*
X34821Y-47702D01*
X34797Y-47678D01*
X33869Y-46726D02*
X33869Y-46226D01*
X33988Y-46226D01*
X34059Y-46250D01*
X34107Y-46297D01*
X34130Y-46345D01*
X34154Y-46440D01*
X34154Y-46511D01*
X34130Y-46607D01*
X34107Y-46654D01*
X34059Y-46702D01*
X33988Y-46726D01*
X33869Y-46726D01*
X34630Y-46726D02*
X34345Y-46726D01*
X34488Y-46726D02*
X34488Y-46226D01*
X34440Y-46297D01*
X34392Y-46345D01*
X34345Y-46369D01*
X35107Y-46726D02*
X34821Y-46726D01*
X34964Y-46726D02*
X34964Y-46226D01*
X34916Y-46297D01*
X34869Y-46345D01*
X34821Y-46369D01*
X33869Y-45726D02*
X33869Y-45226D01*
X33988Y-45226D01*
X34059Y-45250D01*
X34107Y-45297D01*
X34130Y-45345D01*
X34154Y-45440D01*
X34154Y-45511D01*
X34130Y-45607D01*
X34107Y-45654D01*
X34059Y-45702D01*
X33988Y-45726D01*
X33869Y-45726D01*
X34392Y-45726D02*
X34488Y-45726D01*
X34535Y-45702D01*
X34559Y-45678D01*
X34607Y-45607D01*
X34630Y-45511D01*
X34630Y-45321D01*
X34607Y-45273D01*
X34583Y-45250D01*
X34535Y-45226D01*
X34440Y-45226D01*
X34392Y-45250D01*
X34369Y-45273D01*
X34345Y-45321D01*
X34345Y-45440D01*
X34369Y-45488D01*
X34392Y-45511D01*
X34440Y-45535D01*
X34535Y-45535D01*
X34583Y-45511D01*
X34607Y-45488D01*
X34630Y-45440D01*
X33869Y-44726D02*
X33869Y-44226D01*
X33988Y-44226D01*
X34059Y-44250D01*
X34107Y-44297D01*
X34130Y-44345D01*
X34154Y-44440D01*
X34154Y-44511D01*
X34130Y-44607D01*
X34107Y-44654D01*
X34059Y-44702D01*
X33988Y-44726D01*
X33869Y-44726D01*
X34321Y-44226D02*
X34654Y-44226D01*
X34440Y-44726D01*
X33869Y-43726D02*
X33869Y-43226D01*
X33988Y-43226D01*
X34059Y-43250D01*
X34107Y-43297D01*
X34130Y-43345D01*
X34154Y-43440D01*
X34154Y-43511D01*
X34130Y-43607D01*
X34107Y-43654D01*
X34059Y-43702D01*
X33988Y-43726D01*
X33869Y-43726D01*
X34607Y-43226D02*
X34369Y-43226D01*
X34345Y-43464D01*
X34369Y-43440D01*
X34416Y-43416D01*
X34535Y-43416D01*
X34583Y-43440D01*
X34607Y-43464D01*
X34630Y-43511D01*
X34630Y-43630D01*
X34607Y-43678D01*
X34583Y-43702D01*
X34535Y-43726D01*
X34416Y-43726D01*
X34369Y-43702D01*
X34345Y-43678D01*
X33869Y-42726D02*
X33869Y-42226D01*
X33988Y-42226D01*
X34059Y-42250D01*
X34107Y-42297D01*
X34130Y-42345D01*
X34154Y-42440D01*
X34154Y-42511D01*
X34130Y-42607D01*
X34107Y-42654D01*
X34059Y-42702D01*
X33988Y-42726D01*
X33869Y-42726D01*
X34321Y-42226D02*
X34630Y-42226D01*
X34464Y-42416D01*
X34535Y-42416D01*
X34583Y-42440D01*
X34607Y-42464D01*
X34630Y-42511D01*
X34630Y-42630D01*
X34607Y-42678D01*
X34583Y-42702D01*
X34535Y-42726D01*
X34392Y-42726D01*
X34345Y-42702D01*
X34321Y-42678D01*
X33869Y-41726D02*
X33869Y-41226D01*
X33988Y-41226D01*
X34059Y-41250D01*
X34107Y-41297D01*
X34130Y-41345D01*
X34154Y-41440D01*
X34154Y-41511D01*
X34130Y-41607D01*
X34107Y-41654D01*
X34059Y-41702D01*
X33988Y-41726D01*
X33869Y-41726D01*
X34630Y-41726D02*
X34345Y-41726D01*
X34488Y-41726D02*
X34488Y-41226D01*
X34440Y-41297D01*
X34392Y-41345D01*
X34345Y-41369D01*
X30547Y-48726D02*
X30547Y-48226D01*
X30714Y-48583D01*
X30880Y-48226D01*
X30880Y-48726D01*
X31119Y-48726D02*
X31119Y-48226D01*
X31309Y-48226D01*
X31357Y-48250D01*
X31380Y-48273D01*
X31404Y-48321D01*
X31404Y-48392D01*
X31380Y-48440D01*
X31357Y-48464D01*
X31309Y-48488D01*
X31119Y-48488D01*
X30880Y-47726D02*
X30595Y-47726D01*
X30738Y-47726D02*
X30738Y-47226D01*
X30690Y-47297D01*
X30642Y-47345D01*
X30595Y-47369D01*
X31071Y-47273D02*
X31095Y-47250D01*
X31142Y-47226D01*
X31261Y-47226D01*
X31309Y-47250D01*
X31333Y-47273D01*
X31357Y-47321D01*
X31357Y-47369D01*
X31333Y-47440D01*
X31047Y-47726D01*
X31357Y-47726D01*
X30880Y-46726D02*
X30595Y-46726D01*
X30738Y-46726D02*
X30738Y-46226D01*
X30690Y-46297D01*
X30642Y-46345D01*
X30595Y-46369D01*
X31190Y-46226D02*
X31238Y-46226D01*
X31285Y-46250D01*
X31309Y-46273D01*
X31333Y-46321D01*
X31357Y-46416D01*
X31357Y-46535D01*
X31333Y-46630D01*
X31309Y-46678D01*
X31285Y-46702D01*
X31238Y-46726D01*
X31190Y-46726D01*
X31142Y-46702D01*
X31119Y-46678D01*
X31095Y-46630D01*
X31071Y-46535D01*
X31071Y-46416D01*
X31095Y-46321D01*
X31119Y-46273D01*
X31142Y-46250D01*
X31190Y-46226D01*
X30619Y-45726D02*
X30619Y-45226D01*
X30738Y-45226D01*
X30809Y-45250D01*
X30857Y-45297D01*
X30880Y-45345D01*
X30904Y-45440D01*
X30904Y-45511D01*
X30880Y-45607D01*
X30857Y-45654D01*
X30809Y-45702D01*
X30738Y-45726D01*
X30619Y-45726D01*
X31190Y-45440D02*
X31142Y-45416D01*
X31119Y-45392D01*
X31095Y-45345D01*
X31095Y-45321D01*
X31119Y-45273D01*
X31142Y-45250D01*
X31190Y-45226D01*
X31285Y-45226D01*
X31333Y-45250D01*
X31357Y-45273D01*
X31380Y-45321D01*
X31380Y-45345D01*
X31357Y-45392D01*
X31333Y-45416D01*
X31285Y-45440D01*
X31190Y-45440D01*
X31142Y-45464D01*
X31119Y-45488D01*
X31095Y-45535D01*
X31095Y-45630D01*
X31119Y-45678D01*
X31142Y-45702D01*
X31190Y-45726D01*
X31285Y-45726D01*
X31333Y-45702D01*
X31357Y-45678D01*
X31380Y-45630D01*
X31380Y-45535D01*
X31357Y-45488D01*
X31333Y-45464D01*
X31285Y-45440D01*
X30619Y-44726D02*
X30619Y-44226D01*
X30738Y-44226D01*
X30809Y-44250D01*
X30857Y-44297D01*
X30880Y-44345D01*
X30904Y-44440D01*
X30904Y-44511D01*
X30880Y-44607D01*
X30857Y-44654D01*
X30809Y-44702D01*
X30738Y-44726D01*
X30619Y-44726D01*
X31333Y-44226D02*
X31238Y-44226D01*
X31190Y-44250D01*
X31166Y-44273D01*
X31119Y-44345D01*
X31095Y-44440D01*
X31095Y-44630D01*
X31119Y-44678D01*
X31142Y-44702D01*
X31190Y-44726D01*
X31285Y-44726D01*
X31333Y-44702D01*
X31357Y-44678D01*
X31380Y-44630D01*
X31380Y-44511D01*
X31357Y-44464D01*
X31333Y-44440D01*
X31285Y-44416D01*
X31190Y-44416D01*
X31142Y-44440D01*
X31119Y-44464D01*
X31095Y-44511D01*
X30619Y-43726D02*
X30619Y-43226D01*
X30738Y-43226D01*
X30809Y-43250D01*
X30857Y-43297D01*
X30880Y-43345D01*
X30904Y-43440D01*
X30904Y-43511D01*
X30880Y-43607D01*
X30857Y-43654D01*
X30809Y-43702D01*
X30738Y-43726D01*
X30619Y-43726D01*
X31333Y-43392D02*
X31333Y-43726D01*
X31214Y-43202D02*
X31095Y-43559D01*
X31404Y-43559D01*
X30619Y-42726D02*
X30619Y-42226D01*
X30738Y-42226D01*
X30809Y-42250D01*
X30857Y-42297D01*
X30880Y-42345D01*
X30904Y-42440D01*
X30904Y-42511D01*
X30880Y-42607D01*
X30857Y-42654D01*
X30809Y-42702D01*
X30738Y-42726D01*
X30619Y-42726D01*
X31095Y-42273D02*
X31119Y-42250D01*
X31166Y-42226D01*
X31285Y-42226D01*
X31333Y-42250D01*
X31357Y-42273D01*
X31380Y-42321D01*
X31380Y-42369D01*
X31357Y-42440D01*
X31071Y-42726D01*
X31380Y-42726D01*
X30619Y-41726D02*
X30619Y-41226D01*
X30738Y-41226D01*
X30809Y-41250D01*
X30857Y-41297D01*
X30880Y-41345D01*
X30904Y-41440D01*
X30904Y-41511D01*
X30880Y-41607D01*
X30857Y-41654D01*
X30809Y-41702D01*
X30738Y-41726D01*
X30619Y-41726D01*
X31214Y-41226D02*
X31261Y-41226D01*
X31309Y-41250D01*
X31333Y-41273D01*
X31357Y-41321D01*
X31380Y-41416D01*
X31380Y-41535D01*
X31357Y-41630D01*
X31333Y-41678D01*
X31309Y-41702D01*
X31261Y-41726D01*
X31214Y-41726D01*
X31166Y-41702D01*
X31142Y-41678D01*
X31119Y-41630D01*
X31095Y-41535D01*
X31095Y-41416D01*
X31119Y-41321D01*
X31142Y-41273D01*
X31166Y-41250D01*
X31214Y-41226D01*
X10619Y-41726D02*
X10619Y-41226D01*
X10738Y-41226D01*
X10809Y-41250D01*
X10857Y-41297D01*
X10880Y-41345D01*
X10904Y-41440D01*
X10904Y-41511D01*
X10880Y-41607D01*
X10857Y-41654D01*
X10809Y-41702D01*
X10738Y-41726D01*
X10619Y-41726D01*
X11214Y-41226D02*
X11261Y-41226D01*
X11309Y-41250D01*
X11333Y-41273D01*
X11357Y-41321D01*
X11380Y-41416D01*
X11380Y-41535D01*
X11357Y-41630D01*
X11333Y-41678D01*
X11309Y-41702D01*
X11261Y-41726D01*
X11214Y-41726D01*
X11166Y-41702D01*
X11142Y-41678D01*
X11119Y-41630D01*
X11095Y-41535D01*
X11095Y-41416D01*
X11119Y-41321D01*
X11142Y-41273D01*
X11166Y-41250D01*
X11214Y-41226D01*
X10619Y-42726D02*
X10619Y-42226D01*
X10738Y-42226D01*
X10809Y-42250D01*
X10857Y-42297D01*
X10880Y-42345D01*
X10904Y-42440D01*
X10904Y-42511D01*
X10880Y-42607D01*
X10857Y-42654D01*
X10809Y-42702D01*
X10738Y-42726D01*
X10619Y-42726D01*
X11095Y-42273D02*
X11119Y-42250D01*
X11166Y-42226D01*
X11285Y-42226D01*
X11333Y-42250D01*
X11357Y-42273D01*
X11380Y-42321D01*
X11380Y-42369D01*
X11357Y-42440D01*
X11071Y-42726D01*
X11380Y-42726D01*
X10619Y-43726D02*
X10619Y-43226D01*
X10738Y-43226D01*
X10809Y-43250D01*
X10857Y-43297D01*
X10880Y-43345D01*
X10904Y-43440D01*
X10904Y-43511D01*
X10880Y-43607D01*
X10857Y-43654D01*
X10809Y-43702D01*
X10738Y-43726D01*
X10619Y-43726D01*
X11333Y-43392D02*
X11333Y-43726D01*
X11214Y-43202D02*
X11095Y-43559D01*
X11404Y-43559D01*
X10619Y-44726D02*
X10619Y-44226D01*
X10738Y-44226D01*
X10809Y-44250D01*
X10857Y-44297D01*
X10880Y-44345D01*
X10904Y-44440D01*
X10904Y-44511D01*
X10880Y-44607D01*
X10857Y-44654D01*
X10809Y-44702D01*
X10738Y-44726D01*
X10619Y-44726D01*
X11333Y-44226D02*
X11238Y-44226D01*
X11190Y-44250D01*
X11166Y-44273D01*
X11119Y-44345D01*
X11095Y-44440D01*
X11095Y-44630D01*
X11119Y-44678D01*
X11142Y-44702D01*
X11190Y-44726D01*
X11285Y-44726D01*
X11333Y-44702D01*
X11357Y-44678D01*
X11380Y-44630D01*
X11380Y-44511D01*
X11357Y-44464D01*
X11333Y-44440D01*
X11285Y-44416D01*
X11190Y-44416D01*
X11142Y-44440D01*
X11119Y-44464D01*
X11095Y-44511D01*
X10619Y-45726D02*
X10619Y-45226D01*
X10738Y-45226D01*
X10809Y-45250D01*
X10857Y-45297D01*
X10880Y-45345D01*
X10904Y-45440D01*
X10904Y-45511D01*
X10880Y-45607D01*
X10857Y-45654D01*
X10809Y-45702D01*
X10738Y-45726D01*
X10619Y-45726D01*
X11190Y-45440D02*
X11142Y-45416D01*
X11119Y-45392D01*
X11095Y-45345D01*
X11095Y-45321D01*
X11119Y-45273D01*
X11142Y-45250D01*
X11190Y-45226D01*
X11285Y-45226D01*
X11333Y-45250D01*
X11357Y-45273D01*
X11380Y-45321D01*
X11380Y-45345D01*
X11357Y-45392D01*
X11333Y-45416D01*
X11285Y-45440D01*
X11190Y-45440D01*
X11142Y-45464D01*
X11119Y-45488D01*
X11095Y-45535D01*
X11095Y-45630D01*
X11119Y-45678D01*
X11142Y-45702D01*
X11190Y-45726D01*
X11285Y-45726D01*
X11333Y-45702D01*
X11357Y-45678D01*
X11380Y-45630D01*
X11380Y-45535D01*
X11357Y-45488D01*
X11333Y-45464D01*
X11285Y-45440D01*
X13869Y-46726D02*
X13869Y-46226D01*
X13988Y-46226D01*
X14059Y-46250D01*
X14107Y-46297D01*
X14130Y-46345D01*
X14154Y-46440D01*
X14154Y-46511D01*
X14130Y-46607D01*
X14107Y-46654D01*
X14059Y-46702D01*
X13988Y-46726D01*
X13869Y-46726D01*
X14630Y-46726D02*
X14345Y-46726D01*
X14488Y-46726D02*
X14488Y-46226D01*
X14440Y-46297D01*
X14392Y-46345D01*
X14345Y-46369D01*
X15107Y-46726D02*
X14821Y-46726D01*
X14964Y-46726D02*
X14964Y-46226D01*
X14916Y-46297D01*
X14869Y-46345D01*
X14821Y-46369D01*
X10928Y-47726D02*
X10642Y-47726D01*
X10785Y-47726D02*
X10785Y-47226D01*
X10738Y-47297D01*
X10690Y-47345D01*
X10642Y-47369D01*
X11119Y-47273D02*
X11142Y-47250D01*
X11190Y-47226D01*
X11309Y-47226D01*
X11357Y-47250D01*
X11380Y-47273D01*
X11404Y-47321D01*
X11404Y-47369D01*
X11380Y-47440D01*
X11095Y-47726D01*
X11404Y-47726D01*
X10547Y-48726D02*
X10547Y-48226D01*
X10714Y-48583D01*
X10880Y-48226D01*
X10880Y-48726D01*
X11119Y-48726D02*
X11119Y-48226D01*
X11309Y-48226D01*
X11357Y-48250D01*
X11380Y-48273D01*
X11404Y-48321D01*
X11404Y-48392D01*
X11380Y-48440D01*
X11357Y-48464D01*
X11309Y-48488D01*
X11119Y-48488D01*
X13869Y-48726D02*
X13869Y-48226D01*
X14035Y-48583D01*
X14202Y-48226D01*
X14202Y-48726D01*
X14440Y-48726D02*
X14440Y-48226D01*
X14630Y-48226D01*
X14678Y-48250D01*
X14702Y-48273D01*
X14726Y-48321D01*
X14726Y-48392D01*
X14702Y-48440D01*
X14678Y-48464D01*
X14630Y-48488D01*
X14440Y-48488D01*
X14892Y-48226D02*
X15011Y-48726D01*
X15107Y-48369D01*
X15202Y-48726D01*
X15321Y-48226D01*
X15797Y-48726D02*
X15630Y-48488D01*
X15511Y-48726D02*
X15511Y-48226D01*
X15702Y-48226D01*
X15750Y-48250D01*
X15773Y-48273D01*
X15797Y-48321D01*
X15797Y-48392D01*
X15773Y-48440D01*
X15750Y-48464D01*
X15702Y-48488D01*
X15511Y-48488D01*
X13869Y-47726D02*
X13869Y-47226D01*
X13988Y-47226D01*
X14059Y-47250D01*
X14107Y-47297D01*
X14130Y-47345D01*
X14154Y-47440D01*
X14154Y-47511D01*
X14130Y-47607D01*
X14107Y-47654D01*
X14059Y-47702D01*
X13988Y-47726D01*
X13869Y-47726D01*
X14630Y-47726D02*
X14345Y-47726D01*
X14488Y-47726D02*
X14488Y-47226D01*
X14440Y-47297D01*
X14392Y-47345D01*
X14345Y-47369D01*
X14797Y-47226D02*
X15107Y-47226D01*
X14940Y-47416D01*
X15011Y-47416D01*
X15059Y-47440D01*
X15083Y-47464D01*
X15107Y-47511D01*
X15107Y-47630D01*
X15083Y-47678D01*
X15059Y-47702D01*
X15011Y-47726D01*
X14869Y-47726D01*
X14821Y-47702D01*
X14797Y-47678D01*
X10880Y-46726D02*
X10595Y-46726D01*
X10738Y-46726D02*
X10738Y-46226D01*
X10690Y-46297D01*
X10642Y-46345D01*
X10595Y-46369D01*
X11190Y-46226D02*
X11238Y-46226D01*
X11285Y-46250D01*
X11309Y-46273D01*
X11333Y-46321D01*
X11357Y-46416D01*
X11357Y-46535D01*
X11333Y-46630D01*
X11309Y-46678D01*
X11285Y-46702D01*
X11238Y-46726D01*
X11190Y-46726D01*
X11142Y-46702D01*
X11119Y-46678D01*
X11095Y-46630D01*
X11071Y-46535D01*
X11071Y-46416D01*
X11095Y-46321D01*
X11119Y-46273D01*
X11142Y-46250D01*
X11190Y-46226D01*
X13869Y-45726D02*
X13869Y-45226D01*
X13988Y-45226D01*
X14059Y-45250D01*
X14107Y-45297D01*
X14130Y-45345D01*
X14154Y-45440D01*
X14154Y-45511D01*
X14130Y-45607D01*
X14107Y-45654D01*
X14059Y-45702D01*
X13988Y-45726D01*
X13869Y-45726D01*
X14392Y-45726D02*
X14488Y-45726D01*
X14535Y-45702D01*
X14559Y-45678D01*
X14607Y-45607D01*
X14630Y-45511D01*
X14630Y-45321D01*
X14607Y-45273D01*
X14583Y-45250D01*
X14535Y-45226D01*
X14440Y-45226D01*
X14392Y-45250D01*
X14369Y-45273D01*
X14345Y-45321D01*
X14345Y-45440D01*
X14369Y-45488D01*
X14392Y-45511D01*
X14440Y-45535D01*
X14535Y-45535D01*
X14583Y-45511D01*
X14607Y-45488D01*
X14630Y-45440D01*
X13869Y-44726D02*
X13869Y-44226D01*
X13988Y-44226D01*
X14059Y-44250D01*
X14107Y-44297D01*
X14130Y-44345D01*
X14154Y-44440D01*
X14154Y-44511D01*
X14130Y-44607D01*
X14107Y-44654D01*
X14059Y-44702D01*
X13988Y-44726D01*
X13869Y-44726D01*
X14321Y-44226D02*
X14654Y-44226D01*
X14440Y-44726D01*
X13869Y-43726D02*
X13869Y-43226D01*
X13988Y-43226D01*
X14059Y-43250D01*
X14107Y-43297D01*
X14130Y-43345D01*
X14154Y-43440D01*
X14154Y-43511D01*
X14130Y-43607D01*
X14107Y-43654D01*
X14059Y-43702D01*
X13988Y-43726D01*
X13869Y-43726D01*
X14607Y-43226D02*
X14369Y-43226D01*
X14345Y-43464D01*
X14369Y-43440D01*
X14416Y-43416D01*
X14535Y-43416D01*
X14583Y-43440D01*
X14607Y-43464D01*
X14630Y-43511D01*
X14630Y-43630D01*
X14607Y-43678D01*
X14583Y-43702D01*
X14535Y-43726D01*
X14416Y-43726D01*
X14369Y-43702D01*
X14345Y-43678D01*
X13869Y-42726D02*
X13869Y-42226D01*
X13988Y-42226D01*
X14059Y-42250D01*
X14107Y-42297D01*
X14130Y-42345D01*
X14154Y-42440D01*
X14154Y-42511D01*
X14130Y-42607D01*
X14107Y-42654D01*
X14059Y-42702D01*
X13988Y-42726D01*
X13869Y-42726D01*
X14321Y-42226D02*
X14630Y-42226D01*
X14464Y-42416D01*
X14535Y-42416D01*
X14583Y-42440D01*
X14607Y-42464D01*
X14630Y-42511D01*
X14630Y-42630D01*
X14607Y-42678D01*
X14583Y-42702D01*
X14535Y-42726D01*
X14392Y-42726D01*
X14345Y-42702D01*
X14321Y-42678D01*
X13869Y-41726D02*
X13869Y-41226D01*
X13988Y-41226D01*
X14059Y-41250D01*
X14107Y-41297D01*
X14130Y-41345D01*
X14154Y-41440D01*
X14154Y-41511D01*
X14130Y-41607D01*
X14107Y-41654D01*
X14059Y-41702D01*
X13988Y-41726D01*
X13869Y-41726D01*
X14630Y-41726D02*
X14345Y-41726D01*
X14488Y-41726D02*
X14488Y-41226D01*
X14440Y-41297D01*
X14392Y-41345D01*
X14345Y-41369D01*
G54D13*
X30157Y-40657D02*
X49685Y-40657D01*
X30157Y-49685D02*
X30157Y-40657D01*
X29842Y-40657D02*
X29842Y-49685D01*
X10314Y-40657D02*
X29842Y-40657D01*
X30157Y-19342D02*
X49685Y-19342D01*
X30157Y-10314D02*
X30157Y-19342D01*
X29842Y-10314D02*
X29842Y-19342D01*
X10314Y-19342D02*
X29842Y-19342D01*
X34000Y-40500D02*
X10314Y-40500D01*
X34000Y-39500D02*
X34000Y-40500D01*
X35000Y-38500D02*
X34000Y-39500D01*
X35000Y-25600D02*
X35000Y-38500D01*
X34000Y-24600D02*
X35000Y-25600D01*
X34000Y-20100D02*
X34000Y-24600D01*
X33400Y-19500D02*
X34000Y-20100D01*
X10314Y-19500D02*
X33400Y-19500D01*
X10314Y-49685D02*
X49685Y-49685D01*
X10314Y-49685D02*
X10314Y-10314D01*
X10314Y-10314D02*
X49685Y-10314D01*
X49685Y-10314D02*
X49685Y-49685D01*
G54D15*
X45480Y-23250D02*
X43500Y-23250D01*
X43500Y-23250D02*
X43500Y-22250D01*
X43500Y-22250D02*
X45500Y-22250D01*
X45500Y-22250D02*
X45500Y-23250D01*
X45500Y-23000D02*
X45250Y-23250D01*
X20980Y-35750D02*
X19000Y-35750D01*
X19000Y-35750D02*
X19000Y-34750D01*
X19000Y-34750D02*
X21000Y-34750D01*
X21000Y-34750D02*
X21000Y-35750D01*
X21000Y-35500D02*
X20750Y-35750D01*
X43520Y-20500D02*
X45500Y-20500D01*
X45500Y-20500D02*
X45500Y-21500D01*
X45500Y-21500D02*
X43500Y-21500D01*
X43500Y-21500D02*
X43500Y-20500D01*
X43500Y-20750D02*
X43750Y-20500D01*
X20980Y-37750D02*
X19000Y-37750D01*
X19000Y-37750D02*
X19000Y-36750D01*
X19000Y-36750D02*
X21000Y-36750D01*
X21000Y-36750D02*
X21000Y-37750D01*
X21000Y-37500D02*
X20750Y-37750D01*
X44980Y-36750D02*
X43000Y-36750D01*
X43000Y-36750D02*
X43000Y-35750D01*
X43000Y-35750D02*
X45000Y-35750D01*
X45000Y-35750D02*
X45000Y-36750D01*
X45000Y-36500D02*
X44750Y-36750D01*
X43270Y-45000D02*
X45250Y-45000D01*
X45250Y-45000D02*
X45250Y-46000D01*
X45250Y-46000D02*
X43250Y-46000D01*
X43250Y-46000D02*
X43250Y-45000D01*
X43250Y-45250D02*
X43500Y-45000D01*
X38230Y-30250D02*
X36250Y-30250D01*
X36250Y-30250D02*
X36250Y-29250D01*
X36250Y-29250D02*
X38250Y-29250D01*
X38250Y-29250D02*
X38250Y-30250D01*
X38250Y-30000D02*
X38000Y-30250D01*
X43520Y-24000D02*
X45500Y-24000D01*
X45500Y-24000D02*
X45500Y-25000D01*
X45500Y-25000D02*
X43500Y-25000D01*
X43500Y-25000D02*
X43500Y-24000D01*
X43500Y-24250D02*
X43750Y-24000D01*
X37230Y-25250D02*
X35250Y-25250D01*
X35250Y-25250D02*
X35250Y-24250D01*
X35250Y-24250D02*
X37250Y-24250D01*
X37250Y-24250D02*
X37250Y-25250D01*
X37250Y-25000D02*
X37000Y-25250D01*
X42480Y-35750D02*
X40500Y-35750D01*
X40500Y-35750D02*
X40500Y-34750D01*
X40500Y-34750D02*
X42500Y-34750D01*
X42500Y-34750D02*
X42500Y-35750D01*
X42500Y-35500D02*
X42250Y-35750D01*
X21980Y-26500D02*
X20000Y-26500D01*
X20000Y-26500D02*
X20000Y-25500D01*
X20000Y-25500D02*
X22000Y-25500D01*
X22000Y-25500D02*
X22000Y-26500D01*
X22000Y-26250D02*
X21750Y-26500D01*
X20980Y-34500D02*
X19000Y-34500D01*
X19000Y-34500D02*
X19000Y-33500D01*
X19000Y-33500D02*
X21000Y-33500D01*
X21000Y-33500D02*
X21000Y-34500D01*
X21000Y-34250D02*
X20750Y-34500D01*
G54D16*
X44750Y-26750D02*
X44750Y-26350D01*
X44750Y-28650D02*
X44750Y-29150D01*
G54D12*
X45250Y-28550D02*
X44250Y-28550D01*
X45250Y-28450D02*
X44250Y-28450D01*
X45250Y-28350D02*
X44250Y-28350D01*
X45250Y-28650D02*
X44250Y-28650D01*
X45250Y-28250D02*
X44250Y-28750D01*
X45250Y-28750D02*
X44250Y-28250D01*
X45250Y-28250D02*
X44250Y-28250D01*
X45250Y-28500D02*
X44250Y-28500D01*
X44250Y-28750D02*
X45250Y-28750D01*
X45250Y-28750D02*
X45250Y-26750D01*
X45250Y-26750D02*
X44250Y-26750D01*
X44250Y-26750D02*
X44250Y-28750D01*
G54D10*
X36050Y-34100D02*
G75*
G03X36350Y-35700I950J-650D01*
G74*
G01*
X36350Y-35700D02*
X37650Y-35700D01*
X37650Y-35700D02*
G75*
G03X36050Y-35400I-650J950D01*
G74*
G01*
G54D12*
X47500Y-35500D02*
X47500Y-37500D01*
X47500Y-37500D02*
X48500Y-37500D01*
X48500Y-37500D02*
X48500Y-35500D01*
X48500Y-34500D02*
X48500Y-35500D01*
X48500Y-35500D02*
X47500Y-35500D01*
X48500Y-34500D02*
X47500Y-34500D01*
X47500Y-34500D02*
X47500Y-35500D01*
X35750Y-32250D02*
X35750Y-33250D01*
X35750Y-33250D02*
X36750Y-33250D01*
X36750Y-33250D02*
X36750Y-32250D01*
X36750Y-32250D02*
X35750Y-32250D01*
X35750Y-32250D02*
X35750Y-31250D01*
X35750Y-31250D02*
X37750Y-31250D01*
X37750Y-31250D02*
X37750Y-33250D01*
X37750Y-33250D02*
X36750Y-33250D01*
X33650Y-28500D02*
X33650Y-29500D01*
X33650Y-29500D02*
X32650Y-29500D01*
X32650Y-28500D02*
X32650Y-31500D01*
X32650Y-31500D02*
X34650Y-31500D01*
X34650Y-31500D02*
X34650Y-29500D01*
X32650Y-28500D02*
X33650Y-28500D01*
X34650Y-28500D02*
X33650Y-28500D01*
X34650Y-29500D02*
X34650Y-28500D01*
X23900Y-21000D02*
X16900Y-21000D01*
X16900Y-21000D02*
X16900Y-20000D01*
X16900Y-20000D02*
X23900Y-20000D01*
X24900Y-21000D02*
X23900Y-21000D01*
X23900Y-21000D02*
X23900Y-20000D01*
X24900Y-21000D02*
X24900Y-20000D01*
X24900Y-20000D02*
X23900Y-20000D01*
X32500Y-21000D02*
X25500Y-21000D01*
X25500Y-21000D02*
X25500Y-20000D01*
X25500Y-20000D02*
X32500Y-20000D01*
X33500Y-21000D02*
X32500Y-21000D01*
X32500Y-21000D02*
X32500Y-20000D01*
X33500Y-21000D02*
X33500Y-20000D01*
X33500Y-20000D02*
X32500Y-20000D01*
X32500Y-40000D02*
X27500Y-40000D01*
X27500Y-40000D02*
X27500Y-39000D01*
X27500Y-39000D02*
X32500Y-39000D01*
X33500Y-40000D02*
X32500Y-40000D01*
X32500Y-40000D02*
X32500Y-39000D01*
X33500Y-40000D02*
X33500Y-39000D01*
X33500Y-39000D02*
X32500Y-39000D01*
X25500Y-40000D02*
X20500Y-40000D01*
X20500Y-40000D02*
X20500Y-39000D01*
X20500Y-39000D02*
X25500Y-39000D01*
X26500Y-40000D02*
X25500Y-40000D01*
X25500Y-40000D02*
X25500Y-39000D01*
X26500Y-40000D02*
X26500Y-39000D01*
X26500Y-39000D02*
X25500Y-39000D01*
X13500Y-49000D02*
X13500Y-41000D01*
X11500Y-42000D02*
X11500Y-49000D01*
X13500Y-49000D02*
X11500Y-49000D01*
X13500Y-41000D02*
X12500Y-41000D01*
X11500Y-41000D02*
X11500Y-42000D01*
X12500Y-41000D02*
X12500Y-42000D01*
X12500Y-42000D02*
X11500Y-42000D01*
X11500Y-41000D02*
X12500Y-41000D01*
X28500Y-49000D02*
X28500Y-41000D01*
X26500Y-42000D02*
X26500Y-49000D01*
X28500Y-49000D02*
X26500Y-49000D01*
X28500Y-41000D02*
X27500Y-41000D01*
X26500Y-41000D02*
X26500Y-42000D01*
X27500Y-41000D02*
X27500Y-42000D01*
X27500Y-42000D02*
X26500Y-42000D01*
X26500Y-41000D02*
X27500Y-41000D01*
G54D10*
X45050Y-28000D02*
X45350Y-27800D01*
X45050Y-28000D02*
X45350Y-28200D01*
G54D12*
X45350Y-30900D02*
X45550Y-30900D01*
X45550Y-30900D02*
X45550Y-29100D01*
X45550Y-29100D02*
X45350Y-29100D01*
X49150Y-26000D02*
X49150Y-34000D01*
X49150Y-34000D02*
X45350Y-34000D01*
X45350Y-34000D02*
X45350Y-26000D01*
X45350Y-26000D02*
X49150Y-26000D01*
X48500Y-20750D02*
X48500Y-25750D01*
X48500Y-25750D02*
X47500Y-25750D01*
X47500Y-25750D02*
X47500Y-20750D01*
X48500Y-19750D02*
X48500Y-20750D01*
X48500Y-20750D02*
X47500Y-20750D01*
X48500Y-19750D02*
X47500Y-19750D01*
X47500Y-19750D02*
X47500Y-20750D01*
X33500Y-49000D02*
X33500Y-41000D01*
X31500Y-42000D02*
X31500Y-49000D01*
X33500Y-49000D02*
X31500Y-49000D01*
X33500Y-41000D02*
X32500Y-41000D01*
X31500Y-41000D02*
X31500Y-42000D01*
X32500Y-41000D02*
X32500Y-42000D01*
X32500Y-42000D02*
X31500Y-42000D01*
X31500Y-41000D02*
X32500Y-41000D01*
X48500Y-49000D02*
X48500Y-41000D01*
X46500Y-42000D02*
X46500Y-49000D01*
X48500Y-49000D02*
X46500Y-49000D01*
X48500Y-41000D02*
X47500Y-41000D01*
X46500Y-41000D02*
X46500Y-42000D01*
X47500Y-41000D02*
X47500Y-42000D01*
X47500Y-42000D02*
X46500Y-42000D01*
X46500Y-41000D02*
X47500Y-41000D01*
X26500Y-11000D02*
X26500Y-19000D01*
X28500Y-18000D02*
X28500Y-11000D01*
X26500Y-11000D02*
X28500Y-11000D01*
X26500Y-19000D02*
X27500Y-19000D01*
X28500Y-19000D02*
X28500Y-18000D01*
X27500Y-19000D02*
X27500Y-18000D01*
X27500Y-18000D02*
X28500Y-18000D01*
X28500Y-19000D02*
X27500Y-19000D01*
X11500Y-11000D02*
X11500Y-19000D01*
X13500Y-18000D02*
X13500Y-11000D01*
X11500Y-11000D02*
X13500Y-11000D01*
X11500Y-19000D02*
X12500Y-19000D01*
X13500Y-19000D02*
X13500Y-18000D01*
X12500Y-19000D02*
X12500Y-18000D01*
X12500Y-18000D02*
X13500Y-18000D01*
X13500Y-19000D02*
X12500Y-19000D01*
X46500Y-11000D02*
X46500Y-19000D01*
X48500Y-18000D02*
X48500Y-11000D01*
X46500Y-11000D02*
X48500Y-11000D01*
X46500Y-19000D02*
X47500Y-19000D01*
X48500Y-19000D02*
X48500Y-18000D01*
X47500Y-19000D02*
X47500Y-18000D01*
X47500Y-18000D02*
X48500Y-18000D01*
X48500Y-19000D02*
X47500Y-19000D01*
X31500Y-11000D02*
X31500Y-19000D01*
X33500Y-18000D02*
X33500Y-11000D01*
X31500Y-11000D02*
X33500Y-11000D01*
X31500Y-19000D02*
X32500Y-19000D01*
X33500Y-19000D02*
X33500Y-18000D01*
X32500Y-19000D02*
X32500Y-18000D01*
X32500Y-18000D02*
X33500Y-18000D01*
X33500Y-19000D02*
X32500Y-19000D01*
G54D10*
X12500Y-26200D02*
X12300Y-25900D01*
X12500Y-26200D02*
X12700Y-25900D01*
G54D12*
X15400Y-25900D02*
X15400Y-25700D01*
X15400Y-25700D02*
X13600Y-25700D01*
X13600Y-25700D02*
X13600Y-25900D01*
X10500Y-22100D02*
X18500Y-22100D01*
X18500Y-22100D02*
X18500Y-25900D01*
X18500Y-25900D02*
X10500Y-25900D01*
X10500Y-25900D02*
X10500Y-22100D01*
G54D16*
X44500Y-33969D02*
X44500Y-34369D01*
X44500Y-31969D02*
X44500Y-31569D01*
X44000Y-33969D02*
X44000Y-31969D01*
X44000Y-31969D02*
X45000Y-31969D01*
X45000Y-31969D02*
X45000Y-33969D01*
X45000Y-33969D02*
X44000Y-33969D01*
X43750Y-18469D02*
X43750Y-18869D01*
X43750Y-16469D02*
X43750Y-16069D01*
X43250Y-18469D02*
X43250Y-16469D01*
X43250Y-16469D02*
X44250Y-16469D01*
X44250Y-16469D02*
X44250Y-18469D01*
X44250Y-18469D02*
X43250Y-18469D01*
X45000Y-18469D02*
X45000Y-18869D01*
X45000Y-16469D02*
X45000Y-16069D01*
X44500Y-18469D02*
X44500Y-16469D01*
X44500Y-16469D02*
X45500Y-16469D01*
X45500Y-16469D02*
X45500Y-18469D01*
X45500Y-18469D02*
X44500Y-18469D01*
X31144Y-25850D02*
X31544Y-25850D01*
X29144Y-25850D02*
X28744Y-25850D01*
X31144Y-26350D02*
X29144Y-26350D01*
X29144Y-26350D02*
X29144Y-25350D01*
X29144Y-25350D02*
X31144Y-25350D01*
X31144Y-25350D02*
X31144Y-26350D01*
X40031Y-29750D02*
X39631Y-29750D01*
X42031Y-29750D02*
X42431Y-29750D01*
X40031Y-29250D02*
X42031Y-29250D01*
X42031Y-29250D02*
X42031Y-30250D01*
X42031Y-30250D02*
X40031Y-30250D01*
X40031Y-30250D02*
X40031Y-29250D01*
X38750Y-33719D02*
X38750Y-34119D01*
X38750Y-31719D02*
X38750Y-31319D01*
X38250Y-33719D02*
X38250Y-31719D01*
X38250Y-31719D02*
X39250Y-31719D01*
X39250Y-31719D02*
X39250Y-33719D01*
X39250Y-33719D02*
X38250Y-33719D01*
X44500Y-43469D02*
X44500Y-43869D01*
X44500Y-41469D02*
X44500Y-41069D01*
X44000Y-43469D02*
X44000Y-41469D01*
X44000Y-41469D02*
X45000Y-41469D01*
X45000Y-41469D02*
X45000Y-43469D01*
X45000Y-43469D02*
X44000Y-43469D01*
X46250Y-21281D02*
X46250Y-20881D01*
X46250Y-23281D02*
X46250Y-23681D01*
X46750Y-21281D02*
X46750Y-23281D01*
X46750Y-23281D02*
X45750Y-23281D01*
X45750Y-23281D02*
X45750Y-21281D01*
X45750Y-21281D02*
X46750Y-21281D01*
X25781Y-35000D02*
X25381Y-35000D01*
X27781Y-35000D02*
X28181Y-35000D01*
X25781Y-34500D02*
X27781Y-34500D01*
X27781Y-34500D02*
X27781Y-35500D01*
X27781Y-35500D02*
X25781Y-35500D01*
X25781Y-35500D02*
X25781Y-34500D01*
X30719Y-23825D02*
X31119Y-23825D01*
X28719Y-23825D02*
X28319Y-23825D01*
X30719Y-24325D02*
X28719Y-24325D01*
X28719Y-24325D02*
X28719Y-23325D01*
X28719Y-23325D02*
X30719Y-23325D01*
X30719Y-23325D02*
X30719Y-24325D01*
X48081Y-39989D02*
X48081Y-39891D01*
X45719Y-39989D02*
X45719Y-39891D01*
X48081Y-38611D02*
X48081Y-38709D01*
X45719Y-38611D02*
X45719Y-38709D01*
X45719Y-39989D02*
X48081Y-39989D01*
X45719Y-38611D02*
X48081Y-38611D01*
X40750Y-23100D02*
X41300Y-23100D01*
X40750Y-22100D02*
X41300Y-22100D01*
X40750Y-21100D02*
X41300Y-21100D01*
X36589Y-22100D02*
G75*
G03X36589Y-22100I-989J0D01*
G74*
G01*
X37400Y-20000D02*
X34250Y-20000D01*
X34250Y-20000D02*
X34250Y-24200D01*
X34250Y-24200D02*
X37400Y-24200D01*
X40750Y-20000D02*
X37400Y-20000D01*
X37400Y-20000D02*
X37400Y-24200D01*
X37400Y-24200D02*
X40750Y-24200D01*
X40750Y-22100D02*
X40750Y-24200D01*
X40750Y-22100D02*
X40750Y-20000D01*
G54D12*
X39500Y-32250D02*
X40000Y-32250D01*
X40000Y-32250D02*
X40000Y-33250D01*
X40000Y-33250D02*
X39500Y-33250D01*
X39500Y-31750D02*
X43500Y-31750D01*
X43500Y-31750D02*
X43500Y-33750D01*
X43500Y-33750D02*
X39500Y-33750D01*
X39500Y-33750D02*
X39500Y-31750D01*
G54D16*
X42200Y-39300D02*
X42750Y-39300D01*
X42200Y-38300D02*
X42750Y-38300D01*
X42200Y-37300D02*
X42750Y-37300D01*
X38039Y-38300D02*
G75*
G03X38039Y-38300I-989J0D01*
G74*
G01*
X38850Y-36200D02*
X35700Y-36200D01*
X35700Y-36200D02*
X35700Y-40400D01*
X35700Y-40400D02*
X38850Y-40400D01*
X42200Y-36200D02*
X38850Y-36200D01*
X38850Y-36200D02*
X38850Y-40400D01*
X38850Y-40400D02*
X42200Y-40400D01*
X42200Y-38300D02*
X42200Y-40400D01*
X42200Y-38300D02*
X42200Y-36200D01*
X10500Y-29500D02*
X11000Y-29500D01*
X11000Y-29500D02*
X11000Y-30500D01*
X11000Y-30500D02*
X10500Y-30500D01*
X10500Y-27500D02*
X31500Y-27500D01*
X31500Y-27500D02*
X31500Y-32500D01*
X31500Y-32500D02*
X10500Y-32500D01*
X10500Y-32500D02*
X10500Y-27500D01*
X22644Y-38100D02*
X22486Y-38179D01*
X22486Y-38179D02*
X22250Y-38219D01*
X22250Y-38219D02*
X22053Y-38179D01*
X22053Y-38179D02*
X21778Y-38022D01*
X21778Y-38022D02*
X21620Y-37785D01*
X21620Y-37785D02*
X21541Y-37549D01*
X21541Y-37549D02*
X21541Y-34951D01*
X21541Y-34951D02*
X21620Y-34675D01*
X21620Y-34675D02*
X21738Y-34518D01*
X21738Y-34518D02*
X21935Y-34360D01*
X21935Y-34360D02*
X22171Y-34281D01*
X22171Y-34281D02*
X22368Y-34281D01*
X22368Y-34281D02*
X22565Y-34360D01*
X22565Y-34360D02*
X22801Y-34557D01*
X22801Y-34557D02*
X22919Y-34754D01*
X22919Y-34754D02*
X22959Y-34951D01*
X22959Y-34990D02*
X22959Y-37589D01*
X22959Y-37589D02*
X22919Y-37746D01*
X22919Y-37746D02*
X22801Y-37943D01*
X22801Y-37943D02*
X22604Y-38140D01*
X23167Y-34994D02*
X23148Y-34813D01*
X23148Y-34813D02*
X23104Y-34656D01*
X23104Y-34656D02*
X23018Y-34486D01*
X23018Y-34486D02*
X22927Y-34372D01*
X22927Y-34372D02*
X22789Y-34242D01*
X22789Y-34242D02*
X22577Y-34128D01*
X22577Y-34128D02*
X22341Y-34077D01*
X22341Y-34077D02*
X22140Y-34077D01*
X22140Y-34077D02*
X21864Y-34144D01*
X21864Y-34144D02*
X21632Y-34301D01*
X21632Y-34301D02*
X21486Y-34482D01*
X21486Y-34482D02*
X21404Y-34648D01*
X21404Y-34648D02*
X21341Y-34825D01*
X21341Y-34825D02*
X21329Y-34998D01*
X21415Y-37888D02*
X21502Y-38037D01*
X21502Y-38037D02*
X21612Y-38163D01*
X21612Y-38163D02*
X21742Y-38262D01*
X21742Y-38262D02*
X21959Y-38380D01*
X21959Y-38380D02*
X22144Y-38423D01*
X22144Y-38423D02*
X22325Y-38431D01*
X22325Y-38431D02*
X22506Y-38396D01*
X22506Y-38396D02*
X22683Y-38321D01*
X22683Y-38321D02*
X22868Y-38179D01*
X22868Y-38179D02*
X22994Y-38041D01*
X22994Y-38041D02*
X23085Y-37888D01*
X23085Y-37888D02*
X23140Y-37719D01*
X23140Y-37719D02*
X23167Y-37545D01*
X21333Y-34990D02*
X21333Y-37530D01*
X21333Y-37530D02*
X21348Y-37695D01*
X21348Y-37695D02*
X21415Y-37888D01*
X23167Y-34990D02*
X23167Y-37530D01*
G54D17*
G36*
X16652Y-38993D02*
X16666Y-38986D01*
X16695Y-38967D01*
X16737Y-38940D01*
X16786Y-38907D01*
X16835Y-38873D01*
X16876Y-38846D01*
X16905Y-38828D01*
X16917Y-38821D01*
X16923Y-38824D01*
X16947Y-38835D01*
X16981Y-38853D01*
X17000Y-38863D01*
X17032Y-38877D01*
X17047Y-38879D01*
X17050Y-38875D01*
X17061Y-38851D01*
X17079Y-38810D01*
X17103Y-38756D01*
X17130Y-38692D01*
X17159Y-38624D01*
X17188Y-38554D01*
X17216Y-38488D01*
X17240Y-38428D01*
X17260Y-38379D01*
X17273Y-38345D01*
X17277Y-38331D01*
X17276Y-38328D01*
X17260Y-38312D01*
X17233Y-38292D01*
X17174Y-38244D01*
X17115Y-38171D01*
X17080Y-38088D01*
X17068Y-37996D01*
X17078Y-37911D01*
X17112Y-37829D01*
X17169Y-37756D01*
X17238Y-37701D01*
X17319Y-37666D01*
X17410Y-37655D01*
X17497Y-37665D01*
X17581Y-37698D01*
X17654Y-37754D01*
X17685Y-37790D01*
X17728Y-37865D01*
X17753Y-37944D01*
X17755Y-37965D01*
X17752Y-38052D01*
X17726Y-38136D01*
X17679Y-38212D01*
X17615Y-38273D01*
X17607Y-38279D01*
X17577Y-38301D01*
X17557Y-38317D01*
X17542Y-38330D01*
X17653Y-38599D01*
X17671Y-38642D01*
X17702Y-38715D01*
X17729Y-38778D01*
X17750Y-38829D01*
X17765Y-38863D01*
X17772Y-38876D01*
X17773Y-38877D01*
X17782Y-38879D01*
X17803Y-38871D01*
X17840Y-38853D01*
X17865Y-38840D01*
X17894Y-38826D01*
X17907Y-38821D01*
X17918Y-38827D01*
X17945Y-38845D01*
X17985Y-38872D01*
X18033Y-38904D01*
X18079Y-38936D01*
X18121Y-38963D01*
X18152Y-38983D01*
X18167Y-38991D01*
X18169Y-38991D01*
X18183Y-38984D01*
X18207Y-38963D01*
X18243Y-38929D01*
X18295Y-38878D01*
X18303Y-38870D01*
X18346Y-38826D01*
X18380Y-38790D01*
X18404Y-38764D01*
X18412Y-38752D01*
X18412Y-38752D01*
X18404Y-38738D01*
X18385Y-38707D01*
X18357Y-38664D01*
X18323Y-38614D01*
X18234Y-38485D01*
X18283Y-38363D01*
X18298Y-38325D01*
X18317Y-38280D01*
X18331Y-38248D01*
X18338Y-38233D01*
X18352Y-38229D01*
X18385Y-38221D01*
X18433Y-38211D01*
X18491Y-38200D01*
X18546Y-38190D01*
X18596Y-38180D01*
X18632Y-38173D01*
X18648Y-38170D01*
X18652Y-38168D01*
X18655Y-38160D01*
X18658Y-38143D01*
X18659Y-38113D01*
X18659Y-38065D01*
X18659Y-37996D01*
X18659Y-37989D01*
X18659Y-37923D01*
X18658Y-37871D01*
X18656Y-37837D01*
X18654Y-37823D01*
X18653Y-37823D01*
X18638Y-37819D01*
X18603Y-37812D01*
X18553Y-37802D01*
X18494Y-37791D01*
X18490Y-37790D01*
X18431Y-37779D01*
X18381Y-37768D01*
X18347Y-37760D01*
X18332Y-37756D01*
X18329Y-37752D01*
X18317Y-37729D01*
X18300Y-37692D01*
X18280Y-37647D01*
X18261Y-37601D01*
X18244Y-37559D01*
X18233Y-37528D01*
X18230Y-37514D01*
X18230Y-37513D01*
X18239Y-37499D01*
X18259Y-37469D01*
X18288Y-37426D01*
X18322Y-37376D01*
X18325Y-37372D01*
X18359Y-37322D01*
X18387Y-37280D01*
X18405Y-37250D01*
X18412Y-37236D01*
X18412Y-37235D01*
X18401Y-37220D01*
X18375Y-37192D01*
X18339Y-37154D01*
X18295Y-37110D01*
X18281Y-37096D01*
X18232Y-37049D01*
X18199Y-37017D01*
X18178Y-37001D01*
X18168Y-36997D01*
X18167Y-36998D01*
X18152Y-37007D01*
X18121Y-37027D01*
X18078Y-37056D01*
X18027Y-37091D01*
X18023Y-37093D01*
X17974Y-37127D01*
X17932Y-37155D01*
X17902Y-37175D01*
X17889Y-37183D01*
X17887Y-37183D01*
X17867Y-37177D01*
X17831Y-37164D01*
X17788Y-37147D01*
X17741Y-37129D01*
X17699Y-37111D01*
X17668Y-37096D01*
X17653Y-37088D01*
X17653Y-37087D01*
X17647Y-37069D01*
X17639Y-37032D01*
X17628Y-36981D01*
X17616Y-36919D01*
X17615Y-36910D01*
X17603Y-36850D01*
X17594Y-36801D01*
X17587Y-36767D01*
X17583Y-36753D01*
X17575Y-36751D01*
X17546Y-36749D01*
X17501Y-36748D01*
X17448Y-36747D01*
X17391Y-36747D01*
X17336Y-36749D01*
X17289Y-36750D01*
X17255Y-36753D01*
X17241Y-36755D01*
X17241Y-36756D01*
X17235Y-36775D01*
X17227Y-36812D01*
X17217Y-36864D01*
X17205Y-36925D01*
X17203Y-36936D01*
X17192Y-36995D01*
X17182Y-37044D01*
X17174Y-37078D01*
X17171Y-37091D01*
X17165Y-37094D01*
X17141Y-37104D01*
X17101Y-37121D01*
X17052Y-37141D01*
X16937Y-37187D01*
X16797Y-37091D01*
X16784Y-37082D01*
X16734Y-37048D01*
X16692Y-37020D01*
X16663Y-37002D01*
X16651Y-36995D01*
X16650Y-36995D01*
X16636Y-37008D01*
X16609Y-37034D01*
X16571Y-37071D01*
X16526Y-37115D01*
X16494Y-37147D01*
X16455Y-37187D01*
X16431Y-37213D01*
X16417Y-37230D01*
X16412Y-37240D01*
X16414Y-37247D01*
X16423Y-37262D01*
X16443Y-37292D01*
X16472Y-37335D01*
X16506Y-37385D01*
X16534Y-37426D01*
X16565Y-37473D01*
X16585Y-37507D01*
X16592Y-37523D01*
X16590Y-37530D01*
X16580Y-37558D01*
X16563Y-37599D01*
X16542Y-37649D01*
X16494Y-37760D01*
X16421Y-37774D01*
X16377Y-37782D01*
X16315Y-37794D01*
X16256Y-37805D01*
X16164Y-37823D01*
X16160Y-38162D01*
X16175Y-38168D01*
X16188Y-38171D01*
X16222Y-38179D01*
X16271Y-38189D01*
X16329Y-38199D01*
X16378Y-38209D01*
X16427Y-38218D01*
X16463Y-38225D01*
X16478Y-38228D01*
X16482Y-38233D01*
X16495Y-38257D01*
X16512Y-38295D01*
X16532Y-38341D01*
X16552Y-38389D01*
X16569Y-38432D01*
X16581Y-38466D01*
X16586Y-38483D01*
X16579Y-38496D01*
X16560Y-38525D01*
X16533Y-38566D01*
X16499Y-38615D01*
X16466Y-38664D01*
X16438Y-38706D01*
X16418Y-38737D01*
X16410Y-38750D01*
X16414Y-38760D01*
X16433Y-38783D01*
X16470Y-38822D01*
X16525Y-38876D01*
X16534Y-38885D01*
X16578Y-38927D01*
X16615Y-38961D01*
X16641Y-38984D01*
X16652Y-38993D01*
X16652Y-38993D01*
G37*
X16652Y-38993D02*
X16666Y-38986D01*
X16695Y-38967D01*
X16737Y-38940D01*
X16786Y-38907D01*
X16835Y-38873D01*
X16876Y-38846D01*
X16905Y-38828D01*
X16917Y-38821D01*
X16923Y-38824D01*
X16947Y-38835D01*
X16981Y-38853D01*
X17000Y-38863D01*
X17032Y-38877D01*
X17047Y-38879D01*
X17050Y-38875D01*
X17061Y-38851D01*
X17079Y-38810D01*
X17103Y-38756D01*
X17130Y-38692D01*
X17159Y-38624D01*
X17188Y-38554D01*
X17216Y-38488D01*
X17240Y-38428D01*
X17260Y-38379D01*
X17273Y-38345D01*
X17277Y-38331D01*
X17276Y-38328D01*
X17260Y-38312D01*
X17233Y-38292D01*
X17174Y-38244D01*
X17115Y-38171D01*
X17080Y-38088D01*
X17068Y-37996D01*
X17078Y-37911D01*
X17112Y-37829D01*
X17169Y-37756D01*
X17238Y-37701D01*
X17319Y-37666D01*
X17410Y-37655D01*
X17497Y-37665D01*
X17581Y-37698D01*
X17654Y-37754D01*
X17685Y-37790D01*
X17728Y-37865D01*
X17753Y-37944D01*
X17755Y-37965D01*
X17752Y-38052D01*
X17726Y-38136D01*
X17679Y-38212D01*
X17615Y-38273D01*
X17607Y-38279D01*
X17577Y-38301D01*
X17557Y-38317D01*
X17542Y-38330D01*
X17653Y-38599D01*
X17671Y-38642D01*
X17702Y-38715D01*
X17729Y-38778D01*
X17750Y-38829D01*
X17765Y-38863D01*
X17772Y-38876D01*
X17773Y-38877D01*
X17782Y-38879D01*
X17803Y-38871D01*
X17840Y-38853D01*
X17865Y-38840D01*
X17894Y-38826D01*
X17907Y-38821D01*
X17918Y-38827D01*
X17945Y-38845D01*
X17985Y-38872D01*
X18033Y-38904D01*
X18079Y-38936D01*
X18121Y-38963D01*
X18152Y-38983D01*
X18167Y-38991D01*
X18169Y-38991D01*
X18183Y-38984D01*
X18207Y-38963D01*
X18243Y-38929D01*
X18295Y-38878D01*
X18303Y-38870D01*
X18346Y-38826D01*
X18380Y-38790D01*
X18404Y-38764D01*
X18412Y-38752D01*
X18412Y-38752D01*
X18404Y-38738D01*
X18385Y-38707D01*
X18357Y-38664D01*
X18323Y-38614D01*
X18234Y-38485D01*
X18283Y-38363D01*
X18298Y-38325D01*
X18317Y-38280D01*
X18331Y-38248D01*
X18338Y-38233D01*
X18352Y-38229D01*
X18385Y-38221D01*
X18433Y-38211D01*
X18491Y-38200D01*
X18546Y-38190D01*
X18596Y-38180D01*
X18632Y-38173D01*
X18648Y-38170D01*
X18652Y-38168D01*
X18655Y-38160D01*
X18658Y-38143D01*
X18659Y-38113D01*
X18659Y-38065D01*
X18659Y-37996D01*
X18659Y-37989D01*
X18659Y-37923D01*
X18658Y-37871D01*
X18656Y-37837D01*
X18654Y-37823D01*
X18653Y-37823D01*
X18638Y-37819D01*
X18603Y-37812D01*
X18553Y-37802D01*
X18494Y-37791D01*
X18490Y-37790D01*
X18431Y-37779D01*
X18381Y-37768D01*
X18347Y-37760D01*
X18332Y-37756D01*
X18329Y-37752D01*
X18317Y-37729D01*
X18300Y-37692D01*
X18280Y-37647D01*
X18261Y-37601D01*
X18244Y-37559D01*
X18233Y-37528D01*
X18230Y-37514D01*
X18230Y-37513D01*
X18239Y-37499D01*
X18259Y-37469D01*
X18288Y-37426D01*
X18322Y-37376D01*
X18325Y-37372D01*
X18359Y-37322D01*
X18387Y-37280D01*
X18405Y-37250D01*
X18412Y-37236D01*
X18412Y-37235D01*
X18401Y-37220D01*
X18375Y-37192D01*
X18339Y-37154D01*
X18295Y-37110D01*
X18281Y-37096D01*
X18232Y-37049D01*
X18199Y-37017D01*
X18178Y-37001D01*
X18168Y-36997D01*
X18167Y-36998D01*
X18152Y-37007D01*
X18121Y-37027D01*
X18078Y-37056D01*
X18027Y-37091D01*
X18023Y-37093D01*
X17974Y-37127D01*
X17932Y-37155D01*
X17902Y-37175D01*
X17889Y-37183D01*
X17887Y-37183D01*
X17867Y-37177D01*
X17831Y-37164D01*
X17788Y-37147D01*
X17741Y-37129D01*
X17699Y-37111D01*
X17668Y-37096D01*
X17653Y-37088D01*
X17653Y-37087D01*
X17647Y-37069D01*
X17639Y-37032D01*
X17628Y-36981D01*
X17616Y-36919D01*
X17615Y-36910D01*
X17603Y-36850D01*
X17594Y-36801D01*
X17587Y-36767D01*
X17583Y-36753D01*
X17575Y-36751D01*
X17546Y-36749D01*
X17501Y-36748D01*
X17448Y-36747D01*
X17391Y-36747D01*
X17336Y-36749D01*
X17289Y-36750D01*
X17255Y-36753D01*
X17241Y-36755D01*
X17241Y-36756D01*
X17235Y-36775D01*
X17227Y-36812D01*
X17217Y-36864D01*
X17205Y-36925D01*
X17203Y-36936D01*
X17192Y-36995D01*
X17182Y-37044D01*
X17174Y-37078D01*
X17171Y-37091D01*
X17165Y-37094D01*
X17141Y-37104D01*
X17101Y-37121D01*
X17052Y-37141D01*
X16937Y-37187D01*
X16797Y-37091D01*
X16784Y-37082D01*
X16734Y-37048D01*
X16692Y-37020D01*
X16663Y-37002D01*
X16651Y-36995D01*
X16650Y-36995D01*
X16636Y-37008D01*
X16609Y-37034D01*
X16571Y-37071D01*
X16526Y-37115D01*
X16494Y-37147D01*
X16455Y-37187D01*
X16431Y-37213D01*
X16417Y-37230D01*
X16412Y-37240D01*
X16414Y-37247D01*
X16423Y-37262D01*
X16443Y-37292D01*
X16472Y-37335D01*
X16506Y-37385D01*
X16534Y-37426D01*
X16565Y-37473D01*
X16585Y-37507D01*
X16592Y-37523D01*
X16590Y-37530D01*
X16580Y-37558D01*
X16563Y-37599D01*
X16542Y-37649D01*
X16494Y-37760D01*
X16421Y-37774D01*
X16377Y-37782D01*
X16315Y-37794D01*
X16256Y-37805D01*
X16164Y-37823D01*
X16160Y-38162D01*
X16175Y-38168D01*
X16188Y-38171D01*
X16222Y-38179D01*
X16271Y-38189D01*
X16329Y-38199D01*
X16378Y-38209D01*
X16427Y-38218D01*
X16463Y-38225D01*
X16478Y-38228D01*
X16482Y-38233D01*
X16495Y-38257D01*
X16512Y-38295D01*
X16532Y-38341D01*
X16552Y-38389D01*
X16569Y-38432D01*
X16581Y-38466D01*
X16586Y-38483D01*
X16579Y-38496D01*
X16560Y-38525D01*
X16533Y-38566D01*
X16499Y-38615D01*
X16466Y-38664D01*
X16438Y-38706D01*
X16418Y-38737D01*
X16410Y-38750D01*
X16414Y-38760D01*
X16433Y-38783D01*
X16470Y-38822D01*
X16525Y-38876D01*
X16534Y-38885D01*
X16578Y-38927D01*
X16615Y-38961D01*
X16641Y-38984D01*
X16652Y-38993D01*
G54D16*
X35750Y-26000D02*
X43750Y-26000D01*
X43750Y-28000D02*
X35750Y-28000D01*
X35750Y-28000D02*
X35750Y-26000D01*
X35750Y-26500D02*
X36250Y-26500D01*
X36250Y-26500D02*
X36250Y-27500D01*
X36250Y-27500D02*
X35750Y-27500D01*
X43750Y-26000D02*
X43750Y-28000D01*
X33144Y-34400D02*
X33544Y-34400D01*
X31144Y-34400D02*
X30744Y-34400D01*
X33144Y-34900D02*
X31144Y-34900D01*
X31144Y-34900D02*
X31144Y-33900D01*
X31144Y-33900D02*
X33144Y-33900D01*
X33144Y-33900D02*
X33144Y-34900D01*
X36775Y-46319D02*
X36775Y-46719D01*
X36775Y-44319D02*
X36775Y-43919D01*
X36275Y-46319D02*
X36275Y-44319D01*
X36275Y-44319D02*
X37275Y-44319D01*
X37275Y-44319D02*
X37275Y-46319D01*
X37275Y-46319D02*
X36275Y-46319D01*
X42925Y-43469D02*
X42925Y-43869D01*
X42925Y-41469D02*
X42925Y-41069D01*
X42425Y-43469D02*
X42425Y-41469D01*
X42425Y-41469D02*
X43425Y-41469D01*
X43425Y-41469D02*
X43425Y-43469D01*
X43425Y-43469D02*
X42425Y-43469D01*
G54D11*
X43333Y-23742D02*
X43314Y-23761D01*
X43257Y-23780D01*
X43219Y-23780D01*
X43161Y-23761D01*
X43123Y-23723D01*
X43104Y-23685D01*
X43085Y-23609D01*
X43085Y-23552D01*
X43104Y-23476D01*
X43123Y-23438D01*
X43161Y-23400D01*
X43219Y-23380D01*
X43257Y-23380D01*
X43314Y-23400D01*
X43333Y-23419D01*
X43714Y-23780D02*
X43485Y-23780D01*
X43600Y-23780D02*
X43600Y-23380D01*
X43561Y-23438D01*
X43523Y-23476D01*
X43485Y-23495D01*
X18383Y-35492D02*
X18364Y-35511D01*
X18307Y-35530D01*
X18269Y-35530D01*
X18211Y-35511D01*
X18173Y-35473D01*
X18154Y-35435D01*
X18135Y-35359D01*
X18135Y-35302D01*
X18154Y-35226D01*
X18173Y-35188D01*
X18211Y-35150D01*
X18269Y-35130D01*
X18307Y-35130D01*
X18364Y-35150D01*
X18383Y-35169D01*
X18535Y-35169D02*
X18554Y-35150D01*
X18592Y-35130D01*
X18688Y-35130D01*
X18726Y-35150D01*
X18745Y-35169D01*
X18764Y-35207D01*
X18764Y-35245D01*
X18745Y-35302D01*
X18516Y-35530D01*
X18764Y-35530D01*
X42983Y-20342D02*
X42964Y-20361D01*
X42907Y-20380D01*
X42869Y-20380D01*
X42811Y-20361D01*
X42773Y-20323D01*
X42754Y-20285D01*
X42735Y-20209D01*
X42735Y-20152D01*
X42754Y-20076D01*
X42773Y-20038D01*
X42811Y-20000D01*
X42869Y-19980D01*
X42907Y-19980D01*
X42964Y-20000D01*
X42983Y-20019D01*
X43116Y-19980D02*
X43364Y-19980D01*
X43230Y-20133D01*
X43288Y-20133D01*
X43326Y-20152D01*
X43345Y-20171D01*
X43364Y-20209D01*
X43364Y-20304D01*
X43345Y-20342D01*
X43326Y-20361D01*
X43288Y-20380D01*
X43173Y-20380D01*
X43135Y-20361D01*
X43116Y-20342D01*
X18483Y-36642D02*
X18464Y-36661D01*
X18407Y-36680D01*
X18369Y-36680D01*
X18311Y-36661D01*
X18273Y-36623D01*
X18254Y-36585D01*
X18235Y-36509D01*
X18235Y-36452D01*
X18254Y-36376D01*
X18273Y-36338D01*
X18311Y-36300D01*
X18369Y-36280D01*
X18407Y-36280D01*
X18464Y-36300D01*
X18483Y-36319D01*
X18826Y-36414D02*
X18826Y-36680D01*
X18730Y-36261D02*
X18635Y-36547D01*
X18883Y-36547D01*
X43383Y-35492D02*
X43364Y-35511D01*
X43307Y-35530D01*
X43269Y-35530D01*
X43211Y-35511D01*
X43173Y-35473D01*
X43154Y-35435D01*
X43135Y-35359D01*
X43135Y-35302D01*
X43154Y-35226D01*
X43173Y-35188D01*
X43211Y-35150D01*
X43269Y-35130D01*
X43307Y-35130D01*
X43364Y-35150D01*
X43383Y-35169D01*
X43745Y-35130D02*
X43554Y-35130D01*
X43535Y-35321D01*
X43554Y-35302D01*
X43592Y-35283D01*
X43688Y-35283D01*
X43726Y-35302D01*
X43745Y-35321D01*
X43764Y-35359D01*
X43764Y-35454D01*
X43745Y-35492D01*
X43726Y-35511D01*
X43688Y-35530D01*
X43592Y-35530D01*
X43554Y-35511D01*
X43535Y-35492D01*
X42733Y-45692D02*
X42714Y-45711D01*
X42657Y-45730D01*
X42619Y-45730D01*
X42561Y-45711D01*
X42523Y-45673D01*
X42504Y-45635D01*
X42485Y-45559D01*
X42485Y-45502D01*
X42504Y-45426D01*
X42523Y-45388D01*
X42561Y-45350D01*
X42619Y-45330D01*
X42657Y-45330D01*
X42714Y-45350D01*
X42733Y-45369D01*
X43076Y-45330D02*
X43000Y-45330D01*
X42961Y-45350D01*
X42942Y-45369D01*
X42904Y-45426D01*
X42885Y-45502D01*
X42885Y-45654D01*
X42904Y-45692D01*
X42923Y-45711D01*
X42961Y-45730D01*
X43038Y-45730D01*
X43076Y-45711D01*
X43095Y-45692D01*
X43114Y-45654D01*
X43114Y-45559D01*
X43095Y-45521D01*
X43076Y-45502D01*
X43038Y-45483D01*
X42961Y-45483D01*
X42923Y-45502D01*
X42904Y-45521D01*
X42885Y-45559D01*
X35683Y-29892D02*
X35664Y-29911D01*
X35607Y-29930D01*
X35569Y-29930D01*
X35511Y-29911D01*
X35473Y-29873D01*
X35454Y-29835D01*
X35435Y-29759D01*
X35435Y-29702D01*
X35454Y-29626D01*
X35473Y-29588D01*
X35511Y-29550D01*
X35569Y-29530D01*
X35607Y-29530D01*
X35664Y-29550D01*
X35683Y-29569D01*
X35816Y-29530D02*
X36083Y-29530D01*
X35911Y-29930D01*
X42933Y-24842D02*
X42914Y-24861D01*
X42857Y-24880D01*
X42819Y-24880D01*
X42761Y-24861D01*
X42723Y-24823D01*
X42704Y-24785D01*
X42685Y-24709D01*
X42685Y-24652D01*
X42704Y-24576D01*
X42723Y-24538D01*
X42761Y-24500D01*
X42819Y-24480D01*
X42857Y-24480D01*
X42914Y-24500D01*
X42933Y-24519D01*
X43161Y-24652D02*
X43123Y-24633D01*
X43104Y-24614D01*
X43085Y-24576D01*
X43085Y-24557D01*
X43104Y-24519D01*
X43123Y-24500D01*
X43161Y-24480D01*
X43238Y-24480D01*
X43276Y-24500D01*
X43295Y-24519D01*
X43314Y-24557D01*
X43314Y-24576D01*
X43295Y-24614D01*
X43276Y-24633D01*
X43238Y-24652D01*
X43161Y-24652D01*
X43123Y-24671D01*
X43104Y-24690D01*
X43085Y-24728D01*
X43085Y-24804D01*
X43104Y-24842D01*
X43123Y-24861D01*
X43161Y-24880D01*
X43238Y-24880D01*
X43276Y-24861D01*
X43295Y-24842D01*
X43314Y-24804D01*
X43314Y-24728D01*
X43295Y-24690D01*
X43276Y-24671D01*
X43238Y-24652D01*
X37733Y-24892D02*
X37714Y-24911D01*
X37657Y-24930D01*
X37619Y-24930D01*
X37561Y-24911D01*
X37523Y-24873D01*
X37504Y-24835D01*
X37485Y-24759D01*
X37485Y-24702D01*
X37504Y-24626D01*
X37523Y-24588D01*
X37561Y-24550D01*
X37619Y-24530D01*
X37657Y-24530D01*
X37714Y-24550D01*
X37733Y-24569D01*
X37923Y-24930D02*
X38000Y-24930D01*
X38038Y-24911D01*
X38057Y-24892D01*
X38095Y-24835D01*
X38114Y-24759D01*
X38114Y-24607D01*
X38095Y-24569D01*
X38076Y-24550D01*
X38038Y-24530D01*
X37961Y-24530D01*
X37923Y-24550D01*
X37904Y-24569D01*
X37885Y-24607D01*
X37885Y-24702D01*
X37904Y-24740D01*
X37923Y-24759D01*
X37961Y-24778D01*
X38038Y-24778D01*
X38076Y-24759D01*
X38095Y-24740D01*
X38114Y-24702D01*
X39592Y-35742D02*
X39573Y-35761D01*
X39516Y-35780D01*
X39478Y-35780D01*
X39421Y-35761D01*
X39383Y-35723D01*
X39364Y-35685D01*
X39345Y-35609D01*
X39345Y-35552D01*
X39364Y-35476D01*
X39383Y-35438D01*
X39421Y-35400D01*
X39478Y-35380D01*
X39516Y-35380D01*
X39573Y-35400D01*
X39592Y-35419D01*
X39973Y-35780D02*
X39745Y-35780D01*
X39859Y-35780D02*
X39859Y-35380D01*
X39821Y-35438D01*
X39783Y-35476D01*
X39745Y-35495D01*
X40221Y-35380D02*
X40259Y-35380D01*
X40297Y-35400D01*
X40316Y-35419D01*
X40335Y-35457D01*
X40354Y-35533D01*
X40354Y-35628D01*
X40335Y-35704D01*
X40316Y-35742D01*
X40297Y-35761D01*
X40259Y-35780D01*
X40221Y-35780D01*
X40183Y-35761D01*
X40164Y-35742D01*
X40145Y-35704D01*
X40126Y-35628D01*
X40126Y-35533D01*
X40145Y-35457D01*
X40164Y-35419D01*
X40183Y-35400D01*
X40221Y-35380D01*
X22392Y-26192D02*
X22373Y-26211D01*
X22316Y-26230D01*
X22278Y-26230D01*
X22221Y-26211D01*
X22183Y-26173D01*
X22164Y-26135D01*
X22145Y-26059D01*
X22145Y-26002D01*
X22164Y-25926D01*
X22183Y-25888D01*
X22221Y-25850D01*
X22278Y-25830D01*
X22316Y-25830D01*
X22373Y-25850D01*
X22392Y-25869D01*
X22773Y-26230D02*
X22545Y-26230D01*
X22659Y-26230D02*
X22659Y-25830D01*
X22621Y-25888D01*
X22583Y-25926D01*
X22545Y-25945D01*
X23154Y-26230D02*
X22926Y-26230D01*
X23040Y-26230D02*
X23040Y-25830D01*
X23002Y-25888D01*
X22964Y-25926D01*
X22926Y-25945D01*
X18092Y-34242D02*
X18073Y-34261D01*
X18016Y-34280D01*
X17978Y-34280D01*
X17921Y-34261D01*
X17883Y-34223D01*
X17864Y-34185D01*
X17845Y-34109D01*
X17845Y-34052D01*
X17864Y-33976D01*
X17883Y-33938D01*
X17921Y-33900D01*
X17978Y-33880D01*
X18016Y-33880D01*
X18073Y-33900D01*
X18092Y-33919D01*
X18473Y-34280D02*
X18245Y-34280D01*
X18359Y-34280D02*
X18359Y-33880D01*
X18321Y-33938D01*
X18283Y-33976D01*
X18245Y-33995D01*
X18626Y-33919D02*
X18645Y-33900D01*
X18683Y-33880D01*
X18778Y-33880D01*
X18816Y-33900D01*
X18835Y-33919D01*
X18854Y-33957D01*
X18854Y-33995D01*
X18835Y-34052D01*
X18607Y-34280D01*
X18854Y-34280D01*
X43504Y-28730D02*
X43504Y-28330D01*
X43600Y-28330D01*
X43657Y-28350D01*
X43695Y-28388D01*
X43714Y-28426D01*
X43733Y-28502D01*
X43733Y-28559D01*
X43714Y-28635D01*
X43695Y-28673D01*
X43657Y-28711D01*
X43600Y-28730D01*
X43504Y-28730D01*
X44114Y-28730D02*
X43885Y-28730D01*
X44000Y-28730D02*
X44000Y-28330D01*
X43961Y-28388D01*
X43923Y-28426D01*
X43885Y-28445D01*
X43997Y-29078D02*
X44302Y-29078D01*
X44164Y-26555D02*
X44164Y-26251D01*
X44316Y-26403D02*
X44012Y-26403D01*
X35404Y-35880D02*
X35404Y-35480D01*
X35500Y-35480D01*
X35557Y-35500D01*
X35595Y-35538D01*
X35614Y-35576D01*
X35633Y-35652D01*
X35633Y-35709D01*
X35614Y-35785D01*
X35595Y-35823D01*
X35557Y-35861D01*
X35500Y-35880D01*
X35404Y-35880D01*
X35785Y-35519D02*
X35804Y-35500D01*
X35842Y-35480D01*
X35938Y-35480D01*
X35976Y-35500D01*
X35995Y-35519D01*
X36014Y-35557D01*
X36014Y-35595D01*
X35995Y-35652D01*
X35766Y-35880D01*
X36014Y-35880D01*
X36797Y-35878D02*
X37102Y-35878D01*
X37697Y-33678D02*
X38002Y-33678D01*
X37850Y-33830D02*
X37850Y-33526D01*
X33787Y-26541D02*
X33787Y-26141D01*
X33787Y-26331D02*
X34016Y-26331D01*
X34016Y-26541D02*
X34016Y-26141D01*
X34416Y-26541D02*
X34187Y-26541D01*
X34302Y-26541D02*
X34302Y-26141D01*
X34263Y-26198D01*
X34225Y-26236D01*
X34187Y-26255D01*
X13787Y-20541D02*
X13787Y-20141D01*
X13787Y-20331D02*
X14016Y-20331D01*
X14016Y-20541D02*
X14016Y-20141D01*
X14187Y-20179D02*
X14206Y-20160D01*
X14244Y-20141D01*
X14340Y-20141D01*
X14378Y-20160D01*
X14397Y-20179D01*
X14416Y-20217D01*
X14416Y-20255D01*
X14397Y-20312D01*
X14168Y-20541D01*
X14416Y-20541D01*
X33787Y-37541D02*
X33787Y-37141D01*
X33787Y-37331D02*
X34016Y-37331D01*
X34016Y-37541D02*
X34016Y-37141D01*
X34168Y-37141D02*
X34416Y-37141D01*
X34282Y-37293D01*
X34340Y-37293D01*
X34378Y-37312D01*
X34397Y-37331D01*
X34416Y-37369D01*
X34416Y-37465D01*
X34397Y-37503D01*
X34378Y-37522D01*
X34340Y-37541D01*
X34225Y-37541D01*
X34187Y-37522D01*
X34168Y-37503D01*
X13287Y-39541D02*
X13287Y-39141D01*
X13287Y-39331D02*
X13516Y-39331D01*
X13516Y-39541D02*
X13516Y-39141D01*
X13878Y-39274D02*
X13878Y-39541D01*
X13782Y-39122D02*
X13687Y-39407D01*
X13935Y-39407D01*
X19787Y-42041D02*
X19787Y-41641D01*
X19787Y-41831D02*
X20016Y-41831D01*
X20016Y-42041D02*
X20016Y-41641D01*
X20397Y-41641D02*
X20206Y-41641D01*
X20187Y-41831D01*
X20206Y-41812D01*
X20244Y-41793D01*
X20340Y-41793D01*
X20378Y-41812D01*
X20397Y-41831D01*
X20416Y-41869D01*
X20416Y-41965D01*
X20397Y-42003D01*
X20378Y-42022D01*
X20340Y-42041D01*
X20244Y-42041D01*
X20206Y-42022D01*
X20187Y-42003D01*
X39630Y-11930D02*
X39630Y-11530D01*
X39630Y-11721D02*
X39858Y-11721D01*
X39858Y-11930D02*
X39858Y-11530D01*
X40220Y-11530D02*
X40144Y-11530D01*
X40106Y-11550D01*
X40087Y-11569D01*
X40049Y-11626D01*
X40030Y-11702D01*
X40030Y-11854D01*
X40049Y-11892D01*
X40068Y-11911D01*
X40106Y-11930D01*
X40182Y-11930D01*
X40220Y-11911D01*
X40239Y-11892D01*
X40258Y-11854D01*
X40258Y-11759D01*
X40239Y-11721D01*
X40220Y-11702D01*
X40182Y-11683D01*
X40106Y-11683D01*
X40068Y-11702D01*
X40049Y-11721D01*
X40030Y-11759D01*
X19945Y-11930D02*
X19945Y-11530D01*
X19945Y-11721D02*
X20173Y-11721D01*
X20173Y-11930D02*
X20173Y-11530D01*
X20326Y-11530D02*
X20592Y-11530D01*
X20421Y-11930D01*
X39630Y-48151D02*
X39630Y-47751D01*
X39630Y-47941D02*
X39858Y-47941D01*
X39858Y-48151D02*
X39858Y-47751D01*
X40106Y-47922D02*
X40068Y-47903D01*
X40049Y-47884D01*
X40030Y-47846D01*
X40030Y-47827D01*
X40049Y-47789D01*
X40068Y-47770D01*
X40106Y-47751D01*
X40182Y-47751D01*
X40220Y-47770D01*
X40239Y-47789D01*
X40258Y-47827D01*
X40258Y-47846D01*
X40239Y-47884D01*
X40220Y-47903D01*
X40182Y-47922D01*
X40106Y-47922D01*
X40068Y-47941D01*
X40049Y-47960D01*
X40030Y-47999D01*
X40030Y-48075D01*
X40049Y-48113D01*
X40068Y-48132D01*
X40106Y-48151D01*
X40182Y-48151D01*
X40220Y-48132D01*
X40239Y-48113D01*
X40258Y-48075D01*
X40258Y-47999D01*
X40239Y-47960D01*
X40220Y-47941D01*
X40182Y-47922D01*
X19945Y-48151D02*
X19945Y-47751D01*
X19945Y-47941D02*
X20173Y-47941D01*
X20173Y-48151D02*
X20173Y-47751D01*
X20383Y-48151D02*
X20459Y-48151D01*
X20497Y-48132D01*
X20516Y-48113D01*
X20554Y-48056D01*
X20573Y-47980D01*
X20573Y-47827D01*
X20554Y-47789D01*
X20535Y-47770D01*
X20497Y-47751D01*
X20421Y-47751D01*
X20383Y-47770D01*
X20364Y-47789D01*
X20345Y-47827D01*
X20345Y-47922D01*
X20364Y-47960D01*
X20383Y-47980D01*
X20421Y-47999D01*
X20497Y-47999D01*
X20535Y-47980D01*
X20554Y-47960D01*
X20573Y-47922D01*
X39597Y-42041D02*
X39597Y-41641D01*
X39597Y-41831D02*
X39825Y-41831D01*
X39825Y-42041D02*
X39825Y-41641D01*
X40225Y-42041D02*
X39997Y-42041D01*
X40111Y-42041D02*
X40111Y-41641D01*
X40073Y-41698D01*
X40035Y-41736D01*
X39997Y-41755D01*
X40473Y-41641D02*
X40511Y-41641D01*
X40549Y-41660D01*
X40568Y-41679D01*
X40587Y-41717D01*
X40606Y-41793D01*
X40606Y-41888D01*
X40587Y-41965D01*
X40568Y-42003D01*
X40549Y-42022D01*
X40511Y-42041D01*
X40473Y-42041D01*
X40435Y-42022D01*
X40416Y-42003D01*
X40397Y-41965D01*
X40378Y-41888D01*
X40378Y-41793D01*
X40397Y-41717D01*
X40416Y-41679D01*
X40435Y-41660D01*
X40473Y-41641D01*
X19597Y-18041D02*
X19597Y-17641D01*
X19597Y-17831D02*
X19825Y-17831D01*
X19825Y-18041D02*
X19825Y-17641D01*
X20225Y-18041D02*
X19997Y-18041D01*
X20111Y-18041D02*
X20111Y-17641D01*
X20073Y-17698D01*
X20035Y-17736D01*
X19997Y-17755D01*
X20606Y-18041D02*
X20378Y-18041D01*
X20492Y-18041D02*
X20492Y-17641D01*
X20454Y-17698D01*
X20416Y-17736D01*
X20378Y-17755D01*
X39597Y-18041D02*
X39597Y-17641D01*
X39597Y-17831D02*
X39825Y-17831D01*
X39825Y-18041D02*
X39825Y-17641D01*
X40225Y-18041D02*
X39997Y-18041D01*
X40111Y-18041D02*
X40111Y-17641D01*
X40073Y-17698D01*
X40035Y-17736D01*
X39997Y-17755D01*
X40378Y-17679D02*
X40397Y-17660D01*
X40435Y-17641D01*
X40530Y-17641D01*
X40568Y-17660D01*
X40587Y-17679D01*
X40606Y-17717D01*
X40606Y-17755D01*
X40587Y-17812D01*
X40359Y-18041D01*
X40606Y-18041D01*
X48866Y-35780D02*
X48866Y-36066D01*
X48847Y-36123D01*
X48809Y-36161D01*
X48752Y-36180D01*
X48714Y-36180D01*
X49266Y-36180D02*
X49038Y-36180D01*
X49152Y-36180D02*
X49152Y-35780D01*
X49114Y-35838D01*
X49076Y-35876D01*
X49038Y-35895D01*
X35466Y-33430D02*
X35466Y-33716D01*
X35447Y-33773D01*
X35409Y-33811D01*
X35352Y-33830D01*
X35314Y-33830D01*
X35638Y-33469D02*
X35657Y-33450D01*
X35695Y-33430D01*
X35790Y-33430D01*
X35828Y-33450D01*
X35847Y-33469D01*
X35866Y-33507D01*
X35866Y-33545D01*
X35847Y-33602D01*
X35619Y-33830D01*
X35866Y-33830D01*
X32045Y-32080D02*
X32045Y-31680D01*
X32273Y-32080D01*
X32273Y-31680D01*
X32673Y-32080D02*
X32445Y-32080D01*
X32559Y-32080D02*
X32559Y-31680D01*
X32521Y-31738D01*
X32483Y-31776D01*
X32445Y-31795D01*
X15995Y-20680D02*
X15995Y-20280D01*
X16223Y-20680D01*
X16223Y-20280D01*
X16395Y-20319D02*
X16414Y-20300D01*
X16452Y-20280D01*
X16547Y-20280D01*
X16585Y-20300D01*
X16604Y-20319D01*
X16623Y-20357D01*
X16623Y-20395D01*
X16604Y-20452D01*
X16376Y-20680D01*
X16623Y-20680D01*
X33195Y-21580D02*
X33195Y-21180D01*
X33423Y-21580D01*
X33423Y-21180D01*
X33576Y-21180D02*
X33823Y-21180D01*
X33690Y-21333D01*
X33747Y-21333D01*
X33785Y-21352D01*
X33804Y-21371D01*
X33823Y-21409D01*
X33823Y-21504D01*
X33804Y-21542D01*
X33785Y-21561D01*
X33747Y-21580D01*
X33633Y-21580D01*
X33595Y-21561D01*
X33576Y-21542D01*
X34645Y-40530D02*
X34645Y-40130D01*
X34873Y-40530D01*
X34873Y-40130D01*
X35235Y-40264D02*
X35235Y-40530D01*
X35140Y-40111D02*
X35045Y-40397D01*
X35292Y-40397D01*
X19695Y-40230D02*
X19695Y-39830D01*
X19923Y-40230D01*
X19923Y-39830D01*
X20304Y-39830D02*
X20114Y-39830D01*
X20095Y-40021D01*
X20114Y-40002D01*
X20152Y-39983D01*
X20247Y-39983D01*
X20285Y-40002D01*
X20304Y-40021D01*
X20323Y-40059D01*
X20323Y-40154D01*
X20304Y-40192D01*
X20285Y-40211D01*
X20247Y-40230D01*
X20152Y-40230D01*
X20114Y-40211D01*
X20095Y-40192D01*
X12195Y-49580D02*
X12195Y-49180D01*
X12423Y-49580D01*
X12423Y-49180D01*
X12785Y-49180D02*
X12709Y-49180D01*
X12671Y-49200D01*
X12652Y-49219D01*
X12614Y-49276D01*
X12595Y-49352D01*
X12595Y-49504D01*
X12614Y-49542D01*
X12633Y-49561D01*
X12671Y-49580D01*
X12747Y-49580D01*
X12785Y-49561D01*
X12804Y-49542D01*
X12823Y-49504D01*
X12823Y-49409D01*
X12804Y-49371D01*
X12785Y-49352D01*
X12747Y-49333D01*
X12671Y-49333D01*
X12633Y-49352D01*
X12614Y-49371D01*
X12595Y-49409D01*
X27195Y-49530D02*
X27195Y-49130D01*
X27423Y-49530D01*
X27423Y-49130D01*
X27576Y-49130D02*
X27842Y-49130D01*
X27671Y-49530D01*
X45495Y-34580D02*
X45495Y-34180D01*
X45723Y-34580D01*
X45723Y-34180D01*
X45971Y-34352D02*
X45933Y-34333D01*
X45914Y-34314D01*
X45895Y-34276D01*
X45895Y-34257D01*
X45914Y-34219D01*
X45933Y-34200D01*
X45971Y-34180D01*
X46047Y-34180D01*
X46085Y-34200D01*
X46104Y-34219D01*
X46123Y-34257D01*
X46123Y-34276D01*
X46104Y-34314D01*
X46085Y-34333D01*
X46047Y-34352D01*
X45971Y-34352D01*
X45933Y-34371D01*
X45914Y-34390D01*
X45895Y-34428D01*
X45895Y-34504D01*
X45914Y-34542D01*
X45933Y-34561D01*
X45971Y-34580D01*
X46047Y-34580D01*
X46085Y-34561D01*
X46104Y-34542D01*
X46123Y-34504D01*
X46123Y-34428D01*
X46104Y-34390D01*
X46085Y-34371D01*
X46047Y-34352D01*
X48645Y-22880D02*
X48645Y-22480D01*
X48873Y-22880D01*
X48873Y-22480D01*
X49083Y-22880D02*
X49159Y-22880D01*
X49197Y-22861D01*
X49216Y-22842D01*
X49254Y-22785D01*
X49273Y-22709D01*
X49273Y-22557D01*
X49254Y-22519D01*
X49235Y-22500D01*
X49197Y-22480D01*
X49121Y-22480D01*
X49083Y-22500D01*
X49064Y-22519D01*
X49045Y-22557D01*
X49045Y-22652D01*
X49064Y-22690D01*
X49083Y-22709D01*
X49121Y-22728D01*
X49197Y-22728D01*
X49235Y-22709D01*
X49254Y-22690D01*
X49273Y-22652D01*
X31904Y-49530D02*
X31904Y-49130D01*
X32133Y-49530D01*
X32133Y-49130D01*
X32533Y-49530D02*
X32304Y-49530D01*
X32419Y-49530D02*
X32419Y-49130D01*
X32380Y-49188D01*
X32342Y-49226D01*
X32304Y-49245D01*
X32780Y-49130D02*
X32819Y-49130D01*
X32857Y-49150D01*
X32876Y-49169D01*
X32895Y-49207D01*
X32914Y-49283D01*
X32914Y-49378D01*
X32895Y-49454D01*
X32876Y-49492D01*
X32857Y-49511D01*
X32819Y-49530D01*
X32780Y-49530D01*
X32742Y-49511D01*
X32723Y-49492D01*
X32704Y-49454D01*
X32685Y-49378D01*
X32685Y-49283D01*
X32704Y-49207D01*
X32723Y-49169D01*
X32742Y-49150D01*
X32780Y-49130D01*
X49180Y-45495D02*
X48780Y-45495D01*
X49180Y-45266D01*
X48780Y-45266D01*
X49180Y-44866D02*
X49180Y-45095D01*
X49180Y-44980D02*
X48780Y-44980D01*
X48838Y-45019D01*
X48876Y-45057D01*
X48895Y-45095D01*
X49180Y-44485D02*
X49180Y-44714D01*
X49180Y-44599D02*
X48780Y-44599D01*
X48838Y-44638D01*
X48876Y-44676D01*
X48895Y-44714D01*
X27004Y-10830D02*
X27004Y-10430D01*
X27233Y-10830D01*
X27233Y-10430D01*
X27633Y-10830D02*
X27404Y-10830D01*
X27519Y-10830D02*
X27519Y-10430D01*
X27480Y-10488D01*
X27442Y-10526D01*
X27404Y-10545D01*
X27785Y-10469D02*
X27804Y-10450D01*
X27842Y-10430D01*
X27938Y-10430D01*
X27976Y-10450D01*
X27995Y-10469D01*
X28014Y-10507D01*
X28014Y-10545D01*
X27995Y-10602D01*
X27766Y-10830D01*
X28014Y-10830D01*
X12004Y-10830D02*
X12004Y-10430D01*
X12233Y-10830D01*
X12233Y-10430D01*
X12633Y-10830D02*
X12404Y-10830D01*
X12519Y-10830D02*
X12519Y-10430D01*
X12480Y-10488D01*
X12442Y-10526D01*
X12404Y-10545D01*
X12766Y-10430D02*
X13014Y-10430D01*
X12880Y-10583D01*
X12938Y-10583D01*
X12976Y-10602D01*
X12995Y-10621D01*
X13014Y-10659D01*
X13014Y-10754D01*
X12995Y-10792D01*
X12976Y-10811D01*
X12938Y-10830D01*
X12823Y-10830D01*
X12785Y-10811D01*
X12766Y-10792D01*
X47004Y-10880D02*
X47004Y-10480D01*
X47233Y-10880D01*
X47233Y-10480D01*
X47633Y-10880D02*
X47404Y-10880D01*
X47519Y-10880D02*
X47519Y-10480D01*
X47480Y-10538D01*
X47442Y-10576D01*
X47404Y-10595D01*
X47976Y-10614D02*
X47976Y-10880D01*
X47880Y-10461D02*
X47785Y-10747D01*
X48033Y-10747D01*
X32004Y-10830D02*
X32004Y-10430D01*
X32233Y-10830D01*
X32233Y-10430D01*
X32633Y-10830D02*
X32404Y-10830D01*
X32519Y-10830D02*
X32519Y-10430D01*
X32480Y-10488D01*
X32442Y-10526D01*
X32404Y-10545D01*
X32995Y-10430D02*
X32804Y-10430D01*
X32785Y-10621D01*
X32804Y-10602D01*
X32842Y-10583D01*
X32938Y-10583D01*
X32976Y-10602D01*
X32995Y-10621D01*
X33014Y-10659D01*
X33014Y-10754D01*
X32995Y-10792D01*
X32976Y-10811D01*
X32938Y-10830D01*
X32842Y-10830D01*
X32804Y-10811D01*
X32785Y-10792D01*
X18754Y-23930D02*
X18754Y-23530D01*
X18983Y-23930D01*
X18983Y-23530D01*
X19383Y-23930D02*
X19154Y-23930D01*
X19269Y-23930D02*
X19269Y-23530D01*
X19230Y-23588D01*
X19192Y-23626D01*
X19154Y-23645D01*
X19726Y-23530D02*
X19650Y-23530D01*
X19611Y-23550D01*
X19592Y-23569D01*
X19554Y-23626D01*
X19535Y-23702D01*
X19535Y-23854D01*
X19554Y-23892D01*
X19573Y-23911D01*
X19611Y-23930D01*
X19688Y-23930D01*
X19726Y-23911D01*
X19745Y-23892D01*
X19764Y-23854D01*
X19764Y-23759D01*
X19745Y-23721D01*
X19726Y-23702D01*
X19688Y-23683D01*
X19611Y-23683D01*
X19573Y-23702D01*
X19554Y-23721D01*
X19535Y-23759D01*
X43733Y-34580D02*
X43600Y-34390D01*
X43504Y-34580D02*
X43504Y-34180D01*
X43657Y-34180D01*
X43695Y-34200D01*
X43714Y-34219D01*
X43733Y-34257D01*
X43733Y-34314D01*
X43714Y-34352D01*
X43695Y-34371D01*
X43657Y-34390D01*
X43504Y-34390D01*
X44114Y-34580D02*
X43885Y-34580D01*
X44000Y-34580D02*
X44000Y-34180D01*
X43961Y-34238D01*
X43923Y-34276D01*
X43885Y-34295D01*
X42933Y-16330D02*
X42800Y-16140D01*
X42704Y-16330D02*
X42704Y-15930D01*
X42857Y-15930D01*
X42895Y-15950D01*
X42914Y-15969D01*
X42933Y-16007D01*
X42933Y-16064D01*
X42914Y-16102D01*
X42895Y-16121D01*
X42857Y-16140D01*
X42704Y-16140D01*
X43085Y-15969D02*
X43104Y-15950D01*
X43142Y-15930D01*
X43238Y-15930D01*
X43276Y-15950D01*
X43295Y-15969D01*
X43314Y-16007D01*
X43314Y-16045D01*
X43295Y-16102D01*
X43066Y-16330D01*
X43314Y-16330D01*
X44783Y-14880D02*
X44650Y-14690D01*
X44554Y-14880D02*
X44554Y-14480D01*
X44707Y-14480D01*
X44745Y-14500D01*
X44764Y-14519D01*
X44783Y-14557D01*
X44783Y-14614D01*
X44764Y-14652D01*
X44745Y-14671D01*
X44707Y-14690D01*
X44554Y-14690D01*
X44916Y-14480D02*
X45164Y-14480D01*
X45030Y-14633D01*
X45088Y-14633D01*
X45126Y-14652D01*
X45145Y-14671D01*
X45164Y-14709D01*
X45164Y-14804D01*
X45145Y-14842D01*
X45126Y-14861D01*
X45088Y-14880D01*
X44973Y-14880D01*
X44935Y-14861D01*
X44916Y-14842D01*
X29858Y-26880D02*
X29725Y-26690D01*
X29629Y-26880D02*
X29629Y-26480D01*
X29782Y-26480D01*
X29820Y-26500D01*
X29839Y-26519D01*
X29858Y-26557D01*
X29858Y-26614D01*
X29839Y-26652D01*
X29820Y-26671D01*
X29782Y-26690D01*
X29629Y-26690D01*
X30201Y-26614D02*
X30201Y-26880D01*
X30105Y-26461D02*
X30010Y-26747D01*
X30258Y-26747D01*
X42483Y-30680D02*
X42350Y-30490D01*
X42254Y-30680D02*
X42254Y-30280D01*
X42407Y-30280D01*
X42445Y-30300D01*
X42464Y-30319D01*
X42483Y-30357D01*
X42483Y-30414D01*
X42464Y-30452D01*
X42445Y-30471D01*
X42407Y-30490D01*
X42254Y-30490D01*
X42845Y-30280D02*
X42654Y-30280D01*
X42635Y-30471D01*
X42654Y-30452D01*
X42692Y-30433D01*
X42788Y-30433D01*
X42826Y-30452D01*
X42845Y-30471D01*
X42864Y-30509D01*
X42864Y-30604D01*
X42845Y-30642D01*
X42826Y-30661D01*
X42788Y-30680D01*
X42692Y-30680D01*
X42654Y-30661D01*
X42635Y-30642D01*
X38683Y-35780D02*
X38550Y-35590D01*
X38454Y-35780D02*
X38454Y-35380D01*
X38607Y-35380D01*
X38645Y-35400D01*
X38664Y-35419D01*
X38683Y-35457D01*
X38683Y-35514D01*
X38664Y-35552D01*
X38645Y-35571D01*
X38607Y-35590D01*
X38454Y-35590D01*
X39026Y-35380D02*
X38950Y-35380D01*
X38911Y-35400D01*
X38892Y-35419D01*
X38854Y-35476D01*
X38835Y-35552D01*
X38835Y-35704D01*
X38854Y-35742D01*
X38873Y-35761D01*
X38911Y-35780D01*
X38988Y-35780D01*
X39026Y-35761D01*
X39045Y-35742D01*
X39064Y-35704D01*
X39064Y-35609D01*
X39045Y-35571D01*
X39026Y-35552D01*
X38988Y-35533D01*
X38911Y-35533D01*
X38873Y-35552D01*
X38854Y-35571D01*
X38835Y-35609D01*
X45333Y-40530D02*
X45200Y-40340D01*
X45104Y-40530D02*
X45104Y-40130D01*
X45257Y-40130D01*
X45295Y-40150D01*
X45314Y-40169D01*
X45333Y-40207D01*
X45333Y-40264D01*
X45314Y-40302D01*
X45295Y-40321D01*
X45257Y-40340D01*
X45104Y-40340D01*
X45466Y-40130D02*
X45733Y-40130D01*
X45561Y-40530D01*
X46483Y-25280D02*
X46350Y-25090D01*
X46254Y-25280D02*
X46254Y-24880D01*
X46407Y-24880D01*
X46445Y-24900D01*
X46464Y-24919D01*
X46483Y-24957D01*
X46483Y-25014D01*
X46464Y-25052D01*
X46445Y-25071D01*
X46407Y-25090D01*
X46254Y-25090D01*
X46711Y-25052D02*
X46673Y-25033D01*
X46654Y-25014D01*
X46635Y-24976D01*
X46635Y-24957D01*
X46654Y-24919D01*
X46673Y-24900D01*
X46711Y-24880D01*
X46788Y-24880D01*
X46826Y-24900D01*
X46845Y-24919D01*
X46864Y-24957D01*
X46864Y-24976D01*
X46845Y-25014D01*
X46826Y-25033D01*
X46788Y-25052D01*
X46711Y-25052D01*
X46673Y-25071D01*
X46654Y-25090D01*
X46635Y-25128D01*
X46635Y-25204D01*
X46654Y-25242D01*
X46673Y-25261D01*
X46711Y-25280D01*
X46788Y-25280D01*
X46826Y-25261D01*
X46845Y-25242D01*
X46864Y-25204D01*
X46864Y-25128D01*
X46845Y-25090D01*
X46826Y-25071D01*
X46788Y-25052D01*
X26683Y-34220D02*
X26550Y-34029D01*
X26454Y-34220D02*
X26454Y-33820D01*
X26607Y-33820D01*
X26645Y-33839D01*
X26664Y-33858D01*
X26683Y-33896D01*
X26683Y-33953D01*
X26664Y-33991D01*
X26645Y-34010D01*
X26607Y-34029D01*
X26454Y-34029D01*
X26873Y-34220D02*
X26950Y-34220D01*
X26988Y-34201D01*
X27007Y-34182D01*
X27045Y-34125D01*
X27064Y-34048D01*
X27064Y-33896D01*
X27045Y-33858D01*
X27026Y-33839D01*
X26988Y-33820D01*
X26911Y-33820D01*
X26873Y-33839D01*
X26854Y-33858D01*
X26835Y-33896D01*
X26835Y-33991D01*
X26854Y-34029D01*
X26873Y-34048D01*
X26911Y-34067D01*
X26988Y-34067D01*
X27026Y-34048D01*
X27045Y-34029D01*
X27064Y-33991D01*
X29992Y-23105D02*
X29859Y-22915D01*
X29764Y-23105D02*
X29764Y-22705D01*
X29916Y-22705D01*
X29954Y-22725D01*
X29973Y-22744D01*
X29992Y-22782D01*
X29992Y-22839D01*
X29973Y-22877D01*
X29954Y-22896D01*
X29916Y-22915D01*
X29764Y-22915D01*
X30373Y-23105D02*
X30145Y-23105D01*
X30259Y-23105D02*
X30259Y-22705D01*
X30221Y-22763D01*
X30183Y-22801D01*
X30145Y-22820D01*
X30621Y-22705D02*
X30659Y-22705D01*
X30697Y-22725D01*
X30716Y-22744D01*
X30735Y-22782D01*
X30754Y-22858D01*
X30754Y-22953D01*
X30735Y-23029D01*
X30716Y-23067D01*
X30697Y-23086D01*
X30659Y-23105D01*
X30621Y-23105D01*
X30583Y-23086D01*
X30564Y-23067D01*
X30545Y-23029D01*
X30526Y-22953D01*
X30526Y-22858D01*
X30545Y-22782D01*
X30564Y-22744D01*
X30583Y-22725D01*
X30621Y-22705D01*
X48316Y-38661D02*
X48373Y-38680D01*
X48469Y-38680D01*
X48507Y-38661D01*
X48526Y-38642D01*
X48545Y-38604D01*
X48545Y-38566D01*
X48526Y-38528D01*
X48507Y-38509D01*
X48469Y-38490D01*
X48392Y-38471D01*
X48354Y-38452D01*
X48335Y-38433D01*
X48316Y-38395D01*
X48316Y-38357D01*
X48335Y-38319D01*
X48354Y-38300D01*
X48392Y-38280D01*
X48488Y-38280D01*
X48545Y-38300D01*
X48678Y-38280D02*
X48773Y-38680D01*
X48850Y-38395D01*
X48926Y-38680D01*
X49021Y-38280D01*
X49383Y-38680D02*
X49154Y-38680D01*
X49269Y-38680D02*
X49269Y-38280D01*
X49230Y-38338D01*
X49192Y-38376D01*
X49154Y-38395D01*
X41145Y-19680D02*
X41145Y-20004D01*
X41164Y-20042D01*
X41183Y-20061D01*
X41221Y-20080D01*
X41297Y-20080D01*
X41335Y-20061D01*
X41354Y-20042D01*
X41373Y-20004D01*
X41373Y-19680D01*
X41773Y-20080D02*
X41545Y-20080D01*
X41659Y-20080D02*
X41659Y-19680D01*
X41621Y-19738D01*
X41583Y-19776D01*
X41545Y-19795D01*
X39445Y-30430D02*
X39445Y-30754D01*
X39464Y-30792D01*
X39483Y-30811D01*
X39521Y-30830D01*
X39597Y-30830D01*
X39635Y-30811D01*
X39654Y-30792D01*
X39673Y-30754D01*
X39673Y-30430D01*
X39845Y-30469D02*
X39864Y-30450D01*
X39902Y-30430D01*
X39997Y-30430D01*
X40035Y-30450D01*
X40054Y-30469D01*
X40073Y-30507D01*
X40073Y-30545D01*
X40054Y-30602D01*
X39826Y-30830D01*
X40073Y-30830D01*
X34795Y-39080D02*
X34795Y-39404D01*
X34814Y-39442D01*
X34833Y-39461D01*
X34871Y-39480D01*
X34947Y-39480D01*
X34985Y-39461D01*
X35004Y-39442D01*
X35023Y-39404D01*
X35023Y-39080D01*
X35176Y-39080D02*
X35423Y-39080D01*
X35290Y-39233D01*
X35347Y-39233D01*
X35385Y-39252D01*
X35404Y-39271D01*
X35423Y-39309D01*
X35423Y-39404D01*
X35404Y-39442D01*
X35385Y-39461D01*
X35347Y-39480D01*
X35233Y-39480D01*
X35195Y-39461D01*
X35176Y-39442D01*
X26145Y-26080D02*
X26145Y-26404D01*
X26164Y-26442D01*
X26183Y-26461D01*
X26221Y-26480D01*
X26297Y-26480D01*
X26335Y-26461D01*
X26354Y-26442D01*
X26373Y-26404D01*
X26373Y-26080D01*
X26754Y-26080D02*
X26564Y-26080D01*
X26545Y-26271D01*
X26564Y-26252D01*
X26602Y-26233D01*
X26697Y-26233D01*
X26735Y-26252D01*
X26754Y-26271D01*
X26773Y-26309D01*
X26773Y-26404D01*
X26754Y-26442D01*
X26735Y-26461D01*
X26697Y-26480D01*
X26602Y-26480D01*
X26564Y-26461D01*
X26545Y-26442D01*
X23426Y-35280D02*
X23692Y-35680D01*
X23692Y-35280D02*
X23426Y-35680D01*
X24054Y-35680D02*
X23826Y-35680D01*
X23940Y-35680D02*
X23940Y-35280D01*
X23902Y-35338D01*
X23864Y-35376D01*
X23826Y-35395D01*
X41495Y-24480D02*
X41495Y-24804D01*
X41514Y-24842D01*
X41533Y-24861D01*
X41571Y-24880D01*
X41647Y-24880D01*
X41685Y-24861D01*
X41704Y-24842D01*
X41723Y-24804D01*
X41723Y-24480D01*
X42085Y-24614D02*
X42085Y-24880D01*
X41990Y-24461D02*
X41895Y-24747D01*
X42142Y-24747D01*
X31917Y-35541D02*
X31784Y-35351D01*
X31689Y-35541D02*
X31689Y-35141D01*
X31841Y-35141D01*
X31879Y-35160D01*
X31898Y-35179D01*
X31917Y-35217D01*
X31917Y-35274D01*
X31898Y-35313D01*
X31879Y-35332D01*
X31841Y-35351D01*
X31689Y-35351D01*
X32298Y-35541D02*
X32070Y-35541D01*
X32184Y-35541D02*
X32184Y-35141D01*
X32146Y-35198D01*
X32108Y-35236D01*
X32070Y-35255D01*
X32679Y-35541D02*
X32451Y-35541D01*
X32565Y-35541D02*
X32565Y-35141D01*
X32527Y-35198D01*
X32489Y-35236D01*
X32451Y-35255D01*
X35995Y-45607D02*
X35804Y-45740D01*
X35995Y-45835D02*
X35595Y-45835D01*
X35595Y-45683D01*
X35614Y-45645D01*
X35633Y-45626D01*
X35671Y-45607D01*
X35728Y-45607D01*
X35766Y-45626D01*
X35785Y-45645D01*
X35804Y-45683D01*
X35804Y-45835D01*
X35995Y-45226D02*
X35995Y-45454D01*
X35995Y-45340D02*
X35595Y-45340D01*
X35652Y-45378D01*
X35690Y-45416D01*
X35709Y-45454D01*
X35633Y-45073D02*
X35614Y-45054D01*
X35595Y-45016D01*
X35595Y-44921D01*
X35614Y-44883D01*
X35633Y-44864D01*
X35671Y-44845D01*
X35709Y-44845D01*
X35766Y-44864D01*
X35995Y-45092D01*
X35995Y-44845D01*
X42145Y-42757D02*
X41954Y-42890D01*
X42145Y-42985D02*
X41745Y-42985D01*
X41745Y-42833D01*
X41764Y-42795D01*
X41783Y-42776D01*
X41821Y-42757D01*
X41878Y-42757D01*
X41916Y-42776D01*
X41935Y-42795D01*
X41954Y-42833D01*
X41954Y-42985D01*
X42145Y-42376D02*
X42145Y-42604D01*
X42145Y-42490D02*
X41745Y-42490D01*
X41802Y-42528D01*
X41840Y-42566D01*
X41859Y-42604D01*
X41745Y-42242D02*
X41745Y-41995D01*
X41897Y-42128D01*
X41897Y-42071D01*
X41916Y-42033D01*
X41935Y-42014D01*
X41973Y-41995D01*
X42069Y-41995D01*
X42107Y-42014D01*
X42126Y-42033D01*
X42145Y-42071D01*
X42145Y-42185D01*
X42126Y-42223D01*
X42107Y-42242D01*
M02*
