%FSLAX34Y34*%
G04 Gerber Fmt 3.4, Leading zero omitted, Abs format*
G04 (created by PCBNEW (2014-jan-25)-product) date Mon 28 Jul 2014 06:27:03 PM PDT*
%MOIN*%
G01*
G70*
G90*
G04 APERTURE LIST*
%ADD10C,0.005906*%
%ADD11C,0.059100*%
%ADD12C,0.078700*%
%ADD13R,0.078700X0.078700*%
%ADD14C,0.060000*%
%ADD15C,0.236220*%
%ADD16R,0.080000X0.068000*%
%ADD17O,0.080000X0.068000*%
%ADD18R,0.068000X0.068000*%
%ADD19O,0.068000X0.068000*%
%ADD20C,0.068000*%
%ADD21R,0.060000X0.060000*%
%ADD22O,0.137800X0.066900*%
%ADD23R,0.620000X0.380000*%
%ADD24R,0.055000X0.055000*%
%ADD25C,0.055000*%
%ADD26C,0.040000*%
%ADD27C,0.035000*%
%ADD28C,0.040000*%
%ADD29C,0.010000*%
G04 APERTURE END LIST*
G54D10*
G54D11*
X45000Y-22750D03*
X44000Y-22750D03*
X20500Y-35250D03*
X19500Y-35250D03*
X44000Y-21000D03*
X45000Y-21000D03*
X20500Y-37250D03*
X19500Y-37250D03*
X44500Y-36250D03*
X43500Y-36250D03*
X43750Y-45500D03*
X44750Y-45500D03*
X37750Y-29750D03*
X36750Y-29750D03*
X44000Y-24500D03*
X45000Y-24500D03*
X36750Y-24750D03*
X35750Y-24750D03*
X42000Y-35250D03*
X41000Y-35250D03*
X21500Y-26000D03*
X20500Y-26000D03*
X20500Y-34000D03*
X19500Y-34000D03*
G54D12*
X44750Y-25750D03*
G54D13*
X44750Y-29750D03*
G54D14*
X37000Y-34250D03*
X37000Y-35250D03*
G54D15*
X34000Y-26500D03*
X14000Y-20500D03*
X34000Y-37500D03*
X13500Y-39500D03*
X20000Y-42000D03*
X39842Y-11889D03*
X20157Y-11889D03*
X39842Y-48110D03*
X20157Y-48110D03*
X40000Y-42000D03*
X20000Y-18000D03*
X40000Y-18000D03*
G54D16*
X48000Y-35000D03*
G54D17*
X48000Y-36000D03*
X48000Y-37000D03*
G54D18*
X36250Y-32750D03*
G54D19*
X36250Y-31750D03*
X37250Y-32750D03*
X37250Y-31750D03*
G54D18*
X33150Y-29000D03*
G54D19*
X34150Y-29000D03*
X33150Y-30000D03*
X34150Y-30000D03*
X33150Y-31000D03*
X34150Y-31000D03*
G54D18*
X24400Y-20500D03*
G54D20*
X23400Y-20500D03*
X22400Y-20500D03*
X21400Y-20500D03*
X20400Y-20500D03*
X19400Y-20500D03*
X18400Y-20500D03*
X17400Y-20500D03*
G54D18*
X33000Y-20500D03*
G54D20*
X32000Y-20500D03*
X31000Y-20500D03*
X30000Y-20500D03*
X29000Y-20500D03*
X28000Y-20500D03*
X27000Y-20500D03*
X26000Y-20500D03*
G54D18*
X33000Y-39500D03*
G54D20*
X32000Y-39500D03*
X31000Y-39500D03*
X30000Y-39500D03*
X29000Y-39500D03*
X28000Y-39500D03*
G54D18*
X26000Y-39500D03*
G54D20*
X25000Y-39500D03*
X24000Y-39500D03*
X23000Y-39500D03*
X22000Y-39500D03*
X21000Y-39500D03*
G54D18*
X12000Y-41500D03*
G54D19*
X13000Y-41500D03*
X12000Y-42500D03*
X13000Y-42500D03*
X12000Y-43500D03*
X13000Y-43500D03*
X12000Y-44500D03*
X13000Y-44500D03*
X12000Y-45500D03*
X13000Y-45500D03*
X12000Y-46500D03*
X13000Y-46500D03*
X12000Y-47500D03*
X13000Y-47500D03*
X12000Y-48500D03*
X13000Y-48500D03*
G54D18*
X27000Y-41500D03*
G54D19*
X28000Y-41500D03*
X27000Y-42500D03*
X28000Y-42500D03*
X27000Y-43500D03*
X28000Y-43500D03*
X27000Y-44500D03*
X28000Y-44500D03*
X27000Y-45500D03*
X28000Y-45500D03*
X27000Y-46500D03*
X28000Y-46500D03*
X27000Y-47500D03*
X28000Y-47500D03*
X27000Y-48500D03*
X28000Y-48500D03*
G54D21*
X46750Y-28000D03*
G54D14*
X47750Y-28000D03*
X46750Y-29000D03*
X47750Y-29000D03*
X46750Y-30000D03*
X47750Y-30000D03*
X46750Y-31000D03*
X47750Y-31000D03*
X46750Y-32000D03*
X47750Y-32000D03*
G54D18*
X48000Y-20250D03*
G54D20*
X48000Y-21250D03*
X48000Y-22250D03*
X48000Y-23250D03*
X48000Y-24250D03*
X48000Y-25250D03*
G54D18*
X32000Y-41500D03*
G54D19*
X33000Y-41500D03*
X32000Y-42500D03*
X33000Y-42500D03*
X32000Y-43500D03*
X33000Y-43500D03*
X32000Y-44500D03*
X33000Y-44500D03*
X32000Y-45500D03*
X33000Y-45500D03*
X32000Y-46500D03*
X33000Y-46500D03*
X32000Y-47500D03*
X33000Y-47500D03*
X32000Y-48500D03*
X33000Y-48500D03*
G54D18*
X47000Y-41500D03*
G54D19*
X48000Y-41500D03*
X47000Y-42500D03*
X48000Y-42500D03*
X47000Y-43500D03*
X48000Y-43500D03*
X47000Y-44500D03*
X48000Y-44500D03*
X47000Y-45500D03*
X48000Y-45500D03*
X47000Y-46500D03*
X48000Y-46500D03*
X47000Y-47500D03*
X48000Y-47500D03*
X47000Y-48500D03*
X48000Y-48500D03*
G54D18*
X28000Y-18500D03*
G54D19*
X27000Y-18500D03*
X28000Y-17500D03*
X27000Y-17500D03*
X28000Y-16500D03*
X27000Y-16500D03*
X28000Y-15500D03*
X27000Y-15500D03*
X28000Y-14500D03*
X27000Y-14500D03*
X28000Y-13500D03*
X27000Y-13500D03*
X28000Y-12500D03*
X27000Y-12500D03*
X28000Y-11500D03*
X27000Y-11500D03*
G54D18*
X13000Y-18500D03*
G54D19*
X12000Y-18500D03*
X13000Y-17500D03*
X12000Y-17500D03*
X13000Y-16500D03*
X12000Y-16500D03*
X13000Y-15500D03*
X12000Y-15500D03*
X13000Y-14500D03*
X12000Y-14500D03*
X13000Y-13500D03*
X12000Y-13500D03*
X13000Y-12500D03*
X12000Y-12500D03*
X13000Y-11500D03*
X12000Y-11500D03*
G54D18*
X48000Y-18500D03*
G54D19*
X47000Y-18500D03*
X48000Y-17500D03*
X47000Y-17500D03*
X48000Y-16500D03*
X47000Y-16500D03*
X48000Y-15500D03*
X47000Y-15500D03*
X48000Y-14500D03*
X47000Y-14500D03*
X48000Y-13500D03*
X47000Y-13500D03*
X48000Y-12500D03*
X47000Y-12500D03*
X48000Y-11500D03*
X47000Y-11500D03*
G54D18*
X33000Y-18500D03*
G54D19*
X32000Y-18500D03*
X33000Y-17500D03*
X32000Y-17500D03*
X33000Y-16500D03*
X32000Y-16500D03*
X33000Y-15500D03*
X32000Y-15500D03*
X33000Y-14500D03*
X32000Y-14500D03*
X33000Y-13500D03*
X32000Y-13500D03*
X33000Y-12500D03*
X32000Y-12500D03*
X33000Y-11500D03*
X32000Y-11500D03*
G54D21*
X12500Y-24500D03*
G54D14*
X12500Y-23500D03*
X13500Y-24500D03*
X13500Y-23500D03*
X14500Y-24500D03*
X14500Y-23500D03*
X15500Y-24500D03*
X15500Y-23500D03*
X16500Y-24500D03*
X16500Y-23500D03*
G54D12*
X44500Y-35000D03*
X44500Y-31000D03*
X43750Y-19500D03*
X43750Y-15500D03*
X45000Y-19500D03*
X45000Y-15500D03*
X43000Y-44500D03*
X43000Y-40500D03*
X39000Y-29750D03*
X43000Y-29750D03*
X38750Y-34750D03*
X38750Y-30750D03*
X44500Y-44500D03*
X44500Y-40500D03*
X46250Y-20250D03*
X46250Y-24250D03*
X24750Y-35000D03*
X28750Y-35000D03*
X31500Y-24000D03*
X27500Y-24000D03*
G54D13*
X45620Y-39300D03*
G54D12*
X48180Y-39300D03*
G54D22*
X42200Y-22100D03*
X42200Y-23100D03*
X42200Y-21100D03*
G54D23*
X37600Y-22100D03*
G54D24*
X40000Y-34250D03*
G54D25*
X41000Y-34250D03*
X42000Y-34250D03*
X43000Y-34250D03*
X43000Y-31250D03*
X42000Y-31250D03*
X41000Y-31250D03*
X40000Y-31250D03*
G54D22*
X43650Y-38300D03*
X43650Y-39300D03*
X43650Y-37300D03*
G54D23*
X39050Y-38300D03*
G54D24*
X11500Y-33000D03*
G54D25*
X12500Y-33000D03*
X13500Y-33000D03*
X14500Y-33000D03*
X15500Y-33000D03*
X16500Y-33000D03*
X17500Y-33000D03*
X18500Y-33000D03*
X19500Y-33000D03*
X20500Y-33000D03*
X21500Y-33000D03*
X22500Y-33000D03*
X23500Y-33000D03*
X24500Y-33000D03*
X25500Y-33000D03*
X26500Y-33000D03*
X27500Y-33000D03*
X28500Y-33000D03*
X29500Y-33000D03*
X30500Y-33000D03*
X30500Y-27000D03*
X29500Y-27000D03*
X28500Y-27000D03*
X27500Y-27000D03*
X26500Y-27000D03*
X25500Y-27000D03*
X24500Y-27000D03*
X23500Y-27000D03*
X22500Y-27000D03*
X21500Y-27000D03*
X20500Y-27000D03*
X19500Y-27000D03*
X18500Y-27000D03*
X17500Y-27000D03*
X16500Y-27000D03*
X15500Y-27000D03*
X14500Y-27000D03*
X13500Y-27000D03*
X12500Y-27000D03*
X11500Y-27000D03*
G54D11*
X22250Y-35289D03*
X22250Y-37211D03*
G54D24*
X36750Y-28500D03*
G54D25*
X37750Y-28500D03*
X38750Y-28500D03*
X39750Y-28500D03*
X40750Y-28500D03*
X41750Y-28500D03*
X42750Y-28500D03*
X42750Y-25500D03*
X41750Y-25500D03*
X40750Y-25500D03*
X39750Y-25500D03*
X38750Y-25500D03*
X37750Y-25500D03*
X36750Y-25500D03*
G54D26*
X46000Y-16000D03*
X18250Y-18250D03*
X18250Y-17000D03*
X22500Y-27750D03*
X26750Y-38500D03*
X28500Y-38000D03*
X29000Y-37500D03*
X24000Y-33750D03*
X25500Y-34000D03*
X26750Y-34250D03*
X27750Y-36500D03*
X30250Y-34250D03*
X28500Y-34000D03*
X27750Y-36000D03*
X26750Y-36500D03*
X26750Y-36000D03*
X27250Y-38250D03*
X21500Y-36500D03*
X21500Y-36000D03*
X25000Y-36500D03*
X25000Y-36000D03*
X21750Y-38000D03*
X30500Y-37500D03*
X31750Y-38250D03*
X31750Y-37500D03*
X36300Y-18900D03*
X37650Y-12650D03*
X34750Y-15550D03*
X24250Y-29250D03*
X26500Y-27750D03*
X25500Y-29250D03*
X26500Y-29250D03*
X23500Y-31500D03*
X30500Y-31000D03*
X30500Y-29250D03*
X30500Y-36000D03*
X32250Y-36000D03*
X23500Y-23500D03*
X24500Y-23500D03*
X24000Y-22000D03*
X26500Y-24500D03*
X30500Y-25000D03*
X27500Y-25000D03*
X26000Y-23750D03*
X24250Y-17750D03*
X24250Y-19000D03*
X13750Y-25750D03*
X27500Y-27750D03*
X32750Y-33500D03*
X33750Y-33500D03*
X36750Y-27750D03*
X37500Y-47250D03*
X25250Y-43500D03*
X17500Y-47250D03*
X17500Y-43000D03*
X18000Y-42000D03*
X23000Y-48000D03*
X12500Y-34750D03*
X15000Y-35250D03*
X12250Y-21750D03*
X14000Y-24000D03*
X20500Y-27750D03*
X28250Y-37250D03*
X34997Y-36002D03*
X47500Y-37750D03*
X27750Y-40250D03*
G54D27*
X41500Y-27500D03*
X47750Y-27250D03*
X35500Y-44000D03*
X24750Y-16750D03*
X26250Y-18000D03*
X27000Y-23500D03*
X27000Y-32000D03*
X41000Y-29500D03*
X19750Y-23250D03*
X15750Y-47500D03*
X22750Y-13500D03*
X29750Y-48750D03*
X17750Y-23250D03*
X18500Y-29750D03*
X21000Y-23250D03*
X16000Y-48000D03*
X23250Y-12500D03*
X30250Y-48750D03*
X21000Y-30500D03*
X20250Y-23000D03*
X15750Y-47000D03*
X26250Y-48000D03*
X22750Y-14000D03*
X16500Y-30750D03*
X17250Y-23000D03*
X24250Y-15500D03*
X25750Y-45000D03*
X15250Y-45000D03*
X24000Y-26500D03*
X34500Y-34000D03*
X25750Y-46000D03*
X28500Y-21500D03*
X23250Y-21500D03*
X23500Y-15500D03*
X15750Y-46500D03*
X25750Y-47000D03*
X16750Y-22750D03*
X24250Y-14500D03*
X22500Y-22750D03*
X23000Y-26750D03*
X45500Y-44500D03*
X44250Y-46250D03*
X24750Y-44500D03*
X26000Y-18500D03*
X17250Y-15500D03*
X27500Y-33750D03*
X43000Y-18750D03*
X37000Y-18750D03*
X30750Y-18000D03*
X45750Y-19000D03*
X32500Y-22500D03*
X13500Y-32000D03*
X25000Y-31750D03*
X25000Y-22000D03*
X43250Y-18250D03*
X37000Y-18250D03*
X29500Y-39000D03*
X30500Y-40750D03*
X30000Y-18500D03*
X15500Y-41500D03*
X16500Y-33750D03*
X26750Y-22250D03*
X32000Y-22500D03*
X43250Y-17750D03*
X37000Y-17750D03*
X22000Y-40750D03*
X22000Y-42750D03*
X29250Y-17500D03*
X29250Y-40500D03*
X15000Y-32500D03*
X31500Y-22750D03*
X15000Y-29000D03*
X29750Y-31000D03*
X43250Y-17250D03*
X37000Y-17250D03*
X29000Y-18250D03*
X22500Y-41000D03*
X29250Y-41000D03*
X22500Y-42750D03*
X16000Y-43000D03*
X18000Y-30750D03*
X43250Y-16750D03*
X37000Y-16750D03*
X26000Y-17500D03*
X30000Y-28500D03*
X29000Y-42500D03*
X33250Y-24500D03*
X31500Y-34250D03*
X28000Y-31250D03*
X44500Y-25000D03*
X44500Y-17250D03*
X29000Y-43000D03*
X14000Y-34000D03*
X40000Y-27250D03*
X40000Y-35000D03*
X25750Y-42750D03*
X25750Y-16500D03*
X30500Y-17500D03*
X36250Y-16000D03*
X13500Y-44000D03*
X12250Y-22500D03*
X14500Y-44500D03*
X25750Y-44000D03*
X25500Y-26250D03*
X26250Y-17000D03*
X13750Y-45250D03*
X14500Y-14500D03*
X34500Y-43000D03*
X12000Y-20750D03*
X32500Y-24000D03*
X34500Y-44000D03*
X26250Y-16000D03*
X34000Y-39500D03*
X15000Y-46250D03*
X13500Y-28500D03*
X11000Y-37500D03*
X12000Y-37000D03*
X15000Y-13500D03*
X34250Y-45250D03*
X23750Y-15000D03*
X26250Y-14000D03*
X34250Y-46000D03*
X14000Y-32000D03*
X19000Y-32000D03*
X25250Y-47500D03*
X14000Y-28000D03*
X34000Y-47000D03*
X25500Y-13000D03*
X15500Y-12500D03*
X16500Y-27750D03*
X29500Y-36000D03*
X21000Y-38000D03*
X16000Y-12000D03*
X26250Y-12000D03*
X30000Y-38250D03*
X26250Y-48500D03*
G54D26*
X46000Y-33250D03*
G54D27*
X48500Y-19250D03*
X36000Y-31000D03*
X27500Y-25750D03*
X15000Y-28250D03*
X25500Y-28500D03*
X26500Y-25250D03*
X24500Y-24000D03*
X36250Y-35250D03*
X31000Y-32000D03*
G54D26*
X35750Y-35000D03*
X42750Y-26250D03*
X42000Y-32250D03*
X45250Y-42500D03*
X36000Y-29000D03*
X16750Y-21500D03*
X21750Y-21500D03*
X15750Y-17500D03*
X16250Y-22750D03*
X24000Y-34750D03*
G54D28*
X47000Y-41500D02*
X46500Y-41500D01*
X43550Y-41950D02*
X41600Y-43899D01*
X46050Y-41950D02*
X43550Y-41950D01*
X46500Y-41500D02*
X46050Y-41950D01*
X31500Y-40500D02*
X33750Y-40500D01*
X37149Y-43899D02*
X41600Y-43899D01*
X33750Y-40500D02*
X37149Y-43899D01*
X33000Y-18500D02*
X33750Y-18500D01*
X35750Y-16500D02*
X36500Y-16500D01*
X33750Y-18500D02*
X35750Y-16500D01*
X48000Y-41500D02*
X47000Y-41500D01*
X30500Y-41500D02*
X31500Y-40500D01*
X30500Y-41500D02*
X28000Y-41500D01*
X27000Y-41500D02*
X28000Y-41500D01*
X13000Y-18500D02*
X17500Y-18500D01*
X12000Y-18500D02*
X13000Y-18500D01*
X32000Y-18500D02*
X33000Y-18500D01*
X47750Y-28000D02*
X46750Y-28000D01*
X22000Y-41500D02*
X27000Y-41500D01*
X31000Y-18500D02*
X30000Y-19500D01*
X32000Y-18500D02*
X31000Y-18500D01*
X46000Y-16000D02*
X45750Y-16250D01*
X45750Y-16250D02*
X36750Y-16250D01*
X36750Y-16250D02*
X36500Y-16500D01*
X43100Y-23100D02*
X43500Y-23500D01*
X43500Y-23500D02*
X44250Y-23500D01*
X44250Y-23500D02*
X45000Y-22750D01*
X42200Y-23100D02*
X43100Y-23100D01*
X29250Y-19500D02*
X29000Y-19750D01*
X29000Y-19750D02*
X18750Y-19750D01*
X18750Y-19750D02*
X17500Y-18500D01*
X30000Y-19500D02*
X29250Y-19500D01*
X21000Y-40500D02*
X22000Y-41500D01*
X21000Y-39500D02*
X21000Y-40500D01*
X43650Y-39300D02*
X43650Y-40050D01*
X43650Y-40050D02*
X43750Y-40150D01*
X43650Y-39300D02*
X45620Y-39300D01*
X30500Y-29250D02*
X30500Y-27750D01*
X13000Y-16500D02*
X17750Y-16500D01*
X17750Y-16500D02*
X18250Y-17000D01*
X27250Y-38250D02*
X27000Y-38250D01*
X27000Y-38250D02*
X26750Y-38500D01*
X24000Y-33750D02*
X23999Y-33749D01*
X23999Y-33749D02*
X22249Y-33749D01*
X22249Y-33749D02*
X21500Y-33000D01*
X26750Y-34250D02*
X26500Y-34000D01*
X26500Y-34000D02*
X25500Y-34000D01*
X28500Y-34000D02*
X28250Y-34250D01*
X28250Y-34250D02*
X26750Y-34250D01*
X26750Y-36500D02*
X27750Y-36500D01*
X30250Y-34250D02*
X28750Y-34250D01*
X28750Y-34250D02*
X28500Y-34000D01*
X27750Y-36000D02*
X26750Y-36000D01*
X25000Y-36500D02*
X26750Y-36500D01*
X25000Y-36000D02*
X26750Y-36000D01*
X29000Y-37500D02*
X28500Y-38000D01*
X28500Y-38000D02*
X28250Y-38250D01*
X28250Y-38250D02*
X27250Y-38250D01*
X30250Y-37500D02*
X29500Y-37500D01*
X29500Y-37500D02*
X29000Y-37500D01*
X25000Y-36000D02*
X21500Y-36000D01*
X25000Y-36500D02*
X21500Y-36500D01*
X21500Y-36500D02*
X20750Y-36500D01*
X20750Y-36500D02*
X19500Y-35250D01*
X30500Y-37500D02*
X30500Y-37750D01*
X34000Y-37500D02*
X33250Y-38250D01*
X33250Y-38250D02*
X31750Y-38250D01*
X31750Y-38250D02*
X31000Y-38250D01*
X31000Y-38250D02*
X30500Y-37750D01*
X30500Y-37750D02*
X30250Y-37500D01*
X34000Y-37500D02*
X34750Y-36750D01*
X42750Y-28500D02*
X40000Y-31250D01*
X41000Y-35250D02*
X41000Y-34250D01*
X46750Y-29000D02*
X46700Y-29000D01*
X46700Y-29000D02*
X45650Y-27950D01*
X43300Y-27950D02*
X42750Y-28500D01*
X45650Y-27950D02*
X43300Y-27950D01*
X47750Y-29000D02*
X48050Y-29000D01*
X48050Y-29000D02*
X48400Y-28650D01*
X44750Y-22000D02*
X44000Y-22750D01*
X45700Y-22000D02*
X44750Y-22000D01*
X47250Y-23550D02*
X45700Y-22000D01*
X47250Y-25850D02*
X47250Y-23550D01*
X48400Y-27000D02*
X47250Y-25850D01*
X48400Y-28650D02*
X48400Y-27000D01*
X42200Y-22100D02*
X43350Y-22100D01*
X43350Y-22100D02*
X44000Y-22750D01*
X36300Y-18900D02*
X36300Y-20000D01*
X33000Y-16500D02*
X33800Y-16500D01*
X38782Y-12950D02*
X39842Y-11889D01*
X37950Y-12950D02*
X38782Y-12950D01*
X37650Y-12650D02*
X37950Y-12950D01*
X33800Y-16500D02*
X34750Y-15550D01*
X26500Y-29250D02*
X25500Y-29250D01*
X24250Y-29250D02*
X25500Y-29250D01*
X30500Y-36000D02*
X32250Y-36000D01*
X26000Y-23750D02*
X25750Y-23500D01*
X25750Y-23500D02*
X24500Y-23500D01*
X23500Y-23500D02*
X24500Y-23500D01*
X26500Y-24500D02*
X26000Y-24000D01*
X26750Y-24500D02*
X26500Y-24500D01*
X27500Y-25000D02*
X27250Y-25000D01*
X27500Y-25000D02*
X30500Y-25000D01*
X34000Y-26500D02*
X32500Y-25000D01*
X32500Y-25000D02*
X30500Y-25000D01*
X27250Y-25000D02*
X26750Y-24500D01*
X26000Y-24000D02*
X26000Y-23750D01*
X20000Y-18000D02*
X20000Y-17750D01*
X20000Y-17750D02*
X21000Y-16750D01*
X23750Y-19000D02*
X24250Y-19000D01*
X21500Y-16750D02*
X23750Y-19000D01*
X21000Y-16750D02*
X21500Y-16750D01*
X26500Y-27750D02*
X27500Y-27750D01*
X27500Y-27750D02*
X30500Y-27750D01*
X30500Y-27750D02*
X31250Y-27750D01*
X42200Y-22100D02*
X40850Y-22100D01*
X40850Y-22100D02*
X40850Y-20050D01*
X40850Y-20050D02*
X40800Y-20000D01*
X40800Y-20000D02*
X36300Y-20000D01*
X35300Y-20000D02*
X34850Y-20450D01*
X36300Y-20000D02*
X35300Y-20000D01*
X34850Y-20450D02*
X34350Y-20450D01*
X40850Y-24150D02*
X40850Y-22400D01*
X34450Y-24150D02*
X40850Y-24150D01*
X34400Y-24100D02*
X34450Y-24150D01*
X34400Y-20500D02*
X34400Y-24100D01*
X34350Y-20450D02*
X34400Y-20500D01*
X36750Y-29750D02*
X36000Y-29750D01*
X34750Y-31000D02*
X34150Y-31000D01*
X36000Y-29750D02*
X34750Y-31000D01*
X33750Y-33500D02*
X32750Y-33500D01*
X34000Y-37500D02*
X31750Y-37500D01*
X31750Y-37500D02*
X30250Y-37500D01*
X35750Y-24750D02*
X34000Y-26500D01*
X35750Y-24750D02*
X38400Y-22100D01*
X38400Y-22100D02*
X42200Y-22100D01*
X34000Y-26500D02*
X35250Y-27750D01*
X35250Y-27750D02*
X36750Y-27750D01*
X47000Y-43500D02*
X44000Y-43500D01*
X44000Y-43500D02*
X43000Y-44500D01*
X28000Y-43500D02*
X27000Y-43500D01*
X47000Y-43500D02*
X48000Y-43500D01*
X12000Y-16500D02*
X13000Y-16500D01*
X32000Y-16500D02*
X33000Y-16500D01*
X47750Y-29000D02*
X46750Y-29000D01*
X38360Y-48110D02*
X37500Y-47250D01*
X39842Y-48110D02*
X38360Y-48110D01*
X27000Y-43500D02*
X25250Y-43500D01*
X19297Y-47250D02*
X17500Y-47250D01*
X20157Y-48110D02*
X19297Y-47250D01*
X17500Y-43000D02*
X18000Y-42500D01*
X18000Y-42500D02*
X18000Y-42000D01*
X22889Y-48110D02*
X23000Y-48000D01*
X20157Y-48110D02*
X22889Y-48110D01*
X13000Y-35250D02*
X12500Y-34750D01*
X19500Y-35250D02*
X15000Y-35250D01*
X15000Y-35250D02*
X13000Y-35250D01*
X13500Y-20500D02*
X14000Y-20500D01*
X12250Y-21750D02*
X13500Y-20500D01*
G54D29*
X16250Y-23500D02*
X16500Y-23500D01*
X14000Y-23250D02*
X14250Y-23000D01*
X14250Y-23000D02*
X15750Y-23000D01*
X15750Y-23000D02*
X16250Y-23500D01*
X14000Y-24000D02*
X14000Y-23250D01*
G54D28*
X32750Y-27750D02*
X34000Y-26500D01*
X20500Y-27750D02*
X22500Y-27750D01*
X22500Y-27750D02*
X26500Y-27750D01*
X31250Y-27750D02*
X32750Y-27750D01*
X23000Y-39500D02*
X22000Y-39500D01*
G54D29*
X20500Y-35250D02*
X20539Y-35289D01*
X20539Y-35289D02*
X22250Y-35289D01*
X20500Y-37250D02*
X20539Y-37211D01*
X20539Y-37211D02*
X22250Y-37211D01*
G54D28*
X43650Y-38300D02*
X37050Y-38300D01*
X34997Y-36002D02*
X37050Y-38055D01*
X37050Y-38055D02*
X37050Y-38300D01*
X44500Y-36250D02*
X44750Y-36500D01*
X44750Y-36500D02*
X44750Y-37750D01*
X43650Y-38300D02*
X44200Y-38300D01*
X44200Y-38300D02*
X44750Y-37750D01*
X37050Y-38300D02*
X37050Y-37950D01*
X34997Y-36002D02*
X35000Y-36000D01*
X35000Y-36000D02*
X33250Y-36000D01*
X33250Y-36000D02*
X32500Y-36750D01*
X32500Y-36750D02*
X28750Y-36750D01*
X28000Y-37500D02*
X28250Y-37250D01*
X28250Y-37250D02*
X28750Y-36750D01*
X25000Y-39500D02*
X25000Y-39000D01*
X25000Y-39000D02*
X26500Y-37500D01*
X26500Y-37500D02*
X28000Y-37500D01*
X16500Y-36000D02*
X19250Y-38750D01*
X12500Y-36000D02*
X10750Y-34250D01*
X10750Y-34250D02*
X10750Y-18750D01*
X10750Y-18750D02*
X12000Y-17500D01*
X16500Y-36000D02*
X12500Y-36000D01*
X47500Y-37750D02*
X44750Y-37750D01*
X25000Y-39500D02*
X25000Y-40000D01*
X24250Y-38750D02*
X25000Y-39500D01*
X19250Y-38750D02*
X24250Y-38750D01*
X25250Y-40250D02*
X27750Y-40250D01*
X25000Y-40000D02*
X25250Y-40250D01*
G54D29*
X41500Y-27500D02*
X47500Y-27500D01*
X47500Y-27500D02*
X47750Y-27250D01*
X39750Y-28500D02*
X39750Y-28000D01*
X39250Y-28000D02*
X38500Y-28000D01*
X39750Y-28500D02*
X39250Y-28000D01*
X37500Y-29250D02*
X37750Y-29250D01*
X37750Y-29250D02*
X38250Y-28750D01*
X38250Y-28750D02*
X38250Y-28250D01*
X38250Y-28250D02*
X38500Y-28000D01*
X37250Y-29500D02*
X37500Y-29250D01*
X39750Y-28000D02*
X40750Y-27000D01*
X36750Y-30500D02*
X37250Y-30000D01*
X37250Y-30000D02*
X37250Y-29500D01*
X40750Y-27000D02*
X43500Y-27000D01*
X27000Y-32000D02*
X26750Y-32250D01*
X30000Y-32000D02*
X27000Y-32000D01*
X31000Y-31000D02*
X30000Y-32000D01*
X26750Y-32250D02*
X20250Y-32250D01*
X24750Y-16750D02*
X24750Y-17000D01*
X24750Y-17000D02*
X25750Y-18000D01*
X24500Y-16500D02*
X22250Y-16500D01*
X24750Y-16750D02*
X24500Y-16500D01*
X33150Y-31000D02*
X33900Y-31750D01*
X34500Y-31750D02*
X35750Y-30500D01*
X33900Y-31750D02*
X34500Y-31750D01*
X35750Y-30500D02*
X36750Y-30500D01*
X33150Y-31000D02*
X31000Y-31000D01*
X44750Y-25750D02*
X43500Y-27000D01*
X44750Y-45500D02*
X44750Y-46500D01*
X43950Y-46750D02*
X41700Y-44500D01*
X44500Y-46750D02*
X43950Y-46750D01*
X44750Y-46500D02*
X44500Y-46750D01*
X33150Y-31000D02*
X33450Y-31000D01*
X44750Y-45500D02*
X45000Y-45250D01*
X46250Y-45250D02*
X46500Y-45000D01*
X45000Y-45250D02*
X46250Y-45250D01*
X47500Y-45000D02*
X46500Y-45000D01*
X47500Y-45000D02*
X48000Y-44500D01*
X20250Y-32250D02*
X19500Y-33000D01*
X25750Y-18000D02*
X26250Y-18000D01*
X31500Y-42000D02*
X34000Y-42000D01*
X28000Y-44500D02*
X29000Y-44500D01*
X29000Y-44500D02*
X31500Y-42000D01*
X48500Y-44000D02*
X48500Y-40750D01*
X48500Y-40750D02*
X48180Y-40430D01*
X48180Y-40430D02*
X48180Y-39300D01*
X48000Y-44500D02*
X48500Y-44000D01*
X35500Y-43500D02*
X34000Y-42000D01*
X35500Y-44000D02*
X35500Y-43500D01*
X12500Y-15000D02*
X17250Y-15000D01*
X12000Y-15500D02*
X12500Y-15000D01*
X21250Y-15500D02*
X22250Y-16500D01*
X17750Y-15500D02*
X21250Y-15500D01*
X17250Y-15000D02*
X17750Y-15500D01*
X36000Y-44500D02*
X41700Y-44500D01*
X35500Y-44000D02*
X36000Y-44500D01*
X17000Y-24000D02*
X17250Y-23750D01*
X14500Y-23500D02*
X15000Y-24000D01*
X15000Y-24000D02*
X17000Y-24000D01*
X27000Y-23450D02*
X26799Y-23250D01*
X26799Y-23250D02*
X26000Y-23250D01*
X26000Y-23250D02*
X25750Y-23000D01*
X25750Y-23000D02*
X23250Y-23000D01*
X27000Y-23500D02*
X27000Y-23450D01*
X22500Y-23750D02*
X17250Y-23750D01*
X23250Y-23000D02*
X22500Y-23750D01*
X41000Y-29500D02*
X39750Y-29500D01*
X39750Y-29500D02*
X38750Y-28500D01*
X37750Y-29750D02*
X38000Y-29750D01*
X38000Y-29750D02*
X38750Y-29000D01*
X38750Y-29000D02*
X38750Y-28500D01*
X37750Y-29500D02*
X37750Y-29750D01*
X48000Y-35000D02*
X44500Y-35000D01*
X45700Y-29100D02*
X44400Y-29100D01*
X44400Y-29100D02*
X44000Y-29500D01*
X44000Y-29500D02*
X44000Y-29750D01*
X42750Y-30750D02*
X42500Y-31000D01*
X43000Y-30750D02*
X42750Y-30750D01*
X44000Y-29750D02*
X43000Y-30750D01*
X46750Y-30000D02*
X46600Y-30000D01*
X46600Y-30000D02*
X45700Y-29100D01*
X42500Y-31000D02*
X42500Y-31500D01*
X41000Y-31250D02*
X41500Y-31750D01*
X42250Y-31750D02*
X42500Y-31500D01*
X41500Y-31750D02*
X42250Y-31750D01*
X46500Y-30000D02*
X46750Y-30000D01*
X19750Y-23250D02*
X19500Y-23000D01*
X18000Y-23000D02*
X17750Y-23250D01*
X19500Y-23000D02*
X18000Y-23000D01*
X15750Y-47500D02*
X13750Y-47500D01*
X12500Y-47000D02*
X12000Y-47500D01*
X13250Y-47000D02*
X12500Y-47000D01*
X13750Y-47500D02*
X13250Y-47000D01*
X27750Y-12500D02*
X27250Y-13000D01*
X27250Y-13000D02*
X26000Y-13000D01*
X26000Y-13000D02*
X25500Y-13500D01*
X25500Y-13500D02*
X22750Y-13500D01*
X28000Y-12500D02*
X27750Y-12500D01*
X15750Y-47500D02*
X16000Y-47500D01*
X17000Y-46500D02*
X23250Y-46500D01*
X16000Y-47500D02*
X17000Y-46500D01*
X25750Y-49000D02*
X23250Y-46500D01*
X29500Y-49000D02*
X25750Y-49000D01*
X29750Y-48750D02*
X29500Y-49000D01*
X40750Y-14250D02*
X41750Y-13250D01*
X47500Y-13000D02*
X48000Y-12500D01*
X46500Y-13000D02*
X47500Y-13000D01*
X46250Y-13250D02*
X46500Y-13000D01*
X41750Y-13250D02*
X46250Y-13250D01*
X28000Y-12500D02*
X30500Y-12500D01*
X33500Y-13000D02*
X34750Y-14250D01*
X31000Y-13000D02*
X33500Y-13000D01*
X30500Y-12500D02*
X31000Y-13000D01*
X40750Y-14250D02*
X34750Y-14250D01*
X33150Y-29000D02*
X32000Y-29000D01*
X31000Y-30000D02*
X27250Y-30000D01*
X32000Y-29000D02*
X31000Y-30000D01*
X18750Y-30000D02*
X18500Y-29750D01*
X27250Y-30000D02*
X18750Y-30000D01*
X27250Y-23000D02*
X26250Y-23000D01*
X23000Y-22750D02*
X22500Y-23250D01*
X26000Y-22750D02*
X23000Y-22750D01*
X26250Y-23000D02*
X26000Y-22750D01*
X27500Y-23250D02*
X27500Y-24000D01*
X27250Y-23000D02*
X27500Y-23250D01*
X21000Y-23250D02*
X22500Y-23250D01*
X23500Y-12500D02*
X27000Y-12500D01*
X23250Y-12500D02*
X23500Y-12500D01*
X13000Y-47500D02*
X13500Y-48000D01*
X13500Y-48000D02*
X15250Y-48000D01*
X47000Y-12500D02*
X47000Y-12500D01*
X46500Y-12500D02*
X47000Y-12500D01*
X41500Y-13000D02*
X46000Y-13000D01*
X46000Y-13000D02*
X46500Y-12500D01*
X27500Y-12000D02*
X33500Y-12000D01*
X33500Y-12000D02*
X35500Y-14000D01*
X35500Y-14000D02*
X40500Y-14000D01*
X27000Y-12500D02*
X27500Y-12000D01*
X40500Y-14000D02*
X41500Y-13000D01*
X23000Y-46750D02*
X17250Y-46750D01*
X16000Y-48000D02*
X17250Y-46750D01*
X25500Y-49250D02*
X23000Y-46750D01*
X25500Y-49250D02*
X29750Y-49250D01*
X29750Y-49250D02*
X30250Y-48750D01*
X15500Y-48000D02*
X16000Y-48000D01*
X15250Y-48000D02*
X15500Y-48000D01*
X32500Y-30000D02*
X32250Y-30250D01*
X33150Y-30000D02*
X32500Y-30000D01*
X27750Y-30250D02*
X32250Y-30250D01*
X21250Y-30250D02*
X21000Y-30500D01*
X27750Y-30250D02*
X21250Y-30250D01*
X20250Y-23000D02*
X20000Y-22750D01*
X34150Y-30000D02*
X33900Y-30000D01*
X33900Y-30000D02*
X33400Y-30500D01*
X15750Y-47000D02*
X15500Y-47250D01*
X15500Y-47250D02*
X14250Y-47250D01*
X16000Y-47000D02*
X15750Y-47000D01*
X26250Y-48000D02*
X25250Y-48000D01*
X25250Y-48000D02*
X23500Y-46250D01*
X23500Y-46250D02*
X16750Y-46250D01*
X27750Y-13000D02*
X30250Y-13000D01*
X30250Y-13000D02*
X31250Y-14000D01*
X31250Y-14000D02*
X33500Y-14000D01*
X33500Y-14000D02*
X34000Y-14500D01*
X34000Y-14500D02*
X41000Y-14500D01*
X27250Y-13500D02*
X27750Y-13000D01*
X27000Y-13500D02*
X27250Y-13500D01*
X26000Y-13500D02*
X25750Y-13750D01*
X27000Y-13500D02*
X26000Y-13500D01*
X23000Y-13750D02*
X25750Y-13750D01*
X22750Y-14000D02*
X23000Y-13750D01*
X13500Y-46500D02*
X14250Y-47250D01*
X13000Y-46500D02*
X13500Y-46500D01*
X16000Y-47000D02*
X16750Y-46250D01*
X46750Y-13500D02*
X42000Y-13500D01*
X42000Y-13500D02*
X41000Y-14500D01*
X46750Y-13500D02*
X46750Y-13500D01*
X47000Y-13500D02*
X46750Y-13500D01*
X17500Y-30750D02*
X16500Y-30750D01*
X18000Y-30250D02*
X17500Y-30750D01*
X20000Y-22750D02*
X17500Y-22750D01*
X17500Y-22750D02*
X17250Y-23000D01*
X21500Y-30500D02*
X21000Y-31000D01*
X21000Y-31000D02*
X20500Y-31000D01*
X20500Y-31000D02*
X19750Y-30250D01*
X19750Y-30250D02*
X18000Y-30250D01*
X33400Y-30500D02*
X21500Y-30500D01*
X28000Y-14500D02*
X27750Y-14500D01*
X24750Y-15000D02*
X27250Y-15000D01*
X27250Y-15000D02*
X27750Y-14500D01*
X24250Y-15500D02*
X24750Y-15000D01*
X47500Y-15000D02*
X48000Y-14500D01*
X31500Y-17000D02*
X29000Y-14500D01*
X34000Y-17000D02*
X31500Y-17000D01*
X35750Y-15250D02*
X34000Y-17000D01*
X41750Y-15250D02*
X35750Y-15250D01*
X28000Y-14500D02*
X29000Y-14500D01*
X46750Y-15000D02*
X46000Y-14250D01*
X46000Y-14250D02*
X42750Y-14250D01*
X42750Y-14250D02*
X41750Y-15250D01*
X47500Y-15000D02*
X46750Y-15000D01*
X25750Y-45000D02*
X15250Y-45000D01*
X13500Y-44750D02*
X13250Y-45000D01*
X14000Y-44750D02*
X13500Y-44750D01*
X12500Y-45000D02*
X13250Y-45000D01*
X12500Y-45000D02*
X12000Y-45500D01*
X14250Y-45000D02*
X14000Y-44750D01*
X15250Y-45000D02*
X14250Y-45000D01*
X18500Y-27000D02*
X18500Y-26750D01*
X24000Y-26500D02*
X23250Y-26500D01*
X18500Y-26750D02*
X19750Y-25500D01*
X19750Y-25500D02*
X22250Y-25500D01*
X22250Y-25500D02*
X23250Y-26500D01*
X34500Y-34000D02*
X34250Y-34250D01*
X32250Y-34250D02*
X31750Y-33750D01*
X34250Y-34250D02*
X32250Y-34250D01*
X29500Y-33000D02*
X30250Y-33750D01*
X30250Y-33750D02*
X31750Y-33750D01*
X25250Y-46000D02*
X25750Y-46000D01*
X27750Y-14000D02*
X29250Y-14000D01*
X29250Y-14000D02*
X31250Y-16000D01*
X31250Y-16000D02*
X33500Y-16000D01*
X33500Y-16000D02*
X34500Y-15000D01*
X34500Y-15000D02*
X41500Y-15000D01*
X27250Y-14500D02*
X27750Y-14000D01*
X27000Y-14500D02*
X27250Y-14500D01*
X26750Y-14500D02*
X26500Y-14750D01*
X27000Y-14500D02*
X26750Y-14500D01*
X24500Y-14750D02*
X26500Y-14750D01*
X25250Y-46000D02*
X25750Y-46000D01*
X46250Y-14000D02*
X42500Y-14000D01*
X42500Y-14000D02*
X41500Y-15000D01*
X46750Y-14500D02*
X46250Y-14000D01*
X47000Y-14500D02*
X46750Y-14500D01*
X13500Y-45750D02*
X15750Y-45750D01*
X15750Y-45750D02*
X16000Y-45500D01*
X16000Y-45500D02*
X24750Y-45500D01*
X24750Y-45500D02*
X25250Y-46000D01*
X13250Y-45500D02*
X13500Y-45750D01*
X13000Y-45500D02*
X13250Y-45500D01*
X28250Y-21250D02*
X23500Y-21250D01*
X23500Y-21250D02*
X23250Y-21500D01*
X28500Y-21500D02*
X28250Y-21250D01*
X23750Y-15500D02*
X23500Y-15500D01*
X24500Y-14750D02*
X23750Y-15500D01*
X15750Y-46500D02*
X15500Y-46750D01*
X15500Y-46750D02*
X14250Y-46750D01*
X16000Y-46500D02*
X16500Y-46000D01*
X25250Y-47000D02*
X25750Y-47000D01*
X24250Y-46000D02*
X25250Y-47000D01*
X16500Y-46000D02*
X24250Y-46000D01*
X15750Y-46500D02*
X16000Y-46500D01*
X47500Y-14000D02*
X48000Y-13500D01*
X28000Y-13500D02*
X27750Y-13500D01*
X12500Y-46000D02*
X12000Y-46500D01*
X13500Y-46000D02*
X14250Y-46750D01*
X12500Y-46000D02*
X13500Y-46000D01*
X33750Y-14750D02*
X41250Y-14750D01*
X33500Y-15000D02*
X33750Y-14750D01*
X28000Y-13500D02*
X29500Y-13500D01*
X29500Y-13500D02*
X31000Y-15000D01*
X31000Y-15000D02*
X33500Y-15000D01*
X46750Y-14000D02*
X46500Y-13750D01*
X46500Y-13750D02*
X42250Y-13750D01*
X42250Y-13750D02*
X41250Y-14750D01*
X47500Y-14000D02*
X46750Y-14000D01*
X17000Y-22500D02*
X16750Y-22750D01*
X26250Y-14500D02*
X24250Y-14500D01*
X26750Y-14000D02*
X26250Y-14500D01*
X27750Y-13500D02*
X27250Y-14000D01*
X27250Y-14000D02*
X26750Y-14000D01*
X22250Y-22500D02*
X22500Y-22750D01*
X17000Y-22500D02*
X22250Y-22500D01*
X22750Y-26500D02*
X20000Y-26500D01*
X20000Y-26500D02*
X19500Y-27000D01*
X23000Y-26750D02*
X22750Y-26500D01*
X45500Y-44500D02*
X47000Y-44500D01*
X43750Y-46250D02*
X44250Y-46250D01*
X41750Y-44250D02*
X43750Y-46250D01*
X27000Y-44500D02*
X24750Y-44500D01*
X17250Y-15500D02*
X16750Y-15500D01*
X16750Y-15500D02*
X13000Y-15500D01*
X17500Y-15750D02*
X17250Y-15500D01*
X21000Y-15750D02*
X17500Y-15750D01*
X23750Y-18500D02*
X21000Y-15750D01*
X26000Y-18500D02*
X23750Y-18500D01*
X28500Y-44000D02*
X31500Y-41000D01*
X27000Y-44500D02*
X27500Y-44000D01*
X27500Y-44000D02*
X28500Y-44000D01*
X31500Y-41000D02*
X33500Y-41000D01*
X36750Y-44250D02*
X33500Y-41000D01*
X41750Y-44250D02*
X36750Y-44250D01*
X27500Y-33750D02*
X27250Y-33500D01*
X37000Y-18750D02*
X36750Y-18500D01*
X35999Y-18500D02*
X34499Y-20000D01*
X36750Y-18500D02*
X35999Y-18500D01*
X25000Y-31750D02*
X24750Y-32000D01*
X19500Y-32000D02*
X19000Y-31500D01*
X24750Y-32000D02*
X19500Y-32000D01*
X24500Y-33000D02*
X25000Y-33500D01*
X25000Y-33500D02*
X27250Y-33500D01*
X25000Y-22000D02*
X25250Y-21750D01*
X25250Y-21750D02*
X27500Y-21750D01*
X34000Y-20000D02*
X34499Y-20000D01*
X33500Y-20500D02*
X34000Y-20000D01*
X33000Y-20500D02*
X33500Y-20500D01*
X43000Y-18750D02*
X45250Y-18750D01*
X29000Y-18750D02*
X28750Y-18750D01*
X28000Y-18500D02*
X28500Y-18500D01*
X28750Y-18750D02*
X28500Y-18500D01*
X30750Y-18000D02*
X29750Y-18000D01*
X29750Y-18000D02*
X29000Y-18750D01*
X48000Y-18500D02*
X47500Y-19000D01*
X45250Y-18750D02*
X45500Y-19000D01*
X45750Y-19000D02*
X47500Y-19000D01*
X45500Y-19000D02*
X45750Y-19000D01*
X28000Y-22250D02*
X27500Y-21750D01*
X28250Y-22250D02*
X29000Y-22250D01*
X28000Y-22250D02*
X28250Y-22250D01*
X32000Y-22000D02*
X29250Y-22000D01*
X29250Y-22000D02*
X29000Y-22250D01*
X32500Y-22500D02*
X32000Y-22000D01*
X14000Y-31500D02*
X19000Y-31500D01*
X14000Y-31500D02*
X13500Y-32000D01*
X25000Y-32500D02*
X21250Y-32500D01*
X21000Y-33250D02*
X20750Y-33500D01*
X21000Y-32750D02*
X21000Y-33250D01*
X21250Y-32500D02*
X21000Y-32750D01*
X37000Y-18250D02*
X35800Y-18250D01*
X34300Y-19750D02*
X32500Y-19750D01*
X35800Y-18250D02*
X34300Y-19750D01*
X32000Y-20250D02*
X32500Y-19750D01*
X43500Y-18500D02*
X47000Y-18500D01*
X43250Y-18250D02*
X43500Y-18500D01*
X29500Y-40000D02*
X29500Y-39000D01*
X30250Y-40750D02*
X29500Y-40000D01*
X30500Y-40750D02*
X30250Y-40750D01*
X25500Y-33000D02*
X25000Y-32500D01*
X32000Y-20500D02*
X32000Y-20250D01*
X27000Y-18500D02*
X27500Y-19000D01*
X29500Y-19000D02*
X30000Y-18500D01*
X27500Y-19000D02*
X29500Y-19000D01*
X47000Y-18500D02*
X47000Y-18500D01*
X13000Y-41500D02*
X15500Y-41500D01*
X16750Y-33500D02*
X16500Y-33750D01*
X20750Y-33500D02*
X16750Y-33500D01*
X32000Y-22500D02*
X31750Y-22250D01*
X29500Y-22250D02*
X29250Y-22500D01*
X31750Y-22250D02*
X29500Y-22250D01*
X27750Y-22500D02*
X29250Y-22500D01*
X27750Y-22500D02*
X27500Y-22250D01*
X26750Y-22250D02*
X27500Y-22250D01*
X37000Y-17750D02*
X35950Y-17750D01*
X34200Y-19500D02*
X32250Y-19500D01*
X35950Y-17750D02*
X34200Y-19500D01*
X31500Y-20000D02*
X31750Y-20000D01*
X31000Y-20500D02*
X31500Y-20000D01*
X31750Y-20000D02*
X32250Y-19500D01*
X43250Y-17750D02*
X43750Y-18250D01*
X43750Y-18250D02*
X43750Y-18299D01*
X43750Y-18299D02*
X43750Y-18250D01*
X46750Y-18000D02*
X46500Y-18250D01*
X43750Y-18250D02*
X43750Y-18250D01*
X46500Y-18250D02*
X43750Y-18250D01*
X17000Y-43500D02*
X21250Y-43500D01*
X22250Y-40500D02*
X22500Y-40500D01*
X22000Y-40750D02*
X22250Y-40500D01*
X21250Y-43500D02*
X22000Y-42750D01*
X47500Y-18000D02*
X48000Y-17500D01*
X28000Y-17500D02*
X29250Y-17500D01*
X22750Y-40750D02*
X22500Y-40500D01*
X29000Y-40750D02*
X22750Y-40750D01*
X29250Y-40500D02*
X29000Y-40750D01*
X17000Y-43500D02*
X15500Y-42000D01*
X15500Y-42000D02*
X12500Y-42000D01*
X12500Y-42000D02*
X12000Y-42500D01*
X46750Y-18000D02*
X47500Y-18000D01*
X14000Y-32500D02*
X15000Y-32500D01*
X13500Y-33000D02*
X14000Y-32500D01*
X13000Y-26750D02*
X13000Y-28500D01*
X13000Y-24000D02*
X12000Y-24000D01*
X26750Y-22750D02*
X26500Y-22750D01*
X31500Y-22750D02*
X26750Y-22750D01*
X26500Y-22750D02*
X26250Y-22500D01*
X26250Y-22500D02*
X22750Y-22500D01*
X22750Y-22500D02*
X22500Y-22250D01*
X15250Y-22250D02*
X15000Y-22500D01*
X15000Y-22500D02*
X13500Y-22500D01*
X13500Y-22500D02*
X13000Y-23000D01*
X13000Y-23000D02*
X13000Y-24000D01*
X22500Y-22250D02*
X15250Y-22250D01*
X12000Y-24000D02*
X12000Y-25750D01*
X12000Y-25750D02*
X13000Y-26750D01*
X13500Y-29000D02*
X13000Y-28500D01*
X13500Y-29000D02*
X15000Y-29000D01*
X29500Y-30750D02*
X21750Y-30750D01*
X29750Y-31000D02*
X29500Y-30750D01*
X37000Y-17250D02*
X36000Y-17250D01*
X36000Y-17250D02*
X34000Y-19250D01*
X31750Y-19250D02*
X34000Y-19250D01*
X31000Y-20000D02*
X31750Y-19250D01*
X30500Y-20000D02*
X31000Y-20000D01*
X30000Y-20500D02*
X30500Y-20000D01*
X43250Y-17250D02*
X44000Y-18000D01*
X44000Y-18000D02*
X44000Y-18049D01*
X44000Y-18049D02*
X44000Y-18000D01*
X47000Y-17500D02*
X46750Y-17500D01*
X46750Y-17500D02*
X46250Y-18000D01*
X44000Y-18000D02*
X44000Y-18000D01*
X46250Y-18000D02*
X44000Y-18000D01*
X29000Y-18250D02*
X28750Y-18000D01*
X27000Y-17500D02*
X27500Y-18000D01*
X27500Y-18000D02*
X28750Y-18000D01*
X29250Y-41000D02*
X22500Y-41000D01*
X21500Y-43750D02*
X22500Y-42750D01*
X16750Y-43750D02*
X21500Y-43750D01*
X16750Y-43750D02*
X16000Y-43000D01*
X15500Y-42500D02*
X16000Y-43000D01*
X13000Y-42500D02*
X15500Y-42500D01*
X21750Y-30750D02*
X21250Y-31250D01*
X21250Y-31250D02*
X20000Y-31250D01*
X20000Y-31250D02*
X19500Y-30750D01*
X19500Y-30750D02*
X18000Y-30750D01*
X37000Y-16750D02*
X36750Y-17000D01*
X35744Y-17000D02*
X33744Y-19000D01*
X36750Y-17000D02*
X35744Y-17000D01*
X31500Y-19000D02*
X33744Y-19000D01*
X29000Y-20500D02*
X29500Y-20000D01*
X30200Y-19799D02*
X30700Y-19799D01*
X30000Y-20000D02*
X30200Y-19799D01*
X29500Y-20000D02*
X30000Y-20000D01*
X30700Y-19799D02*
X31500Y-19000D01*
X43250Y-16750D02*
X44250Y-17750D01*
X46750Y-17000D02*
X46750Y-17049D01*
X46049Y-17750D02*
X44250Y-17750D01*
X46750Y-17049D02*
X46049Y-17750D01*
X26000Y-17500D02*
X26250Y-17500D01*
X26250Y-17500D02*
X26750Y-17000D01*
X27500Y-17000D02*
X26750Y-17000D01*
X28000Y-16500D02*
X27500Y-17000D01*
X11500Y-33000D02*
X11500Y-32750D01*
X23250Y-44000D02*
X16500Y-44000D01*
X16500Y-44000D02*
X15500Y-43000D01*
X15500Y-43000D02*
X12500Y-43000D01*
X12500Y-43000D02*
X12000Y-43500D01*
X25250Y-42000D02*
X28250Y-42000D01*
X25250Y-42000D02*
X23250Y-44000D01*
X29000Y-42500D02*
X28500Y-42000D01*
X28500Y-42000D02*
X28250Y-42000D01*
X46750Y-17000D02*
X47500Y-17000D01*
X47500Y-17000D02*
X48000Y-16500D01*
X18250Y-29250D02*
X18750Y-29250D01*
X17250Y-30250D02*
X16500Y-30250D01*
X16500Y-30250D02*
X15750Y-31000D01*
X15750Y-31000D02*
X13250Y-31000D01*
X11500Y-32750D02*
X13250Y-31000D01*
X17250Y-30250D02*
X18250Y-29250D01*
X28750Y-29750D02*
X19250Y-29750D01*
X19250Y-29750D02*
X18750Y-29250D01*
X30000Y-28500D02*
X28750Y-29750D01*
X28000Y-31250D02*
X27750Y-31000D01*
X22000Y-31000D02*
X21500Y-31500D01*
X27750Y-31000D02*
X22000Y-31000D01*
X33250Y-22250D02*
X33250Y-24500D01*
X33250Y-22250D02*
X32500Y-21500D01*
X28000Y-20500D02*
X29000Y-21500D01*
X29000Y-21500D02*
X32500Y-21500D01*
X31750Y-34500D02*
X31500Y-34250D01*
X46000Y-16750D02*
X45000Y-16750D01*
X44500Y-25000D02*
X42750Y-26750D01*
X45000Y-16750D02*
X44500Y-17250D01*
X46250Y-16500D02*
X47000Y-16500D01*
X46000Y-16750D02*
X46250Y-16500D01*
X29000Y-43000D02*
X26750Y-43000D01*
X26000Y-42250D02*
X25500Y-42250D01*
X25500Y-42250D02*
X23500Y-44250D01*
X26750Y-43000D02*
X26000Y-42250D01*
X12500Y-33000D02*
X12500Y-32250D01*
X12500Y-32250D02*
X13500Y-31250D01*
X19500Y-31250D02*
X13500Y-31250D01*
X19750Y-31500D02*
X19500Y-31250D01*
X21500Y-31500D02*
X19750Y-31500D01*
X12500Y-33000D02*
X12500Y-32750D01*
X15500Y-43500D02*
X16250Y-44250D01*
X16250Y-44250D02*
X23500Y-44250D01*
X13000Y-43500D02*
X15500Y-43500D01*
X12500Y-33500D02*
X13000Y-34000D01*
X13000Y-34000D02*
X14000Y-34000D01*
X12500Y-33000D02*
X12500Y-33500D01*
X40500Y-26750D02*
X42750Y-26750D01*
X36500Y-34500D02*
X31750Y-34500D01*
X40000Y-27250D02*
X40500Y-26750D01*
X36500Y-34500D02*
X36750Y-34750D01*
X36750Y-34750D02*
X37500Y-34750D01*
X37500Y-34750D02*
X38250Y-35500D01*
X38250Y-35500D02*
X39500Y-35500D01*
X39500Y-35500D02*
X40000Y-35000D01*
X25500Y-42750D02*
X23750Y-44500D01*
X25750Y-42750D02*
X25500Y-42750D01*
X28000Y-15500D02*
X27500Y-16000D01*
X26250Y-16500D02*
X25750Y-16500D01*
X26750Y-16000D02*
X26250Y-16500D01*
X27500Y-16000D02*
X26750Y-16000D01*
X28000Y-15500D02*
X28500Y-15500D01*
X23250Y-21000D02*
X26500Y-21000D01*
X26500Y-21000D02*
X27000Y-20500D01*
X12500Y-44000D02*
X14500Y-44000D01*
X23750Y-44500D02*
X16000Y-44500D01*
X16000Y-44500D02*
X15500Y-44000D01*
X14500Y-44000D02*
X15500Y-44000D01*
X13500Y-44000D02*
X14500Y-44000D01*
X12500Y-44000D02*
X13500Y-44000D01*
X12000Y-44500D02*
X12500Y-44000D01*
X36250Y-16000D02*
X36500Y-15750D01*
X36500Y-15750D02*
X36250Y-16000D01*
X42250Y-15750D02*
X36500Y-15750D01*
X28500Y-15500D02*
X28000Y-15500D01*
X30500Y-17500D02*
X28500Y-15500D01*
X47500Y-16000D02*
X46750Y-16000D01*
X46750Y-16000D02*
X45500Y-14750D01*
X45500Y-14750D02*
X43250Y-14750D01*
X43250Y-14750D02*
X42250Y-15750D01*
X48000Y-15500D02*
X47500Y-16000D01*
X23250Y-21000D02*
X23250Y-21000D01*
X14500Y-22000D02*
X12750Y-22000D01*
X15500Y-21000D02*
X14500Y-22000D01*
X26500Y-21000D02*
X15500Y-21000D01*
X12750Y-22000D02*
X12250Y-22500D01*
X31500Y-18000D02*
X33500Y-18000D01*
X27750Y-15000D02*
X28500Y-15000D01*
X28500Y-15000D02*
X31500Y-18000D01*
X33500Y-18000D02*
X36000Y-15500D01*
X42000Y-15500D02*
X36000Y-15500D01*
X45750Y-14500D02*
X43000Y-14500D01*
X43000Y-14500D02*
X42000Y-15500D01*
X46750Y-15500D02*
X45750Y-14500D01*
X27750Y-15000D02*
X27250Y-15500D01*
X13000Y-44500D02*
X14500Y-44500D01*
X27000Y-15500D02*
X27250Y-15500D01*
X47000Y-15500D02*
X46750Y-15500D01*
X24000Y-44750D02*
X15750Y-44750D01*
X24750Y-44000D02*
X24000Y-44750D01*
X25750Y-44000D02*
X24750Y-44000D01*
X15750Y-44750D02*
X15500Y-44500D01*
X14500Y-44500D02*
X15500Y-44500D01*
X17500Y-27000D02*
X17500Y-26750D01*
X23250Y-26000D02*
X22500Y-25250D01*
X19250Y-25250D02*
X22500Y-25250D01*
X17500Y-27000D02*
X19250Y-25250D01*
X25500Y-26250D02*
X25250Y-26000D01*
X25250Y-26000D02*
X23250Y-26000D01*
X25750Y-17000D02*
X25000Y-16250D01*
X25000Y-16250D02*
X22500Y-16250D01*
X26250Y-17000D02*
X25750Y-17000D01*
X17250Y-14500D02*
X18000Y-15250D01*
X14500Y-14500D02*
X15250Y-14500D01*
X15250Y-14500D02*
X17250Y-14500D01*
X18000Y-15250D02*
X21500Y-15250D01*
X21500Y-15250D02*
X22500Y-16250D01*
X27000Y-45500D02*
X25250Y-45500D01*
X14000Y-45500D02*
X15500Y-45500D01*
X15500Y-45500D02*
X15750Y-45250D01*
X13750Y-45250D02*
X14000Y-45500D01*
X25000Y-45250D02*
X15750Y-45250D01*
X25250Y-45500D02*
X25000Y-45250D01*
X29500Y-45000D02*
X31500Y-43000D01*
X27000Y-45500D02*
X27500Y-45000D01*
X27500Y-45000D02*
X29500Y-45000D01*
X13000Y-14500D02*
X14500Y-14500D01*
X43800Y-47000D02*
X41550Y-44750D01*
X45199Y-47000D02*
X43800Y-47000D01*
X46699Y-45500D02*
X45199Y-47000D01*
X47000Y-45500D02*
X46699Y-45500D01*
X34500Y-43000D02*
X31500Y-43000D01*
X35500Y-44750D02*
X35000Y-44250D01*
X35000Y-44250D02*
X35000Y-43500D01*
X35000Y-43500D02*
X34500Y-43000D01*
X41550Y-44750D02*
X35500Y-44750D01*
X11500Y-27000D02*
X11250Y-26750D01*
X11250Y-21500D02*
X12000Y-20750D01*
X11250Y-26750D02*
X11250Y-21500D01*
X12500Y-23000D02*
X13250Y-22250D01*
X13250Y-22250D02*
X14750Y-22250D01*
X15000Y-22000D02*
X14750Y-22250D01*
X28250Y-22000D02*
X27750Y-21500D01*
X23750Y-21500D02*
X23250Y-22000D01*
X27750Y-21500D02*
X23750Y-21500D01*
X33000Y-22500D02*
X32250Y-21750D01*
X28750Y-22000D02*
X28250Y-22000D01*
X23250Y-22000D02*
X15000Y-22000D01*
X29000Y-21750D02*
X28750Y-22000D01*
X32250Y-21750D02*
X29000Y-21750D01*
X33000Y-22500D02*
X33000Y-23000D01*
X11750Y-26250D02*
X11750Y-23500D01*
X11750Y-23500D02*
X12250Y-23000D01*
X12250Y-23000D02*
X12500Y-23000D01*
X11750Y-26250D02*
X12500Y-27000D01*
X32500Y-23500D02*
X33000Y-23000D01*
X32500Y-24000D02*
X32500Y-23500D01*
X46500Y-46000D02*
X45250Y-47250D01*
X43650Y-47250D02*
X41400Y-45000D01*
X45250Y-47250D02*
X43650Y-47250D01*
X46500Y-46000D02*
X46750Y-46000D01*
X46750Y-46000D02*
X47500Y-46000D01*
X47500Y-46000D02*
X48000Y-45500D01*
X33750Y-44000D02*
X34500Y-44000D01*
X28000Y-45500D02*
X30250Y-45500D01*
X30250Y-45500D02*
X31750Y-44000D01*
X31750Y-44000D02*
X33750Y-44000D01*
X32000Y-39500D02*
X32750Y-38750D01*
X32750Y-38750D02*
X33250Y-38750D01*
X35000Y-45000D02*
X34500Y-44500D01*
X34500Y-44500D02*
X34500Y-44000D01*
X41400Y-45000D02*
X35000Y-45000D01*
X12500Y-14000D02*
X12000Y-14500D01*
X17250Y-14000D02*
X12500Y-14000D01*
X18200Y-14950D02*
X17250Y-14000D01*
X21700Y-14950D02*
X18200Y-14950D01*
X22750Y-16000D02*
X21700Y-14950D01*
X26250Y-16000D02*
X22750Y-16000D01*
X34000Y-39500D02*
X33250Y-38750D01*
X16000Y-46000D02*
X15250Y-46000D01*
X15250Y-46000D02*
X15000Y-46250D01*
X16250Y-45750D02*
X16000Y-46000D01*
X25250Y-46500D02*
X24500Y-45750D01*
X27000Y-46500D02*
X25250Y-46500D01*
X24500Y-45750D02*
X16250Y-45750D01*
X13500Y-28500D02*
X13500Y-27000D01*
X11500Y-37000D02*
X11000Y-37500D01*
X12000Y-37000D02*
X11500Y-37000D01*
X46500Y-46500D02*
X47000Y-46500D01*
X35000Y-45250D02*
X41250Y-45250D01*
X13000Y-13500D02*
X15000Y-13500D01*
X34250Y-45250D02*
X35000Y-45250D01*
X27000Y-46500D02*
X27500Y-46000D01*
X33500Y-45250D02*
X34250Y-45250D01*
X33250Y-45000D02*
X33500Y-45250D01*
X31500Y-45000D02*
X33250Y-45000D01*
X30500Y-46000D02*
X31500Y-45000D01*
X27500Y-46000D02*
X30500Y-46000D01*
X45500Y-47500D02*
X43500Y-47500D01*
X43500Y-47500D02*
X41250Y-45250D01*
X46500Y-46500D02*
X45500Y-47500D01*
X15000Y-13500D02*
X15500Y-13500D01*
X15500Y-13500D02*
X17250Y-13500D01*
X18500Y-14750D02*
X17250Y-13500D01*
X23500Y-14750D02*
X18500Y-14750D01*
X23750Y-15000D02*
X23500Y-14750D01*
X47500Y-47000D02*
X48000Y-46500D01*
X46500Y-47000D02*
X47500Y-47000D01*
X34250Y-46000D02*
X34500Y-46000D01*
X35000Y-46000D02*
X35500Y-45500D01*
X35500Y-45500D02*
X41000Y-45500D01*
X34500Y-46000D02*
X35000Y-46000D01*
X31000Y-46000D02*
X34250Y-46000D01*
X28000Y-46500D02*
X30500Y-46500D01*
X30500Y-46500D02*
X31000Y-46000D01*
X12500Y-13000D02*
X17250Y-13000D01*
X17250Y-13000D02*
X18750Y-14500D01*
X12000Y-13500D02*
X12500Y-13000D01*
X23500Y-14500D02*
X18750Y-14500D01*
X24000Y-14000D02*
X23500Y-14500D01*
X26250Y-14000D02*
X24000Y-14000D01*
X28000Y-46500D02*
X27750Y-46500D01*
X45750Y-47750D02*
X43250Y-47750D01*
X43250Y-47750D02*
X41000Y-45500D01*
X46500Y-47000D02*
X45750Y-47750D01*
X27750Y-46500D02*
X27250Y-47000D01*
X26500Y-47000D02*
X26000Y-47500D01*
X27250Y-47000D02*
X26500Y-47000D01*
X14000Y-32000D02*
X19000Y-32000D01*
X26000Y-47500D02*
X25250Y-47500D01*
X14500Y-27500D02*
X14000Y-28000D01*
X14500Y-27000D02*
X14500Y-27500D01*
X46000Y-48000D02*
X43000Y-48000D01*
X40750Y-45750D02*
X35750Y-45750D01*
X43000Y-48000D02*
X40750Y-45750D01*
X27750Y-47000D02*
X27250Y-47500D01*
X27250Y-47500D02*
X27000Y-47500D01*
X46500Y-47500D02*
X47000Y-47500D01*
X27750Y-47000D02*
X34000Y-47000D01*
X34500Y-47000D02*
X35750Y-45750D01*
X34000Y-47000D02*
X34500Y-47000D01*
X13000Y-12500D02*
X15500Y-12500D01*
X15500Y-12500D02*
X16000Y-12500D01*
X16000Y-12500D02*
X17250Y-12500D01*
X22500Y-13000D02*
X25500Y-13000D01*
X46500Y-47500D02*
X46000Y-48000D01*
X17000Y-26750D02*
X17000Y-27250D01*
X26250Y-26500D02*
X25500Y-25750D01*
X23500Y-25750D02*
X22750Y-25000D01*
X25500Y-25750D02*
X23500Y-25750D01*
X28500Y-27000D02*
X28000Y-26500D01*
X28000Y-26500D02*
X26250Y-26500D01*
X18750Y-25000D02*
X22750Y-25000D01*
X18750Y-25000D02*
X17000Y-26750D01*
X19000Y-14250D02*
X21250Y-14250D01*
X21250Y-14250D02*
X22500Y-13000D01*
X17250Y-12500D02*
X19000Y-14250D01*
X16500Y-27750D02*
X17000Y-27250D01*
X27750Y-37000D02*
X26250Y-37000D01*
X28500Y-36250D02*
X27750Y-37000D01*
X29250Y-36250D02*
X28500Y-36250D01*
X29500Y-36000D02*
X29250Y-36250D01*
X21399Y-38399D02*
X21000Y-38000D01*
X24850Y-38399D02*
X21399Y-38399D01*
X26250Y-37000D02*
X24850Y-38399D01*
X46750Y-48000D02*
X46500Y-48000D01*
X42744Y-48250D02*
X40494Y-46000D01*
X46250Y-48250D02*
X42744Y-48250D01*
X46500Y-48000D02*
X46250Y-48250D01*
X26750Y-48000D02*
X26250Y-48500D01*
X27500Y-48000D02*
X26750Y-48000D01*
X28000Y-47500D02*
X27500Y-48000D01*
X28000Y-47500D02*
X30500Y-47500D01*
X30500Y-47500D02*
X31000Y-48000D01*
X31000Y-48000D02*
X34000Y-48000D01*
X34000Y-48000D02*
X36000Y-46000D01*
X36000Y-46000D02*
X40494Y-46000D01*
X47500Y-48000D02*
X48000Y-47500D01*
X46750Y-48000D02*
X47500Y-48000D01*
X12500Y-12000D02*
X16000Y-12000D01*
X12000Y-12500D02*
X12500Y-12000D01*
X16000Y-12000D02*
X17250Y-12000D01*
X17250Y-12000D02*
X19250Y-14000D01*
X19250Y-14000D02*
X21000Y-14000D01*
X21000Y-14000D02*
X23000Y-12000D01*
X23000Y-12000D02*
X26250Y-12000D01*
X28000Y-39000D02*
X28750Y-38250D01*
X28000Y-39500D02*
X28000Y-39000D01*
X28750Y-38250D02*
X30000Y-38250D01*
X28750Y-26250D02*
X26500Y-26250D01*
X29500Y-27000D02*
X28750Y-26250D01*
X25750Y-25500D02*
X26500Y-26250D01*
X23000Y-24750D02*
X23750Y-25500D01*
X23750Y-25500D02*
X25750Y-25500D01*
X18500Y-24750D02*
X23000Y-24750D01*
X16500Y-26750D02*
X18500Y-24750D01*
X16500Y-27000D02*
X16500Y-26750D01*
G54D28*
X46750Y-31000D02*
X46500Y-31000D01*
X46000Y-31500D02*
X46000Y-33250D01*
X46500Y-31000D02*
X46000Y-31500D01*
X12000Y-48500D02*
X13000Y-48500D01*
X32000Y-48500D02*
X33000Y-48500D01*
X27000Y-11500D02*
X28000Y-11500D01*
X47750Y-31000D02*
X46750Y-31000D01*
X47000Y-48500D02*
X46250Y-49250D01*
X41500Y-49000D02*
X41500Y-47500D01*
X41750Y-49250D02*
X41500Y-49000D01*
X46250Y-49250D02*
X41750Y-49250D01*
X28000Y-48500D02*
X28750Y-48500D01*
X30250Y-48000D02*
X31500Y-49250D01*
X29250Y-48000D02*
X30250Y-48000D01*
X28750Y-48500D02*
X29250Y-48000D01*
X48250Y-32000D02*
X49000Y-32750D01*
X49000Y-47750D02*
X48250Y-48500D01*
X49000Y-32750D02*
X49000Y-47750D01*
X48250Y-48500D02*
X47000Y-48500D01*
X33500Y-49250D02*
X31500Y-49250D01*
X36250Y-46500D02*
X33500Y-49250D01*
X40500Y-46500D02*
X36250Y-46500D01*
X41500Y-47500D02*
X40500Y-46500D01*
X28000Y-48500D02*
X27000Y-48500D01*
X32000Y-11500D02*
X33000Y-11500D01*
X12000Y-11500D02*
X13000Y-11500D01*
X19550Y-13550D02*
X18500Y-12500D01*
X20850Y-13550D02*
X19550Y-13550D01*
X21750Y-12650D02*
X20850Y-13550D01*
X29100Y-11500D02*
X28425Y-10825D01*
X32000Y-11500D02*
X29100Y-11500D01*
X33750Y-11500D02*
X35750Y-13500D01*
X35750Y-13500D02*
X40500Y-13500D01*
X40500Y-13500D02*
X43250Y-10750D01*
X43250Y-10750D02*
X48500Y-10750D01*
X48500Y-10750D02*
X49000Y-11250D01*
X49000Y-11250D02*
X49000Y-31250D01*
X49000Y-31250D02*
X48250Y-32000D01*
X48250Y-32000D02*
X47750Y-32000D01*
X33000Y-11500D02*
X33750Y-11500D01*
X47750Y-32000D02*
X46750Y-32000D01*
X18250Y-11500D02*
X18500Y-11750D01*
X18500Y-11750D02*
X18500Y-12500D01*
X13000Y-11500D02*
X18250Y-11500D01*
X22175Y-10825D02*
X21750Y-11250D01*
X21750Y-11250D02*
X21750Y-12650D01*
X28425Y-10825D02*
X22175Y-10825D01*
G54D29*
X44500Y-31000D02*
X45750Y-31000D01*
X47250Y-30500D02*
X47750Y-30000D01*
X46250Y-30500D02*
X47250Y-30500D01*
X45750Y-31000D02*
X46250Y-30500D01*
X46000Y-19250D02*
X48500Y-19250D01*
X45750Y-19500D02*
X46000Y-19250D01*
X45000Y-19500D02*
X45750Y-19500D01*
X46250Y-19500D02*
X48149Y-19500D01*
X48649Y-23600D02*
X48000Y-24250D01*
X48649Y-20000D02*
X48649Y-23600D01*
X48149Y-19500D02*
X48649Y-20000D01*
X45250Y-20250D02*
X45750Y-19750D01*
X46000Y-19750D02*
X46250Y-19500D01*
X45750Y-19750D02*
X46000Y-19750D01*
X43750Y-19500D02*
X44500Y-20250D01*
X44500Y-20250D02*
X45250Y-20250D01*
X37750Y-28500D02*
X37800Y-28500D01*
X26875Y-32625D02*
X27000Y-32500D01*
X27500Y-32500D02*
X27750Y-32250D01*
X27000Y-32500D02*
X27500Y-32500D01*
X36000Y-31000D02*
X34750Y-32250D01*
X32000Y-32250D02*
X31250Y-31500D01*
X34750Y-32250D02*
X32000Y-32250D01*
X31000Y-31500D02*
X31250Y-31500D01*
X26500Y-33000D02*
X26875Y-32625D01*
X27750Y-32250D02*
X30250Y-32250D01*
X31000Y-31500D02*
X30250Y-32250D01*
X31750Y-33500D02*
X32000Y-33500D01*
X34000Y-34000D02*
X34500Y-33500D01*
X32500Y-34000D02*
X34000Y-34000D01*
X32000Y-33500D02*
X32500Y-34000D01*
X42500Y-33750D02*
X35000Y-33750D01*
X34750Y-33500D02*
X34500Y-33500D01*
X35000Y-33750D02*
X34750Y-33500D01*
X43000Y-34250D02*
X42500Y-33750D01*
X31750Y-33500D02*
X30750Y-32500D01*
X27500Y-33000D02*
X28000Y-32500D01*
X28000Y-32500D02*
X30750Y-32500D01*
X46000Y-24500D02*
X46250Y-24250D01*
X45000Y-24500D02*
X46000Y-24500D01*
X24000Y-25250D02*
X23299Y-24549D01*
X26000Y-25250D02*
X24000Y-25250D01*
X26500Y-25750D02*
X26000Y-25250D01*
X27500Y-25750D02*
X26500Y-25750D01*
X13250Y-25250D02*
X17500Y-25250D01*
X17500Y-25250D02*
X18200Y-24549D01*
X18200Y-24549D02*
X23299Y-24549D01*
X12500Y-24500D02*
X13250Y-25250D01*
X16500Y-28250D02*
X16750Y-28250D01*
X16750Y-28250D02*
X17500Y-27500D01*
X17500Y-27500D02*
X19500Y-27500D01*
X19500Y-27500D02*
X20250Y-28250D01*
X20250Y-28250D02*
X25250Y-28250D01*
X25250Y-28250D02*
X25500Y-28500D01*
X15000Y-28250D02*
X16500Y-28250D01*
X26500Y-25250D02*
X26250Y-25000D01*
X26250Y-25000D02*
X24250Y-25000D01*
X24250Y-25000D02*
X23500Y-24250D01*
X15000Y-25000D02*
X17250Y-25000D01*
X17250Y-25000D02*
X18000Y-24250D01*
X18000Y-24250D02*
X23500Y-24250D01*
X14500Y-24500D02*
X15000Y-25000D01*
X17500Y-24000D02*
X24500Y-24000D01*
X17000Y-24500D02*
X17500Y-24000D01*
X16750Y-24500D02*
X17000Y-24500D01*
X16500Y-24500D02*
X16750Y-24500D01*
X28500Y-35750D02*
X28250Y-35500D01*
X28250Y-35500D02*
X25250Y-35500D01*
X29000Y-35750D02*
X29250Y-35500D01*
X36000Y-35500D02*
X36250Y-35250D01*
X29250Y-35500D02*
X36000Y-35500D01*
X24750Y-35000D02*
X25250Y-35500D01*
X28500Y-35750D02*
X29000Y-35750D01*
X31000Y-32000D02*
X31750Y-32750D01*
X35250Y-32750D02*
X36250Y-31750D01*
X31750Y-32750D02*
X35250Y-32750D01*
G54D28*
X43650Y-37300D02*
X43600Y-37250D01*
X43600Y-37250D02*
X43250Y-37250D01*
X43650Y-37300D02*
X43300Y-37300D01*
X20500Y-34000D02*
X20750Y-34250D01*
X20750Y-34250D02*
X23500Y-34250D01*
X43000Y-31250D02*
X43000Y-31244D01*
X43000Y-31244D02*
X44494Y-29750D01*
X44494Y-29750D02*
X44750Y-29750D01*
X43900Y-21100D02*
X44000Y-21000D01*
X42200Y-21100D02*
X43900Y-21100D01*
X28750Y-35000D02*
X35750Y-35000D01*
X28750Y-35000D02*
X25750Y-35000D01*
X25750Y-35000D02*
X25000Y-34250D01*
X37500Y-26250D02*
X36750Y-25500D01*
X42750Y-26250D02*
X37500Y-26250D01*
X43000Y-31250D02*
X43000Y-31500D01*
X43000Y-31500D02*
X42250Y-32250D01*
X42000Y-32250D02*
X42250Y-32250D01*
X38750Y-30750D02*
X38750Y-31500D01*
X38750Y-31500D02*
X39500Y-32250D01*
X39500Y-32250D02*
X42000Y-32250D01*
X47000Y-42500D02*
X45250Y-42500D01*
X34150Y-29000D02*
X36000Y-29000D01*
X16750Y-21500D02*
X19250Y-21500D01*
X19250Y-21500D02*
X21750Y-21500D01*
X13000Y-17500D02*
X15750Y-17500D01*
G54D29*
X13500Y-23000D02*
X13750Y-22750D01*
X13750Y-22750D02*
X16250Y-22750D01*
X13500Y-23500D02*
X13500Y-23000D01*
G54D28*
X24500Y-34250D02*
X25000Y-34250D01*
X24500Y-34250D02*
X24000Y-34750D01*
X23500Y-34250D02*
X24000Y-34750D01*
G54D29*
G36*
X12519Y-23505D02*
X12505Y-23519D01*
X12500Y-23514D01*
X12494Y-23519D01*
X12480Y-23505D01*
X12485Y-23500D01*
X12480Y-23494D01*
X12494Y-23480D01*
X12500Y-23485D01*
X12505Y-23480D01*
X12519Y-23494D01*
X12514Y-23500D01*
X12519Y-23505D01*
X12519Y-23505D01*
G37*
X12519Y-23505D02*
X12505Y-23519D01*
X12500Y-23514D01*
X12494Y-23519D01*
X12480Y-23505D01*
X12485Y-23500D01*
X12480Y-23494D01*
X12494Y-23480D01*
X12500Y-23485D01*
X12505Y-23480D01*
X12519Y-23494D01*
X12514Y-23500D01*
X12519Y-23505D01*
G36*
X14172Y-23050D02*
X14034Y-23188D01*
X14000Y-23269D01*
X13966Y-23188D01*
X13851Y-23073D01*
X13874Y-23050D01*
X14172Y-23050D01*
X14172Y-23050D01*
G37*
X14172Y-23050D02*
X14034Y-23188D01*
X14000Y-23269D01*
X13966Y-23188D01*
X13851Y-23073D01*
X13874Y-23050D01*
X14172Y-23050D01*
G36*
X14269Y-23999D02*
X14188Y-24033D01*
X14034Y-24188D01*
X14000Y-24269D01*
X13966Y-24188D01*
X13811Y-24034D01*
X13730Y-24000D01*
X13811Y-23966D01*
X13965Y-23811D01*
X13999Y-23730D01*
X14033Y-23811D01*
X14188Y-23965D01*
X14269Y-23999D01*
X14269Y-23999D01*
G37*
X14269Y-23999D02*
X14188Y-24033D01*
X14034Y-24188D01*
X14000Y-24269D01*
X13966Y-24188D01*
X13811Y-24034D01*
X13730Y-24000D01*
X13811Y-23966D01*
X13965Y-23811D01*
X13999Y-23730D01*
X14033Y-23811D01*
X14188Y-23965D01*
X14269Y-23999D01*
G36*
X16519Y-23505D02*
X16505Y-23519D01*
X16500Y-23514D01*
X16494Y-23519D01*
X16480Y-23505D01*
X16485Y-23500D01*
X16480Y-23494D01*
X16494Y-23480D01*
X16500Y-23485D01*
X16505Y-23480D01*
X16519Y-23494D01*
X16514Y-23500D01*
X16519Y-23505D01*
X16519Y-23505D01*
G37*
X16519Y-23505D02*
X16505Y-23519D01*
X16500Y-23514D01*
X16494Y-23519D01*
X16480Y-23505D01*
X16485Y-23500D01*
X16480Y-23494D01*
X16494Y-23480D01*
X16500Y-23485D01*
X16505Y-23480D01*
X16519Y-23494D01*
X16514Y-23500D01*
X16519Y-23505D01*
G36*
X17275Y-25550D02*
X16318Y-26506D01*
X16203Y-26554D01*
X16055Y-26702D01*
X15999Y-26835D01*
X15945Y-26703D01*
X15797Y-26555D01*
X15604Y-26475D01*
X15396Y-26474D01*
X15203Y-26554D01*
X15055Y-26702D01*
X14999Y-26835D01*
X14945Y-26703D01*
X14797Y-26555D01*
X14604Y-26475D01*
X14396Y-26474D01*
X14203Y-26554D01*
X14055Y-26702D01*
X13999Y-26835D01*
X13945Y-26703D01*
X13797Y-26555D01*
X13604Y-26475D01*
X13396Y-26474D01*
X13218Y-26548D01*
X13218Y-26548D01*
X13212Y-26537D01*
X13212Y-26537D01*
X12300Y-25625D01*
X12300Y-25050D01*
X12625Y-25050D01*
X13037Y-25462D01*
X13135Y-25527D01*
X13135Y-25527D01*
X13250Y-25550D01*
X17275Y-25550D01*
X17275Y-25550D01*
G37*
X17275Y-25550D02*
X16318Y-26506D01*
X16203Y-26554D01*
X16055Y-26702D01*
X15999Y-26835D01*
X15945Y-26703D01*
X15797Y-26555D01*
X15604Y-26475D01*
X15396Y-26474D01*
X15203Y-26554D01*
X15055Y-26702D01*
X14999Y-26835D01*
X14945Y-26703D01*
X14797Y-26555D01*
X14604Y-26475D01*
X14396Y-26474D01*
X14203Y-26554D01*
X14055Y-26702D01*
X13999Y-26835D01*
X13945Y-26703D01*
X13797Y-26555D01*
X13604Y-26475D01*
X13396Y-26474D01*
X13218Y-26548D01*
X13218Y-26548D01*
X13212Y-26537D01*
X13212Y-26537D01*
X12300Y-25625D01*
X12300Y-25050D01*
X12625Y-25050D01*
X13037Y-25462D01*
X13135Y-25527D01*
X13135Y-25527D01*
X13250Y-25550D01*
X17275Y-25550D01*
G36*
X18419Y-20505D02*
X18405Y-20519D01*
X18400Y-20514D01*
X18394Y-20519D01*
X18380Y-20505D01*
X18385Y-20500D01*
X17957Y-20071D01*
X17828Y-20094D01*
X17734Y-20000D01*
X17517Y-19910D01*
X17283Y-19909D01*
X17066Y-19999D01*
X16900Y-20165D01*
X16810Y-20382D01*
X16809Y-20616D01*
X16844Y-20700D01*
X15525Y-20700D01*
X15540Y-20245D01*
X15325Y-19675D01*
X15268Y-19590D01*
X15049Y-19465D01*
X15034Y-19479D01*
X15034Y-19450D01*
X14909Y-19231D01*
X14354Y-18979D01*
X13745Y-18959D01*
X13175Y-19174D01*
X13090Y-19231D01*
X12965Y-19450D01*
X14000Y-20485D01*
X15034Y-19450D01*
X15034Y-19479D01*
X14014Y-20500D01*
X14019Y-20505D01*
X14005Y-20519D01*
X14000Y-20514D01*
X13985Y-20528D01*
X13985Y-20500D01*
X12950Y-19465D01*
X12731Y-19590D01*
X12479Y-20145D01*
X12459Y-20754D01*
X12674Y-21324D01*
X12731Y-21409D01*
X12950Y-21534D01*
X13985Y-20500D01*
X13985Y-20528D01*
X12965Y-21549D01*
X13051Y-21700D01*
X12750Y-21700D01*
X12635Y-21722D01*
X12537Y-21787D01*
X12250Y-22075D01*
X12165Y-22074D01*
X12009Y-22139D01*
X11889Y-22258D01*
X11825Y-22415D01*
X11824Y-22584D01*
X11889Y-22740D01*
X11987Y-22838D01*
X11550Y-23275D01*
X11550Y-21624D01*
X11999Y-21174D01*
X12084Y-21175D01*
X12240Y-21110D01*
X12360Y-20991D01*
X12424Y-20834D01*
X12425Y-20665D01*
X12360Y-20509D01*
X12241Y-20389D01*
X12084Y-20325D01*
X11915Y-20324D01*
X11759Y-20389D01*
X11639Y-20508D01*
X11575Y-20665D01*
X11574Y-20750D01*
X11200Y-21125D01*
X11200Y-18936D01*
X11445Y-18690D01*
X11454Y-18737D01*
X11582Y-18928D01*
X11774Y-19056D01*
X12000Y-19101D01*
X12225Y-19056D01*
X12385Y-18950D01*
X12434Y-18950D01*
X12448Y-18981D01*
X12518Y-19051D01*
X12610Y-19090D01*
X12709Y-19090D01*
X13389Y-19090D01*
X13481Y-19051D01*
X13551Y-18981D01*
X13565Y-18950D01*
X17313Y-18950D01*
X18200Y-19837D01*
X18023Y-19905D01*
X17994Y-19925D01*
X17971Y-20057D01*
X18400Y-20485D01*
X18405Y-20480D01*
X18419Y-20494D01*
X18414Y-20500D01*
X18419Y-20505D01*
X18419Y-20505D01*
G37*
X18419Y-20505D02*
X18405Y-20519D01*
X18400Y-20514D01*
X18394Y-20519D01*
X18380Y-20505D01*
X18385Y-20500D01*
X17957Y-20071D01*
X17828Y-20094D01*
X17734Y-20000D01*
X17517Y-19910D01*
X17283Y-19909D01*
X17066Y-19999D01*
X16900Y-20165D01*
X16810Y-20382D01*
X16809Y-20616D01*
X16844Y-20700D01*
X15525Y-20700D01*
X15540Y-20245D01*
X15325Y-19675D01*
X15268Y-19590D01*
X15049Y-19465D01*
X15034Y-19479D01*
X15034Y-19450D01*
X14909Y-19231D01*
X14354Y-18979D01*
X13745Y-18959D01*
X13175Y-19174D01*
X13090Y-19231D01*
X12965Y-19450D01*
X14000Y-20485D01*
X15034Y-19450D01*
X15034Y-19479D01*
X14014Y-20500D01*
X14019Y-20505D01*
X14005Y-20519D01*
X14000Y-20514D01*
X13985Y-20528D01*
X13985Y-20500D01*
X12950Y-19465D01*
X12731Y-19590D01*
X12479Y-20145D01*
X12459Y-20754D01*
X12674Y-21324D01*
X12731Y-21409D01*
X12950Y-21534D01*
X13985Y-20500D01*
X13985Y-20528D01*
X12965Y-21549D01*
X13051Y-21700D01*
X12750Y-21700D01*
X12635Y-21722D01*
X12537Y-21787D01*
X12250Y-22075D01*
X12165Y-22074D01*
X12009Y-22139D01*
X11889Y-22258D01*
X11825Y-22415D01*
X11824Y-22584D01*
X11889Y-22740D01*
X11987Y-22838D01*
X11550Y-23275D01*
X11550Y-21624D01*
X11999Y-21174D01*
X12084Y-21175D01*
X12240Y-21110D01*
X12360Y-20991D01*
X12424Y-20834D01*
X12425Y-20665D01*
X12360Y-20509D01*
X12241Y-20389D01*
X12084Y-20325D01*
X11915Y-20324D01*
X11759Y-20389D01*
X11639Y-20508D01*
X11575Y-20665D01*
X11574Y-20750D01*
X11200Y-21125D01*
X11200Y-18936D01*
X11445Y-18690D01*
X11454Y-18737D01*
X11582Y-18928D01*
X11774Y-19056D01*
X12000Y-19101D01*
X12225Y-19056D01*
X12385Y-18950D01*
X12434Y-18950D01*
X12448Y-18981D01*
X12518Y-19051D01*
X12610Y-19090D01*
X12709Y-19090D01*
X13389Y-19090D01*
X13481Y-19051D01*
X13551Y-18981D01*
X13565Y-18950D01*
X17313Y-18950D01*
X18200Y-19837D01*
X18023Y-19905D01*
X17994Y-19925D01*
X17971Y-20057D01*
X18400Y-20485D01*
X18405Y-20480D01*
X18419Y-20494D01*
X18414Y-20500D01*
X18419Y-20505D01*
G36*
X20519Y-26005D02*
X20505Y-26019D01*
X20500Y-26014D01*
X20494Y-26019D01*
X20480Y-26005D01*
X20485Y-26000D01*
X20480Y-25994D01*
X20494Y-25980D01*
X20500Y-25985D01*
X20505Y-25980D01*
X20519Y-25994D01*
X20514Y-26000D01*
X20519Y-26005D01*
X20519Y-26005D01*
G37*
X20519Y-26005D02*
X20505Y-26019D01*
X20500Y-26014D01*
X20494Y-26019D01*
X20480Y-26005D01*
X20485Y-26000D01*
X20480Y-25994D01*
X20494Y-25980D01*
X20500Y-25985D01*
X20505Y-25980D01*
X20519Y-25994D01*
X20514Y-26000D01*
X20519Y-26005D01*
G36*
X24622Y-21800D02*
X24575Y-21915D01*
X24574Y-22084D01*
X24622Y-22200D01*
X23474Y-22200D01*
X23874Y-21800D01*
X24622Y-21800D01*
X24622Y-21800D01*
G37*
X24622Y-21800D02*
X24575Y-21915D01*
X24574Y-22084D01*
X24622Y-22200D01*
X23474Y-22200D01*
X23874Y-21800D01*
X24622Y-21800D01*
G36*
X24813Y-40450D02*
X23428Y-40450D01*
X23428Y-39942D01*
X23000Y-39514D01*
X22571Y-39942D01*
X22594Y-40074D01*
X22845Y-40186D01*
X23119Y-40193D01*
X23376Y-40094D01*
X23405Y-40074D01*
X23428Y-39942D01*
X23428Y-40450D01*
X22874Y-40450D01*
X22712Y-40287D01*
X22614Y-40222D01*
X22500Y-40200D01*
X22428Y-40200D01*
X22428Y-39942D01*
X22000Y-39514D01*
X21571Y-39942D01*
X21594Y-40074D01*
X21845Y-40186D01*
X22119Y-40193D01*
X22376Y-40094D01*
X22405Y-40074D01*
X22428Y-39942D01*
X22428Y-40200D01*
X22250Y-40200D01*
X22135Y-40222D01*
X22096Y-40248D01*
X22037Y-40287D01*
X22000Y-40325D01*
X21915Y-40324D01*
X21759Y-40389D01*
X21642Y-40506D01*
X21450Y-40313D01*
X21450Y-39909D01*
X21557Y-39928D01*
X21985Y-39500D01*
X21980Y-39494D01*
X21994Y-39480D01*
X22000Y-39485D01*
X22005Y-39480D01*
X22019Y-39494D01*
X22014Y-39500D01*
X22442Y-39928D01*
X22500Y-39918D01*
X22557Y-39928D01*
X22985Y-39500D01*
X22980Y-39494D01*
X22994Y-39480D01*
X23000Y-39485D01*
X23005Y-39480D01*
X23019Y-39494D01*
X23014Y-39500D01*
X23442Y-39928D01*
X23571Y-39905D01*
X23665Y-39999D01*
X23882Y-40089D01*
X24116Y-40090D01*
X24333Y-40000D01*
X24499Y-39834D01*
X24500Y-39834D01*
X24550Y-39884D01*
X24550Y-40000D01*
X24584Y-40172D01*
X24681Y-40318D01*
X24813Y-40450D01*
X24813Y-40450D01*
G37*
X24813Y-40450D02*
X23428Y-40450D01*
X23428Y-39942D01*
X23000Y-39514D01*
X22571Y-39942D01*
X22594Y-40074D01*
X22845Y-40186D01*
X23119Y-40193D01*
X23376Y-40094D01*
X23405Y-40074D01*
X23428Y-39942D01*
X23428Y-40450D01*
X22874Y-40450D01*
X22712Y-40287D01*
X22614Y-40222D01*
X22500Y-40200D01*
X22428Y-40200D01*
X22428Y-39942D01*
X22000Y-39514D01*
X21571Y-39942D01*
X21594Y-40074D01*
X21845Y-40186D01*
X22119Y-40193D01*
X22376Y-40094D01*
X22405Y-40074D01*
X22428Y-39942D01*
X22428Y-40200D01*
X22250Y-40200D01*
X22135Y-40222D01*
X22096Y-40248D01*
X22037Y-40287D01*
X22000Y-40325D01*
X21915Y-40324D01*
X21759Y-40389D01*
X21642Y-40506D01*
X21450Y-40313D01*
X21450Y-39909D01*
X21557Y-39928D01*
X21985Y-39500D01*
X21980Y-39494D01*
X21994Y-39480D01*
X22000Y-39485D01*
X22005Y-39480D01*
X22019Y-39494D01*
X22014Y-39500D01*
X22442Y-39928D01*
X22500Y-39918D01*
X22557Y-39928D01*
X22985Y-39500D01*
X22980Y-39494D01*
X22994Y-39480D01*
X23000Y-39485D01*
X23005Y-39480D01*
X23019Y-39494D01*
X23014Y-39500D01*
X23442Y-39928D01*
X23571Y-39905D01*
X23665Y-39999D01*
X23882Y-40089D01*
X24116Y-40090D01*
X24333Y-40000D01*
X24499Y-39834D01*
X24500Y-39834D01*
X24550Y-39884D01*
X24550Y-40000D01*
X24584Y-40172D01*
X24681Y-40318D01*
X24813Y-40450D01*
G36*
X25000Y-33800D02*
X24500Y-33800D01*
X24327Y-33834D01*
X24181Y-33931D01*
X24000Y-34113D01*
X23818Y-33931D01*
X23672Y-33834D01*
X23500Y-33800D01*
X21007Y-33800D01*
X20968Y-33705D01*
X21146Y-33527D01*
X21360Y-33621D01*
X21609Y-33627D01*
X21841Y-33538D01*
X21866Y-33521D01*
X21881Y-33395D01*
X21500Y-33014D01*
X21494Y-33019D01*
X21480Y-33005D01*
X21485Y-33000D01*
X21480Y-32994D01*
X21494Y-32980D01*
X21500Y-32985D01*
X21505Y-32980D01*
X21519Y-32994D01*
X21514Y-33000D01*
X21895Y-33381D01*
X22021Y-33366D01*
X22053Y-33293D01*
X22054Y-33297D01*
X22202Y-33444D01*
X22395Y-33524D01*
X22603Y-33525D01*
X22797Y-33445D01*
X22944Y-33297D01*
X23000Y-33164D01*
X23054Y-33297D01*
X23202Y-33444D01*
X23395Y-33524D01*
X23603Y-33525D01*
X23797Y-33445D01*
X23944Y-33297D01*
X24000Y-33164D01*
X24054Y-33297D01*
X24202Y-33444D01*
X24395Y-33524D01*
X24600Y-33525D01*
X24787Y-33712D01*
X24787Y-33712D01*
X24885Y-33777D01*
X25000Y-33800D01*
X25000Y-33800D01*
G37*
X25000Y-33800D02*
X24500Y-33800D01*
X24327Y-33834D01*
X24181Y-33931D01*
X24000Y-34113D01*
X23818Y-33931D01*
X23672Y-33834D01*
X23500Y-33800D01*
X21007Y-33800D01*
X20968Y-33705D01*
X21146Y-33527D01*
X21360Y-33621D01*
X21609Y-33627D01*
X21841Y-33538D01*
X21866Y-33521D01*
X21881Y-33395D01*
X21500Y-33014D01*
X21494Y-33019D01*
X21480Y-33005D01*
X21485Y-33000D01*
X21480Y-32994D01*
X21494Y-32980D01*
X21500Y-32985D01*
X21505Y-32980D01*
X21519Y-32994D01*
X21514Y-33000D01*
X21895Y-33381D01*
X22021Y-33366D01*
X22053Y-33293D01*
X22054Y-33297D01*
X22202Y-33444D01*
X22395Y-33524D01*
X22603Y-33525D01*
X22797Y-33445D01*
X22944Y-33297D01*
X23000Y-33164D01*
X23054Y-33297D01*
X23202Y-33444D01*
X23395Y-33524D01*
X23603Y-33525D01*
X23797Y-33445D01*
X23944Y-33297D01*
X24000Y-33164D01*
X24054Y-33297D01*
X24202Y-33444D01*
X24395Y-33524D01*
X24600Y-33525D01*
X24787Y-33712D01*
X24787Y-33712D01*
X24885Y-33777D01*
X25000Y-33800D01*
G36*
X25220Y-49395D02*
X21697Y-49395D01*
X21043Y-49395D01*
X21066Y-49379D01*
X21192Y-49159D01*
X20157Y-48124D01*
X20143Y-48138D01*
X19122Y-49159D01*
X19247Y-49379D01*
X19283Y-49395D01*
X10604Y-49395D01*
X10604Y-37656D01*
X10639Y-37740D01*
X10758Y-37860D01*
X10915Y-37924D01*
X11084Y-37925D01*
X11240Y-37860D01*
X11360Y-37741D01*
X11424Y-37584D01*
X11425Y-37499D01*
X11624Y-37300D01*
X11698Y-37300D01*
X11758Y-37360D01*
X11915Y-37424D01*
X12084Y-37425D01*
X12240Y-37360D01*
X12360Y-37241D01*
X12424Y-37084D01*
X12425Y-36915D01*
X12360Y-36759D01*
X12241Y-36639D01*
X12084Y-36575D01*
X11915Y-36574D01*
X11759Y-36639D01*
X11698Y-36700D01*
X11500Y-36700D01*
X11385Y-36722D01*
X11287Y-36787D01*
X11000Y-37075D01*
X10915Y-37074D01*
X10759Y-37139D01*
X10639Y-37258D01*
X10604Y-37343D01*
X10604Y-34741D01*
X12181Y-36318D01*
X12327Y-36415D01*
X12500Y-36450D01*
X16313Y-36450D01*
X18931Y-39068D01*
X19077Y-39165D01*
X19250Y-39200D01*
X20485Y-39200D01*
X20410Y-39382D01*
X20409Y-39616D01*
X20499Y-39833D01*
X20550Y-39884D01*
X20550Y-40500D01*
X20564Y-40575D01*
X20354Y-40479D01*
X19745Y-40459D01*
X19175Y-40674D01*
X19090Y-40731D01*
X18965Y-40950D01*
X20000Y-41985D01*
X20005Y-41980D01*
X20019Y-41994D01*
X20014Y-42000D01*
X21049Y-43034D01*
X21268Y-42909D01*
X21520Y-42354D01*
X21540Y-41745D01*
X21498Y-41634D01*
X21681Y-41818D01*
X21827Y-41915D01*
X22000Y-41950D01*
X24875Y-41950D01*
X23125Y-43700D01*
X21974Y-43700D01*
X22499Y-43174D01*
X22584Y-43175D01*
X22740Y-43110D01*
X22860Y-42991D01*
X22924Y-42834D01*
X22925Y-42665D01*
X22860Y-42509D01*
X22741Y-42389D01*
X22584Y-42325D01*
X22415Y-42324D01*
X22259Y-42389D01*
X22250Y-42398D01*
X22241Y-42389D01*
X22084Y-42325D01*
X21915Y-42324D01*
X21759Y-42389D01*
X21639Y-42508D01*
X21575Y-42665D01*
X21574Y-42750D01*
X21125Y-43200D01*
X20948Y-43200D01*
X21034Y-43049D01*
X20000Y-42014D01*
X19985Y-42028D01*
X19985Y-42000D01*
X18950Y-40965D01*
X18731Y-41090D01*
X18479Y-41645D01*
X18459Y-42254D01*
X18674Y-42824D01*
X18731Y-42909D01*
X18950Y-43034D01*
X19985Y-42000D01*
X19985Y-42028D01*
X18965Y-43049D01*
X19051Y-43200D01*
X17124Y-43200D01*
X15762Y-41838D01*
X15860Y-41741D01*
X15924Y-41584D01*
X15925Y-41415D01*
X15860Y-41259D01*
X15741Y-41139D01*
X15584Y-41075D01*
X15415Y-41074D01*
X15259Y-41139D01*
X15198Y-41200D01*
X15040Y-41200D01*
X15040Y-39245D01*
X14825Y-38675D01*
X14768Y-38590D01*
X14549Y-38465D01*
X14534Y-38479D01*
X14534Y-38450D01*
X14409Y-38231D01*
X13854Y-37979D01*
X13245Y-37959D01*
X12675Y-38174D01*
X12590Y-38231D01*
X12465Y-38450D01*
X13500Y-39485D01*
X14534Y-38450D01*
X14534Y-38479D01*
X13514Y-39500D01*
X14549Y-40534D01*
X14768Y-40409D01*
X15020Y-39854D01*
X15040Y-39245D01*
X15040Y-41200D01*
X13503Y-41200D01*
X13417Y-41071D01*
X13351Y-41027D01*
X13754Y-41040D01*
X14324Y-40825D01*
X14409Y-40768D01*
X14534Y-40549D01*
X13500Y-39514D01*
X13485Y-39528D01*
X13485Y-39500D01*
X12450Y-38465D01*
X12231Y-38590D01*
X11979Y-39145D01*
X11959Y-39754D01*
X12174Y-40324D01*
X12231Y-40409D01*
X12450Y-40534D01*
X13485Y-39500D01*
X13485Y-39528D01*
X12465Y-40549D01*
X12590Y-40768D01*
X12914Y-40915D01*
X12774Y-40943D01*
X12582Y-41071D01*
X12577Y-41079D01*
X12551Y-41018D01*
X12481Y-40948D01*
X12389Y-40910D01*
X12290Y-40910D01*
X11610Y-40910D01*
X11518Y-40948D01*
X11448Y-41018D01*
X11410Y-41110D01*
X11410Y-41209D01*
X11410Y-41889D01*
X11448Y-41981D01*
X11518Y-42051D01*
X11578Y-42077D01*
X11454Y-42262D01*
X11410Y-42488D01*
X11410Y-42511D01*
X11454Y-42737D01*
X11582Y-42928D01*
X11689Y-43000D01*
X11582Y-43071D01*
X11454Y-43262D01*
X11410Y-43488D01*
X11410Y-43511D01*
X11454Y-43737D01*
X11582Y-43928D01*
X11689Y-44000D01*
X11582Y-44071D01*
X11454Y-44262D01*
X11410Y-44488D01*
X11410Y-44511D01*
X11454Y-44737D01*
X11582Y-44928D01*
X11689Y-45000D01*
X11582Y-45071D01*
X11454Y-45262D01*
X11410Y-45488D01*
X11410Y-45511D01*
X11454Y-45737D01*
X11582Y-45928D01*
X11689Y-46000D01*
X11582Y-46071D01*
X11454Y-46262D01*
X11410Y-46488D01*
X11410Y-46511D01*
X11454Y-46737D01*
X11582Y-46928D01*
X11689Y-47000D01*
X11582Y-47071D01*
X11454Y-47262D01*
X11410Y-47488D01*
X11410Y-47511D01*
X11454Y-47737D01*
X11582Y-47928D01*
X11689Y-48000D01*
X11582Y-48071D01*
X11454Y-48262D01*
X11410Y-48488D01*
X11410Y-48511D01*
X11454Y-48737D01*
X11582Y-48928D01*
X11774Y-49056D01*
X12000Y-49101D01*
X12225Y-49056D01*
X12385Y-48950D01*
X12614Y-48950D01*
X12774Y-49056D01*
X13000Y-49101D01*
X13225Y-49056D01*
X13417Y-48928D01*
X13545Y-48737D01*
X13590Y-48511D01*
X13590Y-48488D01*
X13552Y-48300D01*
X15250Y-48300D01*
X15500Y-48300D01*
X15698Y-48300D01*
X15758Y-48360D01*
X15915Y-48424D01*
X16084Y-48425D01*
X16240Y-48360D01*
X16360Y-48241D01*
X16424Y-48084D01*
X16425Y-47999D01*
X17374Y-47050D01*
X19083Y-47050D01*
X19108Y-47075D01*
X18888Y-47200D01*
X18637Y-47755D01*
X18617Y-48364D01*
X18831Y-48934D01*
X18888Y-49019D01*
X19108Y-49145D01*
X20143Y-48110D01*
X20137Y-48104D01*
X20151Y-48090D01*
X20157Y-48096D01*
X20163Y-48090D01*
X20177Y-48104D01*
X20171Y-48110D01*
X21206Y-49145D01*
X21426Y-49019D01*
X21677Y-48464D01*
X21697Y-47856D01*
X21483Y-47286D01*
X21426Y-47200D01*
X21206Y-47075D01*
X21231Y-47050D01*
X22875Y-47050D01*
X25220Y-49395D01*
X25220Y-49395D01*
G37*
X25220Y-49395D02*
X21697Y-49395D01*
X21043Y-49395D01*
X21066Y-49379D01*
X21192Y-49159D01*
X20157Y-48124D01*
X20143Y-48138D01*
X19122Y-49159D01*
X19247Y-49379D01*
X19283Y-49395D01*
X10604Y-49395D01*
X10604Y-37656D01*
X10639Y-37740D01*
X10758Y-37860D01*
X10915Y-37924D01*
X11084Y-37925D01*
X11240Y-37860D01*
X11360Y-37741D01*
X11424Y-37584D01*
X11425Y-37499D01*
X11624Y-37300D01*
X11698Y-37300D01*
X11758Y-37360D01*
X11915Y-37424D01*
X12084Y-37425D01*
X12240Y-37360D01*
X12360Y-37241D01*
X12424Y-37084D01*
X12425Y-36915D01*
X12360Y-36759D01*
X12241Y-36639D01*
X12084Y-36575D01*
X11915Y-36574D01*
X11759Y-36639D01*
X11698Y-36700D01*
X11500Y-36700D01*
X11385Y-36722D01*
X11287Y-36787D01*
X11000Y-37075D01*
X10915Y-37074D01*
X10759Y-37139D01*
X10639Y-37258D01*
X10604Y-37343D01*
X10604Y-34741D01*
X12181Y-36318D01*
X12327Y-36415D01*
X12500Y-36450D01*
X16313Y-36450D01*
X18931Y-39068D01*
X19077Y-39165D01*
X19250Y-39200D01*
X20485Y-39200D01*
X20410Y-39382D01*
X20409Y-39616D01*
X20499Y-39833D01*
X20550Y-39884D01*
X20550Y-40500D01*
X20564Y-40575D01*
X20354Y-40479D01*
X19745Y-40459D01*
X19175Y-40674D01*
X19090Y-40731D01*
X18965Y-40950D01*
X20000Y-41985D01*
X20005Y-41980D01*
X20019Y-41994D01*
X20014Y-42000D01*
X21049Y-43034D01*
X21268Y-42909D01*
X21520Y-42354D01*
X21540Y-41745D01*
X21498Y-41634D01*
X21681Y-41818D01*
X21827Y-41915D01*
X22000Y-41950D01*
X24875Y-41950D01*
X23125Y-43700D01*
X21974Y-43700D01*
X22499Y-43174D01*
X22584Y-43175D01*
X22740Y-43110D01*
X22860Y-42991D01*
X22924Y-42834D01*
X22925Y-42665D01*
X22860Y-42509D01*
X22741Y-42389D01*
X22584Y-42325D01*
X22415Y-42324D01*
X22259Y-42389D01*
X22250Y-42398D01*
X22241Y-42389D01*
X22084Y-42325D01*
X21915Y-42324D01*
X21759Y-42389D01*
X21639Y-42508D01*
X21575Y-42665D01*
X21574Y-42750D01*
X21125Y-43200D01*
X20948Y-43200D01*
X21034Y-43049D01*
X20000Y-42014D01*
X19985Y-42028D01*
X19985Y-42000D01*
X18950Y-40965D01*
X18731Y-41090D01*
X18479Y-41645D01*
X18459Y-42254D01*
X18674Y-42824D01*
X18731Y-42909D01*
X18950Y-43034D01*
X19985Y-42000D01*
X19985Y-42028D01*
X18965Y-43049D01*
X19051Y-43200D01*
X17124Y-43200D01*
X15762Y-41838D01*
X15860Y-41741D01*
X15924Y-41584D01*
X15925Y-41415D01*
X15860Y-41259D01*
X15741Y-41139D01*
X15584Y-41075D01*
X15415Y-41074D01*
X15259Y-41139D01*
X15198Y-41200D01*
X15040Y-41200D01*
X15040Y-39245D01*
X14825Y-38675D01*
X14768Y-38590D01*
X14549Y-38465D01*
X14534Y-38479D01*
X14534Y-38450D01*
X14409Y-38231D01*
X13854Y-37979D01*
X13245Y-37959D01*
X12675Y-38174D01*
X12590Y-38231D01*
X12465Y-38450D01*
X13500Y-39485D01*
X14534Y-38450D01*
X14534Y-38479D01*
X13514Y-39500D01*
X14549Y-40534D01*
X14768Y-40409D01*
X15020Y-39854D01*
X15040Y-39245D01*
X15040Y-41200D01*
X13503Y-41200D01*
X13417Y-41071D01*
X13351Y-41027D01*
X13754Y-41040D01*
X14324Y-40825D01*
X14409Y-40768D01*
X14534Y-40549D01*
X13500Y-39514D01*
X13485Y-39528D01*
X13485Y-39500D01*
X12450Y-38465D01*
X12231Y-38590D01*
X11979Y-39145D01*
X11959Y-39754D01*
X12174Y-40324D01*
X12231Y-40409D01*
X12450Y-40534D01*
X13485Y-39500D01*
X13485Y-39528D01*
X12465Y-40549D01*
X12590Y-40768D01*
X12914Y-40915D01*
X12774Y-40943D01*
X12582Y-41071D01*
X12577Y-41079D01*
X12551Y-41018D01*
X12481Y-40948D01*
X12389Y-40910D01*
X12290Y-40910D01*
X11610Y-40910D01*
X11518Y-40948D01*
X11448Y-41018D01*
X11410Y-41110D01*
X11410Y-41209D01*
X11410Y-41889D01*
X11448Y-41981D01*
X11518Y-42051D01*
X11578Y-42077D01*
X11454Y-42262D01*
X11410Y-42488D01*
X11410Y-42511D01*
X11454Y-42737D01*
X11582Y-42928D01*
X11689Y-43000D01*
X11582Y-43071D01*
X11454Y-43262D01*
X11410Y-43488D01*
X11410Y-43511D01*
X11454Y-43737D01*
X11582Y-43928D01*
X11689Y-44000D01*
X11582Y-44071D01*
X11454Y-44262D01*
X11410Y-44488D01*
X11410Y-44511D01*
X11454Y-44737D01*
X11582Y-44928D01*
X11689Y-45000D01*
X11582Y-45071D01*
X11454Y-45262D01*
X11410Y-45488D01*
X11410Y-45511D01*
X11454Y-45737D01*
X11582Y-45928D01*
X11689Y-46000D01*
X11582Y-46071D01*
X11454Y-46262D01*
X11410Y-46488D01*
X11410Y-46511D01*
X11454Y-46737D01*
X11582Y-46928D01*
X11689Y-47000D01*
X11582Y-47071D01*
X11454Y-47262D01*
X11410Y-47488D01*
X11410Y-47511D01*
X11454Y-47737D01*
X11582Y-47928D01*
X11689Y-48000D01*
X11582Y-48071D01*
X11454Y-48262D01*
X11410Y-48488D01*
X11410Y-48511D01*
X11454Y-48737D01*
X11582Y-48928D01*
X11774Y-49056D01*
X12000Y-49101D01*
X12225Y-49056D01*
X12385Y-48950D01*
X12614Y-48950D01*
X12774Y-49056D01*
X13000Y-49101D01*
X13225Y-49056D01*
X13417Y-48928D01*
X13545Y-48737D01*
X13590Y-48511D01*
X13590Y-48488D01*
X13552Y-48300D01*
X15250Y-48300D01*
X15500Y-48300D01*
X15698Y-48300D01*
X15758Y-48360D01*
X15915Y-48424D01*
X16084Y-48425D01*
X16240Y-48360D01*
X16360Y-48241D01*
X16424Y-48084D01*
X16425Y-47999D01*
X17374Y-47050D01*
X19083Y-47050D01*
X19108Y-47075D01*
X18888Y-47200D01*
X18637Y-47755D01*
X18617Y-48364D01*
X18831Y-48934D01*
X18888Y-49019D01*
X19108Y-49145D01*
X20143Y-48110D01*
X20137Y-48104D01*
X20151Y-48090D01*
X20157Y-48096D01*
X20163Y-48090D01*
X20177Y-48104D01*
X20171Y-48110D01*
X21206Y-49145D01*
X21426Y-49019D01*
X21677Y-48464D01*
X21697Y-47856D01*
X21483Y-47286D01*
X21426Y-47200D01*
X21206Y-47075D01*
X21231Y-47050D01*
X22875Y-47050D01*
X25220Y-49395D01*
G36*
X25525Y-18200D02*
X23874Y-18200D01*
X22474Y-16800D01*
X24324Y-16800D01*
X24324Y-16834D01*
X24389Y-16990D01*
X24462Y-17063D01*
X24472Y-17114D01*
X24537Y-17212D01*
X25525Y-18200D01*
X25525Y-18200D01*
G37*
X25525Y-18200D02*
X23874Y-18200D01*
X22474Y-16800D01*
X24324Y-16800D01*
X24324Y-16834D01*
X24389Y-16990D01*
X24462Y-17063D01*
X24472Y-17114D01*
X24537Y-17212D01*
X25525Y-18200D01*
G36*
X27500Y-19300D02*
X21540Y-19300D01*
X21540Y-17745D01*
X21325Y-17175D01*
X21268Y-17090D01*
X21049Y-16965D01*
X21034Y-16979D01*
X21034Y-16950D01*
X20909Y-16731D01*
X20354Y-16479D01*
X19745Y-16459D01*
X19175Y-16674D01*
X19090Y-16731D01*
X18965Y-16950D01*
X20000Y-17985D01*
X21034Y-16950D01*
X21034Y-16979D01*
X20014Y-18000D01*
X21049Y-19034D01*
X21268Y-18909D01*
X21520Y-18354D01*
X21540Y-17745D01*
X21540Y-19300D01*
X20862Y-19300D01*
X20909Y-19268D01*
X21034Y-19049D01*
X20000Y-18014D01*
X19985Y-18028D01*
X19985Y-18000D01*
X18950Y-16965D01*
X18731Y-17090D01*
X18479Y-17645D01*
X18459Y-18254D01*
X18674Y-18824D01*
X18731Y-18909D01*
X18950Y-19034D01*
X19985Y-18000D01*
X19985Y-18028D01*
X18965Y-19049D01*
X19090Y-19268D01*
X19159Y-19300D01*
X18936Y-19300D01*
X17818Y-18181D01*
X17672Y-18084D01*
X17500Y-18050D01*
X13565Y-18050D01*
X13551Y-18018D01*
X13483Y-17950D01*
X15749Y-17950D01*
X15750Y-17950D01*
X15839Y-17950D01*
X15922Y-17915D01*
X16004Y-17881D01*
X16068Y-17818D01*
X16131Y-17755D01*
X16165Y-17672D01*
X16199Y-17589D01*
X16200Y-17500D01*
X16200Y-17410D01*
X16131Y-17245D01*
X16005Y-17118D01*
X15839Y-17050D01*
X15660Y-17049D01*
X15660Y-17050D01*
X13410Y-17050D01*
X13583Y-16869D01*
X13679Y-16617D01*
X13602Y-16510D01*
X13010Y-16510D01*
X13010Y-16517D01*
X12990Y-16517D01*
X12990Y-16510D01*
X12602Y-16510D01*
X12397Y-16510D01*
X12010Y-16510D01*
X12010Y-16517D01*
X11990Y-16517D01*
X11990Y-16510D01*
X11397Y-16510D01*
X11320Y-16617D01*
X11416Y-16869D01*
X11599Y-17060D01*
X11582Y-17071D01*
X11454Y-17262D01*
X11418Y-17444D01*
X10604Y-18258D01*
X10604Y-10604D01*
X19271Y-10604D01*
X19247Y-10620D01*
X19122Y-10840D01*
X20157Y-11875D01*
X21192Y-10840D01*
X21066Y-10620D01*
X21031Y-10604D01*
X21758Y-10604D01*
X21431Y-10931D01*
X21406Y-10969D01*
X21206Y-10854D01*
X20171Y-11889D01*
X20177Y-11895D01*
X20163Y-11909D01*
X20157Y-11903D01*
X20151Y-11909D01*
X20137Y-11895D01*
X20143Y-11889D01*
X19108Y-10854D01*
X18888Y-10980D01*
X18725Y-11339D01*
X18568Y-11181D01*
X18422Y-11084D01*
X18250Y-11050D01*
X13385Y-11050D01*
X13225Y-10943D01*
X13000Y-10898D01*
X12774Y-10943D01*
X12614Y-11050D01*
X12385Y-11050D01*
X12225Y-10943D01*
X12000Y-10898D01*
X11774Y-10943D01*
X11582Y-11071D01*
X11454Y-11262D01*
X11410Y-11488D01*
X11410Y-11511D01*
X11454Y-11737D01*
X11582Y-11928D01*
X11689Y-12000D01*
X11582Y-12071D01*
X11454Y-12262D01*
X11410Y-12488D01*
X11410Y-12511D01*
X11454Y-12737D01*
X11582Y-12928D01*
X11689Y-13000D01*
X11582Y-13071D01*
X11454Y-13262D01*
X11410Y-13488D01*
X11410Y-13511D01*
X11454Y-13737D01*
X11582Y-13928D01*
X11689Y-14000D01*
X11582Y-14071D01*
X11454Y-14262D01*
X11410Y-14488D01*
X11410Y-14511D01*
X11454Y-14737D01*
X11582Y-14928D01*
X11689Y-15000D01*
X11582Y-15071D01*
X11454Y-15262D01*
X11410Y-15488D01*
X11410Y-15511D01*
X11454Y-15737D01*
X11582Y-15928D01*
X11599Y-15939D01*
X11416Y-16130D01*
X11320Y-16382D01*
X11397Y-16490D01*
X11990Y-16490D01*
X11990Y-16482D01*
X12010Y-16482D01*
X12010Y-16490D01*
X12397Y-16490D01*
X12602Y-16490D01*
X12990Y-16490D01*
X12990Y-16482D01*
X13010Y-16482D01*
X13010Y-16490D01*
X13602Y-16490D01*
X13679Y-16382D01*
X13583Y-16130D01*
X13400Y-15939D01*
X13417Y-15928D01*
X13503Y-15800D01*
X16750Y-15800D01*
X16948Y-15800D01*
X17008Y-15860D01*
X17165Y-15924D01*
X17250Y-15925D01*
X17287Y-15962D01*
X17346Y-16001D01*
X17385Y-16027D01*
X17385Y-16027D01*
X17500Y-16050D01*
X20875Y-16050D01*
X23537Y-18712D01*
X23596Y-18751D01*
X23635Y-18777D01*
X23635Y-18777D01*
X23750Y-18800D01*
X25698Y-18800D01*
X25758Y-18860D01*
X25915Y-18924D01*
X26084Y-18925D01*
X26240Y-18860D01*
X26360Y-18741D01*
X26424Y-18585D01*
X26454Y-18737D01*
X26582Y-18928D01*
X26774Y-19056D01*
X27000Y-19101D01*
X27147Y-19072D01*
X27287Y-19212D01*
X27287Y-19212D01*
X27385Y-19277D01*
X27500Y-19300D01*
X27500Y-19300D01*
G37*
X27500Y-19300D02*
X21540Y-19300D01*
X21540Y-17745D01*
X21325Y-17175D01*
X21268Y-17090D01*
X21049Y-16965D01*
X21034Y-16979D01*
X21034Y-16950D01*
X20909Y-16731D01*
X20354Y-16479D01*
X19745Y-16459D01*
X19175Y-16674D01*
X19090Y-16731D01*
X18965Y-16950D01*
X20000Y-17985D01*
X21034Y-16950D01*
X21034Y-16979D01*
X20014Y-18000D01*
X21049Y-19034D01*
X21268Y-18909D01*
X21520Y-18354D01*
X21540Y-17745D01*
X21540Y-19300D01*
X20862Y-19300D01*
X20909Y-19268D01*
X21034Y-19049D01*
X20000Y-18014D01*
X19985Y-18028D01*
X19985Y-18000D01*
X18950Y-16965D01*
X18731Y-17090D01*
X18479Y-17645D01*
X18459Y-18254D01*
X18674Y-18824D01*
X18731Y-18909D01*
X18950Y-19034D01*
X19985Y-18000D01*
X19985Y-18028D01*
X18965Y-19049D01*
X19090Y-19268D01*
X19159Y-19300D01*
X18936Y-19300D01*
X17818Y-18181D01*
X17672Y-18084D01*
X17500Y-18050D01*
X13565Y-18050D01*
X13551Y-18018D01*
X13483Y-17950D01*
X15749Y-17950D01*
X15750Y-17950D01*
X15839Y-17950D01*
X15922Y-17915D01*
X16004Y-17881D01*
X16068Y-17818D01*
X16131Y-17755D01*
X16165Y-17672D01*
X16199Y-17589D01*
X16200Y-17500D01*
X16200Y-17410D01*
X16131Y-17245D01*
X16005Y-17118D01*
X15839Y-17050D01*
X15660Y-17049D01*
X15660Y-17050D01*
X13410Y-17050D01*
X13583Y-16869D01*
X13679Y-16617D01*
X13602Y-16510D01*
X13010Y-16510D01*
X13010Y-16517D01*
X12990Y-16517D01*
X12990Y-16510D01*
X12602Y-16510D01*
X12397Y-16510D01*
X12010Y-16510D01*
X12010Y-16517D01*
X11990Y-16517D01*
X11990Y-16510D01*
X11397Y-16510D01*
X11320Y-16617D01*
X11416Y-16869D01*
X11599Y-17060D01*
X11582Y-17071D01*
X11454Y-17262D01*
X11418Y-17444D01*
X10604Y-18258D01*
X10604Y-10604D01*
X19271Y-10604D01*
X19247Y-10620D01*
X19122Y-10840D01*
X20157Y-11875D01*
X21192Y-10840D01*
X21066Y-10620D01*
X21031Y-10604D01*
X21758Y-10604D01*
X21431Y-10931D01*
X21406Y-10969D01*
X21206Y-10854D01*
X20171Y-11889D01*
X20177Y-11895D01*
X20163Y-11909D01*
X20157Y-11903D01*
X20151Y-11909D01*
X20137Y-11895D01*
X20143Y-11889D01*
X19108Y-10854D01*
X18888Y-10980D01*
X18725Y-11339D01*
X18568Y-11181D01*
X18422Y-11084D01*
X18250Y-11050D01*
X13385Y-11050D01*
X13225Y-10943D01*
X13000Y-10898D01*
X12774Y-10943D01*
X12614Y-11050D01*
X12385Y-11050D01*
X12225Y-10943D01*
X12000Y-10898D01*
X11774Y-10943D01*
X11582Y-11071D01*
X11454Y-11262D01*
X11410Y-11488D01*
X11410Y-11511D01*
X11454Y-11737D01*
X11582Y-11928D01*
X11689Y-12000D01*
X11582Y-12071D01*
X11454Y-12262D01*
X11410Y-12488D01*
X11410Y-12511D01*
X11454Y-12737D01*
X11582Y-12928D01*
X11689Y-13000D01*
X11582Y-13071D01*
X11454Y-13262D01*
X11410Y-13488D01*
X11410Y-13511D01*
X11454Y-13737D01*
X11582Y-13928D01*
X11689Y-14000D01*
X11582Y-14071D01*
X11454Y-14262D01*
X11410Y-14488D01*
X11410Y-14511D01*
X11454Y-14737D01*
X11582Y-14928D01*
X11689Y-15000D01*
X11582Y-15071D01*
X11454Y-15262D01*
X11410Y-15488D01*
X11410Y-15511D01*
X11454Y-15737D01*
X11582Y-15928D01*
X11599Y-15939D01*
X11416Y-16130D01*
X11320Y-16382D01*
X11397Y-16490D01*
X11990Y-16490D01*
X11990Y-16482D01*
X12010Y-16482D01*
X12010Y-16490D01*
X12397Y-16490D01*
X12602Y-16490D01*
X12990Y-16490D01*
X12990Y-16482D01*
X13010Y-16482D01*
X13010Y-16490D01*
X13602Y-16490D01*
X13679Y-16382D01*
X13583Y-16130D01*
X13400Y-15939D01*
X13417Y-15928D01*
X13503Y-15800D01*
X16750Y-15800D01*
X16948Y-15800D01*
X17008Y-15860D01*
X17165Y-15924D01*
X17250Y-15925D01*
X17287Y-15962D01*
X17346Y-16001D01*
X17385Y-16027D01*
X17385Y-16027D01*
X17500Y-16050D01*
X20875Y-16050D01*
X23537Y-18712D01*
X23596Y-18751D01*
X23635Y-18777D01*
X23635Y-18777D01*
X23750Y-18800D01*
X25698Y-18800D01*
X25758Y-18860D01*
X25915Y-18924D01*
X26084Y-18925D01*
X26240Y-18860D01*
X26360Y-18741D01*
X26424Y-18585D01*
X26454Y-18737D01*
X26582Y-18928D01*
X26774Y-19056D01*
X27000Y-19101D01*
X27147Y-19072D01*
X27287Y-19212D01*
X27287Y-19212D01*
X27385Y-19277D01*
X27500Y-19300D01*
G36*
X28017Y-43510D02*
X28010Y-43510D01*
X28010Y-43517D01*
X27990Y-43517D01*
X27990Y-43510D01*
X27602Y-43510D01*
X27397Y-43510D01*
X27010Y-43510D01*
X27010Y-43517D01*
X26990Y-43517D01*
X26990Y-43510D01*
X26397Y-43510D01*
X26320Y-43617D01*
X26416Y-43869D01*
X26599Y-44060D01*
X26582Y-44071D01*
X26496Y-44200D01*
X26127Y-44200D01*
X26174Y-44084D01*
X26175Y-43915D01*
X26110Y-43759D01*
X25991Y-43639D01*
X25834Y-43575D01*
X25665Y-43574D01*
X25509Y-43639D01*
X25448Y-43700D01*
X24974Y-43700D01*
X25547Y-43126D01*
X25665Y-43174D01*
X25834Y-43175D01*
X25990Y-43110D01*
X26110Y-42991D01*
X26170Y-42844D01*
X26436Y-43110D01*
X26416Y-43130D01*
X26320Y-43382D01*
X26397Y-43490D01*
X26990Y-43490D01*
X26990Y-43482D01*
X27010Y-43482D01*
X27010Y-43490D01*
X27397Y-43490D01*
X27602Y-43490D01*
X27990Y-43490D01*
X27990Y-43482D01*
X28010Y-43482D01*
X28010Y-43490D01*
X28017Y-43490D01*
X28017Y-43510D01*
X28017Y-43510D01*
G37*
X28017Y-43510D02*
X28010Y-43510D01*
X28010Y-43517D01*
X27990Y-43517D01*
X27990Y-43510D01*
X27602Y-43510D01*
X27397Y-43510D01*
X27010Y-43510D01*
X27010Y-43517D01*
X26990Y-43517D01*
X26990Y-43510D01*
X26397Y-43510D01*
X26320Y-43617D01*
X26416Y-43869D01*
X26599Y-44060D01*
X26582Y-44071D01*
X26496Y-44200D01*
X26127Y-44200D01*
X26174Y-44084D01*
X26175Y-43915D01*
X26110Y-43759D01*
X25991Y-43639D01*
X25834Y-43575D01*
X25665Y-43574D01*
X25509Y-43639D01*
X25448Y-43700D01*
X24974Y-43700D01*
X25547Y-43126D01*
X25665Y-43174D01*
X25834Y-43175D01*
X25990Y-43110D01*
X26110Y-42991D01*
X26170Y-42844D01*
X26436Y-43110D01*
X26416Y-43130D01*
X26320Y-43382D01*
X26397Y-43490D01*
X26990Y-43490D01*
X26990Y-43482D01*
X27010Y-43482D01*
X27010Y-43490D01*
X27397Y-43490D01*
X27602Y-43490D01*
X27990Y-43490D01*
X27990Y-43482D01*
X28010Y-43482D01*
X28010Y-43490D01*
X28017Y-43490D01*
X28017Y-43510D01*
G36*
X28344Y-36000D02*
X28287Y-36037D01*
X27625Y-36700D01*
X26250Y-36700D01*
X26135Y-36722D01*
X26037Y-36787D01*
X24725Y-38099D01*
X21524Y-38099D01*
X21424Y-38000D01*
X21425Y-37915D01*
X21360Y-37759D01*
X21241Y-37639D01*
X21084Y-37575D01*
X20946Y-37574D01*
X20962Y-37559D01*
X20982Y-37511D01*
X21783Y-37511D01*
X21787Y-37519D01*
X21940Y-37673D01*
X22141Y-37756D01*
X22358Y-37756D01*
X22558Y-37673D01*
X22712Y-37520D01*
X22795Y-37319D01*
X22795Y-37102D01*
X22795Y-35180D01*
X22712Y-34980D01*
X22559Y-34826D01*
X22358Y-34743D01*
X22141Y-34743D01*
X21941Y-34826D01*
X21787Y-34979D01*
X21783Y-34989D01*
X20982Y-34989D01*
X20962Y-34941D01*
X20809Y-34787D01*
X20608Y-34704D01*
X20391Y-34704D01*
X20191Y-34787D01*
X20062Y-34915D01*
X20055Y-34897D01*
X20038Y-34871D01*
X19910Y-34853D01*
X19896Y-34867D01*
X19896Y-34839D01*
X19878Y-34711D01*
X19678Y-34623D01*
X19852Y-34555D01*
X19878Y-34538D01*
X19896Y-34410D01*
X19500Y-34014D01*
X19103Y-34410D01*
X19121Y-34538D01*
X19321Y-34626D01*
X19147Y-34694D01*
X19121Y-34711D01*
X19103Y-34839D01*
X19500Y-35235D01*
X19896Y-34839D01*
X19896Y-34867D01*
X19514Y-35250D01*
X19910Y-35646D01*
X20038Y-35628D01*
X20059Y-35580D01*
X20190Y-35712D01*
X20391Y-35795D01*
X20608Y-35795D01*
X20808Y-35712D01*
X20932Y-35589D01*
X21783Y-35589D01*
X21787Y-35597D01*
X21940Y-35751D01*
X22141Y-35834D01*
X22358Y-35834D01*
X22558Y-35751D01*
X22712Y-35598D01*
X22795Y-35397D01*
X22795Y-35180D01*
X22795Y-37102D01*
X22712Y-36902D01*
X22559Y-36748D01*
X22358Y-36665D01*
X22141Y-36665D01*
X21941Y-36748D01*
X21787Y-36901D01*
X21783Y-36911D01*
X20932Y-36911D01*
X20809Y-36787D01*
X20608Y-36704D01*
X20391Y-36704D01*
X20191Y-36787D01*
X20062Y-36915D01*
X20055Y-36897D01*
X20038Y-36871D01*
X19910Y-36853D01*
X19896Y-36867D01*
X19896Y-36839D01*
X19896Y-35660D01*
X19500Y-35264D01*
X19485Y-35278D01*
X19485Y-35250D01*
X19089Y-34853D01*
X18961Y-34871D01*
X18857Y-35106D01*
X18851Y-35362D01*
X18944Y-35602D01*
X18961Y-35628D01*
X19089Y-35646D01*
X19485Y-35250D01*
X19485Y-35278D01*
X19103Y-35660D01*
X19121Y-35788D01*
X19356Y-35892D01*
X19612Y-35898D01*
X19852Y-35805D01*
X19878Y-35788D01*
X19896Y-35660D01*
X19896Y-36839D01*
X19878Y-36711D01*
X19643Y-36607D01*
X19387Y-36601D01*
X19147Y-36694D01*
X19121Y-36711D01*
X19103Y-36839D01*
X19500Y-37235D01*
X19896Y-36839D01*
X19896Y-36867D01*
X19514Y-37250D01*
X19910Y-37646D01*
X20038Y-37628D01*
X20059Y-37580D01*
X20190Y-37712D01*
X20391Y-37795D01*
X20608Y-37795D01*
X20628Y-37787D01*
X20575Y-37915D01*
X20574Y-38084D01*
X20639Y-38240D01*
X20698Y-38300D01*
X19896Y-38300D01*
X19896Y-37660D01*
X19500Y-37264D01*
X19485Y-37278D01*
X19485Y-37250D01*
X19089Y-36853D01*
X18961Y-36871D01*
X18857Y-37106D01*
X18851Y-37362D01*
X18944Y-37602D01*
X18961Y-37628D01*
X19089Y-37646D01*
X19485Y-37250D01*
X19485Y-37278D01*
X19103Y-37660D01*
X19121Y-37788D01*
X19356Y-37892D01*
X19612Y-37898D01*
X19852Y-37805D01*
X19878Y-37788D01*
X19896Y-37660D01*
X19896Y-38300D01*
X19436Y-38300D01*
X16818Y-35681D01*
X16672Y-35584D01*
X16500Y-35550D01*
X12686Y-35550D01*
X11200Y-34063D01*
X11200Y-33525D01*
X11274Y-33525D01*
X11824Y-33525D01*
X11916Y-33486D01*
X11986Y-33416D01*
X12025Y-33324D01*
X12025Y-33225D01*
X12025Y-33225D01*
X12054Y-33297D01*
X12200Y-33442D01*
X12200Y-33500D01*
X12222Y-33614D01*
X12287Y-33712D01*
X12787Y-34212D01*
X12787Y-34212D01*
X12885Y-34277D01*
X13000Y-34300D01*
X13698Y-34300D01*
X13758Y-34360D01*
X13915Y-34424D01*
X14084Y-34425D01*
X14240Y-34360D01*
X14360Y-34241D01*
X14424Y-34084D01*
X14425Y-33915D01*
X14360Y-33759D01*
X14241Y-33639D01*
X14084Y-33575D01*
X13915Y-33574D01*
X13759Y-33639D01*
X13698Y-33700D01*
X13124Y-33700D01*
X12833Y-33409D01*
X12944Y-33297D01*
X13000Y-33164D01*
X13054Y-33297D01*
X13202Y-33444D01*
X13395Y-33524D01*
X13603Y-33525D01*
X13797Y-33445D01*
X13944Y-33297D01*
X14000Y-33164D01*
X14054Y-33297D01*
X14202Y-33444D01*
X14395Y-33524D01*
X14603Y-33525D01*
X14797Y-33445D01*
X14944Y-33297D01*
X15000Y-33164D01*
X15054Y-33297D01*
X15202Y-33444D01*
X15395Y-33524D01*
X15603Y-33525D01*
X15797Y-33445D01*
X15944Y-33297D01*
X16000Y-33164D01*
X16054Y-33297D01*
X16202Y-33444D01*
X16203Y-33445D01*
X16139Y-33508D01*
X16075Y-33665D01*
X16074Y-33834D01*
X16139Y-33990D01*
X16258Y-34110D01*
X16415Y-34174D01*
X16584Y-34175D01*
X16740Y-34110D01*
X16860Y-33991D01*
X16924Y-33834D01*
X16924Y-33800D01*
X18882Y-33800D01*
X18857Y-33856D01*
X18851Y-34112D01*
X18944Y-34352D01*
X18961Y-34378D01*
X19089Y-34396D01*
X19485Y-34000D01*
X19480Y-33994D01*
X19494Y-33980D01*
X19500Y-33985D01*
X19505Y-33980D01*
X19519Y-33994D01*
X19514Y-34000D01*
X19910Y-34396D01*
X20038Y-34378D01*
X20059Y-34330D01*
X20190Y-34462D01*
X20391Y-34545D01*
X20409Y-34545D01*
X20431Y-34568D01*
X20577Y-34665D01*
X20750Y-34700D01*
X23313Y-34700D01*
X23681Y-35067D01*
X23744Y-35131D01*
X23827Y-35165D01*
X23910Y-35199D01*
X24000Y-35200D01*
X24089Y-35200D01*
X24129Y-35183D01*
X24204Y-35364D01*
X24385Y-35545D01*
X24621Y-35643D01*
X24877Y-35643D01*
X24942Y-35616D01*
X25037Y-35712D01*
X25037Y-35712D01*
X25135Y-35777D01*
X25250Y-35800D01*
X28125Y-35800D01*
X28287Y-35962D01*
X28344Y-36000D01*
X28344Y-36000D01*
G37*
X28344Y-36000D02*
X28287Y-36037D01*
X27625Y-36700D01*
X26250Y-36700D01*
X26135Y-36722D01*
X26037Y-36787D01*
X24725Y-38099D01*
X21524Y-38099D01*
X21424Y-38000D01*
X21425Y-37915D01*
X21360Y-37759D01*
X21241Y-37639D01*
X21084Y-37575D01*
X20946Y-37574D01*
X20962Y-37559D01*
X20982Y-37511D01*
X21783Y-37511D01*
X21787Y-37519D01*
X21940Y-37673D01*
X22141Y-37756D01*
X22358Y-37756D01*
X22558Y-37673D01*
X22712Y-37520D01*
X22795Y-37319D01*
X22795Y-37102D01*
X22795Y-35180D01*
X22712Y-34980D01*
X22559Y-34826D01*
X22358Y-34743D01*
X22141Y-34743D01*
X21941Y-34826D01*
X21787Y-34979D01*
X21783Y-34989D01*
X20982Y-34989D01*
X20962Y-34941D01*
X20809Y-34787D01*
X20608Y-34704D01*
X20391Y-34704D01*
X20191Y-34787D01*
X20062Y-34915D01*
X20055Y-34897D01*
X20038Y-34871D01*
X19910Y-34853D01*
X19896Y-34867D01*
X19896Y-34839D01*
X19878Y-34711D01*
X19678Y-34623D01*
X19852Y-34555D01*
X19878Y-34538D01*
X19896Y-34410D01*
X19500Y-34014D01*
X19103Y-34410D01*
X19121Y-34538D01*
X19321Y-34626D01*
X19147Y-34694D01*
X19121Y-34711D01*
X19103Y-34839D01*
X19500Y-35235D01*
X19896Y-34839D01*
X19896Y-34867D01*
X19514Y-35250D01*
X19910Y-35646D01*
X20038Y-35628D01*
X20059Y-35580D01*
X20190Y-35712D01*
X20391Y-35795D01*
X20608Y-35795D01*
X20808Y-35712D01*
X20932Y-35589D01*
X21783Y-35589D01*
X21787Y-35597D01*
X21940Y-35751D01*
X22141Y-35834D01*
X22358Y-35834D01*
X22558Y-35751D01*
X22712Y-35598D01*
X22795Y-35397D01*
X22795Y-35180D01*
X22795Y-37102D01*
X22712Y-36902D01*
X22559Y-36748D01*
X22358Y-36665D01*
X22141Y-36665D01*
X21941Y-36748D01*
X21787Y-36901D01*
X21783Y-36911D01*
X20932Y-36911D01*
X20809Y-36787D01*
X20608Y-36704D01*
X20391Y-36704D01*
X20191Y-36787D01*
X20062Y-36915D01*
X20055Y-36897D01*
X20038Y-36871D01*
X19910Y-36853D01*
X19896Y-36867D01*
X19896Y-36839D01*
X19896Y-35660D01*
X19500Y-35264D01*
X19485Y-35278D01*
X19485Y-35250D01*
X19089Y-34853D01*
X18961Y-34871D01*
X18857Y-35106D01*
X18851Y-35362D01*
X18944Y-35602D01*
X18961Y-35628D01*
X19089Y-35646D01*
X19485Y-35250D01*
X19485Y-35278D01*
X19103Y-35660D01*
X19121Y-35788D01*
X19356Y-35892D01*
X19612Y-35898D01*
X19852Y-35805D01*
X19878Y-35788D01*
X19896Y-35660D01*
X19896Y-36839D01*
X19878Y-36711D01*
X19643Y-36607D01*
X19387Y-36601D01*
X19147Y-36694D01*
X19121Y-36711D01*
X19103Y-36839D01*
X19500Y-37235D01*
X19896Y-36839D01*
X19896Y-36867D01*
X19514Y-37250D01*
X19910Y-37646D01*
X20038Y-37628D01*
X20059Y-37580D01*
X20190Y-37712D01*
X20391Y-37795D01*
X20608Y-37795D01*
X20628Y-37787D01*
X20575Y-37915D01*
X20574Y-38084D01*
X20639Y-38240D01*
X20698Y-38300D01*
X19896Y-38300D01*
X19896Y-37660D01*
X19500Y-37264D01*
X19485Y-37278D01*
X19485Y-37250D01*
X19089Y-36853D01*
X18961Y-36871D01*
X18857Y-37106D01*
X18851Y-37362D01*
X18944Y-37602D01*
X18961Y-37628D01*
X19089Y-37646D01*
X19485Y-37250D01*
X19485Y-37278D01*
X19103Y-37660D01*
X19121Y-37788D01*
X19356Y-37892D01*
X19612Y-37898D01*
X19852Y-37805D01*
X19878Y-37788D01*
X19896Y-37660D01*
X19896Y-38300D01*
X19436Y-38300D01*
X16818Y-35681D01*
X16672Y-35584D01*
X16500Y-35550D01*
X12686Y-35550D01*
X11200Y-34063D01*
X11200Y-33525D01*
X11274Y-33525D01*
X11824Y-33525D01*
X11916Y-33486D01*
X11986Y-33416D01*
X12025Y-33324D01*
X12025Y-33225D01*
X12025Y-33225D01*
X12054Y-33297D01*
X12200Y-33442D01*
X12200Y-33500D01*
X12222Y-33614D01*
X12287Y-33712D01*
X12787Y-34212D01*
X12787Y-34212D01*
X12885Y-34277D01*
X13000Y-34300D01*
X13698Y-34300D01*
X13758Y-34360D01*
X13915Y-34424D01*
X14084Y-34425D01*
X14240Y-34360D01*
X14360Y-34241D01*
X14424Y-34084D01*
X14425Y-33915D01*
X14360Y-33759D01*
X14241Y-33639D01*
X14084Y-33575D01*
X13915Y-33574D01*
X13759Y-33639D01*
X13698Y-33700D01*
X13124Y-33700D01*
X12833Y-33409D01*
X12944Y-33297D01*
X13000Y-33164D01*
X13054Y-33297D01*
X13202Y-33444D01*
X13395Y-33524D01*
X13603Y-33525D01*
X13797Y-33445D01*
X13944Y-33297D01*
X14000Y-33164D01*
X14054Y-33297D01*
X14202Y-33444D01*
X14395Y-33524D01*
X14603Y-33525D01*
X14797Y-33445D01*
X14944Y-33297D01*
X15000Y-33164D01*
X15054Y-33297D01*
X15202Y-33444D01*
X15395Y-33524D01*
X15603Y-33525D01*
X15797Y-33445D01*
X15944Y-33297D01*
X16000Y-33164D01*
X16054Y-33297D01*
X16202Y-33444D01*
X16203Y-33445D01*
X16139Y-33508D01*
X16075Y-33665D01*
X16074Y-33834D01*
X16139Y-33990D01*
X16258Y-34110D01*
X16415Y-34174D01*
X16584Y-34175D01*
X16740Y-34110D01*
X16860Y-33991D01*
X16924Y-33834D01*
X16924Y-33800D01*
X18882Y-33800D01*
X18857Y-33856D01*
X18851Y-34112D01*
X18944Y-34352D01*
X18961Y-34378D01*
X19089Y-34396D01*
X19485Y-34000D01*
X19480Y-33994D01*
X19494Y-33980D01*
X19500Y-33985D01*
X19505Y-33980D01*
X19519Y-33994D01*
X19514Y-34000D01*
X19910Y-34396D01*
X20038Y-34378D01*
X20059Y-34330D01*
X20190Y-34462D01*
X20391Y-34545D01*
X20409Y-34545D01*
X20431Y-34568D01*
X20577Y-34665D01*
X20750Y-34700D01*
X23313Y-34700D01*
X23681Y-35067D01*
X23744Y-35131D01*
X23827Y-35165D01*
X23910Y-35199D01*
X24000Y-35200D01*
X24089Y-35200D01*
X24129Y-35183D01*
X24204Y-35364D01*
X24385Y-35545D01*
X24621Y-35643D01*
X24877Y-35643D01*
X24942Y-35616D01*
X25037Y-35712D01*
X25037Y-35712D01*
X25135Y-35777D01*
X25250Y-35800D01*
X28125Y-35800D01*
X28287Y-35962D01*
X28344Y-36000D01*
G36*
X30775Y-30800D02*
X29875Y-31700D01*
X27301Y-31700D01*
X27241Y-31639D01*
X27084Y-31575D01*
X26915Y-31574D01*
X26759Y-31639D01*
X26639Y-31758D01*
X26575Y-31915D01*
X26575Y-31950D01*
X25377Y-31950D01*
X25424Y-31834D01*
X25425Y-31665D01*
X25360Y-31509D01*
X25241Y-31389D01*
X25084Y-31325D01*
X24915Y-31324D01*
X24759Y-31389D01*
X24639Y-31508D01*
X24575Y-31665D01*
X24575Y-31700D01*
X21724Y-31700D01*
X22124Y-31300D01*
X27574Y-31300D01*
X27574Y-31334D01*
X27639Y-31490D01*
X27758Y-31610D01*
X27915Y-31674D01*
X28084Y-31675D01*
X28240Y-31610D01*
X28360Y-31491D01*
X28424Y-31334D01*
X28425Y-31165D01*
X28377Y-31050D01*
X29324Y-31050D01*
X29324Y-31084D01*
X29389Y-31240D01*
X29508Y-31360D01*
X29665Y-31424D01*
X29834Y-31425D01*
X29990Y-31360D01*
X30110Y-31241D01*
X30174Y-31084D01*
X30175Y-30915D01*
X30127Y-30800D01*
X30775Y-30800D01*
X30775Y-30800D01*
G37*
X30775Y-30800D02*
X29875Y-31700D01*
X27301Y-31700D01*
X27241Y-31639D01*
X27084Y-31575D01*
X26915Y-31574D01*
X26759Y-31639D01*
X26639Y-31758D01*
X26575Y-31915D01*
X26575Y-31950D01*
X25377Y-31950D01*
X25424Y-31834D01*
X25425Y-31665D01*
X25360Y-31509D01*
X25241Y-31389D01*
X25084Y-31325D01*
X24915Y-31324D01*
X24759Y-31389D01*
X24639Y-31508D01*
X24575Y-31665D01*
X24575Y-31700D01*
X21724Y-31700D01*
X22124Y-31300D01*
X27574Y-31300D01*
X27574Y-31334D01*
X27639Y-31490D01*
X27758Y-31610D01*
X27915Y-31674D01*
X28084Y-31675D01*
X28240Y-31610D01*
X28360Y-31491D01*
X28424Y-31334D01*
X28425Y-31165D01*
X28377Y-31050D01*
X29324Y-31050D01*
X29324Y-31084D01*
X29389Y-31240D01*
X29508Y-31360D01*
X29665Y-31424D01*
X29834Y-31425D01*
X29990Y-31360D01*
X30110Y-31241D01*
X30174Y-31084D01*
X30175Y-30915D01*
X30127Y-30800D01*
X30775Y-30800D01*
G36*
X31198Y-34550D02*
X29210Y-34550D01*
X29114Y-34454D01*
X28878Y-34356D01*
X28622Y-34356D01*
X28385Y-34454D01*
X28289Y-34550D01*
X25936Y-34550D01*
X25318Y-33931D01*
X25172Y-33834D01*
X25000Y-33800D01*
X27074Y-33800D01*
X27074Y-33834D01*
X27139Y-33990D01*
X27258Y-34110D01*
X27415Y-34174D01*
X27584Y-34175D01*
X27740Y-34110D01*
X27860Y-33991D01*
X27924Y-33834D01*
X27925Y-33665D01*
X27860Y-33509D01*
X27796Y-33445D01*
X27797Y-33445D01*
X27944Y-33297D01*
X28000Y-33164D01*
X28054Y-33297D01*
X28202Y-33444D01*
X28395Y-33524D01*
X28603Y-33525D01*
X28797Y-33445D01*
X28944Y-33297D01*
X29000Y-33164D01*
X29054Y-33297D01*
X29202Y-33444D01*
X29395Y-33524D01*
X29600Y-33525D01*
X30037Y-33962D01*
X30135Y-34027D01*
X30135Y-34027D01*
X30250Y-34050D01*
X31122Y-34050D01*
X31075Y-34165D01*
X31074Y-34334D01*
X31139Y-34490D01*
X31198Y-34550D01*
X31198Y-34550D01*
G37*
X31198Y-34550D02*
X29210Y-34550D01*
X29114Y-34454D01*
X28878Y-34356D01*
X28622Y-34356D01*
X28385Y-34454D01*
X28289Y-34550D01*
X25936Y-34550D01*
X25318Y-33931D01*
X25172Y-33834D01*
X25000Y-33800D01*
X27074Y-33800D01*
X27074Y-33834D01*
X27139Y-33990D01*
X27258Y-34110D01*
X27415Y-34174D01*
X27584Y-34175D01*
X27740Y-34110D01*
X27860Y-33991D01*
X27924Y-33834D01*
X27925Y-33665D01*
X27860Y-33509D01*
X27796Y-33445D01*
X27797Y-33445D01*
X27944Y-33297D01*
X28000Y-33164D01*
X28054Y-33297D01*
X28202Y-33444D01*
X28395Y-33524D01*
X28603Y-33525D01*
X28797Y-33445D01*
X28944Y-33297D01*
X29000Y-33164D01*
X29054Y-33297D01*
X29202Y-33444D01*
X29395Y-33524D01*
X29600Y-33525D01*
X30037Y-33962D01*
X30135Y-34027D01*
X30135Y-34027D01*
X30250Y-34050D01*
X31122Y-34050D01*
X31075Y-34165D01*
X31074Y-34334D01*
X31139Y-34490D01*
X31198Y-34550D01*
G36*
X32802Y-38450D02*
X32750Y-38450D01*
X32635Y-38472D01*
X32537Y-38537D01*
X32151Y-38924D01*
X32117Y-38910D01*
X31883Y-38909D01*
X31666Y-38999D01*
X31500Y-39165D01*
X31499Y-39165D01*
X31334Y-39000D01*
X31117Y-38910D01*
X30883Y-38909D01*
X30666Y-38999D01*
X30500Y-39165D01*
X30499Y-39165D01*
X30334Y-39000D01*
X30117Y-38910D01*
X29922Y-38909D01*
X29860Y-38759D01*
X29741Y-38639D01*
X29584Y-38575D01*
X29415Y-38574D01*
X29259Y-38639D01*
X29139Y-38758D01*
X29077Y-38910D01*
X28883Y-38909D01*
X28666Y-38999D01*
X28500Y-39165D01*
X28499Y-39165D01*
X28379Y-39044D01*
X28874Y-38550D01*
X29698Y-38550D01*
X29758Y-38610D01*
X29915Y-38674D01*
X30084Y-38675D01*
X30240Y-38610D01*
X30360Y-38491D01*
X30424Y-38334D01*
X30425Y-38165D01*
X30360Y-38009D01*
X30241Y-37889D01*
X30084Y-37825D01*
X29915Y-37824D01*
X29759Y-37889D01*
X29698Y-37950D01*
X28750Y-37950D01*
X28635Y-37972D01*
X28537Y-38037D01*
X27787Y-38787D01*
X27722Y-38885D01*
X27703Y-38984D01*
X27703Y-38984D01*
X27666Y-38999D01*
X27500Y-39165D01*
X27410Y-39382D01*
X27409Y-39616D01*
X27485Y-39800D01*
X26590Y-39800D01*
X26590Y-39790D01*
X26590Y-39110D01*
X26551Y-39018D01*
X26481Y-38948D01*
X26389Y-38910D01*
X26290Y-38910D01*
X25726Y-38910D01*
X26686Y-37950D01*
X28000Y-37950D01*
X28172Y-37915D01*
X28318Y-37818D01*
X28567Y-37568D01*
X28568Y-37568D01*
X28631Y-37505D01*
X28631Y-37505D01*
X28936Y-37200D01*
X32477Y-37200D01*
X32459Y-37754D01*
X32674Y-38324D01*
X32731Y-38409D01*
X32802Y-38450D01*
X32802Y-38450D01*
G37*
X32802Y-38450D02*
X32750Y-38450D01*
X32635Y-38472D01*
X32537Y-38537D01*
X32151Y-38924D01*
X32117Y-38910D01*
X31883Y-38909D01*
X31666Y-38999D01*
X31500Y-39165D01*
X31499Y-39165D01*
X31334Y-39000D01*
X31117Y-38910D01*
X30883Y-38909D01*
X30666Y-38999D01*
X30500Y-39165D01*
X30499Y-39165D01*
X30334Y-39000D01*
X30117Y-38910D01*
X29922Y-38909D01*
X29860Y-38759D01*
X29741Y-38639D01*
X29584Y-38575D01*
X29415Y-38574D01*
X29259Y-38639D01*
X29139Y-38758D01*
X29077Y-38910D01*
X28883Y-38909D01*
X28666Y-38999D01*
X28500Y-39165D01*
X28499Y-39165D01*
X28379Y-39044D01*
X28874Y-38550D01*
X29698Y-38550D01*
X29758Y-38610D01*
X29915Y-38674D01*
X30084Y-38675D01*
X30240Y-38610D01*
X30360Y-38491D01*
X30424Y-38334D01*
X30425Y-38165D01*
X30360Y-38009D01*
X30241Y-37889D01*
X30084Y-37825D01*
X29915Y-37824D01*
X29759Y-37889D01*
X29698Y-37950D01*
X28750Y-37950D01*
X28635Y-37972D01*
X28537Y-38037D01*
X27787Y-38787D01*
X27722Y-38885D01*
X27703Y-38984D01*
X27703Y-38984D01*
X27666Y-38999D01*
X27500Y-39165D01*
X27410Y-39382D01*
X27409Y-39616D01*
X27485Y-39800D01*
X26590Y-39800D01*
X26590Y-39790D01*
X26590Y-39110D01*
X26551Y-39018D01*
X26481Y-38948D01*
X26389Y-38910D01*
X26290Y-38910D01*
X25726Y-38910D01*
X26686Y-37950D01*
X28000Y-37950D01*
X28172Y-37915D01*
X28318Y-37818D01*
X28567Y-37568D01*
X28568Y-37568D01*
X28631Y-37505D01*
X28631Y-37505D01*
X28936Y-37200D01*
X32477Y-37200D01*
X32459Y-37754D01*
X32674Y-38324D01*
X32731Y-38409D01*
X32802Y-38450D01*
G36*
X32813Y-35800D02*
X32313Y-36300D01*
X29801Y-36300D01*
X29860Y-36241D01*
X29924Y-36084D01*
X29925Y-35915D01*
X29877Y-35800D01*
X32813Y-35800D01*
X32813Y-35800D01*
G37*
X32813Y-35800D02*
X32313Y-36300D01*
X29801Y-36300D01*
X29860Y-36241D01*
X29924Y-36084D01*
X29925Y-35915D01*
X29877Y-35800D01*
X32813Y-35800D01*
G36*
X34167Y-31010D02*
X34160Y-31010D01*
X34160Y-31017D01*
X34140Y-31017D01*
X34140Y-31010D01*
X34132Y-31010D01*
X34132Y-30990D01*
X34140Y-30990D01*
X34140Y-30982D01*
X34160Y-30982D01*
X34160Y-30990D01*
X34167Y-30990D01*
X34167Y-31010D01*
X34167Y-31010D01*
G37*
X34167Y-31010D02*
X34160Y-31010D01*
X34160Y-31017D01*
X34140Y-31017D01*
X34140Y-31010D01*
X34132Y-31010D01*
X34132Y-30990D01*
X34140Y-30990D01*
X34140Y-30982D01*
X34160Y-30982D01*
X34160Y-30990D01*
X34167Y-30990D01*
X34167Y-31010D01*
G36*
X35275Y-15300D02*
X33875Y-16700D01*
X33648Y-16700D01*
X33679Y-16617D01*
X33602Y-16510D01*
X33010Y-16510D01*
X33010Y-16517D01*
X32990Y-16517D01*
X32990Y-16510D01*
X32602Y-16510D01*
X32397Y-16510D01*
X32010Y-16510D01*
X32010Y-16517D01*
X31990Y-16517D01*
X31990Y-16510D01*
X31982Y-16510D01*
X31982Y-16490D01*
X31990Y-16490D01*
X31990Y-16482D01*
X32010Y-16482D01*
X32010Y-16490D01*
X32397Y-16490D01*
X32602Y-16490D01*
X32990Y-16490D01*
X32990Y-16482D01*
X33010Y-16482D01*
X33010Y-16490D01*
X33602Y-16490D01*
X33679Y-16382D01*
X33634Y-16264D01*
X33712Y-16212D01*
X34624Y-15300D01*
X35275Y-15300D01*
X35275Y-15300D01*
G37*
X35275Y-15300D02*
X33875Y-16700D01*
X33648Y-16700D01*
X33679Y-16617D01*
X33602Y-16510D01*
X33010Y-16510D01*
X33010Y-16517D01*
X32990Y-16517D01*
X32990Y-16510D01*
X32602Y-16510D01*
X32397Y-16510D01*
X32010Y-16510D01*
X32010Y-16517D01*
X31990Y-16517D01*
X31990Y-16510D01*
X31982Y-16510D01*
X31982Y-16490D01*
X31990Y-16490D01*
X31990Y-16482D01*
X32010Y-16482D01*
X32010Y-16490D01*
X32397Y-16490D01*
X32602Y-16490D01*
X32990Y-16490D01*
X32990Y-16482D01*
X33010Y-16482D01*
X33010Y-16490D01*
X33602Y-16490D01*
X33679Y-16382D01*
X33634Y-16264D01*
X33712Y-16212D01*
X34624Y-15300D01*
X35275Y-15300D01*
G36*
X36339Y-30146D02*
X36285Y-30200D01*
X35750Y-30200D01*
X35635Y-30222D01*
X35537Y-30287D01*
X34835Y-30989D01*
X34752Y-30989D01*
X34829Y-30882D01*
X34733Y-30630D01*
X34550Y-30439D01*
X34567Y-30428D01*
X34695Y-30237D01*
X34740Y-30011D01*
X34740Y-29988D01*
X34695Y-29762D01*
X34567Y-29571D01*
X34460Y-29500D01*
X34535Y-29450D01*
X35999Y-29450D01*
X36000Y-29450D01*
X36089Y-29450D01*
X36172Y-29415D01*
X36196Y-29405D01*
X36107Y-29606D01*
X36101Y-29862D01*
X36194Y-30102D01*
X36211Y-30128D01*
X36339Y-30146D01*
X36339Y-30146D01*
G37*
X36339Y-30146D02*
X36285Y-30200D01*
X35750Y-30200D01*
X35635Y-30222D01*
X35537Y-30287D01*
X34835Y-30989D01*
X34752Y-30989D01*
X34829Y-30882D01*
X34733Y-30630D01*
X34550Y-30439D01*
X34567Y-30428D01*
X34695Y-30237D01*
X34740Y-30011D01*
X34740Y-29988D01*
X34695Y-29762D01*
X34567Y-29571D01*
X34460Y-29500D01*
X34535Y-29450D01*
X35999Y-29450D01*
X36000Y-29450D01*
X36089Y-29450D01*
X36172Y-29415D01*
X36196Y-29405D01*
X36107Y-29606D01*
X36101Y-29862D01*
X36194Y-30102D01*
X36211Y-30128D01*
X36339Y-30146D01*
G36*
X36769Y-29755D02*
X36755Y-29769D01*
X36750Y-29764D01*
X36744Y-29769D01*
X36730Y-29755D01*
X36735Y-29750D01*
X36730Y-29744D01*
X36744Y-29730D01*
X36750Y-29735D01*
X36755Y-29730D01*
X36769Y-29744D01*
X36764Y-29750D01*
X36769Y-29755D01*
X36769Y-29755D01*
G37*
X36769Y-29755D02*
X36755Y-29769D01*
X36750Y-29764D01*
X36744Y-29769D01*
X36730Y-29755D01*
X36735Y-29750D01*
X36730Y-29744D01*
X36744Y-29730D01*
X36750Y-29735D01*
X36755Y-29730D01*
X36769Y-29744D01*
X36764Y-29750D01*
X36769Y-29755D01*
G36*
X41258Y-49395D02*
X40728Y-49395D01*
X40752Y-49379D01*
X40877Y-49159D01*
X39842Y-48124D01*
X39828Y-48138D01*
X39828Y-48110D01*
X38793Y-47075D01*
X38573Y-47200D01*
X38322Y-47755D01*
X38302Y-48364D01*
X38516Y-48934D01*
X38573Y-49019D01*
X38793Y-49145D01*
X39828Y-48110D01*
X39828Y-48138D01*
X38807Y-49159D01*
X38933Y-49379D01*
X38968Y-49395D01*
X33991Y-49395D01*
X36436Y-46950D01*
X38871Y-46950D01*
X38807Y-47061D01*
X39842Y-48096D01*
X39848Y-48090D01*
X39862Y-48104D01*
X39856Y-48110D01*
X40891Y-49145D01*
X41059Y-49049D01*
X41084Y-49172D01*
X41181Y-49318D01*
X41258Y-49395D01*
X41258Y-49395D01*
G37*
X41258Y-49395D02*
X40728Y-49395D01*
X40752Y-49379D01*
X40877Y-49159D01*
X39842Y-48124D01*
X39828Y-48138D01*
X39828Y-48110D01*
X38793Y-47075D01*
X38573Y-47200D01*
X38322Y-47755D01*
X38302Y-48364D01*
X38516Y-48934D01*
X38573Y-49019D01*
X38793Y-49145D01*
X39828Y-48110D01*
X39828Y-48138D01*
X38807Y-49159D01*
X38933Y-49379D01*
X38968Y-49395D01*
X33991Y-49395D01*
X36436Y-46950D01*
X38871Y-46950D01*
X38807Y-47061D01*
X39842Y-48096D01*
X39848Y-48090D01*
X39862Y-48104D01*
X39856Y-48110D01*
X40891Y-49145D01*
X41059Y-49049D01*
X41084Y-49172D01*
X41181Y-49318D01*
X41258Y-49395D01*
G36*
X42758Y-10604D02*
X41371Y-11992D01*
X41382Y-11635D01*
X41168Y-11065D01*
X41111Y-10980D01*
X40891Y-10854D01*
X39856Y-11889D01*
X39862Y-11895D01*
X39848Y-11909D01*
X39842Y-11903D01*
X39828Y-11918D01*
X39828Y-11889D01*
X38793Y-10854D01*
X38573Y-10980D01*
X38322Y-11535D01*
X38302Y-12143D01*
X38516Y-12713D01*
X38573Y-12799D01*
X38793Y-12924D01*
X39828Y-11889D01*
X39828Y-11918D01*
X38807Y-12938D01*
X38871Y-13050D01*
X35936Y-13050D01*
X34068Y-11181D01*
X33922Y-11084D01*
X33750Y-11050D01*
X33385Y-11050D01*
X33225Y-10943D01*
X33000Y-10898D01*
X32774Y-10943D01*
X32614Y-11050D01*
X32385Y-11050D01*
X32225Y-10943D01*
X32000Y-10898D01*
X31774Y-10943D01*
X31614Y-11050D01*
X29286Y-11050D01*
X28841Y-10604D01*
X38956Y-10604D01*
X38933Y-10620D01*
X38807Y-10840D01*
X39842Y-11875D01*
X40877Y-10840D01*
X40752Y-10620D01*
X40716Y-10604D01*
X42758Y-10604D01*
X42758Y-10604D01*
G37*
X42758Y-10604D02*
X41371Y-11992D01*
X41382Y-11635D01*
X41168Y-11065D01*
X41111Y-10980D01*
X40891Y-10854D01*
X39856Y-11889D01*
X39862Y-11895D01*
X39848Y-11909D01*
X39842Y-11903D01*
X39828Y-11918D01*
X39828Y-11889D01*
X38793Y-10854D01*
X38573Y-10980D01*
X38322Y-11535D01*
X38302Y-12143D01*
X38516Y-12713D01*
X38573Y-12799D01*
X38793Y-12924D01*
X39828Y-11889D01*
X39828Y-11918D01*
X38807Y-12938D01*
X38871Y-13050D01*
X35936Y-13050D01*
X34068Y-11181D01*
X33922Y-11084D01*
X33750Y-11050D01*
X33385Y-11050D01*
X33225Y-10943D01*
X33000Y-10898D01*
X32774Y-10943D01*
X32614Y-11050D01*
X32385Y-11050D01*
X32225Y-10943D01*
X32000Y-10898D01*
X31774Y-10943D01*
X31614Y-11050D01*
X29286Y-11050D01*
X28841Y-10604D01*
X38956Y-10604D01*
X38933Y-10620D01*
X38807Y-10840D01*
X39842Y-11875D01*
X40877Y-10840D01*
X40752Y-10620D01*
X40716Y-10604D01*
X42758Y-10604D01*
G36*
X48017Y-43510D02*
X48010Y-43510D01*
X48010Y-43517D01*
X47990Y-43517D01*
X47990Y-43510D01*
X47602Y-43510D01*
X47397Y-43510D01*
X47010Y-43510D01*
X47010Y-43517D01*
X46990Y-43517D01*
X46990Y-43510D01*
X46397Y-43510D01*
X46320Y-43617D01*
X46416Y-43869D01*
X46599Y-44060D01*
X46582Y-44071D01*
X46496Y-44200D01*
X45801Y-44200D01*
X45741Y-44139D01*
X45584Y-44075D01*
X45415Y-44074D01*
X45259Y-44139D01*
X45139Y-44258D01*
X45118Y-44311D01*
X45045Y-44135D01*
X44864Y-43954D01*
X44628Y-43856D01*
X44372Y-43856D01*
X44135Y-43954D01*
X43954Y-44135D01*
X43856Y-44371D01*
X43856Y-44627D01*
X43954Y-44864D01*
X44135Y-45045D01*
X44345Y-45132D01*
X44287Y-45190D01*
X44250Y-45281D01*
X44212Y-45191D01*
X44059Y-45037D01*
X43858Y-44954D01*
X43747Y-44954D01*
X43641Y-44954D01*
X43519Y-45005D01*
X43481Y-44967D01*
X43619Y-44937D01*
X43739Y-44667D01*
X43747Y-44371D01*
X43641Y-44095D01*
X43619Y-44062D01*
X43481Y-44032D01*
X43467Y-44047D01*
X43467Y-44018D01*
X43437Y-43880D01*
X43167Y-43760D01*
X42871Y-43752D01*
X42595Y-43858D01*
X42562Y-43880D01*
X42532Y-44018D01*
X43000Y-44485D01*
X43467Y-44018D01*
X43467Y-44047D01*
X43014Y-44500D01*
X43019Y-44505D01*
X43005Y-44519D01*
X43000Y-44514D01*
X42994Y-44519D01*
X42980Y-44505D01*
X42985Y-44500D01*
X42518Y-44032D01*
X42380Y-44062D01*
X42260Y-44332D01*
X42260Y-44336D01*
X42030Y-44106D01*
X43736Y-42400D01*
X44804Y-42400D01*
X44800Y-42410D01*
X44799Y-42589D01*
X44868Y-42754D01*
X44994Y-42881D01*
X45077Y-42915D01*
X45160Y-42949D01*
X45250Y-42950D01*
X45339Y-42950D01*
X45339Y-42950D01*
X46589Y-42950D01*
X46416Y-43130D01*
X46320Y-43382D01*
X46397Y-43490D01*
X46990Y-43490D01*
X46990Y-43482D01*
X47010Y-43482D01*
X47010Y-43490D01*
X47397Y-43490D01*
X47602Y-43490D01*
X47990Y-43490D01*
X47990Y-43482D01*
X48010Y-43482D01*
X48010Y-43490D01*
X48017Y-43490D01*
X48017Y-43510D01*
X48017Y-43510D01*
G37*
X48017Y-43510D02*
X48010Y-43510D01*
X48010Y-43517D01*
X47990Y-43517D01*
X47990Y-43510D01*
X47602Y-43510D01*
X47397Y-43510D01*
X47010Y-43510D01*
X47010Y-43517D01*
X46990Y-43517D01*
X46990Y-43510D01*
X46397Y-43510D01*
X46320Y-43617D01*
X46416Y-43869D01*
X46599Y-44060D01*
X46582Y-44071D01*
X46496Y-44200D01*
X45801Y-44200D01*
X45741Y-44139D01*
X45584Y-44075D01*
X45415Y-44074D01*
X45259Y-44139D01*
X45139Y-44258D01*
X45118Y-44311D01*
X45045Y-44135D01*
X44864Y-43954D01*
X44628Y-43856D01*
X44372Y-43856D01*
X44135Y-43954D01*
X43954Y-44135D01*
X43856Y-44371D01*
X43856Y-44627D01*
X43954Y-44864D01*
X44135Y-45045D01*
X44345Y-45132D01*
X44287Y-45190D01*
X44250Y-45281D01*
X44212Y-45191D01*
X44059Y-45037D01*
X43858Y-44954D01*
X43747Y-44954D01*
X43641Y-44954D01*
X43519Y-45005D01*
X43481Y-44967D01*
X43619Y-44937D01*
X43739Y-44667D01*
X43747Y-44371D01*
X43641Y-44095D01*
X43619Y-44062D01*
X43481Y-44032D01*
X43467Y-44047D01*
X43467Y-44018D01*
X43437Y-43880D01*
X43167Y-43760D01*
X42871Y-43752D01*
X42595Y-43858D01*
X42562Y-43880D01*
X42532Y-44018D01*
X43000Y-44485D01*
X43467Y-44018D01*
X43467Y-44047D01*
X43014Y-44500D01*
X43019Y-44505D01*
X43005Y-44519D01*
X43000Y-44514D01*
X42994Y-44519D01*
X42980Y-44505D01*
X42985Y-44500D01*
X42518Y-44032D01*
X42380Y-44062D01*
X42260Y-44332D01*
X42260Y-44336D01*
X42030Y-44106D01*
X43736Y-42400D01*
X44804Y-42400D01*
X44800Y-42410D01*
X44799Y-42589D01*
X44868Y-42754D01*
X44994Y-42881D01*
X45077Y-42915D01*
X45160Y-42949D01*
X45250Y-42950D01*
X45339Y-42950D01*
X45339Y-42950D01*
X46589Y-42950D01*
X46416Y-43130D01*
X46320Y-43382D01*
X46397Y-43490D01*
X46990Y-43490D01*
X46990Y-43482D01*
X47010Y-43482D01*
X47010Y-43490D01*
X47397Y-43490D01*
X47602Y-43490D01*
X47990Y-43490D01*
X47990Y-43482D01*
X48010Y-43482D01*
X48010Y-43490D01*
X48017Y-43490D01*
X48017Y-43510D01*
G36*
X48550Y-31063D02*
X48402Y-31210D01*
X48402Y-28886D01*
X48309Y-28645D01*
X48291Y-28618D01*
X48163Y-28600D01*
X47764Y-29000D01*
X48163Y-29399D01*
X48291Y-29381D01*
X48396Y-29144D01*
X48402Y-28886D01*
X48402Y-31210D01*
X48070Y-31542D01*
X48061Y-31534D01*
X47980Y-31500D01*
X48061Y-31466D01*
X48215Y-31311D01*
X48299Y-31109D01*
X48300Y-30891D01*
X48216Y-30688D01*
X48061Y-30534D01*
X47980Y-30500D01*
X48061Y-30466D01*
X48215Y-30311D01*
X48299Y-30109D01*
X48300Y-29891D01*
X48216Y-29688D01*
X48092Y-29564D01*
X48104Y-29559D01*
X48131Y-29541D01*
X48149Y-29413D01*
X47750Y-29014D01*
X47735Y-29028D01*
X47735Y-29000D01*
X47336Y-28600D01*
X47250Y-28612D01*
X47163Y-28600D01*
X46764Y-29000D01*
X47163Y-29399D01*
X47250Y-29387D01*
X47336Y-29399D01*
X47735Y-29000D01*
X47735Y-29028D01*
X47350Y-29413D01*
X47368Y-29541D01*
X47411Y-29560D01*
X47284Y-29688D01*
X47250Y-29769D01*
X47216Y-29688D01*
X47092Y-29564D01*
X47104Y-29559D01*
X47131Y-29541D01*
X47149Y-29413D01*
X46750Y-29014D01*
X46744Y-29019D01*
X46730Y-29005D01*
X46735Y-29000D01*
X46336Y-28600D01*
X46208Y-28618D01*
X46103Y-28855D01*
X46098Y-29073D01*
X45912Y-28887D01*
X45814Y-28822D01*
X45700Y-28800D01*
X44400Y-28800D01*
X44285Y-28822D01*
X44187Y-28887D01*
X43787Y-29287D01*
X43722Y-29385D01*
X43700Y-29500D01*
X43700Y-29625D01*
X43643Y-29682D01*
X43643Y-29622D01*
X43545Y-29385D01*
X43377Y-29217D01*
X43377Y-28390D01*
X43288Y-28158D01*
X43271Y-28133D01*
X43145Y-28118D01*
X43131Y-28132D01*
X43131Y-28104D01*
X43116Y-27978D01*
X42889Y-27878D01*
X42640Y-27872D01*
X42408Y-27961D01*
X42383Y-27978D01*
X42368Y-28104D01*
X42750Y-28485D01*
X43131Y-28104D01*
X43131Y-28132D01*
X42764Y-28500D01*
X43145Y-28881D01*
X43271Y-28866D01*
X43371Y-28639D01*
X43377Y-28390D01*
X43377Y-29217D01*
X43364Y-29204D01*
X43128Y-29106D01*
X42914Y-29106D01*
X43091Y-29038D01*
X43116Y-29021D01*
X43131Y-28895D01*
X42750Y-28514D01*
X42368Y-28895D01*
X42383Y-29021D01*
X42610Y-29121D01*
X42822Y-29126D01*
X42635Y-29204D01*
X42454Y-29385D01*
X42356Y-29621D01*
X42356Y-29877D01*
X42454Y-30114D01*
X42635Y-30295D01*
X42871Y-30393D01*
X42932Y-30393D01*
X42875Y-30450D01*
X42750Y-30450D01*
X42635Y-30472D01*
X42596Y-30498D01*
X42537Y-30537D01*
X42287Y-30787D01*
X42280Y-30798D01*
X42104Y-30725D01*
X41896Y-30724D01*
X41703Y-30804D01*
X41555Y-30952D01*
X41499Y-31085D01*
X41445Y-30953D01*
X41297Y-30805D01*
X41104Y-30725D01*
X40896Y-30724D01*
X40703Y-30804D01*
X40555Y-30952D01*
X40555Y-30952D01*
X40538Y-30908D01*
X40521Y-30883D01*
X40395Y-30868D01*
X40381Y-30882D01*
X40381Y-30854D01*
X40366Y-30728D01*
X40139Y-30628D01*
X39890Y-30622D01*
X39658Y-30711D01*
X39633Y-30728D01*
X39618Y-30854D01*
X40000Y-31235D01*
X40381Y-30854D01*
X40381Y-30882D01*
X40014Y-31250D01*
X40395Y-31631D01*
X40521Y-31616D01*
X40553Y-31543D01*
X40554Y-31547D01*
X40702Y-31694D01*
X40895Y-31774D01*
X41100Y-31775D01*
X41125Y-31800D01*
X40310Y-31800D01*
X40341Y-31788D01*
X40366Y-31771D01*
X40381Y-31645D01*
X40000Y-31264D01*
X39994Y-31269D01*
X39980Y-31255D01*
X39985Y-31250D01*
X39604Y-30868D01*
X39478Y-30883D01*
X39378Y-31110D01*
X39372Y-31359D01*
X39451Y-31565D01*
X39200Y-31313D01*
X39200Y-31210D01*
X39295Y-31114D01*
X39393Y-30878D01*
X39393Y-30622D01*
X39295Y-30385D01*
X39252Y-30342D01*
X39364Y-30295D01*
X39545Y-30114D01*
X39643Y-29878D01*
X39643Y-29778D01*
X39750Y-29800D01*
X40698Y-29800D01*
X40758Y-29860D01*
X40915Y-29924D01*
X41084Y-29925D01*
X41240Y-29860D01*
X41360Y-29741D01*
X41424Y-29584D01*
X41425Y-29415D01*
X41360Y-29259D01*
X41241Y-29139D01*
X41084Y-29075D01*
X40915Y-29074D01*
X40759Y-29139D01*
X40698Y-29200D01*
X39874Y-29200D01*
X39699Y-29024D01*
X39853Y-29025D01*
X40047Y-28945D01*
X40194Y-28797D01*
X40250Y-28664D01*
X40304Y-28797D01*
X40452Y-28944D01*
X40645Y-29024D01*
X40853Y-29025D01*
X41047Y-28945D01*
X41194Y-28797D01*
X41250Y-28664D01*
X41304Y-28797D01*
X41452Y-28944D01*
X41645Y-29024D01*
X41853Y-29025D01*
X42047Y-28945D01*
X42194Y-28797D01*
X42194Y-28797D01*
X42211Y-28841D01*
X42228Y-28866D01*
X42354Y-28881D01*
X42735Y-28500D01*
X42354Y-28118D01*
X42228Y-28133D01*
X42196Y-28206D01*
X42195Y-28203D01*
X42047Y-28055D01*
X41854Y-27975D01*
X41646Y-27974D01*
X41453Y-28054D01*
X41305Y-28202D01*
X41249Y-28335D01*
X41195Y-28203D01*
X41047Y-28055D01*
X40854Y-27975D01*
X40646Y-27974D01*
X40453Y-28054D01*
X40305Y-28202D01*
X40249Y-28335D01*
X40195Y-28203D01*
X40083Y-28090D01*
X40874Y-27300D01*
X41122Y-27300D01*
X41075Y-27415D01*
X41074Y-27584D01*
X41139Y-27740D01*
X41258Y-27860D01*
X41415Y-27924D01*
X41584Y-27925D01*
X41740Y-27860D01*
X41801Y-27800D01*
X46200Y-27800D01*
X46200Y-28349D01*
X46238Y-28441D01*
X46308Y-28511D01*
X46358Y-28532D01*
X46350Y-28586D01*
X46750Y-28985D01*
X47149Y-28586D01*
X47141Y-28532D01*
X47191Y-28511D01*
X47253Y-28450D01*
X47380Y-28450D01*
X47368Y-28458D01*
X47350Y-28586D01*
X47750Y-28985D01*
X48149Y-28586D01*
X48131Y-28458D01*
X48088Y-28439D01*
X48215Y-28311D01*
X48299Y-28109D01*
X48300Y-27891D01*
X48216Y-27688D01*
X48064Y-27536D01*
X48110Y-27491D01*
X48174Y-27334D01*
X48175Y-27165D01*
X48110Y-27009D01*
X47991Y-26889D01*
X47834Y-26825D01*
X47665Y-26824D01*
X47509Y-26889D01*
X47389Y-27008D01*
X47325Y-27165D01*
X47325Y-27200D01*
X43724Y-27200D01*
X44557Y-26366D01*
X44621Y-26393D01*
X44877Y-26393D01*
X45114Y-26295D01*
X45295Y-26114D01*
X45393Y-25878D01*
X45393Y-25622D01*
X45295Y-25385D01*
X45114Y-25204D01*
X44910Y-25119D01*
X44924Y-25084D01*
X44924Y-25045D01*
X45108Y-25045D01*
X45308Y-24962D01*
X45462Y-24809D01*
X45466Y-24800D01*
X45896Y-24800D01*
X46121Y-24893D01*
X46377Y-24893D01*
X46614Y-24795D01*
X46795Y-24614D01*
X46893Y-24378D01*
X46893Y-24122D01*
X46795Y-23885D01*
X46717Y-23807D01*
X46717Y-20731D01*
X46250Y-20264D01*
X45782Y-20731D01*
X45812Y-20869D01*
X46082Y-20989D01*
X46378Y-20997D01*
X46654Y-20891D01*
X46687Y-20869D01*
X46717Y-20731D01*
X46717Y-23807D01*
X46614Y-23704D01*
X46378Y-23606D01*
X46122Y-23606D01*
X45885Y-23704D01*
X45704Y-23885D01*
X45648Y-24020D01*
X45648Y-20887D01*
X45555Y-20647D01*
X45538Y-20621D01*
X45410Y-20603D01*
X45014Y-21000D01*
X45410Y-21396D01*
X45538Y-21378D01*
X45642Y-21143D01*
X45648Y-20887D01*
X45648Y-24020D01*
X45606Y-24121D01*
X45606Y-24200D01*
X45545Y-24200D01*
X45545Y-22641D01*
X45462Y-22441D01*
X45396Y-22374D01*
X45396Y-21410D01*
X45000Y-21014D01*
X44985Y-21028D01*
X44603Y-21410D01*
X44621Y-21538D01*
X44856Y-21642D01*
X45112Y-21648D01*
X45352Y-21555D01*
X45378Y-21538D01*
X45396Y-21410D01*
X45396Y-22374D01*
X45309Y-22287D01*
X45108Y-22204D01*
X44891Y-22204D01*
X44691Y-22287D01*
X44562Y-22415D01*
X44555Y-22397D01*
X44538Y-22371D01*
X44410Y-22353D01*
X44396Y-22367D01*
X44396Y-22339D01*
X44378Y-22211D01*
X44143Y-22107D01*
X43887Y-22101D01*
X43647Y-22194D01*
X43621Y-22211D01*
X43603Y-22339D01*
X44000Y-22735D01*
X44396Y-22339D01*
X44396Y-22367D01*
X44014Y-22750D01*
X44019Y-22755D01*
X44005Y-22769D01*
X44000Y-22764D01*
X43994Y-22769D01*
X43980Y-22755D01*
X43985Y-22750D01*
X43589Y-22353D01*
X43461Y-22371D01*
X43357Y-22606D01*
X43354Y-22739D01*
X43272Y-22684D01*
X43100Y-22650D01*
X42939Y-22650D01*
X43045Y-22576D01*
X43190Y-22352D01*
X43228Y-22216D01*
X43151Y-22110D01*
X42210Y-22110D01*
X42210Y-22117D01*
X42190Y-22117D01*
X42190Y-22110D01*
X41248Y-22110D01*
X41171Y-22216D01*
X41209Y-22352D01*
X41354Y-22576D01*
X41464Y-22652D01*
X41413Y-22686D01*
X41287Y-22876D01*
X41242Y-23100D01*
X41287Y-23323D01*
X41413Y-23513D01*
X41603Y-23640D01*
X41827Y-23684D01*
X42572Y-23684D01*
X42796Y-23640D01*
X42920Y-23557D01*
X43181Y-23818D01*
X43327Y-23915D01*
X43500Y-23950D01*
X44250Y-23950D01*
X44422Y-23915D01*
X44568Y-23818D01*
X45090Y-23295D01*
X45108Y-23295D01*
X45308Y-23212D01*
X45462Y-23059D01*
X45545Y-22858D01*
X45545Y-22641D01*
X45545Y-24200D01*
X45466Y-24200D01*
X45462Y-24191D01*
X45309Y-24037D01*
X45108Y-23954D01*
X44891Y-23954D01*
X44691Y-24037D01*
X44537Y-24190D01*
X44500Y-24281D01*
X44462Y-24191D01*
X44309Y-24037D01*
X44108Y-23954D01*
X43891Y-23954D01*
X43691Y-24037D01*
X43537Y-24190D01*
X43454Y-24391D01*
X43454Y-24608D01*
X43537Y-24808D01*
X43690Y-24962D01*
X43891Y-25045D01*
X44030Y-25045D01*
X43106Y-25969D01*
X43064Y-25927D01*
X43194Y-25797D01*
X43274Y-25604D01*
X43275Y-25396D01*
X43195Y-25203D01*
X43047Y-25055D01*
X42854Y-24975D01*
X42646Y-24974D01*
X42453Y-25054D01*
X42305Y-25202D01*
X42249Y-25335D01*
X42195Y-25203D01*
X42047Y-25055D01*
X41854Y-24975D01*
X41646Y-24974D01*
X41453Y-25054D01*
X41305Y-25202D01*
X41249Y-25335D01*
X41195Y-25203D01*
X41050Y-25057D01*
X41050Y-24069D01*
X41050Y-23930D01*
X41050Y-22197D01*
X41050Y-22002D01*
X41050Y-20269D01*
X41050Y-20130D01*
X41034Y-20093D01*
X41034Y-19049D01*
X40000Y-18014D01*
X39985Y-18028D01*
X39985Y-18000D01*
X38950Y-16965D01*
X38731Y-17090D01*
X38479Y-17645D01*
X38459Y-18254D01*
X38674Y-18824D01*
X38731Y-18909D01*
X38950Y-19034D01*
X39985Y-18000D01*
X39985Y-18028D01*
X38965Y-19049D01*
X39090Y-19268D01*
X39645Y-19520D01*
X40254Y-19540D01*
X40824Y-19325D01*
X40909Y-19268D01*
X41034Y-19049D01*
X41034Y-20093D01*
X40996Y-20001D01*
X40898Y-19903D01*
X40769Y-19850D01*
X37697Y-19850D01*
X37610Y-19937D01*
X37610Y-22090D01*
X40962Y-22090D01*
X41050Y-22002D01*
X41050Y-22197D01*
X40962Y-22110D01*
X37610Y-22110D01*
X37610Y-24262D01*
X37697Y-24350D01*
X40769Y-24350D01*
X40898Y-24296D01*
X40996Y-24198D01*
X41050Y-24069D01*
X41050Y-25057D01*
X41047Y-25055D01*
X40854Y-24975D01*
X40646Y-24974D01*
X40453Y-25054D01*
X40305Y-25202D01*
X40249Y-25335D01*
X40195Y-25203D01*
X40047Y-25055D01*
X39854Y-24975D01*
X39646Y-24974D01*
X39453Y-25054D01*
X39305Y-25202D01*
X39249Y-25335D01*
X39195Y-25203D01*
X39047Y-25055D01*
X38854Y-24975D01*
X38646Y-24974D01*
X38453Y-25054D01*
X38305Y-25202D01*
X38249Y-25335D01*
X38195Y-25203D01*
X38047Y-25055D01*
X37854Y-24975D01*
X37646Y-24974D01*
X37453Y-25054D01*
X37305Y-25202D01*
X37249Y-25335D01*
X37195Y-25203D01*
X37131Y-25139D01*
X37212Y-25059D01*
X37295Y-24858D01*
X37295Y-24641D01*
X37212Y-24441D01*
X37121Y-24350D01*
X37502Y-24350D01*
X37590Y-24262D01*
X37590Y-22110D01*
X34237Y-22110D01*
X34150Y-22197D01*
X34150Y-23930D01*
X34150Y-24069D01*
X34203Y-24198D01*
X34301Y-24296D01*
X34430Y-24350D01*
X35335Y-24350D01*
X35339Y-24353D01*
X35211Y-24371D01*
X35107Y-24606D01*
X35101Y-24862D01*
X35194Y-25102D01*
X35211Y-25128D01*
X35339Y-25146D01*
X35735Y-24750D01*
X35730Y-24744D01*
X35744Y-24730D01*
X35750Y-24735D01*
X35755Y-24730D01*
X35769Y-24744D01*
X35764Y-24750D01*
X36160Y-25146D01*
X36288Y-25128D01*
X36309Y-25080D01*
X36368Y-25139D01*
X36305Y-25202D01*
X36225Y-25395D01*
X36224Y-25603D01*
X36304Y-25797D01*
X36452Y-25944D01*
X36633Y-26020D01*
X37181Y-26568D01*
X37327Y-26665D01*
X37500Y-26700D01*
X40125Y-26700D01*
X40000Y-26825D01*
X39915Y-26824D01*
X39759Y-26889D01*
X39639Y-27008D01*
X39575Y-27165D01*
X39574Y-27334D01*
X39639Y-27490D01*
X39737Y-27588D01*
X39537Y-27787D01*
X39507Y-27833D01*
X39462Y-27787D01*
X39364Y-27722D01*
X39250Y-27700D01*
X38500Y-27700D01*
X38385Y-27722D01*
X38346Y-27748D01*
X38287Y-27787D01*
X38037Y-28037D01*
X38030Y-28048D01*
X37854Y-27975D01*
X37646Y-27974D01*
X37453Y-28054D01*
X37305Y-28202D01*
X37275Y-28274D01*
X37275Y-28175D01*
X37236Y-28083D01*
X37166Y-28013D01*
X37074Y-27975D01*
X36975Y-27975D01*
X36425Y-27975D01*
X36333Y-28013D01*
X36263Y-28083D01*
X36225Y-28175D01*
X36225Y-28274D01*
X36225Y-28606D01*
X36146Y-28573D01*
X36146Y-25160D01*
X35750Y-24764D01*
X35735Y-24778D01*
X35353Y-25160D01*
X35371Y-25288D01*
X35606Y-25392D01*
X35862Y-25398D01*
X36102Y-25305D01*
X36128Y-25288D01*
X36146Y-25160D01*
X36146Y-28573D01*
X36089Y-28550D01*
X35910Y-28549D01*
X35910Y-28550D01*
X35540Y-28550D01*
X35540Y-26245D01*
X35325Y-25675D01*
X35268Y-25590D01*
X35049Y-25465D01*
X35034Y-25479D01*
X35034Y-25450D01*
X34909Y-25231D01*
X34354Y-24979D01*
X33745Y-24959D01*
X33175Y-25174D01*
X33090Y-25231D01*
X32965Y-25450D01*
X34000Y-26485D01*
X35034Y-25450D01*
X35034Y-25479D01*
X34014Y-26500D01*
X35049Y-27534D01*
X35268Y-27409D01*
X35520Y-26854D01*
X35540Y-26245D01*
X35540Y-28550D01*
X35034Y-28550D01*
X35034Y-27549D01*
X34000Y-26514D01*
X33985Y-26528D01*
X33985Y-26500D01*
X32950Y-25465D01*
X32731Y-25590D01*
X32479Y-26145D01*
X32459Y-26754D01*
X32674Y-27324D01*
X32731Y-27409D01*
X32950Y-27534D01*
X33985Y-26500D01*
X33985Y-26528D01*
X32965Y-27549D01*
X33090Y-27768D01*
X33645Y-28020D01*
X34254Y-28040D01*
X34824Y-27825D01*
X34909Y-27768D01*
X35034Y-27549D01*
X35034Y-28550D01*
X34535Y-28550D01*
X34375Y-28443D01*
X34150Y-28398D01*
X33924Y-28443D01*
X33732Y-28571D01*
X33727Y-28579D01*
X33701Y-28518D01*
X33631Y-28448D01*
X33539Y-28410D01*
X33440Y-28410D01*
X32760Y-28410D01*
X32668Y-28448D01*
X32598Y-28518D01*
X32560Y-28610D01*
X32560Y-28700D01*
X32000Y-28700D01*
X31885Y-28722D01*
X31787Y-28787D01*
X30875Y-29700D01*
X29224Y-29700D01*
X29999Y-28924D01*
X30084Y-28925D01*
X30240Y-28860D01*
X30360Y-28741D01*
X30424Y-28584D01*
X30425Y-28415D01*
X30360Y-28259D01*
X30241Y-28139D01*
X30084Y-28075D01*
X29915Y-28074D01*
X29759Y-28139D01*
X29639Y-28258D01*
X29575Y-28415D01*
X29574Y-28500D01*
X28625Y-29450D01*
X19374Y-29450D01*
X18962Y-29037D01*
X18864Y-28972D01*
X18750Y-28950D01*
X18250Y-28950D01*
X18135Y-28972D01*
X18037Y-29037D01*
X17125Y-29950D01*
X16500Y-29950D01*
X16385Y-29972D01*
X16287Y-30037D01*
X15625Y-30700D01*
X13250Y-30700D01*
X13135Y-30722D01*
X13037Y-30787D01*
X11350Y-32475D01*
X11200Y-32475D01*
X11200Y-27442D01*
X11202Y-27444D01*
X11395Y-27524D01*
X11603Y-27525D01*
X11797Y-27445D01*
X11944Y-27297D01*
X12000Y-27164D01*
X12054Y-27297D01*
X12202Y-27444D01*
X12395Y-27524D01*
X12603Y-27525D01*
X12700Y-27485D01*
X12700Y-28500D01*
X12722Y-28614D01*
X12787Y-28712D01*
X13287Y-29212D01*
X13287Y-29212D01*
X13385Y-29277D01*
X13500Y-29300D01*
X14698Y-29300D01*
X14758Y-29360D01*
X14915Y-29424D01*
X15084Y-29425D01*
X15240Y-29360D01*
X15360Y-29241D01*
X15424Y-29084D01*
X15425Y-28915D01*
X15360Y-28759D01*
X15241Y-28639D01*
X15205Y-28625D01*
X15240Y-28610D01*
X15301Y-28550D01*
X16500Y-28550D01*
X16750Y-28550D01*
X16750Y-28549D01*
X16864Y-28527D01*
X16864Y-28527D01*
X16962Y-28462D01*
X17624Y-27800D01*
X19375Y-27800D01*
X20037Y-28462D01*
X20135Y-28527D01*
X20135Y-28527D01*
X20250Y-28550D01*
X25074Y-28550D01*
X25074Y-28584D01*
X25139Y-28740D01*
X25258Y-28860D01*
X25415Y-28924D01*
X25584Y-28925D01*
X25740Y-28860D01*
X25860Y-28741D01*
X25924Y-28584D01*
X25925Y-28415D01*
X25860Y-28259D01*
X25741Y-28139D01*
X25584Y-28075D01*
X25499Y-28074D01*
X25462Y-28037D01*
X25364Y-27972D01*
X25250Y-27950D01*
X20881Y-27950D01*
X20881Y-27395D01*
X20500Y-27014D01*
X20118Y-27395D01*
X20133Y-27521D01*
X20360Y-27621D01*
X20609Y-27627D01*
X20841Y-27538D01*
X20866Y-27521D01*
X20881Y-27395D01*
X20881Y-27950D01*
X20374Y-27950D01*
X19833Y-27409D01*
X19944Y-27297D01*
X19944Y-27297D01*
X19961Y-27341D01*
X19978Y-27366D01*
X20104Y-27381D01*
X20485Y-27000D01*
X20480Y-26994D01*
X20494Y-26980D01*
X20500Y-26985D01*
X20505Y-26980D01*
X20519Y-26994D01*
X20514Y-27000D01*
X20895Y-27381D01*
X21021Y-27366D01*
X21053Y-27293D01*
X21054Y-27297D01*
X21202Y-27444D01*
X21395Y-27524D01*
X21603Y-27525D01*
X21797Y-27445D01*
X21944Y-27297D01*
X22000Y-27164D01*
X22054Y-27297D01*
X22202Y-27444D01*
X22395Y-27524D01*
X22603Y-27525D01*
X22797Y-27445D01*
X22944Y-27297D01*
X22995Y-27174D01*
X23004Y-27175D01*
X23054Y-27297D01*
X23202Y-27444D01*
X23395Y-27524D01*
X23603Y-27525D01*
X23797Y-27445D01*
X23944Y-27297D01*
X24000Y-27164D01*
X24054Y-27297D01*
X24202Y-27444D01*
X24395Y-27524D01*
X24603Y-27525D01*
X24797Y-27445D01*
X24944Y-27297D01*
X25000Y-27164D01*
X25054Y-27297D01*
X25202Y-27444D01*
X25395Y-27524D01*
X25603Y-27525D01*
X25797Y-27445D01*
X25944Y-27297D01*
X26000Y-27164D01*
X26054Y-27297D01*
X26202Y-27444D01*
X26395Y-27524D01*
X26603Y-27525D01*
X26797Y-27445D01*
X26944Y-27297D01*
X27000Y-27164D01*
X27054Y-27297D01*
X27202Y-27444D01*
X27395Y-27524D01*
X27603Y-27525D01*
X27797Y-27445D01*
X27944Y-27297D01*
X28000Y-27164D01*
X28054Y-27297D01*
X28202Y-27444D01*
X28395Y-27524D01*
X28603Y-27525D01*
X28797Y-27445D01*
X28944Y-27297D01*
X29000Y-27164D01*
X29054Y-27297D01*
X29202Y-27444D01*
X29395Y-27524D01*
X29603Y-27525D01*
X29797Y-27445D01*
X29944Y-27297D01*
X30000Y-27164D01*
X30054Y-27297D01*
X30202Y-27444D01*
X30395Y-27524D01*
X30603Y-27525D01*
X30797Y-27445D01*
X30944Y-27297D01*
X31024Y-27104D01*
X31025Y-26896D01*
X30945Y-26703D01*
X30797Y-26555D01*
X30604Y-26475D01*
X30396Y-26474D01*
X30203Y-26554D01*
X30055Y-26702D01*
X29999Y-26835D01*
X29945Y-26703D01*
X29797Y-26555D01*
X29604Y-26475D01*
X29399Y-26474D01*
X28962Y-26037D01*
X28864Y-25972D01*
X28750Y-25950D01*
X27877Y-25950D01*
X27924Y-25834D01*
X27925Y-25665D01*
X27860Y-25509D01*
X27741Y-25389D01*
X27584Y-25325D01*
X27415Y-25324D01*
X27259Y-25389D01*
X27198Y-25450D01*
X26877Y-25450D01*
X26924Y-25334D01*
X26925Y-25165D01*
X26860Y-25009D01*
X26741Y-24889D01*
X26584Y-24825D01*
X26499Y-24824D01*
X26462Y-24787D01*
X26364Y-24722D01*
X26250Y-24700D01*
X24374Y-24700D01*
X23974Y-24300D01*
X24198Y-24300D01*
X24258Y-24360D01*
X24415Y-24424D01*
X24584Y-24425D01*
X24740Y-24360D01*
X24860Y-24241D01*
X24924Y-24084D01*
X24925Y-23915D01*
X24860Y-23759D01*
X24741Y-23639D01*
X24584Y-23575D01*
X24415Y-23574D01*
X24259Y-23639D01*
X24198Y-23700D01*
X22974Y-23700D01*
X23374Y-23300D01*
X25625Y-23300D01*
X25787Y-23462D01*
X25846Y-23501D01*
X25885Y-23527D01*
X25885Y-23527D01*
X26000Y-23550D01*
X26574Y-23550D01*
X26574Y-23584D01*
X26639Y-23740D01*
X26758Y-23860D01*
X26856Y-23900D01*
X26856Y-24127D01*
X26954Y-24364D01*
X27135Y-24545D01*
X27371Y-24643D01*
X27627Y-24643D01*
X27864Y-24545D01*
X28045Y-24364D01*
X28143Y-24128D01*
X28143Y-23872D01*
X28045Y-23635D01*
X27864Y-23454D01*
X27800Y-23427D01*
X27800Y-23250D01*
X27777Y-23135D01*
X27777Y-23135D01*
X27751Y-23096D01*
X27720Y-23050D01*
X31198Y-23050D01*
X31258Y-23110D01*
X31415Y-23174D01*
X31584Y-23175D01*
X31740Y-23110D01*
X31860Y-22991D01*
X31891Y-22915D01*
X31915Y-22924D01*
X32084Y-22925D01*
X32240Y-22860D01*
X32249Y-22851D01*
X32258Y-22860D01*
X32415Y-22924D01*
X32584Y-22925D01*
X32697Y-22878D01*
X32287Y-23287D01*
X32222Y-23385D01*
X32200Y-23500D01*
X32200Y-23698D01*
X32139Y-23758D01*
X32118Y-23811D01*
X32045Y-23635D01*
X31864Y-23454D01*
X31628Y-23356D01*
X31372Y-23356D01*
X31135Y-23454D01*
X30954Y-23635D01*
X30856Y-23871D01*
X30856Y-24127D01*
X30954Y-24364D01*
X31135Y-24545D01*
X31371Y-24643D01*
X31627Y-24643D01*
X31864Y-24545D01*
X32045Y-24364D01*
X32118Y-24189D01*
X32139Y-24240D01*
X32258Y-24360D01*
X32415Y-24424D01*
X32584Y-24425D01*
X32740Y-24360D01*
X32860Y-24241D01*
X32924Y-24084D01*
X32925Y-23915D01*
X32860Y-23759D01*
X32800Y-23698D01*
X32800Y-23624D01*
X32950Y-23474D01*
X32950Y-24198D01*
X32889Y-24258D01*
X32825Y-24415D01*
X32824Y-24584D01*
X32889Y-24740D01*
X33008Y-24860D01*
X33165Y-24924D01*
X33334Y-24925D01*
X33490Y-24860D01*
X33610Y-24741D01*
X33674Y-24584D01*
X33675Y-24415D01*
X33610Y-24259D01*
X33550Y-24198D01*
X33550Y-22250D01*
X33527Y-22135D01*
X33527Y-22135D01*
X33462Y-22037D01*
X32712Y-21287D01*
X32614Y-21222D01*
X32500Y-21200D01*
X29124Y-21200D01*
X29014Y-21090D01*
X29116Y-21090D01*
X29333Y-21000D01*
X29499Y-20834D01*
X29500Y-20834D01*
X29665Y-20999D01*
X29882Y-21089D01*
X30116Y-21090D01*
X30333Y-21000D01*
X30499Y-20834D01*
X30500Y-20834D01*
X30665Y-20999D01*
X30882Y-21089D01*
X31116Y-21090D01*
X31333Y-21000D01*
X31499Y-20834D01*
X31500Y-20834D01*
X31665Y-20999D01*
X31882Y-21089D01*
X32116Y-21090D01*
X32333Y-21000D01*
X32420Y-20914D01*
X32448Y-20981D01*
X32518Y-21051D01*
X32610Y-21090D01*
X32709Y-21090D01*
X33389Y-21090D01*
X33481Y-21051D01*
X33551Y-20981D01*
X33590Y-20889D01*
X33590Y-20790D01*
X33590Y-20782D01*
X33614Y-20777D01*
X33614Y-20777D01*
X33712Y-20712D01*
X34124Y-20300D01*
X34150Y-20300D01*
X34150Y-22002D01*
X34237Y-22090D01*
X37590Y-22090D01*
X37590Y-19937D01*
X37502Y-19850D01*
X35074Y-19850D01*
X36124Y-18800D01*
X36574Y-18800D01*
X36574Y-18834D01*
X36639Y-18990D01*
X36758Y-19110D01*
X36915Y-19174D01*
X37084Y-19175D01*
X37240Y-19110D01*
X37360Y-18991D01*
X37424Y-18834D01*
X37425Y-18665D01*
X37360Y-18509D01*
X37351Y-18500D01*
X37360Y-18491D01*
X37424Y-18334D01*
X37425Y-18165D01*
X37360Y-18009D01*
X37351Y-18000D01*
X37360Y-17991D01*
X37424Y-17834D01*
X37425Y-17665D01*
X37360Y-17509D01*
X37351Y-17500D01*
X37360Y-17491D01*
X37424Y-17334D01*
X37425Y-17165D01*
X37360Y-17009D01*
X37351Y-17000D01*
X37360Y-16991D01*
X37424Y-16834D01*
X37425Y-16700D01*
X39137Y-16700D01*
X39090Y-16731D01*
X38965Y-16950D01*
X40000Y-17985D01*
X41034Y-16950D01*
X40909Y-16731D01*
X40840Y-16700D01*
X42825Y-16700D01*
X42824Y-16834D01*
X42889Y-16990D01*
X42898Y-16999D01*
X42889Y-17008D01*
X42825Y-17165D01*
X42824Y-17334D01*
X42889Y-17490D01*
X42898Y-17499D01*
X42889Y-17508D01*
X42825Y-17665D01*
X42824Y-17834D01*
X42889Y-17990D01*
X42898Y-17999D01*
X42889Y-18008D01*
X42825Y-18165D01*
X42824Y-18334D01*
X42834Y-18358D01*
X42759Y-18389D01*
X42639Y-18508D01*
X42575Y-18665D01*
X42574Y-18834D01*
X42639Y-18990D01*
X42758Y-19110D01*
X42915Y-19174D01*
X43084Y-19175D01*
X43221Y-19118D01*
X43204Y-19135D01*
X43106Y-19371D01*
X43106Y-19627D01*
X43204Y-19864D01*
X43385Y-20045D01*
X43621Y-20143D01*
X43877Y-20143D01*
X43942Y-20116D01*
X44287Y-20462D01*
X44385Y-20527D01*
X44385Y-20527D01*
X44500Y-20550D01*
X44535Y-20550D01*
X44589Y-20603D01*
X44461Y-20621D01*
X44440Y-20669D01*
X44309Y-20537D01*
X44108Y-20454D01*
X43891Y-20454D01*
X43691Y-20537D01*
X43578Y-20650D01*
X42931Y-20650D01*
X42796Y-20559D01*
X42572Y-20515D01*
X41827Y-20515D01*
X41603Y-20559D01*
X41540Y-20602D01*
X41540Y-17745D01*
X41325Y-17175D01*
X41268Y-17090D01*
X41049Y-16965D01*
X40014Y-18000D01*
X41049Y-19034D01*
X41268Y-18909D01*
X41520Y-18354D01*
X41540Y-17745D01*
X41540Y-20602D01*
X41413Y-20686D01*
X41287Y-20876D01*
X41242Y-21100D01*
X41287Y-21323D01*
X41413Y-21513D01*
X41464Y-21547D01*
X41354Y-21623D01*
X41209Y-21847D01*
X41171Y-21983D01*
X41248Y-22090D01*
X42190Y-22090D01*
X42190Y-22082D01*
X42210Y-22082D01*
X42210Y-22090D01*
X43151Y-22090D01*
X43228Y-21983D01*
X43190Y-21847D01*
X43045Y-21623D01*
X42939Y-21550D01*
X43900Y-21550D01*
X43922Y-21545D01*
X44108Y-21545D01*
X44308Y-21462D01*
X44437Y-21334D01*
X44444Y-21352D01*
X44461Y-21378D01*
X44589Y-21396D01*
X44985Y-21000D01*
X44980Y-20994D01*
X44994Y-20980D01*
X45000Y-20985D01*
X45396Y-20589D01*
X45385Y-20513D01*
X45385Y-20513D01*
X45462Y-20462D01*
X45514Y-20409D01*
X45608Y-20654D01*
X45630Y-20687D01*
X45768Y-20717D01*
X46235Y-20250D01*
X46230Y-20244D01*
X46244Y-20230D01*
X46250Y-20235D01*
X46255Y-20230D01*
X46269Y-20244D01*
X46264Y-20250D01*
X46731Y-20717D01*
X46869Y-20687D01*
X46989Y-20417D01*
X46997Y-20121D01*
X46891Y-19845D01*
X46869Y-19812D01*
X46810Y-19800D01*
X47326Y-19800D01*
X47310Y-19840D01*
X47310Y-20152D01*
X47397Y-20240D01*
X47990Y-20240D01*
X47990Y-20232D01*
X48010Y-20232D01*
X48010Y-20240D01*
X48017Y-20240D01*
X48017Y-20260D01*
X48010Y-20260D01*
X48010Y-20267D01*
X47990Y-20267D01*
X47990Y-20260D01*
X47397Y-20260D01*
X47310Y-20347D01*
X47310Y-20659D01*
X47363Y-20788D01*
X47461Y-20886D01*
X47509Y-20906D01*
X47500Y-20915D01*
X47410Y-21132D01*
X47409Y-21366D01*
X47499Y-21583D01*
X47665Y-21749D01*
X47665Y-21750D01*
X47500Y-21915D01*
X47410Y-22132D01*
X47409Y-22366D01*
X47499Y-22583D01*
X47665Y-22749D01*
X47665Y-22750D01*
X47500Y-22915D01*
X47410Y-23132D01*
X47409Y-23366D01*
X47499Y-23583D01*
X47665Y-23749D01*
X47665Y-23750D01*
X47500Y-23915D01*
X47410Y-24132D01*
X47409Y-24366D01*
X47499Y-24583D01*
X47665Y-24749D01*
X47665Y-24750D01*
X47500Y-24915D01*
X47410Y-25132D01*
X47409Y-25366D01*
X47499Y-25583D01*
X47665Y-25749D01*
X47882Y-25839D01*
X48116Y-25840D01*
X48333Y-25750D01*
X48499Y-25584D01*
X48550Y-25463D01*
X48550Y-31063D01*
X48550Y-31063D01*
G37*
X48550Y-31063D02*
X48402Y-31210D01*
X48402Y-28886D01*
X48309Y-28645D01*
X48291Y-28618D01*
X48163Y-28600D01*
X47764Y-29000D01*
X48163Y-29399D01*
X48291Y-29381D01*
X48396Y-29144D01*
X48402Y-28886D01*
X48402Y-31210D01*
X48070Y-31542D01*
X48061Y-31534D01*
X47980Y-31500D01*
X48061Y-31466D01*
X48215Y-31311D01*
X48299Y-31109D01*
X48300Y-30891D01*
X48216Y-30688D01*
X48061Y-30534D01*
X47980Y-30500D01*
X48061Y-30466D01*
X48215Y-30311D01*
X48299Y-30109D01*
X48300Y-29891D01*
X48216Y-29688D01*
X48092Y-29564D01*
X48104Y-29559D01*
X48131Y-29541D01*
X48149Y-29413D01*
X47750Y-29014D01*
X47735Y-29028D01*
X47735Y-29000D01*
X47336Y-28600D01*
X47250Y-28612D01*
X47163Y-28600D01*
X46764Y-29000D01*
X47163Y-29399D01*
X47250Y-29387D01*
X47336Y-29399D01*
X47735Y-29000D01*
X47735Y-29028D01*
X47350Y-29413D01*
X47368Y-29541D01*
X47411Y-29560D01*
X47284Y-29688D01*
X47250Y-29769D01*
X47216Y-29688D01*
X47092Y-29564D01*
X47104Y-29559D01*
X47131Y-29541D01*
X47149Y-29413D01*
X46750Y-29014D01*
X46744Y-29019D01*
X46730Y-29005D01*
X46735Y-29000D01*
X46336Y-28600D01*
X46208Y-28618D01*
X46103Y-28855D01*
X46098Y-29073D01*
X45912Y-28887D01*
X45814Y-28822D01*
X45700Y-28800D01*
X44400Y-28800D01*
X44285Y-28822D01*
X44187Y-28887D01*
X43787Y-29287D01*
X43722Y-29385D01*
X43700Y-29500D01*
X43700Y-29625D01*
X43643Y-29682D01*
X43643Y-29622D01*
X43545Y-29385D01*
X43377Y-29217D01*
X43377Y-28390D01*
X43288Y-28158D01*
X43271Y-28133D01*
X43145Y-28118D01*
X43131Y-28132D01*
X43131Y-28104D01*
X43116Y-27978D01*
X42889Y-27878D01*
X42640Y-27872D01*
X42408Y-27961D01*
X42383Y-27978D01*
X42368Y-28104D01*
X42750Y-28485D01*
X43131Y-28104D01*
X43131Y-28132D01*
X42764Y-28500D01*
X43145Y-28881D01*
X43271Y-28866D01*
X43371Y-28639D01*
X43377Y-28390D01*
X43377Y-29217D01*
X43364Y-29204D01*
X43128Y-29106D01*
X42914Y-29106D01*
X43091Y-29038D01*
X43116Y-29021D01*
X43131Y-28895D01*
X42750Y-28514D01*
X42368Y-28895D01*
X42383Y-29021D01*
X42610Y-29121D01*
X42822Y-29126D01*
X42635Y-29204D01*
X42454Y-29385D01*
X42356Y-29621D01*
X42356Y-29877D01*
X42454Y-30114D01*
X42635Y-30295D01*
X42871Y-30393D01*
X42932Y-30393D01*
X42875Y-30450D01*
X42750Y-30450D01*
X42635Y-30472D01*
X42596Y-30498D01*
X42537Y-30537D01*
X42287Y-30787D01*
X42280Y-30798D01*
X42104Y-30725D01*
X41896Y-30724D01*
X41703Y-30804D01*
X41555Y-30952D01*
X41499Y-31085D01*
X41445Y-30953D01*
X41297Y-30805D01*
X41104Y-30725D01*
X40896Y-30724D01*
X40703Y-30804D01*
X40555Y-30952D01*
X40555Y-30952D01*
X40538Y-30908D01*
X40521Y-30883D01*
X40395Y-30868D01*
X40381Y-30882D01*
X40381Y-30854D01*
X40366Y-30728D01*
X40139Y-30628D01*
X39890Y-30622D01*
X39658Y-30711D01*
X39633Y-30728D01*
X39618Y-30854D01*
X40000Y-31235D01*
X40381Y-30854D01*
X40381Y-30882D01*
X40014Y-31250D01*
X40395Y-31631D01*
X40521Y-31616D01*
X40553Y-31543D01*
X40554Y-31547D01*
X40702Y-31694D01*
X40895Y-31774D01*
X41100Y-31775D01*
X41125Y-31800D01*
X40310Y-31800D01*
X40341Y-31788D01*
X40366Y-31771D01*
X40381Y-31645D01*
X40000Y-31264D01*
X39994Y-31269D01*
X39980Y-31255D01*
X39985Y-31250D01*
X39604Y-30868D01*
X39478Y-30883D01*
X39378Y-31110D01*
X39372Y-31359D01*
X39451Y-31565D01*
X39200Y-31313D01*
X39200Y-31210D01*
X39295Y-31114D01*
X39393Y-30878D01*
X39393Y-30622D01*
X39295Y-30385D01*
X39252Y-30342D01*
X39364Y-30295D01*
X39545Y-30114D01*
X39643Y-29878D01*
X39643Y-29778D01*
X39750Y-29800D01*
X40698Y-29800D01*
X40758Y-29860D01*
X40915Y-29924D01*
X41084Y-29925D01*
X41240Y-29860D01*
X41360Y-29741D01*
X41424Y-29584D01*
X41425Y-29415D01*
X41360Y-29259D01*
X41241Y-29139D01*
X41084Y-29075D01*
X40915Y-29074D01*
X40759Y-29139D01*
X40698Y-29200D01*
X39874Y-29200D01*
X39699Y-29024D01*
X39853Y-29025D01*
X40047Y-28945D01*
X40194Y-28797D01*
X40250Y-28664D01*
X40304Y-28797D01*
X40452Y-28944D01*
X40645Y-29024D01*
X40853Y-29025D01*
X41047Y-28945D01*
X41194Y-28797D01*
X41250Y-28664D01*
X41304Y-28797D01*
X41452Y-28944D01*
X41645Y-29024D01*
X41853Y-29025D01*
X42047Y-28945D01*
X42194Y-28797D01*
X42194Y-28797D01*
X42211Y-28841D01*
X42228Y-28866D01*
X42354Y-28881D01*
X42735Y-28500D01*
X42354Y-28118D01*
X42228Y-28133D01*
X42196Y-28206D01*
X42195Y-28203D01*
X42047Y-28055D01*
X41854Y-27975D01*
X41646Y-27974D01*
X41453Y-28054D01*
X41305Y-28202D01*
X41249Y-28335D01*
X41195Y-28203D01*
X41047Y-28055D01*
X40854Y-27975D01*
X40646Y-27974D01*
X40453Y-28054D01*
X40305Y-28202D01*
X40249Y-28335D01*
X40195Y-28203D01*
X40083Y-28090D01*
X40874Y-27300D01*
X41122Y-27300D01*
X41075Y-27415D01*
X41074Y-27584D01*
X41139Y-27740D01*
X41258Y-27860D01*
X41415Y-27924D01*
X41584Y-27925D01*
X41740Y-27860D01*
X41801Y-27800D01*
X46200Y-27800D01*
X46200Y-28349D01*
X46238Y-28441D01*
X46308Y-28511D01*
X46358Y-28532D01*
X46350Y-28586D01*
X46750Y-28985D01*
X47149Y-28586D01*
X47141Y-28532D01*
X47191Y-28511D01*
X47253Y-28450D01*
X47380Y-28450D01*
X47368Y-28458D01*
X47350Y-28586D01*
X47750Y-28985D01*
X48149Y-28586D01*
X48131Y-28458D01*
X48088Y-28439D01*
X48215Y-28311D01*
X48299Y-28109D01*
X48300Y-27891D01*
X48216Y-27688D01*
X48064Y-27536D01*
X48110Y-27491D01*
X48174Y-27334D01*
X48175Y-27165D01*
X48110Y-27009D01*
X47991Y-26889D01*
X47834Y-26825D01*
X47665Y-26824D01*
X47509Y-26889D01*
X47389Y-27008D01*
X47325Y-27165D01*
X47325Y-27200D01*
X43724Y-27200D01*
X44557Y-26366D01*
X44621Y-26393D01*
X44877Y-26393D01*
X45114Y-26295D01*
X45295Y-26114D01*
X45393Y-25878D01*
X45393Y-25622D01*
X45295Y-25385D01*
X45114Y-25204D01*
X44910Y-25119D01*
X44924Y-25084D01*
X44924Y-25045D01*
X45108Y-25045D01*
X45308Y-24962D01*
X45462Y-24809D01*
X45466Y-24800D01*
X45896Y-24800D01*
X46121Y-24893D01*
X46377Y-24893D01*
X46614Y-24795D01*
X46795Y-24614D01*
X46893Y-24378D01*
X46893Y-24122D01*
X46795Y-23885D01*
X46717Y-23807D01*
X46717Y-20731D01*
X46250Y-20264D01*
X45782Y-20731D01*
X45812Y-20869D01*
X46082Y-20989D01*
X46378Y-20997D01*
X46654Y-20891D01*
X46687Y-20869D01*
X46717Y-20731D01*
X46717Y-23807D01*
X46614Y-23704D01*
X46378Y-23606D01*
X46122Y-23606D01*
X45885Y-23704D01*
X45704Y-23885D01*
X45648Y-24020D01*
X45648Y-20887D01*
X45555Y-20647D01*
X45538Y-20621D01*
X45410Y-20603D01*
X45014Y-21000D01*
X45410Y-21396D01*
X45538Y-21378D01*
X45642Y-21143D01*
X45648Y-20887D01*
X45648Y-24020D01*
X45606Y-24121D01*
X45606Y-24200D01*
X45545Y-24200D01*
X45545Y-22641D01*
X45462Y-22441D01*
X45396Y-22374D01*
X45396Y-21410D01*
X45000Y-21014D01*
X44985Y-21028D01*
X44603Y-21410D01*
X44621Y-21538D01*
X44856Y-21642D01*
X45112Y-21648D01*
X45352Y-21555D01*
X45378Y-21538D01*
X45396Y-21410D01*
X45396Y-22374D01*
X45309Y-22287D01*
X45108Y-22204D01*
X44891Y-22204D01*
X44691Y-22287D01*
X44562Y-22415D01*
X44555Y-22397D01*
X44538Y-22371D01*
X44410Y-22353D01*
X44396Y-22367D01*
X44396Y-22339D01*
X44378Y-22211D01*
X44143Y-22107D01*
X43887Y-22101D01*
X43647Y-22194D01*
X43621Y-22211D01*
X43603Y-22339D01*
X44000Y-22735D01*
X44396Y-22339D01*
X44396Y-22367D01*
X44014Y-22750D01*
X44019Y-22755D01*
X44005Y-22769D01*
X44000Y-22764D01*
X43994Y-22769D01*
X43980Y-22755D01*
X43985Y-22750D01*
X43589Y-22353D01*
X43461Y-22371D01*
X43357Y-22606D01*
X43354Y-22739D01*
X43272Y-22684D01*
X43100Y-22650D01*
X42939Y-22650D01*
X43045Y-22576D01*
X43190Y-22352D01*
X43228Y-22216D01*
X43151Y-22110D01*
X42210Y-22110D01*
X42210Y-22117D01*
X42190Y-22117D01*
X42190Y-22110D01*
X41248Y-22110D01*
X41171Y-22216D01*
X41209Y-22352D01*
X41354Y-22576D01*
X41464Y-22652D01*
X41413Y-22686D01*
X41287Y-22876D01*
X41242Y-23100D01*
X41287Y-23323D01*
X41413Y-23513D01*
X41603Y-23640D01*
X41827Y-23684D01*
X42572Y-23684D01*
X42796Y-23640D01*
X42920Y-23557D01*
X43181Y-23818D01*
X43327Y-23915D01*
X43500Y-23950D01*
X44250Y-23950D01*
X44422Y-23915D01*
X44568Y-23818D01*
X45090Y-23295D01*
X45108Y-23295D01*
X45308Y-23212D01*
X45462Y-23059D01*
X45545Y-22858D01*
X45545Y-22641D01*
X45545Y-24200D01*
X45466Y-24200D01*
X45462Y-24191D01*
X45309Y-24037D01*
X45108Y-23954D01*
X44891Y-23954D01*
X44691Y-24037D01*
X44537Y-24190D01*
X44500Y-24281D01*
X44462Y-24191D01*
X44309Y-24037D01*
X44108Y-23954D01*
X43891Y-23954D01*
X43691Y-24037D01*
X43537Y-24190D01*
X43454Y-24391D01*
X43454Y-24608D01*
X43537Y-24808D01*
X43690Y-24962D01*
X43891Y-25045D01*
X44030Y-25045D01*
X43106Y-25969D01*
X43064Y-25927D01*
X43194Y-25797D01*
X43274Y-25604D01*
X43275Y-25396D01*
X43195Y-25203D01*
X43047Y-25055D01*
X42854Y-24975D01*
X42646Y-24974D01*
X42453Y-25054D01*
X42305Y-25202D01*
X42249Y-25335D01*
X42195Y-25203D01*
X42047Y-25055D01*
X41854Y-24975D01*
X41646Y-24974D01*
X41453Y-25054D01*
X41305Y-25202D01*
X41249Y-25335D01*
X41195Y-25203D01*
X41050Y-25057D01*
X41050Y-24069D01*
X41050Y-23930D01*
X41050Y-22197D01*
X41050Y-22002D01*
X41050Y-20269D01*
X41050Y-20130D01*
X41034Y-20093D01*
X41034Y-19049D01*
X40000Y-18014D01*
X39985Y-18028D01*
X39985Y-18000D01*
X38950Y-16965D01*
X38731Y-17090D01*
X38479Y-17645D01*
X38459Y-18254D01*
X38674Y-18824D01*
X38731Y-18909D01*
X38950Y-19034D01*
X39985Y-18000D01*
X39985Y-18028D01*
X38965Y-19049D01*
X39090Y-19268D01*
X39645Y-19520D01*
X40254Y-19540D01*
X40824Y-19325D01*
X40909Y-19268D01*
X41034Y-19049D01*
X41034Y-20093D01*
X40996Y-20001D01*
X40898Y-19903D01*
X40769Y-19850D01*
X37697Y-19850D01*
X37610Y-19937D01*
X37610Y-22090D01*
X40962Y-22090D01*
X41050Y-22002D01*
X41050Y-22197D01*
X40962Y-22110D01*
X37610Y-22110D01*
X37610Y-24262D01*
X37697Y-24350D01*
X40769Y-24350D01*
X40898Y-24296D01*
X40996Y-24198D01*
X41050Y-24069D01*
X41050Y-25057D01*
X41047Y-25055D01*
X40854Y-24975D01*
X40646Y-24974D01*
X40453Y-25054D01*
X40305Y-25202D01*
X40249Y-25335D01*
X40195Y-25203D01*
X40047Y-25055D01*
X39854Y-24975D01*
X39646Y-24974D01*
X39453Y-25054D01*
X39305Y-25202D01*
X39249Y-25335D01*
X39195Y-25203D01*
X39047Y-25055D01*
X38854Y-24975D01*
X38646Y-24974D01*
X38453Y-25054D01*
X38305Y-25202D01*
X38249Y-25335D01*
X38195Y-25203D01*
X38047Y-25055D01*
X37854Y-24975D01*
X37646Y-24974D01*
X37453Y-25054D01*
X37305Y-25202D01*
X37249Y-25335D01*
X37195Y-25203D01*
X37131Y-25139D01*
X37212Y-25059D01*
X37295Y-24858D01*
X37295Y-24641D01*
X37212Y-24441D01*
X37121Y-24350D01*
X37502Y-24350D01*
X37590Y-24262D01*
X37590Y-22110D01*
X34237Y-22110D01*
X34150Y-22197D01*
X34150Y-23930D01*
X34150Y-24069D01*
X34203Y-24198D01*
X34301Y-24296D01*
X34430Y-24350D01*
X35335Y-24350D01*
X35339Y-24353D01*
X35211Y-24371D01*
X35107Y-24606D01*
X35101Y-24862D01*
X35194Y-25102D01*
X35211Y-25128D01*
X35339Y-25146D01*
X35735Y-24750D01*
X35730Y-24744D01*
X35744Y-24730D01*
X35750Y-24735D01*
X35755Y-24730D01*
X35769Y-24744D01*
X35764Y-24750D01*
X36160Y-25146D01*
X36288Y-25128D01*
X36309Y-25080D01*
X36368Y-25139D01*
X36305Y-25202D01*
X36225Y-25395D01*
X36224Y-25603D01*
X36304Y-25797D01*
X36452Y-25944D01*
X36633Y-26020D01*
X37181Y-26568D01*
X37327Y-26665D01*
X37500Y-26700D01*
X40125Y-26700D01*
X40000Y-26825D01*
X39915Y-26824D01*
X39759Y-26889D01*
X39639Y-27008D01*
X39575Y-27165D01*
X39574Y-27334D01*
X39639Y-27490D01*
X39737Y-27588D01*
X39537Y-27787D01*
X39507Y-27833D01*
X39462Y-27787D01*
X39364Y-27722D01*
X39250Y-27700D01*
X38500Y-27700D01*
X38385Y-27722D01*
X38346Y-27748D01*
X38287Y-27787D01*
X38037Y-28037D01*
X38030Y-28048D01*
X37854Y-27975D01*
X37646Y-27974D01*
X37453Y-28054D01*
X37305Y-28202D01*
X37275Y-28274D01*
X37275Y-28175D01*
X37236Y-28083D01*
X37166Y-28013D01*
X37074Y-27975D01*
X36975Y-27975D01*
X36425Y-27975D01*
X36333Y-28013D01*
X36263Y-28083D01*
X36225Y-28175D01*
X36225Y-28274D01*
X36225Y-28606D01*
X36146Y-28573D01*
X36146Y-25160D01*
X35750Y-24764D01*
X35735Y-24778D01*
X35353Y-25160D01*
X35371Y-25288D01*
X35606Y-25392D01*
X35862Y-25398D01*
X36102Y-25305D01*
X36128Y-25288D01*
X36146Y-25160D01*
X36146Y-28573D01*
X36089Y-28550D01*
X35910Y-28549D01*
X35910Y-28550D01*
X35540Y-28550D01*
X35540Y-26245D01*
X35325Y-25675D01*
X35268Y-25590D01*
X35049Y-25465D01*
X35034Y-25479D01*
X35034Y-25450D01*
X34909Y-25231D01*
X34354Y-24979D01*
X33745Y-24959D01*
X33175Y-25174D01*
X33090Y-25231D01*
X32965Y-25450D01*
X34000Y-26485D01*
X35034Y-25450D01*
X35034Y-25479D01*
X34014Y-26500D01*
X35049Y-27534D01*
X35268Y-27409D01*
X35520Y-26854D01*
X35540Y-26245D01*
X35540Y-28550D01*
X35034Y-28550D01*
X35034Y-27549D01*
X34000Y-26514D01*
X33985Y-26528D01*
X33985Y-26500D01*
X32950Y-25465D01*
X32731Y-25590D01*
X32479Y-26145D01*
X32459Y-26754D01*
X32674Y-27324D01*
X32731Y-27409D01*
X32950Y-27534D01*
X33985Y-26500D01*
X33985Y-26528D01*
X32965Y-27549D01*
X33090Y-27768D01*
X33645Y-28020D01*
X34254Y-28040D01*
X34824Y-27825D01*
X34909Y-27768D01*
X35034Y-27549D01*
X35034Y-28550D01*
X34535Y-28550D01*
X34375Y-28443D01*
X34150Y-28398D01*
X33924Y-28443D01*
X33732Y-28571D01*
X33727Y-28579D01*
X33701Y-28518D01*
X33631Y-28448D01*
X33539Y-28410D01*
X33440Y-28410D01*
X32760Y-28410D01*
X32668Y-28448D01*
X32598Y-28518D01*
X32560Y-28610D01*
X32560Y-28700D01*
X32000Y-28700D01*
X31885Y-28722D01*
X31787Y-28787D01*
X30875Y-29700D01*
X29224Y-29700D01*
X29999Y-28924D01*
X30084Y-28925D01*
X30240Y-28860D01*
X30360Y-28741D01*
X30424Y-28584D01*
X30425Y-28415D01*
X30360Y-28259D01*
X30241Y-28139D01*
X30084Y-28075D01*
X29915Y-28074D01*
X29759Y-28139D01*
X29639Y-28258D01*
X29575Y-28415D01*
X29574Y-28500D01*
X28625Y-29450D01*
X19374Y-29450D01*
X18962Y-29037D01*
X18864Y-28972D01*
X18750Y-28950D01*
X18250Y-28950D01*
X18135Y-28972D01*
X18037Y-29037D01*
X17125Y-29950D01*
X16500Y-29950D01*
X16385Y-29972D01*
X16287Y-30037D01*
X15625Y-30700D01*
X13250Y-30700D01*
X13135Y-30722D01*
X13037Y-30787D01*
X11350Y-32475D01*
X11200Y-32475D01*
X11200Y-27442D01*
X11202Y-27444D01*
X11395Y-27524D01*
X11603Y-27525D01*
X11797Y-27445D01*
X11944Y-27297D01*
X12000Y-27164D01*
X12054Y-27297D01*
X12202Y-27444D01*
X12395Y-27524D01*
X12603Y-27525D01*
X12700Y-27485D01*
X12700Y-28500D01*
X12722Y-28614D01*
X12787Y-28712D01*
X13287Y-29212D01*
X13287Y-29212D01*
X13385Y-29277D01*
X13500Y-29300D01*
X14698Y-29300D01*
X14758Y-29360D01*
X14915Y-29424D01*
X15084Y-29425D01*
X15240Y-29360D01*
X15360Y-29241D01*
X15424Y-29084D01*
X15425Y-28915D01*
X15360Y-28759D01*
X15241Y-28639D01*
X15205Y-28625D01*
X15240Y-28610D01*
X15301Y-28550D01*
X16500Y-28550D01*
X16750Y-28550D01*
X16750Y-28549D01*
X16864Y-28527D01*
X16864Y-28527D01*
X16962Y-28462D01*
X17624Y-27800D01*
X19375Y-27800D01*
X20037Y-28462D01*
X20135Y-28527D01*
X20135Y-28527D01*
X20250Y-28550D01*
X25074Y-28550D01*
X25074Y-28584D01*
X25139Y-28740D01*
X25258Y-28860D01*
X25415Y-28924D01*
X25584Y-28925D01*
X25740Y-28860D01*
X25860Y-28741D01*
X25924Y-28584D01*
X25925Y-28415D01*
X25860Y-28259D01*
X25741Y-28139D01*
X25584Y-28075D01*
X25499Y-28074D01*
X25462Y-28037D01*
X25364Y-27972D01*
X25250Y-27950D01*
X20881Y-27950D01*
X20881Y-27395D01*
X20500Y-27014D01*
X20118Y-27395D01*
X20133Y-27521D01*
X20360Y-27621D01*
X20609Y-27627D01*
X20841Y-27538D01*
X20866Y-27521D01*
X20881Y-27395D01*
X20881Y-27950D01*
X20374Y-27950D01*
X19833Y-27409D01*
X19944Y-27297D01*
X19944Y-27297D01*
X19961Y-27341D01*
X19978Y-27366D01*
X20104Y-27381D01*
X20485Y-27000D01*
X20480Y-26994D01*
X20494Y-26980D01*
X20500Y-26985D01*
X20505Y-26980D01*
X20519Y-26994D01*
X20514Y-27000D01*
X20895Y-27381D01*
X21021Y-27366D01*
X21053Y-27293D01*
X21054Y-27297D01*
X21202Y-27444D01*
X21395Y-27524D01*
X21603Y-27525D01*
X21797Y-27445D01*
X21944Y-27297D01*
X22000Y-27164D01*
X22054Y-27297D01*
X22202Y-27444D01*
X22395Y-27524D01*
X22603Y-27525D01*
X22797Y-27445D01*
X22944Y-27297D01*
X22995Y-27174D01*
X23004Y-27175D01*
X23054Y-27297D01*
X23202Y-27444D01*
X23395Y-27524D01*
X23603Y-27525D01*
X23797Y-27445D01*
X23944Y-27297D01*
X24000Y-27164D01*
X24054Y-27297D01*
X24202Y-27444D01*
X24395Y-27524D01*
X24603Y-27525D01*
X24797Y-27445D01*
X24944Y-27297D01*
X25000Y-27164D01*
X25054Y-27297D01*
X25202Y-27444D01*
X25395Y-27524D01*
X25603Y-27525D01*
X25797Y-27445D01*
X25944Y-27297D01*
X26000Y-27164D01*
X26054Y-27297D01*
X26202Y-27444D01*
X26395Y-27524D01*
X26603Y-27525D01*
X26797Y-27445D01*
X26944Y-27297D01*
X27000Y-27164D01*
X27054Y-27297D01*
X27202Y-27444D01*
X27395Y-27524D01*
X27603Y-27525D01*
X27797Y-27445D01*
X27944Y-27297D01*
X28000Y-27164D01*
X28054Y-27297D01*
X28202Y-27444D01*
X28395Y-27524D01*
X28603Y-27525D01*
X28797Y-27445D01*
X28944Y-27297D01*
X29000Y-27164D01*
X29054Y-27297D01*
X29202Y-27444D01*
X29395Y-27524D01*
X29603Y-27525D01*
X29797Y-27445D01*
X29944Y-27297D01*
X30000Y-27164D01*
X30054Y-27297D01*
X30202Y-27444D01*
X30395Y-27524D01*
X30603Y-27525D01*
X30797Y-27445D01*
X30944Y-27297D01*
X31024Y-27104D01*
X31025Y-26896D01*
X30945Y-26703D01*
X30797Y-26555D01*
X30604Y-26475D01*
X30396Y-26474D01*
X30203Y-26554D01*
X30055Y-26702D01*
X29999Y-26835D01*
X29945Y-26703D01*
X29797Y-26555D01*
X29604Y-26475D01*
X29399Y-26474D01*
X28962Y-26037D01*
X28864Y-25972D01*
X28750Y-25950D01*
X27877Y-25950D01*
X27924Y-25834D01*
X27925Y-25665D01*
X27860Y-25509D01*
X27741Y-25389D01*
X27584Y-25325D01*
X27415Y-25324D01*
X27259Y-25389D01*
X27198Y-25450D01*
X26877Y-25450D01*
X26924Y-25334D01*
X26925Y-25165D01*
X26860Y-25009D01*
X26741Y-24889D01*
X26584Y-24825D01*
X26499Y-24824D01*
X26462Y-24787D01*
X26364Y-24722D01*
X26250Y-24700D01*
X24374Y-24700D01*
X23974Y-24300D01*
X24198Y-24300D01*
X24258Y-24360D01*
X24415Y-24424D01*
X24584Y-24425D01*
X24740Y-24360D01*
X24860Y-24241D01*
X24924Y-24084D01*
X24925Y-23915D01*
X24860Y-23759D01*
X24741Y-23639D01*
X24584Y-23575D01*
X24415Y-23574D01*
X24259Y-23639D01*
X24198Y-23700D01*
X22974Y-23700D01*
X23374Y-23300D01*
X25625Y-23300D01*
X25787Y-23462D01*
X25846Y-23501D01*
X25885Y-23527D01*
X25885Y-23527D01*
X26000Y-23550D01*
X26574Y-23550D01*
X26574Y-23584D01*
X26639Y-23740D01*
X26758Y-23860D01*
X26856Y-23900D01*
X26856Y-24127D01*
X26954Y-24364D01*
X27135Y-24545D01*
X27371Y-24643D01*
X27627Y-24643D01*
X27864Y-24545D01*
X28045Y-24364D01*
X28143Y-24128D01*
X28143Y-23872D01*
X28045Y-23635D01*
X27864Y-23454D01*
X27800Y-23427D01*
X27800Y-23250D01*
X27777Y-23135D01*
X27777Y-23135D01*
X27751Y-23096D01*
X27720Y-23050D01*
X31198Y-23050D01*
X31258Y-23110D01*
X31415Y-23174D01*
X31584Y-23175D01*
X31740Y-23110D01*
X31860Y-22991D01*
X31891Y-22915D01*
X31915Y-22924D01*
X32084Y-22925D01*
X32240Y-22860D01*
X32249Y-22851D01*
X32258Y-22860D01*
X32415Y-22924D01*
X32584Y-22925D01*
X32697Y-22878D01*
X32287Y-23287D01*
X32222Y-23385D01*
X32200Y-23500D01*
X32200Y-23698D01*
X32139Y-23758D01*
X32118Y-23811D01*
X32045Y-23635D01*
X31864Y-23454D01*
X31628Y-23356D01*
X31372Y-23356D01*
X31135Y-23454D01*
X30954Y-23635D01*
X30856Y-23871D01*
X30856Y-24127D01*
X30954Y-24364D01*
X31135Y-24545D01*
X31371Y-24643D01*
X31627Y-24643D01*
X31864Y-24545D01*
X32045Y-24364D01*
X32118Y-24189D01*
X32139Y-24240D01*
X32258Y-24360D01*
X32415Y-24424D01*
X32584Y-24425D01*
X32740Y-24360D01*
X32860Y-24241D01*
X32924Y-24084D01*
X32925Y-23915D01*
X32860Y-23759D01*
X32800Y-23698D01*
X32800Y-23624D01*
X32950Y-23474D01*
X32950Y-24198D01*
X32889Y-24258D01*
X32825Y-24415D01*
X32824Y-24584D01*
X32889Y-24740D01*
X33008Y-24860D01*
X33165Y-24924D01*
X33334Y-24925D01*
X33490Y-24860D01*
X33610Y-24741D01*
X33674Y-24584D01*
X33675Y-24415D01*
X33610Y-24259D01*
X33550Y-24198D01*
X33550Y-22250D01*
X33527Y-22135D01*
X33527Y-22135D01*
X33462Y-22037D01*
X32712Y-21287D01*
X32614Y-21222D01*
X32500Y-21200D01*
X29124Y-21200D01*
X29014Y-21090D01*
X29116Y-21090D01*
X29333Y-21000D01*
X29499Y-20834D01*
X29500Y-20834D01*
X29665Y-20999D01*
X29882Y-21089D01*
X30116Y-21090D01*
X30333Y-21000D01*
X30499Y-20834D01*
X30500Y-20834D01*
X30665Y-20999D01*
X30882Y-21089D01*
X31116Y-21090D01*
X31333Y-21000D01*
X31499Y-20834D01*
X31500Y-20834D01*
X31665Y-20999D01*
X31882Y-21089D01*
X32116Y-21090D01*
X32333Y-21000D01*
X32420Y-20914D01*
X32448Y-20981D01*
X32518Y-21051D01*
X32610Y-21090D01*
X32709Y-21090D01*
X33389Y-21090D01*
X33481Y-21051D01*
X33551Y-20981D01*
X33590Y-20889D01*
X33590Y-20790D01*
X33590Y-20782D01*
X33614Y-20777D01*
X33614Y-20777D01*
X33712Y-20712D01*
X34124Y-20300D01*
X34150Y-20300D01*
X34150Y-22002D01*
X34237Y-22090D01*
X37590Y-22090D01*
X37590Y-19937D01*
X37502Y-19850D01*
X35074Y-19850D01*
X36124Y-18800D01*
X36574Y-18800D01*
X36574Y-18834D01*
X36639Y-18990D01*
X36758Y-19110D01*
X36915Y-19174D01*
X37084Y-19175D01*
X37240Y-19110D01*
X37360Y-18991D01*
X37424Y-18834D01*
X37425Y-18665D01*
X37360Y-18509D01*
X37351Y-18500D01*
X37360Y-18491D01*
X37424Y-18334D01*
X37425Y-18165D01*
X37360Y-18009D01*
X37351Y-18000D01*
X37360Y-17991D01*
X37424Y-17834D01*
X37425Y-17665D01*
X37360Y-17509D01*
X37351Y-17500D01*
X37360Y-17491D01*
X37424Y-17334D01*
X37425Y-17165D01*
X37360Y-17009D01*
X37351Y-17000D01*
X37360Y-16991D01*
X37424Y-16834D01*
X37425Y-16700D01*
X39137Y-16700D01*
X39090Y-16731D01*
X38965Y-16950D01*
X40000Y-17985D01*
X41034Y-16950D01*
X40909Y-16731D01*
X40840Y-16700D01*
X42825Y-16700D01*
X42824Y-16834D01*
X42889Y-16990D01*
X42898Y-16999D01*
X42889Y-17008D01*
X42825Y-17165D01*
X42824Y-17334D01*
X42889Y-17490D01*
X42898Y-17499D01*
X42889Y-17508D01*
X42825Y-17665D01*
X42824Y-17834D01*
X42889Y-17990D01*
X42898Y-17999D01*
X42889Y-18008D01*
X42825Y-18165D01*
X42824Y-18334D01*
X42834Y-18358D01*
X42759Y-18389D01*
X42639Y-18508D01*
X42575Y-18665D01*
X42574Y-18834D01*
X42639Y-18990D01*
X42758Y-19110D01*
X42915Y-19174D01*
X43084Y-19175D01*
X43221Y-19118D01*
X43204Y-19135D01*
X43106Y-19371D01*
X43106Y-19627D01*
X43204Y-19864D01*
X43385Y-20045D01*
X43621Y-20143D01*
X43877Y-20143D01*
X43942Y-20116D01*
X44287Y-20462D01*
X44385Y-20527D01*
X44385Y-20527D01*
X44500Y-20550D01*
X44535Y-20550D01*
X44589Y-20603D01*
X44461Y-20621D01*
X44440Y-20669D01*
X44309Y-20537D01*
X44108Y-20454D01*
X43891Y-20454D01*
X43691Y-20537D01*
X43578Y-20650D01*
X42931Y-20650D01*
X42796Y-20559D01*
X42572Y-20515D01*
X41827Y-20515D01*
X41603Y-20559D01*
X41540Y-20602D01*
X41540Y-17745D01*
X41325Y-17175D01*
X41268Y-17090D01*
X41049Y-16965D01*
X40014Y-18000D01*
X41049Y-19034D01*
X41268Y-18909D01*
X41520Y-18354D01*
X41540Y-17745D01*
X41540Y-20602D01*
X41413Y-20686D01*
X41287Y-20876D01*
X41242Y-21100D01*
X41287Y-21323D01*
X41413Y-21513D01*
X41464Y-21547D01*
X41354Y-21623D01*
X41209Y-21847D01*
X41171Y-21983D01*
X41248Y-22090D01*
X42190Y-22090D01*
X42190Y-22082D01*
X42210Y-22082D01*
X42210Y-22090D01*
X43151Y-22090D01*
X43228Y-21983D01*
X43190Y-21847D01*
X43045Y-21623D01*
X42939Y-21550D01*
X43900Y-21550D01*
X43922Y-21545D01*
X44108Y-21545D01*
X44308Y-21462D01*
X44437Y-21334D01*
X44444Y-21352D01*
X44461Y-21378D01*
X44589Y-21396D01*
X44985Y-21000D01*
X44980Y-20994D01*
X44994Y-20980D01*
X45000Y-20985D01*
X45396Y-20589D01*
X45385Y-20513D01*
X45385Y-20513D01*
X45462Y-20462D01*
X45514Y-20409D01*
X45608Y-20654D01*
X45630Y-20687D01*
X45768Y-20717D01*
X46235Y-20250D01*
X46230Y-20244D01*
X46244Y-20230D01*
X46250Y-20235D01*
X46255Y-20230D01*
X46269Y-20244D01*
X46264Y-20250D01*
X46731Y-20717D01*
X46869Y-20687D01*
X46989Y-20417D01*
X46997Y-20121D01*
X46891Y-19845D01*
X46869Y-19812D01*
X46810Y-19800D01*
X47326Y-19800D01*
X47310Y-19840D01*
X47310Y-20152D01*
X47397Y-20240D01*
X47990Y-20240D01*
X47990Y-20232D01*
X48010Y-20232D01*
X48010Y-20240D01*
X48017Y-20240D01*
X48017Y-20260D01*
X48010Y-20260D01*
X48010Y-20267D01*
X47990Y-20267D01*
X47990Y-20260D01*
X47397Y-20260D01*
X47310Y-20347D01*
X47310Y-20659D01*
X47363Y-20788D01*
X47461Y-20886D01*
X47509Y-20906D01*
X47500Y-20915D01*
X47410Y-21132D01*
X47409Y-21366D01*
X47499Y-21583D01*
X47665Y-21749D01*
X47665Y-21750D01*
X47500Y-21915D01*
X47410Y-22132D01*
X47409Y-22366D01*
X47499Y-22583D01*
X47665Y-22749D01*
X47665Y-22750D01*
X47500Y-22915D01*
X47410Y-23132D01*
X47409Y-23366D01*
X47499Y-23583D01*
X47665Y-23749D01*
X47665Y-23750D01*
X47500Y-23915D01*
X47410Y-24132D01*
X47409Y-24366D01*
X47499Y-24583D01*
X47665Y-24749D01*
X47665Y-24750D01*
X47500Y-24915D01*
X47410Y-25132D01*
X47409Y-25366D01*
X47499Y-25583D01*
X47665Y-25749D01*
X47882Y-25839D01*
X48116Y-25840D01*
X48333Y-25750D01*
X48499Y-25584D01*
X48550Y-25463D01*
X48550Y-31063D01*
G36*
X48550Y-34456D02*
X48541Y-34448D01*
X48449Y-34410D01*
X48350Y-34410D01*
X47550Y-34410D01*
X47458Y-34448D01*
X47388Y-34518D01*
X47350Y-34610D01*
X47350Y-34700D01*
X45072Y-34700D01*
X45045Y-34635D01*
X44864Y-34454D01*
X44628Y-34356D01*
X44372Y-34356D01*
X44135Y-34454D01*
X43954Y-34635D01*
X43856Y-34871D01*
X43856Y-35127D01*
X43954Y-35364D01*
X44135Y-35545D01*
X44371Y-35643D01*
X44627Y-35643D01*
X44864Y-35545D01*
X45045Y-35364D01*
X45072Y-35300D01*
X47350Y-35300D01*
X47350Y-35389D01*
X47388Y-35481D01*
X47458Y-35551D01*
X47518Y-35576D01*
X47510Y-35582D01*
X47382Y-35774D01*
X47337Y-36000D01*
X47382Y-36225D01*
X47510Y-36417D01*
X47634Y-36500D01*
X47510Y-36582D01*
X47382Y-36774D01*
X47337Y-37000D01*
X47382Y-37225D01*
X47431Y-37299D01*
X47410Y-37299D01*
X47410Y-37300D01*
X45200Y-37300D01*
X45200Y-36500D01*
X45165Y-36327D01*
X45068Y-36181D01*
X45045Y-36159D01*
X45045Y-36141D01*
X44962Y-35941D01*
X44809Y-35787D01*
X44608Y-35704D01*
X44391Y-35704D01*
X44191Y-35787D01*
X44062Y-35915D01*
X44055Y-35897D01*
X44038Y-35871D01*
X43910Y-35853D01*
X43896Y-35867D01*
X43896Y-35839D01*
X43878Y-35711D01*
X43643Y-35607D01*
X43387Y-35601D01*
X43147Y-35694D01*
X43121Y-35711D01*
X43103Y-35839D01*
X43500Y-36235D01*
X43896Y-35839D01*
X43896Y-35867D01*
X43514Y-36250D01*
X43910Y-36646D01*
X44038Y-36628D01*
X44059Y-36580D01*
X44190Y-36712D01*
X44300Y-36757D01*
X44300Y-36795D01*
X44246Y-36759D01*
X44022Y-36715D01*
X43888Y-36715D01*
X43896Y-36660D01*
X43500Y-36264D01*
X43485Y-36278D01*
X43485Y-36250D01*
X43089Y-35853D01*
X42961Y-35871D01*
X42857Y-36106D01*
X42851Y-36362D01*
X42944Y-36602D01*
X42961Y-36628D01*
X43089Y-36646D01*
X43485Y-36250D01*
X43485Y-36278D01*
X43103Y-36660D01*
X43115Y-36747D01*
X43053Y-36759D01*
X42863Y-36886D01*
X42737Y-37076D01*
X42692Y-37300D01*
X42737Y-37523D01*
X42863Y-37713D01*
X42993Y-37800D01*
X42918Y-37850D01*
X42400Y-37850D01*
X42400Y-36350D01*
X42361Y-36258D01*
X42291Y-36188D01*
X42199Y-36150D01*
X42100Y-36150D01*
X41396Y-36150D01*
X41396Y-35660D01*
X41000Y-35264D01*
X40603Y-35660D01*
X40621Y-35788D01*
X40856Y-35892D01*
X41112Y-35898D01*
X41352Y-35805D01*
X41378Y-35788D01*
X41396Y-35660D01*
X41396Y-36150D01*
X37399Y-36150D01*
X37399Y-35663D01*
X37000Y-35264D01*
X36600Y-35663D01*
X36618Y-35791D01*
X36855Y-35896D01*
X37113Y-35902D01*
X37354Y-35809D01*
X37381Y-35791D01*
X37399Y-35663D01*
X37399Y-36150D01*
X35900Y-36150D01*
X35816Y-36184D01*
X35431Y-35800D01*
X36000Y-35800D01*
X36000Y-35799D01*
X36114Y-35777D01*
X36114Y-35777D01*
X36212Y-35712D01*
X36249Y-35674D01*
X36334Y-35675D01*
X36454Y-35625D01*
X36458Y-35631D01*
X36586Y-35649D01*
X36985Y-35250D01*
X36980Y-35244D01*
X36994Y-35230D01*
X37000Y-35235D01*
X37005Y-35230D01*
X37019Y-35244D01*
X37014Y-35250D01*
X37413Y-35649D01*
X37541Y-35631D01*
X37646Y-35394D01*
X37648Y-35322D01*
X38037Y-35712D01*
X38135Y-35777D01*
X38135Y-35777D01*
X38250Y-35800D01*
X39500Y-35800D01*
X39500Y-35799D01*
X39614Y-35777D01*
X39614Y-35777D01*
X39712Y-35712D01*
X39999Y-35424D01*
X40084Y-35425D01*
X40240Y-35360D01*
X40354Y-35246D01*
X40351Y-35362D01*
X40444Y-35602D01*
X40461Y-35628D01*
X40589Y-35646D01*
X40985Y-35250D01*
X40589Y-34853D01*
X40461Y-34871D01*
X40425Y-34954D01*
X40425Y-34915D01*
X40360Y-34760D01*
X40416Y-34736D01*
X40486Y-34666D01*
X40506Y-34619D01*
X40604Y-34631D01*
X40985Y-34250D01*
X40980Y-34244D01*
X40994Y-34230D01*
X41000Y-34235D01*
X41005Y-34230D01*
X41019Y-34244D01*
X41014Y-34250D01*
X41395Y-34631D01*
X41521Y-34616D01*
X41553Y-34543D01*
X41554Y-34547D01*
X41702Y-34694D01*
X41808Y-34738D01*
X41691Y-34787D01*
X41562Y-34915D01*
X41555Y-34897D01*
X41538Y-34871D01*
X41410Y-34853D01*
X41396Y-34867D01*
X41396Y-34839D01*
X41378Y-34711D01*
X41373Y-34709D01*
X41381Y-34645D01*
X41000Y-34264D01*
X40618Y-34645D01*
X40625Y-34708D01*
X40621Y-34711D01*
X40603Y-34839D01*
X41000Y-35235D01*
X41396Y-34839D01*
X41396Y-34867D01*
X41014Y-35250D01*
X41410Y-35646D01*
X41538Y-35628D01*
X41559Y-35580D01*
X41690Y-35712D01*
X41891Y-35795D01*
X42108Y-35795D01*
X42308Y-35712D01*
X42462Y-35559D01*
X42545Y-35358D01*
X42545Y-35141D01*
X42462Y-34941D01*
X42309Y-34787D01*
X42191Y-34738D01*
X42297Y-34695D01*
X42444Y-34547D01*
X42500Y-34414D01*
X42554Y-34547D01*
X42702Y-34694D01*
X42895Y-34774D01*
X43103Y-34775D01*
X43297Y-34695D01*
X43444Y-34547D01*
X43524Y-34354D01*
X43525Y-34146D01*
X43445Y-33953D01*
X43297Y-33805D01*
X43104Y-33725D01*
X42899Y-33724D01*
X42712Y-33537D01*
X42614Y-33472D01*
X42500Y-33450D01*
X35124Y-33450D01*
X34962Y-33287D01*
X34864Y-33222D01*
X34750Y-33200D01*
X34500Y-33200D01*
X34385Y-33222D01*
X34287Y-33287D01*
X33875Y-33700D01*
X32624Y-33700D01*
X32212Y-33287D01*
X32114Y-33222D01*
X32000Y-33200D01*
X31874Y-33200D01*
X31717Y-33043D01*
X31750Y-33050D01*
X35250Y-33050D01*
X35250Y-33049D01*
X35364Y-33027D01*
X35364Y-33027D01*
X35462Y-32962D01*
X35660Y-32764D01*
X35660Y-33139D01*
X35698Y-33231D01*
X35768Y-33301D01*
X35860Y-33340D01*
X35959Y-33340D01*
X36639Y-33340D01*
X36731Y-33301D01*
X36801Y-33231D01*
X36827Y-33171D01*
X37012Y-33295D01*
X37238Y-33340D01*
X37261Y-33340D01*
X37487Y-33295D01*
X37678Y-33167D01*
X37806Y-32975D01*
X37851Y-32750D01*
X37806Y-32524D01*
X37678Y-32332D01*
X37554Y-32250D01*
X37678Y-32167D01*
X37806Y-31975D01*
X37851Y-31750D01*
X37806Y-31524D01*
X37678Y-31332D01*
X37487Y-31204D01*
X37261Y-31160D01*
X37238Y-31160D01*
X37012Y-31204D01*
X36821Y-31332D01*
X36750Y-31439D01*
X36678Y-31332D01*
X36487Y-31204D01*
X36383Y-31184D01*
X36424Y-31084D01*
X36425Y-30915D01*
X36377Y-30800D01*
X36750Y-30800D01*
X36750Y-30799D01*
X36864Y-30777D01*
X36864Y-30777D01*
X36962Y-30712D01*
X37455Y-30218D01*
X37641Y-30295D01*
X37858Y-30295D01*
X38058Y-30212D01*
X38212Y-30059D01*
X38281Y-29892D01*
X38356Y-29817D01*
X38356Y-29877D01*
X38454Y-30114D01*
X38497Y-30157D01*
X38385Y-30204D01*
X38204Y-30385D01*
X38106Y-30621D01*
X38106Y-30877D01*
X38204Y-31114D01*
X38300Y-31210D01*
X38300Y-31500D01*
X38334Y-31672D01*
X38431Y-31818D01*
X39181Y-32568D01*
X39327Y-32665D01*
X39500Y-32700D01*
X41999Y-32700D01*
X42000Y-32700D01*
X42089Y-32700D01*
X42089Y-32700D01*
X42250Y-32700D01*
X42422Y-32665D01*
X42568Y-32568D01*
X43318Y-31818D01*
X43415Y-31672D01*
X43439Y-31553D01*
X43444Y-31547D01*
X43523Y-31357D01*
X43856Y-31024D01*
X43856Y-31127D01*
X43954Y-31364D01*
X44135Y-31545D01*
X44371Y-31643D01*
X44627Y-31643D01*
X44864Y-31545D01*
X45045Y-31364D01*
X45072Y-31300D01*
X45602Y-31300D01*
X45584Y-31327D01*
X45550Y-31500D01*
X45550Y-33249D01*
X45549Y-33339D01*
X45618Y-33504D01*
X45744Y-33631D01*
X45827Y-33665D01*
X45910Y-33699D01*
X46000Y-33700D01*
X46089Y-33700D01*
X46172Y-33665D01*
X46254Y-33631D01*
X46318Y-33568D01*
X46381Y-33505D01*
X46415Y-33422D01*
X46449Y-33339D01*
X46450Y-33250D01*
X46450Y-33160D01*
X46450Y-33160D01*
X46450Y-32470D01*
X46640Y-32549D01*
X46858Y-32550D01*
X47061Y-32466D01*
X47077Y-32450D01*
X47422Y-32450D01*
X47438Y-32465D01*
X47640Y-32549D01*
X47858Y-32550D01*
X48061Y-32466D01*
X48070Y-32457D01*
X48550Y-32936D01*
X48550Y-34456D01*
X48550Y-34456D01*
G37*
X48550Y-34456D02*
X48541Y-34448D01*
X48449Y-34410D01*
X48350Y-34410D01*
X47550Y-34410D01*
X47458Y-34448D01*
X47388Y-34518D01*
X47350Y-34610D01*
X47350Y-34700D01*
X45072Y-34700D01*
X45045Y-34635D01*
X44864Y-34454D01*
X44628Y-34356D01*
X44372Y-34356D01*
X44135Y-34454D01*
X43954Y-34635D01*
X43856Y-34871D01*
X43856Y-35127D01*
X43954Y-35364D01*
X44135Y-35545D01*
X44371Y-35643D01*
X44627Y-35643D01*
X44864Y-35545D01*
X45045Y-35364D01*
X45072Y-35300D01*
X47350Y-35300D01*
X47350Y-35389D01*
X47388Y-35481D01*
X47458Y-35551D01*
X47518Y-35576D01*
X47510Y-35582D01*
X47382Y-35774D01*
X47337Y-36000D01*
X47382Y-36225D01*
X47510Y-36417D01*
X47634Y-36500D01*
X47510Y-36582D01*
X47382Y-36774D01*
X47337Y-37000D01*
X47382Y-37225D01*
X47431Y-37299D01*
X47410Y-37299D01*
X47410Y-37300D01*
X45200Y-37300D01*
X45200Y-36500D01*
X45165Y-36327D01*
X45068Y-36181D01*
X45045Y-36159D01*
X45045Y-36141D01*
X44962Y-35941D01*
X44809Y-35787D01*
X44608Y-35704D01*
X44391Y-35704D01*
X44191Y-35787D01*
X44062Y-35915D01*
X44055Y-35897D01*
X44038Y-35871D01*
X43910Y-35853D01*
X43896Y-35867D01*
X43896Y-35839D01*
X43878Y-35711D01*
X43643Y-35607D01*
X43387Y-35601D01*
X43147Y-35694D01*
X43121Y-35711D01*
X43103Y-35839D01*
X43500Y-36235D01*
X43896Y-35839D01*
X43896Y-35867D01*
X43514Y-36250D01*
X43910Y-36646D01*
X44038Y-36628D01*
X44059Y-36580D01*
X44190Y-36712D01*
X44300Y-36757D01*
X44300Y-36795D01*
X44246Y-36759D01*
X44022Y-36715D01*
X43888Y-36715D01*
X43896Y-36660D01*
X43500Y-36264D01*
X43485Y-36278D01*
X43485Y-36250D01*
X43089Y-35853D01*
X42961Y-35871D01*
X42857Y-36106D01*
X42851Y-36362D01*
X42944Y-36602D01*
X42961Y-36628D01*
X43089Y-36646D01*
X43485Y-36250D01*
X43485Y-36278D01*
X43103Y-36660D01*
X43115Y-36747D01*
X43053Y-36759D01*
X42863Y-36886D01*
X42737Y-37076D01*
X42692Y-37300D01*
X42737Y-37523D01*
X42863Y-37713D01*
X42993Y-37800D01*
X42918Y-37850D01*
X42400Y-37850D01*
X42400Y-36350D01*
X42361Y-36258D01*
X42291Y-36188D01*
X42199Y-36150D01*
X42100Y-36150D01*
X41396Y-36150D01*
X41396Y-35660D01*
X41000Y-35264D01*
X40603Y-35660D01*
X40621Y-35788D01*
X40856Y-35892D01*
X41112Y-35898D01*
X41352Y-35805D01*
X41378Y-35788D01*
X41396Y-35660D01*
X41396Y-36150D01*
X37399Y-36150D01*
X37399Y-35663D01*
X37000Y-35264D01*
X36600Y-35663D01*
X36618Y-35791D01*
X36855Y-35896D01*
X37113Y-35902D01*
X37354Y-35809D01*
X37381Y-35791D01*
X37399Y-35663D01*
X37399Y-36150D01*
X35900Y-36150D01*
X35816Y-36184D01*
X35431Y-35800D01*
X36000Y-35800D01*
X36000Y-35799D01*
X36114Y-35777D01*
X36114Y-35777D01*
X36212Y-35712D01*
X36249Y-35674D01*
X36334Y-35675D01*
X36454Y-35625D01*
X36458Y-35631D01*
X36586Y-35649D01*
X36985Y-35250D01*
X36980Y-35244D01*
X36994Y-35230D01*
X37000Y-35235D01*
X37005Y-35230D01*
X37019Y-35244D01*
X37014Y-35250D01*
X37413Y-35649D01*
X37541Y-35631D01*
X37646Y-35394D01*
X37648Y-35322D01*
X38037Y-35712D01*
X38135Y-35777D01*
X38135Y-35777D01*
X38250Y-35800D01*
X39500Y-35800D01*
X39500Y-35799D01*
X39614Y-35777D01*
X39614Y-35777D01*
X39712Y-35712D01*
X39999Y-35424D01*
X40084Y-35425D01*
X40240Y-35360D01*
X40354Y-35246D01*
X40351Y-35362D01*
X40444Y-35602D01*
X40461Y-35628D01*
X40589Y-35646D01*
X40985Y-35250D01*
X40589Y-34853D01*
X40461Y-34871D01*
X40425Y-34954D01*
X40425Y-34915D01*
X40360Y-34760D01*
X40416Y-34736D01*
X40486Y-34666D01*
X40506Y-34619D01*
X40604Y-34631D01*
X40985Y-34250D01*
X40980Y-34244D01*
X40994Y-34230D01*
X41000Y-34235D01*
X41005Y-34230D01*
X41019Y-34244D01*
X41014Y-34250D01*
X41395Y-34631D01*
X41521Y-34616D01*
X41553Y-34543D01*
X41554Y-34547D01*
X41702Y-34694D01*
X41808Y-34738D01*
X41691Y-34787D01*
X41562Y-34915D01*
X41555Y-34897D01*
X41538Y-34871D01*
X41410Y-34853D01*
X41396Y-34867D01*
X41396Y-34839D01*
X41378Y-34711D01*
X41373Y-34709D01*
X41381Y-34645D01*
X41000Y-34264D01*
X40618Y-34645D01*
X40625Y-34708D01*
X40621Y-34711D01*
X40603Y-34839D01*
X41000Y-35235D01*
X41396Y-34839D01*
X41396Y-34867D01*
X41014Y-35250D01*
X41410Y-35646D01*
X41538Y-35628D01*
X41559Y-35580D01*
X41690Y-35712D01*
X41891Y-35795D01*
X42108Y-35795D01*
X42308Y-35712D01*
X42462Y-35559D01*
X42545Y-35358D01*
X42545Y-35141D01*
X42462Y-34941D01*
X42309Y-34787D01*
X42191Y-34738D01*
X42297Y-34695D01*
X42444Y-34547D01*
X42500Y-34414D01*
X42554Y-34547D01*
X42702Y-34694D01*
X42895Y-34774D01*
X43103Y-34775D01*
X43297Y-34695D01*
X43444Y-34547D01*
X43524Y-34354D01*
X43525Y-34146D01*
X43445Y-33953D01*
X43297Y-33805D01*
X43104Y-33725D01*
X42899Y-33724D01*
X42712Y-33537D01*
X42614Y-33472D01*
X42500Y-33450D01*
X35124Y-33450D01*
X34962Y-33287D01*
X34864Y-33222D01*
X34750Y-33200D01*
X34500Y-33200D01*
X34385Y-33222D01*
X34287Y-33287D01*
X33875Y-33700D01*
X32624Y-33700D01*
X32212Y-33287D01*
X32114Y-33222D01*
X32000Y-33200D01*
X31874Y-33200D01*
X31717Y-33043D01*
X31750Y-33050D01*
X35250Y-33050D01*
X35250Y-33049D01*
X35364Y-33027D01*
X35364Y-33027D01*
X35462Y-32962D01*
X35660Y-32764D01*
X35660Y-33139D01*
X35698Y-33231D01*
X35768Y-33301D01*
X35860Y-33340D01*
X35959Y-33340D01*
X36639Y-33340D01*
X36731Y-33301D01*
X36801Y-33231D01*
X36827Y-33171D01*
X37012Y-33295D01*
X37238Y-33340D01*
X37261Y-33340D01*
X37487Y-33295D01*
X37678Y-33167D01*
X37806Y-32975D01*
X37851Y-32750D01*
X37806Y-32524D01*
X37678Y-32332D01*
X37554Y-32250D01*
X37678Y-32167D01*
X37806Y-31975D01*
X37851Y-31750D01*
X37806Y-31524D01*
X37678Y-31332D01*
X37487Y-31204D01*
X37261Y-31160D01*
X37238Y-31160D01*
X37012Y-31204D01*
X36821Y-31332D01*
X36750Y-31439D01*
X36678Y-31332D01*
X36487Y-31204D01*
X36383Y-31184D01*
X36424Y-31084D01*
X36425Y-30915D01*
X36377Y-30800D01*
X36750Y-30800D01*
X36750Y-30799D01*
X36864Y-30777D01*
X36864Y-30777D01*
X36962Y-30712D01*
X37455Y-30218D01*
X37641Y-30295D01*
X37858Y-30295D01*
X38058Y-30212D01*
X38212Y-30059D01*
X38281Y-29892D01*
X38356Y-29817D01*
X38356Y-29877D01*
X38454Y-30114D01*
X38497Y-30157D01*
X38385Y-30204D01*
X38204Y-30385D01*
X38106Y-30621D01*
X38106Y-30877D01*
X38204Y-31114D01*
X38300Y-31210D01*
X38300Y-31500D01*
X38334Y-31672D01*
X38431Y-31818D01*
X39181Y-32568D01*
X39327Y-32665D01*
X39500Y-32700D01*
X41999Y-32700D01*
X42000Y-32700D01*
X42089Y-32700D01*
X42089Y-32700D01*
X42250Y-32700D01*
X42422Y-32665D01*
X42568Y-32568D01*
X43318Y-31818D01*
X43415Y-31672D01*
X43439Y-31553D01*
X43444Y-31547D01*
X43523Y-31357D01*
X43856Y-31024D01*
X43856Y-31127D01*
X43954Y-31364D01*
X44135Y-31545D01*
X44371Y-31643D01*
X44627Y-31643D01*
X44864Y-31545D01*
X45045Y-31364D01*
X45072Y-31300D01*
X45602Y-31300D01*
X45584Y-31327D01*
X45550Y-31500D01*
X45550Y-33249D01*
X45549Y-33339D01*
X45618Y-33504D01*
X45744Y-33631D01*
X45827Y-33665D01*
X45910Y-33699D01*
X46000Y-33700D01*
X46089Y-33700D01*
X46172Y-33665D01*
X46254Y-33631D01*
X46318Y-33568D01*
X46381Y-33505D01*
X46415Y-33422D01*
X46449Y-33339D01*
X46450Y-33250D01*
X46450Y-33160D01*
X46450Y-33160D01*
X46450Y-32470D01*
X46640Y-32549D01*
X46858Y-32550D01*
X47061Y-32466D01*
X47077Y-32450D01*
X47422Y-32450D01*
X47438Y-32465D01*
X47640Y-32549D01*
X47858Y-32550D01*
X48061Y-32466D01*
X48070Y-32457D01*
X48550Y-32936D01*
X48550Y-34456D01*
G36*
X48550Y-38759D02*
X48544Y-38754D01*
X48308Y-38656D01*
X48052Y-38656D01*
X47815Y-38754D01*
X47634Y-38935D01*
X47536Y-39171D01*
X47536Y-39427D01*
X47634Y-39664D01*
X47815Y-39845D01*
X47880Y-39872D01*
X47880Y-40430D01*
X47902Y-40544D01*
X47967Y-40642D01*
X48200Y-40874D01*
X48200Y-40938D01*
X48000Y-40898D01*
X47774Y-40943D01*
X47614Y-41050D01*
X47565Y-41050D01*
X47551Y-41018D01*
X47481Y-40948D01*
X47389Y-40910D01*
X47290Y-40910D01*
X46610Y-40910D01*
X46518Y-40948D01*
X46448Y-41018D01*
X46429Y-41064D01*
X46363Y-41077D01*
X46363Y-39763D01*
X46363Y-39623D01*
X46363Y-39397D01*
X46363Y-39202D01*
X46363Y-38976D01*
X46363Y-38836D01*
X46310Y-38708D01*
X46211Y-38609D01*
X46083Y-38556D01*
X45717Y-38556D01*
X45630Y-38644D01*
X45630Y-39290D01*
X46276Y-39290D01*
X46363Y-39202D01*
X46363Y-39397D01*
X46276Y-39310D01*
X45630Y-39310D01*
X45630Y-39956D01*
X45717Y-40043D01*
X46083Y-40043D01*
X46211Y-39990D01*
X46310Y-39891D01*
X46363Y-39763D01*
X46363Y-41077D01*
X46327Y-41084D01*
X46181Y-41181D01*
X45863Y-41500D01*
X45610Y-41500D01*
X45610Y-39956D01*
X45610Y-39310D01*
X45610Y-39290D01*
X45610Y-38644D01*
X45522Y-38556D01*
X45156Y-38556D01*
X45028Y-38609D01*
X44929Y-38708D01*
X44876Y-38836D01*
X44876Y-38976D01*
X44876Y-39202D01*
X44964Y-39290D01*
X45610Y-39290D01*
X45610Y-39310D01*
X44964Y-39310D01*
X44876Y-39397D01*
X44876Y-39623D01*
X44876Y-39763D01*
X44929Y-39891D01*
X45028Y-39990D01*
X45156Y-40043D01*
X45522Y-40043D01*
X45610Y-39956D01*
X45610Y-41500D01*
X45143Y-41500D01*
X45143Y-40372D01*
X45045Y-40135D01*
X44864Y-39954D01*
X44628Y-39856D01*
X44380Y-39856D01*
X44495Y-39776D01*
X44640Y-39552D01*
X44678Y-39416D01*
X44601Y-39310D01*
X43660Y-39310D01*
X43660Y-39984D01*
X44014Y-39984D01*
X44130Y-39959D01*
X43954Y-40135D01*
X43856Y-40371D01*
X43856Y-40627D01*
X43954Y-40864D01*
X44135Y-41045D01*
X44371Y-41143D01*
X44627Y-41143D01*
X44864Y-41045D01*
X45045Y-40864D01*
X45143Y-40628D01*
X45143Y-40372D01*
X45143Y-41500D01*
X43643Y-41500D01*
X43643Y-40372D01*
X43545Y-40135D01*
X43394Y-39984D01*
X43640Y-39984D01*
X43640Y-39310D01*
X42698Y-39310D01*
X42621Y-39416D01*
X42659Y-39552D01*
X42804Y-39776D01*
X42919Y-39856D01*
X42872Y-39856D01*
X42635Y-39954D01*
X42454Y-40135D01*
X42356Y-40371D01*
X42356Y-40627D01*
X42454Y-40864D01*
X42635Y-41045D01*
X42871Y-41143D01*
X43127Y-41143D01*
X43364Y-41045D01*
X43545Y-40864D01*
X43643Y-40628D01*
X43643Y-40372D01*
X43643Y-41500D01*
X43550Y-41500D01*
X43377Y-41534D01*
X43231Y-41631D01*
X41540Y-43323D01*
X41540Y-41745D01*
X41325Y-41175D01*
X41268Y-41090D01*
X41049Y-40965D01*
X41034Y-40979D01*
X41034Y-40950D01*
X40909Y-40731D01*
X40354Y-40479D01*
X39745Y-40459D01*
X39175Y-40674D01*
X39090Y-40731D01*
X38965Y-40950D01*
X40000Y-41985D01*
X41034Y-40950D01*
X41034Y-40979D01*
X40014Y-42000D01*
X41049Y-43034D01*
X41268Y-42909D01*
X41520Y-42354D01*
X41540Y-41745D01*
X41540Y-43323D01*
X41413Y-43449D01*
X40494Y-43449D01*
X40824Y-43325D01*
X40909Y-43268D01*
X41034Y-43049D01*
X40000Y-42014D01*
X39985Y-42028D01*
X39985Y-42000D01*
X38950Y-40965D01*
X38731Y-41090D01*
X38479Y-41645D01*
X38459Y-42254D01*
X38674Y-42824D01*
X38731Y-42909D01*
X38950Y-43034D01*
X39985Y-42000D01*
X39985Y-42028D01*
X38965Y-43049D01*
X39090Y-43268D01*
X39490Y-43449D01*
X37336Y-43449D01*
X34068Y-40181D01*
X33922Y-40084D01*
X33750Y-40050D01*
X33483Y-40050D01*
X33551Y-39981D01*
X33590Y-39889D01*
X33590Y-39790D01*
X33590Y-39620D01*
X33639Y-39740D01*
X33758Y-39860D01*
X33915Y-39924D01*
X34084Y-39925D01*
X34240Y-39860D01*
X34360Y-39741D01*
X34424Y-39584D01*
X34425Y-39415D01*
X34360Y-39259D01*
X34241Y-39139D01*
X34084Y-39075D01*
X33999Y-39074D01*
X33954Y-39030D01*
X34254Y-39040D01*
X34824Y-38825D01*
X34909Y-38768D01*
X35034Y-38549D01*
X34000Y-37514D01*
X33994Y-37519D01*
X33980Y-37505D01*
X33985Y-37500D01*
X33980Y-37494D01*
X33994Y-37480D01*
X34000Y-37485D01*
X34005Y-37480D01*
X34019Y-37494D01*
X34014Y-37500D01*
X35049Y-38534D01*
X35268Y-38409D01*
X35520Y-37854D01*
X35540Y-37245D01*
X35501Y-37142D01*
X35700Y-37341D01*
X35700Y-40249D01*
X35738Y-40341D01*
X35808Y-40411D01*
X35900Y-40450D01*
X35999Y-40450D01*
X42199Y-40450D01*
X42291Y-40411D01*
X42361Y-40341D01*
X42400Y-40249D01*
X42400Y-40150D01*
X42400Y-38750D01*
X42910Y-38750D01*
X42804Y-38823D01*
X42659Y-39047D01*
X42621Y-39183D01*
X42698Y-39290D01*
X43640Y-39290D01*
X43640Y-39282D01*
X43660Y-39282D01*
X43660Y-39290D01*
X44601Y-39290D01*
X44678Y-39183D01*
X44640Y-39047D01*
X44495Y-38823D01*
X44385Y-38747D01*
X44436Y-38713D01*
X44484Y-38640D01*
X44518Y-38618D01*
X44936Y-38200D01*
X47499Y-38200D01*
X47500Y-38200D01*
X47589Y-38200D01*
X47672Y-38165D01*
X47754Y-38131D01*
X47818Y-38068D01*
X47881Y-38005D01*
X47915Y-37922D01*
X47949Y-37839D01*
X47950Y-37750D01*
X47950Y-37660D01*
X47920Y-37588D01*
X47927Y-37590D01*
X48072Y-37590D01*
X48298Y-37545D01*
X48489Y-37417D01*
X48550Y-37327D01*
X48550Y-38759D01*
X48550Y-38759D01*
G37*
X48550Y-38759D02*
X48544Y-38754D01*
X48308Y-38656D01*
X48052Y-38656D01*
X47815Y-38754D01*
X47634Y-38935D01*
X47536Y-39171D01*
X47536Y-39427D01*
X47634Y-39664D01*
X47815Y-39845D01*
X47880Y-39872D01*
X47880Y-40430D01*
X47902Y-40544D01*
X47967Y-40642D01*
X48200Y-40874D01*
X48200Y-40938D01*
X48000Y-40898D01*
X47774Y-40943D01*
X47614Y-41050D01*
X47565Y-41050D01*
X47551Y-41018D01*
X47481Y-40948D01*
X47389Y-40910D01*
X47290Y-40910D01*
X46610Y-40910D01*
X46518Y-40948D01*
X46448Y-41018D01*
X46429Y-41064D01*
X46363Y-41077D01*
X46363Y-39763D01*
X46363Y-39623D01*
X46363Y-39397D01*
X46363Y-39202D01*
X46363Y-38976D01*
X46363Y-38836D01*
X46310Y-38708D01*
X46211Y-38609D01*
X46083Y-38556D01*
X45717Y-38556D01*
X45630Y-38644D01*
X45630Y-39290D01*
X46276Y-39290D01*
X46363Y-39202D01*
X46363Y-39397D01*
X46276Y-39310D01*
X45630Y-39310D01*
X45630Y-39956D01*
X45717Y-40043D01*
X46083Y-40043D01*
X46211Y-39990D01*
X46310Y-39891D01*
X46363Y-39763D01*
X46363Y-41077D01*
X46327Y-41084D01*
X46181Y-41181D01*
X45863Y-41500D01*
X45610Y-41500D01*
X45610Y-39956D01*
X45610Y-39310D01*
X45610Y-39290D01*
X45610Y-38644D01*
X45522Y-38556D01*
X45156Y-38556D01*
X45028Y-38609D01*
X44929Y-38708D01*
X44876Y-38836D01*
X44876Y-38976D01*
X44876Y-39202D01*
X44964Y-39290D01*
X45610Y-39290D01*
X45610Y-39310D01*
X44964Y-39310D01*
X44876Y-39397D01*
X44876Y-39623D01*
X44876Y-39763D01*
X44929Y-39891D01*
X45028Y-39990D01*
X45156Y-40043D01*
X45522Y-40043D01*
X45610Y-39956D01*
X45610Y-41500D01*
X45143Y-41500D01*
X45143Y-40372D01*
X45045Y-40135D01*
X44864Y-39954D01*
X44628Y-39856D01*
X44380Y-39856D01*
X44495Y-39776D01*
X44640Y-39552D01*
X44678Y-39416D01*
X44601Y-39310D01*
X43660Y-39310D01*
X43660Y-39984D01*
X44014Y-39984D01*
X44130Y-39959D01*
X43954Y-40135D01*
X43856Y-40371D01*
X43856Y-40627D01*
X43954Y-40864D01*
X44135Y-41045D01*
X44371Y-41143D01*
X44627Y-41143D01*
X44864Y-41045D01*
X45045Y-40864D01*
X45143Y-40628D01*
X45143Y-40372D01*
X45143Y-41500D01*
X43643Y-41500D01*
X43643Y-40372D01*
X43545Y-40135D01*
X43394Y-39984D01*
X43640Y-39984D01*
X43640Y-39310D01*
X42698Y-39310D01*
X42621Y-39416D01*
X42659Y-39552D01*
X42804Y-39776D01*
X42919Y-39856D01*
X42872Y-39856D01*
X42635Y-39954D01*
X42454Y-40135D01*
X42356Y-40371D01*
X42356Y-40627D01*
X42454Y-40864D01*
X42635Y-41045D01*
X42871Y-41143D01*
X43127Y-41143D01*
X43364Y-41045D01*
X43545Y-40864D01*
X43643Y-40628D01*
X43643Y-40372D01*
X43643Y-41500D01*
X43550Y-41500D01*
X43377Y-41534D01*
X43231Y-41631D01*
X41540Y-43323D01*
X41540Y-41745D01*
X41325Y-41175D01*
X41268Y-41090D01*
X41049Y-40965D01*
X41034Y-40979D01*
X41034Y-40950D01*
X40909Y-40731D01*
X40354Y-40479D01*
X39745Y-40459D01*
X39175Y-40674D01*
X39090Y-40731D01*
X38965Y-40950D01*
X40000Y-41985D01*
X41034Y-40950D01*
X41034Y-40979D01*
X40014Y-42000D01*
X41049Y-43034D01*
X41268Y-42909D01*
X41520Y-42354D01*
X41540Y-41745D01*
X41540Y-43323D01*
X41413Y-43449D01*
X40494Y-43449D01*
X40824Y-43325D01*
X40909Y-43268D01*
X41034Y-43049D01*
X40000Y-42014D01*
X39985Y-42028D01*
X39985Y-42000D01*
X38950Y-40965D01*
X38731Y-41090D01*
X38479Y-41645D01*
X38459Y-42254D01*
X38674Y-42824D01*
X38731Y-42909D01*
X38950Y-43034D01*
X39985Y-42000D01*
X39985Y-42028D01*
X38965Y-43049D01*
X39090Y-43268D01*
X39490Y-43449D01*
X37336Y-43449D01*
X34068Y-40181D01*
X33922Y-40084D01*
X33750Y-40050D01*
X33483Y-40050D01*
X33551Y-39981D01*
X33590Y-39889D01*
X33590Y-39790D01*
X33590Y-39620D01*
X33639Y-39740D01*
X33758Y-39860D01*
X33915Y-39924D01*
X34084Y-39925D01*
X34240Y-39860D01*
X34360Y-39741D01*
X34424Y-39584D01*
X34425Y-39415D01*
X34360Y-39259D01*
X34241Y-39139D01*
X34084Y-39075D01*
X33999Y-39074D01*
X33954Y-39030D01*
X34254Y-39040D01*
X34824Y-38825D01*
X34909Y-38768D01*
X35034Y-38549D01*
X34000Y-37514D01*
X33994Y-37519D01*
X33980Y-37505D01*
X33985Y-37500D01*
X33980Y-37494D01*
X33994Y-37480D01*
X34000Y-37485D01*
X34005Y-37480D01*
X34019Y-37494D01*
X34014Y-37500D01*
X35049Y-38534D01*
X35268Y-38409D01*
X35520Y-37854D01*
X35540Y-37245D01*
X35501Y-37142D01*
X35700Y-37341D01*
X35700Y-40249D01*
X35738Y-40341D01*
X35808Y-40411D01*
X35900Y-40450D01*
X35999Y-40450D01*
X42199Y-40450D01*
X42291Y-40411D01*
X42361Y-40341D01*
X42400Y-40249D01*
X42400Y-40150D01*
X42400Y-38750D01*
X42910Y-38750D01*
X42804Y-38823D01*
X42659Y-39047D01*
X42621Y-39183D01*
X42698Y-39290D01*
X43640Y-39290D01*
X43640Y-39282D01*
X43660Y-39282D01*
X43660Y-39290D01*
X44601Y-39290D01*
X44678Y-39183D01*
X44640Y-39047D01*
X44495Y-38823D01*
X44385Y-38747D01*
X44436Y-38713D01*
X44484Y-38640D01*
X44518Y-38618D01*
X44936Y-38200D01*
X47499Y-38200D01*
X47500Y-38200D01*
X47589Y-38200D01*
X47672Y-38165D01*
X47754Y-38131D01*
X47818Y-38068D01*
X47881Y-38005D01*
X47915Y-37922D01*
X47949Y-37839D01*
X47950Y-37750D01*
X47950Y-37660D01*
X47920Y-37588D01*
X47927Y-37590D01*
X48072Y-37590D01*
X48298Y-37545D01*
X48489Y-37417D01*
X48550Y-37327D01*
X48550Y-38759D01*
M02*
