<?xml version="1.0" encoding="utf-8" ?>
<svg baseProfile="tiny" height="200mm" version="1.2" viewBox="0 0 200 200" width="200mm" xmlns="http://www.w3.org/2000/svg" xmlns:ev="http://www.w3.org/2001/xml-events" xmlns:xlink="http://www.w3.org/1999/xlink"><defs /><line stroke="blue" x1="50.0" x2="50.0" y1="150.0" y2="50.0" /><line stroke="blue" x1="50.0" x2="150.0" y1="50.0" y2="50.0" /><line stroke="blue" x1="150.0" x2="150.0" y1="50.0" y2="150.0" /><line stroke="blue" x1="150.0" x2="50.0" y1="150.0" y2="150.0" /><circle cx="51.74" cy="148.26" r="0.127" /><circle cx="54.28" cy="148.26" r="0.127" /><circle cx="56.82" cy="148.26" r="0.127" /><circle cx="59.36" cy="148.26" r="0.127" /><circle cx="61.9" cy="148.26" r="0.127" /><circle cx="64.44" cy="148.26" r="0.127" /><circle cx="66.98" cy="148.26" r="0.127" /><circle cx="69.52" cy="148.26" r="0.127" /><circle cx="72.06" cy="148.26" r="0.127" /><circle cx="74.6" cy="148.26" r="0.127" /><circle cx="77.14" cy="148.26" r="0.127" /><circle cx="79.68" cy="148.26" r="0.127" /><circle cx="82.22" cy="148.26" r="0.127" /><circle cx="84.76" cy="148.26" r="0.127" /><circle cx="87.3" cy="148.26" r="0.127" /><circle cx="89.84" cy="148.26" r="0.127" /><circle cx="92.38" cy="148.26" r="0.127" /><circle cx="94.92" cy="148.26" r="0.127" /><circle cx="97.46" cy="148.26" r="0.127" /><circle cx="100.0" cy="148.26" r="0.127" /><circle cx="102.54" cy="148.26" r="0.127" /><circle cx="105.08" cy="148.26" r="0.127" /><circle cx="107.62" cy="148.26" r="0.127" /><circle cx="110.16" cy="148.26" r="0.127" /><circle cx="112.7" cy="148.26" r="0.127" /><circle cx="115.24" cy="148.26" r="0.127" /><circle cx="117.78" cy="148.26" r="0.127" /><circle cx="120.32" cy="148.26" r="0.127" /><circle cx="122.86" cy="148.26" r="0.127" /><circle cx="125.4" cy="148.26" r="0.127" /><circle cx="127.94" cy="148.26" r="0.127" /><circle cx="130.48" cy="148.26" r="0.127" /><circle cx="133.02" cy="148.26" r="0.127" /><circle cx="135.56" cy="148.26" r="0.127" /><circle cx="138.1" cy="148.26" r="0.127" /><circle cx="140.64" cy="148.26" r="0.127" /><circle cx="143.18" cy="148.26" r="0.127" /><circle cx="145.72" cy="148.26" r="0.127" /><circle cx="148.26" cy="148.26" r="0.127" /><circle cx="51.74" cy="145.72" r="0.127" /><circle cx="54.28" cy="145.72" r="0.127" /><circle cx="56.82" cy="145.72" r="0.127" /><circle cx="59.36" cy="145.72" r="0.127" /><circle cx="61.9" cy="145.72" r="0.127" /><circle cx="64.44" cy="145.72" r="0.127" /><circle cx="66.98" cy="145.72" r="0.127" /><circle cx="69.52" cy="145.72" r="0.127" /><circle cx="72.06" cy="145.72" r="0.127" /><circle cx="74.6" cy="145.72" r="0.127" /><circle cx="77.14" cy="145.72" r="0.127" /><circle cx="79.68" cy="145.72" r="0.127" /><circle cx="82.22" cy="145.72" r="0.127" /><circle cx="84.76" cy="145.72" r="0.127" /><circle cx="87.3" cy="145.72" r="0.127" /><circle cx="89.84" cy="145.72" r="0.127" /><circle cx="92.38" cy="145.72" r="0.127" /><circle cx="94.92" cy="145.72" r="0.127" /><circle cx="97.46" cy="145.72" r="0.127" /><circle cx="100.0" cy="145.72" r="0.127" /><circle cx="102.54" cy="145.72" r="0.127" /><circle cx="105.08" cy="145.72" r="0.127" /><circle cx="107.62" cy="145.72" r="0.127" /><circle cx="110.16" cy="145.72" r="0.127" /><circle cx="112.7" cy="145.72" r="0.127" /><circle cx="115.24" cy="145.72" r="0.127" /><circle cx="117.78" cy="145.72" r="0.127" /><circle cx="120.32" cy="145.72" r="0.127" /><circle cx="122.86" cy="145.72" r="0.127" /><circle cx="125.4" cy="145.72" r="0.127" /><circle cx="127.94" cy="145.72" r="0.127" /><circle cx="130.48" cy="145.72" r="0.127" /><circle cx="133.02" cy="145.72" r="0.127" /><circle cx="135.56" cy="145.72" r="0.127" /><circle cx="138.1" cy="145.72" r="0.127" /><circle cx="140.64" cy="145.72" r="0.127" /><circle cx="143.18" cy="145.72" r="0.127" /><circle cx="145.72" cy="145.72" r="0.127" /><circle cx="148.26" cy="145.72" r="0.127" /><circle cx="51.74" cy="143.18" r="0.127" /><circle cx="54.28" cy="143.18" r="0.127" /><circle cx="56.82" cy="143.18" r="0.127" /><circle cx="59.36" cy="143.18" r="0.127" /><circle cx="61.9" cy="143.18" r="0.127" /><circle cx="64.44" cy="143.18" r="0.127" /><circle cx="66.98" cy="143.18" r="0.127" /><circle cx="69.52" cy="143.18" r="0.127" /><circle cx="72.06" cy="143.18" r="0.127" /><circle cx="74.6" cy="143.18" r="0.127" /><circle cx="77.14" cy="143.18" r="0.127" /><circle cx="79.68" cy="143.18" r="0.127" /><circle cx="82.22" cy="143.18" r="0.127" /><circle cx="84.76" cy="143.18" r="0.127" /><circle cx="87.3" cy="143.18" r="0.127" /><circle cx="89.84" cy="143.18" r="0.127" /><circle cx="92.38" cy="143.18" r="0.127" /><circle cx="94.92" cy="143.18" r="0.127" /><circle cx="97.46" cy="143.18" r="0.127" /><circle cx="100.0" cy="143.18" r="0.127" /><circle cx="102.54" cy="143.18" r="0.127" /><circle cx="105.08" cy="143.18" r="0.127" /><circle cx="107.62" cy="143.18" r="0.127" /><circle cx="110.16" cy="143.18" r="0.127" /><circle cx="112.7" cy="143.18" r="0.127" /><circle cx="115.24" cy="143.18" r="0.127" /><circle cx="117.78" cy="143.18" r="0.127" /><circle cx="120.32" cy="143.18" r="0.127" /><circle cx="122.86" cy="143.18" r="0.127" /><circle cx="125.4" cy="143.18" r="0.127" /><circle cx="127.94" cy="143.18" r="0.127" /><circle cx="130.48" cy="143.18" r="0.127" /><circle cx="133.02" cy="143.18" r="0.127" /><circle cx="135.56" cy="143.18" r="0.127" /><circle cx="138.1" cy="143.18" r="0.127" /><circle cx="140.64" cy="143.18" r="0.127" /><circle cx="143.18" cy="143.18" r="0.127" /><circle cx="145.72" cy="143.18" r="0.127" /><circle cx="148.26" cy="143.18" r="0.127" /><circle cx="51.74" cy="140.64" r="0.127" /><circle cx="54.28" cy="140.64" r="0.127" /><circle cx="56.82" cy="140.64" r="0.127" /><circle cx="59.36" cy="140.64" r="0.127" /><circle cx="61.9" cy="140.64" r="0.127" /><circle cx="64.44" cy="140.64" r="0.127" /><circle cx="66.98" cy="140.64" r="0.127" /><circle cx="69.52" cy="140.64" r="0.127" /><circle cx="72.06" cy="140.64" r="0.127" /><circle cx="74.6" cy="140.64" r="0.127" /><circle cx="77.14" cy="140.64" r="0.127" /><circle cx="79.68" cy="140.64" r="0.127" /><circle cx="82.22" cy="140.64" r="0.127" /><circle cx="84.76" cy="140.64" r="0.127" /><circle cx="87.3" cy="140.64" r="0.127" /><circle cx="89.84" cy="140.64" r="0.127" /><circle cx="92.38" cy="140.64" r="0.127" /><circle cx="94.92" cy="140.64" r="0.127" /><circle cx="97.46" cy="140.64" r="0.127" /><circle cx="100.0" cy="140.64" r="0.127" /><circle cx="102.54" cy="140.64" r="0.127" /><circle cx="105.08" cy="140.64" r="0.127" /><circle cx="107.62" cy="140.64" r="0.127" /><circle cx="110.16" cy="140.64" r="0.127" /><circle cx="112.7" cy="140.64" r="0.127" /><circle cx="115.24" cy="140.64" r="0.127" /><circle cx="117.78" cy="140.64" r="0.127" /><circle cx="120.32" cy="140.64" r="0.127" /><circle cx="122.86" cy="140.64" r="0.127" /><circle cx="125.4" cy="140.64" r="0.127" /><circle cx="127.94" cy="140.64" r="0.127" /><circle cx="130.48" cy="140.64" r="0.127" /><circle cx="133.02" cy="140.64" r="0.127" /><circle cx="135.56" cy="140.64" r="0.127" /><circle cx="138.1" cy="140.64" r="0.127" /><circle cx="140.64" cy="140.64" r="0.127" /><circle cx="143.18" cy="140.64" r="0.127" /><circle cx="145.72" cy="140.64" r="0.127" /><circle cx="148.26" cy="140.64" r="0.127" /><circle cx="51.74" cy="138.1" r="0.127" /><circle cx="54.28" cy="138.1" r="0.127" /><circle cx="56.82" cy="138.1" r="0.127" /><circle cx="59.36" cy="138.1" r="0.127" /><circle cx="61.9" cy="138.1" r="0.127" /><circle cx="64.44" cy="138.1" r="0.127" /><circle cx="66.98" cy="138.1" r="0.127" /><circle cx="69.52" cy="138.1" r="0.127" /><circle cx="72.06" cy="138.1" r="0.127" /><circle cx="74.6" cy="138.1" r="0.127" /><circle cx="77.14" cy="138.1" r="0.127" /><circle cx="79.68" cy="138.1" r="0.127" /><circle cx="82.22" cy="138.1" r="0.127" /><circle cx="84.76" cy="138.1" r="0.127" /><circle cx="87.3" cy="138.1" r="0.127" /><circle cx="89.84" cy="138.1" r="0.127" /><circle cx="92.38" cy="138.1" r="0.127" /><circle cx="94.92" cy="138.1" r="0.127" /><circle cx="97.46" cy="138.1" r="0.127" /><circle cx="100.0" cy="138.1" r="0.127" /><circle cx="102.54" cy="138.1" r="0.127" /><circle cx="105.08" cy="138.1" r="0.127" /><circle cx="107.62" cy="138.1" r="0.127" /><circle cx="110.16" cy="138.1" r="0.127" /><circle cx="112.7" cy="138.1" r="0.127" /><circle cx="115.24" cy="138.1" r="0.127" /><circle cx="117.78" cy="138.1" r="0.127" /><circle cx="120.32" cy="138.1" r="0.127" /><circle cx="122.86" cy="138.1" r="0.127" /><circle cx="125.4" cy="138.1" r="0.127" /><circle cx="127.94" cy="138.1" r="0.127" /><circle cx="130.48" cy="138.1" r="0.127" /><circle cx="133.02" cy="138.1" r="0.127" /><circle cx="135.56" cy="138.1" r="0.127" /><circle cx="138.1" cy="138.1" r="0.127" /><circle cx="140.64" cy="138.1" r="0.127" /><circle cx="143.18" cy="138.1" r="0.127" /><circle cx="145.72" cy="138.1" r="0.127" /><circle cx="148.26" cy="138.1" r="0.127" /><circle cx="51.74" cy="135.56" r="0.127" /><circle cx="54.28" cy="135.56" r="0.127" /><circle cx="56.82" cy="135.56" r="0.127" /><circle cx="59.36" cy="135.56" r="0.127" /><circle cx="61.9" cy="135.56" r="0.127" /><circle cx="64.44" cy="135.56" r="0.127" /><circle cx="66.98" cy="135.56" r="0.127" /><circle cx="69.52" cy="135.56" r="0.127" /><circle cx="72.06" cy="135.56" r="0.127" /><circle cx="74.6" cy="135.56" r="0.127" /><circle cx="77.14" cy="135.56" r="0.127" /><circle cx="79.68" cy="135.56" r="0.127" /><circle cx="82.22" cy="135.56" r="0.127" /><circle cx="84.76" cy="135.56" r="0.127" /><circle cx="87.3" cy="135.56" r="0.127" /><circle cx="89.84" cy="135.56" r="0.127" /><circle cx="92.38" cy="135.56" r="0.127" /><circle cx="94.92" cy="135.56" r="0.127" /><circle cx="97.46" cy="135.56" r="0.127" /><circle cx="100.0" cy="135.56" r="0.127" /><circle cx="102.54" cy="135.56" r="0.127" /><circle cx="105.08" cy="135.56" r="0.127" /><circle cx="107.62" cy="135.56" r="0.127" /><circle cx="110.16" cy="135.56" r="0.127" /><circle cx="112.7" cy="135.56" r="0.127" /><circle cx="115.24" cy="135.56" r="0.127" /><circle cx="117.78" cy="135.56" r="0.127" /><circle cx="120.32" cy="135.56" r="0.127" /><circle cx="122.86" cy="135.56" r="0.127" /><circle cx="125.4" cy="135.56" r="0.127" /><circle cx="127.94" cy="135.56" r="0.127" /><circle cx="130.48" cy="135.56" r="0.127" /><circle cx="133.02" cy="135.56" r="0.127" /><circle cx="135.56" cy="135.56" r="0.127" /><circle cx="138.1" cy="135.56" r="0.127" /><circle cx="140.64" cy="135.56" r="0.127" /><circle cx="143.18" cy="135.56" r="0.127" /><circle cx="145.72" cy="135.56" r="0.127" /><circle cx="148.26" cy="135.56" r="0.127" /><circle cx="51.74" cy="133.02" r="0.127" /><circle cx="54.28" cy="133.02" r="0.127" /><circle cx="56.82" cy="133.02" r="0.127" /><circle cx="59.36" cy="133.02" r="0.127" /><circle cx="61.9" cy="133.02" r="0.127" /><circle cx="64.44" cy="133.02" r="0.127" /><circle cx="66.98" cy="133.02" r="0.127" /><circle cx="69.52" cy="133.02" r="0.127" /><circle cx="72.06" cy="133.02" r="0.127" /><circle cx="74.6" cy="133.02" r="0.127" /><circle cx="77.14" cy="133.02" r="0.127" /><circle cx="79.68" cy="133.02" r="0.127" /><circle cx="82.22" cy="133.02" r="0.127" /><circle cx="84.76" cy="133.02" r="0.127" /><circle cx="87.3" cy="133.02" r="0.127" /><circle cx="89.84" cy="133.02" r="0.127" /><circle cx="92.38" cy="133.02" r="0.127" /><circle cx="94.92" cy="133.02" r="0.127" /><circle cx="97.46" cy="133.02" r="0.127" /><circle cx="100.0" cy="133.02" r="0.127" /><circle cx="102.54" cy="133.02" r="0.127" /><circle cx="105.08" cy="133.02" r="0.127" /><circle cx="107.62" cy="133.02" r="0.127" /><circle cx="110.16" cy="133.02" r="0.127" /><circle cx="112.7" cy="133.02" r="0.127" /><circle cx="115.24" cy="133.02" r="0.127" /><circle cx="117.78" cy="133.02" r="0.127" /><circle cx="120.32" cy="133.02" r="0.127" /><circle cx="122.86" cy="133.02" r="0.127" /><circle cx="125.4" cy="133.02" r="0.127" /><circle cx="127.94" cy="133.02" r="0.127" /><circle cx="130.48" cy="133.02" r="0.127" /><circle cx="133.02" cy="133.02" r="0.127" /><circle cx="135.56" cy="133.02" r="0.127" /><circle cx="138.1" cy="133.02" r="0.127" /><circle cx="140.64" cy="133.02" r="0.127" /><circle cx="143.18" cy="133.02" r="0.127" /><circle cx="145.72" cy="133.02" r="0.127" /><circle cx="148.26" cy="133.02" r="0.127" /><circle cx="51.74" cy="130.48" r="0.127" /><circle cx="54.28" cy="130.48" r="0.127" /><circle cx="56.82" cy="130.48" r="0.127" /><circle cx="59.36" cy="130.48" r="0.127" /><circle cx="61.9" cy="130.48" r="0.127" /><circle cx="64.44" cy="130.48" r="0.127" /><circle cx="66.98" cy="130.48" r="0.127" /><circle cx="69.52" cy="130.48" r="0.127" /><circle cx="72.06" cy="130.48" r="0.127" /><circle cx="74.6" cy="130.48" r="0.127" /><circle cx="77.14" cy="130.48" r="0.127" /><circle cx="79.68" cy="130.48" r="0.127" /><circle cx="82.22" cy="130.48" r="0.127" /><circle cx="84.76" cy="130.48" r="0.127" /><circle cx="87.3" cy="130.48" r="0.127" /><circle cx="89.84" cy="130.48" r="0.127" /><circle cx="92.38" cy="130.48" r="0.127" /><circle cx="94.92" cy="130.48" r="0.127" /><circle cx="97.46" cy="130.48" r="0.127" /><circle cx="100.0" cy="130.48" r="0.127" /><circle cx="102.54" cy="130.48" r="0.127" /><circle cx="105.08" cy="130.48" r="0.127" /><circle cx="107.62" cy="130.48" r="0.127" /><circle cx="110.16" cy="130.48" r="0.127" /><circle cx="112.7" cy="130.48" r="0.127" /><circle cx="115.24" cy="130.48" r="0.127" /><circle cx="117.78" cy="130.48" r="0.127" /><circle cx="120.32" cy="130.48" r="0.127" /><circle cx="122.86" cy="130.48" r="0.127" /><circle cx="125.4" cy="130.48" r="0.127" /><circle cx="127.94" cy="130.48" r="0.127" /><circle cx="130.48" cy="130.48" r="0.127" /><circle cx="133.02" cy="130.48" r="0.127" /><circle cx="135.56" cy="130.48" r="0.127" /><circle cx="138.1" cy="130.48" r="0.127" /><circle cx="140.64" cy="130.48" r="0.127" /><circle cx="143.18" cy="130.48" r="0.127" /><circle cx="145.72" cy="130.48" r="0.127" /><circle cx="148.26" cy="130.48" r="0.127" /><circle cx="51.74" cy="127.94" r="0.127" /><circle cx="54.28" cy="127.94" r="0.127" /><circle cx="56.82" cy="127.94" r="0.127" /><circle cx="59.36" cy="127.94" r="0.127" /><circle cx="61.9" cy="127.94" r="0.127" /><circle cx="64.44" cy="127.94" r="0.127" /><circle cx="66.98" cy="127.94" r="0.127" /><circle cx="69.52" cy="127.94" r="0.127" /><circle cx="72.06" cy="127.94" r="0.127" /><circle cx="74.6" cy="127.94" r="0.127" /><circle cx="77.14" cy="127.94" r="0.127" /><circle cx="79.68" cy="127.94" r="0.127" /><circle cx="82.22" cy="127.94" r="0.127" /><circle cx="84.76" cy="127.94" r="0.127" /><circle cx="87.3" cy="127.94" r="0.127" /><circle cx="89.84" cy="127.94" r="0.127" /><circle cx="92.38" cy="127.94" r="0.127" /><circle cx="94.92" cy="127.94" r="0.127" /><circle cx="97.46" cy="127.94" r="0.127" /><circle cx="100.0" cy="127.94" r="0.127" /><circle cx="102.54" cy="127.94" r="0.127" /><circle cx="105.08" cy="127.94" r="0.127" /><circle cx="107.62" cy="127.94" r="0.127" /><circle cx="110.16" cy="127.94" r="0.127" /><circle cx="112.7" cy="127.94" r="0.127" /><circle cx="115.24" cy="127.94" r="0.127" /><circle cx="117.78" cy="127.94" r="0.127" /><circle cx="120.32" cy="127.94" r="0.127" /><circle cx="122.86" cy="127.94" r="0.127" /><circle cx="125.4" cy="127.94" r="0.127" /><circle cx="127.94" cy="127.94" r="0.127" /><circle cx="130.48" cy="127.94" r="0.127" /><circle cx="133.02" cy="127.94" r="0.127" /><circle cx="135.56" cy="127.94" r="0.127" /><circle cx="138.1" cy="127.94" r="0.127" /><circle cx="140.64" cy="127.94" r="0.127" /><circle cx="143.18" cy="127.94" r="0.127" /><circle cx="145.72" cy="127.94" r="0.127" /><circle cx="148.26" cy="127.94" r="0.127" /><circle cx="51.74" cy="125.4" r="0.127" /><circle cx="54.28" cy="125.4" r="0.127" /><circle cx="56.82" cy="125.4" r="0.127" /><circle cx="59.36" cy="125.4" r="0.127" /><circle cx="61.9" cy="125.4" r="0.127" /><circle cx="64.44" cy="125.4" r="0.127" /><circle cx="66.98" cy="125.4" r="0.127" /><circle cx="69.52" cy="125.4" r="0.127" /><circle cx="72.06" cy="125.4" r="0.127" /><circle cx="74.6" cy="125.4" r="0.127" /><circle cx="77.14" cy="125.4" r="0.127" /><circle cx="79.68" cy="125.4" r="0.127" /><circle cx="82.22" cy="125.4" r="0.127" /><circle cx="84.76" cy="125.4" r="0.127" /><circle cx="87.3" cy="125.4" r="0.127" /><circle cx="89.84" cy="125.4" r="0.127" /><circle cx="92.38" cy="125.4" r="0.127" /><circle cx="94.92" cy="125.4" r="0.127" /><circle cx="97.46" cy="125.4" r="0.127" /><circle cx="100.0" cy="125.4" r="0.127" /><circle cx="102.54" cy="125.4" r="0.127" /><circle cx="105.08" cy="125.4" r="0.127" /><circle cx="107.62" cy="125.4" r="0.127" /><circle cx="110.16" cy="125.4" r="0.127" /><circle cx="112.7" cy="125.4" r="0.127" /><circle cx="115.24" cy="125.4" r="0.127" /><circle cx="117.78" cy="125.4" r="0.127" /><circle cx="120.32" cy="125.4" r="0.127" /><circle cx="122.86" cy="125.4" r="0.127" /><circle cx="125.4" cy="125.4" r="0.127" /><circle cx="127.94" cy="125.4" r="0.127" /><circle cx="130.48" cy="125.4" r="0.127" /><circle cx="133.02" cy="125.4" r="0.127" /><circle cx="135.56" cy="125.4" r="0.127" /><circle cx="138.1" cy="125.4" r="0.127" /><circle cx="140.64" cy="125.4" r="0.127" /><circle cx="143.18" cy="125.4" r="0.127" /><circle cx="145.72" cy="125.4" r="0.127" /><circle cx="148.26" cy="125.4" r="0.127" /><circle cx="51.74" cy="122.86" r="0.127" /><circle cx="54.28" cy="122.86" r="0.127" /><circle cx="56.82" cy="122.86" r="0.127" /><circle cx="59.36" cy="122.86" r="0.127" /><circle cx="61.9" cy="122.86" r="0.127" /><circle cx="64.44" cy="122.86" r="0.127" /><circle cx="66.98" cy="122.86" r="0.127" /><circle cx="69.52" cy="122.86" r="0.127" /><circle cx="72.06" cy="122.86" r="0.127" /><circle cx="74.6" cy="122.86" r="0.127" /><circle cx="77.14" cy="122.86" r="0.127" /><circle cx="79.68" cy="122.86" r="0.127" /><circle cx="82.22" cy="122.86" r="0.127" /><circle cx="84.76" cy="122.86" r="0.127" /><circle cx="87.3" cy="122.86" r="0.127" /><circle cx="89.84" cy="122.86" r="0.127" /><circle cx="92.38" cy="122.86" r="0.127" /><circle cx="94.92" cy="122.86" r="0.127" /><circle cx="97.46" cy="122.86" r="0.127" /><circle cx="100.0" cy="122.86" r="0.127" /><circle cx="102.54" cy="122.86" r="0.127" /><circle cx="105.08" cy="122.86" r="0.127" /><circle cx="107.62" cy="122.86" r="0.127" /><circle cx="110.16" cy="122.86" r="0.127" /><circle cx="112.7" cy="122.86" r="0.127" /><circle cx="115.24" cy="122.86" r="0.127" /><circle cx="117.78" cy="122.86" r="0.127" /><circle cx="120.32" cy="122.86" r="0.127" /><circle cx="122.86" cy="122.86" r="0.127" /><circle cx="125.4" cy="122.86" r="0.127" /><circle cx="127.94" cy="122.86" r="0.127" /><circle cx="130.48" cy="122.86" r="0.127" /><circle cx="133.02" cy="122.86" r="0.127" /><circle cx="135.56" cy="122.86" r="0.127" /><circle cx="138.1" cy="122.86" r="0.127" /><circle cx="140.64" cy="122.86" r="0.127" /><circle cx="143.18" cy="122.86" r="0.127" /><circle cx="145.72" cy="122.86" r="0.127" /><circle cx="148.26" cy="122.86" r="0.127" /><circle cx="51.74" cy="120.32" r="0.127" /><circle cx="54.28" cy="120.32" r="0.127" /><circle cx="56.82" cy="120.32" r="0.127" /><circle cx="59.36" cy="120.32" r="0.127" /><circle cx="61.9" cy="120.32" r="0.127" /><circle cx="64.44" cy="120.32" r="0.127" /><circle cx="66.98" cy="120.32" r="0.127" /><circle cx="69.52" cy="120.32" r="0.127" /><circle cx="72.06" cy="120.32" r="0.127" /><circle cx="74.6" cy="120.32" r="0.127" /><circle cx="77.14" cy="120.32" r="0.127" /><circle cx="79.68" cy="120.32" r="0.127" /><circle cx="82.22" cy="120.32" r="0.127" /><circle cx="84.76" cy="120.32" r="0.127" /><circle cx="87.3" cy="120.32" r="0.127" /><circle cx="89.84" cy="120.32" r="0.127" /><circle cx="92.38" cy="120.32" r="0.127" /><circle cx="94.92" cy="120.32" r="0.127" /><circle cx="97.46" cy="120.32" r="0.127" /><circle cx="100.0" cy="120.32" r="0.127" /><circle cx="102.54" cy="120.32" r="0.127" /><circle cx="105.08" cy="120.32" r="0.127" /><circle cx="107.62" cy="120.32" r="0.127" /><circle cx="110.16" cy="120.32" r="0.127" /><circle cx="112.7" cy="120.32" r="0.127" /><circle cx="115.24" cy="120.32" r="0.127" /><circle cx="117.78" cy="120.32" r="0.127" /><circle cx="120.32" cy="120.32" r="0.127" /><circle cx="122.86" cy="120.32" r="0.127" /><circle cx="125.4" cy="120.32" r="0.127" /><circle cx="127.94" cy="120.32" r="0.127" /><circle cx="130.48" cy="120.32" r="0.127" /><circle cx="133.02" cy="120.32" r="0.127" /><circle cx="135.56" cy="120.32" r="0.127" /><circle cx="138.1" cy="120.32" r="0.127" /><circle cx="140.64" cy="120.32" r="0.127" /><circle cx="143.18" cy="120.32" r="0.127" /><circle cx="145.72" cy="120.32" r="0.127" /><circle cx="148.26" cy="120.32" r="0.127" /><circle cx="51.74" cy="117.78" r="0.127" /><circle cx="54.28" cy="117.78" r="0.127" /><circle cx="56.82" cy="117.78" r="0.127" /><circle cx="59.36" cy="117.78" r="0.127" /><circle cx="61.9" cy="117.78" r="0.127" /><circle cx="64.44" cy="117.78" r="0.127" /><circle cx="66.98" cy="117.78" r="0.127" /><circle cx="69.52" cy="117.78" r="0.127" /><circle cx="72.06" cy="117.78" r="0.127" /><circle cx="74.6" cy="117.78" r="0.127" /><circle cx="77.14" cy="117.78" r="0.127" /><circle cx="79.68" cy="117.78" r="0.127" /><circle cx="82.22" cy="117.78" r="0.127" /><circle cx="84.76" cy="117.78" r="0.127" /><circle cx="87.3" cy="117.78" r="0.127" /><circle cx="89.84" cy="117.78" r="0.127" /><circle cx="92.38" cy="117.78" r="0.127" /><circle cx="94.92" cy="117.78" r="0.127" /><circle cx="97.46" cy="117.78" r="0.127" /><circle cx="100.0" cy="117.78" r="0.127" /><circle cx="102.54" cy="117.78" r="0.127" /><circle cx="105.08" cy="117.78" r="0.127" /><circle cx="107.62" cy="117.78" r="0.127" /><circle cx="110.16" cy="117.78" r="0.127" /><circle cx="112.7" cy="117.78" r="0.127" /><circle cx="115.24" cy="117.78" r="0.127" /><circle cx="117.78" cy="117.78" r="0.127" /><circle cx="120.32" cy="117.78" r="0.127" /><circle cx="122.86" cy="117.78" r="0.127" /><circle cx="125.4" cy="117.78" r="0.127" /><circle cx="127.94" cy="117.78" r="0.127" /><circle cx="130.48" cy="117.78" r="0.127" /><circle cx="133.02" cy="117.78" r="0.127" /><circle cx="135.56" cy="117.78" r="0.127" /><circle cx="138.1" cy="117.78" r="0.127" /><circle cx="140.64" cy="117.78" r="0.127" /><circle cx="143.18" cy="117.78" r="0.127" /><circle cx="145.72" cy="117.78" r="0.127" /><circle cx="148.26" cy="117.78" r="0.127" /><circle cx="51.74" cy="115.24" r="0.127" /><circle cx="54.28" cy="115.24" r="0.127" /><circle cx="56.82" cy="115.24" r="0.127" /><circle cx="59.36" cy="115.24" r="0.127" /><circle cx="61.9" cy="115.24" r="0.127" /><circle cx="64.44" cy="115.24" r="0.127" /><circle cx="66.98" cy="115.24" r="0.127" /><circle cx="69.52" cy="115.24" r="0.127" /><circle cx="72.06" cy="115.24" r="0.127" /><circle cx="74.6" cy="115.24" r="0.127" /><circle cx="77.14" cy="115.24" r="0.127" /><circle cx="79.68" cy="115.24" r="0.127" /><circle cx="82.22" cy="115.24" r="0.127" /><circle cx="84.76" cy="115.24" r="0.127" /><circle cx="87.3" cy="115.24" r="0.127" /><circle cx="89.84" cy="115.24" r="0.127" /><circle cx="92.38" cy="115.24" r="0.127" /><circle cx="94.92" cy="115.24" r="0.127" /><circle cx="97.46" cy="115.24" r="0.127" /><circle cx="100.0" cy="115.24" r="0.127" /><circle cx="102.54" cy="115.24" r="0.127" /><circle cx="105.08" cy="115.24" r="0.127" /><circle cx="107.62" cy="115.24" r="0.127" /><circle cx="110.16" cy="115.24" r="0.127" /><circle cx="112.7" cy="115.24" r="0.127" /><circle cx="115.24" cy="115.24" r="0.127" /><circle cx="117.78" cy="115.24" r="0.127" /><circle cx="120.32" cy="115.24" r="0.127" /><circle cx="122.86" cy="115.24" r="0.127" /><circle cx="125.4" cy="115.24" r="0.127" /><circle cx="127.94" cy="115.24" r="0.127" /><circle cx="130.48" cy="115.24" r="0.127" /><circle cx="133.02" cy="115.24" r="0.127" /><circle cx="135.56" cy="115.24" r="0.127" /><circle cx="138.1" cy="115.24" r="0.127" /><circle cx="140.64" cy="115.24" r="0.127" /><circle cx="143.18" cy="115.24" r="0.127" /><circle cx="145.72" cy="115.24" r="0.127" /><circle cx="148.26" cy="115.24" r="0.127" /><circle cx="51.74" cy="112.7" r="0.127" /><circle cx="54.28" cy="112.7" r="0.127" /><circle cx="56.82" cy="112.7" r="0.127" /><circle cx="59.36" cy="112.7" r="0.127" /><circle cx="61.9" cy="112.7" r="0.127" /><circle cx="64.44" cy="112.7" r="0.127" /><circle cx="66.98" cy="112.7" r="0.127" /><circle cx="69.52" cy="112.7" r="0.127" /><circle cx="72.06" cy="112.7" r="0.127" /><circle cx="74.6" cy="112.7" r="0.127" /><circle cx="77.14" cy="112.7" r="0.127" /><circle cx="79.68" cy="112.7" r="0.127" /><circle cx="82.22" cy="112.7" r="0.127" /><circle cx="84.76" cy="112.7" r="0.127" /><circle cx="87.3" cy="112.7" r="0.127" /><circle cx="89.84" cy="112.7" r="0.127" /><circle cx="92.38" cy="112.7" r="0.127" /><circle cx="94.92" cy="112.7" r="0.127" /><circle cx="97.46" cy="112.7" r="0.127" /><circle cx="100.0" cy="112.7" r="0.127" /><circle cx="102.54" cy="112.7" r="0.127" /><circle cx="105.08" cy="112.7" r="0.127" /><circle cx="107.62" cy="112.7" r="0.127" /><circle cx="110.16" cy="112.7" r="0.127" /><circle cx="112.7" cy="112.7" r="0.127" /><circle cx="115.24" cy="112.7" r="0.127" /><circle cx="117.78" cy="112.7" r="0.127" /><circle cx="120.32" cy="112.7" r="0.127" /><circle cx="122.86" cy="112.7" r="0.127" /><circle cx="125.4" cy="112.7" r="0.127" /><circle cx="127.94" cy="112.7" r="0.127" /><circle cx="130.48" cy="112.7" r="0.127" /><circle cx="133.02" cy="112.7" r="0.127" /><circle cx="135.56" cy="112.7" r="0.127" /><circle cx="138.1" cy="112.7" r="0.127" /><circle cx="140.64" cy="112.7" r="0.127" /><circle cx="143.18" cy="112.7" r="0.127" /><circle cx="145.72" cy="112.7" r="0.127" /><circle cx="148.26" cy="112.7" r="0.127" /><circle cx="51.74" cy="110.16" r="0.127" /><circle cx="54.28" cy="110.16" r="0.127" /><circle cx="56.82" cy="110.16" r="0.127" /><circle cx="59.36" cy="110.16" r="0.127" /><circle cx="61.9" cy="110.16" r="0.127" /><circle cx="64.44" cy="110.16" r="0.127" /><circle cx="66.98" cy="110.16" r="0.127" /><circle cx="69.52" cy="110.16" r="0.127" /><circle cx="72.06" cy="110.16" r="0.127" /><circle cx="74.6" cy="110.16" r="0.127" /><circle cx="77.14" cy="110.16" r="0.127" /><circle cx="79.68" cy="110.16" r="0.127" /><circle cx="82.22" cy="110.16" r="0.127" /><circle cx="84.76" cy="110.16" r="0.127" /><circle cx="87.3" cy="110.16" r="0.127" /><circle cx="89.84" cy="110.16" r="0.127" /><circle cx="92.38" cy="110.16" r="0.127" /><circle cx="94.92" cy="110.16" r="0.127" /><circle cx="97.46" cy="110.16" r="0.127" /><circle cx="100.0" cy="110.16" r="0.127" /><circle cx="102.54" cy="110.16" r="0.127" /><circle cx="105.08" cy="110.16" r="0.127" /><circle cx="107.62" cy="110.16" r="0.127" /><circle cx="110.16" cy="110.16" r="0.127" /><circle cx="112.7" cy="110.16" r="0.127" /><circle cx="115.24" cy="110.16" r="0.127" /><circle cx="117.78" cy="110.16" r="0.127" /><circle cx="120.32" cy="110.16" r="0.127" /><circle cx="122.86" cy="110.16" r="0.127" /><circle cx="125.4" cy="110.16" r="0.127" /><circle cx="127.94" cy="110.16" r="0.127" /><circle cx="130.48" cy="110.16" r="0.127" /><circle cx="133.02" cy="110.16" r="0.127" /><circle cx="135.56" cy="110.16" r="0.127" /><circle cx="138.1" cy="110.16" r="0.127" /><circle cx="140.64" cy="110.16" r="0.127" /><circle cx="143.18" cy="110.16" r="0.127" /><circle cx="145.72" cy="110.16" r="0.127" /><circle cx="148.26" cy="110.16" r="0.127" /><circle cx="51.74" cy="107.62" r="0.127" /><circle cx="54.28" cy="107.62" r="0.127" /><circle cx="56.82" cy="107.62" r="0.127" /><circle cx="59.36" cy="107.62" r="0.127" /><circle cx="61.9" cy="107.62" r="0.127" /><circle cx="64.44" cy="107.62" r="0.127" /><circle cx="66.98" cy="107.62" r="0.127" /><circle cx="69.52" cy="107.62" r="0.127" /><circle cx="72.06" cy="107.62" r="0.127" /><circle cx="74.6" cy="107.62" r="0.127" /><circle cx="77.14" cy="107.62" r="0.127" /><circle cx="79.68" cy="107.62" r="0.127" /><circle cx="82.22" cy="107.62" r="0.127" /><circle cx="84.76" cy="107.62" r="0.127" /><circle cx="87.3" cy="107.62" r="0.127" /><circle cx="89.84" cy="107.62" r="0.127" /><circle cx="92.38" cy="107.62" r="0.127" /><circle cx="94.92" cy="107.62" r="0.127" /><circle cx="97.46" cy="107.62" r="0.127" /><circle cx="100.0" cy="107.62" r="0.127" /><circle cx="102.54" cy="107.62" r="0.127" /><circle cx="105.08" cy="107.62" r="0.127" /><circle cx="107.62" cy="107.62" r="0.127" /><circle cx="110.16" cy="107.62" r="0.127" /><circle cx="112.7" cy="107.62" r="0.127" /><circle cx="115.24" cy="107.62" r="0.127" /><circle cx="117.78" cy="107.62" r="0.127" /><circle cx="120.32" cy="107.62" r="0.127" /><circle cx="122.86" cy="107.62" r="0.127" /><circle cx="125.4" cy="107.62" r="0.127" /><circle cx="127.94" cy="107.62" r="0.127" /><circle cx="130.48" cy="107.62" r="0.127" /><circle cx="133.02" cy="107.62" r="0.127" /><circle cx="135.56" cy="107.62" r="0.127" /><circle cx="138.1" cy="107.62" r="0.127" /><circle cx="140.64" cy="107.62" r="0.127" /><circle cx="143.18" cy="107.62" r="0.127" /><circle cx="145.72" cy="107.62" r="0.127" /><circle cx="148.26" cy="107.62" r="0.127" /><circle cx="51.74" cy="105.08" r="0.127" /><circle cx="54.28" cy="105.08" r="0.127" /><circle cx="56.82" cy="105.08" r="0.127" /><circle cx="59.36" cy="105.08" r="0.127" /><circle cx="61.9" cy="105.08" r="0.127" /><circle cx="64.44" cy="105.08" r="0.127" /><circle cx="66.98" cy="105.08" r="0.127" /><circle cx="69.52" cy="105.08" r="0.127" /><circle cx="72.06" cy="105.08" r="0.127" /><circle cx="74.6" cy="105.08" r="0.127" /><circle cx="77.14" cy="105.08" r="0.127" /><circle cx="79.68" cy="105.08" r="0.127" /><circle cx="82.22" cy="105.08" r="0.127" /><circle cx="84.76" cy="105.08" r="0.127" /><circle cx="87.3" cy="105.08" r="0.127" /><circle cx="89.84" cy="105.08" r="0.127" /><circle cx="92.38" cy="105.08" r="0.127" /><circle cx="94.92" cy="105.08" r="0.127" /><circle cx="97.46" cy="105.08" r="0.127" /><circle cx="100.0" cy="105.08" r="0.127" /><circle cx="102.54" cy="105.08" r="0.127" /><circle cx="105.08" cy="105.08" r="0.127" /><circle cx="107.62" cy="105.08" r="0.127" /><circle cx="110.16" cy="105.08" r="0.127" /><circle cx="112.7" cy="105.08" r="0.127" /><circle cx="115.24" cy="105.08" r="0.127" /><circle cx="117.78" cy="105.08" r="0.127" /><circle cx="120.32" cy="105.08" r="0.127" /><circle cx="122.86" cy="105.08" r="0.127" /><circle cx="125.4" cy="105.08" r="0.127" /><circle cx="127.94" cy="105.08" r="0.127" /><circle cx="130.48" cy="105.08" r="0.127" /><circle cx="133.02" cy="105.08" r="0.127" /><circle cx="135.56" cy="105.08" r="0.127" /><circle cx="138.1" cy="105.08" r="0.127" /><circle cx="140.64" cy="105.08" r="0.127" /><circle cx="143.18" cy="105.08" r="0.127" /><circle cx="145.72" cy="105.08" r="0.127" /><circle cx="148.26" cy="105.08" r="0.127" /><circle cx="51.74" cy="102.54" r="0.127" /><circle cx="54.28" cy="102.54" r="0.127" /><circle cx="56.82" cy="102.54" r="0.127" /><circle cx="59.36" cy="102.54" r="0.127" /><circle cx="61.9" cy="102.54" r="0.127" /><circle cx="64.44" cy="102.54" r="0.127" /><circle cx="66.98" cy="102.54" r="0.127" /><circle cx="69.52" cy="102.54" r="0.127" /><circle cx="72.06" cy="102.54" r="0.127" /><circle cx="74.6" cy="102.54" r="0.127" /><circle cx="77.14" cy="102.54" r="0.127" /><circle cx="79.68" cy="102.54" r="0.127" /><circle cx="82.22" cy="102.54" r="0.127" /><circle cx="84.76" cy="102.54" r="0.127" /><circle cx="87.3" cy="102.54" r="0.127" /><circle cx="89.84" cy="102.54" r="0.127" /><circle cx="92.38" cy="102.54" r="0.127" /><circle cx="94.92" cy="102.54" r="0.127" /><circle cx="97.46" cy="102.54" r="0.127" /><circle cx="100.0" cy="102.54" r="0.127" /><circle cx="102.54" cy="102.54" r="0.127" /><circle cx="105.08" cy="102.54" r="0.127" /><circle cx="107.62" cy="102.54" r="0.127" /><circle cx="110.16" cy="102.54" r="0.127" /><circle cx="112.7" cy="102.54" r="0.127" /><circle cx="115.24" cy="102.54" r="0.127" /><circle cx="117.78" cy="102.54" r="0.127" /><circle cx="120.32" cy="102.54" r="0.127" /><circle cx="122.86" cy="102.54" r="0.127" /><circle cx="125.4" cy="102.54" r="0.127" /><circle cx="127.94" cy="102.54" r="0.127" /><circle cx="130.48" cy="102.54" r="0.127" /><circle cx="133.02" cy="102.54" r="0.127" /><circle cx="135.56" cy="102.54" r="0.127" /><circle cx="138.1" cy="102.54" r="0.127" /><circle cx="140.64" cy="102.54" r="0.127" /><circle cx="143.18" cy="102.54" r="0.127" /><circle cx="145.72" cy="102.54" r="0.127" /><circle cx="148.26" cy="102.54" r="0.127" /><circle cx="51.74" cy="100.0" r="0.127" /><circle cx="54.28" cy="100.0" r="0.127" /><circle cx="56.82" cy="100.0" r="0.127" /><circle cx="59.36" cy="100.0" r="0.127" /><circle cx="61.9" cy="100.0" r="0.127" /><circle cx="64.44" cy="100.0" r="0.127" /><circle cx="66.98" cy="100.0" r="0.127" /><circle cx="69.52" cy="100.0" r="0.127" /><circle cx="72.06" cy="100.0" r="0.127" /><circle cx="74.6" cy="100.0" r="0.127" /><circle cx="77.14" cy="100.0" r="0.127" /><circle cx="79.68" cy="100.0" r="0.127" /><circle cx="82.22" cy="100.0" r="0.127" /><circle cx="84.76" cy="100.0" r="0.127" /><circle cx="87.3" cy="100.0" r="0.127" /><circle cx="89.84" cy="100.0" r="0.127" /><circle cx="92.38" cy="100.0" r="0.127" /><circle cx="94.92" cy="100.0" r="0.127" /><circle cx="97.46" cy="100.0" r="0.127" /><circle cx="100.0" cy="100.0" r="0.127" /><circle cx="102.54" cy="100.0" r="0.127" /><circle cx="105.08" cy="100.0" r="0.127" /><circle cx="107.62" cy="100.0" r="0.127" /><circle cx="110.16" cy="100.0" r="0.127" /><circle cx="112.7" cy="100.0" r="0.127" /><circle cx="115.24" cy="100.0" r="0.127" /><circle cx="117.78" cy="100.0" r="0.127" /><circle cx="120.32" cy="100.0" r="0.127" /><circle cx="122.86" cy="100.0" r="0.127" /><circle cx="125.4" cy="100.0" r="0.127" /><circle cx="127.94" cy="100.0" r="0.127" /><circle cx="130.48" cy="100.0" r="0.127" /><circle cx="133.02" cy="100.0" r="0.127" /><circle cx="135.56" cy="100.0" r="0.127" /><circle cx="138.1" cy="100.0" r="0.127" /><circle cx="140.64" cy="100.0" r="0.127" /><circle cx="143.18" cy="100.0" r="0.127" /><circle cx="145.72" cy="100.0" r="0.127" /><circle cx="148.26" cy="100.0" r="0.127" /><circle cx="51.74" cy="97.46" r="0.127" /><circle cx="54.28" cy="97.46" r="0.127" /><circle cx="56.82" cy="97.46" r="0.127" /><circle cx="59.36" cy="97.46" r="0.127" /><circle cx="61.9" cy="97.46" r="0.127" /><circle cx="64.44" cy="97.46" r="0.127" /><circle cx="66.98" cy="97.46" r="0.127" /><circle cx="69.52" cy="97.46" r="0.127" /><circle cx="72.06" cy="97.46" r="0.127" /><circle cx="74.6" cy="97.46" r="0.127" /><circle cx="77.14" cy="97.46" r="0.127" /><circle cx="79.68" cy="97.46" r="0.127" /><circle cx="82.22" cy="97.46" r="0.127" /><circle cx="84.76" cy="97.46" r="0.127" /><circle cx="87.3" cy="97.46" r="0.127" /><circle cx="89.84" cy="97.46" r="0.127" /><circle cx="92.38" cy="97.46" r="0.127" /><circle cx="94.92" cy="97.46" r="0.127" /><circle cx="97.46" cy="97.46" r="0.127" /><circle cx="100.0" cy="97.46" r="0.127" /><circle cx="102.54" cy="97.46" r="0.127" /><circle cx="105.08" cy="97.46" r="0.127" /><circle cx="107.62" cy="97.46" r="0.127" /><circle cx="110.16" cy="97.46" r="0.127" /><circle cx="112.7" cy="97.46" r="0.127" /><circle cx="115.24" cy="97.46" r="0.127" /><circle cx="117.78" cy="97.46" r="0.127" /><circle cx="120.32" cy="97.46" r="0.127" /><circle cx="122.86" cy="97.46" r="0.127" /><circle cx="125.4" cy="97.46" r="0.127" /><circle cx="127.94" cy="97.46" r="0.127" /><circle cx="130.48" cy="97.46" r="0.127" /><circle cx="133.02" cy="97.46" r="0.127" /><circle cx="135.56" cy="97.46" r="0.127" /><circle cx="138.1" cy="97.46" r="0.127" /><circle cx="140.64" cy="97.46" r="0.127" /><circle cx="143.18" cy="97.46" r="0.127" /><circle cx="145.72" cy="97.46" r="0.127" /><circle cx="148.26" cy="97.46" r="0.127" /><circle cx="51.74" cy="94.92" r="0.127" /><circle cx="54.28" cy="94.92" r="0.127" /><circle cx="56.82" cy="94.92" r="0.127" /><circle cx="59.36" cy="94.92" r="0.127" /><circle cx="61.9" cy="94.92" r="0.127" /><circle cx="64.44" cy="94.92" r="0.127" /><circle cx="66.98" cy="94.92" r="0.127" /><circle cx="69.52" cy="94.92" r="0.127" /><circle cx="72.06" cy="94.92" r="0.127" /><circle cx="74.6" cy="94.92" r="0.127" /><circle cx="77.14" cy="94.92" r="0.127" /><circle cx="79.68" cy="94.92" r="0.127" /><circle cx="82.22" cy="94.92" r="0.127" /><circle cx="84.76" cy="94.92" r="0.127" /><circle cx="87.3" cy="94.92" r="0.127" /><circle cx="89.84" cy="94.92" r="0.127" /><circle cx="92.38" cy="94.92" r="0.127" /><circle cx="94.92" cy="94.92" r="0.127" /><circle cx="97.46" cy="94.92" r="0.127" /><circle cx="100.0" cy="94.92" r="0.127" /><circle cx="102.54" cy="94.92" r="0.127" /><circle cx="105.08" cy="94.92" r="0.127" /><circle cx="107.62" cy="94.92" r="0.127" /><circle cx="110.16" cy="94.92" r="0.127" /><circle cx="112.7" cy="94.92" r="0.127" /><circle cx="115.24" cy="94.92" r="0.127" /><circle cx="117.78" cy="94.92" r="0.127" /><circle cx="120.32" cy="94.92" r="0.127" /><circle cx="122.86" cy="94.92" r="0.127" /><circle cx="125.4" cy="94.92" r="0.127" /><circle cx="127.94" cy="94.92" r="0.127" /><circle cx="130.48" cy="94.92" r="0.127" /><circle cx="133.02" cy="94.92" r="0.127" /><circle cx="135.56" cy="94.92" r="0.127" /><circle cx="138.1" cy="94.92" r="0.127" /><circle cx="140.64" cy="94.92" r="0.127" /><circle cx="143.18" cy="94.92" r="0.127" /><circle cx="145.72" cy="94.92" r="0.127" /><circle cx="148.26" cy="94.92" r="0.127" /><circle cx="51.74" cy="92.38" r="0.127" /><circle cx="54.28" cy="92.38" r="0.127" /><circle cx="56.82" cy="92.38" r="0.127" /><circle cx="59.36" cy="92.38" r="0.127" /><circle cx="61.9" cy="92.38" r="0.127" /><circle cx="64.44" cy="92.38" r="0.127" /><circle cx="66.98" cy="92.38" r="0.127" /><circle cx="69.52" cy="92.38" r="0.127" /><circle cx="72.06" cy="92.38" r="0.127" /><circle cx="74.6" cy="92.38" r="0.127" /><circle cx="77.14" cy="92.38" r="0.127" /><circle cx="79.68" cy="92.38" r="0.127" /><circle cx="82.22" cy="92.38" r="0.127" /><circle cx="84.76" cy="92.38" r="0.127" /><circle cx="87.3" cy="92.38" r="0.127" /><circle cx="89.84" cy="92.38" r="0.127" /><circle cx="92.38" cy="92.38" r="0.127" /><circle cx="94.92" cy="92.38" r="0.127" /><circle cx="97.46" cy="92.38" r="0.127" /><circle cx="100.0" cy="92.38" r="0.127" /><circle cx="102.54" cy="92.38" r="0.127" /><circle cx="105.08" cy="92.38" r="0.127" /><circle cx="107.62" cy="92.38" r="0.127" /><circle cx="110.16" cy="92.38" r="0.127" /><circle cx="112.7" cy="92.38" r="0.127" /><circle cx="115.24" cy="92.38" r="0.127" /><circle cx="117.78" cy="92.38" r="0.127" /><circle cx="120.32" cy="92.38" r="0.127" /><circle cx="122.86" cy="92.38" r="0.127" /><circle cx="125.4" cy="92.38" r="0.127" /><circle cx="127.94" cy="92.38" r="0.127" /><circle cx="130.48" cy="92.38" r="0.127" /><circle cx="133.02" cy="92.38" r="0.127" /><circle cx="135.56" cy="92.38" r="0.127" /><circle cx="138.1" cy="92.38" r="0.127" /><circle cx="140.64" cy="92.38" r="0.127" /><circle cx="143.18" cy="92.38" r="0.127" /><circle cx="145.72" cy="92.38" r="0.127" /><circle cx="148.26" cy="92.38" r="0.127" /><circle cx="51.74" cy="89.84" r="0.127" /><circle cx="54.28" cy="89.84" r="0.127" /><circle cx="56.82" cy="89.84" r="0.127" /><circle cx="59.36" cy="89.84" r="0.127" /><circle cx="61.9" cy="89.84" r="0.127" /><circle cx="64.44" cy="89.84" r="0.127" /><circle cx="66.98" cy="89.84" r="0.127" /><circle cx="69.52" cy="89.84" r="0.127" /><circle cx="72.06" cy="89.84" r="0.127" /><circle cx="74.6" cy="89.84" r="0.127" /><circle cx="77.14" cy="89.84" r="0.127" /><circle cx="79.68" cy="89.84" r="0.127" /><circle cx="82.22" cy="89.84" r="0.127" /><circle cx="84.76" cy="89.84" r="0.127" /><circle cx="87.3" cy="89.84" r="0.127" /><circle cx="89.84" cy="89.84" r="0.127" /><circle cx="92.38" cy="89.84" r="0.127" /><circle cx="94.92" cy="89.84" r="0.127" /><circle cx="97.46" cy="89.84" r="0.127" /><circle cx="100.0" cy="89.84" r="0.127" /><circle cx="102.54" cy="89.84" r="0.127" /><circle cx="105.08" cy="89.84" r="0.127" /><circle cx="107.62" cy="89.84" r="0.127" /><circle cx="110.16" cy="89.84" r="0.127" /><circle cx="112.7" cy="89.84" r="0.127" /><circle cx="115.24" cy="89.84" r="0.127" /><circle cx="117.78" cy="89.84" r="0.127" /><circle cx="120.32" cy="89.84" r="0.127" /><circle cx="122.86" cy="89.84" r="0.127" /><circle cx="125.4" cy="89.84" r="0.127" /><circle cx="127.94" cy="89.84" r="0.127" /><circle cx="130.48" cy="89.84" r="0.127" /><circle cx="133.02" cy="89.84" r="0.127" /><circle cx="135.56" cy="89.84" r="0.127" /><circle cx="138.1" cy="89.84" r="0.127" /><circle cx="140.64" cy="89.84" r="0.127" /><circle cx="143.18" cy="89.84" r="0.127" /><circle cx="145.72" cy="89.84" r="0.127" /><circle cx="148.26" cy="89.84" r="0.127" /><circle cx="51.74" cy="87.3" r="0.127" /><circle cx="54.28" cy="87.3" r="0.127" /><circle cx="56.82" cy="87.3" r="0.127" /><circle cx="59.36" cy="87.3" r="0.127" /><circle cx="61.9" cy="87.3" r="0.127" /><circle cx="64.44" cy="87.3" r="0.127" /><circle cx="66.98" cy="87.3" r="0.127" /><circle cx="69.52" cy="87.3" r="0.127" /><circle cx="72.06" cy="87.3" r="0.127" /><circle cx="74.6" cy="87.3" r="0.127" /><circle cx="77.14" cy="87.3" r="0.127" /><circle cx="79.68" cy="87.3" r="0.127" /><circle cx="82.22" cy="87.3" r="0.127" /><circle cx="84.76" cy="87.3" r="0.127" /><circle cx="87.3" cy="87.3" r="0.127" /><circle cx="89.84" cy="87.3" r="0.127" /><circle cx="92.38" cy="87.3" r="0.127" /><circle cx="94.92" cy="87.3" r="0.127" /><circle cx="97.46" cy="87.3" r="0.127" /><circle cx="100.0" cy="87.3" r="0.127" /><circle cx="102.54" cy="87.3" r="0.127" /><circle cx="105.08" cy="87.3" r="0.127" /><circle cx="107.62" cy="87.3" r="0.127" /><circle cx="110.16" cy="87.3" r="0.127" /><circle cx="112.7" cy="87.3" r="0.127" /><circle cx="115.24" cy="87.3" r="0.127" /><circle cx="117.78" cy="87.3" r="0.127" /><circle cx="120.32" cy="87.3" r="0.127" /><circle cx="122.86" cy="87.3" r="0.127" /><circle cx="125.4" cy="87.3" r="0.127" /><circle cx="127.94" cy="87.3" r="0.127" /><circle cx="130.48" cy="87.3" r="0.127" /><circle cx="133.02" cy="87.3" r="0.127" /><circle cx="135.56" cy="87.3" r="0.127" /><circle cx="138.1" cy="87.3" r="0.127" /><circle cx="140.64" cy="87.3" r="0.127" /><circle cx="143.18" cy="87.3" r="0.127" /><circle cx="145.72" cy="87.3" r="0.127" /><circle cx="148.26" cy="87.3" r="0.127" /><circle cx="51.74" cy="84.76" r="0.127" /><circle cx="54.28" cy="84.76" r="0.127" /><circle cx="56.82" cy="84.76" r="0.127" /><circle cx="59.36" cy="84.76" r="0.127" /><circle cx="61.9" cy="84.76" r="0.127" /><circle cx="64.44" cy="84.76" r="0.127" /><circle cx="66.98" cy="84.76" r="0.127" /><circle cx="69.52" cy="84.76" r="0.127" /><circle cx="72.06" cy="84.76" r="0.127" /><circle cx="74.6" cy="84.76" r="0.127" /><circle cx="77.14" cy="84.76" r="0.127" /><circle cx="79.68" cy="84.76" r="0.127" /><circle cx="82.22" cy="84.76" r="0.127" /><circle cx="84.76" cy="84.76" r="0.127" /><circle cx="87.3" cy="84.76" r="0.127" /><circle cx="89.84" cy="84.76" r="0.127" /><circle cx="92.38" cy="84.76" r="0.127" /><circle cx="94.92" cy="84.76" r="0.127" /><circle cx="97.46" cy="84.76" r="0.127" /><circle cx="100.0" cy="84.76" r="0.127" /><circle cx="102.54" cy="84.76" r="0.127" /><circle cx="105.08" cy="84.76" r="0.127" /><circle cx="107.62" cy="84.76" r="0.127" /><circle cx="110.16" cy="84.76" r="0.127" /><circle cx="112.7" cy="84.76" r="0.127" /><circle cx="115.24" cy="84.76" r="0.127" /><circle cx="117.78" cy="84.76" r="0.127" /><circle cx="120.32" cy="84.76" r="0.127" /><circle cx="122.86" cy="84.76" r="0.127" /><circle cx="125.4" cy="84.76" r="0.127" /><circle cx="127.94" cy="84.76" r="0.127" /><circle cx="130.48" cy="84.76" r="0.127" /><circle cx="133.02" cy="84.76" r="0.127" /><circle cx="135.56" cy="84.76" r="0.127" /><circle cx="138.1" cy="84.76" r="0.127" /><circle cx="140.64" cy="84.76" r="0.127" /><circle cx="143.18" cy="84.76" r="0.127" /><circle cx="145.72" cy="84.76" r="0.127" /><circle cx="148.26" cy="84.76" r="0.127" /><circle cx="51.74" cy="82.22" r="0.127" /><circle cx="54.28" cy="82.22" r="0.127" /><circle cx="56.82" cy="82.22" r="0.127" /><circle cx="59.36" cy="82.22" r="0.127" /><circle cx="61.9" cy="82.22" r="0.127" /><circle cx="64.44" cy="82.22" r="0.127" /><circle cx="66.98" cy="82.22" r="0.127" /><circle cx="69.52" cy="82.22" r="0.127" /><circle cx="72.06" cy="82.22" r="0.127" /><circle cx="74.6" cy="82.22" r="0.127" /><circle cx="77.14" cy="82.22" r="0.127" /><circle cx="79.68" cy="82.22" r="0.127" /><circle cx="82.22" cy="82.22" r="0.127" /><circle cx="84.76" cy="82.22" r="0.127" /><circle cx="87.3" cy="82.22" r="0.127" /><circle cx="89.84" cy="82.22" r="0.127" /><circle cx="92.38" cy="82.22" r="0.127" /><circle cx="94.92" cy="82.22" r="0.127" /><circle cx="97.46" cy="82.22" r="0.127" /><circle cx="100.0" cy="82.22" r="0.127" /><circle cx="102.54" cy="82.22" r="0.127" /><circle cx="105.08" cy="82.22" r="0.127" /><circle cx="107.62" cy="82.22" r="0.127" /><circle cx="110.16" cy="82.22" r="0.127" /><circle cx="112.7" cy="82.22" r="0.127" /><circle cx="115.24" cy="82.22" r="0.127" /><circle cx="117.78" cy="82.22" r="0.127" /><circle cx="120.32" cy="82.22" r="0.127" /><circle cx="122.86" cy="82.22" r="0.127" /><circle cx="125.4" cy="82.22" r="0.127" /><circle cx="127.94" cy="82.22" r="0.127" /><circle cx="130.48" cy="82.22" r="0.127" /><circle cx="133.02" cy="82.22" r="0.127" /><circle cx="135.56" cy="82.22" r="0.127" /><circle cx="138.1" cy="82.22" r="0.127" /><circle cx="140.64" cy="82.22" r="0.127" /><circle cx="143.18" cy="82.22" r="0.127" /><circle cx="145.72" cy="82.22" r="0.127" /><circle cx="148.26" cy="82.22" r="0.127" /><circle cx="51.74" cy="79.68" r="0.127" /><circle cx="54.28" cy="79.68" r="0.127" /><circle cx="56.82" cy="79.68" r="0.127" /><circle cx="59.36" cy="79.68" r="0.127" /><circle cx="61.9" cy="79.68" r="0.127" /><circle cx="64.44" cy="79.68" r="0.127" /><circle cx="66.98" cy="79.68" r="0.127" /><circle cx="69.52" cy="79.68" r="0.127" /><circle cx="72.06" cy="79.68" r="0.127" /><circle cx="74.6" cy="79.68" r="0.127" /><circle cx="77.14" cy="79.68" r="0.127" /><circle cx="79.68" cy="79.68" r="0.127" /><circle cx="82.22" cy="79.68" r="0.127" /><circle cx="84.76" cy="79.68" r="0.127" /><circle cx="87.3" cy="79.68" r="0.127" /><circle cx="89.84" cy="79.68" r="0.127" /><circle cx="92.38" cy="79.68" r="0.127" /><circle cx="94.92" cy="79.68" r="0.127" /><circle cx="97.46" cy="79.68" r="0.127" /><circle cx="100.0" cy="79.68" r="0.127" /><circle cx="102.54" cy="79.68" r="0.127" /><circle cx="105.08" cy="79.68" r="0.127" /><circle cx="107.62" cy="79.68" r="0.127" /><circle cx="110.16" cy="79.68" r="0.127" /><circle cx="112.7" cy="79.68" r="0.127" /><circle cx="115.24" cy="79.68" r="0.127" /><circle cx="117.78" cy="79.68" r="0.127" /><circle cx="120.32" cy="79.68" r="0.127" /><circle cx="122.86" cy="79.68" r="0.127" /><circle cx="125.4" cy="79.68" r="0.127" /><circle cx="127.94" cy="79.68" r="0.127" /><circle cx="130.48" cy="79.68" r="0.127" /><circle cx="133.02" cy="79.68" r="0.127" /><circle cx="135.56" cy="79.68" r="0.127" /><circle cx="138.1" cy="79.68" r="0.127" /><circle cx="140.64" cy="79.68" r="0.127" /><circle cx="143.18" cy="79.68" r="0.127" /><circle cx="145.72" cy="79.68" r="0.127" /><circle cx="148.26" cy="79.68" r="0.127" /><circle cx="51.74" cy="77.14" r="0.127" /><circle cx="54.28" cy="77.14" r="0.127" /><circle cx="56.82" cy="77.14" r="0.127" /><circle cx="59.36" cy="77.14" r="0.127" /><circle cx="61.9" cy="77.14" r="0.127" /><circle cx="64.44" cy="77.14" r="0.127" /><circle cx="66.98" cy="77.14" r="0.127" /><circle cx="69.52" cy="77.14" r="0.127" /><circle cx="72.06" cy="77.14" r="0.127" /><circle cx="74.6" cy="77.14" r="0.127" /><circle cx="77.14" cy="77.14" r="0.127" /><circle cx="79.68" cy="77.14" r="0.127" /><circle cx="82.22" cy="77.14" r="0.127" /><circle cx="84.76" cy="77.14" r="0.127" /><circle cx="87.3" cy="77.14" r="0.127" /><circle cx="89.84" cy="77.14" r="0.127" /><circle cx="92.38" cy="77.14" r="0.127" /><circle cx="94.92" cy="77.14" r="0.127" /><circle cx="97.46" cy="77.14" r="0.127" /><circle cx="100.0" cy="77.14" r="0.127" /><circle cx="102.54" cy="77.14" r="0.127" /><circle cx="105.08" cy="77.14" r="0.127" /><circle cx="107.62" cy="77.14" r="0.127" /><circle cx="110.16" cy="77.14" r="0.127" /><circle cx="112.7" cy="77.14" r="0.127" /><circle cx="115.24" cy="77.14" r="0.127" /><circle cx="117.78" cy="77.14" r="0.127" /><circle cx="120.32" cy="77.14" r="0.127" /><circle cx="122.86" cy="77.14" r="0.127" /><circle cx="125.4" cy="77.14" r="0.127" /><circle cx="127.94" cy="77.14" r="0.127" /><circle cx="130.48" cy="77.14" r="0.127" /><circle cx="133.02" cy="77.14" r="0.127" /><circle cx="135.56" cy="77.14" r="0.127" /><circle cx="138.1" cy="77.14" r="0.127" /><circle cx="140.64" cy="77.14" r="0.127" /><circle cx="143.18" cy="77.14" r="0.127" /><circle cx="145.72" cy="77.14" r="0.127" /><circle cx="148.26" cy="77.14" r="0.127" /><circle cx="51.74" cy="74.6" r="0.127" /><circle cx="54.28" cy="74.6" r="0.127" /><circle cx="56.82" cy="74.6" r="0.127" /><circle cx="59.36" cy="74.6" r="0.127" /><circle cx="61.9" cy="74.6" r="0.127" /><circle cx="64.44" cy="74.6" r="0.127" /><circle cx="66.98" cy="74.6" r="0.127" /><circle cx="69.52" cy="74.6" r="0.127" /><circle cx="72.06" cy="74.6" r="0.127" /><circle cx="74.6" cy="74.6" r="0.127" /><circle cx="77.14" cy="74.6" r="0.127" /><circle cx="79.68" cy="74.6" r="0.127" /><circle cx="82.22" cy="74.6" r="0.127" /><circle cx="84.76" cy="74.6" r="0.127" /><circle cx="87.3" cy="74.6" r="0.127" /><circle cx="89.84" cy="74.6" r="0.127" /><circle cx="92.38" cy="74.6" r="0.127" /><circle cx="94.92" cy="74.6" r="0.127" /><circle cx="97.46" cy="74.6" r="0.127" /><circle cx="100.0" cy="74.6" r="0.127" /><circle cx="102.54" cy="74.6" r="0.127" /><circle cx="105.08" cy="74.6" r="0.127" /><circle cx="107.62" cy="74.6" r="0.127" /><circle cx="110.16" cy="74.6" r="0.127" /><circle cx="112.7" cy="74.6" r="0.127" /><circle cx="115.24" cy="74.6" r="0.127" /><circle cx="117.78" cy="74.6" r="0.127" /><circle cx="120.32" cy="74.6" r="0.127" /><circle cx="122.86" cy="74.6" r="0.127" /><circle cx="125.4" cy="74.6" r="0.127" /><circle cx="127.94" cy="74.6" r="0.127" /><circle cx="130.48" cy="74.6" r="0.127" /><circle cx="133.02" cy="74.6" r="0.127" /><circle cx="135.56" cy="74.6" r="0.127" /><circle cx="138.1" cy="74.6" r="0.127" /><circle cx="140.64" cy="74.6" r="0.127" /><circle cx="143.18" cy="74.6" r="0.127" /><circle cx="145.72" cy="74.6" r="0.127" /><circle cx="148.26" cy="74.6" r="0.127" /><circle cx="51.74" cy="72.06" r="0.127" /><circle cx="54.28" cy="72.06" r="0.127" /><circle cx="56.82" cy="72.06" r="0.127" /><circle cx="59.36" cy="72.06" r="0.127" /><circle cx="61.9" cy="72.06" r="0.127" /><circle cx="64.44" cy="72.06" r="0.127" /><circle cx="66.98" cy="72.06" r="0.127" /><circle cx="69.52" cy="72.06" r="0.127" /><circle cx="72.06" cy="72.06" r="0.127" /><circle cx="74.6" cy="72.06" r="0.127" /><circle cx="77.14" cy="72.06" r="0.127" /><circle cx="79.68" cy="72.06" r="0.127" /><circle cx="82.22" cy="72.06" r="0.127" /><circle cx="84.76" cy="72.06" r="0.127" /><circle cx="87.3" cy="72.06" r="0.127" /><circle cx="89.84" cy="72.06" r="0.127" /><circle cx="92.38" cy="72.06" r="0.127" /><circle cx="94.92" cy="72.06" r="0.127" /><circle cx="97.46" cy="72.06" r="0.127" /><circle cx="100.0" cy="72.06" r="0.127" /><circle cx="102.54" cy="72.06" r="0.127" /><circle cx="105.08" cy="72.06" r="0.127" /><circle cx="107.62" cy="72.06" r="0.127" /><circle cx="110.16" cy="72.06" r="0.127" /><circle cx="112.7" cy="72.06" r="0.127" /><circle cx="115.24" cy="72.06" r="0.127" /><circle cx="117.78" cy="72.06" r="0.127" /><circle cx="120.32" cy="72.06" r="0.127" /><circle cx="122.86" cy="72.06" r="0.127" /><circle cx="125.4" cy="72.06" r="0.127" /><circle cx="127.94" cy="72.06" r="0.127" /><circle cx="130.48" cy="72.06" r="0.127" /><circle cx="133.02" cy="72.06" r="0.127" /><circle cx="135.56" cy="72.06" r="0.127" /><circle cx="138.1" cy="72.06" r="0.127" /><circle cx="140.64" cy="72.06" r="0.127" /><circle cx="143.18" cy="72.06" r="0.127" /><circle cx="145.72" cy="72.06" r="0.127" /><circle cx="148.26" cy="72.06" r="0.127" /><circle cx="51.74" cy="69.52" r="0.127" /><circle cx="54.28" cy="69.52" r="0.127" /><circle cx="56.82" cy="69.52" r="0.127" /><circle cx="59.36" cy="69.52" r="0.127" /><circle cx="61.9" cy="69.52" r="0.127" /><circle cx="64.44" cy="69.52" r="0.127" /><circle cx="66.98" cy="69.52" r="0.127" /><circle cx="69.52" cy="69.52" r="0.127" /><circle cx="72.06" cy="69.52" r="0.127" /><circle cx="74.6" cy="69.52" r="0.127" /><circle cx="77.14" cy="69.52" r="0.127" /><circle cx="79.68" cy="69.52" r="0.127" /><circle cx="82.22" cy="69.52" r="0.127" /><circle cx="84.76" cy="69.52" r="0.127" /><circle cx="87.3" cy="69.52" r="0.127" /><circle cx="89.84" cy="69.52" r="0.127" /><circle cx="92.38" cy="69.52" r="0.127" /><circle cx="94.92" cy="69.52" r="0.127" /><circle cx="97.46" cy="69.52" r="0.127" /><circle cx="100.0" cy="69.52" r="0.127" /><circle cx="102.54" cy="69.52" r="0.127" /><circle cx="105.08" cy="69.52" r="0.127" /><circle cx="107.62" cy="69.52" r="0.127" /><circle cx="110.16" cy="69.52" r="0.127" /><circle cx="112.7" cy="69.52" r="0.127" /><circle cx="115.24" cy="69.52" r="0.127" /><circle cx="117.78" cy="69.52" r="0.127" /><circle cx="120.32" cy="69.52" r="0.127" /><circle cx="122.86" cy="69.52" r="0.127" /><circle cx="125.4" cy="69.52" r="0.127" /><circle cx="127.94" cy="69.52" r="0.127" /><circle cx="130.48" cy="69.52" r="0.127" /><circle cx="133.02" cy="69.52" r="0.127" /><circle cx="135.56" cy="69.52" r="0.127" /><circle cx="138.1" cy="69.52" r="0.127" /><circle cx="140.64" cy="69.52" r="0.127" /><circle cx="143.18" cy="69.52" r="0.127" /><circle cx="145.72" cy="69.52" r="0.127" /><circle cx="148.26" cy="69.52" r="0.127" /><circle cx="51.74" cy="66.98" r="0.127" /><circle cx="54.28" cy="66.98" r="0.127" /><circle cx="56.82" cy="66.98" r="0.127" /><circle cx="59.36" cy="66.98" r="0.127" /><circle cx="61.9" cy="66.98" r="0.127" /><circle cx="64.44" cy="66.98" r="0.127" /><circle cx="66.98" cy="66.98" r="0.127" /><circle cx="69.52" cy="66.98" r="0.127" /><circle cx="72.06" cy="66.98" r="0.127" /><circle cx="74.6" cy="66.98" r="0.127" /><circle cx="77.14" cy="66.98" r="0.127" /><circle cx="79.68" cy="66.98" r="0.127" /><circle cx="82.22" cy="66.98" r="0.127" /><circle cx="84.76" cy="66.98" r="0.127" /><circle cx="87.3" cy="66.98" r="0.127" /><circle cx="89.84" cy="66.98" r="0.127" /><circle cx="92.38" cy="66.98" r="0.127" /><circle cx="94.92" cy="66.98" r="0.127" /><circle cx="97.46" cy="66.98" r="0.127" /><circle cx="100.0" cy="66.98" r="0.127" /><circle cx="102.54" cy="66.98" r="0.127" /><circle cx="105.08" cy="66.98" r="0.127" /><circle cx="107.62" cy="66.98" r="0.127" /><circle cx="110.16" cy="66.98" r="0.127" /><circle cx="112.7" cy="66.98" r="0.127" /><circle cx="115.24" cy="66.98" r="0.127" /><circle cx="117.78" cy="66.98" r="0.127" /><circle cx="120.32" cy="66.98" r="0.127" /><circle cx="122.86" cy="66.98" r="0.127" /><circle cx="125.4" cy="66.98" r="0.127" /><circle cx="127.94" cy="66.98" r="0.127" /><circle cx="130.48" cy="66.98" r="0.127" /><circle cx="133.02" cy="66.98" r="0.127" /><circle cx="135.56" cy="66.98" r="0.127" /><circle cx="138.1" cy="66.98" r="0.127" /><circle cx="140.64" cy="66.98" r="0.127" /><circle cx="143.18" cy="66.98" r="0.127" /><circle cx="145.72" cy="66.98" r="0.127" /><circle cx="148.26" cy="66.98" r="0.127" /><circle cx="51.74" cy="64.44" r="0.127" /><circle cx="54.28" cy="64.44" r="0.127" /><circle cx="56.82" cy="64.44" r="0.127" /><circle cx="59.36" cy="64.44" r="0.127" /><circle cx="61.9" cy="64.44" r="0.127" /><circle cx="64.44" cy="64.44" r="0.127" /><circle cx="66.98" cy="64.44" r="0.127" /><circle cx="69.52" cy="64.44" r="0.127" /><circle cx="72.06" cy="64.44" r="0.127" /><circle cx="74.6" cy="64.44" r="0.127" /><circle cx="77.14" cy="64.44" r="0.127" /><circle cx="79.68" cy="64.44" r="0.127" /><circle cx="82.22" cy="64.44" r="0.127" /><circle cx="84.76" cy="64.44" r="0.127" /><circle cx="87.3" cy="64.44" r="0.127" /><circle cx="89.84" cy="64.44" r="0.127" /><circle cx="92.38" cy="64.44" r="0.127" /><circle cx="94.92" cy="64.44" r="0.127" /><circle cx="97.46" cy="64.44" r="0.127" /><circle cx="100.0" cy="64.44" r="0.127" /><circle cx="102.54" cy="64.44" r="0.127" /><circle cx="105.08" cy="64.44" r="0.127" /><circle cx="107.62" cy="64.44" r="0.127" /><circle cx="110.16" cy="64.44" r="0.127" /><circle cx="112.7" cy="64.44" r="0.127" /><circle cx="115.24" cy="64.44" r="0.127" /><circle cx="117.78" cy="64.44" r="0.127" /><circle cx="120.32" cy="64.44" r="0.127" /><circle cx="122.86" cy="64.44" r="0.127" /><circle cx="125.4" cy="64.44" r="0.127" /><circle cx="127.94" cy="64.44" r="0.127" /><circle cx="130.48" cy="64.44" r="0.127" /><circle cx="133.02" cy="64.44" r="0.127" /><circle cx="135.56" cy="64.44" r="0.127" /><circle cx="138.1" cy="64.44" r="0.127" /><circle cx="140.64" cy="64.44" r="0.127" /><circle cx="143.18" cy="64.44" r="0.127" /><circle cx="145.72" cy="64.44" r="0.127" /><circle cx="148.26" cy="64.44" r="0.127" /><circle cx="51.74" cy="61.9" r="0.127" /><circle cx="54.28" cy="61.9" r="0.127" /><circle cx="56.82" cy="61.9" r="0.127" /><circle cx="59.36" cy="61.9" r="0.127" /><circle cx="61.9" cy="61.9" r="0.127" /><circle cx="64.44" cy="61.9" r="0.127" /><circle cx="66.98" cy="61.9" r="0.127" /><circle cx="69.52" cy="61.9" r="0.127" /><circle cx="72.06" cy="61.9" r="0.127" /><circle cx="74.6" cy="61.9" r="0.127" /><circle cx="77.14" cy="61.9" r="0.127" /><circle cx="79.68" cy="61.9" r="0.127" /><circle cx="82.22" cy="61.9" r="0.127" /><circle cx="84.76" cy="61.9" r="0.127" /><circle cx="87.3" cy="61.9" r="0.127" /><circle cx="89.84" cy="61.9" r="0.127" /><circle cx="92.38" cy="61.9" r="0.127" /><circle cx="94.92" cy="61.9" r="0.127" /><circle cx="97.46" cy="61.9" r="0.127" /><circle cx="100.0" cy="61.9" r="0.127" /><circle cx="102.54" cy="61.9" r="0.127" /><circle cx="105.08" cy="61.9" r="0.127" /><circle cx="107.62" cy="61.9" r="0.127" /><circle cx="110.16" cy="61.9" r="0.127" /><circle cx="112.7" cy="61.9" r="0.127" /><circle cx="115.24" cy="61.9" r="0.127" /><circle cx="117.78" cy="61.9" r="0.127" /><circle cx="120.32" cy="61.9" r="0.127" /><circle cx="122.86" cy="61.9" r="0.127" /><circle cx="125.4" cy="61.9" r="0.127" /><circle cx="127.94" cy="61.9" r="0.127" /><circle cx="130.48" cy="61.9" r="0.127" /><circle cx="133.02" cy="61.9" r="0.127" /><circle cx="135.56" cy="61.9" r="0.127" /><circle cx="138.1" cy="61.9" r="0.127" /><circle cx="140.64" cy="61.9" r="0.127" /><circle cx="143.18" cy="61.9" r="0.127" /><circle cx="145.72" cy="61.9" r="0.127" /><circle cx="148.26" cy="61.9" r="0.127" /><circle cx="51.74" cy="59.36" r="0.127" /><circle cx="54.28" cy="59.36" r="0.127" /><circle cx="56.82" cy="59.36" r="0.127" /><circle cx="59.36" cy="59.36" r="0.127" /><circle cx="61.9" cy="59.36" r="0.127" /><circle cx="64.44" cy="59.36" r="0.127" /><circle cx="66.98" cy="59.36" r="0.127" /><circle cx="69.52" cy="59.36" r="0.127" /><circle cx="72.06" cy="59.36" r="0.127" /><circle cx="74.6" cy="59.36" r="0.127" /><circle cx="77.14" cy="59.36" r="0.127" /><circle cx="79.68" cy="59.36" r="0.127" /><circle cx="82.22" cy="59.36" r="0.127" /><circle cx="84.76" cy="59.36" r="0.127" /><circle cx="87.3" cy="59.36" r="0.127" /><circle cx="89.84" cy="59.36" r="0.127" /><circle cx="92.38" cy="59.36" r="0.127" /><circle cx="94.92" cy="59.36" r="0.127" /><circle cx="97.46" cy="59.36" r="0.127" /><circle cx="100.0" cy="59.36" r="0.127" /><circle cx="102.54" cy="59.36" r="0.127" /><circle cx="105.08" cy="59.36" r="0.127" /><circle cx="107.62" cy="59.36" r="0.127" /><circle cx="110.16" cy="59.36" r="0.127" /><circle cx="112.7" cy="59.36" r="0.127" /><circle cx="115.24" cy="59.36" r="0.127" /><circle cx="117.78" cy="59.36" r="0.127" /><circle cx="120.32" cy="59.36" r="0.127" /><circle cx="122.86" cy="59.36" r="0.127" /><circle cx="125.4" cy="59.36" r="0.127" /><circle cx="127.94" cy="59.36" r="0.127" /><circle cx="130.48" cy="59.36" r="0.127" /><circle cx="133.02" cy="59.36" r="0.127" /><circle cx="135.56" cy="59.36" r="0.127" /><circle cx="138.1" cy="59.36" r="0.127" /><circle cx="140.64" cy="59.36" r="0.127" /><circle cx="143.18" cy="59.36" r="0.127" /><circle cx="145.72" cy="59.36" r="0.127" /><circle cx="148.26" cy="59.36" r="0.127" /><circle cx="51.74" cy="56.82" r="0.127" /><circle cx="54.28" cy="56.82" r="0.127" /><circle cx="56.82" cy="56.82" r="0.127" /><circle cx="59.36" cy="56.82" r="0.127" /><circle cx="61.9" cy="56.82" r="0.127" /><circle cx="64.44" cy="56.82" r="0.127" /><circle cx="66.98" cy="56.82" r="0.127" /><circle cx="69.52" cy="56.82" r="0.127" /><circle cx="72.06" cy="56.82" r="0.127" /><circle cx="74.6" cy="56.82" r="0.127" /><circle cx="77.14" cy="56.82" r="0.127" /><circle cx="79.68" cy="56.82" r="0.127" /><circle cx="82.22" cy="56.82" r="0.127" /><circle cx="84.76" cy="56.82" r="0.127" /><circle cx="87.3" cy="56.82" r="0.127" /><circle cx="89.84" cy="56.82" r="0.127" /><circle cx="92.38" cy="56.82" r="0.127" /><circle cx="94.92" cy="56.82" r="0.127" /><circle cx="97.46" cy="56.82" r="0.127" /><circle cx="100.0" cy="56.82" r="0.127" /><circle cx="102.54" cy="56.82" r="0.127" /><circle cx="105.08" cy="56.82" r="0.127" /><circle cx="107.62" cy="56.82" r="0.127" /><circle cx="110.16" cy="56.82" r="0.127" /><circle cx="112.7" cy="56.82" r="0.127" /><circle cx="115.24" cy="56.82" r="0.127" /><circle cx="117.78" cy="56.82" r="0.127" /><circle cx="120.32" cy="56.82" r="0.127" /><circle cx="122.86" cy="56.82" r="0.127" /><circle cx="125.4" cy="56.82" r="0.127" /><circle cx="127.94" cy="56.82" r="0.127" /><circle cx="130.48" cy="56.82" r="0.127" /><circle cx="133.02" cy="56.82" r="0.127" /><circle cx="135.56" cy="56.82" r="0.127" /><circle cx="138.1" cy="56.82" r="0.127" /><circle cx="140.64" cy="56.82" r="0.127" /><circle cx="143.18" cy="56.82" r="0.127" /><circle cx="145.72" cy="56.82" r="0.127" /><circle cx="148.26" cy="56.82" r="0.127" /><circle cx="51.74" cy="54.28" r="0.127" /><circle cx="54.28" cy="54.28" r="0.127" /><circle cx="56.82" cy="54.28" r="0.127" /><circle cx="59.36" cy="54.28" r="0.127" /><circle cx="61.9" cy="54.28" r="0.127" /><circle cx="64.44" cy="54.28" r="0.127" /><circle cx="66.98" cy="54.28" r="0.127" /><circle cx="69.52" cy="54.28" r="0.127" /><circle cx="72.06" cy="54.28" r="0.127" /><circle cx="74.6" cy="54.28" r="0.127" /><circle cx="77.14" cy="54.28" r="0.127" /><circle cx="79.68" cy="54.28" r="0.127" /><circle cx="82.22" cy="54.28" r="0.127" /><circle cx="84.76" cy="54.28" r="0.127" /><circle cx="87.3" cy="54.28" r="0.127" /><circle cx="89.84" cy="54.28" r="0.127" /><circle cx="92.38" cy="54.28" r="0.127" /><circle cx="94.92" cy="54.28" r="0.127" /><circle cx="97.46" cy="54.28" r="0.127" /><circle cx="100.0" cy="54.28" r="0.127" /><circle cx="102.54" cy="54.28" r="0.127" /><circle cx="105.08" cy="54.28" r="0.127" /><circle cx="107.62" cy="54.28" r="0.127" /><circle cx="110.16" cy="54.28" r="0.127" /><circle cx="112.7" cy="54.28" r="0.127" /><circle cx="115.24" cy="54.28" r="0.127" /><circle cx="117.78" cy="54.28" r="0.127" /><circle cx="120.32" cy="54.28" r="0.127" /><circle cx="122.86" cy="54.28" r="0.127" /><circle cx="125.4" cy="54.28" r="0.127" /><circle cx="127.94" cy="54.28" r="0.127" /><circle cx="130.48" cy="54.28" r="0.127" /><circle cx="133.02" cy="54.28" r="0.127" /><circle cx="135.56" cy="54.28" r="0.127" /><circle cx="138.1" cy="54.28" r="0.127" /><circle cx="140.64" cy="54.28" r="0.127" /><circle cx="143.18" cy="54.28" r="0.127" /><circle cx="145.72" cy="54.28" r="0.127" /><circle cx="148.26" cy="54.28" r="0.127" /><circle cx="51.74" cy="51.74" r="0.127" /><circle cx="54.28" cy="51.74" r="0.127" /><circle cx="56.82" cy="51.74" r="0.127" /><circle cx="59.36" cy="51.74" r="0.127" /><circle cx="61.9" cy="51.74" r="0.127" /><circle cx="64.44" cy="51.74" r="0.127" /><circle cx="66.98" cy="51.74" r="0.127" /><circle cx="69.52" cy="51.74" r="0.127" /><circle cx="72.06" cy="51.74" r="0.127" /><circle cx="74.6" cy="51.74" r="0.127" /><circle cx="77.14" cy="51.74" r="0.127" /><circle cx="79.68" cy="51.74" r="0.127" /><circle cx="82.22" cy="51.74" r="0.127" /><circle cx="84.76" cy="51.74" r="0.127" /><circle cx="87.3" cy="51.74" r="0.127" /><circle cx="89.84" cy="51.74" r="0.127" /><circle cx="92.38" cy="51.74" r="0.127" /><circle cx="94.92" cy="51.74" r="0.127" /><circle cx="97.46" cy="51.74" r="0.127" /><circle cx="100.0" cy="51.74" r="0.127" /><circle cx="102.54" cy="51.74" r="0.127" /><circle cx="105.08" cy="51.74" r="0.127" /><circle cx="107.62" cy="51.74" r="0.127" /><circle cx="110.16" cy="51.74" r="0.127" /><circle cx="112.7" cy="51.74" r="0.127" /><circle cx="115.24" cy="51.74" r="0.127" /><circle cx="117.78" cy="51.74" r="0.127" /><circle cx="120.32" cy="51.74" r="0.127" /><circle cx="122.86" cy="51.74" r="0.127" /><circle cx="125.4" cy="51.74" r="0.127" /><circle cx="127.94" cy="51.74" r="0.127" /><circle cx="130.48" cy="51.74" r="0.127" /><circle cx="133.02" cy="51.74" r="0.127" /><circle cx="135.56" cy="51.74" r="0.127" /><circle cx="138.1" cy="51.74" r="0.127" /><circle cx="140.64" cy="51.74" r="0.127" /><circle cx="143.18" cy="51.74" r="0.127" /><circle cx="145.72" cy="51.74" r="0.127" /><circle cx="148.26" cy="51.74" r="0.127" /><line stroke="green" x1="44.12" x2="44.12" y1="126.67" y2="73.33" /><line stroke="green" x1="44.12" x2="108.636" y1="73.33" y2="73.33" /><line stroke="green" x1="108.636" x2="110.16" y1="73.33" y2="74.854" /><line stroke="green" x1="110.16" x2="110.16" y1="74.854" y2="86.284" /><line stroke="green" x1="110.16" x2="112.7" y1="86.284" y2="88.824" /><line stroke="green" x1="112.7" x2="112.7" y1="88.824" y2="121.59" /><line stroke="green" x1="112.7" x2="110.16" y1="121.59" y2="124.13" /><line stroke="green" x1="110.16" x2="110.16" y1="124.13" y2="126.67" /><line stroke="green" x1="110.16" x2="44.12" y1="126.67" y2="126.67" /><circle cx="58.09" cy="124.13" r="1.5875" /><circle cx="59.36" cy="75.87" r="1.5875" /><circle cx="110.16" cy="91.11" r="1.5875" /><circle cx="110.16" cy="119.05" r="1.5875" /><circle cx="89.84" cy="124.13" r="0.635" /><circle cx="87.3" cy="124.13" r="0.635" /><circle cx="84.76" cy="124.13" r="0.635" /><circle cx="82.22" cy="124.13" r="0.635" /><circle cx="79.68" cy="124.13" r="0.635" /><circle cx="77.14" cy="124.13" r="0.635" /><circle cx="74.6" cy="124.13" r="0.635" /><circle cx="72.06" cy="124.13" r="0.635" /><circle cx="107.62" cy="124.13" r="0.635" /><circle cx="105.08" cy="124.13" r="0.635" /><circle cx="102.54" cy="124.13" r="0.635" /><circle cx="100.0" cy="124.13" r="0.635" /><circle cx="97.46" cy="124.13" r="0.635" /><circle cx="94.92" cy="124.13" r="0.635" /><circle cx="107.76" cy="96.24" r="0.635" /><circle cx="110.3" cy="96.24" r="0.635" /><circle cx="107.76" cy="98.78" r="0.635" /><circle cx="110.3" cy="98.78" r="0.635" /><circle cx="107.76" cy="101.32" r="0.635" /><circle cx="110.3" cy="101.32" r="0.635" /><circle cx="107.62" cy="75.87" r="0.635" /><circle cx="105.08" cy="75.87" r="0.635" /><circle cx="102.54" cy="75.87" r="0.635" /><circle cx="100.0" cy="75.87" r="0.635" /><circle cx="97.46" cy="75.87" r="0.635" /><circle cx="94.92" cy="75.87" r="0.635" /><circle cx="92.38" cy="75.87" r="0.635" /><circle cx="89.84" cy="75.87" r="0.635" /><circle cx="85.776" cy="75.87" r="0.635" /><circle cx="83.236" cy="75.87" r="0.635" /><circle cx="80.696" cy="75.87" r="0.635" /><circle cx="78.156" cy="75.87" r="0.635" /><circle cx="75.616" cy="75.87" r="0.635" /><circle cx="73.076" cy="75.87" r="0.635" /><circle cx="70.536" cy="75.87" r="0.635" /><circle cx="67.996" cy="75.87" r="0.635" /><line stroke="red" x1="49.6" x2="49.6" y1="177.07" y2="127.07" /><line stroke="red" x1="49.6" x2="99.6" y1="127.07" y2="127.07" /><line stroke="red" x1="99.6" x2="99.6" y1="127.07" y2="177.07" /><line stroke="red" x1="99.6" x2="49.6" y1="177.07" y2="177.07" /><circle cx="92.38" cy="146.99" r="0.635" /><circle cx="94.92" cy="146.99" r="0.635" /><circle cx="92.38" cy="144.45" r="0.635" /><circle cx="94.92" cy="144.45" r="0.635" /><circle cx="92.38" cy="141.91" r="0.635" /><circle cx="94.92" cy="141.91" r="0.635" /><circle cx="92.38" cy="139.37" r="0.635" /><circle cx="94.92" cy="139.37" r="0.635" /><circle cx="92.38" cy="136.83" r="0.635" /><circle cx="94.92" cy="136.83" r="0.635" /><circle cx="92.38" cy="134.29" r="0.635" /><circle cx="94.92" cy="134.29" r="0.635" /><circle cx="92.38" cy="131.75" r="0.635" /><circle cx="94.92" cy="131.75" r="0.635" /><circle cx="92.38" cy="129.21" r="0.635" /><circle cx="94.92" cy="129.21" r="0.635" /><circle cx="56.82" cy="146.99" r="0.635" /><circle cx="54.28" cy="146.99" r="0.635" /><circle cx="56.82" cy="144.45" r="0.635" /><circle cx="54.28" cy="144.45" r="0.635" /><circle cx="56.82" cy="141.91" r="0.635" /><circle cx="54.28" cy="141.91" r="0.635" /><circle cx="56.82" cy="139.37" r="0.635" /><circle cx="54.28" cy="139.37" r="0.635" /><circle cx="56.82" cy="136.83" r="0.635" /><circle cx="54.28" cy="136.83" r="0.635" /><circle cx="56.82" cy="134.29" r="0.635" /><circle cx="54.28" cy="134.29" r="0.635" /><circle cx="56.82" cy="131.75" r="0.635" /><circle cx="54.28" cy="131.75" r="0.635" /><circle cx="56.82" cy="129.21" r="0.635" /><circle cx="54.28" cy="129.21" r="0.635" /><circle cx="74.6" cy="130.48" r="1.5875" /><line stroke="red" x1="100.4" x2="100.4" y1="177.07" y2="127.07" /><line stroke="red" x1="100.4" x2="150.4" y1="127.07" y2="127.07" /><line stroke="red" x1="150.4" x2="150.4" y1="127.07" y2="177.07" /><line stroke="red" x1="150.4" x2="100.4" y1="177.07" y2="177.07" /><circle cx="143.18" cy="146.99" r="0.635" /><circle cx="145.72" cy="146.99" r="0.635" /><circle cx="143.18" cy="144.45" r="0.635" /><circle cx="145.72" cy="144.45" r="0.635" /><circle cx="143.18" cy="141.91" r="0.635" /><circle cx="145.72" cy="141.91" r="0.635" /><circle cx="143.18" cy="139.37" r="0.635" /><circle cx="145.72" cy="139.37" r="0.635" /><circle cx="143.18" cy="136.83" r="0.635" /><circle cx="145.72" cy="136.83" r="0.635" /><circle cx="143.18" cy="134.29" r="0.635" /><circle cx="145.72" cy="134.29" r="0.635" /><circle cx="143.18" cy="131.75" r="0.635" /><circle cx="145.72" cy="131.75" r="0.635" /><circle cx="143.18" cy="129.21" r="0.635" /><circle cx="145.72" cy="129.21" r="0.635" /><circle cx="107.62" cy="146.99" r="0.635" /><circle cx="105.08" cy="146.99" r="0.635" /><circle cx="107.62" cy="144.45" r="0.635" /><circle cx="105.08" cy="144.45" r="0.635" /><circle cx="107.62" cy="141.91" r="0.635" /><circle cx="105.08" cy="141.91" r="0.635" /><circle cx="107.62" cy="139.37" r="0.635" /><circle cx="105.08" cy="139.37" r="0.635" /><circle cx="107.62" cy="136.83" r="0.635" /><circle cx="105.08" cy="136.83" r="0.635" /><circle cx="107.62" cy="134.29" r="0.635" /><circle cx="105.08" cy="134.29" r="0.635" /><circle cx="107.62" cy="131.75" r="0.635" /><circle cx="105.08" cy="131.75" r="0.635" /><circle cx="107.62" cy="129.21" r="0.635" /><circle cx="105.08" cy="129.21" r="0.635" /><circle cx="125.4" cy="130.48" r="1.5875" /><line stroke="red" x1="49.6" x2="49.6" y1="72.93" y2="22.93" /><line stroke="red" x1="49.6" x2="99.6" y1="22.93" y2="22.93" /><line stroke="red" x1="99.6" x2="99.6" y1="22.93" y2="72.93" /><line stroke="red" x1="99.6" x2="49.6" y1="72.93" y2="72.93" /><circle cx="92.38" cy="53.01" r="0.635" /><circle cx="94.92" cy="53.01" r="0.635" /><circle cx="92.38" cy="55.55" r="0.635" /><circle cx="94.92" cy="55.55" r="0.635" /><circle cx="92.38" cy="58.09" r="0.635" /><circle cx="94.92" cy="58.09" r="0.635" /><circle cx="92.38" cy="60.63" r="0.635" /><circle cx="94.92" cy="60.63" r="0.635" /><circle cx="92.38" cy="63.17" r="0.635" /><circle cx="94.92" cy="63.17" r="0.635" /><circle cx="92.38" cy="65.71" r="0.635" /><circle cx="94.92" cy="65.71" r="0.635" /><circle cx="92.38" cy="68.25" r="0.635" /><circle cx="94.92" cy="68.25" r="0.635" /><circle cx="92.38" cy="70.79" r="0.635" /><circle cx="94.92" cy="70.79" r="0.635" /><circle cx="56.82" cy="53.01" r="0.635" /><circle cx="54.28" cy="53.01" r="0.635" /><circle cx="56.82" cy="55.55" r="0.635" /><circle cx="54.28" cy="55.55" r="0.635" /><circle cx="56.82" cy="58.09" r="0.635" /><circle cx="54.28" cy="58.09" r="0.635" /><circle cx="56.82" cy="60.63" r="0.635" /><circle cx="54.28" cy="60.63" r="0.635" /><circle cx="56.82" cy="63.17" r="0.635" /><circle cx="54.28" cy="63.17" r="0.635" /><circle cx="56.82" cy="65.71" r="0.635" /><circle cx="54.28" cy="65.71" r="0.635" /><circle cx="56.82" cy="68.25" r="0.635" /><circle cx="54.28" cy="68.25" r="0.635" /><circle cx="56.82" cy="70.79" r="0.635" /><circle cx="54.28" cy="70.79" r="0.635" /><circle cx="74.6" cy="69.52" r="1.5875" /><line stroke="red" x1="100.4" x2="100.4" y1="72.93" y2="22.93" /><line stroke="red" x1="100.4" x2="150.4" y1="22.93" y2="22.93" /><line stroke="red" x1="150.4" x2="150.4" y1="22.93" y2="72.93" /><line stroke="red" x1="150.4" x2="100.4" y1="72.93" y2="72.93" /><circle cx="143.18" cy="53.01" r="0.635" /><circle cx="145.72" cy="53.01" r="0.635" /><circle cx="143.18" cy="55.55" r="0.635" /><circle cx="145.72" cy="55.55" r="0.635" /><circle cx="143.18" cy="58.09" r="0.635" /><circle cx="145.72" cy="58.09" r="0.635" /><circle cx="143.18" cy="60.63" r="0.635" /><circle cx="145.72" cy="60.63" r="0.635" /><circle cx="143.18" cy="63.17" r="0.635" /><circle cx="145.72" cy="63.17" r="0.635" /><circle cx="143.18" cy="65.71" r="0.635" /><circle cx="145.72" cy="65.71" r="0.635" /><circle cx="143.18" cy="68.25" r="0.635" /><circle cx="145.72" cy="68.25" r="0.635" /><circle cx="143.18" cy="70.79" r="0.635" /><circle cx="145.72" cy="70.79" r="0.635" /><circle cx="107.62" cy="53.01" r="0.635" /><circle cx="105.08" cy="53.01" r="0.635" /><circle cx="107.62" cy="55.55" r="0.635" /><circle cx="105.08" cy="55.55" r="0.635" /><circle cx="107.62" cy="58.09" r="0.635" /><circle cx="105.08" cy="58.09" r="0.635" /><circle cx="107.62" cy="60.63" r="0.635" /><circle cx="105.08" cy="60.63" r="0.635" /><circle cx="107.62" cy="63.17" r="0.635" /><circle cx="105.08" cy="63.17" r="0.635" /><circle cx="107.62" cy="65.71" r="0.635" /><circle cx="105.08" cy="65.71" r="0.635" /><circle cx="107.62" cy="68.25" r="0.635" /><circle cx="105.08" cy="68.25" r="0.635" /><circle cx="107.62" cy="70.79" r="0.635" /><circle cx="105.08" cy="70.79" r="0.635" /><circle cx="125.4" cy="69.52" r="1.5875" /><circle cx="125.0" cy="54.0" r="1.5875" /><circle cx="75.0" cy="54.0" r="1.5875" /><circle cx="125.0" cy="146.0" r="1.5875" /><circle cx="75.0" cy="146.0" r="1.5875" /></svg>