M48
;DRILL file {kicad (2014-jul-16 BZR unknown)-product} date Fri 03 Oct 2014 09:52:32 PM PDT
;FORMAT={-:-/ absolute / inch / decimal}
FMAT,2
INCH,TZ
T1C0.025
T2C0.030
T3C0.032
T4C0.032
T5C0.039
T6C0.040
T7C0.047
T8C0.050
T9C0.125
T10C0.150
%
G90
G05
M72
T1
X1.1Y-3.75
X1.2Y-2.075
X1.2Y-3.7
X1.225Y-2.175
X1.225Y-2.25
X1.25Y-3.475
X1.35Y-2.85
X1.35Y-3.2
X1.35Y-4.4
X1.375Y-2.575
X1.375Y-4.525
X1.4Y-2.4
X1.4Y-2.8
X1.4Y-3.2
X1.4Y-3.4
X1.45Y-1.45
X1.45Y-4.45
X1.5Y-1.35
X1.5Y-2.825
X1.5Y-2.9
X1.5Y-3.25
X1.5Y-3.525
X1.5Y-4.625
X1.525Y-4.5
X1.55Y-1.25
X1.55Y-4.15
X1.575Y-1.75
X1.575Y-4.65
X1.575Y-4.7
X1.575Y-4.75
X1.6Y-1.2
X1.6Y-4.3
X1.6Y-4.8
X1.625Y-2.275
X1.65Y-2.775
X1.65Y-3.075
X1.65Y-3.375
X1.675Y-2.15
X1.675Y-2.275
X1.725Y-1.55
X1.725Y-2.3
X1.75Y-4.3
X1.75Y-4.725
X1.775Y-2.325
X1.8Y-3.075
X1.8Y-4.2
X1.825Y-1.7
X1.825Y-1.825
X1.85Y-2.975
X1.9Y-3.2
X1.975Y-2.325
X2.025Y-2.3
X2.05Y-2.775
X2.09Y-2.2775
X2.1Y-2.325
X2.1Y-3.05
X2.1Y-3.8
X2.135Y-2.16
X2.15Y-3.6
X2.15Y-3.65
X2.175Y-2.35
X2.175Y-3.8
X2.2Y-4.075
X2.2Y-4.275
X2.235Y-2.12
X2.25Y-2.775
X2.25Y-4.1
X2.25Y-4.275
X2.275Y-1.35
X2.275Y-1.4
X2.3Y-2.675
X2.3Y-4.8
X2.325Y-1.25
X2.325Y-2.15
X2.35Y-1.55
X2.35Y-3.15
X2.375Y-1.5
X2.4Y-2.65
X2.4Y-3.375
X2.4Y-3.475
X2.415Y-2.335
X2.425Y-1.45
X2.425Y-1.55
X2.425Y-1.775
X2.425Y-1.9
X2.425Y-2.925
X2.45Y-2.465
X2.475Y-1.675
X2.475Y-4.45
X2.5Y-2.2
X2.5Y-3.175
X2.5Y-3.6
X2.5Y-3.65
X2.525Y-4.35
X2.525Y-4.75
X2.55Y-1.3
X2.55Y-2.625
X2.55Y-2.85
X2.55Y-2.925
X2.55Y-3.4
X2.575Y-1.65
X2.575Y-4.275
X2.575Y-4.4
X2.575Y-4.5
X2.575Y-4.6
X2.575Y-4.7
X2.6Y-1.75
X2.6Y-1.85
X2.6Y-2.375
X2.625Y-1.2
X2.625Y-1.4
X2.625Y-1.6
X2.625Y-1.7
X2.625Y-1.8
X2.625Y-4.8
X2.625Y-4.85
X2.65Y-2.525
X2.65Y-2.775
X2.65Y-2.925
X2.675Y-2.225
X2.675Y-3.425
X2.675Y-3.6
X2.675Y-3.65
X2.675Y-3.85
X2.7Y-2.35
X2.7Y-3.2
X2.725Y-3.825
X2.73Y-2.59
X2.75Y-2.83
X2.75Y-3.375
X2.775Y-3.6
X2.775Y-3.65
X2.775Y-4.025
X2.8Y-3.125
X2.825Y-3.725
X2.85Y-2.15
X2.85Y-3.4
X2.85Y-3.8
X2.9Y-1.825
X2.9Y-3.75
X2.9Y-4.25
X2.9Y-4.3
X2.925Y-1.75
X2.925Y-4.05
X2.925Y-4.1
X2.95Y-3.6
X2.95Y-3.9
X2.96Y-2.87
X2.975Y-4.875
X3.Y-1.85
X3.Y-3.15
X3.Y-3.825
X3.025Y-4.875
X3.05Y-1.75
X3.05Y-2.925
X3.05Y-3.1
X3.05Y-3.6
X3.05Y-3.75
X3.05Y-4.075
X3.075Y-1.8
X3.1Y-3.2
X3.15Y-2.275
X3.175Y-3.75
X3.175Y-3.825
X3.185Y-2.825
X3.185Y-3.1525
X3.191Y-2.964
X3.1925Y-3.3875
X3.2Y-2.25
X3.225Y-3.6
X3.25Y-2.25
X3.25Y-2.4
X3.275Y-3.35
X3.282Y-2.445
X3.375Y-3.35
X3.4Y-3.95
X3.4Y-4.7
X3.425Y-4.525
X3.425Y-4.6
X3.45Y-4.3
X3.45Y-4.4
X3.475Y-1.555
X3.5Y-3.6
X3.5Y-4.35
X3.575Y-3.5
X3.6Y-2.86
X3.625Y-1.6
X3.625Y-3.375
X3.63Y-1.89
X3.655Y-2.71
X3.7Y-1.675
X3.7Y-1.725
X3.7Y-1.775
X3.7Y-1.825
X3.7Y-1.875
X3.75Y-4.725
X3.765Y-1.265
X3.775Y-3.55
X3.8Y-3.225
X3.825Y-2.75
X3.825Y-2.8
X3.8595Y-4.0665
X3.95Y-2.725
X4.125Y-3.275
X4.2Y-3.225
X4.225Y-2.8
X4.275Y-2.625
X4.285Y-4.35
X4.3Y-1.875
X4.325Y-1.675
X4.325Y-1.725
X4.325Y-1.775
X4.325Y-1.825
X4.425Y-4.625
X4.436Y-1.702
X4.45Y-2.4
X4.525Y-4.25
X4.55Y-4.45
X4.575Y-1.9
X4.6Y-1.6
X4.6Y-3.325
X4.75Y-3.775
X4.775Y-2.725
X4.85Y-1.925
T2
X3.7Y-3.425
X3.7Y-3.525
T3
X1.95Y-3.4
X1.95Y-3.525
X1.95Y-3.725
X2.05Y-2.6
X2.05Y-3.4
X2.05Y-3.525
X2.05Y-3.725
X2.15Y-2.6
X2.225Y-3.5289
X2.225Y-3.7211
X3.575Y-2.475
X3.675Y-2.475
X3.675Y-2.975
X3.775Y-2.975
X4.1Y-3.525
X4.2Y-3.525
X4.35Y-3.625
X4.375Y-4.55
X4.4Y-2.1
X4.4Y-2.275
X4.4Y-2.45
X4.45Y-3.625
X4.475Y-4.55
X4.5Y-2.1
X4.5Y-2.275
X4.5Y-2.45
T4
X1.15Y-2.7
X1.15Y-3.3
X1.25Y-2.7
X1.25Y-3.3
X1.35Y-2.7
X1.35Y-3.3
X1.45Y-2.7
X1.45Y-3.3
X1.55Y-2.7
X1.55Y-3.3
X1.65Y-2.7
X1.65Y-3.3
X1.75Y-2.7
X1.75Y-3.3
X1.85Y-2.7
X1.85Y-3.3
X1.95Y-2.7
X1.95Y-3.3
X2.05Y-2.7
X2.05Y-3.3
X2.15Y-2.7
X2.15Y-3.3
X2.25Y-2.7
X2.25Y-3.3
X2.35Y-2.7
X2.35Y-3.3
X2.45Y-2.7
X2.45Y-3.3
X2.55Y-2.7
X2.55Y-3.3
X2.65Y-2.7
X2.65Y-3.3
X2.75Y-2.7
X2.75Y-3.3
X2.85Y-2.7
X2.85Y-3.3
X2.95Y-2.7
X2.95Y-3.3
X3.05Y-2.7
X3.05Y-3.3
X3.675Y-2.55
X3.675Y-2.85
X3.775Y-2.55
X3.775Y-2.85
X3.875Y-2.55
X3.875Y-2.85
X3.975Y-2.55
X3.975Y-2.85
X4.Y-3.125
X4.Y-3.425
X4.075Y-2.55
X4.075Y-2.85
X4.1Y-3.125
X4.1Y-3.425
X4.175Y-2.55
X4.175Y-2.85
X4.2Y-3.125
X4.2Y-3.425
X4.275Y-2.55
X4.275Y-2.85
X4.3Y-3.125
X4.3Y-3.425
T5
X2.475Y-3.5
X2.775Y-2.3825
X2.8175Y-2.585
X2.875Y-3.5
X3.0175Y-3.44
X3.175Y-2.3825
X3.2175Y-2.585
X3.4175Y-3.44
X3.6775Y-4.335
X3.6775Y-4.735
X3.875Y-3.075
X3.875Y-3.475
X3.9Y-2.975
X4.22Y-2.11
X4.22Y-2.21
X4.22Y-2.31
X4.2925Y-4.05
X4.2925Y-4.45
X4.3Y-2.975
X4.365Y-3.73
X4.365Y-3.83
X4.365Y-3.93
X4.375Y-1.55
X4.375Y-1.95
X4.45Y-3.1
X4.45Y-3.5
X4.45Y-4.05
X4.45Y-4.45
X4.475Y-2.975
X4.5Y-1.55
X4.5Y-1.95
X4.625Y-2.025
X4.625Y-2.425
T6
X1.2Y-1.15
X1.2Y-1.25
X1.2Y-1.35
X1.2Y-1.45
X1.2Y-1.55
X1.2Y-1.65
X1.2Y-1.75
X1.2Y-1.85
X1.2Y-4.15
X1.2Y-4.25
X1.2Y-4.35
X1.2Y-4.45
X1.2Y-4.55
X1.2Y-4.65
X1.2Y-4.75
X1.2Y-4.85
X1.25Y-2.35
X1.25Y-2.45
X1.3Y-1.15
X1.3Y-1.25
X1.3Y-1.35
X1.3Y-1.45
X1.3Y-1.55
X1.3Y-1.65
X1.3Y-1.75
X1.3Y-1.85
X1.3Y-4.15
X1.3Y-4.25
X1.3Y-4.35
X1.3Y-4.45
X1.3Y-4.55
X1.3Y-4.65
X1.3Y-4.75
X1.3Y-4.85
X1.35Y-2.35
X1.35Y-2.45
X1.45Y-2.35
X1.45Y-2.45
X1.55Y-2.35
X1.55Y-2.45
X1.65Y-2.35
X1.65Y-2.45
X1.74Y-2.05
X1.84Y-2.05
X1.94Y-2.05
X2.04Y-2.05
X2.1Y-3.95
X2.14Y-2.05
X2.2Y-3.95
X2.24Y-2.05
X2.3Y-3.95
X2.34Y-2.05
X2.4Y-3.95
X2.44Y-2.05
X2.5Y-3.95
X2.6Y-2.05
X2.6Y-3.95
X2.7Y-1.15
X2.7Y-1.25
X2.7Y-1.35
X2.7Y-1.45
X2.7Y-1.55
X2.7Y-1.65
X2.7Y-1.75
X2.7Y-1.85
X2.7Y-2.05
X2.7Y-4.15
X2.7Y-4.25
X2.7Y-4.35
X2.7Y-4.45
X2.7Y-4.55
X2.7Y-4.65
X2.7Y-4.75
X2.7Y-4.85
X2.8Y-1.15
X2.8Y-1.25
X2.8Y-1.35
X2.8Y-1.45
X2.8Y-1.55
X2.8Y-1.65
X2.8Y-1.75
X2.8Y-1.85
X2.8Y-2.05
X2.8Y-3.95
X2.8Y-4.15
X2.8Y-4.25
X2.8Y-4.35
X2.8Y-4.45
X2.8Y-4.55
X2.8Y-4.65
X2.8Y-4.75
X2.8Y-4.85
X2.9Y-2.05
X2.9Y-3.95
X3.Y-2.05
X3.Y-3.95
X3.1Y-2.05
X3.1Y-3.95
X3.2Y-1.15
X3.2Y-1.25
X3.2Y-1.35
X3.2Y-1.45
X3.2Y-1.55
X3.2Y-1.65
X3.2Y-1.75
X3.2Y-1.85
X3.2Y-2.05
X3.2Y-3.95
X3.2Y-4.15
X3.2Y-4.25
X3.2Y-4.35
X3.2Y-4.45
X3.2Y-4.55
X3.2Y-4.65
X3.2Y-4.75
X3.2Y-4.85
X3.3Y-1.15
X3.3Y-1.25
X3.3Y-1.35
X3.3Y-1.45
X3.3Y-1.55
X3.3Y-1.65
X3.3Y-1.75
X3.3Y-1.85
X3.3Y-2.05
X3.3Y-3.95
X3.3Y-4.15
X3.3Y-4.25
X3.3Y-4.35
X3.3Y-4.45
X3.3Y-4.55
X3.3Y-4.65
X3.3Y-4.75
X3.3Y-4.85
X3.315Y-2.9
X3.315Y-3.
X3.315Y-3.1
X3.415Y-2.9
X3.415Y-3.
X3.415Y-3.1
X3.65Y-3.175
X3.65Y-3.275
X3.75Y-3.175
X3.75Y-3.275
X4.675Y-2.8
X4.675Y-2.9
X4.675Y-3.
X4.675Y-3.1
X4.675Y-3.2
X4.7Y-1.15
X4.7Y-1.25
X4.7Y-1.35
X4.7Y-1.45
X4.7Y-1.55
X4.7Y-1.65
X4.7Y-1.75
X4.7Y-1.85
X4.7Y-4.15
X4.7Y-4.25
X4.7Y-4.35
X4.7Y-4.45
X4.7Y-4.55
X4.7Y-4.65
X4.7Y-4.75
X4.7Y-4.85
X4.775Y-2.8
X4.775Y-2.9
X4.775Y-3.
X4.775Y-3.1
X4.775Y-3.2
X4.8Y-1.15
X4.8Y-1.25
X4.8Y-1.35
X4.8Y-1.45
X4.8Y-1.55
X4.8Y-1.65
X4.8Y-1.75
X4.8Y-1.85
X4.8Y-2.025
X4.8Y-2.125
X4.8Y-2.225
X4.8Y-2.325
X4.8Y-2.425
X4.8Y-2.525
X4.8Y-3.5
X4.8Y-3.6
X4.8Y-3.7
X4.8Y-4.15
X4.8Y-4.25
X4.8Y-4.35
X4.8Y-4.45
X4.8Y-4.55
X4.8Y-4.65
X4.8Y-4.75
X4.8Y-4.85
T7
X4.562Y-3.93
X4.818Y-3.93
T8
X4.475Y-2.575
T9
X1.35Y-3.95
X1.4Y-2.05
X2.Y-1.8
X2.Y-4.2
X2.0157Y-1.189
X2.0157Y-4.811
X3.4Y-2.65
X3.4Y-3.75
X3.9843Y-1.189
X3.9843Y-4.811
X4.Y-1.8
X4.Y-4.2
T10
X3.56Y-2.21
X3.705Y-3.83
T0
M30
